<svg width="26" height="16" viewBox="0 0 26 16" fill="none" xmlns="http://www.w3.org/2000/svg">
<g clip-path="url(#clip0_26374_3352)">
<path d="M8.43545 15.9973H17.9911C20.1341 15.9432 22.1707 15.0769 23.6667 13.583C25.1628 12.0891 26 10.0858 26 8C26 5.9142 25.1628 3.91088 23.6667 2.41699C22.1707 0.923107 20.1341 0.0567956 17.9911 0.00269197H8.43545C7.33812 -0.025012 6.24619 0.161355 5.22407 0.550801C4.20194 0.940248 3.27031 1.52489 2.48412 2.27025C1.69792 3.01561 1.07308 3.90659 0.646442 4.89066C0.219801 5.87473 0 6.93196 0 8C0 9.06804 0.219801 10.1253 0.646442 11.1093C1.07308 12.0934 1.69792 12.9844 2.48412 13.7298C3.27031 14.4751 4.20194 15.0598 5.22407 15.4492C6.24619 15.8386 7.33812 16.025 8.43545 15.9973ZM17.7753 13.1817H8.64571C7.26443 13.1383 5.95464 12.574 4.9933 11.608C4.03197 10.642 3.49447 9.35003 3.49447 8.00538C3.49447 6.66074 4.03197 5.3688 4.9933 4.40279C5.95464 3.43677 7.26443 2.87242 8.64571 2.82907H17.7753C18.4884 2.80669 19.1988 2.92402 19.8644 3.17408C20.5299 3.42415 21.137 3.80184 21.6495 4.28472C22.1621 4.76759 22.5697 5.34579 22.848 5.98496C23.1263 6.62413 23.2697 7.31121 23.2697 8.00538C23.2697 8.69955 23.1263 9.38664 22.848 10.0258C22.5697 10.665 22.1621 11.2432 21.6495 11.7261C21.137 12.2089 20.5299 12.5866 19.8644 12.8367C19.1988 13.0867 18.4884 13.2041 17.7753 13.1817Z" fill="#C74634"/>
</g>
<defs>
<clipPath id="clip0_26374_3352">
<rect width="26" height="16" fill="white"/>
</clipPath>
</defs>
</svg>
