<svg width="24" height="24" viewBox="0 0 24 24" fill="none" xmlns="http://www.w3.org/2000/svg">
<g id="logo">
<path id="Circle_2_" d="M12 24C18.6274 24 24 18.6274 24 12C24 5.37258 18.6274 0 12 0C5.37258 0 0 5.37258 0 12C0 18.6274 5.37258 24 12 24Z" fill="#2CA01C"/>
<path id="qb" d="M3.33337 12.0005C3.33337 14.5719 5.42861 16.6671 8.00004 16.6671H8.66671V14.9528H8.00004C6.38099 14.9528 5.04766 13.6195 5.04766 12.0005C5.04766 10.3814 6.38099 9.04808 8.00004 9.04808H9.61909V18.0957C9.61909 19.0481 10.381 19.81 11.3334 19.81V7.23856H8.00004C5.42861 7.23856 3.33337 9.42904 3.33337 12.0005ZM16 7.23856H15.3334V8.95285H16C17.6191 8.95285 18.9524 10.2862 18.9524 11.9052C18.9524 13.5243 17.6191 14.8576 16 14.8576H14.381V5.80999C14.381 4.85761 13.6191 4.0957 12.6667 4.0957V16.6671H16C18.5715 16.6671 20.6667 14.5719 20.6667 12.0005C20.6667 9.42904 18.5715 7.23856 16 7.23856Z" fill="white"/>
</g>
</svg>
