<svg width="24" height="14" viewBox="0 0 24 14" fill="none" xmlns="http://www.w3.org/2000/svg">
<g clip-path="url(#clip0_26374_3847)">
<path d="M2.70193 0C1.1666 0 0 1.16275 0 2.65511C0 4.29091 1.1666 4.92261 2.46014 5.31023C3.68417 5.69781 4.26446 6.12813 4.26446 6.97651C4.26446 7.83714 3.62373 8.44139 2.78655 8.44139C1.94635 8.44139 1.22101 7.83714 1.22101 6.90632C1.22101 6.39057 1.46279 6.25933 1.46279 5.97246C1.46279 5.64286 1.23612 5.3987 0.864375 5.3987C0.441255 5.3987 0 6.04573 0 6.96429C0 8.44446 1.26634 9.53398 2.78655 9.53398C4.32189 9.53398 5.48846 8.3712 5.48846 6.87886C5.48846 5.25528 4.32189 4.61133 3.01624 4.22375C1.80733 3.85143 1.22403 3.40586 1.22403 2.55745C1.22403 1.71208 1.84964 1.10782 2.68682 1.10782C3.55421 1.10782 4.25238 1.72429 4.26446 2.57271C4.27958 2.96029 4.54855 3.18918 4.86286 3.18918C5.18926 3.18918 5.48846 2.96029 5.47335 2.54219C5.44615 1.06204 4.21005 0 2.70193 0ZM8.87343 9.51869C9.55646 9.51869 10.0824 9.28981 10.0824 8.82901C10.0824 8.48413 9.79827 8.25524 9.52627 8.25524C9.32678 8.25524 9.18476 8.34072 8.85832 8.34072C7.97583 8.34072 7.28072 7.5808 7.28072 6.68964C7.28072 5.7283 7.99095 4.96535 8.88855 4.96535C9.89798 4.96535 10.5387 5.74051 10.5387 6.86055V8.91444C10.5387 9.27457 10.8228 9.51869 11.1643 9.51869C11.4907 9.51869 11.7748 9.27457 11.7748 8.91444V6.81781C11.7748 5.09659 10.5961 3.83312 8.91575 3.83312C7.35019 3.83312 6.05667 5.05385 6.05667 6.68964C6.05667 8.27048 7.33811 9.51869 8.87343 9.51869ZM15.1296 13.3671C16.6649 13.3671 17.8315 12.2043 17.8315 10.712C17.8315 9.07621 16.6649 8.44446 15.3593 8.05688C14.1504 7.66931 13.5671 7.23899 13.5671 6.39057C13.5671 5.54215 14.2078 4.92568 15.0299 4.92568C15.8701 4.92568 16.6075 5.52994 16.6075 6.46076C16.6075 6.97958 16.3657 7.10775 16.3657 7.39461C16.3657 7.72421 16.5924 7.96838 16.949 7.96838C17.3903 7.96838 17.8315 7.32139 17.8315 6.40278C17.8315 4.92261 16.5531 3.83312 15.0299 3.83312C13.4945 3.83312 12.343 4.99587 12.343 6.48821C12.343 8.11179 13.4945 8.75575 14.8032 9.14333C16.0272 9.51566 16.6075 9.96122 16.6075 10.8096C16.6075 11.6703 15.9667 12.2593 15.1447 12.2593C14.2622 12.2593 13.5792 11.6581 13.5671 10.7944C13.552 10.4068 13.2679 10.1901 12.9686 10.1901C12.6422 10.1901 12.343 10.4068 12.3581 10.8219C12.3702 12.3203 13.6064 13.3671 15.1296 13.3671ZM21.3011 9.51869C22.096 9.51869 22.7246 9.28981 23.1628 9.01516C23.589 8.74354 23.7582 8.51158 23.7582 8.25524C23.7582 7.98362 23.5587 7.7395 23.19 7.7395C22.7488 7.7395 22.3952 8.39869 21.3132 8.39869C20.3612 8.39869 19.6056 7.63878 19.6056 6.67743C19.6056 5.7283 20.3309 4.95314 21.2406 4.95314C22.2229 4.95314 22.7488 5.60013 22.7488 6.0152C22.7488 6.13116 22.6642 6.18914 22.5493 6.18914H21.3555C21.0291 6.18914 20.7873 6.40581 20.7873 6.69272C20.7873 7.00703 21.0291 7.23899 21.3555 7.23899H22.9906C23.6162 7.23899 24 6.90939 24 6.34783C24 4.94093 22.8062 3.83617 21.2256 3.83617C19.66 3.83617 18.3967 5.09962 18.3967 6.67743C18.3967 8.25524 19.7083 9.51869 21.3011 9.51869Z" fill="#00D639"/>
</g>
<defs>
<clipPath id="clip0_26374_3847">
<rect width="24" height="13.4737" fill="white"/>
</clipPath>
</defs>
</svg>
