<svg version="1.2" xmlns="http://www.w3.org/2000/svg" viewBox="0 0 1499 1499" width="1499" height="1499"><defs><clipPath clipPathUnits="userSpaceOnUse" id="cp1"><path d="M-332.8-334.55h2166.03v2166.03H-332.8z"/></clipPath></defs><g id="layer1"><g id="g10"><g id="g12"><g id="Clip-Path: g14" clip-path="url(#cp1)"><g id="g14"><circle id="path20" cx="749.5" cy="749.5" r="748.7" fill="#1ab4d7"/><path id="path22" d="M486.9 875.4c4.3 4.3 6.7 10 6.7 16.1 0 12.6-10.3 22.9-22.9 22.9-6.2 0-12.1-2.5-16.6-7.2L326.6 779.9l-128 127.8c-4.4 4.3-10.1 6.7-16.2 6.7-12.6 0-22.9-10.3-22.9-22.9 0-6.2 2.5-12 6.9-16.4l127.7-127.9-127.7-127.7c-4.4-4.4-6.9-10.2-6.9-16.3 0-12.6 10.3-22.9 22.9-22.9 6.1 0 11.8 2.4 16.2 6.6l128.2 127.8 127.6-127.6c4.4-4.4 10.2-6.8 16.3-6.8 12.6 0 22.9 10.3 22.9 22.9 0 6.1-2.4 11.8-6.6 16.1L359.2 747.4z" fill="#fff"/><circle id="path24" cx="1160.4" cy="747.3" r="41.6" fill="#fff"/><path id="path26" fill-rule="evenodd" d="M1160.4 915.2c-92.8 0-167.9-75-167.9-167.9 0-92.8 75.1-167.8 167.9-167.8 92.8 0 167.9 75 167.9 167.8 0 92.9-75.1 167.9-167.9 167.9zm120.4-167.9c0-66.6-53.8-120.4-120.4-120.4-66.7 0-120.5 53.8-120.5 120.4 0 66.7 53.8 120.5 120.5 120.5 66.6 0 120.4-53.8 120.4-120.5z" fill="#fff"/><path id="path28" d="M1003.6 605.2c0 12.7-9.7 22-23.3 22.5 0 0-5-.1-9.6.4-49.6 6.2-54.9 29.6-54.9 87.6v173.8c-.1 12.6-10.3 22.9-22.9 22.9-12.6 0-22.9-10.3-22.9-22.8l-.1-282.8c.1-12.6 10.1-22.7 22.7-22.7 11 0 20.1 7.8 22.4 18 17-13.1 37.4-19.8 58.6-19.8l7 .1c12.6 0 23 10.2 23 22.8z" fill="#fff"/><path id="path30" fill-rule="evenodd" d="M778 765.6s-225.2.1-239 .1q.1 1.7.4 3.5 1.7 10 5.1 19.3c12.6 33.1 48.3 79.6 114.9 80.4 20.3-.2 39.4-5.3 56.2-14.3 13.2-7.3 24.2-16.8 33.1-26.6 3-3.6 5.6-7.1 8-10.5 11.2-14.3 25.4-11.7 33.8-5.2 10.1 7.7 11.8 23.8 2.6 35.1-.2.3-.5.6-.8.9-13.1 16.4-26.7 30.2-42.9 40.6-15.6 10.1-32.6 17.2-50.2 21.5-20.4 5.2-40.1 6.4-60.4 4-68.2-8.4-125.5-58.8-142.4-125.4-3.4-13.4-5-27-5-40.5 0-53.8 25.8-105.9 70.7-137.9 55-39 130.1-41 187-4.9 39 24.6 64.5 63 74.4 109.7 4.9 26.4-12.7 49.6-45.5 50.2zm-1.4-45.9c-12.6-53.5-60.6-93.3-117.9-93.3-56.7 0-104.3 38.9-117.6 91.4 0 .6-.1 1.3-.1 1.9z" fill="#fff"/></g></g></g></g></g></svg>