<svg width="334" height="258" viewBox="0 0 334 258" fill="none" xmlns="http://www.w3.org/2000/svg"><g filter="url(#filter0_d)"><rect x="62" y="92" width="264" height="72" rx="12" fill="#fff"/><g clip-path="url(#clip0)"><path d="M174.391 115.885h-8.494a1.18 1.18 0 00-1.166.997l-3.435 21.788a.706.706 0 00.404.753.69.69 0 00.297.064h4.054a1.175 1.175 0 001.167-.997l.926-5.877c.044-.278.185-.531.398-.714.214-.183.486-.283.767-.284h2.689c5.595 0 8.824-2.708 9.667-8.075.38-2.348.016-4.193-1.083-5.486-1.207-1.418-3.348-2.169-6.191-2.169zm.98 7.958c-.465 3.049-2.793 3.049-5.045 3.049h-1.281l.899-5.694a.705.705 0 01.699-.598h.587c1.534 0 2.981 0 3.729.875.445.522.582 1.297.412 2.368zm24.409-.098h-4.067a.71.71 0 00-.7.597l-.18 1.138-.284-.412c-.881-1.279-2.844-1.706-4.804-1.706-4.494 0-8.333 3.406-9.081 8.183-.389 2.383.164 4.661 1.515 6.25 1.24 1.461 3.013 2.07 5.123 2.07 3.622 0 5.63-2.329 5.63-2.329l-.181 1.13a.703.703 0 00.401.755.706.706 0 00.297.065h3.663a1.18 1.18 0 001.166-.997l2.199-13.927a.7.7 0 00-.16-.569.696.696 0 00-.537-.248zm-5.669 7.919c-.393 2.324-2.237 3.885-4.589 3.885-1.182 0-2.125-.379-2.731-1.097-.602-.713-.83-1.728-.639-2.859.367-2.305 2.242-3.916 4.558-3.916 1.155 0 2.094.384 2.712 1.108.62.732.866 1.753.689 2.879zm27.331-7.919h-4.087c-.193 0-.383.047-.553.138-.171.09-.316.22-.425.38l-5.637 8.307-2.389-7.983a1.187 1.187 0 00-1.133-.842h-4.017a.706.706 0 00-.671.936l4.502 13.217-4.233 5.978a.707.707 0 00.578 1.118h4.082a1.186 1.186 0 00.97-.507l13.594-19.63a.709.709 0 00-.581-1.112z" fill="#253B80"/><path d="M234.974 115.885h-8.495a1.18 1.18 0 00-1.165.997l-3.435 21.788a.7.7 0 00.161.57.711.711 0 00.537.247h4.359a.822.822 0 00.815-.698l.975-6.176a1.18 1.18 0 011.165-.998h2.687c5.596 0 8.824-2.708 9.669-8.075.381-2.348.015-4.193-1.084-5.486-1.206-1.418-3.346-2.169-6.189-2.169zm.98 7.958c-.463 3.049-2.792 3.049-5.045 3.049h-1.28l.9-5.694a.703.703 0 01.698-.598h.587c1.533 0 2.981 0 3.729.875.446.522.581 1.297.411 2.368zm24.408-.098h-4.065a.699.699 0 00-.698.597l-.18 1.138-.286-.412c-.88-1.279-2.843-1.706-4.803-1.706-4.494 0-8.332 3.406-9.079 8.183-.388 2.383.162 4.661 1.514 6.25 1.242 1.461 3.013 2.07 5.123 2.07 3.621 0 5.629-2.329 5.629-2.329l-.181 1.13a.71.71 0 00.7.82h3.663a1.18 1.18 0 001.165-.997l2.199-13.927a.706.706 0 00-.405-.753.72.72 0 00-.296-.064zm-5.67 7.919c-.39 2.325-2.237 3.885-4.589 3.885-1.178 0-2.125-.379-2.731-1.097-.601-.713-.827-1.728-.638-2.859.369-2.305 2.242-3.916 4.558-3.916 1.155 0 2.094.384 2.712 1.108.622.732.868 1.753.688 2.879zm10.465-15.181l-3.486 22.187a.716.716 0 00.16.57.713.713 0 00.538.247h3.504c.583 0 1.077-.422 1.166-.997l3.438-21.787a.705.705 0 00-.16-.57.715.715 0 00-.538-.249h-3.924a.707.707 0 00-.698.599z" fill="#179BD7"/><path d="M126.024 143.722l.649-4.128-1.446-.033h-6.909l4.801-30.456a.394.394 0 01.39-.333h11.649c3.868 0 6.537.805 7.93 2.394.653.746 1.069 1.525 1.271 2.382.211.9.214 1.974.008 3.285l-.015.096v.84l.654.37c.498.253.947.595 1.322 1.009.559.637.921 1.447 1.073 2.408.158.987.106 2.163-.152 3.493-.298 1.531-.78 2.864-1.431 3.955a8.124 8.124 0 01-2.267 2.485c-.864.614-1.891 1.079-3.052 1.378-1.126.293-2.408.441-3.816.441h-.906c-.648 0-1.278.233-1.772.652a2.744 2.744 0 00-.924 1.65l-.069.371-1.147 7.275-.052.267c-.014.084-.038.127-.072.155a.195.195 0 01-.12.044h-5.597z" fill="#253B80"/><path d="M145.624 117.026a20.56 20.56 0 01-.119.683c-1.536 7.891-6.792 10.616-13.505 10.616h-3.418a1.66 1.66 0 00-1.64 1.407l-1.75 11.102-.496 3.147a.885.885 0 00.498.931.868.868 0 00.365.081h6.062a1.46 1.46 0 001.441-1.23l.06-.309 1.141-7.245.073-.398a1.458 1.458 0 011.441-1.232h.906c5.874 0 10.471-2.386 11.815-9.289.561-2.883.271-5.291-1.215-6.985a5.779 5.779 0 00-1.659-1.279z" fill="#179BD7"/><path d="M144.017 116.385a12.07 12.07 0 00-1.494-.332 18.99 18.99 0 00-3.013-.22h-9.131a1.456 1.456 0 00-1.439 1.232l-1.942 12.308-.056.359a1.657 1.657 0 011.64-1.406H132c6.713 0 11.969-2.728 13.505-10.617.046-.234.084-.461.119-.683a8.142 8.142 0 00-1.263-.533 10.53 10.53 0 00-.344-.108z" fill="#222D65"/><path d="M128.94 117.065a1.453 1.453 0 011.439-1.231h9.131c1.082 0 2.091.071 3.013.22a12.06 12.06 0 011.839.439c.454.15.875.328 1.263.533.457-2.916-.003-4.902-1.579-6.699-1.738-1.98-4.874-2.827-8.886-2.827h-11.65c-.82 0-1.519.596-1.645 1.408l-4.853 30.768a1.005 1.005 0 00.569 1.066.992.992 0 00.419.092h7.192l1.806-11.461 1.942-12.308z" fill="#253B80"/></g></g><g filter="url(#filter1_d)"><rect x="9" y="4" width="264" height="72" rx="12" fill="#fff"/><g clip-path="url(#clip1)"><path fill-rule="evenodd" clip-rule="evenodd" d="M194.5 40.72c0-7.68-3.686-13.74-10.73-13.74-7.074 0-11.354 6.06-11.354 13.68 0 9.03 5.053 13.59 12.305 13.59 3.537 0 6.212-.81 8.233-1.95v-6c-2.021 1.02-4.339 1.65-7.282 1.65-2.883 0-5.439-1.02-5.766-4.56h14.535c0-.39.059-1.95.059-2.67zm-14.683-2.85c0-3.39 2.051-4.8 3.924-4.8 1.813 0 3.745 1.41 3.745 4.8h-7.669zm-18.873-10.89c-2.913 0-4.786 1.38-5.826 2.34l-.386-1.86h-6.539v34.98l7.43-1.59.03-8.49c1.07.78 2.645 1.89 5.261 1.89 5.32 0 10.165-4.32 10.165-13.83-.03-8.7-4.934-13.44-10.135-13.44zm-1.784 20.67c-1.753 0-2.794-.63-3.507-1.41l-.03-11.13c.773-.87 1.843-1.47 3.537-1.47 2.705 0 4.578 3.06 4.578 6.99 0 4.02-1.843 7.02-4.578 7.02zm-21.192-22.44l7.461-1.62V17.5l-7.461 1.59v6.12zm0 2.28h7.461v26.25h-7.461V27.49zm-7.995 2.22l-.475-2.22h-6.421v26.25h7.431V35.95c1.754-2.31 4.726-1.89 5.647-1.56v-6.9c-.951-.36-4.428-1.02-6.182 2.22zm-14.861-8.73l-7.252 1.56-.03 24.03c0 4.44 3.299 7.71 7.698 7.71 2.437 0 4.221-.45 5.201-.99V47.2c-.951.39-5.647 1.77-5.647-2.67V33.88h5.647v-6.39h-5.647l.03-6.51zM95.02 35.11c0-1.17.95-1.62 2.526-1.62 2.259 0 5.112.69 7.371 1.92v-7.05c-2.467-.99-4.904-1.38-7.37-1.38-6.034 0-10.047 3.18-10.047 8.49 0 8.28 11.294 6.96 11.294 10.53 0 1.38-1.188 1.83-2.853 1.83-2.467 0-5.617-1.02-8.114-2.4v7.14a20.44 20.44 0 008.114 1.71c6.182 0 10.433-3.09 10.433-8.46-.03-8.94-11.354-7.35-11.354-10.71z" fill="#32325D"/></g></g><g filter="url(#filter2_d)"><rect x="8" y="180" width="264" height="66" rx="12" fill="#fff"/><path d="M95.495 198.365a.381.381 0 00-.382-.339c-.153 0-3.494-.26-3.494-.26s-2.321-2.37-2.602-2.605c-.255-.26-.74-.182-.943-.13-.026 0-.51.157-1.3.417-.792-2.318-2.143-4.427-4.566-4.427h-.23c-.663-.886-1.53-1.302-2.244-1.302-5.61 0-8.314 7.161-9.156 10.807-2.193.703-3.75 1.172-3.928 1.25-1.224.391-1.25.417-1.402 1.589-.128.885-3.316 26.067-3.316 26.067l24.816 4.74 13.466-2.969c.025-.052-4.693-32.604-4.719-32.838zm-10.1-2.553c-.611.183-1.35.417-2.09.678v-.469c0-1.406-.179-2.552-.51-3.464 1.275.157 2.065 1.589 2.6 3.255zm-4.156-2.968c.331.885.56 2.135.56 3.854v.26c-1.376.443-2.83.886-4.335 1.381.842-3.282 2.448-4.896 3.775-5.495zm-1.633-1.615c.256 0 .51.104.715.261-1.811.859-3.724 3.02-4.515 7.395-1.198.391-2.346.73-3.443 1.094.918-3.333 3.214-8.75 7.243-8.75z" fill="#95BF47"/><path d="M95.113 197.974c-.153 0-3.494-.26-3.494-.26s-2.321-2.37-2.602-2.605a.49.49 0 00-.331-.156l-1.862 39.219 13.466-2.969s-4.718-32.604-4.744-32.838a.693.693 0 00-.433-.391z" fill="#5E8E3E"/><path d="M82.208 205.578l-1.632 5.026s-1.48-.807-3.24-.807c-2.626 0-2.754 1.693-2.754 2.109 0 2.292 5.866 3.177 5.866 8.568 0 4.245-2.627 6.979-6.172 6.979-4.284 0-6.427-2.708-6.427-2.708l1.148-3.854s2.244 1.979 4.132 1.979c1.25 0 1.76-.99 1.76-1.719 0-2.995-4.795-3.125-4.795-8.073 0-4.141 2.907-8.151 8.798-8.151 2.194-.026 3.316.651 3.316.651z" fill="#fff"/><path d="M115.924 215.031c-1.352-.729-2.04-1.38-2.04-2.239 0-1.094.969-1.797 2.474-1.797 1.76 0 3.315.729 3.315.729l1.224-3.828s-1.122-.886-4.437-.886c-4.616 0-7.83 2.709-7.83 6.511 0 2.161 1.505 3.802 3.494 4.974 1.632.911 2.193 1.588 2.193 2.578 0 1.016-.816 1.849-2.32 1.849-2.219 0-4.336-1.172-4.336-1.172l-1.301 3.828s1.938 1.328 5.203 1.328c4.744 0 8.187-2.396 8.187-6.692-.051-2.344-1.76-3.959-3.826-5.183zm18.924-8.073c-2.346 0-4.182 1.146-5.585 2.865l-.051-.026 2.04-10.833h-5.279l-5.152 27.604h5.279l1.76-9.427c.689-3.568 2.499-5.782 4.183-5.782 1.198 0 1.657.834 1.657 2.006 0 .729-.051 1.666-.229 2.395l-1.989 10.808h5.279l2.066-11.146c.229-1.172.382-2.578.382-3.542-.025-3.099-1.581-4.922-4.361-4.922zm16.297 0c-6.376 0-10.584 5.86-10.584 12.396 0 4.167 2.525 7.552 7.269 7.552 6.248 0 10.456-5.703 10.456-12.396.026-3.88-2.167-7.552-7.141-7.552zm-2.601 15.834c-1.811 0-2.551-1.563-2.551-3.542 0-3.099 1.556-8.125 4.438-8.125 1.862 0 2.5 1.667 2.5 3.255 0 3.308-1.607 8.412-4.387 8.412zm23.285-15.834c-3.571 0-5.585 3.23-5.585 3.23h-.051l.306-2.891h-4.693c-.23 1.953-.663 4.948-1.071 7.161l-3.647 19.766h5.279l1.479-7.995h.128s1.096.703 3.086.703c6.223 0 10.278-6.51 10.278-13.073-.026-3.645-1.632-6.901-5.509-6.901zm-5.05 15.886c-1.377 0-2.193-.808-2.193-.808l.867-5.026c.612-3.385 2.346-5.599 4.183-5.599 1.632 0 2.116 1.537 2.116 2.969.026 3.49-2.014 8.464-4.973 8.464zm18.083-23.62c-1.684 0-3.035 1.38-3.035 3.125 0 1.589.994 2.708 2.499 2.708h.051c1.658 0 3.06-1.146 3.086-3.125.025-1.588-1.02-2.708-2.601-2.708zm-7.397 27.318h5.28l3.57-19.167h-5.305l-3.545 19.167zm22.316-19.193h-3.672l.178-.885c.306-1.849 1.378-3.464 3.163-3.464.944 0 1.683.286 1.683.286l1.02-4.244s-.892-.469-2.882-.469c-1.861 0-3.749.547-5.177 1.797-1.811 1.562-2.652 3.828-3.06 6.12l-.153.885h-2.474l-.791 4.089h2.474l-2.806 15.104h5.28l2.805-15.104h3.647l.765-4.115zm12.727.026s-3.316 8.516-4.769 13.177h-.051c-.102-1.51-1.301-13.177-1.301-13.177h-5.56l3.188 17.552c.051.391.026.625-.127.886-.613 1.223-1.658 2.395-2.882 3.255-.995.729-2.117 1.224-3.01 1.536l1.479 4.584c1.072-.235 3.316-1.146 5.178-2.943 2.397-2.292 4.641-5.86 6.937-10.703l6.452-14.193h-5.534v.026z" fill="#000"/></g><defs><filter id="filter0_d" x="54" y="88" width="280" height="88" filterUnits="userSpaceOnUse" color-interpolation-filters="sRGB"><feFlood flood-opacity="0" result="BackgroundImageFix"/><feColorMatrix in="SourceAlpha" values="0 0 0 0 0 0 0 0 0 0 0 0 0 0 0 0 0 0 127 0" result="hardAlpha"/><feOffset dy="4"/><feGaussianBlur stdDeviation="4"/><feComposite in2="hardAlpha" operator="out"/><feColorMatrix values="0 0 0 0 0 0 0 0 0 0 0 0 0 0 0 0 0 0 0.08 0"/><feBlend in2="BackgroundImageFix" result="effect1_dropShadow"/><feBlend in="SourceGraphic" in2="effect1_dropShadow" result="shape"/></filter><filter id="filter1_d" x="1" y="0" width="280" height="88" filterUnits="userSpaceOnUse" color-interpolation-filters="sRGB"><feFlood flood-opacity="0" result="BackgroundImageFix"/><feColorMatrix in="SourceAlpha" values="0 0 0 0 0 0 0 0 0 0 0 0 0 0 0 0 0 0 127 0" result="hardAlpha"/><feOffset dy="4"/><feGaussianBlur stdDeviation="4"/><feComposite in2="hardAlpha" operator="out"/><feColorMatrix values="0 0 0 0 0 0 0 0 0 0 0 0 0 0 0 0 0 0 0.08 0"/><feBlend in2="BackgroundImageFix" result="effect1_dropShadow"/><feBlend in="SourceGraphic" in2="effect1_dropShadow" result="shape"/></filter><filter id="filter2_d" x="0" y="176" width="280" height="82" filterUnits="userSpaceOnUse" color-interpolation-filters="sRGB"><feFlood flood-opacity="0" result="BackgroundImageFix"/><feColorMatrix in="SourceAlpha" values="0 0 0 0 0 0 0 0 0 0 0 0 0 0 0 0 0 0 127 0" result="hardAlpha"/><feOffset dy="4"/><feGaussianBlur stdDeviation="4"/><feComposite in2="hardAlpha" operator="out"/><feColorMatrix values="0 0 0 0 0 0 0 0 0 0 0 0 0 0 0 0 0 0 0.08 0"/><feBlend in2="BackgroundImageFix" result="effect1_dropShadow"/><feBlend in="SourceGraphic" in2="effect1_dropShadow" result="shape"/></filter><clipPath id="clip0"><path fill="#fff" transform="translate(117 107.5)" d="M0 0h154v41H0z"/></clipPath><clipPath id="clip1"><path fill="#fff" transform="translate(87.5 17.5)" d="M0 0h107v45H0z"/></clipPath></defs></svg>