<svg width="28" height="28" viewBox="0 0 28 28" fill="none" xmlns="http://www.w3.org/2000/svg">
<path d="M4.66699 9.625C5.10997 9.625 5.47606 9.95418 5.534 10.3813L5.54199 10.5V21C5.54199 21.4832 5.15024 21.875 4.66699 21.875C4.22401 21.875 3.85792 21.5458 3.79998 21.1187L3.79199 21V10.5C3.79199 10.0168 4.18374 9.625 4.66699 9.625Z" fill="#128081"/>
<path d="M23.3335 9.625C23.7765 9.625 24.1426 9.95418 24.2005 10.3813L24.2085 10.5V21C24.2085 21.4832 23.8167 21.875 23.3335 21.875C22.8905 21.875 22.5244 21.5458 22.4665 21.1187L22.4585 21V10.5C22.4585 10.0168 22.8502 9.625 23.3335 9.625Z" fill="#128081"/>
<path d="M9.3335 9.625C9.77647 9.625 10.1426 9.95418 10.2005 10.3813L10.2085 10.5V21C10.2085 21.4832 9.81675 21.875 9.3335 21.875C8.89052 21.875 8.52442 21.5458 8.46648 21.1187L8.4585 21V10.5C8.4585 10.0168 8.85025 9.625 9.3335 9.625Z" fill="#128081"/>
<path d="M14 9.625C14.443 9.625 14.8091 9.95418 14.867 10.3813L14.875 10.5V21C14.875 21.4832 14.4832 21.875 14 21.875C13.557 21.875 13.1909 21.5458 13.133 21.1187L13.125 21V10.5C13.125 10.0168 13.5168 9.625 14 9.625Z" fill="#128081"/>
<path d="M18.667 9.625C19.11 9.625 19.4761 9.95418 19.534 10.3813L19.542 10.5V21C19.542 21.4832 19.1502 21.875 18.667 21.875C18.224 21.875 17.8579 21.5458 17.8 21.1187L17.792 21V10.5C17.792 10.0168 18.1837 9.625 18.667 9.625Z" fill="#128081"/>
<path d="M14.0002 6.44531L14.1274 6.45317C14.6277 6.51539 15.0146 6.94011 15.0222 7.46615C15.0222 8.0299 14.5651 8.48698 14.0013 8.48698C13.4376 8.48698 12.9805 8.02989 12.9806 7.47883C12.9729 6.95244 13.3649 6.51722 13.8713 6.45337L14.0002 6.44531Z" fill="#128081"/>
<path fill-rule="evenodd" clip-rule="evenodd" d="M2.62515 6.59627L13.7085 2.6751C13.8973 2.6083 14.1033 2.6083 14.2922 2.6751L25.3755 6.59627C25.725 6.71992 25.9587 7.05042 25.9587 7.42117V10.5C25.9587 10.9832 25.5669 11.375 25.0837 11.375H2.91699C2.43374 11.375 2.04199 10.9832 2.04199 10.5V7.42117C2.04199 7.05042 2.27564 6.71992 2.62515 6.59627ZM24.2087 8.0395L14.0003 4.42867L3.79199 8.0395V9.625H24.2087V8.0395Z" fill="#128081"/>
<path fill-rule="evenodd" clip-rule="evenodd" d="M3.50016 20.125H24.5002C24.7322 20.125 24.9548 20.2172 25.1189 20.3813L26.2855 21.5479C26.4496 21.712 26.5418 21.9346 26.5418 22.1667V24.5C26.5418 24.9832 26.1501 25.375 25.6668 25.375H2.3335C1.85025 25.375 1.4585 24.9832 1.4585 24.5V22.1667C1.4585 21.9346 1.55068 21.712 1.71478 21.5479L2.88144 20.3813C3.04554 20.2172 3.2681 20.125 3.50016 20.125ZM24.7918 22.5295L24.1373 21.875H3.86183L3.2085 22.5283V23.625H24.7918V22.5295Z" fill="#128081"/>
</svg>
