<svg width="24" height="24" viewBox="0 0 24 24" fill="none" xmlns="http://www.w3.org/2000/svg">
<path d="M11.286 6.23584C11.6657 6.23584 11.9795 6.51799 12.0291 6.88407L12.036 6.98584V11.6368C12.036 11.861 11.9359 12.0713 11.7666 12.2126L11.6764 12.2772L8.02041 14.5062C7.66675 14.7218 7.20525 14.6099 6.98962 14.2563C6.79197 13.9321 6.86953 13.5173 7.15624 13.2843L7.23957 13.2255L10.536 11.2148V6.98584C10.536 6.60614 10.8181 6.29235 11.1842 6.24269L11.286 6.23584Z" fill="currentColor"/>
<path fill-rule="evenodd" clip-rule="evenodd" d="M22.7437 13.8634C22.6174 12.517 20.6222 11.75 18.25 11.75C15.8005 11.75 13.7518 12.5696 13.75 13.999V20L13.7565 20.1365C13.8844 21.4826 15.8789 22.25 18.25 22.25C20.7002 22.25 22.7482 21.4306 22.75 20.001L22.75 14L22.7437 13.8634ZM15.8777 13.6358C16.482 13.394 17.3329 13.25 18.25 13.25C19.1675 13.25 20.0187 13.3939 20.6228 13.6354C20.7564 13.6888 20.8663 13.7417 20.9547 13.7899L21.1034 13.879C21.1236 13.8924 21.1416 13.905 21.1575 13.9166L21.2275 13.9736L21.25 14V20L21.2275 20.0261C21.2199 20.0332 21.2103 20.0416 21.1986 20.0511L21.1033 20.1205C21.0021 20.1876 20.8452 20.2752 20.6226 20.3643C20.0185 20.606 19.1676 20.75 18.25 20.75C17.3324 20.75 16.4815 20.606 15.8774 20.3643C15.5657 20.2396 15.383 20.1178 15.3014 20.0508L15.2556 20.0081L15.25 19.999L15.25 14L15.2556 13.9913C15.263 13.9825 15.2781 13.968 15.3014 13.9489L15.3969 13.8795C15.4981 13.8125 15.655 13.7249 15.8777 13.6358Z" fill="currentColor"/>
<path d="M21.9999 13.25C22.4141 13.25 22.7499 13.5858 22.7499 14C22.7499 15.4303 20.7017 16.25 18.251 16.25C15.8 16.25 13.751 15.4303 13.751 14C13.751 13.5858 14.0868 13.25 14.501 13.25C14.9152 13.25 15.251 13.5858 15.251 14L15.2734 14.0263L15.3435 14.0831L15.4649 14.1632C15.5639 14.2228 15.6999 14.293 15.8779 14.3642C16.4821 14.606 17.3333 14.75 18.251 14.75C19.1686 14.75 20.0195 14.606 20.6234 14.3643C20.8014 14.2931 20.9372 14.2228 21.0361 14.1633L21.1575 14.0832L21.2275 14.0263L21.2499 14C21.2499 13.5858 21.5857 13.25 21.9999 13.25Z" fill="currentColor"/>
<path d="M22 16.25C22.4142 16.25 22.75 16.5858 22.75 17C22.75 18.4303 20.701 19.25 18.25 19.25C15.799 19.25 13.75 18.4303 13.75 17C13.75 16.5858 14.0858 16.25 14.5 16.25C14.9142 16.25 15.25 16.5858 15.25 17L15.2725 17.0263L15.3425 17.0831L15.464 17.1632L15.6408 17.2593C15.7094 17.2933 15.7879 17.3286 15.8769 17.3642C16.4812 17.606 17.3324 17.75 18.25 17.75C19.1676 17.75 20.0188 17.606 20.6231 17.3642C20.7121 17.3286 20.7906 17.2933 20.8592 17.2593L21.036 17.1632L21.1575 17.0831L21.2275 17.0263L21.25 17C21.25 16.5858 21.5858 16.25 22 16.25Z" fill="currentColor"/>
<path d="M9.54269 1.3642C14.5871 0.60262 19.3654 3.8594 20.5008 8.83299C20.593 9.23681 20.3404 9.63891 19.9366 9.7311C19.5327 9.82329 19.1306 9.57066 19.0384 9.16684C18.0777 4.95862 14.0347 2.20301 9.76662 2.8474C5.4985 3.49178 2.44922 7.31816 2.77371 11.6224C3.09819 15.9267 6.68666 19.2527 11.0032 19.2499C11.4174 19.2496 11.7534 19.5852 11.7536 19.9994C11.7539 20.4136 11.4183 20.7496 11.0041 20.7499C5.90257 20.7532 1.66145 16.8223 1.27795 11.7352C0.894453 6.64809 4.49831 2.12579 9.54269 1.3642Z" fill="currentColor"/>
</svg>
