<svg width="114" height="94" fill="none" xmlns="http://www.w3.org/2000/svg">
  <path
    d="M95.074 77.771a43.514 43.514 0 0 0 5.06-20.385c0-7.127-1.745-14.14-5.06-20.385l10.943-6.336a56.167 56.167 0 0 1 6.755 26.72 56.163 56.163 0 0 1-6.755 26.72l-10.943-6.336v.002Z"
    fill="#F7F4F2"
  />
  <path
    d="M100.134 57.386c0-7.127-1.745-14.14-5.06-20.385l10.943-6.336a56.167 56.167 0 0 1 6.755 26.72h-12.638v.001Z"
    fill="#BADFD8"
  />
  <path
    d="M95.662 78.236c.734.425 1.452.875 2.186 1.308.695.407 1.392.814 2.092 1.216.356.204 1.079.679 1.434.885.335.193.925.53 1.251.728.635.383.624.42 1.26.803l.956.586.532.328.688.415.088.052.696-1.303.267-.506.253-.512.494-.998c.162-.333.313-.671.471-1.008.346-.725.652-1.464.954-2.21.332-.904.66-1.81.941-2.732l.199-.613c.062-.203.124-.407.188-.611l.388-1.221.321-1.013.162-.504.148-.508.297-1.014c.1-.338.181-.68.273-1.019.242-.88.422-1.779.61-2.689.103-.598.216-1.204.295-1.814l.047-.42c.042-.421.089-.84.124-1.259l.082-1.258c.039-.488.041-.978.059-1.464l.018-.729-.01-.726c-.007-.37-.011-.739-.023-1.108-.02-.367-.038-.736-.057-1.103l-.03-.551-.044-.55-.089-1.102c-.029-.346-.073-.69-.107-1.034-.039-.345-.069-.689-.115-1.035l-.197-1.613-.178-1.144-.093-.57-.111-.568c-.116-.587-.226-1.172-.37-1.752-.135-.58-.266-1.161-.425-1.739-.127-.499-.235-1-.377-1.5a43.54 43.54 0 0 0-.227-.816l-.117-.407-.132-.401-.339-1.061c-.109-.354-.24-.704-.358-1.056l-.18-.53-.089-.264-.098-.263-.384-1.051a71.69 71.69 0 0 0-1.837-4.429c-.155-.343-.3-.686-.472-1.018a73.765 73.765 0 0 1-.253-.503l-.366-.71-.195-.373c-.659.386-1.318.771-1.978 1.159-.683.4-1.372.808-2.063 1.204-.68.389-1.358.768-2.045 1.146l-1.016.524-1.102.556a91.912 91.912 0 0 0-2.193 1.152l-.366.2-.657.368-.487.275.807 1.613.514 1.089.596 1.301.563 1.307c.126.336.245.668.36 1.008.08.224.137.45.205.673.051.17.106.336.164.502l.086.247.081.249.332 1.03.348 1.235c.105.414.211.828.321 1.237l.302 1.233.269 1.24c.075.384.138.772.206 1.16.068.389.112.783.168 1.175.111.867.203 1.73.26 2.603.026.37.029.734.033 1.1l.005.55c0 .183-.008.368-.014.553-.015.363-.017.727-.044 1.088l-.069 1.084a50.614 50.614 0 0 1-.576 4.644c-.272 1.582-.53 3.178-.985 4.728-.152.496-.29.995-.455 1.485l-.237.737-.258.73c-.066.169-.129.334-.187.5-.064.163-.125.326-.185.488-.122.324-.223.653-.35.983-.125.33-.252.67-.392 1.023-.15.35-.315.716-.502 1.103-.344.673-.621 1.273-.547 1.315.072.04.392-.523.74-1.221l.336-.71c.106-.223.209-.43.295-.634.179-.407.353-.772.51-1.14.153-.37.31-.733.47-1.13.15-.398.317-.825.49-1.318.08-.236.157-.478.239-.739l.123-.401.12-.436c.08-.302.177-.625.268-.986l.303-1.185c.246-1.033.546-2.05.717-3.108.127-.724.176-1.146.22-1.455.041-.31.08-.502.12-.776.066-.417.134-.771.195-1.114.051-.343.096-.674.129-1.044.067-.84.106-1.7.097-2.541-.013-1.602-.102-3.225-.202-4.819-.027-.358-.049-.721-.085-1.083a35.362 35.362 0 0 0-.14-1.081c-.13-.792-.228-1.573-.393-2.357-.074-.397-.167-.784-.259-1.171a23.433 23.433 0 0 0-.145-.578 25.12 25.12 0 0 0-.176-.573c-.207-.668-.394-1.356-.627-2.011-.113-.292-.22-.587-.325-.883l-.014-.055c-.06-.254-.144-.51-.228-.77a446.04 446.04 0 0 0-.258-.78 75.405 75.405 0 0 0-.376-1.014 26.133 26.133 0 0 0-.972-2.147l-.207-.421c-.07-.14-.146-.279-.218-.418l-.284-.532.197-.12.667-.397.143-.066c.992-.458 1.983-1.081 2.945-1.635.079-.045.143-.09.198-.134a413.111 413.111 0 0 1 4.358-2.498l1.1-.615.275-.153.137-.076.057-.03.217-.11.064.139.057.124.142.287c.104.212.211.42.313.633l.582 1.282c.408.983.797 1.97 1.142 2.972l.163.454.155.46.318.919c.112.305.203.618.304.927l.297.929c.177.62.378 1.233.572 1.846l.281.92c.095.306.192.61.271.916.136.507.285 1.009.412 1.512l.196 1.001.105.5c.032.167.067.332.105.494.085.358.182.708.277 1.06.091.353.168.71.232 1.076.13.697.18 1.412.293 2.11.057.32.092.655.131.992.038.337.072.676.098 1.004.019.364.022.729.039 1.093.015.35.065.681.073 1.03.017.495.053.987.066 1.48l-.065 1.507c-.025.502-.067 1.004-.095 1.507-.021.463-.069.93-.098 1.394l-.044.697-.058.69-.081 1.038-.112 1.035-.089.736-.11.732-.104.643-.055.32-.066.322-.176.806c-.062.267-.117.536-.188.8l-.218.848c-.075.282-.142.566-.229.845l-.245.84c-.082.28-.157.562-.25.84-.086.267-.169.536-.249.805-.083.269-.155.54-.245.807-.173.534-.33 1.072-.506 1.6a74.25 74.25 0 0 1-.529 1.488l-.578 1.474c-.188.457-.387.912-.583 1.369l-.15.341-.162.338-.327.671c-.127.252-.232.514-.354.768l-.181.384-.094.189-.083.16c-.08.148-.157.294-.234.444l-.554-.319c-.902-.525-1.784-1.07-2.681-1.603-.481-.284-.954-.575-1.437-.833-.408-.218-.852-.432-1.257-.656-.7-.395-1.39-.79-2.088-1.193-.778-.45-1.41-.776-2.182-1.223-.298-.173-.645-.354-.684-.301-.051.072.18.23.588.465l-.005-.006Z"
    fill="#063844"
  />
  <path
    d="M93.493 34.266a43.779 43.779 0 0 0-14.819-14.4A43.441 43.441 0 0 0 58.201 13.9V1.257a56.08 56.08 0 0 1 26.889 7.72 56.464 56.464 0 0 1 19.346 18.955l-10.943 6.335Z"
    fill="#BADFD8"
  />
  <path
    d="M94.595 33.738c1.206-.699 2.425-1.369 3.638-2.065 1.148-.66 2.221-1.325 3.367-1.991.593-.339 1.975-1.124 2.569-1.462l.43-.249-.611-.954c-.19-.296-.369-.59-.516-.803-.681-1.014-.673-.932-1.385-1.923-.18-.25-.353-.505-.536-.751l-.552-.738c-.361-.497-.748-.973-1.133-1.455l-.3-.375c-.102-.125-.21-.244-.313-.366l-.634-.73c-.209-.247-.43-.48-.65-.717-.218-.237-.436-.473-.654-.707-.425-.436-.849-.87-1.271-1.306-.437-.42-.87-.846-1.311-1.264-.969-.892-1.94-1.768-2.978-2.582-.312-.242-.62-.488-.933-.725l-.955-.697c-.315-.237-.644-.456-.97-.678-.327-.22-.648-.45-.98-.66-.298-.192-.594-.381-.888-.572-.148-.094-.292-.193-.44-.284l-.446-.274-.89-.552-.905-.533a59.977 59.977 0 0 0-6.129-3.22c-.34-.152-.678-.31-1.024-.455l-1.043-.423-.524-.21-.53-.194-1.07-.39-1.424-.465c-.238-.08-.48-.15-.723-.216l-.728-.203c-.223-.06-.444-.124-.669-.178l-1.02-.237c-.339-.08-.677-.159-1.019-.221-.442-.095-.89-.182-1.342-.263-.454-.067-.91-.128-1.366-.186-.456-.066-.915-.098-1.369-.146l-.68-.068c-.226-.025-.452-.037-.675-.058l-.7-.081-.587-.072-.585-.057A23.834 23.834 0 0 0 59.38.88L57.788.826l.01 1.075c.013 1.422.026 2.852.054 4.26.036 1.41.073 2.806.108 4.212.012.584.026 1.17.04 1.759l.031 1.931.503.02.586.02c.18.008.36.01.539.023l1.074.07c.358.024.715.065 1.072.097.358.03.716.077 1.074.125 1.21.158 2.377.392 3.569.675l.87.22c.29.073.577.163.865.242.577.158 1.144.347 1.712.527a45.204 45.204 0 0 1 7.087 3.033c1.168.625 2.327 1.272 3.445 1.988 1.121.711 2.22 1.465 3.253 2.305 1.336 1.073 2.56 2.253 3.762 3.454l.308.317.296.318.588.627c.19.21.38.422.57.635l.287.318c.095.108.187.219.28.329l.573.671.573.716c.097.123.198.245.294.373l.292.392c.194.268.406.536.601.83l.93 1.339c.248.35.42.562.457.54.035-.02-.085-.257-.304-.623-.11-.182-.24-.4-.394-.633-.16-.23-.332-.483-.513-.747a64.742 64.742 0 0 0-2.72-3.575l-.636-.758-.68-.762c-.233-.265-.49-.52-.757-.798-.134-.136-.27-.28-.415-.42-.146-.141-.298-.285-.453-.433l-.453-.43-.486-.436-.516-.461a996.39 996.39 0 0 0-.568-.48c-.388-.338-.83-.678-1.308-1.059-.24-.19-.5-.376-.77-.577l-.413-.307-.444-.309c-1.435-1.002-2.886-1.98-4.445-2.807-.269-.14-.508-.267-.724-.38l-.591-.29c-.353-.168-.623-.308-.86-.41-.469-.21-.76-.353-1.174-.544-.318-.145-.61-.28-.89-.406-.278-.132-.549-.239-.811-.355-.264-.11-.52-.226-.788-.326-.267-.1-.54-.2-.829-.301a37.578 37.578 0 0 0-4.038-1.133c-.321-.076-.647-.132-.972-.2l-.487-.097c-.162-.032-.327-.056-.49-.086l-.984-.166-.986-.141c-.329-.053-.66-.083-.99-.124-.33-.037-.658-.083-.989-.108l-.987-.094-.494-.036-.246-.017-.117-.008-.015-.004-.043-.011.007-.044.003-.01c0-.006.001.008.001-.039l.004-.195.012-.782c.006-.521.01-1.044.007-1.564-.005-1.306.028-2.587.028-3.89 0-1.315.01-2.59-.034-3.897-.01-.287-.016-.576-.018-.865l-.003-.217v-.063l-.004-.046h.1l.211.007c.28.009.56.016.84.02.504.017 1.01.05 1.518.082l.09.01c.418.05.849.12 1.286.173l.657.084.653.103c.567.09 1.145.175 1.72.288l2.622.472c.175.025.629.132 1.084.23.456.1.911.198 1.077.244.278.07.551.148.83.228l.866.245c.533.15 1.067.278 1.597.426.528.154 1.058.303 1.587.47.538.199 1.076.394 1.62.604l1.245.524.31.132.306.142.609.282.65.3.642.321.64.323.32.16.315.172 1.257.685 1.238.72a79.454 79.454 0 0 1 4.64 2.97c1.41.987 2.759 2.074 4.077 3.189a51.006 51.006 0 0 1 3.544 3.355c.312.34.636.668.96.998.166.162.322.332.477.503.155.171.309.343.46.518l.381.438.37.447.74.895c1.054 1.338 2.056 2.6 2.994 4.023l.789 1.25-.568.34c-.649.395-1.371.93-2.026 1.32l-3.411 1.99c-1.277.74-2.269 1.354-3.537 2.088-.491.284-1.032.63-1.009.691.032.083.435-.139 1.104-.526l.005-.001Z"
    fill="#063844"
  />
  <path
    d="M8.807 27.93A56.46 56.46 0 0 1 28.153 8.977a56.094 56.094 0 0 1 26.888-7.72V13.9a43.442 43.442 0 0 0-20.473 5.964A43.814 43.814 0 0 0 19.75 34.265L8.807 27.93v.002Z"
    fill="#BADFD8"
  />
  <path
    d="M8.79 27.921c.265.164.61-.483 1.27-1.49a52.872 52.872 0 0 1 9.781-10.967 52.435 52.435 0 0 1 12.446-7.846c2.153-.967 4.264-1.874 6.392-2.674 2.128-.799 4.27-1.49 6.455-2 .426-.094.845-.19 1.261-.277l1.242-.228c.41-.079.82-.131 1.227-.19.204-.028.408-.056.61-.086l.305-.041.305-.032 1.222-.122c.204-.023.41-.034.614-.048l.617-.039c.413-.025.827-.053 1.247-.06l.227-.004h.167c.109-.003.219-.004.33-.005l-.014.359-.007.176-.007.285-.03 1.435-.092 4.872-.054 4.263-.454.02-.242.014-.468.039c-.311.027-.623.051-.933.083l-.929.112c-.31.034-.618.083-.924.133-.307.05-.614.094-.92.152-.609.12-1.217.23-1.815.38a81.29 81.29 0 0 0-4.347 1.13c-1.395.41-2.755.839-4.098 1.342-1.34.507-2.67 1.07-3.998 1.735a32.789 32.789 0 0 0-3.963 2.363c-.55.373-1.076.785-1.607 1.193-.518.425-1.042.846-1.539 1.301-.507.442-.989.917-1.474 1.384-.472.485-.948.963-1.396 1.469-.46.493-.89 1.014-1.327 1.527-.423.526-.848 1.047-1.246 1.586l-.303.4c-.1.135-.195.273-.293.409-.193.273-.39.54-.58.815l-.559.826c-.188.272-.359.557-.54.832-.086.134-.172.265-.257.399l-.032.05c-.011.017-.013.023-.02.035l-.039.066-.078.134-.32.549c-.12-.062-.238-.123-.356-.182l-.187-.097-.283-.153c-.393-.212-.786-.424-1.177-.637l-2.334-1.28a275.79 275.79 0 0 1-4.662-2.634c-.843-.489-1.676-.986-1.793-.783-.155.267.505.593 1.552 1.2 1.569.909 3.1 1.83 4.62 2.756l2.272 1.388 1.135.693 1.492.896.773-1.153.191-.286.154-.213.307-.429.306-.428.318-.423c.212-.28.417-.568.64-.842a61.697 61.697 0 0 1 2.734-3.29 30.262 30.262 0 0 1 2.88-2.847c.244-.221.5-.425.75-.631.251-.206.498-.416.755-.607l.765-.585.776-.558a50.103 50.103 0 0 1 3.193-2.074l.41-.248.416-.239c.278-.159.553-.327.835-.482l.85-.474c.284-.162.578-.309.869-.468.175-.093.348-.186.52-.272l.518-.24c.342-.154.676-.304 1.013-.428.336-.125.666-.25.995-.36.333-.105.661-.206.988-.305 1.317-.378 2.623-.674 4.062-1.028 1.573-.379 3.035-.713 4.519-.976l.558-.098c.185-.033.373-.054.561-.081l.567-.077.286-.038.288-.028c.193-.019.386-.036.58-.054l.293-.026.148-.012.2-.01c.56-.028 1.13-.052 1.726-.072l.025-1.089.025-.958.016-.765c.008-.506.008-1.008.004-1.506-.009-.997-.036-1.979-.07-2.958l-.11-2.939c-.017-.492-.033-.986-.048-1.483l-.01-.384-.009-.515-.013-1.023-1.492.072a95.5 95.5 0 0 0-.58.023c-.188.005-.375.022-.564.032-4.606.233-9.046.832-13.356 2.006C35.142 4.15 30.96 5.89 27.1 8.436c-1.735 1.144-3.52 2.358-5.23 3.698-1.709 1.339-3.338 2.809-4.752 4.401a87.38 87.38 0 0 0-3.433 4.122 92.566 92.566 0 0 0-3.232 4.438l-.797 1.072c-.539.816-1.066 1.637-.87 1.758l.004-.004Z"
    fill="#063844"
  />
  <path
    d="M7.225 84.106a56.169 56.169 0 0 1-6.754-26.72 56.165 56.165 0 0 1 6.754-26.72l10.943 6.336a43.513 43.513 0 0 0-5.06 20.385c0 7.127 1.745 14.14 5.06 20.385L7.225 84.108v-.002Z"
    fill="#BADFD8"
  />
  <path
    d="M8.327 83.577c1.207-.698 2.427-1.37 3.642-2.066 1.149-.66 2.222-1.325 3.368-1.993.593-.337 1.971-1.12 2.563-1.458.113-.064.238-.138.42-.244l-.512-1.001c-.165-.313-.303-.626-.413-.862-.126-.276-.225-.478-.304-.642-.076-.167-.14-.296-.202-.425-.062-.13-.124-.258-.201-.425l-.127-.284c-.045-.107-.093-.23-.148-.372l-.33-.858-.301-.867-.15-.434-.136-.438c-.09-.293-.184-.584-.271-.877a55.426 55.426 0 0 1-.957-3.714l-.175-.89-.085-.444-.072-.446-.142-.893-.116-.898a49.368 49.368 0 0 1-.308-3.897 46.966 46.966 0 0 1 .021-4.691l.073-1.047.111-1.035c.033-.346.093-.686.142-1.03l.077-.515c.028-.17.062-.342.093-.514.056-.283.11-.565.167-.847l.193-.839.096-.419.11-.415.22-.828c.321-1.094.657-2.18 1.061-3.237a49.034 49.034 0 0 1 1.72-4.078l.593-1.194.314-.592.565-1.09-.466-.273-.834-.485-1.798-1.028c-1.54-.916-3.218-1.725-4.785-2.586l-.602-.357-1.002-.605c-.253-.153-.507-.3-.76-.442-.264-.15-.527-.297-.792-.446l-.837-.475-.483.945-.282.56-.243.48-.23.488-.457.974c-.147.326-.284.657-.426.985-.137.33-.285.654-.408.987-.251.664-.514 1.32-.732 1.992l-.342 1-.313 1.013a63.522 63.522 0 0 0-1.166 4.322l-.116.53c-.074.355-.158.705-.224 1.06l-.198 1.065c-.032.178-.067.355-.098.534l-.083.537c-.099.604-.205 1.199-.283 1.8l-.13.9c-.046.3-.074.604-.113.91l-.108.895c-.031.3-.055.6-.083.9l-.08.897c-.016.299-.033.6-.052.898a53.685 53.685 0 0 0 .134 7.765c.239 2.662.782 5.286 1.387 7.884.183.84.406 1.665.611 2.497.238.82.458 1.647.746 2.453l.274.84c.1.273.2.542.3.81l.303.804.333.8.344.818.38.84c.13.286.258.583.4.883.144.3.293.61.445.93.262.566.548 1.078.759 1.451.213.373.365.6.403.583.036-.02-.061-.267-.243-.65-.18-.385-.456-.9-.726-1.477-.197-.412-.387-.794-.55-1.163l-.45-1.052c-.07-.168-.142-.33-.205-.494l-.183-.48c-.118-.317-.234-.625-.35-.931-.111-.307-.21-.617-.319-.93-.105-.313-.219-.628-.326-.96l-.33-1.037c-.057-.18-.12-.365-.18-.558l-.176-.595c-.114-.388-.242-.785-.354-1.213l-.363-1.375c-.116-.496-.24-1.032-.379-1.622-.068-.295-.124-.607-.191-.931-.065-.326-.14-.666-.204-1.026-.314-1.706-.47-3.424-.639-5.154l-.116-1.45c-.028-.385-.035-.686-.049-.938l-.025-.66-.008-.299.004-.318c.014-1.374.095-2.333.147-3.532.039-.68.064-1.367.127-2.052.025-.344.052-.687.078-1.029l.104-1.02c.262-2.575.71-5.181 1.418-7.664l.246-.84c.083-.282.157-.565.25-.843l.264-.84c.088-.28.168-.562.265-.84l.311-.915.159-.454.172-.448c.23-.597.456-1.197.707-1.792l.366-.898.389-.88c.13-.292.251-.59.386-.881.134-.29.267-.585.398-.88l.236-.527.262-.516.255-.497.028-.061.056.024.439.24c.448.241.896.49 1.343.74.025.018.051.034.077.05.715.459 1.497.926 2.256 1.385l1.512.908c1.018.603 1.386.804 2.342 1.327.31.172 1.65.917 1.953 1.087l.06.031a.376.376 0 0 1 .033.022l-.023.036-.011.016-.005.007-.002.004-.016.031c-.093.179-.187.362-.279.552-.122.256-.228.517-.34.774-.108.26-.225.515-.322.778-.2.524-.409 1.043-.595 1.574-.105.272-.216.542-.319.816l-.302.828c-.311.86-.605 1.73-.867 2.6a42.233 42.233 0 0 0-1.305 5.686 37.233 37.233 0 0 0-.428 5.596 45.322 45.322 0 0 0 .254 5.259c.18 1.635.443 3.274.782 4.895.1.458.221.91.34 1.364.133.449.261.9.383 1.351l.333 1.13.37 1.118c.56 1.636 1.239 3.121 1.971 4.68l.19.41.202.404.281.556-.584.348c-.65.395-1.372.93-2.027 1.322l-3.414 1.991c-1.277.741-2.27 1.355-3.54 2.09-.49.285-1.032.63-1.01.692.033.083.435-.14 1.106-.527l.008-.007ZM95.475 63.096l.234-11.456c.017-.833 1.011-1.254 1.622-.687l6.311 5.86a.965.965 0 0 1-.029 1.44l-6.546 5.596a.965.965 0 0 1-1.591-.753h-.001Z"
    fill="#063844"
  />
  <path
    d="M95.437 63.464c.135.409.53.735.984.748a.972.972 0 0 0 .587-.18l.118-.095.102-.094c.067-.062.135-.124.206-.185.143-.125.495-.395.639-.518.135-.116.372-.324.51-.432.27-.213.216-.244.486-.457.272-.215.552-.418.827-.629.286-.218.561-.458.84-.686.264-.219.53-.43.796-.644.288-.232.581-.454.858-.698.331-.293.657-.593.983-.894l.221-.198.111-.096a1.32 1.32 0 0 0 .324-.402 1.35 1.35 0 0 0 .11-.335c.038-.193.029-.4-.029-.596a1.183 1.183 0 0 0-.129-.282c-.028-.044-.056-.09-.09-.129l-.05-.06-.04-.047-.632-.741c-.272-.32-.554-.633-.842-.945a12.78 12.78 0 0 0-.584-.605l-.14-.132c-.144-.131-.29-.26-.435-.388-.356-.358-.834-.612-1.23-.925a4.808 4.808 0 0 1-.139-.14l-.227-.24c-.115-.121-.242-.222-.367-.329l-.39-.326c-.303-.262-.607-.528-.917-.776l-.234-.185-.119-.091a5.808 5.808 0 0 0-.157-.109 1.2 1.2 0 0 0-.733-.166c-.455.038-.864.34-1.016.751l-.03.084c-.009.028-.012.059-.019.087l-.015.087-.004.088-.002.086.003.076.007.153.026.609c.002.344-.007.68-.027 1.026l-.06 1.012a72.27 72.27 0 0 0-.078 2.182c-.017.75.072 1.502.047 2.253-.016.483-.085.96-.086 1.442-.05.67.009 1.248-.02 2.046-.014.35.01.658.095.66.083.003.113-.295.12-.655.015-1.03.174-1.507.203-2.471.014-.458.043-.969.06-1.797.01-.49.094-.976.103-1.468.01-.677.004-.786.037-1.04.052-.39.127-.66.145-1 .02-.388.029-.782.021-1.17a30.64 30.64 0 0 1-.002-1.11c.004-.185.01-.37.02-.554.008-.223.025-.272.072-.353a.546.546 0 0 1 .368-.229.314.314 0 0 1 .218.044c.014.012.03.024.045.033.015.012.028.03.043.04.062.06.124.119.188.178.272.252.528.504.828.722.26.19.484.431.742.623.116.085.228.177.337.27l.016.022c.15.19.328.375.5.556.113.12.228.241.345.358.235.236.329.31.572.497l.489.4c.127.102.223.235.364.344.249.194.522.354.775.544.122.108.243.218.363.331.185.176.362.362.541.541l.285.29.071.073.039.047a.53.53 0 0 1-.038.683c-.009.013-.024.023-.035.035l-.009.01-.018.016-.036.033-.146.132c-.193.176-.382.356-.569.535-.354.338-.728.655-1.086.99-.339.311-.683.62-1.041.913-.203.165-.364.38-.568.545-.17.137-.333.284-.5.426-.369.311-.673.657-1.047.963-.2.164-.405.32-.584.499-.153.151-.278.392-.435.538l-.208.186c-.034.029-.07.064-.102.089-.033.023-.064.05-.097.072a.78.78 0 0 1-.456.122.963.963 0 0 1-.478-.151.779.779 0 0 1-.314-.397c-.014-.033-.023-.07-.033-.104-.01-.034-.024-.067-.031-.097-.019-.058-.044-.103-.077-.106-.044-.004-.067.03-.077.094a.349.349 0 0 0 0 .119c.008.046.013.1.036.156l.002-.002Z"
    fill="#063844"
  />
  <path
    d="m58.182 53.377-.035 2.045c-.009.51.192.939.449.956l37.718 2.564c.256.018.472-.382.48-.893l.035-2.045c.01-.51-.192-.938-.449-.956l-37.717-2.564c-.257-.017-.472.383-.481.893Z"
    fill="#063844"
  />
  <path
    d="M96.649 55.112a.41.41 0 0 0-.216-.156.77.77 0 0 0-.216-.011l-.415-.04c-.276-.024-.553-.051-.83-.077l-1.573-.134c-.269-.016-.83-.103-1.098-.121-.268-.018-.695-.043-.942-.067-.484-.048-.489-.084-.972-.13-.482-.046-.972-.105-1.46-.16-.486-.055-1.022-.09-1.525-.127l-1.438-.107c-.52-.048-1.037-.104-1.557-.132l-1.871-.088a24.183 24.183 0 0 1-1.66-.129c-.917-.123-1.825-.257-2.726-.39-.585-.09-1.176-.17-1.772-.24a27.86 27.86 0 0 0-1.182-.127l-.27-.019-1.629-.087c-.63-.03-1.258-.059-1.88-.069-.954-.015-1.896-.036-2.852-.04l-1.347-.032-1.056-.049-1.497-.06-2.32-.065-.998-.063a19.652 19.652 0 0 0-1.099-.05l-1.446-.074a.98.98 0 0 0-.195-.002.397.397 0 0 0-.216.122c-.137.14-.24.38-.289.67-.012.071-.02.145-.024.22l-.006.109-.001.09-.007.363-.014.72-.016.775-.002.1.001.121c.004.082.011.163.022.242.024.157.064.303.117.429.053.125.12.227.194.299a.385.385 0 0 0 .237.117l.389.036c.518.045 1.035.097 1.552.155.487.055.965.103 1.459.137l1.438.088 1.558.098c.51.037 1.017.084 1.527.137l.744.104c.268.042.533.085.8.126.71.107 1.429.197 2.156.268.593.06 1.197.108 1.79.146.637.042 1.26.054 1.889.073.237.012.47.03.707.055l.46.065c.232.033.464.03.695.036l.716.025c.564.025 1.132.053 1.69.06l1.67.012 1.556.028 1.718.04c.484.025.957.06 1.445.106l1.426.135c1.023.091 2.048.176 3.08.245 1.054.074 2.11.048 3.17.122.68.053 1.356.085 2.033.123.472.049.912.047 1.374.042l.722-.007c.11-.016.215-.1.3-.241.085-.14.146-.33.174-.543.01-.073.015-.148.017-.224l.003-.208c.02-.982.02-1.843-.026-1.838-.046.006-.068.832-.085 1.84.006.163-.005.327-.032.481-.027.132-.07.247-.126.335a.372.372 0 0 1-.193.167.762.762 0 0 1-.21-.003l-.804-.104-1.708-.15c-.645-.048-1.367-.042-2.53-.122-.691-.048-1.377-.167-2.07-.212-.954-.062-1.107-.064-1.466-.12-.547-.079-.93-.175-1.41-.217-.544-.047-1.1-.088-1.645-.11-1.039-.047-2.09-.097-3.12-.226a23.01 23.01 0 0 0-1.407-.14c-.519-.03-1.023-.092-1.545-.13-.522-.036-1.027-.078-1.547-.069-.454.005-.913-.049-1.363-.044-.203.007-.404-.003-.608-.011l-.036-.008a13.812 13.812 0 0 0-1.048-.139c-.228-.028-.464-.048-.699-.075-.508-.046-1.017-.066-1.52-.093l-1.5-.067-.593-.032-.102-.022c-.703-.141-1.47-.156-2.19-.202a.664.664 0 0 0-.153.009c-1.09-.072-2.181-.154-3.273-.245-.63-.061-1.258-.119-1.893-.186l-1.853-.187-1.05-.14-.261-.033-.132-.016-.032-.006-.016-.002a.095.095 0 0 1-.022-.01.19.19 0 0 1-.067-.089.46.46 0 0 1-.033-.19l.006-.018.003-.069.01-.318.019-.633.017-.638.008-.319.002-.072.005-.013.005-.035a.27.27 0 0 1 .041-.114.089.089 0 0 1 .033-.022.031.031 0 0 1 .017-.002l.006.008.039.002.643.06c.851.078 1.71.068 2.543.09.346.002.691.008 1.032.011.44.035.903.085 1.341.076.486-.013.954-.082 1.444-.074.465.012.935.06 1.399.058.426-.003.885-.004 1.318.027l.716.062c.226.026.45.008.677.01l.97.023c.656.073 1.315.146 1.974.204.608.053 1.227.086 1.828.101l1.364.03.97.036.853.052c.36.033.72.067 1.077.102l2.29.223c.733.06 1.477.09 2.205.11l2.075.103c.645.03 1.3.06 1.95.114.369.031.739-.002 1.107.031.307.022.618.043.926.063.68.051 1.356.126 2.035.183.364.03.728.073 1.085.066.3.004.621-.003.924.002l1.568.094c.294.022.555.03.816.038l.397.014c.066.005.138.005.2.014a.306.306 0 0 1 .183.126c.084.107.15.265.186.45.032.159.034.287.052.291.018.005.041-.084.028-.259a1.542 1.542 0 0 0-.079-.377.833.833 0 0 0-.152-.275Z"
    fill="#063844"
  />
  <path
    d="M57.763 60.272c-2.083.07-3.738-.51-4.965-1.74-1.228-1.23-1.872-2.749-1.934-4.558-.06-1.808.487-3.34 1.642-4.594 1.155-1.256 2.782-1.918 4.883-1.986 2.083-.07 3.737.483 4.963 1.657 1.225 1.175 1.868 2.667 1.93 4.475.06 1.809-.481 3.368-1.625 4.677-1.144 1.31-2.775 2-4.894 2.069Z"
    fill="#063844"
  />
</svg>
