<svg width="28" height="28" viewBox="0 0 28 28" fill="none" xmlns="http://www.w3.org/2000/svg">
<path d="M16.3334 1.45831C16.8167 1.45831 17.2084 1.85006 17.2084 2.33331C17.2084 2.77629 16.8792 3.14239 16.4521 3.20033L16.3334 3.20831H11.6667C11.1835 3.20831 10.7917 2.81656 10.7917 2.33331C10.7917 1.89033 11.1209 1.52424 11.548 1.4663L11.6667 1.45831H16.3334Z" fill="#193A43"/>
<path d="M9.88128 11.048C10.1919 10.7373 10.678 10.7091 11.0206 10.9632L11.1187 11.048L14.6187 14.548C14.9604 14.8897 14.9604 15.4437 14.6187 15.7854C14.3081 16.096 13.822 16.1243 13.4794 15.8701L13.3813 15.7854L9.88128 12.2854C9.53957 11.9437 9.53957 11.3897 9.88128 11.048Z" fill="#193A43"/>
<path d="M22.7146 5.21459C23.0563 4.87289 23.6103 4.87289 23.952 5.21459C24.2626 5.52524 24.2909 6.01135 24.0367 6.35389L23.952 6.45203L21.222 9.18203C20.8803 9.52374 20.3263 9.52374 19.9846 9.18203C19.6739 8.87139 19.6457 8.38528 19.8998 8.04273L19.9846 7.94459L22.7146 5.21459Z" fill="#193A43"/>
<path d="M21.548 4.04797C21.8587 3.73732 22.3448 3.70908 22.6873 3.96325L22.7855 4.04797L25.1188 6.3813C25.4605 6.72301 25.4605 7.27703 25.1188 7.61874C24.8082 7.92938 24.322 7.95762 23.9795 7.70346L23.8814 7.61874L21.548 5.28541C21.2063 4.9437 21.2063 4.38968 21.548 4.04797Z" fill="#193A43"/>
<path d="M9.33333 16.625C9.81658 16.625 10.2083 17.0168 10.2083 17.5C10.2083 17.943 9.87915 18.3091 9.45207 18.367L9.33333 18.375H3.5C3.01675 18.375 2.625 17.9832 2.625 17.5C2.625 17.057 2.95418 16.6909 3.38127 16.633L3.5 16.625H9.33333Z" fill="#193A43"/>
<path d="M9.33325 20.125C9.8165 20.125 10.2083 20.5168 10.2083 21C10.2083 21.443 9.87907 21.8091 9.45198 21.867L9.33325 21.875H5.83325C5.35 21.875 4.95825 21.4832 4.95825 21C4.95825 20.557 5.28743 20.1909 5.71452 20.133L5.83325 20.125H9.33325Z" fill="#193A43"/>
<path d="M9.33341 23.625C9.81666 23.625 10.2084 24.0168 10.2084 24.5C10.2084 24.943 9.87924 25.3091 9.45215 25.367L9.33341 25.375H8.16675C7.6835 25.375 7.29175 24.9832 7.29175 24.5C7.29175 24.057 7.62093 23.6909 8.04802 23.633L8.16675 23.625H9.33341Z" fill="#193A43"/>
<path d="M13.9999 4.95831C19.6375 4.95831 24.2082 9.52906 24.2082 15.1666C24.2082 20.8042 19.6375 25.375 13.9999 25.375C13.5166 25.375 13.1249 24.9832 13.1249 24.5C13.1249 24.0167 13.5166 23.625 13.9999 23.625C18.671 23.625 22.4582 19.8377 22.4582 15.1666C22.4582 10.4956 18.671 6.70831 13.9999 6.70831C10.1249 6.70831 6.78152 9.34357 5.82657 13.0515C5.70604 13.5195 5.22897 13.8012 4.76099 13.6807C4.29301 13.5601 4.01134 13.0831 4.13187 12.6151C5.28449 8.13956 9.32057 4.95831 13.9999 4.95831Z" fill="#193A43"/>
</svg>
