<svg width="16" height="16" viewBox="0 0 16 16" fill="currentColor" xmlns="http://www.w3.org/2000/svg">
<path d="M11.9974 5.33073H11.3307V3.9974C11.3307 2.1574 9.8374 0.664062 7.9974 0.664062C6.1574 0.664062 4.66406 2.1574 4.66406 3.9974V5.33073H3.9974C3.26406 5.33073 2.66406 5.93073 2.66406 6.66406V13.3307C2.66406 14.0641 3.26406 14.6641 3.9974 14.6641H11.9974C12.7307 14.6641 13.3307 14.0641 13.3307 13.3307V6.66406C13.3307 5.93073 12.7307 5.33073 11.9974 5.33073ZM7.9974 11.3307C7.26406 11.3307 6.66406 10.7307 6.66406 9.9974C6.66406 9.26406 7.26406 8.66406 7.9974 8.66406C8.73073 8.66406 9.33073 9.26406 9.33073 9.9974C9.33073 10.7307 8.73073 11.3307 7.9974 11.3307ZM10.0641 5.33073H5.93073V3.9974C5.93073 2.8574 6.8574 1.93073 7.9974 1.93073C9.1374 1.93073 10.0641 2.8574 10.0641 3.9974V5.33073Z" fill="#666666"/>
</svg>
