<svg width="375" height="768" viewBox="0 0 375 768" fill="none" xmlns="http://www.w3.org/2000/svg">
<path d="M462.059 205.858L600.874 614.349L513.21 644.139L377.287 244.16C365.402 209.188 347.155 185.203 322.543 172.206C297.931 159.209 269.905 158.06 238.462 168.759C206.059 179.771 188.051 199.623 177.216 223.98C158.293 266.509 208.646 409.415 206.609 513.825C206.112 538.995 195.8 573.463 176.987 597.317C157.679 621.801 131.823 639.552 99.4205 650.57C53.6824 666.113 12.0165 663.926 -25.5769 644.01C-63.1704 624.093 -91.2116 586.951 -109.701 532.584L-220 208.008L-132.355 178.224L-24.9477 494.289C-13.0621 529.264 5.18748 553.248 29.801 566.241C54.4171 579.236 83.2398 582.499 113.888 569.706C137.851 559.686 160.324 546.706 175.134 514.486C197.836 465.077 145.658 266.28 145.741 224.64C145.798 199.465 156.551 165.003 175.359 141.15C194.68 116.665 220.542 98.9119 252.944 87.8905C298.682 72.3475 340.348 74.5344 377.941 94.4512C415.535 114.368 443.574 151.504 462.059 205.858Z" fill="#075068"/>
</svg>
