<svg version="1.1" viewBox="0 0 366.3 80.2" xmlns="http://www.w3.org/2000/svg">
 <style type="text/css">.st0{fill:#063844;}</style>
 <path class="st0" d="m41.6 15.2v44.1h-9.2v-9.6c-1.1 3.3-3.1 5.8-5.8 7.6-2.8 1.8-6 2.7-9.7 2.7-5.1 0-9.2-1.7-12.3-5s-4.6-8-4.6-14.2v-25.6h9.1v24.6c0 4 1 7.1 3 9.2 2 2.2 4.8 3.2 8.3 3.2 3.6 0 6.5-1.2 8.7-3.5s3.3-5.8 3.3-10.2v-23.3z"/>
 <path class="st0" d="m69.3 19.5c3.1 3.3 4.6 8 4.6 14.2v25.7h-9.1v-24.7c0-3.9-1-7-3-9.2s-4.8-3.2-8.3-3.2c-3.6 0-6.5 1.2-8.7 3.5s-3.3 5.7-3.3 10.2v23.4h-9.1v-44.2h9.1v9.7c1.2-3.3 3.1-5.9 5.9-7.7s6-2.7 9.6-2.7c5.1 0 9.2 1.7 12.3 5z"/>
 <path class="st0" d="m114.8 19.2c3.7 3 6.1 7.1 7 12.3h-9.7c-0.5-2.8-1.8-4.9-3.9-6.5s-4.6-2.4-7.7-2.4c-3.5 0-6.5 1.2-8.8 3.7s-3.5 6.1-3.5 10.9 1.2 8.5 3.5 11 5.3 3.8 8.8 3.8c3.1 0 5.7-0.8 7.7-2.4 2.1-1.6 3.3-3.8 3.9-6.6h9.7c-0.9 5.2-3.2 9.3-7 12.3-3.7 3-8.5 4.6-14.2 4.6-4.3 0-8-0.9-11.3-2.7s-5.9-4.4-7.7-7.8c-1.9-3.4-2.8-7.4-2.8-12.1 0-4.6 0.9-8.6 2.8-12s4.4-6 7.7-7.8 7.1-2.7 11.3-2.7c5.7-0.1 10.4 1.4 14.2 4.4z"/>
 <path class="st0" d="m154.8 17.6c2.8 2 4.8 4.6 6 7.8v-10.2h9.1v44.1h-9.1v-10.2c-1.2 3.3-3.2 5.9-6 7.8-2.8 2-6.2 3-10.2 3-3.8 0-7.3-0.9-10.3-2.7s-5.4-4.4-7.1-7.8-2.6-7.4-2.6-12.1c0-4.6 0.9-8.6 2.6-12s4.1-6 7.1-7.8 6.4-2.7 10.3-2.7c4-0.1 7.4 0.9 10.2 2.8zm-17.1 9c-2.4 2.6-3.6 6.1-3.6 10.7 0 4.5 1.2 8.1 3.6 10.7s5.7 3.9 9.7 3.9c2.6 0 4.9-0.6 6.9-1.8s3.6-2.9 4.8-5.1 1.8-4.7 1.8-7.7c0-2.9-0.6-5.4-1.8-7.6s-2.8-3.9-4.8-5.1-4.3-1.8-6.9-1.8c-4.1-0.1-7.3 1.2-9.7 3.8z"/>
 <path class="st0" d="m211.9 17.4c3 1.8 5.4 4.4 7.1 7.8s2.6 7.4 2.6 12-0.9 8.7-2.6 12.1-4.1 6-7.1 7.8-6.4 2.7-10.3 2.7c-4 0-7.4-1-10.2-3s-4.8-4.6-5.9-7.8v31.2h-9.1v-65h9.1v10.2c1.1-3.3 3.1-5.9 5.9-7.8 2.8-2 6.2-3 10.2-3 3.8 0.1 7.3 1 10.3 2.8zm-20 7.1c-2 1.2-3.6 2.9-4.8 5.1s-1.8 4.8-1.8 7.6c0 2.9 0.6 5.5 1.8 7.7s2.8 3.9 4.8 5.1 4.3 1.8 6.9 1.8c4.1 0 7.3-1.3 9.8-3.9s3.7-6.1 3.7-10.7c0-4.5-1.2-8-3.7-10.6s-5.7-3.9-9.8-3.9c-2.6 0-4.9 0.6-6.9 1.8z"/>
 <path class="st0" d="m262.3 17.4c3 1.8 5.4 4.4 7.1 7.8s2.6 7.4 2.6 12-0.9 8.7-2.6 12.1-4.1 6-7.1 7.8-6.4 2.7-10.3 2.7c-4 0-7.4-1-10.2-3s-4.8-4.6-5.9-7.8v31.2h-9.1v-65h9.1v10.2c1.1-3.3 3.1-5.9 5.9-7.8 2.8-2 6.2-3 10.2-3 3.8 0.1 7.3 1 10.3 2.8zm-20 7.1c-2 1.2-3.6 2.9-4.8 5.1s-1.8 4.8-1.8 7.6c0 2.9 0.6 5.5 1.8 7.7s2.8 3.9 4.8 5.1 4.3 1.8 6.9 1.8c4.1 0 7.3-1.3 9.8-3.9s3.7-6.1 3.7-10.7c0-4.5-1.2-8-3.7-10.6s-5.7-3.9-9.8-3.9c-2.6 0-4.9 0.6-6.9 1.8z"/>
 <path class="st0" d="m317.7 39.1h-33.9c0.2 4.5 1.4 7.9 3.8 10.1 2.3 2.2 5.3 3.3 8.7 3.3 3 0 5.6-0.8 7.7-2.3s3.4-3.6 3.9-6.2h9.8c-0.6 3.1-1.8 5.8-3.7 8.2s-4.3 4.3-7.3 5.6c-3 1.4-6.3 2-10 2-4.3 0-8-0.9-11.3-2.7s-5.9-4.4-7.7-7.8c-1.9-3.4-2.8-7.4-2.8-12.1 0-4.6 0.9-8.6 2.8-12s4.4-6 7.7-7.8 7.1-2.7 11.3-2.7c4.3 0 8.1 0.9 11.3 2.7s5.7 4.2 7.4 7.4c1.7 3.1 2.6 6.6 2.6 10.4 0.1 1.5 0 2.8-0.3 3.9zm-10.3-11.4c-1.1-1.9-2.6-3.4-4.5-4.3s-4-1.4-6.2-1.4c-3.6 0-6.6 1.1-9 3.3s-3.7 5.4-3.9 9.7h25c0.2-3-0.3-5.4-1.4-7.3z"/>
 <path class="st0" d="m351.2 17.6c2.8 2 4.8 4.6 5.9 7.8v-25.4h9.2v59.2h-9.2v-10.2c-1.1 3.3-3.1 5.9-5.9 7.8-2.8 2-6.2 3-10.2 3-3.8 0-7.3-0.9-10.3-2.7s-5.4-4.4-7.1-7.8-2.6-7.4-2.6-12.1c0-4.6 0.9-8.6 2.6-12s4.1-6 7.1-7.8 6.4-2.7 10.3-2.7 7.4 1 10.2 2.9zm-17.2 9c-2.4 2.6-3.6 6.1-3.6 10.7 0 4.5 1.2 8.1 3.6 10.7s5.7 3.9 9.7 3.9c2.6 0 4.9-0.6 6.9-1.8s3.6-2.9 4.8-5.1 1.8-4.7 1.8-7.7c0-2.9-0.6-5.4-1.8-7.6s-2.8-3.9-4.8-5.1-4.3-1.8-6.9-1.8c-4-0.1-7.2 1.2-9.7 3.8z"/>
</svg>
