<svg width="375" height="754" viewBox="0 0 375 754" fill="none" xmlns="http://www.w3.org/2000/svg">
<path d="M584.059 205.859L722.874 614.349L635.21 644.14L499.287 244.16C487.402 209.188 469.155 185.203 444.543 172.207C419.931 159.21 391.905 158.061 360.462 168.76C328.059 179.771 310.051 199.624 299.216 223.98C280.293 266.51 330.646 409.416 328.609 513.826C328.112 538.996 317.8 573.463 298.987 597.318C279.679 621.802 253.823 639.552 221.421 650.571C175.682 666.114 134.017 663.927 96.4231 644.01C58.8296 624.093 30.7884 586.951 12.2994 532.584L-98 208.008L-10.3547 178.224L97.0523 494.289C108.938 529.265 127.187 553.249 151.801 566.241C176.417 579.236 205.24 582.499 235.888 569.707C259.851 559.686 282.324 546.707 297.134 514.486C319.836 465.077 267.658 266.281 267.741 224.641C267.798 199.465 278.551 165.003 297.359 141.15C316.68 116.665 342.542 98.9124 374.944 87.891C420.682 72.348 462.348 74.5349 499.941 94.4517C537.535 114.369 565.574 151.504 584.059 205.859Z" fill="#BBE0D9"/>
</svg>
