<svg width="28" height="28" viewBox="0 0 28 28" fill="none" xmlns="http://www.w3.org/2000/svg">
<path fill-rule="evenodd" clip-rule="evenodd" d="M27.44 14.3187C27.44 13.326 27.3509 12.3714 27.1855 11.4551H14V16.8705H21.5345C21.21 18.6205 20.2236 20.1033 18.7409 21.096V24.6087H23.2655C25.9127 22.1714 27.44 18.5823 27.44 14.3187Z" fill="#4285F4"/>
<path fill-rule="evenodd" clip-rule="evenodd" d="M13.9992 28.0002C17.7792 28.0002 20.9483 26.7465 23.2646 24.6083L18.7401 21.0956C17.4865 21.9356 15.8828 22.432 13.9992 22.432C10.3528 22.432 7.26646 19.9692 6.16555 16.6602H1.48828V20.2874C3.79192 24.8629 8.52646 28.0002 13.9992 28.0002Z" fill="#34A853"/>
<path fill-rule="evenodd" clip-rule="evenodd" d="M6.16636 16.6602C5.88636 15.8202 5.72727 14.9229 5.72727 14.0002C5.72727 13.0774 5.88636 12.1802 6.16636 11.3402V7.71289H1.48909C0.540909 9.60289 0 11.7411 0 14.0002C0 16.2593 0.540909 18.3974 1.48909 20.2874L6.16636 16.6602Z" fill="#FBBC05"/>
<path fill-rule="evenodd" clip-rule="evenodd" d="M13.9992 5.56818C16.0546 5.56818 17.9001 6.27455 19.351 7.66182L23.3665 3.64636C20.9419 1.38727 17.7728 0 13.9992 0C8.52646 0 3.79192 3.13727 1.48828 7.71273L6.16555 11.34C7.26646 8.03091 10.3528 5.56818 13.9992 5.56818Z" fill="#EA4335"/>
</svg>
