<svg width="40" height="40" viewBox="0 0 40 40" fill="currentColor" xmlns="http://www.w3.org/2000/svg">
<path d="M10 25H30V27H10V25ZM11.15 20.95L12 19.47L12.85 20.95L14.15 20.2L13.3 18.72H15V17.22H13.3L14.15 15.75L12.85 15L12 16.47L11.15 15L9.85 15.75L10.7 17.22H9V18.72H10.7L9.85 20.2L11.15 20.95ZM17.85 20.2L19.15 20.95L20 19.47L20.85 20.95L22.15 20.2L21.3 18.72H23V17.22H21.3L22.15 15.75L20.85 15L20 16.47L19.15 15L17.85 15.75L18.7 17.22H17V18.72H18.7L17.85 20.2ZM31 17.22H29.3L30.15 15.75L28.85 15L28 16.47L27.15 15L25.85 15.75L26.7 17.22H25V18.72H26.7L25.85 20.2L27.15 20.95L28 19.47L28.85 20.95L30.15 20.2L29.3 18.72H31V17.22Z"/>
</svg>
