<svg width="24" height="24" viewBox="0 0 55 47" fill="none" xmlns="http://www.w3.org/2000/svg">
<path d="M32.783 12.3497V34.3816H28.1867V29.5856C27.6372 31.2342 26.638 32.4832 25.2891 33.3825C23.8902 34.2817 22.2915 34.7314 20.4431 34.7314C17.8952 34.7314 15.8468 33.8821 14.2981 32.2334C12.7494 30.5848 12 28.2367 12 25.1392V12.3497H16.5463V24.6396C16.5463 26.638 17.0459 28.1867 18.045 29.2359C19.0442 30.335 20.4431 30.8346 22.1916 30.8346C23.9902 30.8346 25.439 30.2351 26.5381 29.086C27.6372 27.9369 28.1867 26.1884 28.1867 23.9902V12.3497H32.783Z" fill="currentColor"/>
<path d="M46.6216 14.498C48.1704 16.1466 48.9197 18.4947 48.9197 21.5921V34.4316H44.3735V22.0917C44.3735 20.1433 43.8739 18.5946 42.8747 17.4955C41.8755 16.3964 40.4767 15.8968 38.7281 15.8968C36.9296 15.8968 35.4808 16.4963 34.3817 17.6454C33.2826 18.7944 32.733 20.493 32.733 22.7412V34.4316H28.1867V12.3497H32.733V17.1958C33.3325 15.5471 34.2817 14.2482 35.6806 13.3489C37.0794 12.4496 38.6782 12 40.4767 12C43.0246 12 45.0729 12.8493 46.6216 14.498Z" fill="currentColor"/>
</svg>