<svg width="40" height="40" viewBox="0 0 40 40" fill="none" xmlns="http://www.w3.org/2000/svg">
<mask id="mask0" mask-type="alpha" maskUnits="userSpaceOnUse" x="0" y="0" width="75" height="54">
<path d="M67.8571 0H7.14286C3.19797 0 0 3.22355 0 7.2V46.8C0 50.7764 3.19797 54 7.14286 54H67.8571C71.802 54 75 50.7764 75 46.8V7.2C75 3.22355 71.802 0 67.8571 0Z" fill="white"/>
</mask>
<g mask="url(#mask0)">
<path d="M67.8571 0H7.14286C3.19797 0 0 3.22355 0 7.2V46.8C0 50.7764 3.19797 54 7.14286 54H67.8571C71.802 54 75 50.7764 75 46.8V7.2C75 3.22355 71.802 0 67.8571 0Z" fill="white"/>
<path fill-rule="evenodd" clip-rule="evenodd" d="M0 0H32.1429V25.2H0V0Z" fill="#22438B"/>
<path fill-rule="evenodd" clip-rule="evenodd" d="M3.57144 3.59961V7.19961H7.14287V3.59961H3.57144ZM10.7143 3.59961V7.19961H14.2857V3.59961H10.7143ZM17.8572 3.59961V7.19961H21.4286V3.59961H17.8572ZM25 3.59961V7.19961H28.5714V3.59961H25ZM21.4286 7.19961V10.7996H25V7.19961H21.4286ZM14.2857 7.19961V10.7996H17.8572V7.19961H14.2857ZM7.14287 7.19961V10.7996H10.7143V7.19961H7.14287ZM3.57144 10.7996V14.3996H7.14287V10.7996H3.57144ZM10.7143 10.7996V14.3996H14.2857V10.7996H10.7143ZM17.8572 10.7996V14.3996H21.4286V10.7996H17.8572ZM25 10.7996V14.3996H28.5714V10.7996H25ZM3.57144 17.9996V21.5996H7.14287V17.9996H3.57144ZM10.7143 17.9996V21.5996H14.2857V17.9996H10.7143ZM17.8572 17.9996V21.5996H21.4286V17.9996H17.8572ZM25 17.9996V21.5996H28.5714V17.9996H25ZM21.4286 14.3996V17.9996H25V14.3996H21.4286ZM14.2857 14.3996V17.9996H17.8572V14.3996H14.2857ZM7.14287 14.3996V17.9996H10.7143V14.3996H7.14287Z" fill="#A7B6E7"/>
<path fill-rule="evenodd" clip-rule="evenodd" d="M32.1429 0V3.6H75V0H32.1429ZM32.1429 7.2V10.8H75V7.2H32.1429ZM32.1429 14.4V18H75V14.4H32.1429ZM32.1429 21.6V25.2H75V21.6H32.1429ZM0 28.8V32.4H75V28.8H0ZM0 36V39.6H75V36H0ZM0 43.2V46.8H75V43.2H0ZM0 50.4V54H75V50.4H0Z" fill="#C7152A"/>
</g>
</svg>
