<svg width="24" height="24" viewBox="0 0 24 24" fill="none" xmlns="http://www.w3.org/2000/svg"><g clip-path="url(#clip0_27328_393)"><path d="M21.073 20.436c-2.443 1.804-6.109 2.91-9.076 2.91-4.247 0-8.029-1.688-10.938-4.306-.233-.233 0-.466.233-.35 3.141 1.804 6.69 2.852 10.647 2.852 2.676 0 6.05-.582 8.785-1.746.408-.116.757.35.35.64zm.873-1.222c-.29-.407-2.036-.174-2.793-.116-.232 0-.29-.174-.058-.349 1.338-.99 3.608-.698 3.84-.35.233.35-.058 2.62-1.338 3.666-.175.175-.407.058-.29-.116.29-.698.93-2.327.64-2.735z" fill="#FFB300"/><path d="M19.503 15.084c-.582-.757-1.164-1.397-1.164-2.851v-4.83c0-2.036 0-3.84-1.455-5.236C15.721 1.062 13.801.655 12.288.655c-3.2 0-5.993 1.28-6.691 4.887-.058.407.233.582.465.64l2.968.349c.29 0 .465-.29.523-.582.233-1.222 1.222-1.803 2.386-1.803.64 0 1.862.349 1.862 1.745v1.745c-1.862 0-3.84 0-5.47.699-1.92.814-3.258 2.501-3.258 5.003 0 3.2 1.979 4.771 4.539 4.771 2.152 0 3.432-.524 5.12-2.21.523.814.756 1.28 1.745 2.152.233.116.524.116.698-.058.582-.524 1.688-1.513 2.328-2.037.29-.232.232-.581 0-.872zm-5.76-4.48c0 1.163-.059 4.014-2.91 4.014-1.745 0-1.745-1.745-1.745-1.745 0-2.618 2.444-2.91 4.655-2.91v.64z" fill="#37474F"/></g><defs><clipPath id="clip0_27328_393"><path fill="#fff" d="M0 0h24v24H0z"/></clipPath></defs></svg>