<svg width="26" height="26" viewBox="0 0 26 26" fill="none" xmlns="http://www.w3.org/2000/svg"><rect width="26" height="26" rx="6" fill="#37474F"/><path d="M19.593 19.135c-1.777 1.311-4.443 2.115-6.6 2.115-3.089 0-5.839-1.227-7.954-3.13-.17-.17 0-.34.169-.255a15.339 15.339 0 007.742 2.074c1.947 0 4.4-.424 6.39-1.27.295-.084.55.254.253.466zm.635-.889c-.212-.296-1.481-.127-2.031-.084-.17 0-.212-.127-.043-.254.974-.72 2.624-.508 2.793-.254.17.254-.043 1.904-.973 2.665-.127.127-.296.043-.212-.084.212-.508.677-1.693.466-1.989zm-1.778-3.004c-.422-.55-.846-1.015-.846-2.073V9.658c0-1.481 0-2.793-1.057-3.808-.847-.804-2.243-1.1-3.343-1.1-2.327 0-4.358.93-4.865 3.554-.043.296.169.423.338.465l2.158.254c.211 0 .338-.212.38-.423.17-.889.89-1.312 1.735-1.312.466 0 1.354.254 1.354 1.27v1.269c-1.354 0-2.792 0-3.977.508-1.396.592-2.37 1.819-2.37 3.638 0 2.327 1.44 3.47 3.301 3.47 1.565 0 2.496-.381 3.723-1.608.381.592.55.93 1.27 1.565.169.085.38.085.507-.042.423-.38 1.227-1.1 1.693-1.481.211-.17.169-.423 0-.635zm-4.188-3.257c0 .846-.042 2.919-2.116 2.919-1.269 0-1.269-1.27-1.269-1.27 0-1.903 1.777-2.115 3.385-2.115v.466z" fill="#fff"/></svg>