<svg width="26" height="26" viewBox="0 0 26 26" fill="none" xmlns="http://www.w3.org/2000/svg"><rect x=".5" y=".5" width="25" height="25" rx="4" fill="#1D1D1D"/><path d="M20.006 9.81c.03.02.058.04.087.062.574.42.94 1.08.896 1.79a7.577 7.577 0 01-.11.887c-.637 3.319-2.833 4.473-5.596 4.473h-.425c-.319 0-.637.253-.673.577l-.602 3.824a.662.662 0 01-.673.577h-2.124c-.3 0-.53-.27-.481-.566l1.075-6.628c0-.043.036-.064.078-.064h1.63c1.683 0 3.27-.342 4.546-1.267 1.118-.81 1.927-2.02 2.372-3.665z" fill="#fff"/><path d="M14.575 4c1.912 0 3.4.397 4.214 1.37.609.709.861 1.466.817 2.488a6.76 6.76 0 00-1.619-.478 9.775 9.775 0 00-1.358-.09h-4.32c-.398 0-.725.194-.936.385-.2.183-.412.47-.467.82L9.038 20.016H6.464a.472.472 0 01-.46-.541l2.302-14.79c.07-.396.39-.685.78-.685h5.489z" fill="#fff"/><path d="M16.629 8.79c.463 0 .916.034 1.293.098.258.048.504.116.74.201-.353 1.554-1.03 2.544-1.887 3.165-.937.68-2.183.988-3.688.988h-1.453l.72-4.446.004-.003.004-.003h4.267z" fill="#fff"/></svg>