<svg width="26" height="26" viewBox="0 0 26 26" fill="none" xmlns="http://www.w3.org/2000/svg"><rect width="26" height="26" rx="3" fill="#006CFF"/><path d="M15.281 13.26c-.096-.191-.101-.317 0-.52l4.01-6.858c.2-.36-.04-.882-.521-.882H9.868c-.2 0-.37.098-.481.28L4.895 12.7a.613.613 0 000 .6l4.492 7.42c.098.182.263.28.48.28h8.903c.441 0 .722-.481.521-.882l-4.01-6.857zm1.965-6.736l-2.927 5.012-2.928-5.012h5.855zM6.5 13.06l3.449-5.774 3.368 5.774-3.368 5.775L6.5 13.06zm4.933 6.536l2.927-5.012 2.927 5.012h-5.854z" fill="#fff"/></svg>