<svg version="1.2" xmlns="http://www.w3.org/2000/svg" viewBox="0 0 512 512" width="512" height="512"><g id="#feb3c7ff"><path id="Layer" fill-rule="evenodd" d="M0 0h512v512H0zm125 123.8c0 87.1 0 174.2.1 261.3h60V123.8q-30 .1-60.1 0zm151.3 4.2c-.4 14.6-2.8 29.2-7.4 43.1-9.1 28.2-27 53.3-50.3 71.6-8.6 6.6-17.5 13-26.1 19.7 29.9 40.9 60.1 81.6 89.9 122.7h74c-27.5-37.7-55.2-75.3-82.8-113 15.3-15.3 28.3-32.9 38.2-52.1 15.3-29.6 23.2-62.9 23.2-96.2-19.5.1-38.9 0-58.3.1-.8 1.1-.1 2.8-.4 4.1zm114.8 195.2c-4.4 1-8.8 2.8-12.5 5.5-11 7.6-16.4 22.4-12.6 35.3 3.7 14.1 17.5 24.6 32 24.2 11.9-.1 23.2-7.1 28.7-17.6 4.9-9.3 4.9-21 .1-30.3-6.4-12.8-21.7-20.1-35.7-17.1z" fill="#feb3c7"/></g><g id="#000000ff" fill="#000"><path id="Layer" d="M125 123.8q30.1.1 60.1 0v261.3h-60c-.1-87.1-.1-174.2-.1-261.3zm151.3 4.2c.3-1.3-.4-3 .4-4.1 19.4-.1 38.9 0 58.3-.1 0 33.3-7.9 66.6-23.2 96.2-9.9 19.2-22.9 36.8-38.2 52.1 27.6 37.7 55.3 75.3 82.8 113h-74c-29.8-41.1-60-81.8-89.9-122.7 8.6-6.7 17.5-13.1 26.1-19.7 23.3-18.3 41.2-43.4 50.3-71.6 4.6-13.9 7-28.5 7.4-43.1zm114.8 195.2c14-3 29.3 4.3 35.7 17.1 4.8 9.3 4.8 21-.1 30.3-5.5 10.5-16.8 17.5-28.7 17.5-14.5.5-28.3-10-32-24.1-3.8-12.9 1.6-27.7 12.6-35.3 3.7-2.7 8.1-4.5 12.5-5.5z"/></g></svg>