<svg width="24" height="24" viewBox="0 0 24 24" fill="none" xmlns="http://www.w3.org/2000/svg"><path d="M19.639 4.729c-.014-.126-.126-.182-.21-.182-.083 0-1.91-.14-1.91-.14s-1.268-1.268-1.422-1.393c-.139-.14-.404-.098-.516-.07-.013 0-.278.084-.71.223-.433-1.241-1.172-2.37-2.496-2.37h-.126c-.363-.475-.837-.698-1.227-.698-3.068 0-4.546 3.835-5.006 5.787-1.199.377-2.05.627-2.147.67-.67.208-.683.223-.767.85-.07.474-1.813 13.957-1.813 13.957l13.567 2.538 7.363-1.59c.013-.027-2.566-17.457-2.58-17.582zm-5.522-1.367c-.334.097-.739.223-1.143.362v-.25c0-.753-.098-1.367-.279-1.855.697.084 1.13.85 1.422 1.743zm-2.273-1.59c.182.475.307 1.144.307 2.064v.14c-.753.236-1.548.474-2.37.738.46-1.756 1.338-2.62 2.063-2.942zm-.893-.864c.14 0 .28.056.39.14-.99.459-2.035 1.616-2.467 3.96-.655.208-1.283.39-1.882.585.502-1.785 1.757-4.685 3.96-4.685z" fill="#7CB342"/><path d="M19.43 4.52c-.084 0-1.91-.14-1.91-.14s-1.27-1.27-1.422-1.394a.273.273 0 00-.182-.084L14.898 23.9l7.362-1.59S19.68 4.854 19.666 4.73a.379.379 0 00-.236-.21z" fill="#558B2F"/><path d="M12.246 8.783l-.878 2.647s-.796-.425-1.742-.425c-1.412 0-1.48.89-1.48 1.11 0 1.207 3.154 1.674 3.154 4.513 0 2.235-1.413 3.675-3.32 3.675-2.304 0-3.456-1.426-3.456-1.426l.618-2.03s1.206 1.043 2.221 1.043a.901.901 0 00.947-.905c0-1.578-2.579-1.646-2.579-4.252 0-2.18 1.564-4.293 4.732-4.293 1.179-.014 1.783.343 1.783.343z" fill="#fff"/></svg>