<svg width="24" height="24" viewBox="0 0 24 24" fill="none" xmlns="http://www.w3.org/2000/svg"><path d="M.747 3.744C0 5.211 0 7.131 0 10.971v2.058c0 3.84 0 5.76.747 7.227a6.857 6.857 0 002.997 2.997C5.211 24 7.131 24 10.971 24h2.058c3.84 0 5.76 0 7.227-.747a6.857 6.857 0 002.997-2.997C24 18.789 24 16.869 24 13.029V10.97c0-3.84 0-5.76-.747-7.227A6.857 6.857 0 0020.256.747C18.789 0 16.869 0 13.029 0H10.97C7.13 0 5.21 0 3.743.747A6.857 6.857 0 00.747 3.744z" fill="url(#paint0_linear_27328_302)"/><path d="M.227 5.382C0 6.674 0 8.39 0 10.972v2.056c0 3.84 0 5.761.747 7.228a6.857 6.857 0 002.997 2.997C5.211 24 7.131 24 10.971 24h2.058c3.84 0 5.76 0 7.227-.747a6.857 6.857 0 002.997-2.997C24 18.789 24 16.869 24 13.028v-2.057c0-3.84 0-5.76-.747-7.227A6.857 6.857 0 0020.39.817L.227 5.382z" fill="url(#paint1_linear_27328_302)"/><path d="M23.752 18.732a5.6 5.6 0 01-.5 1.524 6.858 6.858 0 01-2.996 2.997c-1.423.725-3.273.746-6.888.747H12.05v-2.711l11.702-2.557z" fill="url(#paint2_linear_27328_302)"/><path d="M13.029 0H10.97c-.747 0-1.421 0-2.034.006v3.397L20.387.816a6.774 6.774 0 00-.131-.069c-.814-.415-1.768-.6-3.113-.681C16.065 0 14.737 0 13.029 0z" fill="url(#paint3_linear_27328_302)"/><path d="M24 13.177c0 2.576-.005 4.274-.248 5.555l-4.07.89v-6.066L24 12.552v.625z" fill="url(#paint4_linear_27328_302)"/><path fill-rule="evenodd" clip-rule="evenodd" d="M11.092 9.752c0-.55.45-.762 1.197-.762 1.07 0 2.42.325 3.49.904v-3.32a9.253 9.253 0 00-3.49-.65c-2.858 0-4.758 1.498-4.758 3.998 0 3.898 5.349 3.277 5.349 4.958 0 .65-.563.861-1.352.861-1.168 0-2.66-.48-3.842-1.13v3.362a9.726 9.726 0 003.842.805c2.928 0 4.94-1.455 4.94-3.983-.013-4.21-5.376-3.46-5.376-5.043z" fill="#fff"/><defs><linearGradient id="paint0_linear_27328_302" x1="0" y1="0" x2="7.883" y2="5.573" gradientUnits="userSpaceOnUse"><stop stop-color="#392993"/><stop offset="1" stop-color="#4B47B9"/></linearGradient><linearGradient id="paint1_linear_27328_302" x1=".904" y1="5.635" x2="18.306" y2="19.989" gradientUnits="userSpaceOnUse"><stop stop-color="#594BB9"/><stop offset="1" stop-color="#60A8F2"/></linearGradient><linearGradient id="paint2_linear_27328_302" x1="12.05" y1="21.389" x2="24" y2="24" gradientUnits="userSpaceOnUse"><stop stop-color="#61A2EF"/><stop offset="1" stop-color="#58E6FD"/></linearGradient><linearGradient id="paint3_linear_27328_302" x1="8.937" y1="1.707" x2="24" y2="0" gradientUnits="userSpaceOnUse"><stop stop-color="#534EBE"/><stop offset="1" stop-color="#6875E2"/></linearGradient><linearGradient id="paint4_linear_27328_302" x1="19.682" y1="13.607" x2="24" y2="18.778" gradientUnits="userSpaceOnUse"><stop stop-color="#71A5F3"/><stop offset="1" stop-color="#6CC3FA"/></linearGradient></defs></svg>