<svg width="25" height="25" viewBox="0 0 25 25" fill="none" xmlns="http://www.w3.org/2000/svg"><path d="M12.502 16.217c.534 0 .983.277 1.042.632l.53 5.948c-.001.59-.7 1.067-1.572 1.067-.877 0-1.571-.478-1.571-1.067l.534-5.948c.056-.355.503-.632 1.037-.632zm3.356-2.018c.28-.354.667-.528.965-.411l5.47 2.518c.508.292.584 1.132.154 1.882-.439.745-1.213 1.1-1.725.808l-4.942-3.43c-.274-.231-.293-.747-.029-1.205l.107-.162zm-7.68-.412c.35-.133.808.112 1.077.57.264.463.25.978-.036 1.21l-4.94 3.424c-.514.297-1.283-.059-1.723-.803-.44-.75-.35-1.591.153-1.883l5.469-2.518zm12.544-7.779c.512-.291 1.286.06 1.725.811.43.75.354 1.582-.154 1.88l-5.47 2.523c-.298.108-.685-.064-.965-.417l-.107-.157c-.264-.463-.244-.981.03-1.215l4.94-3.425zm-18.166.809c.44-.75 1.208-1.105 1.722-.808l4.94 3.43c.25.2.293.62.123 1.033l-.086.172c-.27.46-.727.701-1.077.572L2.709 8.699c-.503-.292-.592-1.133-.153-1.882zm9.946-5.68c.872 0 1.571.482 1.571 1.07l-.53 5.948c-.058.355-.507.633-1.041.633-.534 0-.98-.278-1.037-.633l-.534-5.947c0-.59.694-1.072 1.57-1.072z" fill="#FFC220"/></svg>