<svg width="164" height="164" viewBox="0 0 164 164" fill="none" xmlns="http://www.w3.org/2000/svg">
<path d="M92.5258 66.1955C105.191 66.1955 115.459 55.928 115.459 43.2625C115.459 30.597 105.191 20.3295 92.5258 20.3295C79.8603 20.3295 69.5928 30.597 69.5928 43.2625C69.5928 55.928 79.8603 66.1955 92.5258 66.1955Z" fill="#F7F4F2"/>
<path d="M112.898 53.842C112.732 53.7568 112.56 53.908 112.346 54.2309C112.236 54.3908 112.126 54.6007 111.981 54.8355L111.488 55.6353C109.148 59.2197 105.815 62.0452 101.896 63.7668C97.9771 65.4884 93.6416 66.0314 89.4191 65.3297C86.6272 64.8617 83.9543 63.8506 81.5517 62.3536C79.3102 60.9777 77.2797 59.2847 75.5231 57.3273C73.8074 55.395 72.4484 53.1734 71.5094 50.766C71.4038 50.4725 71.2864 50.179 71.1924 49.8855C71.0985 49.592 71.0105 49.2912 70.9195 48.9977L70.6964 48.1172C70.6201 47.8237 70.5746 47.5301 70.513 47.2293C70.2993 46.0562 70.1835 44.8673 70.1666 43.675C70.1615 42.4653 70.2567 41.2573 70.4513 40.0634L70.5306 39.6085C70.557 39.4617 70.5819 39.3032 70.6186 39.1521C70.6891 38.8483 70.7654 38.543 70.8285 38.2334C70.8916 37.9237 71.0002 37.6214 71.0882 37.3103C71.1763 36.9992 71.2922 36.6954 71.3935 36.3828C71.9237 34.8763 72.6098 33.4293 73.4407 32.0654C74.2858 30.686 75.2729 29.3988 76.386 28.2249C77.5036 27.0478 78.7383 25.9877 80.0709 25.0609C81.4005 24.1393 82.8188 23.3527 84.3047 22.7129C85.8349 22.048 87.4515 21.6033 89.1065 21.3921C90.6831 21.1934 92.2778 21.1831 93.8569 21.3613C95.4288 21.5391 96.9781 21.88 98.4795 22.3783C100.054 22.9057 101.576 23.5757 103.029 24.38C105.59 25.7701 107.883 27.6053 109.8 29.7995C111.761 32.0489 113.231 34.6824 114.117 37.5319C114.464 38.6839 114.717 39.8617 114.876 41.054C114.908 41.3475 114.957 41.641 114.976 41.9448C114.995 42.2485 115.019 42.5391 115.041 42.837L115.054 43.7322V43.9553V44.1783L115.041 44.6259C114.999 45.8209 114.855 47.0101 114.609 48.1803C114.353 49.3659 114 50.5287 113.554 51.6568C113.134 52.7017 112.6 53.6849 112.855 53.8185C113.02 53.9051 113.184 53.7466 113.387 53.4046C113.509 53.1964 113.618 52.9813 113.715 52.7604L114.091 51.8799C114.8 50.1016 115.311 48.2506 115.614 46.3605C115.904 44.4808 115.969 42.5733 115.807 40.6783C115.633 38.7744 115.217 36.9004 114.569 35.1017C113.899 33.2727 112.975 31.5467 111.825 29.9742C109.829 27.2725 107.555 25.0947 104.984 23.4276C103.699 22.5895 102.331 21.8876 100.901 21.3334C99.4418 20.7695 97.9196 20.3846 96.3678 20.1873C94.6374 19.9597 92.8957 19.8289 91.1507 19.7954C89.4407 19.7574 87.7336 19.9549 86.0775 20.3825C85.8207 20.4544 85.5653 20.5292 85.3144 20.5996L84.5806 20.8535C84.3356 20.9342 84.0978 21.0311 83.863 21.1294C83.6282 21.2277 83.3949 21.3217 83.1645 21.4229L82.488 21.7502C82.3764 21.8045 82.2634 21.8558 82.1534 21.9145L81.8276 22.0936L81.1745 22.4531L80.542 22.8406L80.2265 23.0401L79.9183 23.2485L79.3005 23.6653L78.6944 24.1056L78.3892 24.3286C78.2879 24.4049 78.1896 24.4856 78.0957 24.5649L77.4852 25.0433L76.8879 25.5511C76.7901 25.6342 76.6888 25.7193 76.5841 25.8064L76.2906 26.0764L75.6845 26.6238C74.6308 27.6131 73.7 28.7256 72.9124 29.9375C72.1514 31.1103 71.5051 32.3536 70.9826 33.6503C70.4637 34.9432 70.0567 36.2781 69.766 37.6405C69.4616 39.043 69.2561 40.4651 69.1511 41.8963C69.0486 43.2505 69.0511 44.6105 69.1584 45.9643C69.2726 47.3049 69.4934 48.6343 69.8188 49.9398C70.143 51.2403 70.5719 52.5124 71.1014 53.7436C72.1761 56.2169 73.6723 58.4846 75.5231 60.4458C76.4673 61.4268 77.4988 62.3198 78.6049 63.1138C79.1537 63.5203 79.7364 63.8783 80.3234 64.2349L81.2244 64.731C81.5282 64.8924 81.8437 65.0245 82.1534 65.183C83.4151 65.7626 84.7303 66.2177 86.0805 66.5419C87.3214 66.8357 88.5803 67.0475 89.849 67.1759C90.1719 67.2008 90.4933 67.2434 90.8161 67.2551L91.7906 67.2991H92.768C93.0952 67.2991 93.421 67.2713 93.7483 67.258C95.0536 67.1783 96.3492 66.9819 97.6196 66.671C98.8727 66.3592 100.09 65.919 101.253 65.3576C103.169 64.4289 104.966 63.2735 106.607 61.9163C107.004 61.567 107.415 61.2324 107.797 60.8582L108.09 60.5852C108.189 60.4957 108.284 60.4018 108.384 60.3049L108.944 59.7282C109.134 59.5359 109.305 59.3276 109.487 59.128L109.759 58.8242C109.85 58.7244 109.932 58.6143 110.019 58.5101L110.538 57.8732L111.033 57.207C111.115 57.1057 111.204 57.0089 111.282 56.9032L111.518 56.5906C111.674 56.3793 111.837 56.1724 111.99 55.9596C112.602 54.9837 113.146 53.9667 112.898 53.842Z" fill="#063844"/>
<path d="M92.5258 61.1531C102.406 61.1531 110.416 53.1432 110.416 43.2625C110.416 33.3818 102.406 25.3719 92.5258 25.3719C82.6451 25.3719 74.6352 33.3818 74.6352 43.2625C74.6352 53.1432 82.6451 61.1531 92.5258 61.1531Z" fill="#BADFD8"/>
<path d="M85.9601 59.9953C87.9718 60.8108 90.119 61.2404 92.2895 61.2617C93.0053 61.2606 93.7204 61.2219 94.4321 61.1458C94.7109 61.1223 94.956 61.0798 95.1805 61.0548C95.4051 61.0299 95.6061 60.9932 95.7954 60.9609C95.9847 60.9286 96.1638 60.9037 96.3384 60.8699L96.8653 60.7555L97.1426 60.6938L97.4361 60.6131C97.6386 60.5544 97.8632 60.5001 98.1053 60.415L98.5353 60.2682L98.7862 60.1831L99.0519 60.0789L99.6257 59.8529L100.213 59.5888C100.9 59.271 101.567 58.9087 102.207 58.5043C102.414 58.3707 102.671 58.2108 102.941 58.0038L103.356 57.6927L103.771 57.3493C104.055 57.1248 104.313 56.8724 104.561 56.6523C104.809 56.4321 105.013 56.212 105.192 56.0462C105.292 55.9552 105.375 55.8671 105.455 55.782C106.927 54.3019 108.153 52.5962 109.087 50.7293C109.543 49.8061 109.916 48.844 110.201 47.8545C110.481 46.9006 110.666 45.9214 110.754 44.9312C110.935 42.7205 110.698 40.4955 110.054 38.3728C109.478 36.4039 108.578 34.545 107.39 32.8725C106.084 31.0312 104.441 29.4537 102.547 28.2234C100.965 27.1793 99.2331 26.3812 97.4112 25.8563C96.5107 25.601 95.5924 25.4131 94.664 25.2943C93.736 25.1769 92.8002 25.1342 91.8654 25.1666C87.7939 25.3011 83.8868 26.8046 80.7754 29.4341C80.5802 29.6073 80.3806 29.7717 80.1884 29.9492L79.6395 30.4834L79.1229 31.0411C78.9512 31.2245 78.7986 31.4256 78.6372 31.6163C78.0153 32.3859 77.4582 33.2056 76.9716 34.0671C76.4936 34.93 76.0792 35.8266 75.7315 36.7497C75.3799 37.6984 75.1022 38.6728 74.9009 39.6642C74.7503 40.3911 74.642 41.1261 74.5766 41.8655C74.5115 42.6955 74.4988 43.5287 74.5384 44.3603C74.5851 45.1926 74.6885 46.0207 74.8481 46.8389C74.8803 47.0371 74.9317 47.2293 74.9743 47.4186C75.0168 47.6079 75.0579 47.7943 75.1107 47.9719C75.2164 48.3285 75.303 48.6733 75.4189 48.9845C75.6787 49.7919 76.0031 50.5771 76.389 51.3325L76.659 51.852C76.7529 52.0193 76.8527 52.1837 76.9525 52.3495C77.1389 52.6826 77.3619 52.9923 77.5688 53.3166C78.5906 54.7876 79.8131 56.1085 81.201 57.2407C81.8581 57.7715 82.5558 58.2499 83.2878 58.6716C83.8748 58.993 84.2563 59.1632 84.2725 59.1338C84.2886 59.1045 83.9423 58.8888 83.392 58.5468C82.6785 58.098 81.9897 57.6111 81.3286 57.0881C80.3613 56.3029 79.4798 55.4174 78.6988 54.4466C78.0416 53.633 77.46 52.7611 76.9613 51.8417C75.9126 49.9028 75.2249 47.7895 74.9317 45.6048C74.7468 44.2395 74.7262 42.8571 74.8701 41.4869C74.9536 40.6376 75.1007 39.7958 75.3103 38.9686C75.372 38.7441 75.4219 38.5108 75.4967 38.2789C75.5715 38.047 75.6434 37.8093 75.7198 37.5657L75.9913 36.8319C76.0852 36.581 76.1996 36.333 76.3082 36.0732C77.381 33.6298 79.0657 31.5077 81.0924 29.7834C81.6593 29.3026 82.2563 28.8585 82.8798 28.4538C83.3729 28.1266 83.7779 27.9094 84.1154 27.7201C84.6904 27.4114 85.2845 27.1399 85.8941 26.9071C86.7666 26.5707 87.6666 26.3105 88.584 26.1293C89.4325 25.9556 90.2913 25.8375 91.1551 25.7756C93.2455 25.6218 95.3466 25.8308 97.3657 26.3934C98.3215 26.6628 99.2524 27.0138 100.148 27.4427C101.052 27.8675 101.915 28.3734 102.727 28.9543C104.348 30.105 105.751 31.5357 106.869 33.1793C107.373 33.9156 107.82 34.6887 108.208 35.4921C108.593 36.2979 108.925 37.1284 109.201 37.978C109.782 39.8496 110.049 41.8043 109.992 43.763C109.95 45.2404 109.734 46.7077 109.349 48.1348C108.98 49.4841 108.459 50.7876 107.798 52.0208C107.278 52.992 106.668 53.9119 105.974 54.768C105.614 55.224 105.226 55.6563 104.81 56.0623C104.304 56.5446 103.769 56.9969 103.209 57.4168C102.926 57.6194 102.646 57.8263 102.358 58.0171C102.071 58.2078 101.783 58.4001 101.478 58.5688C100.414 59.1936 99.2882 59.7061 98.1185 60.098C97.1617 60.4177 96.18 60.6572 95.1835 60.8142C94.934 60.8464 94.6845 60.889 94.4336 60.9154L93.6807 60.9859L92.9235 61.0181C92.6711 61.0269 92.4187 61.0181 92.1648 61.0181C91.1131 60.9998 90.0649 60.8918 89.0316 60.6953C88.0003 60.5026 86.9896 60.2127 86.0129 59.8294L85.4098 59.5814L85.1163 59.4626L84.8551 59.3437C84.5293 59.1969 84.2945 59.106 84.2681 59.128C84.2416 59.15 84.384 59.2542 84.6702 59.4097C85.0885 59.6296 85.5192 59.8251 85.9601 59.9953Z" fill="#063844"/>
<path d="M87.1312 51.9782L88.3624 49.6022C87.7284 49.1954 87.1264 48.7406 86.5618 48.2418C86.0958 47.8458 85.6715 47.4032 85.2953 46.9211L87.1547 43.986C87.6142 44.6615 88.1527 45.2798 88.7587 45.8278C89.2938 46.3285 89.8905 46.759 90.5344 47.1089C91.0382 47.3701 91.4785 47.4782 91.8551 47.4332C92.2308 47.3892 92.5229 47.1647 92.7357 46.7626C92.9484 46.3605 92.8824 45.929 92.5551 45.4932C92.1221 44.9527 91.6466 44.4478 91.1331 43.9831C90.5441 43.4554 90.023 42.8565 89.5819 42.2001C89.2155 41.6539 89.0026 41.0193 88.9656 40.3627C88.9333 39.7229 89.1153 39.0219 89.5115 38.2598C90.0672 37.1885 90.8342 36.4547 91.8126 36.0585C92.7909 35.6622 93.9547 35.7195 95.3038 36.2302L96.3502 34.2167L98.9198 35.5522L97.8397 37.6302C98.3391 37.9881 98.8174 38.3747 99.272 38.7881C99.6535 39.1297 100.008 39.5001 100.333 39.896L98.4707 42.8869C98.0731 42.2493 97.593 41.667 97.0428 41.1552C96.5856 40.715 96.0718 40.3374 95.5151 40.0325C95.1394 39.8178 94.7121 39.7097 94.2795 39.7199C93.9038 39.7444 93.6162 39.9489 93.4166 40.3334C93.3245 40.496 93.2794 40.681 93.2861 40.8678C93.2928 41.0546 93.3512 41.2358 93.4547 41.3914C93.7924 41.8855 94.1864 42.3386 94.6288 42.7416C95.4917 43.5595 96.1276 44.2908 96.5365 44.9355C96.9241 45.4881 97.1461 46.1397 97.1764 46.8139C97.1574 47.5058 96.9706 48.1827 96.6319 48.7863C96.0792 49.8517 95.3361 50.5776 94.4028 50.9641C93.4694 51.3505 92.3243 51.3192 90.9673 50.8702L89.7008 53.3077L87.1312 51.9782Z" fill="#063844"/>
<path d="M115.912 66.8941H70.4939C69.6834 66.8941 69.0264 67.5511 69.0264 68.3616V84.5308C69.0264 85.3413 69.6834 85.9983 70.4939 85.9983H115.912C116.723 85.9983 117.38 85.3413 117.38 84.5308V68.3616C117.38 67.5511 116.723 66.8941 115.912 66.8941Z" fill="#F7F4F2"/>
<path d="M115.914 86.0085C115.914 85.6372 114.446 85.6945 112.051 85.6945C100.258 85.6945 88.1203 85.4127 76.0015 85.1823L71.4522 85.0987L70.8842 85.0884H70.601H70.4777C70.4587 85.0884 70.4411 85.0884 70.4234 85.0884C70.2848 85.0659 70.1605 84.9901 70.0771 84.8771C70.0379 84.8161 70.0119 84.7476 70.0008 84.676C70.0008 84.6599 69.9935 84.6437 69.9905 84.6276C69.9921 84.611 69.9921 84.5943 69.9905 84.5777C69.992 84.5606 69.992 84.5434 69.9905 84.5263V84.3898L70.0081 83.2555C70.0541 80.2333 70.0898 77.2205 70.1153 74.217C70.1241 72.7162 70.1324 71.2183 70.1402 69.7234C70.1402 69.3497 70.1402 68.9765 70.1402 68.6037V68.3586C70.1399 68.3552 70.1399 68.3518 70.1402 68.3484C70.1411 68.3252 70.1435 68.3022 70.1476 68.2794C70.1565 68.2351 70.1745 68.1931 70.2004 68.1561C70.2521 68.0813 70.3302 68.0289 70.419 68.0094C70.4418 68.0053 70.4649 68.0029 70.488 68.002H71.2952C74.2664 67.9942 77.2181 67.9653 80.1502 67.9154L106.046 67.4414L112.581 67.3446L115.88 67.3035C115.908 67.3019 115.937 67.3019 115.965 67.3035C115.99 67.3021 116.015 67.3021 116.04 67.3035C116.089 67.3082 116.138 67.3166 116.187 67.3284C116.285 67.3508 116.378 67.389 116.464 67.4414C116.642 67.5444 116.787 67.6975 116.879 67.8817C116.926 67.9719 116.96 68.0682 116.981 68.1679C116.991 68.2162 116.996 68.2653 116.998 68.3146C116.998 68.3572 116.998 68.4423 116.998 68.5069C116.998 68.7857 116.998 69.063 117.006 69.3404C117.05 73.7914 117.074 78.3202 117.074 82.9708C117.074 83.455 117.074 83.9379 117.074 84.3913C117.074 84.4441 117.074 84.5102 117.074 84.5527C117.075 84.5964 117.072 84.6401 117.066 84.6833C117.062 84.7265 117.055 84.7692 117.044 84.811C117.036 84.8521 117.025 84.8924 117.01 84.9314C116.96 85.0803 116.881 85.2183 116.78 85.3379C116.619 85.5229 116.418 85.669 116.192 85.7649C116.024 85.8398 115.909 85.8838 115.909 85.9572C115.91 85.9812 115.916 86.0047 115.929 86.0253C115.941 86.0459 115.959 86.0629 115.98 86.0746C116.009 86.0919 116.04 86.1057 116.072 86.1157C116.115 86.1258 116.159 86.1322 116.203 86.1347C116.502 86.1373 116.793 86.0332 117.023 85.8412C117.196 85.7071 117.339 85.5387 117.444 85.3467C117.57 85.1155 117.642 84.8584 117.653 84.5953C117.653 84.5205 117.653 84.4662 117.653 84.4031V84.2167C117.653 84.089 117.653 83.9584 117.653 83.8234C117.653 83.5534 117.653 83.2687 117.653 82.9678C117.653 80.0895 117.653 77.2288 117.653 74.3857C117.653 72.9632 117.653 71.5446 117.653 70.1299V68.5421C117.662 68.3451 117.645 68.1479 117.604 67.9551C117.53 67.6462 117.373 67.3635 117.15 67.137C116.927 66.9106 116.647 66.749 116.339 66.6695C116.147 66.6239 115.95 66.6046 115.752 66.6123C110.107 66.5873 104.498 66.5257 98.8757 66.3731C93.4063 66.2263 88.0484 66.0957 82.7477 65.9959C80.0973 65.9441 77.4597 65.901 74.8348 65.8668L70.8989 65.8228H70.6539C70.5643 65.8228 70.5159 65.8228 70.3471 65.8228C70.0619 65.8368 69.7811 65.8988 69.5165 66.0062C69.1182 66.1678 68.7672 66.4274 68.496 66.761C68.2249 67.0945 68.0423 67.4911 67.9654 67.914C67.9402 68.0545 67.926 68.1968 67.9228 68.3396V68.5934L67.9155 69.5752C67.889 74.0453 68.1062 77.2063 68.1987 80.7709C68.2173 81.4558 68.2266 82.126 68.2266 82.7814C68.2266 83.1102 68.2266 83.4355 68.2266 83.7573C68.2266 83.9188 68.2266 84.0802 68.2266 84.2402V84.4794V84.5439V84.6364C68.2271 84.6987 68.2316 84.761 68.2398 84.8228C68.2979 85.3159 68.5133 85.7772 68.854 86.1385C69.1946 86.4998 69.6425 86.7419 70.1314 86.8289C70.2527 86.8496 70.3753 86.8624 70.4983 86.867L70.7316 86.8744L71.1939 86.8905L72.117 86.9243C74.5721 87.0167 76.9994 87.1224 79.6307 87.1004C89.4836 87.0211 99.5053 86.2653 109.421 86.1729C110.302 86.1964 111.182 86.2521 112.063 86.2756C113.988 86.2741 115.914 86.2903 115.914 86.0085Z" fill="#063844"/>
<path d="M93.3344 80.724C93.3344 80.6667 93.3711 80.6095 93.377 80.5508C93.3814 80.4966 93.3814 80.4421 93.377 80.3879C93.377 80.36 93.4327 80.3028 93.4327 80.2749C93.4276 80.2423 93.4276 80.2092 93.4327 80.1766C93.4489 80.1267 93.4929 80.1267 93.509 80.0768C93.5252 80.0269 93.5589 79.9755 93.5809 79.93C93.598 79.8789 93.6074 79.8255 93.6088 79.7716C93.6174 79.7221 93.6286 79.6731 93.6426 79.6248C93.6634 79.5735 93.6744 79.5187 93.6749 79.4634C93.6643 79.3975 93.6481 79.3327 93.6264 79.2697C93.6095 79.2123 93.6158 79.1507 93.644 79.098C93.7222 78.9975 93.8075 78.9028 93.8994 78.8147C93.9549 78.7592 94.0042 78.6977 94.0461 78.6313C94.0733 78.5952 94.0923 78.5536 94.1019 78.5095C94.1026 78.5002 94.1026 78.4909 94.1019 78.4816C94.0955 78.4246 94.0848 78.3682 94.0696 78.3128C94.0554 78.2448 94.0317 78.1791 93.9992 78.1177C93.9405 78.0193 93.8686 77.9225 93.8113 77.8241C93.7849 77.7787 93.76 77.7317 93.738 77.6862C93.716 77.6407 93.7204 77.6128 93.713 77.5776C93.7021 77.5239 93.6849 77.4717 93.6617 77.422C93.6294 77.3413 93.5795 77.2621 93.5472 77.1814C93.5414 77.1474 93.5384 77.1131 93.5384 77.0786C93.5357 77.0388 93.5253 76.9999 93.5076 76.9642C93.477 76.8695 93.4684 76.7691 93.4826 76.6707C93.4944 76.5588 93.5246 76.4497 93.5721 76.3478C93.599 76.3031 93.6155 76.253 93.6206 76.2011C93.6206 76.1526 93.6103 76.1027 93.6059 76.0543C93.5978 76.0009 93.5949 75.9469 93.5971 75.8929C93.6021 75.8385 93.615 75.7851 93.6352 75.7344C93.6558 75.7095 93.6763 75.683 93.7013 75.6581C93.7262 75.6331 93.7615 75.6023 93.7879 75.5744C93.8515 75.5109 93.9015 75.435 93.9346 75.3514C93.9565 75.2923 93.9665 75.2294 93.964 75.1665C93.9544 75.0976 93.9315 75.0313 93.8965 74.9713C93.8931 74.9465 93.8961 74.9212 93.9053 74.8979C93.9053 74.8818 93.9229 74.8656 93.9317 74.8495C93.9405 74.8333 93.9317 74.8011 93.9214 74.7776C93.9111 74.7541 93.9009 74.7277 93.8906 74.7027C93.8761 74.6419 93.8539 74.5833 93.8246 74.5281C93.7893 74.4709 93.7365 74.4136 93.6939 74.3549C93.6578 74.3046 93.6263 74.2511 93.6 74.195C93.5707 74.1348 93.5355 74.0761 93.5076 74.0174C93.4942 73.9694 93.4942 73.9186 93.5076 73.8706C93.5237 73.8207 93.5413 73.7723 93.5545 73.7239C93.5813 73.6198 93.5951 73.5129 93.5956 73.4054C93.5956 73.2968 93.4724 73.1868 93.4841 73.0782C93.486 73.0072 93.4791 72.9362 93.4635 72.8669C93.5061 72.77 93.3021 72.6849 93.3168 72.5734C93.3168 72.522 93.2874 72.478 93.1862 72.478C93.0849 72.478 93.057 72.5205 93.0585 72.5734C93.047 72.6953 93.0254 72.816 92.9939 72.9344C92.9939 73.0004 93.0541 73.0811 93.0541 73.1956C93.0541 73.2675 92.9646 73.3423 92.9675 73.4098C92.9675 73.5096 92.9822 73.5258 92.947 73.5566C92.9118 73.5874 92.812 73.6535 92.8002 73.7033C92.7841 73.7594 92.7841 73.8189 92.8002 73.875C92.823 73.9264 92.8335 73.9823 92.8307 74.0384C92.8279 74.0945 92.8119 74.1491 92.7841 74.1979C92.7497 74.2391 92.731 74.291 92.7313 74.3447C92.7313 74.399 92.6975 74.4503 92.6975 74.5046C92.6916 74.5326 92.6922 74.5617 92.6994 74.5894C92.7065 74.6171 92.7199 74.6429 92.7386 74.6646C92.7855 74.7115 92.7547 74.7585 92.7973 74.8113C92.8143 74.8292 92.8269 74.8508 92.834 74.8744C92.7985 74.904 92.7708 74.9418 92.7533 74.9845C92.7394 75.0071 92.728 75.0312 92.7195 75.0564C92.709 75.1094 92.7157 75.1645 92.7386 75.2134C92.7531 75.2646 92.7649 75.3165 92.7738 75.369C92.7787 75.3893 92.7821 75.4099 92.7841 75.4306L92.7679 75.4409C92.6461 75.5143 92.6975 75.5876 92.696 75.6684C92.696 75.6684 92.696 75.6786 92.7166 75.6845C92.7195 75.7976 92.7106 75.9107 92.6902 76.022C92.6752 76.0894 92.654 76.1552 92.6271 76.2187C92.6072 76.284 92.5837 76.3482 92.5566 76.4109C92.5053 76.4828 92.4554 76.5577 92.3967 76.6267C92.3414 76.7061 92.3043 76.7968 92.2881 76.8923C92.2616 76.9818 92.335 77.0698 92.3878 77.1564C92.4103 77.1916 92.4338 77.2269 92.4583 77.2621C92.4583 77.309 92.4289 77.356 92.4774 77.4088C92.5258 77.4617 92.6564 77.5072 92.6828 77.5556C92.7092 77.604 92.6902 77.6524 92.7313 77.7023C92.7708 77.7381 92.7972 77.7862 92.8061 77.8388C92.8061 77.8638 92.7899 77.8887 92.7899 77.9137C92.7899 77.9386 92.8237 77.9592 92.8325 77.9826C92.8413 78.0061 92.8736 78.0501 92.8853 78.0839C92.8494 78.1483 92.8213 78.2168 92.8017 78.2879C92.7896 78.3523 92.7994 78.419 92.8296 78.4772C92.8516 78.5242 92.8853 78.5711 92.9059 78.624C92.9264 78.6768 92.9294 78.6915 92.9426 78.7252C92.9495 78.754 92.9519 78.7837 92.9499 78.8133C92.9427 78.8515 92.9314 78.8889 92.9162 78.9248C92.8897 79.004 92.8516 79.0833 92.8325 79.1625C92.8228 79.2416 92.8398 79.3217 92.8809 79.39C92.9132 79.4619 92.9118 79.5367 92.9382 79.6043C92.9602 79.6694 92.9672 79.7386 92.9587 79.8068C92.9587 79.8449 93.0218 79.8831 93.013 79.9212C93.0093 79.9529 93.0093 79.9849 93.013 80.0166C93.0003 80.0882 92.9826 80.1588 92.9602 80.228C92.9602 80.2646 92.9367 80.3028 92.9602 80.3395C92.9837 80.3762 93.0233 80.404 93.035 80.4349C93.0462 80.4884 93.0516 80.5431 93.0512 80.5978C93.0512 80.6579 93.0937 80.7064 93.0937 80.7665C93.0937 80.7885 93.1143 80.815 93.1921 80.8164C93.3095 80.7739 93.3344 80.7548 93.3344 80.724Z" fill="#063844"/>
<path d="M107.423 80.6345C107.423 80.4746 107.506 80.3146 107.467 80.1561C107.399 79.892 107.524 79.8729 107.521 79.7158C107.521 79.6395 107.547 79.4605 107.547 79.3827C107.547 79.3049 107.443 79.1699 107.453 79.098C107.453 79.0892 107.453 79.0789 107.453 79.0716C107.503 78.7664 107.866 78.4523 107.866 78.172C107.842 78.0066 107.798 77.8448 107.734 77.6907C107.696 77.5439 107.668 77.3972 107.641 77.2431C107.615 77.089 107.577 76.9143 107.549 76.75C107.535 76.6114 107.535 76.4718 107.549 76.3332C107.564 76.1967 107.583 76.0588 107.596 75.9223C107.624 75.6288 107.634 75.3353 107.637 75.0418C107.64 74.7483 107.406 74.465 107.418 74.1613C107.426 73.9661 107.511 73.6608 107.5 73.4671C107.543 73.1942 107.411 73.0386 107.429 72.7158C107.429 72.569 107.398 72.4487 107.298 72.4487C107.198 72.4487 107.167 72.569 107.17 72.7158C107.17 73.1325 107.136 73.3277 107.125 73.7195C107.125 73.9045 107.097 74.1114 107.097 74.4533C107.097 74.6529 107.007 74.8495 107.01 75.0506C107.01 75.325 107.023 75.369 106.99 75.4718C106.927 75.6018 106.878 75.738 106.843 75.8783C106.828 76.0359 106.828 76.1947 106.843 76.3523C106.89 76.6508 106.884 76.9552 106.827 77.2519C106.792 77.384 106.774 77.5202 106.775 77.6569C106.775 77.8037 106.737 77.9504 106.742 78.0972C106.753 78.5374 107.11 79.054 107.113 79.1244C107.099 79.2277 107.099 79.3323 107.113 79.4355C107.132 79.5236 107.113 79.6249 107.129 79.7114C107.139 79.8582 107.144 80.0123 107.144 80.1634C107.144 80.3146 107.186 80.4658 107.186 80.6331C107.186 80.6976 107.211 80.771 107.289 80.7725C107.401 80.7754 107.423 80.7226 107.423 80.6345Z" fill="#063844"/>
<path d="M121.545 85.9983H76.1262C75.3157 85.9983 74.6587 86.6553 74.6587 87.4658V103.635C74.6587 104.445 75.3157 105.102 76.1262 105.102H121.545C122.355 105.102 123.012 104.445 123.012 103.635V87.4658C123.012 86.6553 122.355 85.9983 121.545 85.9983Z" fill="#F7F4F2"/>
<path d="M122.369 105.001C122.584 104.873 122.766 104.697 122.902 104.487C123.038 104.278 123.124 104.04 123.154 103.792C123.154 103.73 123.165 103.664 123.166 103.607V103.435V103.093C123.166 102.866 123.166 102.638 123.176 102.41C123.176 101.545 123.185 100.679 123.176 99.8135C123.176 99.3732 123.232 98.4458 123.234 98.0055C123.234 97.5917 123.234 96.8623 123.234 96.4543C123.251 95.6589 123.295 95.6487 123.311 94.8518C123.328 94.0549 123.36 93.2507 123.383 92.448C123.407 91.6159 123.404 90.7691 123.411 89.9341C123.423 89.1417 123.433 88.3536 123.445 87.5611V87.4804C123.445 87.4555 123.445 87.4144 123.445 87.3806C123.444 87.3108 123.438 87.2412 123.427 87.1722C123.409 87.0327 123.375 86.8958 123.325 86.7643C123.227 86.4994 123.071 86.2597 122.868 86.0628C122.665 85.8652 122.42 85.7148 122.152 85.6225C122.017 85.5766 121.878 85.5451 121.737 85.5286C121.666 85.5286 121.59 85.5198 121.526 85.5183H121.364C120.337 85.5286 119.31 85.5477 118.282 85.5682C117.362 85.5873 116.463 85.5771 115.548 85.5506C114.035 85.4787 112.541 85.3877 111.049 85.2938C110.083 85.2351 109.112 85.1911 108.128 85.1471C107.484 85.1221 106.834 85.0986 106.181 85.0928H105.741C104.846 85.0928 103.956 85.1118 103.067 85.1251C102.029 85.1412 100.995 85.1573 99.9705 85.1955L95.2745 85.3833L93.0629 85.4567L91.3342 85.4802C90.5094 85.4905 89.692 85.511 88.8702 85.533L85.0546 85.646C84.5043 85.646 83.9569 85.6563 83.4037 85.6563C82.8005 85.6563 82.1989 85.6695 81.5972 85.6856C80.0142 85.7199 78.4234 85.7287 76.8248 85.7121H76.1835H76.1028H76.0059C75.9419 85.7141 75.8782 85.7204 75.8151 85.7311C75.6882 85.7518 75.5637 85.7857 75.4438 85.8324C75.2042 85.9298 74.9884 86.0778 74.8111 86.2662C74.6338 86.4546 74.4992 86.6791 74.4166 86.9242C74.396 86.9859 74.3799 87.049 74.3637 87.1121C74.3476 87.1752 74.3403 87.2397 74.3329 87.3043C74.3256 87.3689 74.3227 87.4393 74.3227 87.4936V87.6536L74.308 88.2934L74.2728 89.5716C74.2463 90.3744 74.2273 91.161 74.2258 91.974C74.2258 92.7635 74.2307 93.553 74.2405 94.3426C74.2405 95.1937 74.2537 96.0522 74.2493 96.9063C74.2449 97.7604 74.2317 98.5793 74.2111 99.4216C74.1891 99.8311 74.1656 100.238 74.1436 100.647L74.0585 101.968C74.0419 102.261 74.0257 102.555 74.0101 102.848L73.9881 103.289L73.9778 103.51V103.622C73.9778 103.66 73.9778 103.724 73.9778 103.768C73.995 104.211 74.1488 104.637 74.418 104.988C74.6898 105.347 75.0669 105.611 75.4967 105.745C75.6727 105.801 75.8552 105.833 76.0397 105.842C76.1453 105.842 76.1864 105.842 76.2524 105.842H76.4359L77.1696 105.851H78.646C79.6923 105.851 80.7181 105.811 81.7513 105.783C82.1416 105.783 82.5246 105.783 82.9165 105.792L83.681 105.819C84.067 105.83 84.4442 105.819 84.8242 105.807L85.9983 105.776C86.9272 105.76 87.8605 105.745 88.7866 105.711C89.7126 105.678 90.6195 105.623 91.5382 105.579C92.3835 105.541 93.2405 105.513 94.0961 105.487L96.921 105.394C97.7194 105.383 98.4972 105.386 99.2999 105.394L101.648 105.441C103.339 105.469 105.023 105.48 106.708 105.483C108.445 105.483 110.186 105.359 111.926 105.371C113.048 105.371 114.159 105.359 115.272 105.349C116.829 105.393 118.163 105.188 120.015 105.202C120.827 105.202 121.54 105.171 121.54 105.07C121.54 104.969 120.849 104.941 120.015 104.944C117.625 104.944 116.515 104.891 114.277 104.879C113.215 104.879 112.031 104.94 110.113 104.94C108.975 104.94 107.845 104.85 106.702 104.853C105.133 104.853 104.881 104.866 104.291 104.832C103.388 104.781 102.756 104.696 101.966 104.686C101.07 104.672 100.153 104.67 99.2573 104.686C97.5506 104.719 95.8175 104.74 94.121 104.67C93.3535 104.639 92.5772 104.612 91.8053 104.618C90.9526 104.618 90.1161 104.583 89.2635 104.584C88.4109 104.586 87.5729 104.573 86.7188 104.625C85.9733 104.671 85.2161 104.642 84.4764 104.684C84.1438 104.702 83.8102 104.714 83.4756 104.721H83.4154C82.8607 104.675 82.2664 104.661 81.6882 104.64C81.3095 104.627 80.9236 104.614 80.5361 104.606C79.6997 104.592 78.8632 104.606 78.0296 104.625L76.7969 104.646H76.1805C76.1385 104.648 76.0964 104.648 76.0543 104.646C76.0175 104.645 75.9807 104.641 75.9443 104.636C75.7928 104.612 75.6485 104.554 75.5217 104.468C75.3949 104.382 75.2886 104.269 75.2105 104.137C75.1945 104.099 75.1812 104.06 75.1709 104.021C75.1439 103.921 75.1292 103.818 75.1269 103.714C75.1269 103.584 75.1386 103.45 75.1445 103.316C75.1577 103.023 75.1621 102.713 75.1635 102.41C75.1635 101.801 75.1635 101.189 75.1547 100.593C75.1553 100.507 75.1485 100.422 75.1342 100.337C75.1342 98.5411 75.1415 96.7493 75.1606 94.9486C75.1723 93.9096 75.1988 92.875 75.2223 91.8375C75.2457 90.8 75.2633 89.8006 75.2942 88.7865L75.3323 87.9222L75.3514 87.4907V87.4364V87.407V87.3513C75.3592 87.3144 75.3695 87.2782 75.3822 87.2427C75.4288 87.109 75.5143 86.9924 75.6279 86.9079C75.7414 86.8234 75.8777 86.7749 76.0191 86.7687C76.0391 86.7665 76.0593 86.7665 76.0793 86.7687H76.1703L76.4315 86.779L76.9583 86.798L78.0135 86.8259L80.134 86.8641C81.537 86.8905 82.9429 86.8171 84.318 86.7643L86.0159 86.6924C86.7496 86.6924 87.5039 86.7232 88.2172 86.6733C89.014 86.619 89.7815 86.4957 90.5872 86.4678C91.3533 86.4414 92.1266 86.4678 92.8897 86.4209C93.5912 86.3827 94.347 86.3446 95.0573 86.346L96.2313 86.3622C96.6099 86.3622 96.9651 86.3284 97.3451 86.3196L98.9403 86.2653C100.023 86.2991 101.108 86.3358 102.194 86.3504C103.195 86.3636 104.213 86.3504 105.202 86.3225L107.446 86.2448L109.043 86.2096C109.509 86.2022 109.973 86.1993 110.447 86.2022C111.034 86.2022 111.633 86.2242 112.22 86.236L115.993 86.3182C117.207 86.3372 118.423 86.3049 119.622 86.2697C120.189 86.2536 120.757 86.2462 121.324 86.2389H121.534C121.592 86.2397 121.65 86.2441 121.707 86.2521C121.823 86.2671 121.934 86.3003 122.039 86.3504C122.146 86.3978 122.245 86.4617 122.333 86.5397C122.423 86.6155 122.5 86.7052 122.562 86.8054C122.681 86.9938 122.747 87.2117 122.751 87.4349C122.751 87.702 122.751 87.9706 122.761 88.2377C122.761 88.7733 122.761 89.3104 122.761 89.8519C122.761 90.458 122.824 91.0656 122.815 91.6717C122.807 92.1794 122.815 92.6887 122.815 93.1979C122.815 94.3176 122.774 95.43 122.763 96.5482C122.763 97.147 122.739 97.7443 122.763 98.3313C122.782 98.8273 122.826 99.3585 122.837 99.8516C122.848 100.713 122.852 101.567 122.854 102.432C122.854 102.672 122.854 102.901 122.854 103.123V103.451V103.613C122.854 103.663 122.854 103.713 122.854 103.76C122.836 103.967 122.769 104.167 122.659 104.344C122.549 104.521 122.399 104.669 122.221 104.777C122.077 104.861 121.923 104.926 121.762 104.97C121.622 105.013 121.518 105.029 121.515 105.072C121.512 105.114 121.584 105.16 121.734 105.16C121.956 105.168 122.177 105.113 122.369 105.001Z" fill="#063844"/>
<path d="M115.912 105.101H70.4939C69.6834 105.101 69.0264 105.758 69.0264 106.569V122.738C69.0264 123.548 69.6834 124.205 70.4939 124.205H115.912C116.723 124.205 117.38 123.548 117.38 122.738V106.569C117.38 105.758 116.723 105.101 115.912 105.101Z" fill="#F7F4F2"/>
<path d="M117.143 123.73C117.271 123.573 117.368 123.393 117.428 123.2L117.466 123.053L117.49 122.907L117.499 122.76V122.613L117.513 121.492C117.521 120.743 117.529 119.994 117.537 119.244C117.537 117.822 117.497 116.467 117.493 115.044C117.493 114.32 117.513 112.637 117.521 111.912C117.521 111.232 117.521 110.033 117.521 109.361C117.538 108.054 117.466 108.13 117.482 106.822V106.574C117.483 106.486 117.477 106.398 117.463 106.31C117.437 106.134 117.381 105.963 117.298 105.805C117.171 105.565 116.986 105.362 116.759 105.213C116.532 105.065 116.271 104.977 116 104.957C115.906 104.95 115.829 104.95 115.745 104.948H115.498L114.511 104.929C113.142 104.906 111.749 104.909 110.378 104.901L106.478 104.868C105.07 104.855 103.672 104.828 102.261 104.835C100.575 104.844 98.886 104.863 97.2013 104.884C95.6868 104.903 94.2105 104.893 92.7063 104.866C90.2203 104.796 87.7637 104.705 85.3115 104.611C83.7236 104.551 82.1255 104.507 80.5097 104.464C79.4531 104.438 78.3818 104.414 77.3105 104.408H76.5768L74.3549 104.422C73.3937 104.41 72.4149 104.447 71.436 104.491L70.7023 104.526L70.5188 104.535L70.4044 104.542L70.2782 104.554C70.1115 104.577 69.9484 104.621 69.7924 104.684C69.488 104.808 69.2183 105.004 69.0068 105.255C68.7953 105.507 68.6483 105.806 68.5788 106.127C68.5568 106.206 68.5494 106.29 68.5347 106.372L68.5274 106.497C68.5274 106.538 68.5274 106.582 68.5274 106.61V106.985C68.5186 107.408 68.5098 107.825 68.501 108.242C68.4878 108.877 68.501 109.496 68.5113 110.121L68.5421 112.056C68.5597 113.583 68.5729 115.117 68.6081 116.628C68.6433 118.14 68.6947 119.641 68.7387 121.151C68.7475 121.5 68.7568 121.848 68.7666 122.196L68.7784 122.722C68.7816 122.925 68.8199 123.127 68.8914 123.317C68.9985 123.603 69.1812 123.854 69.4201 124.044C69.6589 124.234 69.9448 124.356 70.2473 124.396C70.296 124.403 70.345 124.408 70.3941 124.409C70.444 124.409 70.4968 124.409 70.5408 124.409H70.805L75.4482 124.317C76.7602 124.305 78.0399 124.308 79.3577 124.317L83.2188 124.364C85.9968 124.392 88.7587 124.402 91.5352 124.405C94.391 124.405 97.2498 124.282 100.113 124.292C101.953 124.292 103.782 124.37 105.612 124.359C108.17 124.403 110.365 124.317 113.407 124.334C114.743 124.334 115.912 124.304 115.915 124.204C115.918 124.104 114.778 124.073 113.407 124.076C109.479 124.076 107.654 123.903 103.975 123.893C102.231 123.893 100.282 123.865 97.1309 123.865C95.2613 123.865 93.4048 123.775 91.5249 123.777C88.945 123.777 88.5327 123.791 87.5626 123.758C86.079 123.706 85.0414 123.621 83.7471 123.611C82.2796 123.598 80.7665 123.595 79.2932 123.611C76.4887 123.645 73.6403 123.665 70.8476 123.595H70.6113H70.4968H70.4278C70.3381 123.583 70.2506 123.557 70.1681 123.52C70.0067 123.44 69.8743 123.312 69.7895 123.153C69.7488 123.075 69.7206 122.992 69.7058 122.905L69.697 122.84V122.773C69.697 122.76 69.697 122.705 69.697 122.67V122.538C69.697 122.219 69.697 121.901 69.697 121.584C69.697 120.183 69.7308 118.808 69.7308 117.408C69.7308 116.008 69.741 114.627 69.6882 113.224C69.6427 112 69.6721 110.754 69.631 109.537C69.6124 108.991 69.6002 108.443 69.5943 107.892V107.794C69.6046 107.566 69.6134 107.335 69.6236 107.1C69.6236 106.982 69.6236 106.865 69.6354 106.746V106.57C69.6354 106.535 69.6354 106.5 69.6471 106.466C69.6697 106.331 69.7247 106.203 69.8075 106.094C69.8904 105.985 69.9985 105.897 70.1226 105.839C70.2013 105.802 70.2856 105.779 70.3721 105.77C70.3935 105.768 70.4152 105.768 70.4367 105.77H70.51H70.7463L71.6973 105.785C72.9667 105.8 73.4172 105.785 74.5853 105.756L76.9833 105.709C77.604 105.694 78.2175 105.732 78.8911 105.709C80.09 105.675 81.2699 105.593 82.4674 105.555H84.337C85.31 105.555 86.2859 105.577 87.2515 105.588L93.4533 105.672C95.4476 105.691 97.4479 105.657 99.4188 105.623C101.28 105.591 103.151 105.593 105.017 105.566C106.767 105.547 108.539 105.534 110.3 105.546C111.298 105.553 112.296 105.483 113.294 105.491C114.128 105.5 114.966 105.491 115.801 105.491C115.896 105.488 115.991 105.493 116.085 105.506C116.168 105.518 116.25 105.539 116.328 105.569C116.483 105.632 116.623 105.729 116.737 105.852C116.852 105.978 116.936 106.129 116.982 106.293C116.995 106.333 117.005 106.374 117.011 106.416C117.019 106.458 117.024 106.5 117.026 106.542C117.026 106.577 117.026 106.645 117.026 106.698V106.865C117.044 107.759 117.06 108.652 117.054 109.571C117.054 110.556 117.03 111.538 117.054 112.506C117.073 113.322 117.201 114.282 117.201 115.099C117.201 116.515 117.211 117.918 117.217 119.34C117.217 120.131 117.227 120.842 117.239 121.542C117.239 121.895 117.248 122.249 117.252 122.612V122.749V122.876C117.244 122.961 117.228 123.045 117.205 123.128C117.155 123.299 117.073 123.458 116.962 123.596C116.872 123.708 116.768 123.807 116.652 123.89C116.545 123.964 116.43 124.025 116.308 124.073C116.088 124.157 115.915 124.174 115.909 124.22C115.903 124.265 116.025 124.311 116.264 124.276C116.615 124.209 116.928 124.014 117.143 123.73Z" fill="#063844"/>
<path d="M107.423 118.841C107.423 118.683 107.506 118.523 107.467 118.363C107.399 118.099 107.524 118.081 107.521 117.93C107.521 117.852 107.547 117.673 107.547 117.595C107.547 117.518 107.443 117.383 107.453 117.312C107.453 117.302 107.453 117.293 107.453 117.284C107.503 116.981 107.866 116.667 107.866 116.386C107.843 116.221 107.798 116.059 107.734 115.905C107.696 115.758 107.668 115.611 107.641 115.465C107.615 115.318 107.577 115.136 107.549 114.97C107.535 114.831 107.535 114.692 107.549 114.553C107.564 114.417 107.583 114.279 107.596 114.142C107.624 113.849 107.634 113.555 107.637 113.262C107.64 112.968 107.406 112.685 107.418 112.381C107.426 112.185 107.511 111.881 107.5 111.686C107.543 111.413 107.411 111.259 107.429 110.934C107.429 110.788 107.398 110.667 107.298 110.667C107.198 110.667 107.167 110.788 107.17 110.934C107.17 111.353 107.136 111.546 107.125 111.938C107.125 112.125 107.097 112.331 107.097 112.672C107.097 112.872 107.007 113.07 107.01 113.269C107.01 113.544 107.023 113.588 106.99 113.69C106.927 113.82 106.878 113.957 106.843 114.097C106.828 114.255 106.828 114.413 106.843 114.571C106.89 114.869 106.884 115.174 106.827 115.471C106.792 115.603 106.774 115.739 106.775 115.876C106.775 116.022 106.737 116.169 106.742 116.316C106.753 116.756 107.11 117.273 107.113 117.343C107.099 117.447 107.099 117.552 107.113 117.656C107.132 117.742 107.113 117.843 107.129 117.932C107.139 118.078 107.144 118.225 107.144 118.382C107.144 118.539 107.186 118.684 107.186 118.852C107.186 118.916 107.211 118.99 107.289 118.998C107.401 118.982 107.423 118.929 107.423 118.841Z" fill="#063844"/>
<path d="M80.9016 118.931C80.9128 118.873 80.9275 118.816 80.9456 118.759C80.9507 118.705 80.9507 118.651 80.9456 118.596C80.9456 118.568 81.0014 118.51 81.0028 118.482C80.9977 118.45 80.9977 118.417 81.0028 118.385C81.0204 118.335 81.0645 118.334 81.0806 118.284C81.1017 118.233 81.1257 118.184 81.1525 118.137C81.1696 118.086 81.179 118.032 81.1804 117.979C81.1882 117.929 81.1995 117.88 81.2142 117.832C81.2346 117.78 81.2455 117.726 81.2464 117.67C81.2346 117.605 81.218 117.54 81.1965 117.477C81.1801 117.419 81.1869 117.357 81.2156 117.305C81.2938 117.204 81.3791 117.11 81.471 117.022C81.5257 116.965 81.5749 116.904 81.6177 116.838C81.6443 116.801 81.6628 116.759 81.672 116.715C81.6735 116.706 81.6735 116.696 81.672 116.687C81.6662 116.63 81.6554 116.574 81.6397 116.518C81.6268 116.45 81.603 116.385 81.5693 116.325C81.5121 116.226 81.4387 116.128 81.3815 116.031C81.355 115.984 81.3301 115.939 81.3081 115.884C81.2861 115.83 81.2919 115.812 81.2846 115.776C81.2726 115.722 81.2554 115.67 81.2332 115.62C81.1995 115.541 81.1496 115.46 81.1188 115.381C81.1117 115.347 81.1083 115.312 81.1085 115.277C81.1073 115.237 81.0972 115.199 81.0791 115.164C81.0482 115.069 81.0392 114.969 81.0527 114.87C81.0653 114.759 81.0961 114.65 81.1437 114.549C81.1699 114.504 81.1859 114.454 81.1907 114.402C81.1891 114.353 81.1847 114.304 81.1775 114.255C81.1696 114.202 81.1662 114.148 81.1672 114.094C81.1727 114.04 81.1861 113.987 81.2068 113.937C81.2271 113.91 81.2492 113.884 81.2729 113.859L81.3594 113.777C81.4227 113.713 81.4726 113.636 81.5062 113.552C81.5266 113.493 81.5366 113.43 81.5355 113.368C81.526 113.299 81.503 113.232 81.468 113.172C81.4637 113.148 81.4667 113.122 81.4768 113.099C81.4845 113.082 81.4933 113.066 81.5033 113.051C81.515 113.027 81.5033 113.002 81.4915 112.979C81.4798 112.955 81.471 112.93 81.4607 112.905C81.4473 112.844 81.4256 112.786 81.3961 112.731C81.3594 112.672 81.3081 112.615 81.2641 112.557C81.2289 112.506 81.1979 112.452 81.1716 112.396C81.1422 112.336 81.107 112.277 81.0791 112.219C81.0682 112.17 81.0707 112.119 81.0865 112.072C81.1012 112.022 81.1202 111.973 81.1334 111.925C81.1594 111.821 81.1732 111.715 81.1745 111.608C81.1745 111.498 81.0513 111.389 81.063 111.279C81.0637 111.209 81.0564 111.138 81.041 111.069C81.085 110.971 80.8796 110.887 80.8942 110.776C80.9016 110.726 80.8634 110.681 80.7622 110.681C80.6609 110.681 80.633 110.725 80.6359 110.776C80.6239 110.898 80.6023 111.018 80.5714 111.137C80.5714 111.204 80.6315 111.284 80.6315 111.4C80.6315 111.47 80.542 111.546 80.545 111.614C80.545 111.712 80.5582 111.728 80.5244 111.761C80.4907 111.793 80.3879 111.857 80.3777 111.907C80.3623 111.963 80.3623 112.022 80.3777 112.078C80.4008 112.129 80.4114 112.185 80.4086 112.241C80.4058 112.297 80.3897 112.352 80.3615 112.4C80.3282 112.442 80.3101 112.494 80.3101 112.547C80.3101 112.602 80.2749 112.654 80.2764 112.707C80.2704 112.735 80.271 112.764 80.2781 112.792C80.2852 112.82 80.2987 112.845 80.3175 112.867C80.363 112.914 80.3336 112.963 80.3762 113.014C80.3919 113.033 80.4043 113.054 80.4129 113.077C80.3779 113.106 80.3502 113.144 80.3322 113.186C80.3185 113.208 80.3072 113.232 80.2984 113.258C80.2887 113.311 80.2954 113.366 80.3175 113.416C80.3325 113.467 80.3447 113.518 80.3542 113.57C80.3542 113.591 80.3542 113.611 80.3644 113.632L80.3468 113.642C80.2265 113.715 80.2779 113.789 80.2749 113.869C80.2749 113.869 80.2823 113.881 80.2955 113.886C80.2998 113.999 80.291 114.113 80.2691 114.225C80.2546 114.291 80.2339 114.357 80.2074 114.42C80.1872 114.485 80.1637 114.549 80.137 114.612C80.0856 114.684 80.0342 114.759 79.9755 114.829C79.9204 114.909 79.8833 114.999 79.8669 115.095C79.8405 115.183 79.9139 115.271 79.9682 115.358C79.9902 115.393 80.0122 115.429 80.0387 115.465C80.0387 115.51 80.0078 115.559 80.0577 115.603C80.1076 115.647 80.2353 115.701 80.2632 115.749C80.2911 115.798 80.2632 115.846 80.3101 115.896C80.35 115.932 80.3764 115.98 80.385 116.033C80.385 116.056 80.3703 116.081 80.3689 116.106C80.3674 116.131 80.4026 116.153 80.4114 116.176C80.4202 116.2 80.454 116.242 80.4657 116.276C80.4293 116.341 80.4007 116.41 80.3806 116.482C80.3689 116.546 80.3793 116.613 80.4099 116.671C80.432 116.718 80.4642 116.765 80.4863 116.818C80.5083 116.871 80.5083 116.884 80.5215 116.918C80.5288 116.946 80.5318 116.976 80.5303 117.006C80.5221 117.044 80.5103 117.081 80.4951 117.117C80.4701 117.196 80.432 117.276 80.4129 117.355C80.4031 117.434 80.4202 117.514 80.4613 117.582C80.4936 117.654 80.4921 117.729 80.5171 117.797C80.5401 117.861 80.5477 117.931 80.5391 117.999C80.5317 118.037 80.6022 118.075 80.5934 118.114C80.589 118.145 80.589 118.177 80.5934 118.209C80.5806 118.28 80.563 118.351 80.5406 118.42C80.5332 118.458 80.5171 118.495 80.5406 118.532C80.564 118.568 80.6037 118.596 80.6154 118.627C80.6251 118.681 80.6305 118.735 80.6315 118.79C80.6315 118.85 80.6741 118.899 80.6741 118.959C80.6741 118.982 80.6932 119.009 80.771 119.009C80.8766 118.981 80.9016 118.963 80.9016 118.931Z" fill="#063844"/>
<path d="M53.9394 93.7839L33.0027 134.089C32.6291 134.808 32.9093 135.694 33.6285 136.068L47.9773 143.521C48.6965 143.895 49.5824 143.615 49.956 142.895L70.8927 102.59C71.2664 101.871 70.9862 100.985 70.2669 100.612L55.9182 93.1581C55.199 92.7845 54.313 93.0647 53.9394 93.7839Z" fill="#F7F4F2"/>
<path d="M32.8578 135.391C32.9389 135.576 33.0544 135.744 33.1983 135.887L33.3098 135.988L33.4316 136.079L33.5622 136.157L33.6855 136.223L34.6761 136.753L36.6602 137.809C37.9178 138.471 39.1417 139.054 40.4067 139.707L43.173 141.174C43.7762 141.488 44.8431 142.036 45.4345 142.348C46.588 142.966 46.5527 142.868 47.7062 143.484L47.9249 143.601C48.0034 143.642 48.0848 143.677 48.1685 143.706C48.5104 143.823 48.8821 143.821 49.2226 143.699C49.5631 143.577 49.8522 143.344 50.0425 143.036C50.0924 142.956 50.1291 142.89 50.1687 142.813L50.2861 142.596C50.4431 142.303 50.6016 142.018 50.7586 141.727C51.4102 140.524 52.0486 139.287 52.6884 138.075C53.2989 136.923 53.905 135.778 54.5155 134.629C55.1759 133.385 55.8363 132.156 56.4879 130.902C57.2568 129.4 58.0195 127.895 58.7757 126.387C59.4581 125.036 60.1464 123.73 60.864 122.406C62.0732 120.233 63.2854 118.094 64.4991 115.964C65.2842 114.58 66.059 113.184 66.8397 111.768C67.3504 110.842 67.867 109.903 68.363 108.955L68.7035 108.302L69.7161 106.325C70.1696 105.477 70.5893 104.592 71.0002 103.702L71.3069 103.036L71.3832 102.869L71.4302 102.765L71.4771 102.647C71.6146 102.257 71.6297 101.834 71.5204 101.435C71.411 101.036 71.1824 100.679 70.8652 100.414C70.8016 100.362 70.7355 100.313 70.667 100.267L70.5599 100.202C70.5281 100.182 70.4953 100.164 70.4616 100.147L70.1299 99.9691L69.0278 99.3659C68.4702 99.0622 67.914 98.7892 67.3548 98.5089L65.6246 97.646C64.2613 96.9563 62.8921 96.2607 61.5347 95.5915L57.4608 93.6279L56.5216 93.1701L56.0491 92.9382C55.8669 92.848 55.671 92.789 55.4694 92.7636C55.0631 92.7137 54.6525 92.8122 54.313 93.0409C54.1463 93.1548 54.0016 93.298 53.8859 93.4636C53.8559 93.5038 53.8294 93.5465 53.8067 93.5912C53.7817 93.6338 53.7553 93.6793 53.7377 93.7175L53.6203 93.9537L51.5658 98.1171C50.9714 99.2911 50.3786 100.421 49.7578 101.582C49.1483 102.72 48.5412 103.855 47.9366 104.988C46.6305 107.44 45.3479 109.887 44.0667 112.349C42.746 114.884 41.5411 117.478 40.213 120.012C39.3575 121.643 38.452 123.232 37.6185 124.855C36.4004 127.106 35.4656 129.094 34.048 131.786C33.4257 132.96 32.9195 134.023 33.009 134.071C33.0985 134.12 33.6473 133.123 34.2769 131.905C36.082 128.416 37.0813 126.88 38.7866 123.62C39.5967 122.073 40.5139 120.354 41.9667 117.559C42.8282 115.899 43.763 114.292 44.6273 112.624C45.8131 110.333 45.9951 109.961 46.472 109.115C47.2058 107.822 47.7546 106.94 48.3651 105.792C49.0549 104.491 49.7519 103.151 50.4196 101.84C51.6817 99.3351 52.9775 96.7978 54.3277 94.3558L54.4407 94.1474L54.4964 94.0476L54.5346 93.9889C54.587 93.9157 54.6498 93.8505 54.721 93.7952C54.8659 93.6878 55.041 93.6287 55.2214 93.6265C55.309 93.6276 55.396 93.6414 55.4797 93.6676L55.5413 93.6896L55.6015 93.7175C55.6147 93.7175 55.6616 93.7483 55.6939 93.7659L55.7996 93.8202L56.6449 94.2604C57.8908 94.9017 59.0927 95.5709 60.3357 96.2152C61.5787 96.8594 62.7982 97.5066 64.0676 98.1068C65.1741 98.6307 66.2689 99.2309 67.3651 99.7534C67.8543 99.9891 68.3469 100.234 68.8429 100.487L68.928 100.537L69.5297 100.882L69.8379 101.055L69.9935 101.142C70.0213 101.162 70.0536 101.177 70.08 101.2C70.1895 101.283 70.2772 101.39 70.3358 101.514C70.3943 101.638 70.4219 101.774 70.4161 101.911C70.4133 101.997 70.3954 102.083 70.3633 102.163C70.3566 102.184 70.3477 102.204 70.3369 102.223L70.2943 102.286L70.1813 102.495L69.7293 103.331C69.132 104.452 68.9354 104.857 68.4261 105.908L67.3592 108.061C67.0863 108.617 66.7722 109.144 66.4787 109.75C65.9563 110.83 65.4852 111.915 64.9672 112.996L64.1102 114.658C63.6596 115.519 63.1915 116.376 62.7366 117.229C61.7582 119.049 60.7799 120.871 59.8015 122.694C58.8652 124.455 57.973 126.245 57.0954 128.009C56.2663 129.676 55.4034 131.336 54.5654 132.999C53.7759 134.56 52.9746 136.132 52.1528 137.695C51.6861 138.575 51.2884 139.495 50.8203 140.376C50.4285 141.11 50.0498 141.859 49.6639 142.601C49.622 142.686 49.573 142.768 49.5171 142.846C49.4684 142.914 49.4117 142.976 49.3484 143.031C49.2217 143.141 49.071 143.221 48.9081 143.264C48.746 143.309 48.5755 143.315 48.4106 143.282C48.3685 143.276 48.3272 143.265 48.2873 143.251C48.2471 143.239 48.2079 143.224 48.1699 143.207C48.1347 143.193 48.076 143.163 48.0232 143.139L47.8764 143.066C47.0752 142.668 46.2754 142.272 45.4624 141.842C44.5907 141.383 43.7292 140.916 42.8634 140.49C42.1296 140.132 41.2227 139.798 40.4919 139.432L36.7321 137.494C36.0277 137.128 35.3937 136.811 34.7612 136.494L33.8044 136.013L33.6826 135.951L33.5725 135.888C33.5009 135.841 33.4332 135.789 33.37 135.731C33.2415 135.609 33.1387 135.462 33.0677 135.3C33.0122 135.169 32.9737 135.032 32.9532 134.892C32.9386 134.762 32.9386 134.631 32.9532 134.501C32.9796 134.268 33.0442 134.105 33.009 134.082C32.9738 134.058 32.874 134.142 32.7947 134.375C32.6932 134.71 32.7156 135.071 32.8578 135.391Z" fill="#063844"/>
<path d="M41.6776 129.016C41.8244 129.089 41.9227 129.237 42.0812 129.274C42.3468 129.337 42.3057 129.456 42.4422 129.523C42.5112 129.556 42.6579 129.67 42.7254 129.7C42.7929 129.729 42.9617 129.707 43.0189 129.748L43.0424 129.763C43.289 129.946 43.4005 130.413 43.65 130.542C43.8073 130.597 43.971 130.633 44.1372 130.648C44.2839 130.681 44.4307 130.725 44.5775 130.771C44.7242 130.816 44.8988 130.865 45.0588 130.918C45.1866 130.972 45.3089 131.038 45.4242 131.116C45.5387 131.193 45.6517 131.273 45.7676 131.348C46.0171 131.509 46.2724 131.653 46.5337 131.788C46.7949 131.923 47.1515 131.851 47.4142 132.001C47.5844 132.097 47.8148 132.313 47.9924 132.394C48.214 132.558 48.4136 132.513 48.6924 132.677C48.8157 132.749 48.9433 132.773 48.9859 132.677C49.0284 132.582 48.9375 132.507 48.8068 132.442C48.4326 132.254 48.28 132.13 47.9381 131.939C47.7752 131.848 47.602 131.732 47.3041 131.578C47.128 131.487 46.993 131.315 46.814 131.226C46.5689 131.102 46.5204 131.092 46.45 131.014C46.3326 130.896 46.2739 130.769 46.1565 130.694C46.0235 130.609 45.8824 130.537 45.7353 130.479C45.449 130.382 45.1815 130.236 44.9443 130.049C44.8437 129.957 44.7312 129.879 44.6097 129.817C44.4747 129.752 44.3647 129.647 44.2311 129.581C43.8349 129.388 43.2039 129.468 43.1451 129.434C43.0597 129.373 42.9664 129.323 42.8678 129.287C42.7827 129.264 42.699 129.203 42.6168 129.174C42.4701 129.114 42.3439 129.048 42.2089 128.979C42.0739 128.91 41.9154 128.878 41.7686 128.801C41.7114 128.771 41.6351 128.759 41.5969 128.828C41.5617 128.932 41.5998 128.975 41.6776 129.016Z" fill="#063844"/>
<path d="M53.8214 105.44C53.8727 105.466 53.905 105.525 53.9534 105.557C53.9998 105.589 54.0489 105.616 54.1002 105.638C54.1266 105.648 54.1516 105.726 54.175 105.739C54.2056 105.751 54.2342 105.768 54.2602 105.788C54.2968 105.826 54.2778 105.866 54.3145 105.902C54.3511 105.939 54.3805 105.993 54.4157 106.036C54.4528 106.075 54.4959 106.108 54.5434 106.134C54.5841 106.164 54.6228 106.197 54.6593 106.232C54.6956 106.274 54.7394 106.309 54.7885 106.335C54.8515 106.356 54.9163 106.372 54.9822 106.381C55.0117 106.386 55.0399 106.397 55.0651 106.414C55.0903 106.43 55.112 106.451 55.1289 106.476C55.1823 106.592 55.227 106.712 55.2625 106.834C55.2871 106.908 55.3195 106.979 55.3593 107.045C55.379 107.086 55.4076 107.123 55.443 107.151L55.4665 107.166C55.5196 107.187 55.5746 107.203 55.6308 107.214C55.6976 107.233 55.7668 107.243 55.8363 107.242C55.9507 107.242 56.0711 107.216 56.1841 107.211C56.2384 107.211 56.2912 107.211 56.3426 107.211L56.4497 107.241C56.5024 107.255 56.5565 107.263 56.6111 107.266C56.6977 107.273 56.7916 107.266 56.8767 107.274C56.9102 107.285 56.9426 107.298 56.9736 107.314C57.0093 107.331 57.0484 107.34 57.0881 107.34C57.1885 107.356 57.2837 107.396 57.3654 107.456C57.4594 107.518 57.5423 107.595 57.6105 107.684C57.6391 107.729 57.6772 107.768 57.722 107.797C57.7699 107.818 57.8189 107.837 57.8688 107.853C57.9195 107.87 57.9686 107.892 58.0155 107.919C58.0616 107.948 58.1032 107.984 58.1388 108.026C58.1531 108.056 58.1653 108.088 58.1755 108.12C58.1872 108.158 58.1975 108.199 58.2107 108.234C58.2376 108.32 58.2816 108.399 58.3399 108.467C58.3818 108.513 58.4315 108.551 58.4866 108.579C58.5525 108.602 58.6222 108.613 58.6921 108.61C58.7159 108.617 58.7369 108.631 58.7522 108.651C58.7633 108.665 58.7736 108.681 58.7831 108.696C58.7992 108.718 58.8271 108.717 58.852 108.72H58.9313C58.9921 108.736 59.0548 108.743 59.1176 108.742C59.1852 108.742 59.2644 108.717 59.3319 108.705C59.3932 108.697 59.455 108.694 59.5168 108.696C59.5829 108.696 59.6518 108.696 59.7179 108.696C59.7671 108.71 59.8117 108.736 59.847 108.773C59.8837 108.808 59.9189 108.848 59.9556 108.883C60.0359 108.954 60.1246 109.015 60.2198 109.065C60.3151 109.116 60.4707 109.056 60.5617 109.118C60.6241 109.151 60.6901 109.177 60.7583 109.195C60.8258 109.279 60.9946 109.137 61.09 109.204C61.1326 109.235 61.1883 109.222 61.2367 109.132C61.2852 109.043 61.2588 108.997 61.2103 108.975C61.0739 108.912 61.0401 108.828 60.9168 108.752C60.8596 108.717 60.7701 108.74 60.6571 108.685C60.594 108.651 60.572 108.538 60.5103 108.509C60.4223 108.466 60.4032 108.467 60.3856 108.42C60.3592 108.349 60.3621 108.256 60.324 108.222C60.2828 108.184 60.2322 108.157 60.1772 108.145C60.1212 108.141 60.0667 108.125 60.0182 108.097C59.9697 108.068 59.9287 108.029 59.8984 107.982C59.8775 107.933 59.8407 107.893 59.7942 107.869C59.7428 107.848 59.7149 107.789 59.668 107.765C59.6457 107.746 59.6195 107.734 59.5915 107.727C59.5635 107.721 59.5345 107.721 59.5065 107.728C59.4434 107.747 59.4141 107.698 59.3598 107.715C59.3357 107.72 59.3105 107.72 59.2864 107.715C59.2762 107.67 59.2556 107.628 59.2262 107.593C59.2126 107.57 59.1964 107.549 59.1778 107.53C59.1357 107.497 59.0845 107.477 59.0311 107.474C58.979 107.464 58.9275 107.45 58.877 107.434L58.8183 107.415C58.8175 107.409 58.8175 107.402 58.8183 107.396C58.808 107.249 58.7141 107.264 58.6495 107.227C58.6495 107.227 58.6363 107.227 58.626 107.238C58.5219 107.189 58.4234 107.129 58.3325 107.059C58.2796 107.014 58.2305 106.965 58.1858 106.912C58.1403 106.862 58.0904 106.816 58.0478 106.765C58.0082 106.686 57.9671 106.607 57.9304 106.522C57.8849 106.436 57.8213 106.361 57.7441 106.303C57.678 106.24 57.565 106.263 57.4638 106.271C57.4227 106.271 57.3801 106.278 57.3375 106.285C57.2979 106.262 57.2686 106.215 57.2055 106.238C57.1424 106.262 57.0352 106.35 56.978 106.351C56.9208 106.353 56.8885 106.312 56.8313 106.326C56.781 106.345 56.726 106.345 56.6757 106.326C56.6552 106.315 56.639 106.29 56.6185 106.278C56.5979 106.266 56.5612 106.278 56.5363 106.278C56.5113 106.278 56.4585 106.278 56.4218 106.278C56.3802 106.216 56.3309 106.159 56.2751 106.109C56.2238 106.068 56.16 106.047 56.0946 106.048C56.0417 106.048 55.986 106.048 55.9346 106.048C55.8832 106.048 55.8642 106.036 55.8289 106.033C55.7999 106.026 55.7721 106.015 55.7468 105.999C55.716 105.975 55.688 105.947 55.6631 105.917C55.6044 105.858 55.5516 105.788 55.4914 105.735C55.4255 105.689 55.3457 105.667 55.2654 105.672C55.1876 105.672 55.1187 105.634 55.0497 105.623C54.9819 105.613 54.9172 105.588 54.8604 105.55C54.831 105.525 54.7635 105.571 54.7342 105.55C54.7079 105.532 54.6799 105.517 54.6505 105.505C54.5927 105.46 54.5383 105.411 54.4876 105.358C54.4568 105.336 54.4319 105.302 54.3878 105.305C54.3489 105.316 54.3091 105.323 54.269 105.327C54.2182 105.312 54.169 105.292 54.1222 105.267C54.0679 105.24 54.0063 105.255 53.9534 105.227C53.9329 105.215 53.8992 105.227 53.8639 105.29C53.7876 105.394 53.7935 105.425 53.8214 105.44Z" fill="#063844"/>
<path d="M118.934 124.205H73.5155C72.705 124.205 72.048 124.862 72.048 125.673V141.842C72.048 142.652 72.705 143.31 73.5155 143.31H118.934C119.744 143.31 120.401 142.652 120.401 141.842V125.673C120.401 124.862 119.744 124.205 118.934 124.205Z" fill="#F7F4F2"/>
<path d="M120.513 141.937C120.522 139.391 120.598 136.861 120.56 134.328C120.494 130.122 120.619 129.833 120.616 127.431C120.616 127.124 120.616 126.716 120.616 126.257V125.899C120.616 125.78 120.616 125.663 120.616 125.511C120.589 125.221 120.488 124.942 120.322 124.701C120.071 124.342 119.692 124.093 119.263 124.006C119.195 123.992 119.126 123.983 119.057 123.978C118.988 123.978 118.921 123.978 118.868 123.978H117.694C116.542 123.978 114.308 124.082 113.169 124.073H112.729C107.886 124.023 102.897 123.661 98.4414 123.661C95.8673 123.661 93.3417 123.75 90.7868 123.793L83.6693 123.885L75.8093 123.979H74.1524H73.5375C73.4591 123.98 73.3807 123.985 73.3027 123.994C73.1446 124.014 72.99 124.056 72.8434 124.119C72.6972 124.183 72.5601 124.266 72.4354 124.365C72.1887 124.57 72.0034 124.839 71.8998 125.143C71.849 125.295 71.8198 125.453 71.8132 125.613C71.8132 125.696 71.8132 125.759 71.8132 125.828V126.035C71.8132 126.586 71.8103 127.14 71.8044 127.697C71.7878 129.878 71.7721 132.057 71.7574 134.231C71.7476 136.579 71.7374 138.927 71.7266 141.276V141.716C71.7218 141.879 71.7336 142.042 71.7618 142.203C71.8003 142.379 71.8625 142.549 71.9467 142.708C72.035 142.864 72.1452 143.007 72.274 143.132C72.5333 143.384 72.8635 143.552 73.2205 143.612C73.3093 143.627 73.399 143.636 73.4891 143.638H74.1539H77.6759C82.5188 143.638 86.8509 143.409 91.6937 143.42C94.8107 143.42 99.6477 143.512 102.746 143.502C107.078 143.546 109.546 143.414 114.696 143.43C116.957 143.437 118.938 143.4 118.941 143.299C118.944 143.198 117.017 143.17 114.696 143.173C108.048 143.173 104.96 143.138 98.7334 143.126L87.14 143.098C83.9775 143.098 80.8297 143.01 77.6525 143.012H74.9933H74.0438C73.8035 143.021 73.5629 143.015 73.3233 142.994C73.0901 142.957 72.8739 142.85 72.704 142.686C72.5342 142.522 72.4189 142.31 72.3738 142.078C72.3597 142.005 72.3523 141.93 72.3518 141.855C72.3518 141.772 72.3518 141.663 72.3518 141.562C72.4046 139.051 72.4883 137.293 72.4985 135.094C72.5117 132.6 72.5147 130.049 72.4985 127.557C72.4985 126.963 72.4946 126.369 72.4868 125.774V125.663V125.583C72.4896 125.531 72.4969 125.48 72.5088 125.429C72.5298 125.326 72.5679 125.226 72.6218 125.136C72.7314 124.96 72.8922 124.821 73.0826 124.739C73.1775 124.694 73.2791 124.664 73.3834 124.651C73.4093 124.649 73.4353 124.649 73.4612 124.651C73.4876 124.651 73.5111 124.651 73.5522 124.651H73.7767H74.6719H76.4652C78.8544 124.651 81.242 124.663 83.6047 124.698C85.74 124.731 87.9002 124.756 90.0486 124.75C92.4231 124.75 94.7447 124.788 97.1191 124.785C104.107 124.773 112.337 124.415 113.505 124.412C115.173 124.412 116.832 124.436 118.463 124.412C118.633 124.412 118.819 124.412 118.984 124.412C119.143 124.417 119.301 124.451 119.447 124.515C119.675 124.613 119.87 124.776 120.007 124.983C120.145 125.19 120.219 125.432 120.221 125.68V126.236C120.221 126.605 120.221 126.97 120.221 127.311C120.221 129.707 120.233 132.083 120.237 134.488C120.237 137.168 120.284 139.296 120.275 141.946C120.261 142.186 120.185 142.418 120.055 142.62C119.932 142.803 119.771 142.958 119.583 143.073C119.236 143.277 118.932 143.271 118.927 143.32C118.927 143.346 118.968 143.365 119.073 143.377C119.226 143.383 119.379 143.358 119.522 143.305C119.759 143.219 119.969 143.073 120.133 142.882C120.236 142.762 120.322 142.627 120.387 142.482C120.46 142.309 120.502 142.125 120.513 141.937Z" fill="#063844"/>
<path d="M90.7076 137.947C90.7076 137.787 90.7912 137.627 90.7516 137.469C90.6841 137.205 90.8088 137.185 90.8059 137.028C90.8059 136.952 90.8323 136.773 90.8323 136.695C90.8323 136.617 90.7296 136.482 90.7384 136.411C90.7391 136.402 90.7391 136.393 90.7384 136.384C90.7883 136.079 91.1508 135.765 91.1508 135.485C91.1274 135.319 91.083 135.157 91.0187 135.003C90.9805 134.856 90.9526 134.71 90.9262 134.556C90.8998 134.402 90.8617 134.227 90.8338 134.063C90.8198 133.924 90.8198 133.784 90.8338 133.646C90.8485 133.509 90.8675 133.371 90.8807 133.235C90.9086 132.941 90.9204 132.648 90.9218 132.354C90.9233 132.061 90.6914 131.778 90.7032 131.474C90.7032 131.279 90.7956 130.973 90.7853 130.78C90.8294 130.507 90.6973 130.351 90.7134 130.028C90.7134 129.882 90.6841 129.761 90.5828 129.761C90.4816 129.761 90.4522 129.882 90.4551 130.028C90.4551 130.445 90.4214 130.64 90.4096 131.032C90.4096 131.217 90.3818 131.424 90.3818 131.766C90.3818 131.965 90.2922 132.162 90.2952 132.363C90.2952 132.638 90.3084 132.682 90.2746 132.784C90.2116 132.914 90.1625 133.051 90.1279 133.191C90.1125 133.348 90.1125 133.507 90.1279 133.665C90.1741 133.963 90.1682 134.268 90.1103 134.564C90.0751 134.697 90.0578 134.833 90.0589 134.969C90.0589 135.116 90.0207 135.263 90.0251 135.41C90.0369 135.85 90.3935 136.367 90.3964 136.437C90.3818 136.54 90.3818 136.645 90.3964 136.748C90.4155 136.835 90.3964 136.937 90.4111 137.024C90.4214 137.171 90.4258 137.317 90.4273 137.476C90.4287 137.634 90.4683 137.778 90.4683 137.946C90.4683 138.01 90.4933 138.084 90.5711 138.092C90.6929 138.094 90.7076 138.034 90.7076 137.947Z" fill="#063844"/>
<path d="M76.7705 18.1034L79.3122 22.7481L83.9569 25.2884L79.3122 27.8287L76.7705 32.4734L74.2302 27.8287L69.5855 25.2884L74.2302 22.7481L76.7705 18.1034Z" fill="#FFD58E"/>
<path d="M76.7808 18.0975C76.6193 18.1856 76.7646 18.391 76.9642 18.7579C77.3369 19.4428 77.7028 20.1242 78.0619 20.8022L78.5975 21.8294L79.1552 22.9095L79.776 23.272L80.3424 23.6066L81.4739 24.2861L82.6083 24.9758L82.6787 25.0184L82.7125 25.0389L82.7271 25.0492L82.7844 25.0903L82.8871 25.1666C82.9502 25.2136 83.003 25.2561 83.0441 25.2928L82.9311 25.3368C82.8534 25.3647 82.7947 25.3897 82.7404 25.4146L82.6626 25.4542L82.4072 25.601C82.0565 25.7976 81.7146 26.0031 81.38 26.21C80.7064 26.6268 80.0504 27.0524 79.3827 27.4501L79.0892 27.6188C78.9923 27.8023 78.8984 27.9842 78.8045 28.1647L78.5609 28.6197C78.398 28.9132 78.2336 29.2067 78.0648 29.509L77.5453 30.4027L77.2724 30.8635C77.2254 30.9428 77.1799 31.0205 77.1256 31.0998L77.0552 31.2201L77.0376 31.2495L77.0449 31.2583L77.0273 31.2862C76.9451 31.4094 76.8629 31.5342 76.7778 31.6604L76.5724 31.2201C76.4828 31.047 76.3919 30.8738 76.3009 30.7021L76.0176 30.162C75.6361 29.4547 75.2413 28.7547 74.8289 28.0767L74.6983 27.8595L74.5208 27.5454L74.1245 27.3297L73.831 27.1639C73.6403 27.0524 73.4524 26.9394 73.2675 26.8249C72.8992 26.5945 72.5337 26.3597 72.1815 26.1219C71.8293 25.8842 71.4595 25.645 71.0853 25.4073L70.9547 25.3236C70.954 25.3197 70.954 25.3158 70.9547 25.3119C70.9534 25.3096 70.9527 25.3071 70.9527 25.3045C70.9527 25.302 70.9534 25.2994 70.9547 25.2972C70.9571 25.2945 70.96 25.2923 70.9633 25.2908C70.9666 25.2893 70.9702 25.2885 70.9738 25.2884C70.9695 25.2901 70.9648 25.2901 70.9606 25.2884C70.9597 25.284 70.9597 25.2795 70.9606 25.2752L71.0281 25.2326L71.1645 25.149C71.5256 24.9249 71.8851 24.694 72.2432 24.4563L73.3145 23.7446L73.8501 23.3909L74.1172 23.2163L74.1847 23.1722L74.2669 23.1209L74.4679 22.9976C74.5032 22.9257 74.5369 22.8508 74.5721 22.7848L74.647 22.6263C75.2707 21.3055 75.8782 20.0493 76.5768 18.7711C76.7382 18.4776 76.904 18.1841 76.7808 18.121C76.6193 18.033 76.5225 18.2678 76.3229 18.6332C75.9472 19.3215 75.5524 19.9833 75.1489 20.6422L74.5619 21.6284C74.3814 21.9351 74.2009 22.2418 74.0203 22.5515L73.8736 22.6263L73.6549 22.7437L73.2147 22.9859C72.9212 23.1502 72.6365 23.3205 72.3488 23.4995C71.8513 23.8091 71.3641 24.0865 70.8813 24.3345L69.0308 25.3016C69.4402 25.5335 69.8687 25.7741 70.306 26.0089L70.5995 26.1645L70.8373 26.2848C70.9958 26.3656 71.1587 26.4433 71.323 26.5182C72.3254 26.979 72.9373 27.5909 73.831 28.1104L73.9088 28.1559L73.9484 28.2293L74.0497 28.4069L74.2566 28.7547L74.6719 29.4341C74.9663 29.9023 75.2319 30.388 75.4673 30.8885C75.5407 31.047 75.6141 31.2025 75.6948 31.3551L75.8137 31.5811L75.9986 31.9157C76.2598 32.3839 76.5195 32.8271 76.7617 33.2365L77.2504 32.2474L77.4793 31.7836L77.5894 31.5591L77.6642 31.4006C77.8667 30.9765 78.0824 30.5509 78.3334 30.1239C78.5447 29.7643 78.7604 29.4107 78.9776 29.0629L79.3064 28.5448L79.4707 28.288L79.5118 28.2234L79.5324 28.1941L79.5426 28.1809L79.5822 28.1295L79.6512 28.106C79.6723 28.0985 79.6929 28.0896 79.7129 28.0796L79.7892 28.0459L80.093 27.9094L80.6976 27.6364L81.9009 27.0876C82.3001 26.9012 82.6963 26.7119 83.0911 26.5138L83.2833 26.414L83.5768 26.2672L84.1639 25.9547L85.3379 25.3163C84.927 25.0932 84.5087 24.876 84.092 24.6544L83.4712 24.333L83.1777 24.1863L83.0163 24.1129C82.4454 23.8517 81.8745 23.5464 81.2963 23.2412C81.0028 23.0945 80.7093 22.936 80.4158 22.7892L79.9755 22.5749L79.7525 22.4722L79.7055 22.4517H79.6864L79.6483 22.4429L79.6219 22.4194C79.6048 22.4044 79.5904 22.3865 79.5793 22.3666L79.4414 22.1758C78.7069 21.1787 78.027 20.1425 77.4045 19.072L77.2137 18.6567C77.0581 18.325 76.8982 18.03 76.7808 18.0975Z" fill="white"/>
</svg>
