<svg width="165" height="164" viewBox="0 0 165 164" fill="none" xmlns="http://www.w3.org/2000/svg">
<path d="M17.1979 30.6903L23.1707 34.8918L17.1979 30.6903Z" fill="#063844"/>
<path d="M17.2009 30.6858C17.0952 30.8326 17.1774 30.8605 17.286 30.9368C18.3499 31.6852 19.1512 32.9385 20.3267 33.5152C21.2072 33.9423 22.0701 34.3033 22.9095 34.8932C22.9961 34.9549 23.0798 35.0224 23.1605 34.9079C23.2661 34.7612 23.184 34.7333 23.0754 34.657C22.5573 34.2915 22.0349 33.9584 21.6166 33.4829C21.2318 33.028 20.8059 32.6095 20.3443 32.2326C20.1506 32.0859 19.9451 32.0682 19.7573 31.9934C19.4638 31.8775 19.4022 31.5531 19.1527 31.3976C18.6845 31.1173 18.0153 31.1041 17.5384 30.8311C17.5061 30.7944 17.4826 30.7431 17.4489 30.7064C17.3652 30.6389 17.2816 30.5714 17.2009 30.6858Z" fill="#063844"/>
<path d="M20.2209 24.895L27.607 33.0016L20.2209 24.895Z" fill="#063844"/>
<path d="M20.2239 24.8906C20.0874 25.0153 20.1901 25.0858 20.3237 25.2325C21.6445 26.6766 22.616 28.5858 24.0761 29.8831C25.1606 30.8458 26.2422 31.7278 27.2797 32.8681C27.3883 32.9855 27.4896 33.1087 27.5938 33.0148C27.7303 32.8901 27.6275 32.8196 27.494 32.6729C26.8512 31.967 26.207 31.2993 25.6919 30.5098C25.2153 29.7615 24.6928 29.0435 24.1275 28.3598C23.8883 28.0766 23.63 27.9563 23.3937 27.7728C23.0342 27.4793 22.9535 27.0567 22.6482 26.7456C22.0686 26.1688 21.2306 25.8107 20.6436 25.234C20.6025 25.1724 20.5746 25.1005 20.5335 25.0374C20.4308 24.92 20.3281 24.8011 20.2239 24.8906Z" fill="#063844"/>
<path d="M147.602 30.6903L141.631 34.8918L147.602 30.6903Z" fill="#063844"/>
<path d="M147.605 30.6947C147.499 30.5479 147.449 30.6125 147.341 30.6947C146.277 31.4431 144.827 31.7748 143.888 32.6861C143.189 33.3641 142.557 34.0612 141.717 34.6526C141.629 34.7128 141.538 34.7685 141.619 34.883C141.726 35.0297 141.776 34.9652 141.883 34.883C142.402 34.5176 142.893 34.1389 143.487 33.9071C144.048 33.6995 144.588 33.4401 145.101 33.1322C145.31 33.0016 145.395 32.8123 145.524 32.6612C145.731 32.4278 146.064 32.4762 146.29 32.2928C146.711 31.9465 146.946 31.3198 147.366 30.972C147.413 30.9544 147.468 30.9486 147.512 30.9295C147.595 30.8649 147.686 30.8091 147.605 30.6947Z" fill="#063844"/>
<path d="M144.58 24.895L137.194 33.0016L144.58 24.895Z" fill="#063844"/>
<path d="M144.583 24.898C144.447 24.7733 144.387 24.8819 144.253 25.0286C142.932 26.4727 141.127 27.6217 139.971 29.1964C139.112 30.3704 138.334 31.5239 137.297 32.6641C137.188 32.7815 137.075 32.8945 137.18 32.9899C137.316 33.1147 137.376 33.0061 137.511 32.8579C138.153 32.1534 138.759 31.449 139.497 30.8635C140.198 30.3188 140.865 29.7306 141.493 29.1025C141.752 28.8383 141.848 28.5712 142.012 28.3217C142.265 27.9372 142.684 27.8213 142.962 27.4852C143.483 26.8542 143.761 25.9854 144.282 25.3485C144.341 25.3016 144.41 25.2664 144.467 25.2209C144.574 25.1049 144.687 24.9919 144.583 24.898Z" fill="#063844"/>
<path d="M118.659 78.8265H47.307C46.3344 78.8265 45.546 79.6149 45.546 80.5875V134.134C45.546 135.107 46.3344 135.895 47.307 135.895H118.659C119.632 135.895 120.42 135.107 120.42 134.134V80.5875C120.42 79.6149 119.632 78.8265 118.659 78.8265Z" fill="#BADFD8"/>
<path d="M120.469 134.327C120.484 134.134 120.478 133.952 120.479 133.768V133.216V132.111C120.479 131.374 120.479 130.637 120.479 129.901C120.479 128.426 120.483 126.949 120.491 125.47C120.491 122.669 120.478 119.999 120.47 117.196C120.47 115.77 120.479 112.452 120.484 111.033C120.484 109.693 120.484 107.33 120.484 106.006C120.492 103.429 120.456 103.579 120.464 101.002C120.476 98.4017 120.488 95.8159 120.5 93.217C120.5 90.5182 120.51 87.7768 120.514 85.0751C120.514 83.7915 120.517 82.5104 120.522 81.2317V80.7518C120.527 80.5848 120.517 80.4177 120.489 80.2529C120.46 80.0853 120.406 79.9227 120.331 79.77C120.258 79.6153 120.163 79.4724 120.048 79.3459C119.82 79.089 119.527 78.8992 119.199 78.7971C119.035 78.7478 118.866 78.7201 118.695 78.7149C118.529 78.7149 118.373 78.7149 118.21 78.7149L109.903 78.6988L99.9338 78.7237C96.9489 78.7325 94.0388 78.7237 91.0744 78.7134L76.5063 78.5858L67.0569 78.5124L60.7466 78.486H59.2967H54.9191C53.0259 78.486 51.0962 78.4977 49.1693 78.5197L47.7238 78.5373H47.3628C47.307 78.5373 47.2336 78.5373 47.1647 78.5461C47.0951 78.5497 47.0259 78.5585 46.9577 78.5725C46.5467 78.6452 46.1682 78.8432 45.874 79.1392C45.5798 79.4353 45.3843 79.815 45.3141 80.2264C45.2929 80.3589 45.2831 80.4929 45.2848 80.6271V80.9822V81.6925C45.2848 82.1841 45.2848 82.6743 45.2848 83.1703C45.2848 84.0038 45.276 84.8257 45.2716 85.646C45.2642 86.8963 45.2716 88.1173 45.2716 89.3486C45.2774 90.6204 45.2828 91.8923 45.2877 93.1641C45.298 96.174 45.3097 99.1971 45.32 102.176C45.3303 105.155 45.364 108.112 45.386 111.087C45.4007 113.825 45.4168 116.599 45.433 119.373C45.4477 122.434 45.4638 125.463 45.4785 128.521C45.4785 129.814 45.4785 131.091 45.4785 132.369C45.4785 133.009 45.4697 133.643 45.4785 134.293C45.5065 134.625 45.6259 134.942 45.8233 135.21C46.0212 135.481 46.2898 135.691 46.5997 135.819C46.7523 135.88 46.9121 135.921 47.0751 135.941C47.2395 135.957 47.3995 135.954 47.5565 135.956H48.5089H50.4167L54.2161 135.967L70.6025 135.988C76.2319 135.988 81.8642 135.926 87.5039 135.932C91.1316 135.932 94.7315 135.97 98.3386 135.964C103.381 135.986 107.704 135.944 113.699 135.953C115.02 135.953 116.248 135.953 117.155 135.939C117.607 135.939 117.978 135.928 118.237 135.919C118.372 135.924 118.508 135.913 118.64 135.887C118.512 135.862 118.381 135.851 118.25 135.856C117.998 135.847 117.634 135.841 117.185 135.837C116.286 135.826 115.049 135.824 113.699 135.824C105.958 135.824 102.366 135.737 95.1159 135.731L81.6294 135.718L70.5848 135.674C65.5014 135.674 64.6869 135.681 62.7747 135.664C59.8514 135.639 57.8057 135.596 55.2463 135.59H50.8584H48.6571H47.5609H47.2879C47.2122 135.59 47.1366 135.583 47.0619 135.571C46.9121 135.551 46.7667 135.506 46.632 135.438C46.4377 135.341 46.2673 135.203 46.1328 135.033C45.9983 134.863 45.9031 134.665 45.8542 134.454C45.8383 134.384 45.8275 134.312 45.8219 134.24V134.131V134.002V131.921C45.8219 130.531 45.8219 129.14 45.8219 127.749C45.8219 124.968 45.8219 122.189 45.8454 119.437C45.8615 116.953 45.8747 114.437 45.8718 111.937C45.8718 109.173 45.8835 106.464 45.8894 103.707C45.8894 100.919 45.8894 98.2271 45.8688 95.4623C45.8586 93.0511 45.8483 90.5974 45.8395 88.1995C45.8336 87.1233 45.8273 86.0427 45.8204 84.9577C45.8204 84.8932 45.8204 84.8301 45.8204 84.764C45.8278 83.8674 45.8366 82.937 45.8454 81.9977C45.8454 81.5267 45.8454 81.0541 45.8527 80.583C45.8541 80.2617 45.9632 79.9501 46.1624 79.6979C46.3616 79.4458 46.6396 79.2676 46.9519 79.1918C47.0128 79.1769 47.0745 79.1657 47.1368 79.1581C47.2028 79.1581 47.2571 79.1507 47.3334 79.1507H47.7986L49.6727 79.1581C52.1748 79.1581 53.0612 79.1581 55.3622 79.1434L60.0891 79.1199C61.3101 79.1126 62.5193 79.1317 63.8475 79.1199L70.8916 79.0421H74.575L80.3175 79.0598L92.5375 79.1009C96.4661 79.1111 100.408 79.1008 104.289 79.0774L115.322 79.0495L117.912 79.0421H118.563C118.618 79.0421 118.67 79.0421 118.709 79.0421C118.758 79.0429 118.807 79.0468 118.856 79.0539C118.95 79.0667 119.042 79.0878 119.132 79.117C119.497 79.2363 119.804 79.4882 119.992 79.8229C120.085 79.9888 120.146 80.1704 120.174 80.3585C120.182 80.407 120.187 80.4561 120.187 80.5053C120.187 80.5522 120.187 80.6007 120.187 80.652V84.8844L120.214 90.7794V95.7205C120.214 99.3453 120.25 102.765 120.244 106.389C120.244 108.33 120.233 110.262 120.244 112.161C120.253 113.768 120.315 115.658 120.321 117.27C120.321 120.058 120.321 122.824 120.328 125.624C120.328 127.186 120.328 128.583 120.34 129.977C120.34 130.674 120.34 131.371 120.34 132.087C120.34 132.445 120.34 132.808 120.34 133.178V133.74C120.34 133.927 120.34 134.123 120.331 134.308C120.299 134.587 120.201 134.854 120.045 135.087C119.889 135.32 119.679 135.512 119.433 135.647C119.26 135.743 119.072 135.809 118.877 135.843C118.796 135.851 118.716 135.865 118.637 135.887C118.63 135.9 118.686 135.907 118.8 135.91C118.973 135.904 119.143 135.869 119.304 135.807C119.567 135.708 119.803 135.546 119.99 135.336C120.252 135.058 120.419 134.705 120.469 134.327Z" fill="#063844"/>
<path d="M126.587 59.0795H39.3795C38.4069 59.0795 37.6185 59.868 37.6185 60.8406V126.473C37.6185 127.445 38.4069 128.234 39.3795 128.234H126.587C127.56 128.234 128.348 127.445 128.348 126.473V60.8406C128.348 59.868 127.56 59.0795 126.587 59.0795Z" fill="#BADFD8"/>
<path d="M128.407 126.107C128.414 122.528 128.42 118.956 128.427 115.36C128.427 111.96 128.414 108.718 128.407 105.314C128.407 103.582 128.417 99.5538 128.42 97.8294C128.42 96.2034 128.42 93.3359 128.42 91.726C128.429 88.5987 128.392 88.7807 128.401 85.6504C128.413 82.4923 128.424 79.3548 128.436 76.1981C128.436 72.9226 128.446 69.5943 128.451 66.3129C128.451 64.7544 128.451 63.1988 128.451 61.6462V61.0592C128.459 60.8568 128.446 60.6541 128.411 60.4545C128.323 60.0468 128.103 59.6792 127.786 59.4082C127.466 59.1389 127.065 58.984 126.647 58.9679C126.249 58.9606 125.866 58.9679 125.473 58.9679L115.385 58.9518L103.28 58.9768C99.6565 58.9856 96.1227 58.9768 92.5243 58.9679L74.8348 58.8403L63.3456 58.7684L55.6939 58.7405H53.9329H48.6175C46.3179 58.7405 43.9758 58.7522 41.6351 58.7742L39.8814 58.7918H39.4411C39.3736 58.7918 39.2841 58.7918 39.2005 58.8021C39.1168 58.8124 39.0317 58.8256 38.9495 58.8388C38.6185 58.9123 38.3106 59.066 38.0529 59.2864C37.7981 59.5062 37.6015 59.7854 37.4805 60.0994C37.4202 60.2551 37.3798 60.4178 37.3602 60.5837C37.3509 60.666 37.346 60.7488 37.3455 60.8317V61.0489C37.3455 61.6271 37.3455 62.2024 37.3558 62.7762C37.3661 63.35 37.3558 63.9693 37.3558 64.5709C37.3558 65.5835 37.347 66.58 37.3426 67.5764C37.3352 69.0953 37.3426 70.5775 37.3426 72.0729C37.3484 73.6138 37.3538 75.1562 37.3587 76.7C37.369 80.3542 37.3807 84.0259 37.391 87.6419C37.4013 91.2579 37.435 94.8503 37.457 98.4619C37.4717 101.787 37.4879 105.155 37.504 108.522C37.5187 112.239 37.5348 115.917 37.5495 119.631C37.5495 121.201 37.5495 122.751 37.5495 124.302V126.06C37.5495 126.255 37.5495 126.445 37.5568 126.647C37.5954 127.052 37.7683 127.432 38.0481 127.727C38.328 128.022 38.6985 128.215 39.1007 128.275C39.2956 128.296 39.4917 128.303 39.6877 128.297H40.2791H41.4355H43.7468L48.3607 128.308L68.2559 128.329C75.0916 128.329 81.9317 128.267 88.7777 128.273L101.933 128.307C108.055 128.329 113.304 128.286 120.583 128.294C122.181 128.294 123.68 128.294 124.78 128.282C125.331 128.282 125.78 128.27 126.094 128.261C126.258 128.266 126.422 128.255 126.584 128.229C126.428 128.202 126.269 128.191 126.11 128.197C125.803 128.19 125.362 128.182 124.816 128.178C123.725 128.168 122.224 128.165 120.583 128.165C111.191 128.165 106.822 128.079 98.0216 128.074L81.6456 128.059L68.2339 128.016C62.0703 128.016 61.0739 128.016 58.7508 128.006C55.2023 127.98 52.7178 127.937 49.6096 127.931H44.2825H39.3751H39.3061C39.2599 127.931 39.2137 127.926 39.1682 127.918C39.1232 127.913 39.0786 127.904 39.0346 127.893C38.6909 127.812 38.3887 127.608 38.1849 127.319C38.0833 127.177 38.0078 127.017 37.9619 126.848C37.9388 126.764 37.9235 126.677 37.9164 126.59V126.455V126.296C37.9164 125.455 37.9164 124.613 37.9164 123.769C37.9164 122.083 37.9164 120.395 37.9164 118.705C37.9164 115.33 37.9164 111.954 37.9399 108.611C37.956 105.594 37.9692 102.542 37.9663 99.5039C37.9663 96.1491 37.978 92.8589 37.9839 89.51C37.9839 86.1347 37.9839 82.8577 37.9633 79.5001C37.9531 76.5738 37.9428 73.5933 37.934 70.6832C37.9271 69.3771 37.9208 68.0646 37.9149 66.7458C37.9149 66.6666 37.9149 66.5903 37.9149 66.511C37.9149 65.4221 37.931 64.2921 37.9399 63.1504C37.9399 62.581 37.9399 62.0072 37.9472 61.4334V61.0034V60.9021C37.9455 60.8694 37.9455 60.8366 37.9472 60.8038C37.9481 60.7453 37.9535 60.6869 37.9633 60.6292C37.998 60.397 38.0909 60.1774 38.2334 59.9908C38.4168 59.745 38.6738 59.564 38.9671 59.4742C39.117 59.4321 39.2722 59.4118 39.4279 59.4141H39.9929H42.2676C45.3068 59.4141 46.3766 59.4141 49.1767 59.3979L54.9147 59.3744H59.4787L68.0358 59.2981H72.5088L79.481 59.3143L94.3191 59.3568C99.0885 59.3656 103.876 59.3495 108.588 59.3319L121.985 59.304H125.13H126.313C126.44 59.304 126.585 59.304 126.693 59.304C126.923 59.3181 127.148 59.3842 127.349 59.4973C127.551 59.6104 127.724 59.7676 127.856 59.9571C127.99 60.1457 128.078 60.3627 128.115 60.591C128.138 60.8417 128.145 61.0937 128.137 61.3453V62.9273C128.137 63.981 128.137 65.0347 128.137 66.0884C128.145 68.4746 128.154 70.8612 128.163 73.2484V79.2462C128.173 83.6487 128.184 87.8018 128.194 92.2C128.194 94.5554 128.182 96.8961 128.194 99.2074C128.203 101.159 128.264 103.454 128.27 105.411C128.27 108.798 128.27 112.161 128.278 115.556C128.286 119.346 128.292 122.341 128.3 126.106C128.3 126.286 128.3 126.475 128.291 126.65C128.27 126.826 128.224 126.999 128.156 127.162C128.024 127.461 127.812 127.717 127.544 127.903C127.344 128.037 127.12 128.131 126.885 128.179L126.767 128.203L126.678 128.213C126.65 128.215 126.622 128.221 126.596 128.231C126.587 128.244 126.654 128.253 126.794 128.251C127.003 128.236 127.207 128.182 127.396 128.091C127.705 127.944 127.965 127.711 128.144 127.419C128.258 127.235 128.337 127.032 128.379 126.82C128.388 126.765 128.398 126.706 128.404 126.647C128.41 126.588 128.404 126.53 128.414 126.468L128.407 126.107Z" fill="#063844"/>
<path d="M135.432 36.9096H30.5348C29.5622 36.9096 28.7737 37.698 28.7737 38.6706V117.786C28.7737 118.759 29.5622 119.547 30.5348 119.547H135.432C136.404 119.547 137.193 118.759 137.193 117.786V38.6706C137.193 37.698 136.404 36.9096 135.432 36.9096Z" fill="#F7F4F2"/>
<path d="M137.307 116.803C137.322 112.519 137.337 108.244 137.351 103.942C137.351 99.8722 137.312 95.9921 137.307 91.9182C137.315 89.8461 137.328 85.0209 137.334 82.9517C137.334 81.0057 137.334 77.5732 137.334 75.6478C137.351 71.9042 137.279 72.1258 137.296 68.3762C137.319 64.5959 137.344 60.8405 137.367 57.0631C137.391 53.1419 137.388 49.1576 137.395 45.2319C137.395 43.3653 137.4 41.5035 137.41 39.6466V38.7749C137.41 38.7161 137.41 38.6589 137.41 38.5914C137.406 38.4603 137.388 38.33 137.357 38.2025C137.264 37.8168 137.057 37.4677 136.764 37.2C136.471 36.9323 136.105 36.7581 135.712 36.6998C135.649 36.6917 135.585 36.6878 135.521 36.688C135.454 36.688 135.394 36.688 135.338 36.688H134.989H133.592C129.56 36.6748 125.558 36.6484 121.518 36.6557L107.029 36.7056C102.694 36.7233 98.4649 36.713 94.1563 36.6866C87.0388 36.6161 80.0049 36.5251 72.9858 36.4312C68.4365 36.371 63.8651 36.327 59.2366 36.2845C56.2091 36.258 53.1449 36.2346 50.0778 36.2287H47.9689L41.6072 36.2419C38.8556 36.2302 36.0512 36.2669 33.2512 36.3109L31.1511 36.3461L30.6272 36.3549C30.5509 36.3549 30.4232 36.3549 30.3102 36.3696C30.1959 36.383 30.0826 36.4046 29.9712 36.4342C29.748 36.4918 29.5351 36.5839 29.3402 36.7071C29.1443 36.8252 28.9684 36.9738 28.8192 37.1474C28.5167 37.4907 28.3244 37.9172 28.2675 38.3713C28.2532 38.4812 28.2468 38.5921 28.2484 38.7029V38.9627L28.2557 39.4822C28.2626 40.1749 28.2704 40.8641 28.2792 41.5499C28.2792 42.2632 28.2792 42.9778 28.2704 43.6984C28.2616 44.9106 28.2528 46.1022 28.244 47.2953C28.2322 49.1135 28.244 50.8863 28.2542 52.6767C28.264 54.5219 28.2748 56.3675 28.2865 58.2136C28.3027 62.5883 28.3159 66.9821 28.3511 71.3098C28.3863 75.6375 28.4392 79.9374 28.4832 84.2592C28.514 88.2406 28.5448 92.2704 28.5756 96.3003C28.6065 100.75 28.6373 105.151 28.6681 109.596C28.6681 111.474 28.6681 113.329 28.6681 115.186C28.6681 115.651 28.6681 116.115 28.6681 116.58V117.801L28.6769 117.986C28.7007 118.233 28.7737 118.473 28.8917 118.691C29.0096 118.91 29.1701 119.103 29.3637 119.258C29.5582 119.414 29.7817 119.53 30.0211 119.599C30.2606 119.66 30.5079 119.686 30.7549 119.673L41.8112 119.72C49.7667 119.748 57.6751 119.759 65.6232 119.762C73.8032 119.762 81.9905 119.638 90.1837 119.649C95.4565 119.649 100.688 119.726 105.929 119.716C113.256 119.76 119.539 119.675 128.25 119.691C130.158 119.691 131.957 119.691 133.273 119.666C134.589 119.641 135.429 119.61 135.432 119.56C135.435 119.511 134.62 119.477 133.316 119.458C132.011 119.439 130.213 119.431 128.25 119.433C117.003 119.433 111.781 119.26 101.247 119.249L81.6486 119.207C76.2965 119.207 70.9782 119.117 65.5983 119.119C58.2122 119.119 57.028 119.133 54.2485 119.1C50.0015 119.048 47.0268 118.963 43.3081 118.953C39.089 118.94 34.7744 118.937 30.5568 118.953C30.3883 118.956 30.221 118.924 30.0663 118.857C29.9115 118.79 29.773 118.691 29.6601 118.565C29.5506 118.441 29.4686 118.294 29.4195 118.136C29.4107 118.094 29.396 118.055 29.3886 118.014C29.3813 117.973 29.3725 117.932 29.371 117.889V117.826C29.3693 117.8 29.3693 117.775 29.371 117.75V117.56L29.3622 114.536C29.3622 112.516 29.3588 110.496 29.352 108.473C29.352 104.43 29.3652 100.392 29.4004 96.3942C29.4312 92.7826 29.4576 89.1285 29.4517 85.4934C29.4635 81.4783 29.4738 77.5409 29.4855 73.5331C29.4855 69.4901 29.4972 65.5718 29.4444 61.5523C29.3989 58.0493 29.4283 54.4832 29.3857 50.9993C29.3671 49.434 29.3549 47.8637 29.349 46.2886C29.349 46.1932 29.349 46.1022 29.349 46.0068C29.371 44.7036 29.3857 43.3521 29.3989 41.9858C29.3989 41.3019 29.4092 40.6151 29.4151 39.9313C29.4151 39.5879 29.4175 39.2454 29.4224 38.904V38.6575C29.4233 38.6033 29.4287 38.5493 29.4385 38.496C29.4564 38.3892 29.4906 38.2858 29.5398 38.1893C29.6686 37.9349 29.8896 37.7392 30.1576 37.6419C30.1902 37.6294 30.2235 37.6192 30.2574 37.6111C30.2915 37.6014 30.3264 37.5946 30.3616 37.5906C30.396 37.5842 30.4308 37.5807 30.4658 37.5803C30.5069 37.5803 30.5245 37.5803 30.5905 37.5803H31.2685L33.9908 37.595C37.6273 37.6096 38.9158 37.595 42.2603 37.5656L49.1268 37.5187C50.9025 37.504 52.6591 37.5421 54.5904 37.5187C58.0244 37.4849 61.3997 37.4027 64.8308 37.3719H70.1828L78.5286 37.4057L96.2856 37.4893C101.993 37.5084 107.722 37.4746 113.363 37.4409L129.396 37.3836L133.16 37.3704H135.047H135.284C135.361 37.3704 135.448 37.3704 135.499 37.3704C135.617 37.3742 135.735 37.3945 135.847 37.4306C136.074 37.5039 136.277 37.6373 136.434 37.8166C136.592 37.9942 136.698 38.2121 136.741 38.4461C136.767 38.7335 136.775 39.0221 136.766 39.3105V41.2036V44.9869C136.766 47.8427 136.829 50.7014 136.82 53.5557C136.82 55.9468 136.82 58.3399 136.82 60.7349C136.82 66.0033 136.895 70.9752 136.883 76.2392C136.876 79.0583 136.86 81.8672 136.883 84.6276C136.902 86.9624 137.03 89.7096 137.03 92.0503C137.03 96.1036 137.04 100.122 137.046 104.191C137.061 108.729 137.072 112.314 137.089 116.812C137.089 117.03 137.089 117.252 137.089 117.472C137.089 117.582 137.089 117.692 137.089 117.802V117.949C137.089 118.001 137.075 118.05 137.068 118.096C136.999 118.47 136.807 118.81 136.524 119.063C136.312 119.249 136.061 119.384 135.79 119.458C135.674 119.475 135.56 119.503 135.449 119.543C135.439 119.568 135.52 119.591 135.69 119.588C135.949 119.577 136.202 119.501 136.424 119.367C136.79 119.154 137.07 118.819 137.215 118.422C137.259 118.301 137.29 118.176 137.309 118.049C137.327 117.916 137.334 117.782 137.331 117.648L137.307 116.803Z" fill="#063844"/>
<path d="M58.654 54.5919C58.1268 54.6068 57.6045 54.4887 57.1351 54.2485C56.728 54.0322 56.3925 53.7023 56.1694 53.299C55.9403 52.8706 55.8251 52.3905 55.8348 51.9048C55.8246 51.4145 55.9366 50.9293 56.1606 50.4931C56.3752 50.088 56.7044 49.7551 57.1072 49.5362C57.5702 49.2941 58.0877 49.1754 58.6099 49.1914C58.956 49.1894 59.301 49.2298 59.6372 49.3117C59.914 49.3758 60.1843 49.4657 60.4443 49.5803L60.3387 50.9583C60.0617 50.7945 59.7661 50.6644 59.4582 50.5708C59.2201 50.4983 58.9732 50.4588 58.7244 50.4534C58.4891 50.4501 58.2567 50.505 58.0479 50.6134C57.8411 50.7228 57.6711 50.8907 57.5592 51.0962C57.431 51.347 57.3688 51.6263 57.3787 51.9077C57.3733 52.1644 57.4234 52.4192 57.5254 52.6547C57.6231 52.8783 57.7844 53.0681 57.9892 53.2006C58.2253 53.3453 58.499 53.4167 58.7758 53.4061C58.8917 53.4061 59.0032 53.4061 59.1074 53.3958V51.7551H60.5309V54.3262C60.383 54.3815 60.2302 54.4228 60.0745 54.4495C59.8764 54.4891 59.6548 54.5214 59.4083 54.5464C59.1578 54.5744 58.906 54.5896 58.654 54.5919Z" fill="#063844"/>
<path d="M62.0908 54.5772C61.9544 54.5859 61.8177 54.564 61.6908 54.5132C61.5639 54.4625 61.4499 54.384 61.357 54.2837C61.219 54.1059 61.1324 53.8938 61.1065 53.6702C61.0807 53.4467 61.1165 53.2203 61.2103 53.0158C61.281 52.8823 61.3814 52.7668 61.5038 52.6782C61.617 52.5937 61.7428 52.5273 61.8765 52.4816C61.995 52.4394 62.1167 52.407 62.2405 52.3847L63.212 52.2218C63.2237 51.9665 63.0055 51.8388 62.5575 51.8388C62.3625 51.8428 62.1686 51.8684 61.9793 51.9151C61.7524 51.9695 61.5323 52.0492 61.3233 52.1529L61.266 51.0214C61.448 50.9617 61.6843 50.8991 61.9748 50.8336C62.2928 50.7667 62.6171 50.7347 62.9419 50.7382C63.4096 50.7382 63.775 50.8414 64.0382 51.0478C64.3023 51.2562 64.4329 51.5923 64.4329 52.0575V54.4877H63.3132L63.2222 53.9784H63.1313C63.0286 54.144 62.8933 54.2868 62.7336 54.3982C62.5437 54.5245 62.3186 54.5872 62.0908 54.5772ZM62.691 53.5499C62.7858 53.548 62.8774 53.5156 62.9522 53.4575C63.0411 53.3916 63.1156 53.3082 63.1709 53.2124V52.6768C63.128 52.7155 63.0782 52.7459 63.0241 52.7663C62.9194 52.8047 62.8126 52.837 62.7042 52.8631C62.6164 52.8841 62.5358 52.9282 62.4709 52.9908C62.4385 53.0237 62.4135 53.0631 62.3973 53.1063C62.3811 53.1495 62.3742 53.1957 62.3769 53.2418C62.3724 53.2864 62.379 53.3315 62.3962 53.373C62.4133 53.4145 62.4405 53.4511 62.4753 53.4795C62.5383 53.5238 62.614 53.5464 62.691 53.5441V53.5499Z" fill="#063844"/>
<path d="M66.3672 54.5919C66.0985 54.5954 65.8301 54.5723 65.5659 54.5229C65.368 54.4874 65.1746 54.4303 64.9892 54.3527L65.0684 53.2506C65.2418 53.3616 65.4307 53.4462 65.629 53.5015C65.8246 53.5613 66.0277 53.5929 66.2322 53.5954C66.3327 53.6004 66.4331 53.5823 66.5257 53.5426C66.5621 53.5248 66.5921 53.4963 66.6118 53.4609C66.6315 53.4254 66.6398 53.3848 66.6357 53.3445C66.6342 53.3014 66.6193 53.2598 66.5929 53.2256C66.5666 53.1914 66.5303 53.1662 66.489 53.1537C66.3214 53.0894 66.1492 53.0379 65.9739 52.9996C65.6913 52.945 65.4293 52.8135 65.2166 52.6195C65.0506 52.4294 64.9658 52.1818 64.9804 51.9298C64.9722 51.7662 65.0012 51.6029 65.0653 51.4522C65.1293 51.3015 65.2267 51.1672 65.3502 51.0596C65.5967 50.8497 65.9372 50.7441 66.3892 50.7441C66.6637 50.7422 66.9377 50.7692 67.2066 50.8248C67.4066 50.8641 67.6029 50.92 67.7936 50.9921L67.7114 52.1088C67.5975 52.0348 67.4754 51.9742 67.3475 51.9283C67.2259 51.8842 67.1013 51.8489 66.9747 51.8227C66.882 51.8032 66.7877 51.7919 66.693 51.7889C66.612 51.7858 66.5318 51.8051 66.4611 51.8447C66.4324 51.8631 66.4091 51.8889 66.3936 51.9193C66.3781 51.9498 66.371 51.9838 66.373 52.0179C66.3724 52.0554 66.3807 52.0926 66.3973 52.1263C66.4139 52.1599 66.4383 52.1892 66.4684 52.2116C66.5938 52.2895 66.7327 52.3432 66.8779 52.3701C67.1948 52.4319 67.495 52.5604 67.7584 52.7472C67.847 52.8286 67.9161 52.9289 67.9606 53.0407C68.005 53.1525 68.0237 53.2729 68.0152 53.3929C68.0206 53.5575 67.9887 53.7211 67.9219 53.8716C67.855 54.0221 67.755 54.1554 67.6292 54.2617C67.368 54.4818 66.9473 54.5919 66.3672 54.5919Z" fill="#063844"/>
<path d="M70.1065 54.5918C69.7514 54.6121 69.3996 54.5146 69.1056 54.3145C68.863 54.1286 68.7417 53.8052 68.7417 53.3444V51.849H68.2104V50.8423H68.749V49.6609L70.0874 49.4305V50.8423H71.0662V51.849H70.0874V52.8866C70.078 53.0437 70.1115 53.2004 70.1843 53.34C70.2211 53.3939 70.2717 53.4369 70.3308 53.4646C70.3899 53.4922 70.4554 53.5034 70.5203 53.497C70.5981 53.4951 70.6751 53.4823 70.7493 53.4589C70.8414 53.4304 70.9285 53.3879 71.0075 53.3327L71.0765 54.4128C70.9423 54.4811 70.7974 54.5258 70.648 54.5449C70.4691 54.5752 70.288 54.5909 70.1065 54.5918Z" fill="#063844"/>
<path d="M73.404 54.5919C73.0063 54.6088 72.6116 54.5153 72.2637 54.3218C71.9812 54.1539 71.7545 53.9063 71.6122 53.6101C71.4705 53.3137 71.3983 52.989 71.4008 52.6606C71.3949 52.3216 71.4699 51.986 71.6195 51.6818C71.7647 51.3917 71.9931 51.1516 72.2755 50.992C72.6128 50.8113 72.9922 50.7237 73.3746 50.7382C73.7648 50.7231 74.152 50.8112 74.4973 50.9935C74.7807 51.153 75.0094 51.3945 75.1533 51.6862C75.2993 51.99 75.3726 52.3236 75.3675 52.6606C75.3734 53.0045 75.2964 53.3448 75.143 53.6527C74.9945 53.9419 74.7644 54.1812 74.4812 54.3409C74.1504 54.5179 73.7789 54.6045 73.404 54.5919ZM73.404 53.5015C73.4941 53.5052 73.5833 53.4832 73.6613 53.4379C73.7393 53.3927 73.8027 53.3262 73.8442 53.2462C73.9436 53.0667 73.9942 52.8643 73.991 52.6591C74.0051 52.441 73.9468 52.2244 73.8252 52.0428C73.7762 51.9758 73.7118 51.9215 73.6375 51.8845C73.5632 51.8474 73.4811 51.8288 73.3981 51.83C73.3083 51.8263 73.2191 51.8464 73.1396 51.8881C73.06 51.9299 72.9927 51.9918 72.9447 52.0677C72.8357 52.2437 72.781 52.4479 72.7876 52.6547C72.7834 52.8613 72.8378 53.0649 72.9447 53.2417C72.9907 53.3215 73.0574 53.3873 73.1377 53.4323C73.218 53.4772 73.309 53.4996 73.4011 53.4971L73.404 53.5015Z" fill="#063844"/>
<path d="M75.9105 54.4833V50.8424L77.0405 50.7807L77.0992 51.3883H77.2092C77.3373 51.203 77.5003 51.0445 77.6891 50.9216C77.8969 50.7919 78.1384 50.7265 78.3832 50.7338C78.5348 50.7242 78.6866 50.7479 78.8281 50.8031C78.9695 50.8584 79.0972 50.9439 79.2021 51.0537C79.3929 51.266 79.4883 51.5869 79.4883 52.0164V54.4833H78.1323V52.4757C78.1406 52.3431 78.1143 52.2106 78.056 52.0912C78.0262 52.0465 77.9847 52.0108 77.9361 51.9881C77.8874 51.9653 77.8335 51.9563 77.7801 51.9621C77.6741 51.9603 77.5707 51.9945 77.4866 52.0589C77.4004 52.1246 77.3256 52.2039 77.265 52.2937V54.4833H75.9105Z" fill="#063844"/>
<path d="M81.5913 54.4832V49.2969H85.1618V50.493H83.0603V51.3324H85.0634V52.4198H83.0603V53.2857H85.2014V54.4832H81.5913Z" fill="#063844"/>
<path d="M85.6254 54.4833C85.712 54.313 85.7898 54.1648 85.8558 54.043C85.9219 53.9212 85.9865 53.795 86.0452 53.6805L86.2359 53.3181L86.6102 52.6004L86.2286 51.9459L85.9351 51.4323L85.599 50.8453L87.1047 50.8057L87.2603 51.1813C87.3102 51.2988 87.3586 51.422 87.407 51.5512L87.6037 52.0193H87.6976L87.884 51.5585C87.9324 51.4294 87.9779 51.312 88.0204 51.2034L88.1599 50.8453H89.6876L89.441 51.2547C89.3706 51.3707 89.3031 51.4793 89.2385 51.5834C89.1739 51.6876 89.1035 51.8036 89.0257 51.9298L88.5854 52.6459L89.0037 53.3269L89.3295 53.8552L89.7169 54.4833H88.1026L87.9735 54.1516C87.9339 54.0504 87.8884 53.9403 87.837 53.8185L87.633 53.3093H87.5494L87.3718 53.7891C87.3234 53.9183 87.2793 54.0327 87.2427 54.1325C87.206 54.2323 87.1619 54.3512 87.1135 54.4847L85.6254 54.4833Z" fill="#063844"/>
<path d="M89.7846 55.9126V50.8423L90.9758 50.7807L91.0153 51.2899H91.1205C91.2171 51.1129 91.3614 50.9667 91.537 50.8683C91.7126 50.77 91.9122 50.7233 92.113 50.7337C92.3968 50.7237 92.6752 50.8141 92.8994 50.9891C93.1173 51.1719 93.2807 51.4116 93.3715 51.6818C93.5795 52.3057 93.5821 52.9802 93.3788 53.6057C93.2914 53.8803 93.1319 54.1262 92.9169 54.3174C92.6947 54.5028 92.4119 54.599 92.1232 54.5874C91.9381 54.593 91.7547 54.55 91.5912 54.4627C91.4414 54.3771 91.311 54.2612 91.2082 54.1222H91.1337V55.8833L89.7846 55.9126ZM91.5839 53.4442C91.6697 53.4478 91.7547 53.4271 91.8294 53.3846C91.9041 53.3421 91.9654 53.2793 92.0063 53.2036C92.0979 53.0374 92.146 52.8505 92.146 52.6606C92.146 52.4706 92.0979 52.2838 92.0063 52.1176C91.9631 52.0442 91.9009 51.984 91.8262 51.9434C91.7515 51.9028 91.6673 51.8834 91.5824 51.8872C91.4969 51.8856 91.4123 51.9049 91.3359 51.9435C91.2594 51.9821 91.1936 52.0389 91.1439 52.1088V53.1361C91.1833 53.2216 91.2431 53.2962 91.3179 53.3533C91.3938 53.4135 91.4871 53.4475 91.5839 53.4501V53.4442Z" fill="#063844"/>
<path d="M94.0761 54.4832V50.8423L95.203 50.7807L95.2615 51.4058H95.3726C95.4654 51.1824 95.6247 50.9933 95.8286 50.8643C95.9787 50.7812 96.1469 50.7363 96.3183 50.7337C96.3755 50.7346 96.4326 50.739 96.4893 50.7469C96.5578 50.7563 96.6247 50.7751 96.6881 50.8027L96.5711 52.1117L96.2978 52.1044C96.2174 52.1044 96.1341 52.1044 96.0493 52.1044C95.924 52.1026 95.8002 52.1313 95.6883 52.188C95.5683 52.2569 95.477 52.3668 95.4311 52.4977V54.4876L94.0761 54.4832Z" fill="#063844"/>
<path d="M98.9478 54.5919C98.5371 54.6085 98.1285 54.5239 97.758 54.3453C97.4672 54.196 97.2319 53.9568 97.087 53.6629C96.9386 53.3502 96.865 53.007 96.8722 52.6606C96.866 52.3178 96.9327 51.9775 97.068 51.6627C97.1922 51.3798 97.4005 51.1425 97.6644 50.9832C97.9714 50.8092 98.3207 50.7243 98.673 50.7382C99.1904 50.7382 99.5909 50.8702 99.8774 51.1359C100.164 51.4015 100.307 51.8168 100.307 52.3818C100.307 52.483 100.307 52.5726 100.297 52.6489C100.287 52.7252 100.282 52.7956 100.271 52.8763H98.1775C98.1897 52.9674 98.2206 53.0549 98.2682 53.1335C98.3157 53.212 98.3789 53.2798 98.4537 53.3327C98.6545 53.4514 98.8863 53.5066 99.1188 53.4912C99.2904 53.4863 99.4612 53.4652 99.6289 53.4281C99.828 53.3916 100.022 53.3294 100.205 53.2432L100.249 54.3673C100.074 54.437 99.8936 54.4901 99.7093 54.5258C99.4582 54.5729 99.2032 54.595 98.9478 54.5919ZM98.6876 51.6363C98.6231 51.6363 98.5593 51.6507 98.501 51.6784C98.4426 51.706 98.391 51.7463 98.3499 51.7962C98.243 51.9295 98.181 52.0934 98.1731 52.2644L99.1363 52.2365C99.1384 52.079 99.0908 51.9249 99.0004 51.7962C98.9655 51.7454 98.9187 51.7038 98.8642 51.6752C98.8097 51.6466 98.7491 51.6317 98.6876 51.6319V51.6363Z" fill="#063844"/>
<path d="M102.133 54.5918C101.865 54.5953 101.597 54.5722 101.333 54.5228C101.136 54.487 100.944 54.4299 100.759 54.3526L100.839 53.2505C101.012 53.362 101.2 53.4467 101.398 53.5014C101.592 53.5612 101.795 53.5928 101.998 53.5953C102.098 53.6001 102.198 53.5821 102.291 53.5425C102.327 53.5243 102.356 53.4957 102.375 53.4603C102.395 53.4249 102.403 53.3845 102.399 53.3444C102.397 53.3013 102.382 53.2597 102.356 53.2255C102.33 53.1913 102.294 53.1662 102.253 53.1536C102.086 53.089 101.915 53.0375 101.741 52.9995C101.459 52.9456 101.198 52.814 100.987 52.6195C100.821 52.4293 100.737 52.1817 100.752 51.9297C100.743 51.7661 100.772 51.6029 100.836 51.4521C100.9 51.3014 100.997 51.1671 101.12 51.0595C101.364 50.8501 101.709 50.745 102.153 50.744C102.427 50.7422 102.701 50.7692 102.969 50.8247C103.168 50.8642 103.364 50.9201 103.554 50.992L103.47 52.1088C103.357 52.0341 103.235 51.9735 103.108 51.9283C102.987 51.884 102.863 51.8486 102.736 51.8226C102.644 51.8032 102.55 51.7919 102.456 51.7888C102.376 51.7856 102.296 51.8049 102.226 51.8446C102.197 51.8628 102.174 51.8884 102.158 51.9189C102.142 51.9494 102.135 51.9835 102.137 52.0178C102.137 52.0554 102.145 52.0926 102.162 52.1263C102.179 52.16 102.203 52.1892 102.234 52.2115C102.358 52.2896 102.497 52.3434 102.641 52.37C102.957 52.4324 103.256 52.5609 103.518 52.7471C103.607 52.8286 103.675 52.929 103.719 53.0408C103.763 53.1526 103.782 53.2729 103.773 53.3928C103.778 53.5573 103.747 53.7209 103.681 53.8714C103.614 54.0218 103.515 54.1552 103.39 54.2616C103.128 54.4817 102.709 54.5918 102.133 54.5918Z" fill="#063844"/>
<path d="M105.522 54.5919C105.255 54.5954 104.987 54.5723 104.724 54.5229C104.527 54.4874 104.335 54.4303 104.15 54.3527L104.229 53.2506C104.402 53.3616 104.59 53.4462 104.787 53.5015C104.982 53.5613 105.184 53.5929 105.388 53.5954C105.488 53.6004 105.588 53.5823 105.68 53.5426C105.717 53.5248 105.746 53.4963 105.766 53.4608C105.786 53.4254 105.794 53.3848 105.79 53.3445C105.788 53.3014 105.774 53.2598 105.747 53.2256C105.721 53.1914 105.685 53.1662 105.644 53.1537C105.477 53.0892 105.305 53.0377 105.131 52.9996C104.85 52.9454 104.589 52.8138 104.378 52.6195C104.212 52.4297 104.127 52.1819 104.143 51.9298C104.134 51.7663 104.163 51.6031 104.226 51.4523C104.29 51.3016 104.387 51.1673 104.509 51.0596C104.755 50.8502 105.1 50.745 105.544 50.7441C105.818 50.7422 106.091 50.7692 106.358 50.8248C106.558 50.8644 106.753 50.9203 106.943 50.9921L106.86 52.1088C106.747 52.0345 106.625 51.9739 106.497 51.9283C106.376 51.884 106.252 51.8487 106.126 51.8227C106.034 51.8032 105.94 51.7919 105.845 51.7889C105.765 51.7858 105.685 51.8051 105.615 51.8447C105.586 51.8631 105.563 51.8889 105.547 51.9193C105.532 51.9498 105.525 51.9838 105.527 52.0179C105.527 52.0553 105.535 52.0924 105.551 52.126C105.568 52.1596 105.592 52.1889 105.622 52.2116C105.747 52.2895 105.885 52.3432 106.03 52.3701C106.345 52.4319 106.644 52.5604 106.907 52.7472C106.995 52.8284 107.064 52.9287 107.108 53.0405C107.153 53.1524 107.171 53.2729 107.162 53.3929C107.168 53.5575 107.136 53.7211 107.069 53.8716C107.003 54.022 106.903 54.1554 106.778 54.2617C106.519 54.4818 106.1 54.5919 105.522 54.5919Z" fill="#063844"/>
<path d="M56.5256 77.2973V75.0755C55.9042 75.0172 55.288 74.9118 54.6825 74.76C54.1877 74.646 53.7058 74.4818 53.2442 74.2698L53.4912 71.392C54.0871 71.7138 54.7191 71.9631 55.3738 72.1346C55.9583 72.3003 56.5616 72.3901 57.1688 72.4017C57.6395 72.4017 58.0039 72.3126 58.2621 72.1346C58.3928 72.0412 58.4973 71.9156 58.5654 71.7698C58.6335 71.624 58.663 71.4631 58.6509 71.3025C58.6509 70.919 58.4453 70.6299 58.0341 70.4352C57.512 70.1987 56.9719 70.0043 56.4189 69.854C55.785 69.6898 55.1737 69.4473 54.5991 69.132C54.1205 68.8699 53.7211 68.4831 53.443 68.0123C53.175 67.5515 53.0415 66.9645 53.0425 66.2513C53.0425 65.2475 53.326 64.4125 53.8932 63.7462C54.4603 63.0799 55.3373 62.6754 56.5242 62.5325V60.6512H58.9228V62.5986C59.4267 62.6719 59.926 62.7743 60.4181 62.9053C60.8291 63.0108 61.2313 63.1482 61.6211 63.3162L61.3916 66.238C60.8558 65.9198 60.2809 65.6731 59.6814 65.5043C59.1769 65.355 58.655 65.2731 58.1291 65.2607C57.7724 65.2473 57.4187 65.3315 57.1059 65.5043C56.974 65.5855 56.8668 65.7015 56.7962 65.8397C56.7256 65.9779 56.6942 66.133 56.7054 66.2879C56.6995 66.4432 56.7367 66.5971 56.8128 66.7324C56.889 66.8676 57.0011 66.979 57.1366 67.054C57.575 67.2897 58.0397 67.4724 58.5208 67.5984C59.3015 67.801 60.0553 68.0966 60.766 68.479C61.257 68.7428 61.6627 69.142 61.9353 69.6295C62.1862 70.1471 62.3076 70.7183 62.2891 71.2937C62.2891 72.2916 62.0201 73.1124 61.4822 73.7562C60.9443 74.3999 60.0902 74.8157 58.9199 75.0036V77.2885L56.5256 77.2973Z" fill="#063844"/>
<path d="M63.4305 74.8714V72.6041C63.7297 72.3497 64.0298 72.0988 64.3309 71.8513L65.2299 71.1087C66.1155 70.3894 66.9412 69.5987 67.6986 68.7445C68.2989 68.0411 68.599 67.3357 68.599 66.6284C68.599 65.7068 68.0758 65.246 67.0292 65.246C66.4382 65.2546 65.8554 65.386 65.3176 65.6319C64.732 65.8876 64.1713 66.1971 63.6425 66.5565L63.3604 63.3279C64.0013 63.0544 64.6651 62.8383 65.3439 62.6822C66.131 62.4941 66.9377 62.4009 67.7469 62.4048C69.1569 62.4048 70.2356 62.7365 70.983 63.3998C71.7304 64.0631 72.1036 64.9857 72.1027 66.1676C72.0915 67.1151 71.8182 68.0408 71.3134 68.8414C70.7872 69.7141 69.9589 70.5701 68.8285 71.4095L68.0874 71.9672H72.205V74.8714H63.4305Z" fill="#063844"/>
<path d="M72.9724 77.6511C73.5814 76.6551 73.8859 75.463 73.8859 74.0747V71.5417L75.3228 71.4097C75.8996 71.486 76.3157 71.7144 76.5711 72.095C76.8352 72.5047 76.9693 72.9852 76.9555 73.473C76.9586 74.0658 76.8271 74.6515 76.5711 75.1856C76.3249 75.7061 76.0021 76.1865 75.6136 76.6106C75.2769 76.9877 74.8983 77.325 74.4852 77.6159L72.9724 77.6511Z" fill="#063844"/>
<path d="M83.283 75.1195C82.3086 75.1195 81.4837 74.9556 80.8084 74.6279C80.1532 74.3201 79.5861 73.8512 79.1596 73.2646C78.727 72.6571 78.4153 71.9714 78.2417 71.2453C78.0442 70.4385 77.9461 69.6105 77.9494 68.7798C77.9301 67.6567 78.1123 66.5392 78.4873 65.4808C78.8095 64.5714 79.4024 63.7835 80.1857 63.2238C80.9585 62.6779 81.9621 62.4049 83.1968 62.4049C84.4314 62.4049 85.4458 62.6779 86.24 63.2238C87.0304 63.7809 87.6306 64.569 87.9589 65.4808C88.3395 66.5318 88.5248 67.6441 88.5055 68.7622C88.5292 69.899 88.3377 71.0299 87.9413 72.095C87.607 72.9956 87.0075 73.7726 86.2224 74.3227C85.4555 74.8539 84.4757 75.1195 83.283 75.1195ZM83.2406 72.3122C83.8945 72.3122 84.352 71.98 84.6131 71.3157C84.8743 70.6514 85.0049 69.8002 85.0049 68.7622C85.0049 67.686 84.8655 66.827 84.5868 66.1852C84.3081 65.5434 83.8594 65.2216 83.2406 65.2196C82.6063 65.2196 82.1507 65.5444 81.874 66.1941C81.5972 66.8437 81.4593 67.6997 81.4603 68.7622C81.4603 69.8071 81.5923 70.6597 81.8564 71.3201C82.1205 71.9805 82.5819 72.3112 83.2406 72.3122Z" fill="#063844"/>
<path d="M95.1255 75.1195C94.1569 75.1195 93.3325 74.9556 92.6524 74.6279C91.9972 74.3201 91.4301 73.8512 91.0036 73.2646C90.5709 72.6571 90.2592 71.9714 90.0857 71.2453C89.8882 70.4385 89.79 69.6105 89.7933 68.7798C89.7741 67.6567 89.9563 66.5392 90.3312 65.4808C90.6535 64.5714 91.2464 63.7835 92.0297 63.2238C92.8034 62.6779 93.8071 62.4049 95.0408 62.4049C96.2744 62.4049 97.2888 62.6779 98.084 63.2238C98.8744 63.7809 99.4746 64.569 99.8029 65.4808C100.183 66.5318 100.369 67.6441 100.35 68.7622C100.373 69.899 100.182 71.0299 99.7854 72.095C99.451 72.9956 98.8515 73.7726 98.0664 74.3227C97.3005 74.8539 96.3202 75.1195 95.1255 75.1195ZM95.0905 72.3122C95.7433 72.3122 96.2008 71.98 96.463 71.3157C96.7251 70.6514 96.8557 69.8002 96.8547 68.7622C96.8547 67.686 96.7149 66.827 96.4352 66.1852C96.1555 65.5434 95.7073 65.2216 95.0905 65.2196C94.4561 65.2196 94.0005 65.5444 93.7238 66.1941C93.447 66.8437 93.3092 67.6997 93.3101 68.7622C93.3101 69.8071 93.4422 70.6597 93.7062 71.3201C93.9703 71.9805 94.4317 72.3112 95.0905 72.3122Z" fill="#063844"/>
<path d="M106.969 75.1195C106 75.1195 105.175 74.9556 104.496 74.6279C103.841 74.3205 103.274 73.8515 102.848 73.2646C102.415 72.6571 102.103 71.9714 101.93 71.2453C101.732 70.4385 101.634 69.6105 101.637 68.7798C101.618 67.6567 101.8 66.5392 102.175 65.4808C102.497 64.5714 103.09 63.7835 103.874 63.2238C104.646 62.6779 105.65 62.4049 106.885 62.4049C108.119 62.4049 109.134 62.6779 109.928 63.2238C110.718 63.7809 111.319 64.569 111.647 65.4808C112.027 66.5318 112.213 67.6441 112.193 68.7622C112.217 69.899 112.026 71.0299 111.629 72.095C111.295 72.9956 110.695 73.7726 109.91 74.3227C109.144 74.8539 108.164 75.1195 106.969 75.1195ZM106.934 72.3122C107.588 72.3122 108.044 71.9805 108.307 71.3157C108.57 70.6509 108.699 69.8012 108.699 68.7622C108.699 67.686 108.559 66.827 108.279 66.1852C107.999 65.5434 107.551 65.2216 106.934 65.2196C106.3 65.2196 105.844 65.5444 105.568 66.1941C105.291 66.8437 105.153 67.6997 105.154 68.7622C105.154 69.8071 105.286 70.6597 105.55 71.3201C105.814 71.9805 106.276 72.3112 106.934 72.3122Z" fill="#063844"/>
<path d="M118.508 84.77H49.0346C46.6128 84.77 44.6495 86.7411 44.6495 89.1725V102.957C44.6495 105.388 46.6128 107.36 49.0346 107.36H118.508C120.93 107.36 122.893 105.388 122.893 102.957V89.1725C122.893 86.7411 120.93 84.77 118.508 84.77Z" fill="#063844"/>
<path d="M119.286 107.37L119.344 107.361C119.394 107.354 119.442 107.344 119.49 107.329L119.708 107.273L119.832 107.241L119.959 107.194L120.218 107.1C120.301 107.065 120.379 107.023 120.451 106.99L120.639 106.899L120.752 106.831C121.242 106.556 121.675 106.188 122.028 105.748C122.381 105.305 122.651 104.801 122.823 104.26C122.859 104.128 122.897 103.993 122.93 103.858L122.995 103.441C123.007 103.294 123.011 103.159 123.019 103.019C123.026 102.878 123.019 102.743 123.019 102.605C123.019 102.054 123.011 101.504 123.008 100.963C123.008 98.7892 123.008 96.8153 123.008 94.6419C123.038 93.1832 123.089 91.7568 123.096 90.2717C123.096 89.8828 123.103 89.4997 123.096 89.0976C123.094 88.8942 123.077 88.6912 123.046 88.4901C123.029 88.3888 123.02 88.2861 122.995 88.1878L122.921 87.8943C122.895 87.7946 122.863 87.6965 122.826 87.6008C122.788 87.5054 122.76 87.4071 122.716 87.3073C122.633 87.1208 122.539 86.94 122.433 86.7657C122.224 86.4156 121.969 86.0957 121.674 85.8148C121.202 85.3599 120.639 85.0099 120.024 84.7875C119.871 84.7309 119.714 84.6843 119.555 84.6481C119.396 84.6087 119.236 84.5788 119.074 84.5586C118.993 84.5444 118.912 84.5361 118.831 84.5336L118.587 84.5204C118.422 84.5116 118.274 84.5204 118.116 84.5204L114.396 84.5058H114.183C113.253 84.4823 112.348 84.45 111.435 84.4162C110.369 84.3781 109.253 84.3751 108.159 84.3737L105.1 84.3928L102.108 84.4133C98.2725 84.4441 94.4254 84.4749 90.6265 84.5601C88.0145 84.5674 85.3981 84.5601 82.7992 84.5322L80.1828 84.4676C79.107 84.4441 78.0181 84.4309 76.9291 84.4309C74.7162 84.4309 72.5076 84.4837 70.2902 84.4705L68.3374 84.4162C67.4136 84.3942 66.4767 84.3913 65.5441 84.3913C63.7214 84.3913 61.89 84.4045 60.0702 84.3913C59.7428 84.3385 59.3905 84.2944 58.9008 84.2445C58.3673 84.1932 57.7929 84.1594 57.1863 84.1257C56.1719 84.0714 55.1326 84.0508 54.0481 84.0332L50.4684 83.9819L49.5183 83.9598H49.2187C49.1164 83.9598 49.0243 83.9598 48.8957 83.9598L48.5361 83.9701C48.4162 83.9775 48.2964 83.9995 48.1765 84.0141L47.9967 84.0391C47.9368 84.0494 47.8783 84.0655 47.8184 84.0787L47.4632 84.1668C47.2309 84.2408 47.0038 84.3306 46.7835 84.4353C46.6958 84.4779 46.6067 84.5204 46.519 84.5659C45.7687 84.99 45.1357 85.5953 44.6773 86.327C44.2332 87.0395 43.9734 87.8522 43.9216 88.6911C43.9216 88.9465 43.9143 89.2121 43.9303 89.4146C43.9464 89.6171 43.9552 89.8461 43.9684 90.0618C43.9932 90.4918 44.0195 90.9203 44.0444 91.3488C44.0692 91.7773 44.0926 92.2029 44.116 92.627C44.1394 93.0511 44.1598 93.5354 44.1978 93.9214L44.1861 96.9328V98.3841L44.2081 101.117L44.2212 102.481V102.822C44.2212 102.881 44.2212 102.933 44.2212 102.995L44.2315 103.181C44.2449 103.428 44.2756 103.673 44.3235 103.915C44.4887 104.7 44.8496 105.429 45.3724 106.035C45.8953 106.641 46.5629 107.104 47.3127 107.38C47.4348 107.427 47.5592 107.468 47.6854 107.502L48.0669 107.593L48.4557 107.646C48.5843 107.665 48.7159 107.659 48.846 107.666H48.7261C48.9907 107.679 49.226 107.666 49.4672 107.666L50.198 107.653C50.8324 107.669 51.4667 107.678 52.0982 107.678H54.3682C55.0289 107.678 55.6398 107.634 56.2917 107.637C56.9919 107.637 57.673 107.666 58.3761 107.647C59.0309 107.628 59.5688 107.593 60.2368 107.613C61.6049 107.654 62.9468 107.709 64.3222 107.722C65.1349 107.744 65.9505 107.762 66.7851 107.77C68.0202 107.784 69.2977 107.728 70.5197 107.701L72.1553 107.659H73.1668C73.8976 107.659 74.6007 107.694 75.3271 107.697C76.8005 107.697 78.3543 107.697 79.8028 107.644C81.1183 107.597 82.4557 107.621 83.7815 107.6L84.9742 107.572H85.2563C85.7664 107.584 86.2663 107.572 86.7648 107.555C87.2193 107.569 87.6418 107.565 88.1022 107.568C88.4457 107.577 88.776 107.588 89.1341 107.594C89.3402 107.594 89.5536 107.594 89.7685 107.594H91.2755C92.325 107.594 93.3525 107.594 94.3874 107.584H95.1942C96.7982 107.591 98.406 107.591 100.018 107.584L109.811 107.553C111.46 107.543 112.958 107.483 114.607 107.47L117.729 107.446C118.194 107.446 118.496 107.43 118.496 107.364C118.496 107.298 118.261 107.276 117.736 107.276H116.275L113.999 107.224C112.927 107.205 111.919 107.258 110.839 107.26C108.675 107.26 106.492 107.217 104.327 107.205C102.874 107.175 101.455 107.122 99.9754 107.111L95.3389 107.101L91.0709 107.081C90.9437 107.081 90.8151 107.081 90.682 107.081H90.5929H90.4277H90.5973C89.9629 107.094 89.311 107.101 88.6971 107.125C88.4661 107.134 88.2498 107.15 88.035 107.166H87.0118C86.4593 107.166 85.9448 107.182 85.3879 107.166C84.2039 107.122 83.0492 107.088 81.836 107.104C80.7967 107.119 79.7429 107.134 78.7007 107.138L77.6673 107.147L74.8199 107.051L70.546 106.93C69.5228 106.897 68.5435 106.862 67.4955 106.844C66.4986 106.828 65.3965 106.844 64.445 106.886L63.3253 106.943L62.3899 106.956C61.9513 106.956 61.5392 106.944 61.1007 106.937C60.6227 106.937 60.1608 106.953 59.6843 106.965C59.156 106.985 58.6271 106.976 58.0998 106.938C57.635 106.902 57.141 106.868 56.6382 106.861C55.7407 106.847 54.8198 106.868 53.9151 106.872L52.2093 106.849L50.372 106.787L49.6513 106.767L49.2874 106.758C49.1705 106.758 49.0345 106.758 48.9366 106.745C48.5169 106.73 48.1029 106.642 47.7132 106.485C47.2303 106.296 46.7922 106.007 46.427 105.638C46.0618 105.269 45.7774 104.827 45.5923 104.341L45.5177 104.11C45.4943 104.034 45.4752 103.956 45.4607 103.877C45.4258 103.723 45.4024 103.567 45.3906 103.409C45.3813 103.331 45.3779 103.252 45.3803 103.173V102.933L45.4023 102.37C45.4446 101.387 45.468 100.368 45.4797 99.3483C45.4987 97.803 45.4973 96.2768 45.4797 94.7256C45.4666 93.0291 45.4417 91.2798 45.3876 89.6186L45.3745 89.2532V89.1637V88.9347C45.3745 88.8834 45.3745 88.832 45.3745 88.788L45.392 88.6412C45.3988 88.5396 45.4129 88.4385 45.4344 88.3389C45.6797 87.4124 46.2734 86.6175 47.0905 86.1215C47.5693 85.8299 48.1073 85.6504 48.6647 85.5961L48.8737 85.5888H48.979H49.0316H49.0959H49.606H50.6292C52.2224 85.5888 53.8317 85.5374 55.3884 85.4875C55.9629 85.4699 56.5241 85.4435 57.0664 85.4112L58.61 85.3144C58.8599 85.2968 59.0967 85.2718 59.3247 85.2469L61.5085 85.1852L63.2917 85.1368C64.2009 85.1207 65.1086 85.106 66.025 85.0972C67.1286 85.0884 68.2176 85.0972 69.3109 85.106C71.1482 85.1265 73.0133 85.0972 74.8536 85.0678C75.2232 85.1302 75.597 85.1655 75.9717 85.1735C77.4334 85.2102 78.8951 85.2292 80.3699 85.2425L83.7318 85.2865C84.7842 85.3041 85.8088 85.3232 86.87 85.3144C87.9823 85.3041 89.0771 85.2689 90.1763 85.2454L90.6002 85.2366H90.8838H94.0848C95.7058 85.2366 97.3151 85.2366 98.9317 85.2498C100.439 85.2601 101.978 85.2659 103.48 85.241L108.58 85.1412C110.773 85.1016 112.992 85.0766 115.191 85.0561H117.799C118.059 85.0561 118.328 85.0561 118.577 85.0561C118.698 85.0561 118.821 85.0649 118.942 85.0766L119.303 85.1295C119.78 85.2259 120.237 85.4042 120.654 85.6563C120.708 85.69 120.763 85.7209 120.816 85.7576L120.962 85.8735L121.108 85.988L121.254 86.1171C121.955 86.7374 122.434 87.5716 122.617 88.4916C122.663 88.743 122.689 88.9976 122.696 89.2532C122.696 89.5174 122.706 89.7771 122.71 90.028C122.721 90.5314 122.728 91.0025 122.729 91.4061C122.747 94.6801 122.696 96.8931 122.716 100.173C122.716 101.001 122.742 101.818 122.763 102.636C122.785 103.037 122.765 103.439 122.703 103.836C122.626 104.233 122.495 104.617 122.314 104.978C122.276 105.06 122.203 105.168 122.124 105.304C122.08 105.377 122.032 105.447 121.978 105.513C121.922 105.585 121.87 105.66 121.804 105.742C121.52 106.077 121.188 106.368 120.819 106.605C120.487 106.816 120.129 106.982 119.753 107.097L119.394 107.189C119.349 107.199 119.303 107.206 119.258 107.211L118.951 107.263C118.859 107.27 118.78 107.277 118.714 107.288C118.583 107.307 118.507 107.33 118.507 107.364C118.507 107.398 118.569 107.409 118.698 107.415C118.762 107.415 118.844 107.415 118.942 107.415C119.04 107.415 119.154 107.389 119.286 107.37Z" fill="#063844"/>
<path d="M62.6397 99.1165L63.0388 97.8133C63.1781 97.3554 63.3121 96.923 63.4407 96.516L64.252 93.8745C64.4001 93.3961 64.5321 92.9651 64.6481 92.5816C64.7636 92.1986 64.8834 91.8141 65.0047 91.4252H67.836C67.9617 91.8312 68.0825 92.2226 68.1985 92.5992C68.3145 92.9759 68.4445 93.3985 68.5888 93.8672L69.3941 96.5087L69.8005 97.8295L70.1951 99.1165H67.9062C67.8492 98.8861 67.7907 98.6498 67.7322 98.4091C67.6737 98.1684 67.6138 97.9292 67.5568 97.6915H65.2181C65.1577 97.9332 65.0968 98.1743 65.0354 98.415C64.9755 98.6557 64.9156 98.889 64.8586 99.1165H62.6397ZM66.3217 93.2787L65.6274 96.0464H67.1534L66.4766 93.2787H66.3217Z" fill="#F7F4F2"/>
<path d="M70.8676 101.247V93.7159L72.6347 93.6249L72.6932 94.3792H72.8496C72.9933 94.1164 73.2079 93.8996 73.4688 93.7537C73.7296 93.6078 74.0262 93.5388 74.3244 93.5545C74.7467 93.5386 75.1609 93.6732 75.4938 93.9346C75.8173 94.2057 76.06 94.5612 76.1954 94.9619C76.5017 95.8879 76.5053 96.888 76.2056 97.8162C76.075 98.223 75.8383 98.5873 75.5201 98.8713C75.1905 99.146 74.7714 99.2887 74.3434 99.272C74.0688 99.2801 73.7968 99.2164 73.5541 99.0871C73.3319 98.9595 73.1379 98.7877 72.9841 98.5822H72.8774V101.187L70.8676 101.247ZM73.5366 97.5785C73.6639 97.584 73.7902 97.5535 73.9011 97.4905C74.0119 97.4274 74.1029 97.3343 74.1636 97.2218C74.3026 96.9792 74.3738 96.7034 74.3697 96.4235C74.3767 96.1387 74.3043 95.8577 74.1607 95.612C74.0972 95.5025 74.0051 95.4126 73.8943 95.3521C73.7835 95.2915 73.6582 95.2626 73.5322 95.2686C73.4034 95.2642 73.2756 95.2921 73.1603 95.3498C73.0449 95.4074 72.9457 95.493 72.8715 95.5988V97.1309C72.9294 97.2574 73.0178 97.3673 73.1288 97.4508C73.2451 97.5423 73.3888 97.5915 73.5366 97.5902V97.5785Z" fill="#F7F4F2"/>
<path d="M77.2347 101.247V93.716L79.0019 93.628L79.0603 94.3823H79.2167C79.3602 94.1199 79.5743 93.9034 79.8346 93.7575C80.0949 93.6117 80.3909 93.5424 80.6886 93.5575C81.1109 93.5416 81.5251 93.6762 81.858 93.9376C82.1815 94.2088 82.4242 94.5642 82.5596 94.9649C82.8679 95.8906 82.8715 96.8913 82.5698 97.8192C82.4392 98.226 82.2025 98.5904 81.8843 98.8744C81.5548 99.1493 81.1357 99.292 80.7076 99.275C80.433 99.283 80.1611 99.2192 79.9183 99.0901C79.6961 98.9625 79.5021 98.7908 79.3483 98.5853H79.2416V101.19L77.2347 101.247ZM79.9052 97.5785C80.0323 97.5841 80.1584 97.5537 80.2691 97.4906C80.3797 97.4275 80.4704 97.3344 80.5308 97.2219C80.6697 96.9792 80.7409 96.7035 80.7369 96.4236C80.7445 96.1387 80.6721 95.8575 80.5278 95.6121C80.4644 95.5026 80.3722 95.4127 80.2614 95.3521C80.1506 95.2916 80.0253 95.2627 79.8993 95.2687C79.7706 95.2643 79.6427 95.2922 79.5274 95.3499C79.4121 95.4075 79.3128 95.4931 79.2386 95.5988V97.1309C79.2965 97.2574 79.3849 97.3674 79.4959 97.4509C79.6126 97.5426 79.7569 97.5918 79.9052 97.5903V97.5785Z" fill="#F7F4F2"/>
<path d="M83.6017 99.1165V93.716L85.2724 93.6279L85.3586 94.5554H85.5194C85.724 94.1494 85.9496 93.8813 86.1961 93.7512C86.4204 93.6277 86.6713 93.5612 86.927 93.5575C87.0122 93.559 87.0971 93.5663 87.1813 93.5795C87.282 93.593 87.3803 93.6202 87.4737 93.6602L87.3012 95.6018L86.8948 95.5915C86.775 95.5915 86.6522 95.5915 86.528 95.5915C86.3412 95.5887 86.1566 95.6315 85.9901 95.7162C85.8123 95.818 85.677 95.9805 85.6086 96.1741V99.1165H83.6017Z" fill="#F7F4F2"/>
<path d="M90.7099 99.272C90.0229 99.272 89.4616 99.1385 89.026 98.8714C88.6086 98.6219 88.2732 98.2551 88.0613 97.8162C87.8541 97.3676 87.7476 96.8788 87.7494 96.3843C87.7512 95.8898 87.8612 95.4017 88.0715 94.9546C88.2859 94.5227 88.6239 94.165 89.0421 93.9273C89.5412 93.6596 90.102 93.5295 90.6675 93.5501C91.2437 93.5277 91.8156 93.6588 92.325 93.9302C92.7441 94.1663 93.082 94.5245 93.2941 94.9575C93.5099 95.4082 93.6185 95.903 93.6113 96.403C93.6194 96.912 93.5051 97.4154 93.278 97.8705C93.0602 98.3024 92.72 98.6599 92.3001 98.8978C91.8121 99.161 91.2635 99.2901 90.7099 99.272ZM90.7099 97.6578C90.8432 97.6636 90.9753 97.631 91.0908 97.5639C91.2063 97.4969 91.3003 97.398 91.3618 97.2791C91.507 97.0132 91.5801 96.7136 91.5737 96.4104C91.5951 96.0869 91.5093 95.7654 91.3296 95.4961C91.2525 95.395 91.1525 95.3137 91.038 95.2589C90.9236 95.204 90.7977 95.1772 90.6709 95.1807C90.5441 95.1841 90.4199 95.2177 90.3086 95.2786C90.1972 95.3396 90.1018 95.4262 90.0302 95.5313C89.8658 95.7945 89.7843 96.1014 89.7963 96.4118C89.7902 96.7179 89.8713 97.0193 90.0302 97.2806C90.0984 97.3985 90.1973 97.4957 90.3162 97.5616C90.4352 97.6275 90.5697 97.6597 90.7055 97.6548L90.7099 97.6578Z" fill="#F7F4F2"/>
<path d="M95.5991 99.1165C95.485 98.7775 95.3681 98.4371 95.2483 98.0893C95.1284 97.7414 95.01 97.4054 94.896 97.0708L94.5686 96.1227C94.4283 95.7236 94.2894 95.3234 94.152 94.9223C94.0131 94.5217 93.8772 94.121 93.7413 93.7219L95.906 93.6631C95.9781 94.0007 96.0488 94.3377 96.1179 94.6743C96.1871 95.0108 96.2578 95.3479 96.3299 95.6854L96.5988 96.9592H96.7552L97.0242 95.6825C97.0987 95.3332 97.1704 94.9942 97.2405 94.6669L97.4422 93.7233H99.5763L99.1641 94.9296C99.0267 95.3337 98.8883 95.7353 98.749 96.1345L98.4201 97.0957C98.3031 97.4377 98.1862 97.7752 98.0707 98.1127L97.7273 99.1239L95.5991 99.1165Z" fill="#F7F4F2"/>
<path d="M102.779 99.272C102.056 99.272 101.467 99.1497 101.013 98.9051C100.582 98.6834 100.233 98.3291 100.016 97.894C99.7976 97.4296 99.6891 96.9208 99.6991 96.4074C99.6904 95.8985 99.79 95.3937 99.9914 94.9266C100.174 94.5083 100.48 94.1564 100.868 93.9184C101.324 93.6607 101.841 93.5348 102.364 93.5545C103.132 93.5545 103.727 93.7502 104.151 94.1415C104.575 94.5328 104.787 95.1487 104.787 95.9891C104.787 96.1359 104.787 96.2723 104.774 96.3868C104.761 96.5013 104.752 96.6113 104.733 96.7229H101.634C101.653 96.8582 101.698 96.9883 101.769 97.105C101.84 97.2216 101.934 97.3224 102.045 97.4009C102.269 97.5564 102.598 97.6357 103.032 97.6357C103.286 97.628 103.54 97.5971 103.789 97.5432C104.084 97.4888 104.371 97.3965 104.642 97.2688L104.707 98.9359C104.448 99.0395 104.181 99.1176 103.907 99.1692C103.536 99.2417 103.157 99.2762 102.779 99.272ZM102.389 94.887C102.293 94.8877 102.199 94.9094 102.112 94.9504C102.026 94.9915 101.95 95.051 101.889 95.1247C101.729 95.3226 101.637 95.5663 101.626 95.8204L103.055 95.7763C103.058 95.5437 102.987 95.3161 102.853 95.1262C102.801 95.0519 102.731 94.9913 102.65 94.9497C102.569 94.9081 102.479 94.8866 102.389 94.887Z" fill="#F7F4F2"/>
</svg>
