<svg width="165" height="164" viewBox="0 0 165 164" fill="none" xmlns="http://www.w3.org/2000/svg">
<path d="M122.04 32.0873H48.1357C47.474 32.0873 46.8395 32.3502 46.3716 32.818C45.9037 33.2859 45.6409 33.9205 45.6409 34.5821V130.998H134.659V44.708L122.04 32.0873Z" fill="white"/>
<path d="M122.04 32.0977C122.04 31.7264 117.991 31.7851 111.327 31.7851C97.9727 31.7851 84.4524 31.7381 70.8456 31.6662L50.3751 31.5518L49.0925 31.543H48.4497H48.1283C47.9979 31.5439 47.8675 31.5523 47.738 31.5679C47.214 31.6352 46.7162 31.8365 46.2928 32.1525C45.8693 32.4684 45.5346 32.8883 45.321 33.3715C45.2149 33.6137 45.1409 33.8688 45.1008 34.1302C45.0791 34.2602 45.0668 34.3917 45.0642 34.5235C45.0642 34.5954 45.0642 34.6424 45.0642 34.6967V34.8566L45.0554 36.1407L45.0377 38.7103C45.0143 42.1346 44.9903 45.5622 44.9658 48.9933C44.8734 62.7117 44.7824 76.4521 44.6914 90.1426C44.6591 96.991 44.6263 103.822 44.5931 110.637C44.5764 117.821 44.5598 124.979 44.5432 132.112L63.8734 132.102C69.9157 132.087 75.9232 132.062 81.896 132.026L135.324 131.659C135.245 117.443 135.164 103.162 135.083 88.6208C135.057 81.4622 135.03 74.2317 135.003 66.9293C134.989 59.577 134.976 52.1274 134.963 44.5804L129.827 39.4441C126.027 35.6462 122.26 31.857 122.062 32.0551C121.799 32.3178 124.704 35.1369 129.417 39.8535L134.38 44.8152C134.38 59.376 134.369 73.768 134.363 88.0793C134.339 95.2555 134.315 102.415 134.291 109.558C134.269 113.131 134.248 116.702 134.226 120.271L134.185 125.627L134.162 128.306L134.15 129.644L134.138 130.466L133.714 130.458L111.403 130.262L89.2733 130.09L67.3925 129.962L46.7518 129.886V126.194C46.7518 124.747 46.7386 123.347 46.7327 121.986C46.7151 119.263 46.6872 116.693 46.6564 114.209C46.5933 109.219 46.5097 104.56 46.4686 99.6228C46.3218 84.4119 46.7885 72.0657 46.7459 57.4638C46.7254 50.6291 46.6701 43.7689 46.5801 36.8833L46.564 35.5919L46.5566 34.9476V34.6248V34.5059C46.5566 34.4721 46.5566 34.4369 46.5566 34.4032C46.5843 34.1261 46.6831 33.8609 46.8436 33.6333C47.0041 33.4057 47.2207 33.2235 47.4724 33.1044C47.5989 33.044 47.7332 33.0015 47.8715 32.9782C47.9067 32.9782 47.9405 32.9635 47.9757 32.9591H48.0814H48.1371H48.2179H48.3793L49.6707 32.9415L52.2565 32.9048L62.6098 32.7258C76.4178 32.5159 90.2462 32.3046 103.994 32.2577L111.321 32.3604C116.697 32.3633 122.04 32.3795 122.04 32.0977Z" fill="#063844"/>
<path d="M78.2374 52.0266V43.7512H81.7419C82.9922 43.7512 83.9642 44.1068 84.6578 44.8181C85.3514 45.5294 85.6988 46.5449 85.6997 47.8647C85.705 48.4189 85.6258 48.9706 85.4649 49.501C85.3145 49.9917 85.0569 50.4428 84.7106 50.8217C84.3318 51.2212 83.8621 51.5233 83.3414 51.7023C82.6719 51.9299 81.9674 52.0372 81.2605 52.0192L78.2374 52.0266ZM80.6339 50.1349H81.2488C81.6547 50.1576 82.0578 50.0551 82.4037 49.8414C82.6908 49.6411 82.9062 49.3541 83.0186 49.0226C83.1471 48.6447 83.2101 48.2476 83.205 47.8485C83.205 47.194 83.0582 46.6647 82.7647 46.2607C82.4712 45.8566 81.9894 45.6497 81.3192 45.6399H80.6295L80.6339 50.1349Z" fill="#063844"/>
<path d="M80.6838 49.9236C80.6838 49.6844 80.7249 49.4437 80.7044 49.203C80.6721 48.8053 80.7337 48.7774 80.7322 48.55C80.7322 48.4326 80.7455 48.1626 80.7455 48.0466C80.7455 47.9307 80.6941 47.7267 80.6985 47.6181V47.577C80.7234 47.1177 80.9039 46.6451 80.9039 46.2225C80.9039 46.1256 80.9039 46.0288 80.8878 45.929C80.8878 45.9114 80.8878 45.9202 80.8878 45.9173L80.879 45.907C80.8722 45.8965 80.8668 45.8851 80.8629 45.8732C80.8671 45.8658 80.8739 45.8601 80.8819 45.8571H80.8995H80.9098H80.9465L81.1153 45.8453C81.2283 45.838 81.3427 45.8307 81.4469 45.8263C81.6791 45.8174 81.911 45.8491 82.1323 45.9202C82.312 45.9881 82.4706 46.1025 82.5916 46.2518C82.7079 46.4049 82.8004 46.5746 82.866 46.7552C83.0015 47.1564 83.0583 47.5799 83.0333 48.0026C83.0245 48.2227 83.0333 48.4311 83.0128 48.6424C83.0034 48.8584 82.9484 49.07 82.8513 49.2632C82.7679 49.4095 82.6579 49.5389 82.527 49.6448C82.4001 49.748 82.2593 49.833 82.1088 49.8972C81.9492 49.958 81.7854 50.007 81.6186 50.0439C81.4257 50.0839 81.2285 50.0997 81.0316 50.0909C80.8174 50.0909 80.6295 50.1056 80.6295 50.1555C80.6295 50.2053 80.8115 50.22 81.0316 50.22C81.2932 50.2298 81.5552 50.214 81.8138 50.1731C82.0715 50.132 82.3153 50.0287 82.5241 49.8722C82.655 49.7733 82.7712 49.6562 82.8689 49.5244C83.0017 49.345 83.1011 49.1432 83.1625 48.9286C83.2641 48.6343 83.3263 48.3279 83.3474 48.0173C83.3474 47.5902 83.3283 47.5213 83.3297 47.3584C83.3367 47.1373 83.3095 46.9166 83.249 46.7038C83.1654 46.4495 83.0294 46.2156 82.8499 46.017C82.6681 45.8276 82.4451 45.6824 82.1983 45.5929C81.9634 45.5102 81.7196 45.4555 81.4719 45.43C81.3589 45.4183 81.2561 45.4124 81.1564 45.4066H81.0023H80.7895C80.6427 45.4066 80.5107 45.4066 80.3698 45.4066C80.3698 45.5533 80.3698 45.7001 80.3595 45.8468V46.0112V46.1256C80.3595 46.7875 80.5444 47.5682 80.5459 47.6783C80.5459 47.8368 80.5341 47.9938 80.5459 48.1479C80.5576 48.302 80.5459 48.4326 80.5532 48.5647C80.5532 48.7921 80.5532 49.0167 80.5532 49.2441C80.5532 49.4995 80.5752 49.6991 80.5752 49.9515C80.5752 50.0498 80.587 50.1599 80.6266 50.1613C80.6662 50.1628 80.6838 50.0571 80.6838 49.9236Z" fill="#063844"/>
<path d="M78.7025 52.0838C79.2426 52.0838 79.7841 52.1249 80.3256 52.1044C81.2222 52.0677 81.2824 52.144 81.8048 52.1147C81.9369 52.1059 82.1571 52.0912 82.3772 52.0618C82.5684 52.0375 82.758 52.0022 82.9451 51.9562C83.1044 51.9112 83.2595 51.8528 83.4088 51.7815C83.5761 51.7052 83.7376 51.6172 83.8491 51.5614L83.9342 51.5159C84.1714 51.3934 84.3968 51.2494 84.6078 51.0859C84.8204 50.9157 85.0138 50.7228 85.1846 50.5107C85.5182 50.0959 85.7476 49.6073 85.8537 49.0857C85.9528 48.5255 85.9656 47.9534 85.8919 47.3893C85.8436 46.8643 85.7175 46.3494 85.5177 45.8616C85.2885 45.3218 84.9271 44.8484 84.4669 44.485C84.0845 44.1819 83.6477 43.9548 83.1799 43.8159C82.7216 43.679 82.2464 43.6074 81.7682 43.6031C80.7629 43.5884 79.7665 43.584 78.7627 43.5825L78.0715 43.5913C78.0715 43.7483 78.0715 43.9039 78.0832 44.0595C78.0832 44.1622 78.0935 44.2634 78.0994 44.3647C78.1111 44.5672 78.1214 44.7697 78.1331 44.9723C78.1551 45.3773 78.1742 45.7853 78.1713 46.2108C78.1713 46.8756 78.1258 47.9088 78.1302 48.5691C78.1082 49.4937 78.1742 50.0205 78.1669 51.1197C78.1669 51.6025 78.1815 52.0251 78.2314 52.0266C78.2813 52.0281 78.296 51.6157 78.296 51.1197C78.296 49.7006 78.3121 49.0417 78.318 47.7136C78.318 47.0825 78.3254 46.3781 78.3327 45.2408C78.3327 44.9913 78.3327 44.7433 78.3459 44.4953L78.3576 44.124V44.0301V43.9817V43.8892H78.4926H78.7539C79.6857 43.8892 79.8354 43.8892 80.1862 43.8995C80.7218 43.9259 81.0975 43.9685 81.5671 43.9743C82.0817 43.964 82.5953 44.0247 83.0933 44.1549C83.5559 44.2771 83.9836 44.5058 84.3422 44.8226C84.6974 45.1425 84.9673 45.546 85.1273 45.9966C85.2683 46.4075 85.3575 46.8344 85.3929 47.2675C85.434 47.7472 85.4167 48.2301 85.3416 48.7056C85.2938 49.0611 85.2097 49.4107 85.0906 49.749C84.9744 50.0637 84.8138 50.3602 84.6137 50.6295C84.3674 50.9597 84.0557 51.2354 83.698 51.4396C83.3853 51.5854 83.0589 51.6995 82.7235 51.7801C82.4233 51.8489 82.1181 51.8936 81.8107 51.9136C81.5583 51.9342 81.3074 51.9386 81.052 51.9386H80.2918C79.7195 51.9386 79.2646 51.9606 78.6996 51.9606C78.4794 51.9606 78.23 51.9723 78.227 52.0119C78.2241 52.0516 78.4017 52.0838 78.7025 52.0838Z" fill="#063844"/>
<path d="M90.858 52.1939C89.9775 52.1939 89.2717 52.0579 88.7404 51.7859C88.2344 51.5374 87.8289 51.1231 87.5913 50.6119C87.3424 50.0372 87.2217 49.4153 87.2377 48.7892V43.7512H89.6283V48.6836C89.6283 49.1899 89.7281 49.5787 89.9218 49.8473C90.1155 50.1159 90.4295 50.2509 90.8463 50.2509C91.2631 50.2509 91.5933 50.1159 91.7753 49.8473C91.9572 49.5787 92.0482 49.1884 92.0482 48.6733V43.7512H94.4388V48.7936C94.4388 49.8502 94.1526 50.6818 93.5803 51.2884C93.008 51.895 92.1006 52.1968 90.858 52.1939Z" fill="#063844"/>
<path d="M91.5479 52.2174C91.9422 52.1838 92.3305 52.099 92.7029 51.9649C93.0823 51.8277 93.4213 51.5977 93.689 51.2958C93.8615 51.0955 94.0093 50.8752 94.1293 50.6398C94.2059 50.4893 94.2735 50.3345 94.3318 50.176C94.4364 49.9036 94.5035 49.6183 94.5314 49.3278C94.5534 49.137 94.5622 48.8142 94.5637 48.5045C94.5651 48.1949 94.5637 47.8794 94.5637 47.6915C94.5637 47.3379 94.5108 46.6511 94.5152 46.3018C94.5152 46.2534 94.5152 46.2093 94.5152 46.1682C94.5152 45.7661 94.5402 45.3611 94.5637 44.9561C94.5754 44.755 94.5886 44.5525 94.6004 44.3515L94.6194 44.0506C94.6268 43.8833 94.6326 43.719 94.64 43.5531L94.2085 43.537L93.937 43.5223L93.4381 43.4959C93.1094 43.4812 92.7865 43.4709 92.4725 43.4709H91.7754V43.9523V44.2297L91.793 44.711C91.8033 45.0324 91.815 45.3523 91.8253 45.6752C91.8414 46.3972 91.8576 47.1295 91.8722 47.8603C91.8722 48.0628 91.8796 48.2639 91.884 48.4649C91.8951 48.6604 91.8951 48.8564 91.884 49.0519C91.87 49.2386 91.8279 49.4222 91.7592 49.5964C91.7 49.7622 91.5862 49.9029 91.4364 49.9955C91.1556 50.1319 90.8366 50.1682 90.5324 50.0983C90.3861 50.0672 90.2499 50.0001 90.1362 49.9031C90.0247 49.7994 89.9388 49.6713 89.8852 49.5289C89.7805 49.2274 89.7371 48.9081 89.7575 48.5897C89.7575 48.2551 89.7575 47.9219 89.7693 47.5873L89.7825 45.6678C89.7825 44.9722 89.7825 44.2761 89.7825 43.5795H89.1338C88.8051 43.5795 88.4837 43.5795 88.1667 43.5927L87.1028 43.6265L87.1145 44.0418L87.1263 44.3353C87.1263 44.532 87.1395 44.7301 87.1468 44.9223C87.1586 45.3186 87.1674 45.7207 87.1644 46.136C87.1644 46.6144 87.1512 47.2249 87.1409 47.8339C87.1409 48.1391 87.1321 48.4429 87.1277 48.732C87.1221 49.0023 87.1378 49.2727 87.1747 49.5406C87.211 49.8508 87.287 50.1551 87.4007 50.4461C87.5058 50.7133 87.6546 50.9613 87.841 51.1798C88.2181 51.6113 88.7567 51.9488 89.5403 52.1234C90.2315 52.2702 90.8494 52.2276 90.8479 52.1836C90.8464 52.1396 90.2609 52.1425 89.5668 51.9972C88.5806 51.7888 87.9686 51.2503 87.6678 50.6134C87.5155 50.2816 87.4136 49.9289 87.3655 49.567C87.3148 49.1454 87.2976 48.7205 87.3141 48.2961C87.3141 47.3892 87.3229 46.3766 87.3288 44.7389V44.2399V44.0022V43.8554L87.6927 43.8657L88.1711 43.876C88.4896 43.876 88.8095 43.8877 89.1294 43.8863H89.4626V44.7345C89.4626 44.959 89.4626 45.1175 89.4508 45.3215C89.4259 46.0934 89.3833 46.6334 89.3774 47.307C89.3774 47.6901 89.3774 48.0775 89.3774 48.4649C89.3494 48.8834 89.4146 49.3029 89.5682 49.6932C89.6561 49.8973 89.7957 50.0748 89.9733 50.2083C90.1541 50.3355 90.3641 50.4152 90.5838 50.4402C90.7895 50.4649 90.9979 50.458 91.2016 50.4196C91.4207 50.3782 91.624 50.2766 91.7886 50.1261C91.942 49.9693 92.0557 49.7781 92.1202 49.5685C92.1812 49.3779 92.2201 49.1809 92.2362 48.9815C92.245 48.8832 92.2509 48.7878 92.2509 48.688V48.4135C92.2509 48.2316 92.2509 48.0496 92.2626 47.8676C92.2787 47.2116 92.2905 46.5469 92.289 45.8894C92.289 45.5269 92.289 45.1689 92.289 44.8108L92.2963 44.2737V44.0257H92.333H92.6265L93.2326 44.0125L93.8284 43.9949L94.1219 43.9831L94.1836 43.9714L94.1953 44.0242V44.0609V44.1225C94.1953 44.1621 94.1953 44.2018 94.1953 44.2414C94.1953 44.3999 94.21 44.554 94.2159 44.7007C94.232 44.9942 94.2452 45.2628 94.257 45.4976C94.2819 45.9657 94.2995 46.2945 94.301 46.4089C94.301 46.9196 94.2892 47.4362 94.301 47.9307C94.301 48.1421 94.301 48.371 94.301 48.6043C94.301 48.8377 94.301 49.0607 94.2819 49.2691C94.2549 49.6278 94.1763 49.9807 94.0486 50.3169C93.9369 50.6452 93.7658 50.9502 93.5437 51.2165C93.2866 51.4868 92.9743 51.6985 92.628 51.8373C92.2783 51.976 91.9107 52.0644 91.5362 52.1C91.2251 52.1352 90.8699 52.144 90.864 52.1836C90.8582 52.2232 91.1135 52.2599 91.5479 52.2174Z" fill="#063844"/>
<path d="M96.3115 52.0266V43.7512H102.011V45.659H98.6566V46.9988H101.854V48.7364H98.6566V50.1173H102.074V52.0251L96.3115 52.0266Z" fill="#063844"/>
<path d="M97.0011 52.0839C97.7891 52.0839 98.5787 52.125 99.3667 52.1044C100.674 52.0721 100.764 52.1338 101.514 52.1323H102.184C102.184 51.7317 102.192 51.2122 102.195 50.9363C102.195 50.7161 102.177 50.4461 102.162 50.0264L101.751 50.0382H101.49H101.354C100.905 50.0308 100.451 50.0088 99.9992 49.9824L99.3242 49.9413L98.9896 49.9193C98.9609 49.9191 98.9324 49.9156 98.9045 49.909L98.8692 49.8973L98.881 49.8518V49.8342C98.8818 49.8234 98.8818 49.8126 98.881 49.8019V49.7579L98.8986 49.4101L98.9118 49.0681C98.9118 48.9874 98.9118 49.0109 98.9118 49.0065H98.9984C99.7982 49.0065 100.585 48.9625 101.379 48.9404L102.033 48.9302C102.022 48.2331 102.01 47.5287 101.998 46.8243H101.954L99.3594 46.8712H98.7504C98.7504 46.7172 98.7504 45.9335 98.7504 45.7779L100.658 45.8014L102.146 45.8117C102.146 45.0642 102.146 44.3192 102.146 43.5767H100.842C100.089 43.5767 99.3741 43.6045 98.6623 43.6324L97.5866 43.6706L97.0392 43.6823H96.464H96.2218C96.2218 43.9362 96.2218 44.2194 96.2115 44.5173C96.2013 44.8152 96.2013 45.0853 96.1969 45.3744C96.1866 45.9526 96.1793 46.5264 96.1807 46.9798C96.1587 48.327 96.2247 49.096 96.2174 50.6971C96.2174 51.4 96.2321 52.0178 96.282 52.0178C96.3319 52.0178 96.3466 51.4191 96.3466 50.6971C96.3466 48.6293 96.3627 47.6696 96.3686 45.7324C96.3686 45.2496 96.3686 44.7345 96.3774 43.8379H97.8948C98.8795 43.8379 99.8569 43.8819 100.846 43.8804H101.864C101.864 44.0477 101.864 44.1739 101.864 44.2737C101.864 44.4205 101.864 44.5408 101.854 44.6905C101.854 44.8695 101.841 45.0368 101.835 45.1939C101.835 45.2335 101.835 45.2731 101.835 45.3113V45.3685V45.3876L101.823 45.4507L101.744 45.4389L101.498 45.4301C101.324 45.4301 101.15 45.4199 100.965 45.4184H99.8158H98.4363C98.4363 45.4463 98.4363 45.4742 98.4363 45.5006C98.4363 46.0656 98.4363 46.6335 98.4481 47.2029H100.236H101.024H101.417H101.514H101.581H101.611V47.2367V47.3981L101.602 47.831V48.2713V48.4444H101.589L99.4431 48.4268L98.3967 48.4356L98.404 49.0549L98.4128 49.4042C98.4128 49.5201 98.4202 49.6346 98.4246 49.7491C98.4246 49.9398 98.4246 50.1306 98.4363 50.3185L98.9294 50.3082L99.1994 50.2964L99.7043 50.2744L100.585 50.2289C101.107 50.2025 101.48 50.182 101.602 50.1805H101.983C101.983 50.3273 101.983 50.474 101.983 50.6208V51.1491C101.983 51.403 101.983 51.7522 101.983 51.9048H101.552L99.3198 51.9122L96.9981 51.9342C96.6782 51.9342 96.3157 51.9459 96.3099 51.9856C96.304 52.0252 96.5637 52.0839 97.0011 52.0839Z" fill="#063844"/>
<path d="M134.659 44.7066H122.04V32.0873L128.35 38.3977L134.659 44.7066Z" fill="#BADFD8"/>
<path d="M134.523 44.4776C134.313 44.2678 134.116 44.0462 133.909 43.8334C133.702 43.6206 133.513 43.4328 133.314 43.2346C133.211 43.1334 133.02 42.9 132.917 42.7944C132.815 42.6887 132.652 42.5332 132.561 42.4348C132.385 42.247 132.398 42.2279 132.22 42.0401L131.692 41.4619C131.508 41.2608 131.313 41.0671 131.124 40.8749L130.59 40.3157C130.398 40.1147 130.211 39.9092 130.003 39.7141C129.764 39.4822 129.522 39.2518 129.278 39.0229C129.059 38.8174 128.855 38.6076 128.654 38.3874C128.331 38.0147 128.02 37.639 127.709 37.2618C127.508 37.0182 127.301 36.779 127.088 36.5384C126.949 36.3813 126.808 36.2243 126.66 36.0717L126.557 35.9675C126.35 35.7635 126.14 35.5639 125.93 35.3643C125.687 35.131 125.442 34.8991 125.197 34.6761L124.051 33.6635L123.515 33.1807L123.108 32.7903L122.291 32.0096L121.823 31.5693C121.835 31.9626 121.848 32.3545 121.86 32.7434C121.86 32.962 121.86 33.1836 121.86 33.4008C121.86 33.596 121.867 33.7926 121.874 33.9878C121.892 34.5029 121.895 35.0151 121.887 35.5404C121.879 36.0981 121.87 36.6528 121.842 37.2075C121.829 37.4688 121.82 37.7241 121.818 37.9897L121.826 38.7602C121.826 39.0375 121.826 39.3164 121.826 39.5937C121.826 39.8711 121.817 40.1382 121.807 40.4126C121.795 40.5462 121.785 40.6782 121.773 40.8118C121.761 40.9453 121.745 41.0979 121.73 41.2418C121.695 41.6218 121.672 42.0078 121.657 42.3967C121.645 42.7151 121.642 43.038 121.642 43.3579C121.642 43.5281 121.642 43.6969 121.654 43.8642L121.664 44.1166V44.2428V44.4644C121.664 44.6596 121.664 44.8504 121.664 45.0514H121.752L122.193 45.0646H122.361H122.508H122.695L123.078 45.0485C123.38 45.0397 123.684 45.0338 123.983 45.0162C124.282 44.9986 124.579 44.9722 124.878 44.9502C125.153 44.9311 125.431 44.9179 125.71 44.9032L126.63 44.8577C126.89 44.8577 127.143 44.8577 127.404 44.8577L128.168 44.8827C128.719 44.8959 129.265 44.9017 129.815 44.9017C130.365 44.9017 130.946 44.8401 131.513 44.846C131.878 44.846 132.247 44.846 132.602 44.8357C133.108 44.8577 133.542 44.755 134.146 44.7638C134.41 44.7638 134.642 44.7491 134.642 44.6978C134.642 44.6464 134.417 44.6332 134.146 44.6347C133.368 44.6347 133.007 44.6082 132.277 44.6024C131.933 44.6024 131.544 44.6317 130.923 44.6317C130.553 44.6317 130.189 44.5877 129.813 44.5892C129.303 44.5892 129.226 44.5965 129.028 44.5789C128.735 44.5525 128.529 44.5114 128.271 44.5055C127.978 44.4982 127.684 44.4967 127.391 44.5055C126.836 44.5231 126.272 44.5319 125.719 44.4982C125.47 44.482 125.217 44.4688 124.965 44.4718C124.687 44.4718 124.416 44.4542 124.139 44.4542C123.861 44.4542 123.588 44.4542 123.309 44.4747C123.067 44.4982 122.821 44.4835 122.576 44.504C122.448 44.5143 122.413 44.5202 122.336 44.5231H122.326C122.29 44.5143 122.254 44.5084 122.218 44.5026L122.238 44.3001V44.2531V44.1636L122.245 43.9757C122.245 43.7028 122.245 43.4313 122.237 43.1598C122.228 42.8883 122.223 42.6242 122.218 42.3571V42.0401L122.226 41.9858C122.267 41.5959 122.279 41.2034 122.262 40.8118C122.262 40.7835 122.259 40.7554 122.251 40.7281C122.251 40.1411 122.251 39.5541 122.265 38.9744C122.265 38.6369 122.284 38.2994 122.295 37.9618L122.331 36.9683C122.359 36.5936 122.386 36.2199 122.411 35.8472C122.447 35.3922 122.452 34.9314 122.466 34.4706C122.473 34.2432 122.466 34.0142 122.455 33.7868C122.455 33.6738 122.442 33.5593 122.436 33.4463L122.426 33.2775V33.1939C122.426 33.1748 122.426 33.1763 122.426 33.1748C122.411 33.1383 122.399 33.1005 122.391 33.0618C122.392 33.0344 122.392 33.007 122.391 32.9796C122.4 32.987 122.407 32.9884 122.414 32.9796C122.422 32.9719 122.43 32.9657 122.44 32.9617C122.45 32.9576 122.461 32.9558 122.471 32.9561C122.516 32.9626 122.558 32.982 122.592 33.0119C122.606 33.0213 122.618 33.0322 122.63 33.0442L122.697 33.1088L122.832 33.2394C122.922 33.326 123.013 33.4125 123.107 33.4933C123.282 33.64 123.469 33.8014 123.632 33.9658L123.898 34.2432C123.984 34.3312 124.08 34.4002 124.169 34.4838L124.555 34.8331C124.793 35.0943 125.029 35.3555 125.274 35.6109C125.52 35.8662 125.738 36.0761 125.977 36.2933L126.52 36.782L126.9 37.1371C127.011 37.2428 127.118 37.3484 127.226 37.457C127.361 37.595 127.492 37.7388 127.622 37.8782L128.462 38.7749C128.733 39.061 129.025 39.3296 129.313 39.5937C129.601 39.8579 129.847 40.1044 130.117 40.3568C130.387 40.6093 130.621 40.8382 130.864 41.0906C131.001 41.2374 131.158 41.3489 131.304 41.4912C131.419 41.6116 131.539 41.726 131.655 41.8434C131.912 42.1017 132.154 42.3703 132.408 42.633C132.543 42.7797 132.675 42.9162 132.817 43.0424C132.96 43.1686 133.076 43.2567 133.193 43.3667C133.396 43.5604 133.594 43.7556 133.793 43.9537C134.015 44.1739 134.206 44.3353 134.426 44.5554C134.511 44.6405 134.614 44.73 134.643 44.7022C134.672 44.6743 134.639 44.5936 134.523 44.4776Z" fill="#063844"/>
<path d="M117.533 64.3641H23.7015C22.7289 64.3641 21.9404 65.1525 21.9404 66.1251V86.189C21.9404 87.1616 22.7289 87.9501 23.7015 87.9501H117.533C118.506 87.9501 119.294 87.1616 119.294 86.189V66.1251C119.294 65.1525 118.506 64.3641 117.533 64.3641Z" fill="#063844"/>
<path d="M119.475 86.6395C119.496 86.5467 119.511 86.4526 119.519 86.3578C119.519 86.2624 119.529 86.1655 119.528 86.0863V85.58L119.536 84.5688L119.563 82.5437C119.583 81.195 119.605 79.8434 119.611 78.4874C119.624 75.9237 119.532 73.4788 119.525 70.9121C119.525 70.259 119.535 69.1731 119.55 68.0871C119.55 67.5441 119.563 67.0011 119.569 66.5125C119.569 66.3906 119.569 66.2718 119.569 66.1573C119.57 66.0315 119.56 65.9059 119.541 65.7816C119.506 65.5661 119.436 65.3575 119.335 65.1638C119.242 64.9941 119.127 64.8376 118.992 64.6986C118.838 64.5432 118.661 64.4125 118.467 64.3112C118.257 64.2023 118.03 64.1317 117.796 64.1028C117.736 64.0947 117.676 64.0903 117.615 64.0896H117.526H117.127C116.281 64.0896 115.438 64.0896 114.83 64.0793C112.472 64.0455 112.608 64.1879 110.25 64.1556C107.868 64.1204 105.501 64.0558 103.121 64.0089C100.651 63.9619 98.1399 63.9678 95.6656 63.9516C93.3176 63.9399 90.9784 63.9105 88.6289 63.8841C86.0886 63.8577 83.5674 63.8063 81.0227 63.821C77.9805 63.8386 74.9369 63.8768 71.8932 63.9193C69.1622 63.956 66.4972 63.9355 63.7823 63.8827C59.2975 63.7359 54.8656 63.5583 50.4439 63.372C47.5779 63.2531 44.6971 63.1636 41.7856 63.0784C39.8778 63.0256 37.948 62.9787 36.0153 62.9669H34.6872L30.6794 62.9919C28.9462 62.9684 27.1793 63.0403 25.4139 63.1298L24.0931 63.1988L23.7629 63.2164L23.5296 63.2325C23.4393 63.2394 23.3496 63.2521 23.261 63.2707C22.736 63.3671 22.2485 63.6088 21.854 63.9683C21.4594 64.3279 21.1736 64.7908 21.0289 65.3047C21.0084 65.3883 20.9893 65.4734 20.9717 65.5571C20.9541 65.6407 20.9482 65.7288 20.938 65.8139C20.9277 65.899 20.9306 65.9841 20.9291 66.0693C20.9275 66.1025 20.9275 66.1358 20.9291 66.1691V66.2498C20.9291 66.467 20.9424 66.69 20.9497 66.8999C20.9497 67.3504 20.938 67.7995 20.9335 68.2544C20.9145 69.0175 20.8983 69.7689 20.8807 70.5203C20.8558 71.6649 20.8807 72.7832 20.9013 73.9102C20.9218 75.0745 20.9428 76.2377 20.9644 77.4C20.9981 80.156 21.0245 82.9238 21.095 85.6519L21.1082 86.1626C21.1128 86.4113 21.1518 86.6583 21.2241 86.8963C21.3711 87.3718 21.6537 87.7941 22.0371 88.1114C22.4166 88.4243 22.8792 88.6197 23.3682 88.6735C23.428 88.6812 23.4883 88.6851 23.5487 88.6852H23.6382H23.7189L23.9743 88.6764L24.4835 88.6588L28.5588 88.5224C31.0668 88.446 33.6071 88.3903 36.1459 88.336L44.5225 88.1511C46.8896 88.1276 49.198 88.1349 51.5666 88.1672L58.5329 88.2611C63.546 88.3169 68.5282 88.3389 73.5369 88.3418C78.6908 88.3418 83.8477 88.0953 89.0119 88.1188C92.3329 88.1335 95.629 88.2655 98.9323 88.2523C103.549 88.3389 107.507 88.1687 112.996 88.2024C115.405 88.2171 117.517 88.1423 117.52 87.9397C117.523 87.7372 115.465 87.6815 112.996 87.6859C105.909 87.6991 102.619 87.341 95.9826 87.3175C92.8318 87.3072 89.3171 87.2617 83.6334 87.2617C80.2581 87.2617 76.9092 87.0842 73.5193 87.0886C68.8657 87.0886 68.1202 87.1165 66.368 87.049C63.6927 86.9462 61.8187 86.776 59.4707 86.7555C56.8115 86.729 54.0937 86.7246 51.4375 86.7555C46.3774 86.823 41.2382 86.8626 36.2002 86.7217C33.9255 86.6586 31.6215 86.6072 29.3322 86.6175C28.0672 86.6175 26.8139 86.6072 25.5621 86.5882L23.6837 86.5617C23.6174 86.5571 23.5533 86.536 23.4973 86.5001C23.4398 86.4639 23.3927 86.4134 23.3608 86.3534C23.3459 86.3245 23.3346 86.294 23.3271 86.2624C23.3271 86.2477 23.3271 86.2301 23.3197 86.2139C23.3204 86.2056 23.3204 86.1973 23.3197 86.189V86.1039C23.3197 85.7884 23.3197 85.4728 23.3197 85.1588C23.3197 84.5287 23.3197 83.9011 23.3197 83.276C23.3197 82.0242 23.2919 80.7812 23.239 79.5074C23.148 77.3061 23.2067 75.0534 23.1231 72.858C23.0849 71.8733 23.0629 70.8827 23.0482 69.8907C23.0482 69.8305 23.0556 69.7733 23.06 69.7131C23.104 68.8913 23.1348 68.0401 23.1598 67.1787C23.1598 66.9644 23.1701 66.7487 23.1759 66.5315L23.1847 66.2072V66.1265C23.1837 66.1162 23.1837 66.1059 23.1847 66.0957C23.1849 66.0798 23.1874 66.0639 23.1921 66.0487C23.2149 65.9301 23.2828 65.825 23.3814 65.7552C23.4414 65.7127 23.5109 65.6854 23.5839 65.676C23.6015 65.676 23.6206 65.676 23.6367 65.676H23.6646H23.716L24.143 65.6848L25.8586 65.7127C28.1494 65.742 28.9609 65.7127 31.0683 65.6525L35.3945 65.5586C36.5128 65.5307 37.6207 65.6085 38.8373 65.5703C41.0004 65.5028 43.1283 65.3399 45.2944 65.2621C46.4156 65.2533 47.5324 65.2489 48.6697 65.2519C50.4307 65.2592 52.1918 65.2959 53.9293 65.3194C57.6598 65.3707 61.3858 65.447 65.1177 65.4867C68.7146 65.5248 72.3247 65.4573 75.8776 65.3883C79.2367 65.3238 82.612 65.3282 85.98 65.2768C89.1366 65.2372 92.3197 65.2093 95.4983 65.2328C97.2975 65.2474 99.0982 65.1066 100.897 65.1256C102.403 65.1418 103.913 65.1256 105.422 65.1256C108.74 65.1256 111.879 64.9789 115.19 65.0009L116.521 65.0126H117.184H117.516H117.621C117.656 65.0126 117.689 65.0244 117.722 65.0273C117.923 65.0678 118.109 65.1619 118.26 65.2997C118.411 65.4374 118.522 65.6136 118.581 65.8095C118.601 65.8747 118.614 65.9415 118.622 66.0091C118.622 66.0458 118.622 66.0693 118.631 66.1192V66.2821C118.669 67.7496 118.914 69.4842 118.938 70.959C118.96 73.514 118.968 76.0469 118.97 78.6092C118.97 80.0386 118.992 81.3183 119.012 82.595C119.023 83.2334 119.032 83.8718 119.042 84.5263C119.042 84.855 119.042 85.1867 119.051 85.5257C119.051 85.6959 119.051 85.8661 119.051 86.0393V86.1684V86.2829C119.045 86.3595 119.033 86.4356 119.015 86.5104C118.96 86.7456 118.855 86.966 118.706 87.1561C118.566 87.3329 118.395 87.4822 118.201 87.5963C117.849 87.8047 117.535 87.8341 117.526 87.9192C117.526 87.972 117.57 88.0116 117.681 88.0381C117.851 88.0635 118.023 88.0499 118.186 87.9984C118.455 87.9199 118.702 87.7785 118.905 87.5861C119.183 87.3327 119.381 87.0037 119.475 86.6395Z" fill="#063844"/>
<path d="M115.737 62.4049H21.9052C20.9326 62.4049 20.1442 63.1933 20.1442 64.1659V84.2299C20.1442 85.2025 20.9326 85.9909 21.9052 85.9909H115.737C116.71 85.9909 117.498 85.2025 117.498 84.2299V64.1659C117.498 63.1933 116.71 62.4049 115.737 62.4049Z" fill="#F7F4F2"/>
<path d="M117.567 84.6541C117.587 84.5666 117.601 84.4778 117.61 84.3885C117.61 84.2989 117.62 84.2094 117.61 84.1272V83.6209V82.6083L117.623 80.5846C117.632 79.2355 117.64 77.8834 117.648 76.5284C117.648 73.9646 117.608 71.5197 117.604 68.9531C117.604 68.3 117.611 67.214 117.617 66.1281C117.617 65.5851 117.617 65.0421 117.626 64.5534C117.626 64.4316 117.626 64.3127 117.626 64.1983C117.627 64.0803 117.618 63.9625 117.599 63.8461C117.551 63.5555 117.435 63.2803 117.261 63.0426C117.086 62.8048 116.859 62.6111 116.597 62.4769C116.403 62.3746 116.191 62.3089 115.973 62.2832C115.758 62.2651 115.541 62.2592 115.325 62.2656H113.029C110.67 62.2479 110.806 62.3198 108.448 62.3037L101.327 62.223C98.8576 62.1995 96.3466 62.2024 93.8724 62.1951L86.8356 62.1614C84.2953 62.1481 81.7741 62.1217 79.2294 62.1291L70.1 62.179C67.3689 62.1966 64.7039 62.179 61.9905 62.1599C57.5057 62.0895 53.0723 61.9985 48.6507 61.9045C45.7846 61.8458 42.9039 61.8003 39.9923 61.7578C38.0845 61.7314 36.1533 61.7079 34.2205 61.702H32.891L28.8846 61.7138C27.15 61.702 25.3831 61.7387 23.6177 61.7827L22.2969 61.818L21.9667 61.8268C21.9198 61.8268 21.8391 61.8268 21.7671 61.837C21.6947 61.8413 21.6226 61.8506 21.5514 61.8649C21.1257 61.9387 20.7294 62.1308 20.4076 62.4191C20.0859 62.7073 19.8516 63.0803 19.7317 63.4953L19.6818 63.7008L19.6524 63.9106C19.6524 63.9796 19.6524 64.0501 19.6436 64.119C19.6436 64.1572 19.6436 64.1821 19.6436 64.21V64.2907C19.6436 64.5079 19.6436 64.731 19.6539 64.9408C19.6539 65.3914 19.6539 65.8404 19.6451 66.2939C19.6363 67.0585 19.6275 67.8099 19.6187 68.5612C19.607 69.7059 19.6187 70.8241 19.6304 71.9512L19.6613 75.441C19.6774 78.197 19.6921 80.9647 19.7258 83.6914V84.2036C19.7314 84.4138 19.7664 84.6223 19.83 84.8228C19.9518 85.2237 20.1873 85.5806 20.508 85.8501C20.827 86.1189 21.2179 86.2883 21.6321 86.3373C21.7325 86.3486 21.8335 86.3535 21.9344 86.352H22.1898L22.699 86.3432L26.7743 86.2742L34.3614 86.1818L42.738 86.0893C45.1052 86.0776 47.4136 86.0805 49.7895 86.0967L56.7558 86.1436C61.7689 86.1715 66.7511 86.1818 71.7598 86.1847C76.9137 86.1847 82.072 86.0614 87.2348 86.0717C90.5558 86.079 93.8518 86.1495 97.1552 86.1392C101.772 86.1832 105.73 86.0981 111.218 86.1143C113.628 86.1143 115.74 86.0849 115.743 85.9836C115.746 85.8824 113.688 85.853 111.218 85.856C104.132 85.856 100.842 85.6828 94.2055 85.6725L81.8563 85.6447C78.481 85.6447 75.1321 85.5551 71.7436 85.5566C67.0886 85.5566 66.3431 85.5713 64.5909 85.5375C61.9156 85.4862 60.0416 85.401 57.6936 85.3908C55.0344 85.3776 52.3166 85.3746 49.6603 85.3908C44.6018 85.4245 39.4611 85.4451 34.4231 85.3746C32.1484 85.3438 29.8459 85.3174 27.5551 85.3233C26.29 85.3233 25.0368 85.3233 23.785 85.3086L21.9066 85.2954C21.715 85.2917 21.5278 85.2377 21.3637 85.1388C21.1996 85.0399 21.0644 84.8995 20.9717 84.7319C20.9275 84.6473 20.894 84.5576 20.872 84.4648C20.8609 84.4164 20.8531 84.3674 20.8485 84.318C20.8485 84.2637 20.8485 84.2373 20.8485 84.1434C20.8485 83.8274 20.8485 83.5123 20.8485 83.1983C20.8485 82.5692 20.8485 81.9416 20.8485 81.3155C20.8485 80.0637 20.8338 78.8207 20.8074 77.5469C20.7619 75.3456 20.7912 73.0929 20.7487 70.8975C20.7232 69.9201 20.7105 68.9364 20.7105 67.9463C20.7105 67.8876 20.7105 67.8304 20.7105 67.7702C20.7325 66.9484 20.7487 66.0973 20.7604 65.2358L20.7692 64.5886V64.2643V64.1836C20.7683 64.165 20.7683 64.1464 20.7692 64.1278C20.7697 64.0929 20.7731 64.058 20.7795 64.0236C20.8187 63.7487 20.9602 63.4987 21.1757 63.3236C21.314 63.2113 21.477 63.1333 21.6512 63.0962C21.6938 63.0844 21.7393 63.0844 21.7833 63.0756H21.93H22.3571L24.0726 63.0888C26.3634 63.1035 27.175 63.0888 29.2823 63.0595L33.61 63.0125C34.7268 62.9978 35.8348 63.036 37.0514 63.0125C39.2145 62.9788 41.3424 62.8966 43.5085 62.8584H46.8838L52.1419 62.8922L63.3303 62.9758C66.9272 62.9949 70.5373 62.9612 74.0902 62.9274L84.1926 62.8716C87.3492 62.8511 90.5338 62.8379 93.711 62.8496C95.5101 62.8496 97.3108 62.7865 99.11 62.7953H103.634C106.954 62.7953 110.091 62.7205 113.402 62.7337H114.733H115.397H115.728C115.818 62.7352 115.908 62.7436 115.997 62.7586C116.306 62.8158 116.588 62.9723 116.8 63.2043C117.011 63.4364 117.142 63.7313 117.171 64.0442C117.171 64.0897 117.171 64.1278 117.171 64.1807V64.3436C117.19 65.8111 117.318 67.5457 117.325 69.0206C117.325 71.574 117.335 74.107 117.341 76.6708C117.341 78.1001 117.351 79.3798 117.362 80.6565C117.362 81.2949 117.372 81.9333 117.376 82.5878C117.376 82.9165 117.376 83.2482 117.376 83.5872C117.376 83.756 117.376 83.9277 117.376 84.1008C117.383 84.2674 117.368 84.4341 117.332 84.5968C117.273 84.85 117.157 85.0864 116.993 85.288C116.841 85.4697 116.655 85.6193 116.444 85.7283C116.061 85.9294 115.738 85.9279 115.731 85.9748C115.724 86.0218 115.775 86.0203 115.878 86.0306C116.04 86.0371 116.201 86.0137 116.355 85.9616C116.607 85.88 116.837 85.7425 117.028 85.5595C117.292 85.3166 117.479 85.0019 117.567 84.6541Z" fill="#063844"/>
<path d="M54.3037 76.8423C53.7124 76.8596 53.1264 76.7273 52.5999 76.4578C52.1431 76.2148 51.7665 75.8448 51.5154 75.3924C51.2586 74.911 51.1293 74.372 51.1397 73.8265C51.1282 73.2766 51.2538 72.7324 51.5051 72.2431C51.7455 71.7885 52.1145 71.4148 52.5661 71.1689C53.0867 70.8973 53.6683 70.7639 54.2552 70.7814C54.6443 70.7787 55.0322 70.8241 55.4102 70.9165C55.7206 70.9886 56.0237 71.0893 56.3156 71.2173L56.1982 72.7655C55.889 72.5795 55.5584 72.4316 55.2135 72.3253C54.9475 72.2436 54.6714 72.1992 54.3932 72.1932C54.1295 72.19 53.869 72.2515 53.6345 72.3722C53.4026 72.4955 53.2122 72.6843 53.0871 72.9152C52.9417 73.1963 52.8714 73.5103 52.8831 73.8265C52.8798 74.1149 52.9384 74.4007 53.0548 74.6645C53.1657 74.9187 53.3496 75.1342 53.5831 75.2838C53.8472 75.4466 54.1536 75.5273 54.4636 75.5157C54.5942 75.5157 54.7175 75.5157 54.8349 75.5024V73.6695H56.4066V76.5561C56.2405 76.6178 56.0691 76.6639 55.8945 76.6941C55.6729 76.7381 55.4234 76.7748 55.1475 76.8027C54.8671 76.8308 54.5855 76.844 54.3037 76.8423Z" fill="#063844"/>
<path d="M58.1617 76.8351C58.0075 76.8452 57.853 76.8203 57.7096 76.7624C57.5663 76.7044 57.438 76.6149 57.3341 76.5005C57.1363 76.2686 57.0317 75.9715 57.0405 75.6669C57.0341 75.4639 57.0774 75.2623 57.1668 75.0799C57.2459 74.9315 57.3566 74.8023 57.4911 74.7013C57.6192 74.607 57.7607 74.5323 57.9108 74.4797C58.0439 74.4336 58.1802 74.3978 58.3188 74.3725L59.4077 74.1891C59.4223 73.9034 59.1778 73.7606 58.6739 73.7606C58.4547 73.7643 58.2366 73.7928 58.0238 73.8457C57.77 73.9063 57.5238 73.9954 57.29 74.1113L57.224 72.8419C57.4859 72.7581 57.7519 72.6876 58.0209 72.6306C58.3779 72.5558 58.742 72.5198 59.1068 72.5234C59.6307 72.5234 60.0416 72.6394 60.3366 72.8727C60.6316 73.1061 60.7769 73.4817 60.7769 74.0042V76.7309H59.5192L59.4179 76.16H59.3152C59.2026 76.3457 59.0527 76.5061 58.875 76.6311C58.6648 76.7728 58.4151 76.8443 58.1617 76.8351ZM58.8353 75.6757C58.9418 75.6733 59.0447 75.6368 59.1288 75.5715C59.2284 75.4971 59.3118 75.4032 59.3739 75.2956V74.6969C59.3256 74.7398 59.2699 74.7737 59.2095 74.7966C59.0927 74.8407 58.9731 74.877 58.8515 74.9052C58.7532 74.9307 58.6632 74.9813 58.5903 75.052C58.5537 75.0889 58.5253 75.133 58.5068 75.1815C58.4884 75.2301 58.4803 75.2819 58.4831 75.3338C58.4781 75.3841 58.4856 75.4349 58.5047 75.4817C58.5239 75.5286 58.5543 75.57 58.5932 75.6023C58.664 75.652 58.7489 75.6777 58.8353 75.6757Z" fill="#063844"/>
<path d="M62.9621 76.8468C62.6599 76.8507 62.3581 76.8247 62.061 76.769C61.839 76.7292 61.622 76.6652 61.4139 76.5782L61.5034 75.3411C61.6982 75.4655 61.9104 75.5605 62.1329 75.6229C62.3528 75.6899 62.5811 75.7255 62.8109 75.7286C62.9211 75.7334 63.0309 75.7133 63.1323 75.6699C63.173 75.6495 63.2066 75.6173 63.2286 75.5775C63.2507 75.5377 63.2601 75.4921 63.2556 75.4468C63.2544 75.3987 63.2382 75.3522 63.2093 75.3137C63.1803 75.2753 63.1401 75.2469 63.0941 75.2325C62.9061 75.1603 62.7128 75.1024 62.5159 75.0594C62.199 74.9988 61.9052 74.8509 61.6677 74.6323C61.4808 74.4195 61.3854 74.1416 61.4021 73.8589C61.3927 73.6753 61.425 73.492 61.4967 73.3227C61.5684 73.1534 61.6775 73.0026 61.816 72.8816C62.0918 72.6448 62.4802 72.5269 62.9811 72.5279C63.5203 72.5248 64.0557 72.6188 64.5616 72.8053L64.4677 74.0585C64.3399 73.9761 64.203 73.9087 64.0598 73.8575C63.9235 73.8076 63.7837 73.7679 63.6415 73.7386C63.5373 73.7159 63.4312 73.7031 63.3245 73.7004C63.2337 73.6965 63.1437 73.7183 63.0648 73.7636C63.0322 73.7839 63.0058 73.8126 62.9882 73.8467C62.9707 73.8808 62.9626 73.919 62.965 73.9573C62.9649 73.9996 62.9746 74.0415 62.9935 74.0794C63.0123 74.1174 63.0398 74.1504 63.0736 74.1759C63.2145 74.2629 63.3702 74.3231 63.5329 74.3535C63.9947 74.4719 64.322 74.6128 64.5147 74.7761C64.6153 74.8665 64.6941 74.9787 64.7449 75.104C64.7958 75.2294 64.8174 75.3647 64.8082 75.4996C64.8146 75.6844 64.779 75.8683 64.704 76.0374C64.6291 76.2065 64.5166 76.3563 64.3753 76.4755C64.0837 76.724 63.6127 76.8478 62.9621 76.8468Z" fill="#063844"/>
<path d="M67.1576 76.8468C66.6812 76.8468 66.307 76.7426 66.035 76.5342C65.7635 76.3273 65.627 75.9633 65.627 75.4468V73.7738H65.0297V72.6423H65.6255V71.3216L67.1268 71.0648V72.6423H68.226V73.7738H67.1283V74.9361C67.1179 75.113 67.1555 75.2894 67.2369 75.4468C67.278 75.5074 67.3348 75.5558 67.4012 75.5868C67.4676 75.6178 67.5411 75.6302 67.614 75.6229C67.7018 75.621 67.7889 75.6062 67.8723 75.5789C67.977 75.5451 68.076 75.4956 68.1658 75.4321L68.2436 76.6443C68.0926 76.72 67.9298 76.7696 67.7623 76.791C67.5625 76.8255 67.3603 76.8442 67.1576 76.8468Z" fill="#063844"/>
<path d="M70.8601 76.8468C70.4137 76.8657 69.9707 76.7605 69.5804 76.543C69.2625 76.3551 69.0072 76.0773 68.8467 75.7447C68.6895 75.4052 68.6088 75.0354 68.6103 74.6614C68.6119 74.2873 68.6955 73.9182 68.8555 73.5801C69.0179 73.2548 69.2733 72.9851 69.5892 72.8052C69.9683 72.6032 70.3941 72.505 70.8234 72.5205C71.2617 72.5051 71.6962 72.6064 72.0825 72.814C72.3998 72.9935 72.6556 73.2646 72.8163 73.5918C72.9798 73.9328 73.0622 74.307 73.057 74.6851C73.0633 75.071 72.9762 75.4526 72.8031 75.7975C72.6375 76.123 72.3791 76.3922 72.0605 76.5709C71.6914 76.7663 71.2775 76.8614 70.8601 76.8468ZM70.8601 75.6229C70.9615 75.6275 71.0621 75.603 71.15 75.5523C71.2379 75.5016 71.3094 75.4268 71.3561 75.3367C71.4661 75.1353 71.5218 74.9087 71.5175 74.6792C71.5336 74.4346 71.4681 74.1915 71.3312 73.988C71.2725 73.9116 71.1965 73.8501 71.1095 73.8087C71.0225 73.7672 70.927 73.747 70.8306 73.7495C70.7343 73.7521 70.6399 73.7775 70.5553 73.8235C70.4706 73.8695 70.398 73.935 70.3435 74.0145C70.2186 74.213 70.1567 74.4448 70.166 74.6792C70.1613 74.9108 70.2229 75.1389 70.3435 75.3367C70.3951 75.4262 70.47 75.5 70.5602 75.5504C70.6503 75.6008 70.7525 75.6258 70.8557 75.6229H70.8601Z" fill="#063844"/>
<path d="M73.6718 76.7279V72.6423L74.9413 72.5733L75.0073 73.2543H75.1291C75.2738 73.0475 75.4566 72.8702 75.6677 72.7318C75.9013 72.5859 76.173 72.5124 76.4484 72.5205C76.6181 72.5102 76.788 72.5369 76.9463 72.5988C77.1047 72.6606 77.2478 72.7561 77.3656 72.8786C77.5813 73.1193 77.6885 73.4788 77.6885 73.9616V76.7279H76.1666V74.4753C76.1757 74.3269 76.1458 74.1786 76.08 74.0453C76.0469 73.9947 76.0005 73.9543 75.9459 73.9284C75.8912 73.9025 75.8305 73.8922 75.7704 73.8985C75.6521 73.8964 75.5367 73.9347 75.4431 74.0071C75.3467 74.0806 75.263 74.1693 75.1951 74.2698V76.7265L73.6718 76.7279Z" fill="#063844"/>
<path d="M80.0483 76.728V70.9078H84.0561V72.2506H81.6978V73.1942H83.9461V74.4137H81.6978V75.3852H84.1075V76.728H80.0483Z" fill="#063844"/>
<path d="M84.5829 76.728L84.8427 76.229L85.054 75.8225C85.1215 75.6948 85.192 75.5584 85.2683 75.4145L85.6895 74.6103L85.2609 73.8766L84.9278 73.2999L84.5477 72.6424L86.2368 72.5984L86.4129 73.0196C86.4672 73.1516 86.523 73.2911 86.5802 73.4349L86.8003 73.9617H86.906L87.1144 73.4422C87.1687 73.2955 87.2201 73.1663 87.2611 73.0445L87.4182 72.6424H89.1322C89.0236 72.8229 88.9297 72.977 88.8505 73.1061L88.6245 73.476C88.5511 73.5919 88.4777 73.721 88.3853 73.8634L87.8951 74.6676L88.3647 75.4307L88.7301 76.0177C88.849 76.2085 88.9928 76.4433 89.1704 76.7206H87.3624C87.3081 76.5856 87.2582 76.4609 87.2157 76.3479C87.1731 76.2349 87.1188 76.1101 87.0689 75.9737L86.8414 75.4028H86.7475L86.5465 75.9414C86.4922 76.0881 86.4437 76.2143 86.3997 76.3273C86.3557 76.4403 86.3087 76.5724 86.253 76.7206L84.5829 76.728Z" fill="#063844"/>
<path d="M89.6445 78.3407V72.6423L90.9873 72.5733L91.0327 73.1442H91.1501C91.2595 72.9456 91.4224 72.7819 91.6204 72.6716C91.8185 72.5613 92.0435 72.5089 92.2699 72.5205C92.5888 72.5117 92.9005 72.6156 93.1504 72.814C93.3961 73.0194 93.5804 73.2885 93.6831 73.5918C93.8061 73.9445 93.8662 74.316 93.8607 74.6895C93.8638 75.0501 93.8068 75.4087 93.6919 75.7505C93.5928 76.0585 93.4129 76.3342 93.1709 76.5488C92.9206 76.7567 92.6024 76.8649 92.2772 76.8526C92.0677 76.857 91.8608 76.8064 91.677 76.7059C91.5055 76.6104 91.3556 76.4805 91.2367 76.3243H91.156V78.2966L89.6445 78.3407ZM91.6726 75.5773C91.7692 75.5815 91.865 75.5584 91.9491 75.5106C92.0332 75.4629 92.1021 75.3924 92.1481 75.3073C92.2546 75.1238 92.3093 74.9149 92.3066 74.7027C92.3117 74.4873 92.2563 74.2747 92.1466 74.0893C92.0985 74.0064 92.0286 73.9384 91.9445 73.8926C91.8604 73.8467 91.7653 73.8249 91.6697 73.8295C91.5718 73.826 91.4747 73.8469 91.387 73.8905C91.2993 73.9341 91.224 73.9989 91.1678 74.079V75.2383C91.212 75.3338 91.279 75.417 91.3629 75.4805C91.4523 75.5468 91.5614 75.5809 91.6726 75.5773Z" fill="#063844"/>
<path d="M94.4814 76.7279V72.6423L95.7509 72.5733L95.8169 73.2748H95.9387C96.0446 73.0246 96.2243 72.8127 96.4538 72.6673C96.6224 72.5739 96.8114 72.5235 97.0041 72.5205C97.069 72.5211 97.1337 72.5265 97.1978 72.5366C97.2747 72.5466 97.3498 72.5674 97.4209 72.5983L97.2903 74.0658L96.9821 74.057H96.7018C96.5602 74.055 96.4203 74.0873 96.2938 74.1509C96.1572 74.2269 96.0529 74.35 96.0003 74.4972V76.7293L94.4814 76.7279Z" fill="#063844"/>
<path d="M99.9713 76.8468C99.5082 76.8655 99.0477 76.7702 98.63 76.5694C98.3028 76.4012 98.038 76.1328 97.8742 75.8034C97.707 75.4527 97.6241 75.0677 97.632 74.6793C97.6251 74.2945 97.7007 73.9127 97.8536 73.5596C97.9934 73.2419 98.2276 72.975 98.5243 72.795C98.8708 72.6002 99.2645 72.5052 99.6617 72.5206C100.249 72.5206 100.701 72.6673 101.019 72.9608C101.337 73.2543 101.498 73.7205 101.502 74.3594C101.502 74.4738 101.502 74.5736 101.492 74.6529C101.486 74.7385 101.476 74.8237 101.461 74.9082H99.1025C99.1164 75.0106 99.1513 75.1089 99.2051 75.1971C99.2589 75.2852 99.3304 75.3613 99.4151 75.4204C99.641 75.5536 99.9019 75.6155 100.164 75.5979C100.357 75.5928 100.55 75.5697 100.739 75.529C100.963 75.488 101.181 75.4179 101.387 75.3206L101.437 76.5826C101.24 76.6605 101.036 76.72 100.828 76.7602C100.546 76.8175 100.259 76.8465 99.9713 76.8468ZM99.6778 73.5288C99.6053 73.5295 99.5338 73.5458 99.4682 73.5767C99.4026 73.6076 99.3444 73.6523 99.2977 73.7078C99.1773 73.858 99.1074 74.0424 99.0981 74.2346L100.184 74.2023C100.188 74.0272 100.136 73.8553 100.037 73.7107C99.9975 73.6523 99.9438 73.6045 99.8811 73.5717C99.8184 73.539 99.7486 73.5222 99.6778 73.5229V73.5288Z" fill="#063844"/>
<path d="M103.559 76.8468C103.258 76.8508 102.956 76.8247 102.66 76.769C102.438 76.7292 102.221 76.6652 102.013 76.5782L102.102 75.3411C102.297 75.4659 102.509 75.5608 102.732 75.6229C102.951 75.6899 103.179 75.7255 103.408 75.7286C103.519 75.7332 103.629 75.7131 103.731 75.6699C103.772 75.6495 103.805 75.6172 103.827 75.5774C103.849 75.5375 103.858 75.4919 103.853 75.4468C103.852 75.3988 103.836 75.3523 103.808 75.3139C103.779 75.2754 103.739 75.247 103.693 75.2325C103.505 75.1605 103.312 75.1026 103.115 75.0594C102.798 74.9984 102.503 74.8505 102.265 74.6323C102.079 74.419 101.985 74.1414 102.001 73.8589C101.992 73.6753 102.024 73.492 102.096 73.3227C102.167 73.1534 102.276 73.0026 102.415 72.8816C102.691 72.6448 103.079 72.5269 103.58 72.5279C104.119 72.5248 104.655 72.6188 105.161 72.8053L105.067 74.0585C104.938 73.9761 104.801 73.9087 104.657 73.8575C104.521 73.8076 104.381 73.7679 104.239 73.7386C104.135 73.716 104.03 73.7032 103.923 73.7004C103.833 73.696 103.742 73.718 103.664 73.7636C103.631 73.7839 103.605 73.8126 103.587 73.8467C103.57 73.8808 103.562 73.919 103.564 73.9573C103.564 73.9996 103.574 74.0415 103.592 74.0794C103.611 74.1174 103.639 74.1504 103.672 74.1759C103.813 74.2629 103.969 74.3231 104.132 74.3535C104.594 74.4719 104.921 74.6128 105.114 74.7761C105.214 74.8667 105.293 74.9789 105.343 75.1042C105.394 75.2295 105.416 75.3647 105.407 75.4996C105.412 75.685 105.375 75.8691 105.299 76.0381C105.223 76.2072 105.109 76.3567 104.967 76.4755C104.679 76.724 104.21 76.8478 103.559 76.8468Z" fill="#063844"/>
<path d="M107.381 76.8468C107.079 76.8508 106.777 76.8247 106.48 76.769C106.258 76.7292 106.041 76.6653 105.833 76.5783L105.924 75.3412C106.118 75.4659 106.329 75.5609 106.552 75.6229C106.772 75.69 107 75.7255 107.23 75.7286C107.34 75.7334 107.45 75.7134 107.551 75.6699C107.592 75.6496 107.625 75.6174 107.647 75.5775C107.669 75.5377 107.679 75.4921 107.674 75.4468C107.673 75.3987 107.657 75.3522 107.628 75.3138C107.599 75.2753 107.559 75.247 107.513 75.2326C107.325 75.1601 107.132 75.1022 106.935 75.0594C106.618 74.9988 106.324 74.8509 106.087 74.6323C105.9 74.4196 105.804 74.1417 105.821 73.859C105.811 73.6754 105.844 73.492 105.915 73.3227C105.987 73.1534 106.096 73.0026 106.235 72.8816C106.512 72.6453 106.9 72.5279 107.409 72.5279C107.717 72.5258 108.024 72.5558 108.326 72.6175C108.551 72.6625 108.773 72.7253 108.988 72.8053L108.894 74.0586C108.766 73.9762 108.629 73.9087 108.486 73.8575C108.35 73.8076 108.21 73.7679 108.068 73.7386C107.963 73.7159 107.857 73.7031 107.751 73.7005C107.66 73.6963 107.571 73.7182 107.492 73.7636C107.459 73.7835 107.432 73.812 107.415 73.8462C107.397 73.8804 107.389 73.9188 107.391 73.9573C107.391 73.9997 107.401 74.0415 107.42 74.0794C107.439 74.1174 107.466 74.1504 107.5 74.176C107.641 74.2626 107.796 74.3228 107.959 74.3535C108.421 74.4719 108.748 74.6128 108.941 74.7762C109.042 74.8666 109.12 74.9787 109.171 75.104C109.222 75.2294 109.244 75.3647 109.234 75.4996C109.24 75.6851 109.203 75.8693 109.127 76.0384C109.051 76.2075 108.937 76.357 108.794 76.4755C108.503 76.724 108.031 76.8478 107.381 76.8468Z" fill="#063844"/>
<path d="M35.3417 80.7225C39.2864 80.7225 42.4841 77.8007 42.4841 74.1965C42.4841 70.5922 39.2864 67.6704 35.3417 67.6704C31.3971 67.6704 28.1993 70.5922 28.1993 74.1965C28.1993 77.8007 31.3971 80.7225 35.3417 80.7225Z" fill="#BADFD8"/>
<path d="M42.496 74.1965C42.3096 74.1965 42.3258 74.446 42.3023 74.8569C42.2064 75.6964 41.9257 76.5043 41.4805 77.2225C41.0377 77.932 40.458 78.5461 39.7752 79.0291C38.4035 79.9887 36.733 80.424 35.0674 80.2559C34.3025 80.1966 33.5463 80.0549 32.8118 79.8333C32.0882 79.6155 31.4065 79.2771 30.7955 78.8324C30.2239 78.4094 29.7424 77.8765 29.3793 77.2651C29.0115 76.6453 28.7673 75.96 28.6602 75.2472C28.528 74.3273 28.612 73.3892 28.9053 72.5074C29.2065 71.6188 29.691 70.8033 30.3273 70.1138C30.976 69.4136 31.8076 68.9089 32.7282 68.6566C33.6367 68.4135 34.5767 68.3086 35.5165 68.3455C36.3608 68.3497 37.2004 68.4711 38.0113 68.7065C38.8485 68.95 39.6268 69.3631 40.2977 69.9201C40.4283 70.039 40.5677 70.1505 40.6895 70.2767L41.0461 70.6656C41.1562 70.8021 41.256 70.9459 41.3616 71.0854L41.4394 71.1925L41.5054 71.3055L41.6375 71.5315C41.9853 72.1511 42.2091 72.8324 42.2964 73.5376C42.3155 73.8678 42.3258 74.195 42.4667 74.1965C42.6516 74.1965 42.6134 73.9353 42.5841 73.5053C42.5606 73.3585 42.5371 73.2118 42.5151 73.0753L42.4813 72.8611C42.4667 72.7906 42.4461 72.7216 42.4285 72.6512L42.3228 72.233C42.2788 72.0965 42.226 71.9629 42.1761 71.8264C42.0762 71.557 41.9601 71.2938 41.8283 71.0384C41.7652 70.9092 41.6815 70.7918 41.6111 70.6671C41.5399 70.542 41.461 70.4214 41.3748 70.3061C41.2087 70.0702 41.0252 69.847 40.826 69.6384C40.7247 69.5356 40.6308 69.4226 40.5207 69.3287L40.1891 69.0455C40.1318 69 40.079 68.9486 40.0188 68.9075L39.8383 68.7843L39.4729 68.5421L39.0811 68.3381L38.883 68.2398C38.8169 68.2075 38.7465 68.1855 38.6775 68.1576C37.7926 67.7935 36.8609 67.5554 35.9098 67.4503C34.9797 67.3418 34.0372 67.4421 33.1508 67.7438C33.0173 67.7966 32.8867 67.8465 32.7575 67.8905C32.6284 67.9346 32.5007 67.9654 32.3818 68.0182C32.263 68.0711 32.1397 68.1077 32.0194 68.1474C31.8992 68.185 31.7811 68.2291 31.6657 68.2794L31.3164 68.4262C31.2577 68.4511 31.199 68.4732 31.1418 68.501L30.973 68.592C30.7347 68.7117 30.5094 68.8558 30.3009 69.022C29.8159 69.409 29.3984 69.8737 29.0652 70.3971C28.9008 70.6539 28.7495 70.9189 28.6118 71.191L28.5017 71.3994C28.4623 71.4684 28.4275 71.54 28.3975 71.6137C28.3344 71.7604 28.2669 71.9072 28.1935 72.0642C27.8604 72.8746 27.7534 73.7601 27.8839 74.6265C28.0102 75.4776 28.2708 76.3033 28.6558 77.0728C29.0123 77.8175 29.4838 78.5014 30.0529 79.0995C30.623 79.69 31.2839 80.1854 32.0106 80.567C33.5003 81.3641 35.2301 81.5885 36.8739 81.1981C37.6385 81.0086 38.3793 80.734 39.0826 80.3792C39.7924 80.0152 40.4163 79.5039 40.9126 78.8794C41.1141 78.6222 41.3008 78.3537 41.4717 78.0752C41.5568 77.9387 41.6258 77.7919 41.705 77.6525L41.8195 77.4412L41.9163 77.2196C42.1875 76.6274 42.378 76.0016 42.4828 75.3588L42.5929 74.8965C42.6119 74.5502 42.6369 74.195 42.496 74.1965Z" fill="#063844"/>
<path d="M31.4631 73.9587L34.2337 76.7294L39.2424 71.7193" fill="#BADFD8"/>
<path d="M31.466 73.9543C31.3354 74.0864 31.4411 74.151 31.582 74.2919C31.9997 74.7192 32.3946 75.1684 32.7648 75.6376L33.3298 76.3523L33.4765 76.5313L33.5484 76.6194L33.6747 76.7661L34.2382 77.3986L35.035 76.6737C35.1818 76.5416 35.3286 76.408 35.4753 76.2701C35.7631 75.9996 36.0328 75.7103 36.2824 75.4042C37.1982 74.2728 38.0317 73.1487 39.125 72.0553C39.2395 71.9409 39.3569 71.8337 39.2586 71.734C39.1265 71.6033 39.0619 71.709 38.921 71.8499C38.2445 72.5264 37.6003 73.2044 36.8372 73.7577C36.1085 74.2716 35.4126 74.8304 34.7533 75.4307C34.6332 75.5449 34.5278 75.6736 34.4392 75.8137L34.3189 76.003C34.3189 76.003 34.3072 76.0221 34.3072 76.025V76.05C34.3054 76.0625 34.3025 76.0747 34.2984 76.0866C34.2837 76.1292 34.2543 76.1542 34.2323 76.1542C34.2062 76.1057 34.1955 76.0504 34.2015 75.9957C34.2015 75.9854 34.2015 75.981 34.2015 75.9707C34.2015 75.9604 34.1575 75.9076 34.134 75.8783C34.0864 75.8169 34.0339 75.7594 33.977 75.7066C33.3694 75.1562 32.5094 74.8348 31.899 74.2845C31.8549 74.2244 31.8226 74.1539 31.7801 74.0937C31.673 73.9734 31.5702 73.8545 31.466 73.9543Z" fill="#063844"/>
<path d="M117.533 95.6619H23.7015C22.7289 95.6619 21.9404 96.4503 21.9404 97.4229V117.487C21.9404 118.459 22.7289 119.248 23.7015 119.248H117.533C118.506 119.248 119.294 118.459 119.294 117.487V97.4229C119.294 96.4503 118.506 95.6619 117.533 95.6619Z" fill="#063844"/>
<path d="M119.475 117.939C119.496 117.846 119.511 117.751 119.519 117.656C119.519 117.56 119.529 117.463 119.528 117.384V116.878L119.536 115.867L119.563 113.843C119.583 112.493 119.605 111.141 119.611 109.787C119.624 107.222 119.532 104.778 119.525 102.21C119.525 101.557 119.535 100.471 119.55 99.385C119.55 98.842 119.563 98.3005 119.569 97.8103C119.569 97.6885 119.569 97.5696 119.569 97.4552C119.57 97.3294 119.56 97.2037 119.541 97.0795C119.506 96.8644 119.436 96.6563 119.335 96.4631C119.242 96.2929 119.127 96.136 118.992 95.9964C118.838 95.8411 118.66 95.7104 118.466 95.609C118.257 95.5006 118.03 95.4305 117.796 95.4021C117.736 95.3928 117.676 95.3879 117.615 95.3874H117.526H117.127C116.281 95.3874 115.438 95.3874 114.83 95.3771C112.472 95.3434 112.608 95.4857 110.25 95.4535C107.868 95.4197 105.501 95.3551 103.121 95.3067C100.651 95.2597 98.1398 95.2656 95.6656 95.2509C93.3176 95.2377 90.9783 95.2099 88.6288 95.182C86.0886 95.1556 83.5673 95.1042 81.0227 95.1189C77.9805 95.1379 74.9369 95.1761 71.8932 95.2172C69.1622 95.2539 66.4971 95.2348 63.7822 95.1805C59.2975 95.0338 54.8656 94.8576 50.4439 94.6698C47.5778 94.5509 44.6971 94.4614 41.7855 94.3763C39.8778 94.3235 37.948 94.278 36.0152 94.2648H34.6871L30.6793 94.2912C28.9462 94.2662 27.1793 94.3381 25.4139 94.4277L24.0931 94.4966L23.7629 94.5142C23.7233 94.5142 23.6161 94.523 23.5296 94.5319C23.4393 94.5375 23.3495 94.5497 23.261 94.5685C22.7368 94.6669 22.2505 94.9097 21.8569 95.2696C21.4633 95.6295 21.1781 96.0921 21.0333 96.6055C21.0128 96.6891 20.9937 96.7742 20.9761 96.8593C20.9585 96.9445 20.9526 97.0296 20.9423 97.1147C20.932 97.1998 20.935 97.2864 20.9335 97.3715C20.9318 97.4043 20.9318 97.4371 20.9335 97.4698V97.552C20.9335 97.7692 20.9467 97.9923 20.9541 98.2021C20.9482 98.6512 20.9428 99.1022 20.9379 99.5552C20.9188 100.318 20.9027 101.07 20.8851 101.821C20.8601 102.967 20.8851 104.084 20.9056 105.212C20.9262 106.375 20.9472 107.538 20.9687 108.701C21.0025 111.457 21.0289 114.226 21.0993 116.953L21.1125 117.465C21.1169 117.714 21.156 117.961 21.2285 118.199C21.3758 118.674 21.6583 119.097 22.0415 119.415C22.4211 119.728 22.8837 119.922 23.3725 119.976C23.4324 119.983 23.4927 119.987 23.553 119.988H23.6426H23.7233L23.9786 119.979L24.4878 119.963L28.5632 119.825C31.0712 119.748 33.6114 119.693 36.1502 119.64L44.5269 119.456C46.894 119.434 49.2024 119.44 51.571 119.472L58.5373 119.566C63.5504 119.622 68.5326 119.644 73.5412 119.649C78.6952 119.649 83.8521 119.402 89.0163 119.424C92.3373 119.439 95.6333 119.571 98.9367 119.558C103.554 119.644 107.511 119.474 113 119.508C115.41 119.522 117.521 119.447 117.524 119.246C117.527 119.045 115.47 118.987 113 118.991C105.913 119.006 102.623 118.646 95.987 118.624C92.8362 118.612 89.3215 118.568 83.6378 118.568C80.2625 118.568 76.9136 118.389 73.5236 118.394C68.8701 118.394 68.1246 118.422 66.3724 118.354C63.6971 118.251 61.8231 118.081 59.475 118.061C56.8159 118.034 54.098 118.03 51.4418 118.061C46.3818 118.128 41.2425 118.168 36.2045 118.027C33.9299 117.964 31.6259 117.912 29.3365 117.924C28.0715 117.924 26.8183 117.912 25.5665 117.893L23.688 117.867C23.6217 117.864 23.5574 117.843 23.5017 117.807C23.4448 117.77 23.3979 117.719 23.3652 117.66C23.3505 117.631 23.3392 117.601 23.3314 117.569C23.3314 117.553 23.3314 117.537 23.3241 117.521C23.3248 117.512 23.3248 117.503 23.3241 117.494V117.411C23.3241 117.094 23.3241 116.778 23.3241 116.464C23.3241 115.835 23.3241 115.208 23.3241 114.583C23.3241 113.329 23.2962 112.079 23.2434 110.813C23.1524 108.611 23.2111 106.359 23.1275 104.165C23.0893 103.178 23.0673 102.189 23.0526 101.196C23.0526 101.136 23.0599 101.078 23.0644 101.018C23.1084 100.196 23.1392 99.3453 23.1641 98.4839C23.1641 98.2696 23.1744 98.0539 23.1803 97.8382L23.1891 97.5139V97.4331C23.1881 97.4224 23.1881 97.4116 23.1891 97.4009C23.1893 97.3849 23.1917 97.3691 23.1964 97.3539C23.2151 97.2591 23.2629 97.1725 23.3331 97.1063C23.4034 97.04 23.4926 96.9972 23.5883 96.9841C23.6059 96.9841 23.6249 96.9841 23.6411 96.9841H23.669H23.7203L24.1474 96.9929L25.8629 97.0222C28.1537 97.0501 28.9653 97.0222 31.0726 96.9606L35.3989 96.8682C36.5171 96.8403 37.6251 96.9166 38.8417 96.8784C41.0048 96.8124 43.1327 96.6495 45.2988 96.5702C46.42 96.5614 47.5367 96.557 48.6741 96.56C50.4351 96.56 52.1961 96.6055 53.9337 96.6275C57.6641 96.6788 61.3902 96.7552 65.1221 96.7948C68.719 96.8329 72.3291 96.7654 75.8819 96.6979C79.2411 96.6333 82.6164 96.6363 85.9844 96.5849C89.141 96.5453 92.3241 96.5189 95.5027 96.5409C97.3019 96.5556 99.1025 96.4162 100.902 96.4338C102.407 96.4499 103.917 96.4338 105.426 96.4338C108.744 96.4338 111.883 96.287 115.194 96.309L116.525 96.3208H117.188H117.52H117.626C117.661 96.3208 117.693 96.3325 117.727 96.3369C117.996 96.3889 118.237 96.539 118.402 96.7581C118.484 96.8659 118.546 96.9877 118.585 97.1176C118.605 97.1828 118.619 97.2496 118.626 97.3172C118.626 97.3554 118.626 97.3774 118.635 97.4273V97.5916C118.673 99.0592 118.918 100.794 118.942 102.269C118.964 104.822 118.973 107.355 118.974 109.919C118.974 111.348 118.996 112.626 119.017 113.903C119.027 114.542 119.036 115.18 119.046 115.836C119.046 116.163 119.046 116.495 119.055 116.834C119.055 117.004 119.055 117.176 119.055 117.349V117.478V117.591C119.049 117.668 119.037 117.744 119.02 117.819C118.965 118.054 118.859 118.275 118.71 118.466C118.571 118.643 118.4 118.792 118.205 118.906C117.853 119.114 117.539 119.144 117.53 119.229C117.53 119.283 117.574 119.321 117.686 119.348C117.855 119.374 118.028 119.36 118.191 119.308C118.46 119.229 118.706 119.088 118.91 118.896C119.188 118.639 119.384 118.306 119.475 117.939Z" fill="#063844"/>
<path d="M115.737 93.7028H21.9052C20.9326 93.7028 20.1442 94.4912 20.1442 95.4638V115.528C20.1442 116.5 20.9326 117.289 21.9052 117.289H115.737C116.71 117.289 117.498 116.5 117.498 115.528V95.4638C117.498 94.4912 116.71 93.7028 115.737 93.7028Z" fill="#F7F4F2"/>
<path d="M117.567 115.953C117.587 115.866 117.601 115.777 117.61 115.688C117.61 115.597 117.62 115.507 117.61 115.425V114.919V113.908L117.623 111.884C117.632 110.534 117.64 109.182 117.648 107.828C117.648 105.262 117.608 102.818 117.604 100.251C117.604 99.5978 117.611 98.5118 117.617 97.4259C117.617 96.8829 117.617 96.3399 117.626 95.8512C117.626 95.7294 117.626 95.6105 117.626 95.4961C117.627 95.3781 117.618 95.2603 117.599 95.1439C117.565 94.9436 117.5 94.7499 117.406 94.5701C117.32 94.4093 117.213 94.2611 117.087 94.1298C116.943 93.9852 116.778 93.8634 116.597 93.7688C116.403 93.6665 116.191 93.6009 115.973 93.5751C115.758 93.5577 115.541 93.5519 115.325 93.5575H113.029C110.67 93.5413 110.806 93.6118 108.448 93.5956L101.319 93.5237C98.8488 93.5002 96.3378 93.5032 93.8636 93.4958L86.8268 93.4621C84.2866 93.4489 81.7654 93.4225 79.2207 93.4298L70.0912 93.4797C67.3602 93.4973 64.6951 93.4885 61.9817 93.4621C57.4969 93.3902 53.0636 93.2992 48.6419 93.2053C45.7758 93.1466 42.8951 93.1025 39.9835 93.0585C38.0758 93.0321 36.1445 93.0101 34.2118 93.0042H32.891L28.8847 93.0174C27.1501 93.0042 25.3832 93.0409 23.6177 93.0849L22.297 93.1201L21.9668 93.1289C21.9198 93.1289 21.8391 93.1289 21.7672 93.1392C21.6948 93.1442 21.6227 93.1535 21.5515 93.1671C21.1248 93.2413 20.7275 93.434 20.405 93.723C20.0825 94.0121 19.8477 94.3859 19.7273 94.8019L19.6774 95.0074L19.6481 95.2172C19.6481 95.2862 19.6481 95.364 19.6393 95.4256C19.6393 95.4638 19.6393 95.4902 19.6393 95.5166V95.5988C19.6393 95.816 19.6393 96.039 19.6496 96.2489C19.6496 96.698 19.6496 97.147 19.6407 97.602C19.6319 98.3651 19.6231 99.1164 19.6143 99.8678C19.6026 101.012 19.6143 102.131 19.6261 103.259L19.6569 106.748C19.673 109.504 19.6877 112.273 19.7215 114.999V115.512C19.7234 115.72 19.7545 115.928 19.8139 116.128C19.9363 116.529 20.1717 116.885 20.4919 117.155C20.8114 117.423 21.2021 117.592 21.616 117.641C21.7164 117.652 21.8173 117.657 21.9183 117.657H22.1737L22.6829 117.648L26.7582 117.579L34.3453 117.487L42.7219 117.394C45.089 117.383 47.3975 117.386 49.7734 117.402L56.7397 117.449C61.7528 117.477 66.735 117.488 71.7436 117.49C76.8976 117.49 82.0559 117.367 87.2187 117.378C90.5397 117.378 93.8357 117.455 97.1391 117.444C101.756 117.488 105.714 117.403 111.202 117.419C113.612 117.419 115.724 117.39 115.727 117.289C115.73 117.188 113.672 117.16 111.202 117.161C104.116 117.161 100.826 116.989 94.1894 116.978L81.8402 116.95C78.4649 116.95 75.116 116.86 71.7275 116.863C67.0725 116.863 66.327 116.876 64.5748 116.843C61.8995 116.791 60.0255 116.706 57.6774 116.696C55.0183 116.683 52.3004 116.681 49.6442 116.696C44.5857 116.73 39.445 116.749 34.407 116.678C32.1323 116.647 29.8298 116.621 27.5389 116.627C26.2739 116.627 25.0207 116.627 23.7689 116.612L21.8905 116.599C21.6991 116.595 21.5121 116.541 21.3481 116.443C21.184 116.344 21.0487 116.204 20.9556 116.037C20.9116 115.952 20.8781 115.862 20.8559 115.768C20.8448 115.72 20.837 115.671 20.8324 115.622C20.8324 115.569 20.8324 115.541 20.8324 115.449C20.8324 115.132 20.8324 114.816 20.8324 114.502C20.8324 113.873 20.8324 113.245 20.8324 112.619C20.8324 111.367 20.8177 110.117 20.7913 108.851C20.7458 106.649 20.7751 104.397 20.7326 102.203C20.715 101.216 20.7027 100.227 20.6959 99.2338C20.6959 99.1737 20.6959 99.1164 20.6959 99.0563C20.7179 98.2345 20.734 97.3833 20.7458 96.5219L20.7546 95.8762V95.5518V95.4696C20.7536 95.4511 20.7536 95.4325 20.7546 95.4139C20.755 95.3789 20.7585 95.3441 20.7649 95.3097C20.8045 95.0349 20.9459 94.785 21.1611 94.6097C21.2994 94.4973 21.4623 94.4193 21.6366 94.3822C21.6791 94.3705 21.7246 94.3705 21.7687 94.3617H21.9154H22.3425L24.058 94.3763C26.3488 94.391 27.1603 94.3763 29.2677 94.3455L33.5954 94.2986C34.7122 94.2854 35.8202 94.3235 37.0367 94.2986C39.1999 94.2648 41.3278 94.1841 43.4938 94.1518H46.8691L52.1273 94.187L63.3157 94.2692C66.9126 94.2883 70.5227 94.256 74.0755 94.2208L84.178 94.165C87.3346 94.1445 90.5191 94.1313 93.6963 94.143C95.4955 94.143 97.2961 94.0799 99.0953 94.0887H103.62C106.939 94.0887 110.077 94.0139 113.388 94.0271H114.719H115.382H115.714C115.804 94.0286 115.893 94.037 115.982 94.052C116.245 94.1027 116.489 94.2256 116.687 94.407C116.884 94.5884 117.028 94.8212 117.1 95.0793C117.125 95.1642 117.141 95.2511 117.149 95.339C117.149 95.3845 117.149 95.4242 117.149 95.4755V95.6384C117.168 97.1059 117.296 98.8405 117.303 100.315C117.303 102.87 117.313 105.403 117.319 107.966C117.319 109.395 117.329 110.675 117.34 111.951C117.34 112.59 117.35 113.228 117.354 113.883C117.354 114.211 117.354 114.543 117.354 114.882C117.354 115.052 117.354 115.223 117.354 115.396C117.361 115.562 117.346 115.729 117.31 115.892C117.251 116.145 117.135 116.381 116.971 116.583C116.819 116.765 116.633 116.914 116.422 117.023C116.039 117.224 115.716 117.223 115.709 117.27C115.702 117.317 115.753 117.315 115.856 117.325C116.018 117.332 116.179 117.309 116.333 117.256C116.585 117.175 116.815 117.038 117.006 116.854C117.278 116.615 117.473 116.302 117.567 115.953Z" fill="#063844"/>
<path d="M83.3253 109.146V108.118C83.0378 108.09 82.7528 108.041 82.4726 107.972C82.244 107.919 82.0212 107.843 81.8078 107.746L81.9208 106.425C82.1968 106.573 82.4894 106.688 82.7925 106.767C83.063 106.843 83.3421 106.885 83.6232 106.89C83.8005 106.901 83.977 106.858 84.1295 106.767C84.1938 106.718 84.244 106.654 84.275 106.579C84.306 106.505 84.3167 106.424 84.306 106.344C84.2952 106.264 84.2634 106.189 84.2138 106.125C84.1642 106.062 84.0986 106.013 84.0238 105.983C83.782 105.875 83.5323 105.787 83.2768 105.717C82.9829 105.642 82.6994 105.531 82.433 105.386C82.2118 105.265 82.0272 105.086 81.8988 104.869C81.766 104.619 81.7017 104.339 81.7125 104.056C81.6983 103.636 81.8387 103.225 82.1072 102.901C82.3694 102.595 82.7754 102.409 83.3253 102.342V101.473H84.4362V102.371C84.6693 102.407 84.9001 102.456 85.1274 102.518C85.318 102.566 85.5045 102.63 85.685 102.708L85.575 104.047C85.3265 103.901 85.0602 103.788 84.7825 103.71C84.5488 103.641 84.307 103.603 84.0634 103.598C83.8977 103.592 83.7334 103.63 83.5879 103.71C83.5297 103.75 83.4823 103.804 83.4501 103.867C83.4179 103.93 83.4017 104 83.4032 104.071C83.4046 104.142 83.4236 104.211 83.4584 104.273C83.4932 104.335 83.5428 104.387 83.6026 104.425C83.8057 104.533 84.021 104.617 84.2439 104.675C84.6051 104.77 84.9539 104.907 85.2829 105.083C85.5113 105.205 85.7002 105.389 85.8274 105.615C85.9431 105.854 85.999 106.117 85.9903 106.382C86.0064 106.793 85.8741 107.196 85.6175 107.517C85.368 107.81 84.9728 108.002 84.4318 108.092V109.146H83.3253Z" fill="#063844"/>
<path d="M86.5216 108.027V106.982C86.661 106.865 86.799 106.749 86.9384 106.634L87.3552 106.293C87.7649 105.961 88.1468 105.596 88.4969 105.202C88.7502 104.939 88.8985 104.592 88.9137 104.226C88.9137 103.802 88.6691 103.589 88.1799 103.589C87.9064 103.594 87.6367 103.654 87.3875 103.767C87.1167 103.885 86.8573 104.028 86.6126 104.194L86.482 102.707C86.7792 102.583 87.0866 102.485 87.4007 102.414C87.7655 102.326 88.1394 102.283 88.5145 102.283C89.1671 102.283 89.6665 102.436 90.0128 102.743C90.1879 102.904 90.325 103.102 90.4146 103.322C90.5042 103.543 90.5439 103.78 90.5309 104.018C90.5257 104.455 90.3992 104.882 90.1655 105.252C89.8614 105.717 89.4696 106.119 89.012 106.435L88.6774 106.689H90.5852V108.029L86.5216 108.027Z" fill="#063844"/>
<path d="M90.9387 109.308C91.2322 108.809 91.3792 108.238 91.3628 107.659V106.485L92.0276 106.423C92.1413 106.431 92.2521 106.463 92.352 106.517C92.4519 106.572 92.5386 106.648 92.6058 106.74C92.7282 106.929 92.7902 107.15 92.7834 107.374C92.7852 107.648 92.7244 107.919 92.6058 108.165C92.4926 108.405 92.3442 108.626 92.1656 108.821C92.0097 108.995 91.8344 109.151 91.6431 109.285L90.9387 109.308Z" fill="#063844"/>
<path d="M95.7096 108.142C95.3158 108.153 94.9246 108.075 94.565 107.914C94.2618 107.772 93.9994 107.556 93.8019 107.286C93.6017 107.006 93.4576 106.69 93.3778 106.356C93.2869 105.984 93.242 105.602 93.2442 105.218C93.2354 104.701 93.3199 104.186 93.4937 103.698C93.6425 103.279 93.9172 102.915 94.2803 102.658C94.6936 102.389 95.1806 102.257 95.6729 102.279C96.1704 102.257 96.6625 102.389 97.0818 102.658C97.4478 102.914 97.7256 103.278 97.8772 103.698C98.2182 104.686 98.2156 105.761 97.8698 106.748C97.7143 107.163 97.4364 107.521 97.0729 107.775C96.6669 108.034 96.1909 108.162 95.7096 108.142ZM95.6935 106.847C95.8352 106.851 95.9743 106.809 96.0891 106.725C96.204 106.642 96.2883 106.524 96.3289 106.388C96.4611 106.011 96.5228 105.613 96.5109 105.214C96.5267 104.809 96.4608 104.405 96.3172 104.025C96.2719 103.895 96.1871 103.782 96.0745 103.701C95.962 103.621 95.8272 103.578 95.6891 103.578C95.5509 103.578 95.4162 103.621 95.3036 103.701C95.1911 103.782 95.1063 103.895 95.061 104.025C94.9194 104.404 94.854 104.806 94.8688 105.21C94.8559 105.609 94.9187 106.007 95.0537 106.384C95.0947 106.522 95.1805 106.642 95.2977 106.726C95.4149 106.81 95.5568 106.853 95.7008 106.847H95.6935Z" fill="#063844"/>
<path d="M101.192 108.142C100.799 108.153 100.407 108.075 100.048 107.914C99.7444 107.773 99.4818 107.557 99.2846 107.286C99.0845 107.006 98.9401 106.69 98.8591 106.356C98.7687 105.983 98.7243 105.601 98.727 105.218C98.7175 104.701 98.802 104.185 98.9765 103.698C99.1248 103.279 99.399 102.915 99.7616 102.657C100.176 102.389 100.663 102.257 101.156 102.279C101.653 102.257 102.145 102.389 102.565 102.657C102.93 102.914 103.208 103.278 103.36 103.698C103.536 104.183 103.621 104.695 103.612 105.211C103.623 105.735 103.534 106.256 103.351 106.747C103.197 107.163 102.919 107.521 102.556 107.775C102.149 108.033 101.674 108.162 101.192 108.142ZM101.176 106.847C101.318 106.851 101.457 106.809 101.571 106.726C101.686 106.642 101.77 106.524 101.81 106.388C101.943 106.011 102.005 105.613 101.992 105.214C102.008 104.809 101.942 104.404 101.798 104.025C101.754 103.895 101.669 103.781 101.557 103.701C101.444 103.62 101.309 103.577 101.171 103.577C101.033 103.577 100.898 103.62 100.786 103.701C100.673 103.781 100.589 103.895 100.544 104.025C100.401 104.403 100.336 104.806 100.352 105.21C100.339 105.609 100.401 106.007 100.535 106.384C100.576 106.521 100.661 106.64 100.777 106.724C100.893 106.808 101.033 106.851 101.176 106.847Z" fill="#063844"/>
<path d="M106.675 108.142C106.281 108.152 105.889 108.075 105.529 107.914C105.226 107.772 104.963 107.556 104.766 107.286C104.566 107.006 104.422 106.69 104.342 106.356C104.252 105.984 104.209 105.603 104.212 105.221C104.204 104.704 104.288 104.189 104.462 103.701C104.611 103.281 104.885 102.918 105.249 102.66C105.662 102.392 106.15 102.259 106.643 102.282C107.14 102.259 107.631 102.392 108.05 102.66C108.416 102.917 108.694 103.28 108.845 103.701C109.189 104.688 109.189 105.763 108.845 106.75C108.69 107.166 108.413 107.524 108.05 107.778C107.64 108.038 107.16 108.165 106.675 108.142ZM106.657 106.847C106.798 106.852 106.937 106.81 107.052 106.729C107.167 106.647 107.252 106.53 107.294 106.395C107.426 106.018 107.488 105.62 107.476 105.221C107.492 104.816 107.426 104.412 107.283 104.033C107.237 103.902 107.152 103.789 107.04 103.709C106.927 103.629 106.793 103.586 106.654 103.586C106.516 103.586 106.382 103.629 106.269 103.709C106.156 103.789 106.072 103.902 106.026 104.033C105.885 104.411 105.819 104.813 105.834 105.217C105.821 105.616 105.884 106.015 106.019 106.391C106.061 106.526 106.146 106.644 106.261 106.727C106.377 106.809 106.516 106.851 106.657 106.847Z" fill="#063844"/>
<path d="M35.3417 112.022C39.2864 112.022 42.4841 109.1 42.4841 105.496C42.4841 101.891 39.2864 98.9697 35.3417 98.9697C31.3971 98.9697 28.1993 101.891 28.1993 105.496C28.1993 109.1 31.3971 112.022 35.3417 112.022Z" fill="#BADFD8"/>
<path d="M42.4959 105.496C42.3095 105.496 42.3257 105.744 42.3022 106.155C42.2063 106.994 41.9256 107.802 41.4804 108.52C41.0384 109.23 40.4585 109.845 39.7751 110.327C38.4035 111.286 36.7329 111.722 35.0673 111.554C34.3025 111.495 33.5463 111.354 32.8117 111.132C32.0882 110.914 31.4066 110.575 30.7954 110.13C30.2238 109.707 29.7423 109.174 29.3792 108.563C29.0114 107.943 28.7672 107.258 28.6601 106.545C28.528 105.625 28.6119 104.687 28.9052 103.805C29.206 102.915 29.6905 102.097 30.3272 101.406C30.9764 100.706 31.8079 100.202 32.7281 99.95C33.6364 99.7056 34.5765 99.6002 35.5164 99.6374C36.3607 99.6416 37.2003 99.763 38.0112 99.9984C38.848 100.243 39.626 100.656 40.2976 101.212C40.4282 101.332 40.5676 101.442 40.6894 101.57L41.046 101.958C41.1561 102.094 41.2559 102.238 41.3615 102.379L41.4393 102.484L41.5053 102.597L41.6374 102.825C41.9852 103.444 42.209 104.125 42.2963 104.829C42.3154 105.16 42.3257 105.488 42.4666 105.49C42.6515 105.49 42.6133 105.227 42.584 104.797C42.5605 104.65 42.537 104.504 42.515 104.367L42.4812 104.153C42.4666 104.082 42.446 104.006 42.4284 103.943L42.3227 103.525C42.2787 103.388 42.2259 103.255 42.176 103.118C42.0764 102.849 41.9602 102.587 41.8282 102.332C41.7651 102.201 41.6814 102.084 41.611 101.96C41.5398 101.835 41.4609 101.714 41.3747 101.598C41.2086 101.362 41.0251 101.139 40.8259 100.93C40.7246 100.828 40.6307 100.716 40.5206 100.621L40.189 100.337C40.1317 100.292 40.0789 100.241 40.0187 100.201L39.847 100.085L39.4816 99.8414L39.0898 99.6447L38.8917 99.5449C38.8256 99.5126 38.7552 99.4906 38.6862 99.4627C37.8013 99.0986 36.8696 98.8605 35.9185 98.7554C34.9885 98.647 34.0459 98.7472 33.1595 99.0489C33.026 99.1032 32.8954 99.1516 32.7663 99.1957C32.6371 99.2397 32.5094 99.2705 32.3906 99.3219C32.2717 99.3732 32.1484 99.4114 32.0281 99.4525C31.9077 99.489 31.7896 99.5326 31.6744 99.5831L31.3251 99.7298C31.2664 99.7548 31.2077 99.7768 31.1505 99.8047L30.9817 99.8957C30.7434 100.016 30.5181 100.16 30.3096 100.327C29.825 100.713 29.4079 101.177 29.0754 101.699C28.9287 101.96 28.7526 102.21 28.622 102.493L28.5119 102.702C28.4725 102.771 28.4377 102.842 28.4077 102.916C28.3446 103.063 28.2771 103.209 28.2037 103.366C27.8706 104.177 27.7636 105.062 27.8941 105.929C28.0206 106.78 28.2811 107.606 28.666 108.376C29.0205 109.119 29.4889 109.801 30.0543 110.399C30.6231 110.989 31.2831 111.485 32.009 111.866C33.4987 112.663 35.2286 112.888 36.8724 112.497C37.6369 112.308 38.3778 112.033 39.081 111.678C39.7908 111.314 40.4147 110.803 40.911 110.179C41.1125 109.922 41.2992 109.654 41.4701 109.376C41.5552 109.238 41.6242 109.091 41.7034 108.952L41.8179 108.74L41.9148 108.52C42.1857 107.928 42.3762 107.301 42.4812 106.658L42.5913 106.196C42.6118 105.841 42.6368 105.494 42.4959 105.496Z" fill="#063844"/>
<path d="M31.4631 105.257L34.2337 108.027L39.2424 103.019" fill="#BADFD8"/>
<path d="M31.466 105.252C31.3354 105.384 31.4411 105.449 31.582 105.591C32.0001 106.018 32.3949 106.467 32.7648 106.937L33.3298 107.65L33.4765 107.829L33.5484 107.919L33.6747 108.065L34.2382 108.698L35.035 107.973C35.1818 107.841 35.3286 107.707 35.4753 107.569C35.7631 107.299 36.0328 107.01 36.2824 106.704C37.1982 105.572 38.0317 104.448 39.125 103.355C39.2395 103.242 39.3569 103.133 39.2586 103.033C39.1265 102.903 39.0619 103.008 38.921 103.151C38.2445 103.827 37.6003 104.504 36.8372 105.058C36.1097 105.571 35.4147 106.128 34.7562 106.727C34.6362 106.841 34.5307 106.97 34.4422 107.11L34.3218 107.301C34.3174 107.307 34.3135 107.314 34.3101 107.321V107.346C34.3085 107.359 34.3056 107.371 34.3013 107.383C34.2866 107.426 34.2573 107.451 34.2352 107.451C34.2091 107.402 34.1984 107.347 34.2044 107.292C34.2044 107.282 34.2044 107.277 34.2044 107.267L34.1369 107.175C34.0897 107.113 34.0371 107.056 33.9799 107.004C33.3723 106.453 32.5124 106.124 31.9019 105.581C31.8579 105.522 31.8256 105.45 31.783 105.39C31.673 105.273 31.5702 105.154 31.466 105.252Z" fill="#063844"/>
</svg>
