<svg width="164" height="164" viewBox="0 0 164 164" fill="none" xmlns="http://www.w3.org/2000/svg">
<path d="M29.952 136.242C74.3798 138.189 141.142 136.608 141.142 136.608C141.142 136.608 141.386 89.1796 136.26 36.4054L30.3406 39.3882C30.3406 39.3882 33.2488 113.742 22.0187 134.903" fill="#BADFD8"/>
<path d="M23.3227 132.754C24.4165 130.11 25.3091 127.386 25.9931 124.608C26.6397 121.975 27.1635 119.315 27.6003 116.642C27.706 115.96 27.9111 114.91 28.0899 113.854C28.2686 112.798 28.4458 111.743 28.5407 111.066C28.7054 109.782 28.9728 107.517 29.1204 106.247C29.4173 103.769 29.5075 103.752 29.7686 101.277C30.0266 98.7771 30.28 96.2929 30.4898 93.7902C30.7074 91.193 30.8457 88.5493 30.981 85.9428C31.1084 83.4648 31.2297 81.0055 31.3323 78.5306C31.4411 75.8544 31.5545 73.1984 31.5841 70.5144C31.6167 67.3086 31.6027 64.0996 31.5639 60.8922C31.5281 58.0132 31.5328 55.2053 31.5545 52.3433C31.5939 50.1606 31.6322 47.9883 31.6696 45.8263C31.6851 44.7432 31.7001 43.6627 31.7146 42.5848L31.724 41.7748V41.3706V41.2157C31.7234 41.2085 31.7234 41.2013 31.724 41.194V41.1367C31.7411 40.9819 31.7597 40.858 31.7768 40.748C31.8794 40.7573 31.9758 40.7712 32.0612 40.7821L32.1903 40.8022H32.2198H32.5851L33.7244 40.8115L36.0077 40.8239H40.6039C42.6246 40.8239 44.6592 40.81 46.7016 40.765L48.1005 40.7279C50.9061 40.6411 53.6962 40.5312 56.4738 40.4181C59.7208 40.2958 62.9569 40.1688 66.162 40.0015L80.8428 39.2039L87.7611 38.8586L93.1749 38.6572C95.7551 38.5659 98.3151 38.4497 100.886 38.3335L112.842 37.7776C114.566 37.7156 116.279 37.663 118.012 37.6134C119.902 37.5607 121.786 37.4771 123.668 37.3919C125.759 37.3052 127.854 37.2267 129.954 37.1565L133.109 37.0589L135.728 36.9893C135.779 37.5778 135.831 38.174 135.884 38.7703C136.109 41.4279 136.341 44.0824 136.546 46.7369C136.751 49.3914 136.911 52.0444 137.07 54.6958C137.14 55.9456 137.209 57.183 137.281 58.4251C137.352 59.6672 137.436 60.9124 137.519 62.1746L137.789 65.859L138.039 69.5465C138.128 70.8691 138.218 72.1995 138.307 73.5298C138.395 74.8602 138.462 76.1951 138.535 77.524C138.666 80.1428 138.796 82.7369 138.87 85.362C138.891 86.6413 138.907 87.9112 138.916 89.1858C138.916 89.8755 138.916 90.5626 138.916 91.2472C138.916 91.9317 138.916 92.6188 138.916 93.3085C138.916 95.136 138.93 96.9723 138.958 98.8173C138.986 100.662 139.011 102.518 139.034 104.383C139.065 105.907 139.096 107.442 139.128 108.979C139.159 110.515 139.205 112.053 139.244 113.578C139.283 115.211 139.34 116.831 139.4 118.433C139.459 120.036 139.519 121.645 139.578 123.255C139.609 124.47 139.617 125.664 139.612 126.885C139.612 127.687 139.599 128.477 139.586 129.267C139.571 130.47 139.614 131.644 139.636 132.829L139.675 134.542L139.69 134.895L139.7 135.076V135.192V135.22L139.452 135.239H139.323H139.291H139.204L138.935 135.248L136.78 135.319C135.345 135.367 133.917 135.418 132.495 135.474L123.887 135.883C121.245 135.996 118.559 136.095 115.878 136.177C112.924 136.27 109.991 136.377 107.033 136.456C104.534 136.499 102.097 136.516 99.5866 136.495L92.2299 136.431L84.3027 136.382L76.3834 136.338C70.9431 136.304 65.4921 136.523 60.041 136.417L49.5678 136.276C47.1322 136.193 44.8675 136.196 42.4878 136.224C41.2972 136.234 40.0785 136.247 38.7947 136.244C37.5108 136.241 36.1632 136.199 34.7145 136.137C32.1732 136.025 29.9427 136.016 29.9287 136.222C29.9147 136.428 32.083 136.569 34.6959 136.663L43.8572 137.007C45.197 137.058 46.5213 137.119 47.9497 137.162L52.6625 137.288C53.4956 137.306 54.3505 137.317 55.2614 137.323L56.6712 137.333H58.1835C60.2788 137.333 62.7082 137.332 65.7112 137.365C69.2738 137.393 72.813 137.605 76.3942 137.617C81.3122 137.617 82.1002 137.604 83.9515 137.678C86.7788 137.785 88.759 137.949 91.2351 137.971C94.0454 137.998 96.9162 137.98 99.7249 137.932C105.07 137.833 110.5 137.743 115.825 137.823C118.229 137.864 120.663 137.878 123.084 137.836C125.756 137.785 128.378 137.825 131.047 137.779C133.715 137.732 136.347 137.706 139.022 137.542L139.285 137.526L139.656 137.511L140.433 137.48L141.978 137.425C141.978 136.33 141.967 135.231 141.961 134.134C141.95 133.317 141.935 132.502 141.9 131.694C141.852 130.656 141.818 129.614 141.798 128.567C141.798 128.505 141.798 128.443 141.807 128.381C141.874 126.649 141.89 124.791 141.896 122.982C141.896 121.8 141.907 120.594 141.896 119.386C141.888 118.077 141.852 116.772 141.815 115.466C141.778 114.161 141.731 112.858 141.674 111.559C141.563 108.996 141.482 106.423 141.363 103.862C141.321 102.849 141.279 101.838 141.237 100.829C141.237 100.653 141.248 100.478 141.254 100.301C141.319 98.4751 141.266 96.5841 141.198 94.6838C141.13 92.7835 141.025 90.877 140.935 89.0186C140.924 88.7519 140.897 88.486 140.854 88.2225C140.716 85.4209 140.592 82.6223 140.439 79.8223C140.287 77.0222 140.167 74.2174 140.001 71.4081C139.818 68.1681 139.69 64.9406 139.487 61.7022C139.394 60.1132 139.303 58.5253 139.213 56.9383L139.145 55.7474L139.067 54.5595L138.911 52.1838L138.632 46.7927C138.528 44.9972 138.424 43.2038 138.321 41.4124C138.267 40.5544 138.213 39.6928 138.158 38.8276C138.142 38.6108 138.127 38.3939 138.113 38.1771C138.085 37.8302 138.058 37.4833 138.03 37.1348C137.96 36.2903 137.89 35.4431 137.822 34.5934L134.186 34.6677L132.183 34.7002L128.162 34.7684C123.769 34.8396 119.369 35.1138 115.068 35.343L109.754 35.6388C107.473 35.6976 105.091 35.7085 102.841 35.8726C100.354 36.0538 97.9514 36.3729 95.4318 36.5014C93.0366 36.6222 90.6134 36.6563 88.2259 36.8019C86.0327 36.9412 83.667 37.0853 81.4412 37.1457L77.7465 37.2169C76.5606 37.2479 75.4399 37.3501 74.2632 37.4012L69.2691 37.6537C65.876 37.68 62.4813 37.7017 59.0757 37.7683C55.9406 37.8287 52.7542 37.9433 49.658 38.0919L42.637 38.4466L37.6724 38.6727C36.2067 38.73 34.7549 38.7765 33.2736 38.8137L29.8012 38.8833C29.8137 39.4393 29.8277 39.9938 29.8401 40.5451C29.8494 41.0299 29.8587 41.5146 29.8665 41.9963C29.9271 45.9176 29.9194 49.8375 29.9178 53.7666C29.9178 57.547 29.9893 61.3429 30.0313 65.08C30.0717 68.6111 30.0126 72.1607 29.9753 75.7027C29.9302 79.0216 29.8463 82.3622 29.6644 85.7074C29.565 87.5953 29.6069 89.494 29.4795 91.3819C29.366 92.9616 29.2821 94.5475 29.1686 96.1287C28.9106 99.6087 28.5329 103.058 28.1256 106.519C27.908 108.378 27.6516 110.213 27.4464 112.026C27.2785 113.563 27.1184 115.2 26.8884 116.731C26.4672 119.38 25.9636 121.997 25.334 124.608C25.146 125.335 24.9874 126.027 24.804 126.693L24.5413 127.681C24.4481 128.004 24.3553 128.327 24.2631 128.649C23.8793 129.981 23.4221 131.291 22.8937 132.573C22.7849 132.84 22.659 133.109 22.5502 133.371C22.4974 133.503 22.443 133.631 22.3948 133.753C22.3466 133.876 22.2922 133.992 22.2394 134.1C22.0559 134.536 21.9518 134.855 22.0186 134.901C22.0855 134.947 22.2689 134.791 22.4974 134.424C22.8128 133.888 23.0886 133.33 23.3227 132.754Z" fill="#063844"/>
<path d="M77.3066 38.7826C76.458 34.7977 77.1015 30.8717 80.7262 28.4975C82.6893 27.2229 85.1561 26.6638 87.4674 27.2074C90.0585 27.8022 92.3465 29.8403 92.9931 32.4189C93.436 34.553 93.1858 36.715 92.8096 38.8291C92.1009 36.8854 91.79 34.776 90.8838 32.93C90.3233 31.9919 89.517 31.2235 88.5515 30.7073C87.586 30.1911 86.4976 29.9465 85.4032 29.9998C83.3689 30.1155 81.4582 31.01 80.0703 32.4963C78.5579 34.1689 78.0076 36.6361 77.3066 38.7826Z" fill="#063844"/>
<path d="M29.8494 39.416C63.3719 38.479 101.638 38.1848 135.161 37.2478C135.161 37.2478 136.429 46.41 136.871 48.6805L30.9965 51.1817L29.8494 39.416Z" fill="#063844"/>
<path d="M29.8401 41.7391C30.0966 44.372 30.2769 47.0048 30.5209 49.6454C30.551 49.9551 30.5805 50.2597 30.6095 50.5591C30.6417 50.8781 30.6743 51.1941 30.7075 51.5069L32.4685 51.445L33.925 51.383C34.8964 51.3427 35.8694 51.3025 36.8627 51.2762C38.145 51.2421 41.1309 51.2297 42.4132 51.2003C43.6194 51.1693 45.7426 51.1104 46.9348 51.0996C49.2539 51.0795 49.1109 50.9447 51.4331 50.9169C53.7553 50.889 56.0961 50.906 58.4401 50.8967C60.8679 50.8874 63.3331 50.8239 65.7641 50.7821C68.0739 50.7403 70.3712 50.714 72.6794 50.6876C75.1741 50.6551 77.6533 50.6505 80.1527 50.5761C83.1401 50.4863 86.1291 50.3763 89.1181 50.2664C91.8009 50.1657 94.4184 50.1239 97.0873 50.1115C101.495 50.1518 105.854 50.2354 110.203 50.3237C113.021 50.3779 115.853 50.4027 118.721 50.4166C120.595 50.4244 122.493 50.4275 124.391 50.3949L125.697 50.3671L129.632 50.2463C130.831 50.2354 132.043 50.1766 133.258 50.0914L135.083 49.9582L138.234 49.7816C138.135 49.3181 138.038 48.8534 137.942 48.3878C137.845 47.9325 137.752 47.4849 137.673 47.0497C137.618 46.7792 137.566 46.5097 137.517 46.2413C137.469 45.9935 137.422 45.7457 137.376 45.4994C137.314 45.0658 137.253 44.6306 137.197 44.1908C137.101 43.4505 137.017 42.721 136.93 41.9916C136.795 40.8796 136.611 39.8017 136.439 38.7114L136.261 37.5886L136.053 36.1947L134.513 36.252L133.349 36.3C130.644 36.4069 127.925 36.506 125.249 36.6392L117.242 37.0899C114.78 37.2231 112.287 37.3268 109.794 37.4337L101.568 37.779C99.2369 37.8456 96.9753 37.8813 94.6392 37.889L87.8001 37.9122C82.8743 37.9401 77.9782 38.0021 73.0587 38.0841C67.9946 38.1693 62.9306 38.5147 57.8587 38.589C54.5946 38.637 51.3538 38.5627 48.1083 38.651C43.5712 38.6618 39.6853 38.9235 34.2933 39.0289C31.9261 39.0769 29.8526 39.2085 29.8557 39.4145C29.8588 39.6205 31.8763 39.6251 34.3073 39.5554C41.2677 39.3634 44.5069 39.6576 51.0274 39.543C54.1221 39.4888 57.5743 39.4671 63.159 39.3634C66.4714 39.303 69.7666 39.4253 73.0975 39.3634C77.6688 39.2767 78.4025 39.2426 80.1232 39.2829C82.7547 39.3433 84.5981 39.4842 86.9016 39.4672C89.5145 39.4501 92.1864 39.4083 94.7946 39.3262C99.7685 39.1713 104.814 39.0366 109.768 39.0815C112.004 39.1001 114.275 39.1078 116.52 39.049C119.007 38.9809 121.445 39.0134 123.928 38.9514C126.41 38.8895 128.858 38.8585 131.345 38.6819C131.984 38.637 132.627 38.6061 133.271 38.5813L133.754 38.5627H133.875H133.958L134.062 38.5534L134.078 38.62L134.087 38.6556V38.6742V38.6727L134.098 38.7408C134.168 39.1791 134.241 39.6158 134.32 40.051C134.494 41.0019 134.657 41.9585 134.81 42.9208L134.824 43.0943C134.895 43.898 134.979 44.7297 135.088 45.5722C135.141 45.9919 135.195 46.4147 135.243 46.8375L135.285 47.155L135.296 47.234V47.2712V47.2897C135.296 47.3068 135.296 47.3223 135.296 47.3362C135.293 47.3495 135.289 47.3624 135.284 47.3749C135.255 47.369 135.226 47.3607 135.198 47.3501H135.184C135.184 47.3501 135.184 47.3501 135.169 47.3501H134.928H134.283C132.032 47.3734 131.235 47.4167 129.166 47.5329L124.918 47.7296C123.82 47.7838 122.731 47.7296 121.537 47.7977C119.412 47.9154 117.326 48.1323 115.206 48.2623C114.106 48.2964 113.008 48.3274 111.892 48.3506C110.169 48.3831 108.437 48.3862 106.726 48.4033C103.061 48.4373 99.397 48.4466 95.7303 48.4931C92.1957 48.538 88.6518 48.6898 85.1608 48.8416C81.864 48.9856 78.547 49.0615 75.2394 49.1916C72.14 49.3046 69.0127 49.4068 65.89 49.4564C64.1227 49.4843 62.357 49.6686 60.5897 49.6918C59.11 49.7104 57.6256 49.7615 56.1458 49.794C52.8817 49.8653 49.8103 50.1038 46.5524 50.1487C44.8069 50.1766 43.0676 50.1828 41.3609 50.2679C39.9154 50.3407 38.2212 50.6303 36.7741 50.6892L31.2841 50.8441C31.239 50.3794 31.1909 49.904 31.1442 49.4301C30.8707 46.6424 30.5722 44.4509 30.3018 41.6865C30.1976 40.6178 30.0127 39.4114 29.851 39.4083C29.6381 39.4114 29.6987 40.2802 29.8401 41.7391Z" fill="#063844"/>
<path d="M36.788 59.3823C36.9325 64.2654 37.5962 71.0364 37.7408 75.9211C37.7703 76.8813 37.7905 77.4311 38.4573 78.1095C39.1552 78.8203 41.2241 78.7723 42.2095 78.7661C47.2969 78.7367 52.3843 77.9778 57.4701 77.9499C58.0141 75.1916 56.4737 59.2104 56.5841 59.1391C50.5222 59.0276 42.8515 59.4922 36.788 59.3823Z" fill="#063844"/>
<path d="M38.0782 59.63C39.5517 59.6393 41.0314 59.7849 42.5018 59.6811C44.9421 59.4937 45.1162 59.74 46.5151 59.6982C47.2255 59.6749 48.8824 59.6904 49.5927 59.6765C50.2595 59.6594 51.5512 59.424 52.2118 59.4349H52.4652C53.0605 59.4457 53.6604 59.4953 54.2589 59.5572C54.8231 59.6238 55.5925 59.7121 55.7293 59.7942C55.7666 59.8088 55.803 59.8259 55.8381 59.8453C55.8521 59.8561 55.8723 59.8608 55.8769 59.8747C55.8816 59.8887 55.8614 59.932 55.8536 59.9568C55.8319 60.0327 55.8132 60.0977 55.793 60.1504L55.7775 60.1876C55.7715 60.2021 55.7668 60.2171 55.7635 60.2325L55.751 60.2851C55.751 60.3161 55.751 60.3672 55.7433 60.4075C55.7246 60.7482 55.7091 61.0874 55.7013 61.4203C55.6807 62.0705 55.6932 62.7213 55.7386 63.3702C55.8536 64.8539 56.1427 66.2957 56.3339 67.7608C56.5064 69.1113 56.6448 70.4788 56.7769 71.8479C56.9121 73.3563 57.052 74.8539 57.0878 76.3516C57.0878 76.5064 57.0878 76.6613 57.0878 76.8162C57.0878 76.9215 57.0878 77.0129 57.0769 77.1042C57.052 77.2699 57.1033 77.5518 56.8484 77.4728H56.4194H56.1785L55.2055 77.4868C53.9299 77.5095 52.6589 77.5544 51.3927 77.6215C48.657 77.7671 45.9602 77.9886 43.2619 78.0505C42.9137 78.0505 42.5718 78.0675 42.2329 78.0861L41.2304 78.1372C40.6082 78.1837 39.9827 78.1624 39.3652 78.0737C39.2921 78.0598 39.2268 78.0412 39.1569 78.0257L38.9672 77.9622L38.8849 77.922C38.8574 77.9122 38.8317 77.8981 38.8087 77.8801L38.7388 77.8352C38.7123 77.8166 38.6844 77.7872 38.6564 77.764C38.4375 77.5781 38.2686 77.3407 38.1652 77.0733C38.0706 76.7722 38.0182 76.4594 38.0098 76.144C37.9896 75.8064 37.9709 75.4564 37.9616 75.1064C37.9103 73.299 37.901 70.4912 37.7564 68.7024C37.674 66.195 37.2901 64.7888 37.1611 61.8153C37.1067 60.5097 36.9963 59.3714 36.7896 59.3745C36.5829 59.3776 36.5565 60.4989 36.6342 61.8416C36.8456 65.6855 36.945 67.4696 37.1424 71.0704C37.1922 71.9222 37.2342 72.8251 37.2746 73.8984C37.2917 74.4342 37.3103 75.0135 37.3305 75.65C37.343 75.9675 37.3305 76.3004 37.374 76.6814C37.3914 76.887 37.4288 77.0903 37.486 77.2885C37.5511 77.5076 37.6474 77.7162 37.772 77.908C37.8448 78.0199 37.9248 78.1269 38.0113 78.2286C38.0533 78.2797 38.0984 78.3246 38.1419 78.3726C38.195 78.4273 38.251 78.479 38.3098 78.5275C38.5328 78.6985 38.7829 78.8315 39.0496 78.9209C39.5214 79.0741 40.008 79.1779 40.5014 79.2306C40.9786 79.2864 41.4526 79.3143 41.9174 79.3282C42.3821 79.3421 42.85 79.3437 43.3163 79.3282C44.5955 79.2926 45.3369 79.2368 45.8747 79.212C46.4125 79.1873 46.7561 79.1718 47.2363 79.1749C48.7052 79.1749 49.7388 79.2662 51.0103 79.1935C52.4543 79.1129 53.92 79.0154 55.3469 78.9209L58.0717 78.766H58.182H58.238C58.2443 78.7491 58.2479 78.7314 58.2489 78.7133L58.2862 78.4919L58.3546 78.0567C58.3779 77.9127 58.3934 77.764 58.4121 77.6169C58.4307 77.4697 58.4385 77.3071 58.4432 77.1646C58.4478 77.0222 58.4587 76.8549 58.4587 76.7852V76.5142V75.9799C58.4587 74.5659 58.4229 73.1782 58.4245 71.7983C58.4245 70.5593 58.3996 69.2971 58.3033 68.0535C58.1976 66.6798 58.1867 65.3262 58.0748 63.9587C58.0095 63.1688 57.9193 62.3558 57.8043 61.5597C57.7484 61.1602 57.6909 60.7668 57.6302 60.3842L57.6085 60.2402L57.5976 60.169L57.5836 60.0606C57.5634 59.8964 57.5447 59.7322 57.5261 59.5712V59.5386C57.5261 59.5294 57.5261 59.5139 57.5012 59.5185H57.1095C56.8702 59.5433 56.937 59.4612 56.9075 59.4132L56.8235 59.1158C56.808 59.0508 56.7893 58.9827 56.78 58.9315L56.665 58.7132C56.5888 58.5738 56.5096 58.4452 56.4412 58.3337L55.8085 58.3632L55.5086 58.3786H55.4355H55.3889L55.2956 58.3879L54.5884 58.4607C54.1376 58.5072 53.7319 58.5599 53.3791 58.6001C52.6734 58.6853 52.1854 58.755 51.9988 58.755C51.0289 58.755 50.0637 58.7411 49.1171 58.8092C48.3151 58.8665 47.3716 58.8588 46.568 58.9037C45.1784 58.961 43.7997 59.0043 42.4039 59.0322C40.8496 59.0632 39.6201 59.1639 38.0766 59.1561C37.4797 59.1561 36.802 59.1902 36.7881 59.3497C36.7694 59.5805 37.2544 59.6223 38.0782 59.63Z" fill="#063844"/>
<path d="M61.1975 59.3823C61.3529 64.2654 62.026 72.7401 62.1752 77.6232C62.2032 78.5849 77.1606 77.4915 82.3661 77.4683C82.9225 74.71 81.3464 59.6983 81.4583 59.6301C75.2519 59.5186 67.4693 59.5604 61.2519 59.4489" fill="#063844"/>
<path d="M62.542 59.6982C64.0108 59.7199 65.4812 59.9042 66.9501 59.8314C69.3919 59.7121 69.5567 59.9661 70.954 59.9661C71.6644 59.9661 73.3166 60.0312 74.027 60.0358C74.6938 60.0358 75.9901 59.8376 76.6492 59.8608L76.9025 59.8686C77.5709 59.898 78.2439 59.9646 78.9138 60.0498C79.2496 60.0931 79.5837 60.1411 79.9179 60.1907L80.1682 60.2279L80.2304 60.2372C80.2477 60.239 80.2648 60.2421 80.2817 60.2465L80.3469 60.265C80.4309 60.2898 80.5024 60.3146 80.5739 60.3394C80.6049 60.3551 80.635 60.3727 80.664 60.392C80.6749 60.4013 80.6889 60.4075 80.6935 60.4199C80.6982 60.4323 80.6765 60.4695 80.6687 60.4927C80.6547 60.5453 80.6376 60.597 80.6174 60.6476C80.6103 60.6667 80.602 60.6853 80.5925 60.7033L80.5801 60.7281C80.579 60.7316 80.579 60.7354 80.5801 60.739V60.7963C80.5676 61.106 80.5583 61.4018 80.5552 61.6992C80.5552 62.2923 80.5552 62.8715 80.6096 63.4322C80.734 64.9128 81.0339 66.35 81.2313 67.8104C81.4117 69.1578 81.5624 70.5222 81.6977 71.8866C81.8344 73.3905 81.9805 74.8881 81.9914 76.3686C81.9914 76.4786 81.9914 76.5855 81.9805 76.6954C81.9805 76.7496 81.9712 76.8038 81.965 76.8503C81.965 76.8782 81.965 76.9061 81.9541 76.9324C81.9432 76.9587 81.9541 77.0005 81.9199 76.9881L79.6179 77.0222C78.3496 77.0361 77.0828 77.0532 75.8238 77.0811C73.0975 77.143 70.3836 77.2452 67.679 77.3041C66.6454 77.3242 65.6584 77.4016 64.6792 77.459C64.1942 77.4884 63.703 77.5147 63.2352 77.5132C63.0654 77.5213 62.8952 77.5135 62.7269 77.4899C62.6823 77.4826 62.6385 77.4707 62.5964 77.4543C62.5559 77.4373 62.5124 77.4078 62.514 77.3629L62.4798 77.1089C62.4642 76.968 62.4502 76.8255 62.4347 76.683C62.4207 76.5096 62.4052 76.3346 62.3912 76.1596C62.3642 75.8054 62.343 75.4472 62.3275 75.0848C62.2544 73.282 62.2575 70.482 62.1254 68.6963C62.0617 66.192 61.6948 64.7858 61.5783 61.8153C61.527 60.5113 61.4228 59.373 61.2083 59.3776C60.9938 59.3823 60.9783 60.4989 61.0529 61.8401C61.2658 65.6809 61.3109 67.465 61.5021 71.0565C61.5456 71.8448 61.5829 72.6765 61.6249 73.6692C61.6451 74.1633 61.6684 74.6991 61.6917 75.2907C61.715 75.9226 61.7415 76.6133 61.7694 77.38C61.7694 77.4078 61.7881 77.4915 61.8083 77.603C61.8176 77.6587 61.8285 77.7207 61.8409 77.7873C61.8445 77.8214 61.8513 77.8551 61.8612 77.8879C61.8776 77.9201 61.8991 77.9493 61.9249 77.9747C62.1645 78.1524 62.4472 78.2635 62.744 78.2968C62.8994 78.3247 63.0627 78.3464 63.1963 78.3619L63.5492 78.4021C64.0155 78.4486 64.4818 78.4842 64.9481 78.5136C65.8729 78.5694 66.7962 78.6019 67.721 78.5802C70.2624 78.5074 70.6649 78.4579 71.6224 78.4935C73.0835 78.5415 74.1094 78.6685 75.3855 78.6375C76.8326 78.6019 78.3076 78.5415 79.7376 78.4532L81.0417 78.382L81.3666 78.368L81.937 78.351L83.1105 78.3309L83.1308 78.2674L83.1432 78.193L83.1696 78.0382L83.2178 77.7424C83.252 77.5488 83.28 77.349 83.3064 77.1492C83.3328 76.9494 83.3406 76.7388 83.3484 76.5297L83.3561 76.3872V76.2943V76.11C83.3655 75.6206 83.3655 75.139 83.3561 74.6604C83.3489 73.7095 83.3411 72.7617 83.3328 71.817C83.3328 70.578 83.2986 69.3173 83.1976 68.0752C83.0841 66.7031 83.0639 65.3526 82.9427 63.9866C82.879 63.2742 82.7872 62.5417 82.6878 61.8184C82.638 61.4576 82.5836 61.1014 82.5323 60.7529L82.5121 60.6228L82.5012 60.55L82.4873 60.4292C82.4686 60.2681 82.4499 60.1086 82.4313 59.9507V59.9212V59.9073H82.3971L82.2634 59.9181L81.9976 59.9398L81.8655 59.9507H81.8329C81.8204 59.9507 81.808 59.9507 81.8111 59.9507V59.9321L81.7909 59.8593C81.766 59.7648 81.7427 59.6719 81.7179 59.579C81.7023 59.5155 81.6837 59.4473 81.6728 59.3962L81.564 59.167C81.4909 59.0121 81.4179 58.882 81.3495 58.7612L80.6609 58.7907L80.3329 58.8061H80.2708H80.2195L80.1184 58.8154L79.3413 58.8867L77.9999 59.0199C77.2227 59.102 76.6694 59.1608 76.472 59.1623C75.5052 59.1422 74.5415 59.1004 73.5949 59.1407C72.7944 59.1747 71.8525 59.1407 71.0504 59.1577C69.6608 59.1732 68.2837 59.1747 66.8894 59.167C65.3351 59.1577 64.1056 59.2305 62.5622 59.2088C61.9653 59.1995 61.2876 59.2382 61.2752 59.3978C61.2379 59.6363 61.7259 59.6858 62.542 59.6982Z" fill="#063844"/>
<path d="M86.0964 59.3824C86.2519 64.2655 86.9249 70.307 87.0726 75.1917C87.1021 76.1519 87.1223 76.7002 87.8047 77.38C88.5197 78.0909 90.6367 78.0413 91.6454 78.0367C96.8525 78.0073 102.06 77.7347 107.265 77.7068C107.822 74.9486 106.245 59.4505 106.357 59.3824C100.151 59.2709 92.3682 59.3127 86.1586 59.2012" fill="#063844"/>
<path d="M87.4347 59.455C88.8989 59.4767 90.3662 59.6594 91.8304 59.5882C94.263 59.4674 94.4277 59.7229 95.8204 59.7229C96.5276 59.7229 98.1752 59.788 98.8825 59.7926C99.5477 59.7926 100.839 59.5944 101.497 59.6176H101.749C102.426 59.6486 103.107 59.7167 103.786 59.8035C104.125 59.8468 104.466 59.8964 104.803 59.9475L105.056 59.9862C105.095 59.9862 105.148 59.9986 105.174 60.0048L105.24 60.0234C105.325 60.0497 105.395 60.0745 105.467 60.0993C105.496 60.1149 105.525 60.1325 105.552 60.1519C105.563 60.1612 105.577 60.1674 105.58 60.1798C105.583 60.1922 105.565 60.2294 105.557 60.251C105.542 60.2995 105.525 60.347 105.506 60.3935C105.485 60.4332 105.469 60.4754 105.459 60.519C105.446 60.8163 105.437 61.109 105.432 61.4002C105.425 61.981 105.432 62.5462 105.482 63.096C105.603 64.572 105.9 66.0045 106.104 67.4619C106.281 68.8046 106.432 70.1644 106.562 71.5257C106.704 73.0265 106.848 74.5163 106.897 76.0046C106.897 76.1595 106.897 76.3144 106.897 76.4693V76.6551V76.7929C106.897 76.8843 106.884 76.9772 106.873 77.0671C106.873 77.1135 106.861 77.1584 106.852 77.2034V77.2204H106.73L105.157 77.2111C103.894 77.2018 102.63 77.1941 101.374 77.2018C98.6524 77.2204 95.9541 77.2885 93.248 77.3211C92.5516 77.3303 91.8724 77.3644 91.2056 77.4124C90.5673 77.4685 89.9262 77.484 89.286 77.4589C88.9894 77.4443 88.6959 77.3922 88.4124 77.304C88.2913 77.2658 88.1769 77.2088 88.0736 77.1352C87.9614 77.0408 87.8574 76.9372 87.7627 76.8255C87.5755 76.5947 87.4536 76.3183 87.4099 76.0248C87.3632 75.6928 87.3388 75.358 87.3368 75.0228C87.2995 73.2231 87.284 70.4261 87.127 68.6467C87.0337 66.1517 86.6373 64.7563 86.5052 61.7982C86.4446 60.5004 86.3358 59.3667 86.1275 59.3714C85.9192 59.376 85.8959 60.4895 85.9721 61.8276C86.2037 65.6514 86.3109 67.4247 86.5285 71.0054C86.5798 71.8541 86.6218 72.7508 86.6591 73.8178C86.6793 74.3553 86.6886 74.919 86.7088 75.5679C86.7112 75.9433 86.771 76.3162 86.886 76.6737C86.9591 76.8771 87.0601 77.0694 87.186 77.2452C87.2491 77.3327 87.3165 77.4169 87.3881 77.4976C87.4223 77.5379 87.4596 77.5751 87.4969 77.6138C87.5377 77.6579 87.5819 77.6988 87.629 77.7361C87.8471 77.9151 88.097 78.0517 88.3658 78.1388C88.6025 78.2227 88.8451 78.289 89.0917 78.337C89.5614 78.4284 90.0364 78.491 90.5139 78.5244C90.9802 78.56 91.4465 78.5771 91.9035 78.5895C92.3604 78.6019 92.8221 78.608 93.2822 78.6003C95.8126 78.5523 96.2152 78.512 97.168 78.5569C98.6229 78.6235 99.6441 78.7645 100.914 78.7536C102.355 78.7397 103.824 78.7072 105.257 78.6483L106.283 78.6096C106.594 78.5988 106.883 78.5786 107.183 78.5647L107.627 78.5415L107.849 78.5291H107.96H108.014C108.03 78.5291 108.061 78.5291 108.056 78.5089C108.106 78.2116 108.154 77.9313 108.196 77.6385L108.224 77.4186L108.244 77.1941C108.258 77.0392 108.263 76.8921 108.271 76.7418V76.6365V76.5684V76.4336V76.1657V75.6345C108.271 74.2267 108.224 72.8468 108.221 71.4731C108.221 70.2341 108.187 68.9843 108.086 67.7469C107.974 66.3793 107.958 65.0335 107.839 63.6722C107.778 62.9737 107.692 62.2566 107.596 61.5504C107.545 61.1973 107.494 60.8488 107.441 60.505L107.42 60.3765L107.394 60.1628L107.368 59.9336L107.355 59.8158V59.7585V59.7291C107.355 59.7214 107.363 59.7059 107.332 59.7105L106.822 59.7369H106.76C106.752 59.7369 106.733 59.7369 106.733 59.7369V59.7276L106.724 59.6904L106.704 59.6176C106.681 59.5262 106.656 59.4349 106.632 59.3435C106.615 59.28 106.598 59.2118 106.587 59.1607C106.55 59.0833 106.514 59.0059 106.479 58.93C106.406 58.7751 106.334 58.6435 106.264 58.5211L105.566 58.5505L105.235 58.566L105.021 58.5831L104.234 58.6543L102.879 58.7906C102.084 58.8742 101.531 58.9346 101.324 58.9346C100.361 58.9145 99.4001 58.8742 98.4581 58.9145C97.6592 58.9486 96.7204 58.9145 95.9214 58.9315C94.5365 58.947 93.1625 58.9486 91.7729 58.9408C90.2186 58.9315 88.9984 59.0043 87.4612 58.9826C86.8658 58.9733 86.1913 59.0121 86.1773 59.1716C86.14 59.393 86.6218 59.4426 87.4347 59.455Z" fill="#063844"/>
<path d="M110.511 59.3821C110.658 64.2652 111.095 71.5226 111.243 76.4072C111.272 77.3674 111.01 78.1108 111.975 78.1108C113.195 78.1108 115.051 78.0427 116.06 78.038L131.679 77.9513C132.236 75.193 130.658 59.2118 130.771 59.1405C124.565 59.029 116.534 59.314 110.327 59.2025" fill="#063844"/>
<path d="M111.634 59.4519C113.134 59.4674 114.639 59.6315 116.142 59.5386C118.629 59.3837 118.805 59.6315 120.23 59.6068C120.956 59.5928 122.642 59.6315 123.367 59.6253C124.047 59.6161 125.367 59.3961 126.04 59.4116H126.298C126.952 59.4318 127.611 59.4891 128.269 59.5665C128.597 59.6037 128.925 59.647 129.251 59.6919C129.391 59.7067 129.531 59.7299 129.668 59.7616C129.752 59.7849 129.823 59.8096 129.895 59.8329C129.929 59.8473 129.962 59.8644 129.993 59.884C130.005 59.8933 130.021 59.8995 130.025 59.9119C130.03 59.9242 130.01 59.9645 130.002 59.9877C129.983 60.0543 129.965 60.1101 129.948 60.1566C129.915 60.2201 129.898 60.2909 129.899 60.3625C129.884 60.6878 129.873 61.0084 129.868 61.3274C129.856 61.9624 129.868 62.5819 129.915 63.1859C130.035 64.6974 130.33 66.1656 130.524 67.6586C130.702 69.0338 130.851 70.4277 130.98 71.8215C131.118 73.3594 131.263 74.8865 131.301 76.4088V76.6489V76.8657C131.301 76.9648 131.301 77.0578 131.289 77.1507C131.277 77.2436 131.274 77.3396 131.258 77.4326C131.267 77.4992 131.194 77.4697 131.154 77.4759H131.012H130.297L129.315 77.462L125.432 77.3799C122.648 77.3381 119.882 77.3319 117.101 77.3427C116.744 77.3427 116.389 77.3536 116.041 77.3675C115.693 77.3814 115.385 77.4109 115.059 77.4387C114.404 77.493 113.748 77.5626 113.082 77.6323L112.082 77.733C111.96 77.7514 111.835 77.7331 111.723 77.6803C111.673 77.6456 111.631 77.6007 111.599 77.5487C111.568 77.4967 111.547 77.4387 111.54 77.3783C111.518 77.253 111.506 77.1261 111.505 76.9989V76.7573C111.505 76.669 111.505 76.5792 111.505 76.4878C111.485 76.1316 111.467 75.7847 111.459 75.4254C111.409 73.5855 111.459 70.7281 111.342 68.9037C111.31 66.3468 110.963 64.9065 110.876 61.8725C110.835 60.5406 110.72 59.3775 110.517 59.3822C110.313 59.3868 110.285 60.5252 110.347 61.8942C110.526 65.8125 110.545 67.6338 110.689 71.3027C110.724 72.1731 110.752 73.093 110.783 74.1895C110.797 74.7362 110.814 75.3278 110.831 75.9783C110.831 76.1332 110.831 76.3051 110.843 76.4739C110.843 76.5513 110.843 76.6288 110.843 76.717C110.843 76.8053 110.843 76.9044 110.843 76.9989C110.827 77.2434 110.842 77.489 110.887 77.7299C110.911 77.8498 110.954 77.9649 111.016 78.0706C111.08 78.1793 111.17 78.2711 111.277 78.3386C111.525 78.4755 111.807 78.5374 112.09 78.5167L112.811 78.526L114.257 78.5662L115.719 78.6065L116.439 78.6189C116.674 78.6189 116.905 78.6189 117.143 78.6189C119.728 78.5972 120.141 78.5724 121.114 78.6375C122.602 78.7335 123.643 78.9007 124.944 78.9178C126.421 78.9364 127.93 78.9333 129.405 78.8883L130.459 78.8589L131.236 78.8434H131.472H131.589L131.701 78.8341L132.142 78.7985L132.363 78.7799H132.418C132.436 78.7799 132.458 78.7799 132.455 78.7552L132.475 78.6421L132.548 78.1976C132.598 77.9065 132.634 77.6029 132.655 77.2932L132.676 76.8564V76.5808V76.0356C132.676 74.5922 132.637 73.1782 132.635 71.7735C132.635 70.5051 132.602 69.2243 132.503 67.9575C132.394 66.5636 132.379 65.1791 132.261 63.7852C132.197 63.0279 132.105 62.2473 132.001 61.4823C131.948 61.0997 131.894 60.7203 131.836 60.3501C131.813 60.2108 131.772 59.8762 131.735 59.5386C131.751 59.5092 131.685 59.5216 131.645 59.52H131.514H131.256H131.129L131.117 59.4813L131.096 59.4023C131.07 59.3048 131.045 59.2056 131.019 59.1096C131.003 59.0446 130.986 58.9764 130.975 58.9253L130.865 58.6992C130.79 58.5552 130.717 58.422 130.647 58.3027L129.969 58.3337L129.646 58.3492C129.584 58.3492 129.567 58.3492 129.528 58.3569L129.429 58.3662L128.661 58.4406C128.171 58.4886 127.728 58.5397 127.343 58.5815C126.565 58.6682 126.037 58.7364 125.84 58.7364C124.853 58.7286 123.869 58.7023 122.903 58.7581C122.086 58.8061 121.125 58.7859 120.306 58.82C118.889 58.8587 117.483 58.8851 116.061 58.8959C114.474 58.9098 113.221 58.9981 111.647 58.9842C111.039 58.9842 110.349 59.0167 110.335 59.1762C110.307 59.393 110.8 59.4426 111.634 59.4519Z" fill="#063844"/>
<path d="M37.2885 82.7309C37.4346 87.6155 36.6668 93.9002 36.8067 98.7834C36.8346 99.7451 36.8549 100.293 37.5294 100.973C38.2336 101.683 40.3273 101.635 41.322 101.628C46.4638 101.6 52.3283 101.328 57.4701 101.298C58.0204 98.5402 56.9447 82.5589 57.0551 82.4877C50.9263 82.3762 43.4173 82.8424 37.2885 82.7309Z" fill="#063844"/>
<path d="M38.5802 82.9786C40.0599 82.9879 41.5459 83.1335 43.0241 83.0297C45.4768 82.8423 45.6493 83.087 47.056 83.0452C47.7695 83.022 49.4342 83.0452 50.1476 83.0235C50.8175 83.0065 52.1154 82.7711 52.7791 82.7819H53.034C53.6091 82.7943 54.1889 82.8408 54.7687 82.8996C55.0578 82.9306 55.3469 82.9662 55.636 83.0034L55.8521 83.0328C55.8773 83.0355 55.9022 83.0401 55.9267 83.0468L55.9826 83.0623C56.0557 83.0824 56.1225 83.1041 56.1816 83.1242C56.2215 83.1394 56.2604 83.157 56.2982 83.1769C56.3137 83.1845 56.3283 83.1939 56.3417 83.2047C56.331 83.233 56.3221 83.262 56.3152 83.2915C56.2919 83.372 56.2686 83.4463 56.2469 83.499L56.2142 83.5795L56.2064 83.5981C56.2006 83.609 56.1979 83.6214 56.1987 83.6337L56.1878 83.7654C56.1583 84.12 56.1318 84.4685 56.1132 84.8139C56.0719 85.4842 56.0651 86.1562 56.093 86.8272C56.1676 88.3202 56.4178 89.7698 56.5671 91.2534C56.7038 92.6132 56.8111 93.9931 56.9028 95.37C56.9976 96.8892 57.1002 98.3977 57.1033 99.9015L57.0893 100.3C57.0893 100.392 57.08 100.485 57.0707 100.578C57.0707 100.625 57.0598 100.67 57.0536 100.716C57.0473 100.763 57.0458 100.763 57.0427 100.786C57.0396 100.809 57.0427 100.812 57.0334 100.815H56.7225H54.9847C53.7086 100.806 52.4341 100.8 51.1657 100.804C48.4192 100.82 45.6929 100.883 42.9603 100.917C42.2562 100.928 41.5723 100.961 40.8962 101.009C40.2529 101.067 39.6063 101.082 38.961 101.054C38.6642 101.041 38.3704 100.989 38.0875 100.899C38.0251 100.876 37.9644 100.849 37.9056 100.818C37.8787 100.805 37.8532 100.789 37.8294 100.77C37.8023 100.755 37.7768 100.737 37.7533 100.716C37.639 100.618 37.5349 100.509 37.4424 100.391C37.2589 100.152 37.1435 99.8687 37.1082 99.5701C37.0648 99.2332 37.0441 98.8938 37.0461 98.5541C37.0025 96.7499 37.301 93.9622 37.3802 92.161C37.4937 90.9081 37.5061 89.9184 37.5092 88.8669C37.5124 87.8153 37.5092 86.6987 37.5559 85.2041C37.601 83.8846 37.489 82.7262 37.2839 82.7262C37.0787 82.7262 37.0523 83.8444 37.0274 85.1887C36.9948 87.1153 36.8906 88.5261 36.7958 89.9061C36.701 91.286 36.5875 92.6365 36.5005 94.45C36.4585 95.3111 36.415 96.2233 36.3994 97.312C36.3886 97.8572 36.3994 98.4457 36.4088 99.0962C36.4085 99.4712 36.4608 99.8444 36.5642 100.205C36.6309 100.413 36.7266 100.611 36.8486 100.792C36.9097 100.883 36.9761 100.971 37.0476 101.054C37.0818 101.095 37.1176 101.135 37.1549 101.175C37.1931 101.217 37.2341 101.258 37.2776 101.295C37.4929 101.488 37.7452 101.634 38.0191 101.726C38.2583 101.814 38.5041 101.884 38.7543 101.933C39.2284 102.027 39.7082 102.091 40.1905 102.124C40.6661 102.16 41.1324 102.175 41.5894 102.187C42.0464 102.2 42.522 102.206 42.9883 102.198C45.5421 102.15 45.9493 102.11 46.9099 102.158C48.3788 102.225 49.4093 102.369 50.6916 102.358C52.1465 102.347 53.6325 102.314 55.0811 102.252C55.8272 102.217 56.2344 102.22 57.6644 102.146L58.1136 102.124H58.2255L58.2457 102.012L58.283 101.791C58.3312 101.5 58.3794 101.21 58.4121 100.908C58.4245 100.753 58.44 100.598 58.4478 100.461L58.4602 100.245V100.111L58.4789 99.5732C58.5146 98.1499 58.5131 96.7576 58.552 95.3715C58.5846 94.1232 58.5924 92.861 58.5302 91.6081C58.4618 90.2266 58.4882 88.8669 58.4136 87.4901C58.3685 86.6754 58.2939 85.8329 58.2022 85.0121C58.1571 84.6001 58.1074 84.1928 58.0577 83.7964L58.039 83.6415L58.0297 83.5671V83.53V83.4665C58.0141 83.292 57.9986 83.1185 57.9831 82.9461V82.8811C57.9831 82.8811 57.9831 82.8656 57.9737 82.8687H57.4188C57.4033 82.8687 57.4064 82.8687 57.4048 82.8687V82.8594L57.3831 82.7773C57.3567 82.6751 57.3302 82.5729 57.3054 82.4676C57.2898 82.4056 57.2758 82.3437 57.2603 82.2833L57.1437 82.068C57.066 81.9301 56.9883 81.8062 56.9168 81.6963L56.295 81.7257C56.1008 81.735 55.8754 81.7443 55.7868 81.7582L55.0998 81.8295C54.6614 81.8744 54.2666 81.924 53.9247 81.9642C53.2408 82.0448 52.7667 82.1083 52.5848 82.1191C51.6102 82.1191 50.6403 82.1052 49.6875 82.1717C48.8839 82.2291 47.9342 82.2213 47.1275 82.2662C45.7286 82.3251 44.3452 82.3684 42.9448 82.3979C41.3811 82.4273 40.147 82.528 38.5926 82.5202C37.9942 82.5202 37.3134 82.5543 37.2994 82.7153C37.2699 82.9213 37.7579 82.9662 38.5802 82.9786Z" fill="#063844"/>
<path d="M61.6854 83.2172C61.8409 88.1019 61.7818 94.1434 61.9295 99.0265C61.959 99.9883 61.9792 100.537 62.6631 101.216C63.3766 101.926 77.1605 101.328 82.366 101.299C82.9224 98.5402 81.5888 83.2853 81.7023 83.2172C75.4958 83.1057 67.9541 83.3922 61.7476 83.2807" fill="#063844"/>
<path d="M63.0191 83.5299C64.4771 83.5454 65.9397 83.7111 67.3961 83.6182C69.8162 83.4633 69.9841 83.7111 71.369 83.6863C72.0747 83.6724 73.713 83.7111 74.4171 83.7034C75.0777 83.7034 76.36 83.4741 77.0144 83.4896H77.2662C77.9128 83.5098 78.5641 83.5671 79.2138 83.6445C79.5386 83.6832 79.8635 83.7281 80.1868 83.7746L80.4293 83.8087L80.4899 83.818H80.5194H80.535L80.5971 83.835C80.6764 83.8598 80.7526 83.883 80.8101 83.9078C80.8426 83.9226 80.8738 83.9402 80.9034 83.9604C80.9158 83.9697 80.9298 83.9759 80.936 83.9883C80.9422 84.0007 80.9189 84.0394 80.9096 84.0642C80.8909 84.1246 80.8723 84.1773 80.8552 84.2191C80.8458 84.2392 80.8365 84.2593 80.8272 84.2764L80.8148 84.3012L80.807 84.312C80.807 84.312 80.807 84.3476 80.807 84.3631C80.7883 84.6729 80.7728 84.9826 80.7635 85.2769C80.7448 85.8793 80.7479 86.4663 80.7868 87.0347C80.8863 88.5059 81.1629 89.9339 81.337 91.3866C81.4924 92.7247 81.6261 94.0814 81.738 95.4365C81.8562 96.931 81.9805 98.4162 81.9961 99.8953V100.216L81.9883 100.423C81.9883 100.492 81.9821 100.56 81.9696 100.628L81.9572 100.73L81.9479 100.781V100.806C81.9479 100.806 81.9323 100.806 81.9261 100.806H79.935L76.1735 100.798L68.0909 100.854C66.7075 100.854 65.3941 100.967 64.0978 100.998C63.9424 100.998 63.7745 100.998 63.616 100.998C63.4574 100.998 63.2895 100.989 63.1605 100.976C63.1032 100.973 63.046 100.967 62.9896 100.956C62.9321 100.947 62.8782 100.923 62.8341 100.885C62.788 100.848 62.7444 100.808 62.7036 100.766C62.6537 100.717 62.6075 100.666 62.5652 100.611C62.3848 100.376 62.27 100.097 62.2326 99.8039C62.1888 99.4717 62.167 99.1369 62.1673 98.8019C62.1269 97.0193 62.2668 94.2486 62.231 92.4738C62.2963 89.9958 62.0228 88.5787 62.0072 85.6253C61.9994 84.329 61.8875 83.1938 61.6808 83.1985C61.4741 83.2031 61.4508 84.3073 61.4787 85.6346C61.5565 89.4414 61.4647 91.21 61.4865 94.7814C61.4865 95.6285 61.4974 96.5268 61.5021 97.5939C61.5021 98.1297 61.516 98.7012 61.5331 99.3424C61.533 99.7128 61.5853 100.081 61.6886 100.437C61.7552 100.642 61.8504 100.837 61.9715 101.015C62.1051 101.217 62.2668 101.399 62.4518 101.555C62.5816 101.639 62.7261 101.697 62.8776 101.726L62.9911 101.752L63.0937 101.772L63.2756 101.803C63.5134 101.84 63.7419 101.868 63.9781 101.893C64.4444 101.944 64.8983 101.984 65.3553 102.02C66.2708 102.09 67.1847 102.139 68.1033 102.135C70.6229 102.113 71.024 102.073 71.9721 102.135C73.4192 102.212 74.4357 102.361 75.7025 102.355C77.1372 102.355 78.6045 102.316 80.0329 102.251L81.1816 102.203L81.5733 102.192L82.0707 102.181L83.0996 102.163C83.117 102.115 83.1285 102.066 83.1338 102.015L83.1603 101.861L83.2116 101.551C83.2457 101.346 83.2784 101.139 83.3001 100.931C83.3219 100.724 83.3359 100.502 83.3468 100.29L83.3608 99.8906C83.3748 99.3811 83.3763 98.8808 83.3779 98.3806C83.3779 97.3832 83.3779 96.3951 83.3779 95.4148C83.3919 94.1758 83.3779 92.9368 83.297 91.6979C83.2053 90.3365 83.2084 88.9969 83.109 87.6402C83.0561 86.92 82.9784 86.1782 82.8867 85.4503C82.8416 85.0864 82.7919 84.7255 82.7421 84.3662C82.7219 84.2578 82.6815 83.8427 82.652 83.5454V83.516C82.6324 83.5137 82.6126 83.5137 82.5929 83.516L82.4608 83.5252L82.1997 83.5407H82.0707C82.0613 83.5407 82.0473 83.5407 82.0427 83.5407V83.5314V83.5129L82.0225 83.4401C81.9976 83.3456 81.9743 83.2527 81.9494 83.1613C81.9354 83.0993 81.9199 83.0374 81.9059 82.977L81.794 82.7493C81.7209 82.6038 81.6479 82.469 81.5779 82.3513L80.8987 82.3807L80.5769 82.3962H80.5365H80.5117H80.4619L80.3624 82.4055L79.6055 82.4799C79.1205 82.5294 78.6822 82.5805 78.3014 82.6239C77.5413 82.7122 77.0113 82.7788 76.8185 82.7788C75.858 82.7788 74.902 82.7462 73.9648 82.802C73.1705 82.85 72.2363 82.8299 71.4405 82.8639C70.0634 82.9027 68.6971 82.929 67.3153 82.9398C65.7749 82.9522 64.5579 83.042 63.0269 83.0266C62.4362 83.0266 61.7647 83.0606 61.7523 83.2202C61.7305 83.471 62.2093 83.5206 63.0191 83.5299Z" fill="#063844"/>
<path d="M86.5845 82.7308C86.7322 87.6155 86.4291 95.8453 86.5845 100.73C86.6141 101.69 102.06 101.085 107.257 101.055C107.814 98.297 106.726 82.7989 106.838 82.7308C100.631 82.6193 92.8485 82.6627 86.6389 82.5511" fill="white"/>
<path d="M87.94 82.8114C89.4213 82.8331 90.9073 83.0158 92.3885 82.9446C94.8506 82.8238 95.0185 83.0793 96.4298 83.0793C97.148 83.0793 98.8142 83.1443 99.5385 83.149C100.212 83.149 101.52 82.9508 102.181 82.974H102.436C103.078 83.0019 103.723 83.0638 104.368 83.1443C104.69 83.1846 105.011 83.2295 105.333 83.276L105.573 83.3116H105.633H105.663H105.678L105.739 83.3302C105.82 83.3534 105.894 83.3766 105.953 83.3999C105.987 83.4154 106.02 83.433 106.051 83.4525C106.065 83.4598 106.077 83.4692 106.087 83.4804C106.076 83.5067 106.07 83.5331 106.061 83.5579C106.044 83.6152 106.023 83.6716 106 83.7267C105.991 83.7499 105.981 83.77 105.972 83.7886C105.963 83.8072 105.95 83.7886 105.946 83.9017C105.921 84.2238 105.9 84.5413 105.886 84.8572C105.857 85.486 105.849 86.0962 105.886 86.6971C105.964 88.1947 106.218 89.6536 106.371 91.1342C106.51 92.4986 106.62 93.8801 106.712 95.26C106.808 96.7824 106.914 98.297 106.906 99.7993L106.897 100.039C106.897 100.101 106.897 100.16 106.887 100.222C106.878 100.284 106.877 100.343 106.87 100.403L106.858 100.493V100.538V100.561H106.836H105.946H104.604L100.777 100.544C98.0277 100.544 95.2952 100.571 92.5595 100.557C91.4466 100.557 90.3834 100.606 89.3249 100.648C88.798 100.667 88.2726 100.682 87.7566 100.668L87.4457 100.656C87.3494 100.652 87.2533 100.642 87.1582 100.626C87.1088 100.618 87.06 100.606 87.0121 100.591C86.963 100.579 86.9198 100.55 86.8908 100.509C86.8753 100.416 86.8691 100.32 86.8598 100.222C86.8162 99.7993 86.7929 99.1659 86.7914 98.5866C86.7914 96.7731 86.9919 93.9575 86.9919 92.1517C87.1069 89.6273 86.8644 88.1839 86.8893 85.1825C86.8986 83.8614 86.7883 82.7045 86.5784 82.7045C86.3686 82.7045 86.3468 83.8289 86.3577 85.1825C86.381 89.0543 86.2489 90.8508 86.2023 94.4748C86.1898 95.2197 86.1774 96.0034 86.1618 96.9388C86.1618 97.4034 86.151 97.9129 86.1494 98.4736C86.1494 98.7539 86.1494 99.0466 86.1494 99.3548C86.1494 99.5097 86.1494 99.6785 86.1494 99.8473C86.1494 100.049 86.1572 100.255 86.1618 100.467L86.2287 100.883C86.2287 100.99 86.3328 101.082 86.4323 101.144C86.5457 101.211 86.6674 101.263 86.7945 101.298C86.9433 101.343 87.0949 101.378 87.2483 101.404L87.4815 101.441L87.6649 101.467C87.9027 101.5 88.1312 101.528 88.3706 101.554C88.8369 101.605 89.3032 101.648 89.7695 101.689C90.7021 101.766 91.6347 101.822 92.5673 101.825C95.132 101.825 95.5408 101.783 96.5045 101.844C97.9764 101.93 99.0101 102.084 100.299 102.082C101.76 102.082 103.252 102.051 104.707 101.988L105.969 101.937L106.301 101.924L106.867 101.912L107.996 101.895C108.012 101.847 108.024 101.799 108.03 101.749L108.056 101.594L108.108 101.285C108.142 101.082 108.173 100.877 108.198 100.665L108.227 100.355L108.248 100.046L108.266 99.6413C108.285 99.1395 108.294 98.647 108.302 98.1545C108.317 97.1727 108.327 96.1985 108.352 95.2321C108.383 93.9792 108.389 92.7123 108.324 91.4579C108.252 90.064 108.276 88.7089 108.196 87.329C108.154 86.5763 108.084 85.8004 108.002 85.04C107.96 84.659 107.916 84.2827 107.87 83.9141L107.853 83.7778L107.843 83.7034L107.833 83.5764L107.791 83.1211V83.0901V83.0747H107.759H107.626L107.365 83.0839C107.121 83.1165 107.194 83.0328 107.164 82.9895L107.09 82.7014C107.074 82.6395 107.06 82.5775 107.044 82.5171C107.029 82.4567 106.97 82.3622 106.933 82.2926C106.858 82.147 106.777 82.0153 106.713 81.8992L106.036 81.927L105.714 81.941H105.677H105.652H105.602H105.504L104.752 82.0091L103.459 82.1377C102.703 82.2167 102.178 82.2724 101.984 82.2724C101.007 82.2523 100.036 82.2105 99.0816 82.2507C98.2733 82.2848 97.3236 82.2507 96.5138 82.2678C95.1149 82.2833 93.716 82.2848 92.3171 82.2771C90.7487 82.2662 89.5083 82.3406 87.9509 82.3189C87.3494 82.3096 86.6655 82.3483 86.6515 82.5063C86.6281 82.7417 87.1162 82.7928 87.94 82.8114Z" fill="#063844"/>
<path d="M111.972 82.7308C112.127 87.6155 112.312 95.1206 112.46 99.9991C112.489 100.961 112.509 100.05 113.192 100.73C113.907 101.439 116.024 101.391 117.033 101.385L132.652 101.298C133.209 98.5402 131.633 82.7989 131.744 82.7308C125.538 82.6193 117.507 82.6627 111.302 82.5511" fill="white"/>
<path d="M112.592 82.8113C114.07 82.8314 115.553 83.0157 117.031 82.9445C119.488 82.8237 119.655 83.0777 121.061 83.0777C121.776 83.0777 123.439 83.1427 124.154 83.1474C124.826 83.1474 126.132 82.9491 126.797 82.9724H127.052C127.743 83.0033 128.438 83.073 129.131 83.1613C129.478 83.2062 129.825 83.2558 130.17 83.3069L130.429 83.3456L130.555 83.3657L130.621 83.3843C130.708 83.4107 130.776 83.4354 130.851 83.4618C130.88 83.4764 130.909 83.4935 130.936 83.5129C130.945 83.5222 130.959 83.5284 130.962 83.5407C130.966 83.5531 130.947 83.5888 130.939 83.6104C130.925 83.6583 130.909 83.7054 130.889 83.7514C130.882 83.77 130.872 83.787 130.865 83.804C130.857 83.8211 130.851 83.852 130.843 83.8737C130.829 84.1695 130.821 84.4638 130.816 84.7534C130.816 85.3342 130.816 85.8994 130.866 86.457C130.987 87.9484 131.283 89.3996 131.479 90.8677C131.657 92.2244 131.806 93.5997 131.945 94.9749C132.086 96.4911 132.232 97.995 132.284 99.5019C132.284 99.6609 132.284 99.8188 132.284 99.9758L132.274 100.344C132.274 100.437 132.263 100.53 132.254 100.622C132.254 100.668 132.242 100.713 132.235 100.759L132.223 100.828C132.2 100.83 132.177 100.83 132.155 100.828L130.6 100.807L126.783 100.733C124.038 100.691 121.308 100.685 118.565 100.696C117.861 100.696 117.166 100.732 116.496 100.778C115.854 100.834 115.208 100.845 114.564 100.812C114.269 100.795 113.977 100.736 113.698 100.639C113.64 100.613 113.583 100.585 113.527 100.553L113.454 100.505L113.434 100.493L113.406 100.47L113.349 100.422C113.308 100.389 113.266 100.358 113.221 100.329C113.176 100.299 113.176 100.299 113.153 100.286L113.106 100.262C113.047 100.236 112.983 100.224 112.918 100.23C112.885 100.23 112.853 100.247 112.82 100.253C112.788 100.259 112.769 100.217 112.763 100.193C112.75 100.132 112.741 100.07 112.736 100.008L112.727 99.9123L112.718 99.7884L112.702 99.5344C112.68 99.1968 112.666 98.8514 112.66 98.5014C112.623 96.6878 112.718 93.8552 112.646 92.068C112.665 89.556 112.355 88.173 112.304 85.1855C112.282 83.8768 112.174 82.7339 111.967 82.737C111.76 82.7401 111.734 83.8691 111.777 85.2258C111.902 89.1084 111.869 90.925 111.95 94.5785C111.964 95.4458 111.979 96.3642 111.998 97.4575C112.009 98.0042 112.02 98.5943 112.032 99.2432C112.032 99.4058 112.04 99.5716 112.043 99.7419C112.043 99.8271 112.043 99.9123 112.043 100.001V100.131C112.043 100.174 112.043 100.244 112.057 100.298C112.068 100.41 112.091 100.52 112.127 100.626C112.136 100.653 112.146 100.679 112.16 100.704C112.165 100.716 112.174 100.727 112.184 100.735C112.194 100.744 112.206 100.751 112.219 100.755C112.26 100.76 112.301 100.767 112.341 100.776C112.433 100.804 112.557 100.869 112.683 100.919L112.707 100.928H112.722H112.755C112.774 100.928 112.781 100.945 112.795 100.953C112.809 100.961 112.848 100.998 112.876 101.026L112.954 101.094L113.044 101.17C113.102 101.216 113.164 101.257 113.229 101.294L113.322 101.349L113.415 101.394C113.478 101.421 113.541 101.456 113.604 101.476C113.843 101.568 114.089 101.642 114.339 101.696C114.814 101.795 115.294 101.862 115.778 101.898C116.244 101.936 116.725 101.952 117.177 101.966C117.629 101.98 118.11 101.988 118.565 101.984C121.114 101.963 121.518 101.938 122.484 102.001C123.949 102.099 124.97 102.266 126.261 102.283C127.717 102.302 129.214 102.299 130.661 102.255L131.777 102.225H132.243C132.399 102.225 132.554 102.225 132.697 102.206L133.134 102.17L133.352 102.152H133.378C133.387 102.152 133.398 102.152 133.397 102.139L133.406 102.084L133.425 101.972C133.471 101.675 133.522 101.391 133.558 101.092C133.578 100.938 133.586 100.783 133.599 100.639L133.617 100.214C133.627 99.8503 133.628 99.4926 133.627 99.1302C133.616 97.71 133.575 96.3146 133.572 94.9285C133.572 93.6787 133.536 92.4149 133.435 91.1651C133.325 89.7836 133.308 88.4239 133.19 87.0501C133.129 86.3501 133.047 85.6315 132.95 84.9253C132.899 84.5722 132.847 84.2227 132.795 83.8768L132.776 83.7498L132.75 83.533L132.724 83.3053L132.711 83.1876V83.1288V83.1009C132.7 83.1009 132.671 83.1009 132.652 83.1009L132.148 83.1195H132.089V83.1025L132.08 83.0653L132.06 82.9925C132.035 82.8996 132.01 82.8082 131.987 82.7168C131.97 82.6533 131.953 82.5852 131.942 82.5341L131.833 82.3018C131.761 82.1469 131.69 82.0137 131.62 81.8914L130.91 81.9208L130.571 81.9363L130.358 81.9533L129.557 82.0261L128.172 82.1624C127.363 82.2476 126.798 82.308 126.596 82.3095C125.622 82.2894 124.653 82.2476 123.701 82.2878C122.894 82.3219 121.946 82.2878 121.137 82.3064C119.739 82.3219 118.352 82.3234 116.949 82.3064C115.383 82.2971 114.151 82.3715 112.596 82.3498C111.996 82.3405 111.314 82.3792 111.3 82.5372C111.288 82.7416 111.769 82.7912 112.592 82.8113Z" fill="#063844"/>
<path d="M37.3009 107.053C37.4563 111.772 35.2336 124.128 35.8834 124.808C36.5626 125.519 51.7921 125.649 56.7473 125.621C57.2758 122.863 56.2406 106.882 56.3463 106.81C50.4398 106.699 43.2059 107.163 37.3009 107.053Z" fill="white"/>
<path d="M38.5818 107.301C40.0522 107.301 41.5351 107.456 42.9993 107.348C45.4365 107.159 45.609 107.404 47.0064 107.36C47.7167 107.335 49.369 107.351 50.0777 107.337C50.7446 107.318 52.0331 107.088 52.6937 107.098H52.9471C53.4134 107.114 53.8937 107.142 54.3677 107.19C54.6056 107.215 54.8418 107.241 55.0796 107.27L55.1682 107.281H55.2117H55.2397L55.3377 107.304C55.3998 107.32 55.4589 107.337 55.5117 107.354C55.5646 107.371 55.6128 107.388 55.6563 107.405C55.6761 107.412 55.6949 107.421 55.7122 107.433C55.7015 107.466 55.6926 107.5 55.6858 107.534C55.6594 107.64 55.633 107.732 55.6081 107.809L55.5692 107.921L55.5413 108.223C55.504 108.625 55.4713 109.025 55.4449 109.418C55.3871 110.182 55.373 110.948 55.4029 111.714C55.4729 113.197 55.7138 114.644 55.8692 116.114C55.9998 117.466 56.1039 118.836 56.1879 120.205C56.2345 120.961 56.278 121.712 56.3122 122.462C56.3278 122.837 56.3418 123.211 56.3495 123.585L56.3573 124.144V124.627C56.3573 124.715 56.3573 124.803 56.3433 124.892C56.3433 124.935 56.3355 124.98 56.3293 125.023C56.3278 125.046 56.3247 125.068 56.32 125.09V125.122V125.136H56.3045H55.8832H55.2708C54.7869 125.136 54.2999 125.127 53.8097 125.109L50.0249 124.982C47.3032 124.89 44.5956 124.816 41.8832 124.709C40.4843 124.65 39.1616 124.709 37.8419 124.709C37.514 124.709 37.1845 124.709 36.8611 124.683C36.7244 124.675 36.6156 124.672 36.4928 124.656C36.4306 124.649 36.37 124.639 36.3078 124.625C36.2475 124.615 36.1925 124.585 36.1524 124.539C36.1009 124.426 36.0709 124.306 36.0638 124.182C36.0638 124.119 36.0529 124.055 36.0498 123.989V123.888V123.763C36.0498 123.428 36.0653 123.086 36.0949 122.739C36.2503 120.955 36.7803 118.204 36.97 116.423C37.1344 115.341 37.2423 114.251 37.2933 113.157C37.3508 112.113 37.4083 111.012 37.5249 109.521C37.5755 108.946 37.5827 108.368 37.5466 107.792C37.5093 107.337 37.4254 107.05 37.3228 107.053C37.2202 107.057 37.1674 107.332 37.1207 107.774C37.0741 108.215 37.0383 108.821 36.9979 109.488C36.8751 111.396 36.6964 112.79 36.5239 114.153C36.3513 115.516 36.1555 116.848 35.9285 118.633C35.8228 119.482 35.7016 120.379 35.5773 121.452C35.5166 121.988 35.4545 122.569 35.4109 123.218C35.4001 123.372 35.3907 123.546 35.3845 123.719V123.849C35.3845 123.904 35.3845 123.956 35.3845 124.004C35.3845 124.116 35.3845 124.238 35.3938 124.354C35.4012 124.471 35.4173 124.588 35.442 124.703C35.4639 124.817 35.5071 124.926 35.5695 125.025C35.7249 125.214 35.9596 125.287 36.2099 125.352C36.3653 125.389 36.5207 125.417 36.6606 125.442L36.8534 125.471L37.0275 125.497L37.7223 125.593C38.1886 125.652 38.6409 125.709 39.101 125.761C40.018 125.864 40.9366 125.951 41.8615 125.985C44.3997 126.07 44.8054 126.049 45.7598 126.14C47.2146 126.279 48.2343 126.468 49.512 126.51C50.9606 126.557 52.4419 126.574 53.8921 126.544L55.3174 126.515L57.5122 126.485C57.5267 126.441 57.5366 126.395 57.5417 126.349L57.5666 126.203L57.6117 125.919C57.6427 125.73 57.6707 125.538 57.6956 125.344C57.7205 125.15 57.736 124.946 57.7453 124.76L57.7593 124.506L57.7671 124.33C57.7873 123.865 57.7982 123.4 57.8075 122.936C57.8262 122.017 57.8417 121.108 57.8697 120.205C57.907 118.966 57.9194 117.707 57.8619 116.462C57.7966 115.088 57.8277 113.738 57.7562 112.369C57.7096 111.455 57.621 110.51 57.5153 109.581C57.464 109.116 57.4065 108.666 57.3474 108.224C57.3334 108.114 57.3179 108.006 57.3039 107.898C57.3039 107.86 57.2884 107.743 57.279 107.654C57.2697 107.566 57.2619 107.467 57.2542 107.374L57.2417 107.236V107.201C57.2262 107.201 57.1982 107.201 57.1764 107.201H57.0428H56.777H56.7117C56.7024 107.201 56.7117 107.187 56.7024 107.18L56.6899 107.136L56.5749 106.801C56.5594 106.738 56.5454 106.676 56.5314 106.615C56.4894 106.546 56.449 106.48 56.407 106.417C56.3247 106.292 56.2438 106.177 56.1661 106.079L55.6423 106.106L55.3952 106.118C55.3174 106.118 55.2211 106.127 55.1838 106.132L54.6071 106.194C54.2403 106.233 53.9092 106.271 53.6232 106.307C53.0512 106.374 52.6564 106.422 52.4932 106.426C51.5248 106.426 50.5596 106.411 49.6146 106.477C48.8141 106.535 47.8721 106.527 47.0701 106.573C45.6805 106.632 44.3049 106.679 42.9107 106.708C41.3563 106.741 40.1315 106.843 38.5911 106.835C37.9943 106.835 37.3197 106.869 37.3057 107.029C37.2793 107.244 37.7673 107.294 38.5818 107.301Z" fill="#063844"/>
<path d="M61.1975 107.301C61.3529 112.287 61.2939 118.695 61.4415 123.681C61.4711 124.661 61.4913 125.229 62.1752 125.914C62.8886 126.64 76.6725 126.028 81.878 125.999C82.4345 123.183 81.1008 107.366 81.2143 107.297C75.0078 107.184 67.4662 107.479 61.2597 107.366" fill="white"/>
<path d="M62.5529 107.617C64.0342 107.631 65.5201 107.797 67.0014 107.702C69.4588 107.548 69.6298 107.792 71.0427 107.767C71.7593 107.754 73.424 107.789 74.139 107.783C74.812 107.774 76.1145 107.552 76.7814 107.569H77.0378C77.6409 107.588 78.2502 107.64 78.858 107.707C79.1616 107.743 79.4647 107.782 79.7673 107.823L79.9942 107.854C80.0221 107.857 80.0497 107.863 80.0766 107.871L80.1372 107.887C80.2149 107.908 80.2926 107.932 80.3501 107.953C80.3877 107.968 80.4241 107.986 80.4589 108.006C80.4729 108.015 80.49 108.021 80.4978 108.034C80.5056 108.046 80.4807 108.09 80.4729 108.116C80.4512 108.19 80.431 108.254 80.4107 108.306C80.3999 108.334 80.3905 108.351 80.3812 108.382L80.3657 108.423V108.551C80.3424 108.892 80.3237 109.228 80.3113 109.562C80.288 110.228 80.2864 110.879 80.3268 111.508C80.4247 113.002 80.6983 114.45 80.8708 115.932C81.0263 117.292 81.1553 118.672 81.2656 120.05C81.3822 121.57 81.505 123.078 81.5205 124.582V124.91L81.5112 125.129C81.5112 125.198 81.5019 125.268 81.4941 125.336L81.4801 125.44L81.4724 125.493V125.517C81.4724 125.525 81.4568 125.517 81.4491 125.517H79.4377H75.6156C72.8675 125.527 70.1381 125.572 67.404 125.573C66.7014 125.573 66.0175 125.598 65.3445 125.627C64.6714 125.657 64.0062 125.692 63.3549 125.694C63.1917 125.694 63.0301 125.694 62.8746 125.681L62.671 125.668C62.6144 125.663 62.5583 125.653 62.5031 125.64C62.4362 125.633 62.3737 125.603 62.3259 125.556C62.2797 125.518 62.2361 125.476 62.1954 125.432C62.0971 125.326 62.0125 125.209 61.9436 125.082C61.8075 124.804 61.7293 124.501 61.7135 124.192C61.684 123.86 61.6731 123.507 61.6653 123.157C61.628 121.345 61.7726 118.528 61.7368 116.725C61.8021 114.202 61.5286 112.767 61.513 109.765C61.513 108.447 61.3949 107.287 61.1882 107.298C60.9814 107.309 60.9566 108.424 60.9845 109.776C61.0623 113.648 60.9721 115.443 60.9845 119.068C60.9845 119.931 60.9923 120.842 60.997 121.926C60.997 122.469 61.0094 123.055 61.0234 123.701C61.0226 124.058 61.0486 124.416 61.1011 124.769C61.1359 124.983 61.198 125.191 61.2861 125.389C61.3309 125.491 61.3828 125.591 61.4415 125.686C61.4726 125.734 61.5021 125.782 61.5363 125.826C61.5705 125.869 61.6016 125.915 61.6467 125.968C61.7441 126.09 61.8546 126.201 61.9762 126.299C62.1134 126.377 62.2618 126.432 62.4161 126.464L62.5311 126.488L62.6275 126.509L62.8109 126.539C62.9321 126.56 63.0518 126.577 63.1699 126.592C63.6363 126.653 64.1026 126.697 64.5689 126.736C65.5015 126.814 66.4341 126.863 67.3667 126.86C69.9282 126.841 70.3355 126.801 71.2992 126.86C72.7696 126.939 73.8032 127.086 75.0887 127.08C76.5482 127.071 78.0419 127.038 79.489 126.972L80.6563 126.922L81.0449 126.911L81.5485 126.9L82.5946 126.882C82.6113 126.831 82.6227 126.78 82.6288 126.727L82.6552 126.572L82.7065 126.262C82.7407 126.055 82.7702 125.843 82.7936 125.626L82.82 125.299L82.8371 124.989L82.8511 124.58C82.8651 124.063 82.8682 123.555 82.8697 123.047C82.8697 122.034 82.8697 121.034 82.8806 120.033C82.8961 118.782 82.8806 117.517 82.8044 116.264C82.7158 114.881 82.7205 113.519 82.6241 112.141C82.5682 111.353 82.4827 110.538 82.3832 109.741C82.3335 109.342 82.2806 108.949 82.2278 108.565L82.2076 108.421C82.2076 108.368 82.1936 108.342 82.1843 108.243L82.133 107.74V107.676H82.0008H81.7397H81.547V107.656L81.5252 107.575L81.4459 107.275C81.432 107.213 81.4164 107.151 81.4024 107.091L81.2874 106.871C81.2112 106.731 81.132 106.603 81.0636 106.49L80.4278 106.519L80.117 106.535H80.0439H79.9911H79.8978L79.1813 106.606C78.7243 106.651 78.3124 106.699 77.9549 106.739C77.2399 106.818 76.7425 106.878 76.556 106.882C75.5814 106.882 74.6084 106.847 73.6556 106.905C72.8489 106.953 71.8992 106.933 71.0909 106.967C69.692 107.009 68.304 107.035 66.8942 107.047C65.3274 107.061 64.0963 107.151 62.542 107.137C61.9405 107.137 61.2597 107.168 61.2457 107.328C61.2379 107.557 61.7291 107.606 62.5529 107.617Z" fill="#063844"/>
<path d="M86.5845 107.053C86.7322 111.937 86.4291 121.147 86.5845 126.024C86.6141 126.985 102.06 125.892 107.257 125.869C107.814 123.111 106.726 107.129 106.838 107.058C100.631 106.947 92.8485 106.988 86.6389 106.878" fill="white"/>
<path d="M87.9632 107.126C89.474 107.148 90.9864 107.331 92.4972 107.259C95.0059 107.14 95.1754 107.394 96.6116 107.394C97.3421 107.394 99.041 107.459 99.77 107.465C100.455 107.465 101.791 107.267 102.467 107.292H102.726C103.319 107.318 103.912 107.373 104.508 107.447C104.804 107.482 105.101 107.521 105.398 107.563L105.621 107.594C105.647 107.597 105.673 107.602 105.698 107.609L105.757 107.625C105.835 107.647 105.913 107.667 105.97 107.688C106.01 107.703 106.049 107.721 106.087 107.741C106.103 107.748 106.118 107.757 106.132 107.767C106.121 107.796 106.112 107.825 106.105 107.854C106.086 107.925 106.064 107.995 106.037 108.063L106.004 108.148C105.989 108.216 105.98 108.285 105.98 108.354C105.95 108.715 105.925 109.071 105.907 109.425C105.866 110.111 105.86 110.8 105.889 111.487C105.967 113.013 106.219 114.5 106.37 116.01C106.508 117.404 106.617 118.807 106.705 120.215C106.755 120.989 106.8 121.763 106.836 122.538C106.853 122.922 106.869 123.312 106.876 123.691L106.886 124.266V124.805C106.886 124.923 106.886 125.009 106.87 125.115C106.87 125.166 106.861 125.215 106.853 125.27L106.844 125.344V125.381V125.397H106.825L104.327 125.437C103.024 125.452 101.724 125.473 100.427 125.499C97.6297 125.561 94.8412 125.663 92.0542 125.717C91.0284 125.736 90.0429 125.805 89.073 125.861C88.5912 125.887 88.0984 125.912 87.6415 125.908C87.4764 125.916 87.3109 125.909 87.1472 125.886C87.1036 125.879 87.0608 125.868 87.0197 125.852C86.9793 125.836 86.9373 125.805 86.9405 125.762L86.9094 125.514C86.8923 125.359 86.8767 125.204 86.8627 125.042C86.8519 124.845 86.841 124.648 86.8286 124.449C86.8083 124.052 86.8006 123.65 86.8021 123.241C86.8021 121.392 87.012 118.522 87.0088 116.682C87.1223 114.109 86.8783 112.641 86.9032 109.578C86.9125 108.234 86.8021 107.053 86.5923 107.06C86.3825 107.066 86.3607 108.206 86.3716 109.581C86.3949 113.526 86.2674 115.359 86.2161 119.058C86.2022 119.897 86.1866 120.783 86.1695 121.845C86.1695 122.373 86.1555 122.945 86.1555 123.574C86.1555 123.883 86.1555 124.213 86.1555 124.563C86.1555 124.737 86.1555 124.916 86.1555 125.098C86.1555 125.327 86.1664 125.562 86.1711 125.799C86.1711 125.832 86.2053 126.004 86.2348 126.177L86.2534 126.287C86.2657 126.322 86.2853 126.353 86.311 126.38C86.3639 126.432 86.4241 126.476 86.4897 126.512C86.6248 126.58 86.7678 126.632 86.9156 126.666C87.0694 126.703 87.2251 126.732 87.3819 126.753L87.6088 126.783L87.7907 126.804C88.2741 126.859 88.7497 126.896 89.2253 126.927C90.1766 126.987 91.1263 127.021 92.0776 126.999C94.6904 126.933 95.1039 126.882 96.0878 126.919C97.5893 126.967 98.6447 127.094 99.9565 127.061C101.442 127.026 102.961 126.965 104.439 126.876C104.906 126.848 105.372 126.821 105.838 126.8L106.188 126.784L106.738 126.767L107.997 126.747C108.013 126.701 108.024 126.653 108.03 126.605L108.056 126.45L108.106 126.151C108.14 125.954 108.17 125.753 108.196 125.55L108.226 125.24C108.235 125.136 108.238 125.045 108.246 124.947L108.258 124.715L108.268 124.531C108.286 124.041 108.297 123.558 108.306 123.078C108.324 122.116 108.334 121.165 108.361 120.219C108.395 118.943 108.401 117.653 108.339 116.374C108.269 114.961 108.294 113.574 108.216 112.167C108.17 111.334 108.093 110.473 108 109.631C107.955 109.209 107.904 108.794 107.854 108.392C107.84 108.286 107.828 108.181 107.814 108.082C107.798 107.904 107.783 107.727 107.769 107.552V107.487C107.769 107.476 107.769 107.462 107.769 107.456H107.2C107.2 107.456 107.2 107.456 107.2 107.447L107.178 107.363L107.099 107.053C107.082 106.988 107.069 106.923 107.055 106.868C107.016 106.795 106.977 106.722 106.939 106.652C106.862 106.515 106.783 106.388 106.713 106.278L106.092 106.305C105.896 106.315 105.667 106.323 105.575 106.335L104.873 106.398L103.668 106.516C102.967 106.586 102.481 106.635 102.294 106.635C101.299 106.614 100.311 106.573 99.341 106.612C98.5172 106.646 97.5504 106.612 96.725 106.629C95.2966 106.645 93.8806 106.646 92.4459 106.638C90.8481 106.628 89.5844 106.702 87.999 106.68C87.3772 106.671 86.6887 106.708 86.6747 106.868C86.628 107.064 87.1254 107.114 87.9632 107.126Z" fill="#063844"/>
<path d="M112.46 106.324C112.615 111.207 112.312 117.978 112.46 122.863C112.489 123.823 112.265 125.102 112.948 125.781C113.63 126.459 128.735 125.567 133.941 125.537C134.497 122.779 133.453 105.838 132.721 106.324C126.514 106.212 118.666 106.434 112.46 106.324Z" fill="white"/>
<path d="M113.803 106.575C115.342 106.592 116.887 106.762 118.424 106.672C120.978 106.518 121.155 106.775 122.621 106.756C123.365 106.745 125.095 106.79 125.838 106.787C126.538 106.787 127.891 106.567 128.583 106.587H128.847C129.376 106.606 129.906 106.648 130.436 106.702C130.7 106.73 130.966 106.761 131.23 106.793L131.626 106.846L131.824 106.874L131.922 106.888H131.968L131.992 106.895C132.085 106.922 132.177 106.953 132.267 106.99C132.287 106.99 132.295 107.029 132.298 107.053C132.299 107.08 132.299 107.106 132.298 107.132C132.296 107.181 132.292 107.229 132.285 107.276L132.275 107.337C132.269 107.36 132.265 107.383 132.264 107.407L132.271 107.746C132.271 107.972 132.279 108.195 132.284 108.418C132.295 109.316 132.307 110.205 132.385 111.051C132.523 112.584 132.809 114.086 132.986 115.618C133.142 117.027 133.268 118.46 133.366 119.891C133.419 120.681 133.467 121.466 133.503 122.251C133.521 122.642 133.535 123.034 133.544 123.425V124.01V124.529C133.544 124.622 133.544 124.714 133.529 124.806L133.515 124.944L133.504 125.012C133.504 125.034 133.504 125.065 133.473 125.057L132.352 125.074L130.815 125.091C129.488 125.102 128.162 125.113 126.842 125.135L118.309 125.319C116.849 125.339 115.46 125.474 114.097 125.52C113.927 125.52 113.758 125.52 113.596 125.52C113.477 125.524 113.357 125.515 113.24 125.493C113.183 125.474 113.133 125.439 113.094 125.393C113.051 125.351 113.013 125.303 112.981 125.253C112.906 125.139 112.85 125.014 112.816 124.882C112.733 124.558 112.692 124.225 112.693 123.891C112.685 123.541 112.693 123.174 112.693 122.795C112.648 120.915 112.841 117.994 112.848 116.121C112.965 113.502 112.733 112.005 112.76 108.884C112.772 107.513 112.659 106.312 112.449 106.318C112.239 106.324 112.219 107.484 112.228 108.887C112.25 112.905 112.099 114.772 112.056 118.542C112.046 119.437 112.029 120.385 112.034 121.515C112.034 121.797 112.034 122.092 112.034 122.398C112.034 122.553 112.034 122.708 112.042 122.871C112.049 123.033 112.042 123.18 112.042 123.335C112.032 123.664 112.015 124.023 112.042 124.419C112.052 124.628 112.08 124.835 112.124 125.039C112.177 125.29 112.273 125.531 112.407 125.751C112.492 125.887 112.597 126.01 112.718 126.115C112.852 126.205 113.004 126.265 113.164 126.29C113.435 126.344 113.708 126.383 113.983 126.408C114.474 126.456 114.958 126.49 115.443 126.519C116.411 126.577 117.376 126.609 118.345 126.589C121.004 126.526 121.427 126.481 122.428 126.519C123.957 126.575 125.031 126.708 126.367 126.684C127.88 126.656 129.429 126.603 130.935 126.519L132.418 126.447L132.788 126.431L133.327 126.416L134.654 126.394L134.676 126.33L134.69 126.255L134.716 126.1L134.769 125.804C134.804 125.607 134.841 125.412 134.861 125.205C134.881 124.997 134.9 124.791 134.912 124.585L134.933 124.182C134.953 123.693 134.962 123.21 134.971 122.73C134.987 121.773 135.002 120.819 135.016 119.868C135.044 118.565 135.038 117.249 134.956 115.942C134.866 114.5 134.859 113.08 134.732 111.638C134.634 110.547 134.482 109.461 134.275 108.385C134.222 108.114 134.165 107.846 134.103 107.578C134.071 107.444 134.04 107.311 134.005 107.176C133.983 107.091 133.963 107.005 133.941 106.922C133.913 106.812 133.883 106.7 133.851 106.593C133.72 106.163 133.54 105.787 133.213 105.607C133.19 105.607 133.137 105.582 133.098 105.57L133.049 105.578L132.976 105.568C132.878 105.556 132.784 105.537 132.685 105.534C132.585 105.531 132.475 105.564 132.374 105.578C132.273 105.591 132.172 105.66 132.074 105.698L132.007 105.598L131.99 105.573C131.99 105.573 131.99 105.573 131.979 105.573H131.957L131.87 105.581L131.698 105.596L131.362 105.627L130.728 105.689L129.64 105.802C129.004 105.869 128.552 105.917 128.379 105.918C127.366 105.906 126.359 105.876 125.367 105.928C124.528 105.971 123.542 105.946 122.701 105.977C121.247 106.011 119.804 106.03 118.349 106.037C116.722 106.047 115.436 106.132 113.82 106.115C113.198 106.115 112.488 106.146 112.474 106.305C112.441 106.514 112.948 106.564 113.803 106.575Z" fill="#063844"/>
<path d="M79.7999 62.938C79.4983 63.2694 79.0693 63.4862 78.83 63.8672C78.4305 64.5084 78.2082 64.3736 77.9269 64.6942C77.7839 64.8568 77.4031 65.1898 77.257 65.3493C77.1109 65.5089 77.0114 65.9332 76.8622 66.0695L76.8062 66.1237C76.1565 66.6874 75.0141 66.8423 74.484 67.4246C74.1732 67.7607 74.0177 68.2114 73.7737 68.6048C73.553 68.9641 73.3074 69.3141 73.0696 69.661L72.2737 70.8194C72.0293 71.1229 71.7628 71.4082 71.4764 71.6728L70.6277 72.4626L70.1847 72.8994C70.0293 73.0542 69.9003 73.1874 69.7681 73.3067C69.6495 73.4157 69.5216 73.5141 69.3858 73.6009C69.3033 73.656 69.2101 73.6929 69.1122 73.7094C69.0221 73.7227 68.9313 73.73 68.8402 73.731C68.7829 73.7289 68.726 73.7201 68.6708 73.7047C68.592 73.6768 68.516 73.6415 68.4438 73.5994C68.272 73.4999 68.1119 73.3815 67.9667 73.2463C67.8091 73.1072 67.6674 72.9514 67.5439 72.7817C67.233 72.331 66.8569 71.5427 66.5134 71.1168C66.1279 70.4508 65.6491 70.2619 65.1331 69.5139C64.9077 69.184 64.6373 68.9501 64.4709 69.0725C64.3046 69.1948 64.4601 69.5015 64.7088 69.8267C65.4222 70.7559 65.6802 71.2469 66.3191 72.142C66.6222 72.5664 66.9315 73.0589 67.4957 73.8162C67.6735 74.0915 67.8753 74.3506 68.0988 74.5906C68.2492 74.7324 68.4261 74.8434 68.6195 74.9174C68.8177 74.9916 69.0311 75.0165 69.2412 74.9901C69.3718 74.973 69.5001 74.9413 69.6236 74.8957L69.779 74.8322L69.9018 74.7687C70.0145 74.7046 70.1234 74.6342 70.2282 74.558C70.3837 74.4403 70.4863 74.3691 70.6324 74.2793C70.85 74.1461 71.0458 74.0299 71.2075 73.9417C71.3767 73.8537 71.5335 73.7439 71.6738 73.6149C71.9945 73.3077 72.2926 72.978 72.566 72.6283C73.061 71.9442 73.6401 71.3246 74.2897 70.7838C74.5966 70.5542 74.8799 70.2949 75.1353 70.0094C75.4073 69.6997 75.757 69.4473 76.0259 69.1329C76.8389 68.2036 77.2694 66.6394 77.4093 66.483C77.627 66.2875 77.8248 66.0712 77.9999 65.8372C78.1352 65.6297 78.3528 65.4392 78.4989 65.2425C78.7678 64.9157 79.0429 64.5998 79.3274 64.2838C79.6382 63.9323 79.8341 63.5993 80.1511 63.2508C80.2724 63.1176 80.375 62.9318 80.2584 62.8218C80.0967 62.6778 79.9662 62.7552 79.7999 62.938Z" fill="#BADFD8"/>
<path d="M79.9072 85.9258C79.7284 86.121 79.4953 86.265 79.3072 86.4524C79.1191 86.6398 79.0383 86.8706 78.8735 87.061C78.7912 87.1586 78.5487 87.3398 78.4616 87.4327C78.3662 87.5496 78.2623 87.6593 78.1508 87.7611C77.9705 87.9159 78.087 87.9965 77.9067 88.1452C77.7264 88.2938 77.5197 88.4224 77.3285 88.5633C77.1405 88.7188 76.9624 88.8858 76.7954 89.0635C76.6306 89.2184 76.455 89.3733 76.2809 89.5282C76.0833 89.6815 75.8992 89.8515 75.7306 90.0361C75.5441 90.2685 75.3731 90.5147 75.2037 90.764C75.0513 90.9828 74.8613 91.1731 74.6426 91.3262C74.24 91.5539 73.8095 91.749 73.3758 91.9457C73.1041 92.0722 72.8409 92.216 72.5878 92.3763C72.4205 92.4734 72.2641 92.5881 72.1215 92.7185C72.09 92.7481 72.0604 92.7797 72.0329 92.813C71.9474 92.9121 71.8665 93.0159 71.7888 93.1227C71.523 93.3411 71.5401 93.8321 71.3847 94.148C71.3536 94.1774 71.3194 94.2069 71.2837 94.2347C71.223 94.2796 71.1562 94.3184 71.094 94.3617C71.0088 94.4343 70.9386 94.5226 70.8873 94.6219C70.8236 94.7195 70.7645 94.8186 70.7039 94.9177C70.5407 95.1364 70.3922 95.3656 70.2594 95.6038C70.1972 95.7277 70.1412 95.8562 70.0868 95.9863L69.9314 96.3611C69.8839 96.4678 69.8294 96.5713 69.7682 96.6709L69.7215 96.7406L69.6874 96.7979C69.6609 96.835 69.6345 96.8737 69.6034 96.9109C69.465 97.0984 69.2691 97.2359 69.0454 97.3027C68.9458 97.313 68.8452 97.2997 68.7517 97.2639C68.6583 97.2282 68.5746 97.1709 68.5076 97.0968C68.441 97.0261 68.3811 96.9494 68.3289 96.8676C68.276 96.787 68.2372 96.7127 68.1734 96.6167C67.9251 96.1969 67.6553 95.7901 67.3652 95.3978C67.0667 94.9905 66.56 94.7381 66.2771 94.3137C66.0937 94.0442 66.016 93.6942 65.8108 93.4542C65.6134 93.0391 65.2404 92.8347 64.9466 92.3809C64.8191 92.1842 64.6357 92.0634 64.4679 92.1858C64.3 92.3081 64.3746 92.5048 64.5238 92.6953C64.9497 93.2435 64.8471 93.719 65.2155 94.2533C65.3911 94.5073 65.5606 94.8109 65.8916 95.2569C66.0891 95.5202 66.1388 95.8919 66.3409 96.1551C66.6191 96.516 66.6797 96.5609 66.7263 96.7406C66.7557 96.8681 66.7764 96.9974 66.7885 97.1277C66.7976 97.2483 66.8337 97.3652 66.8942 97.47C66.9346 97.5335 66.9766 97.5986 67.0279 97.6667C67.0543 97.7039 67.0994 97.7581 67.1382 97.803C67.1771 97.8479 67.2191 97.8944 67.261 97.9393C67.4257 98.1156 67.6185 98.2637 67.8315 98.3776C68.223 98.5854 68.6627 98.6863 69.106 98.6703C69.5513 98.6488 69.9885 98.5437 70.3946 98.3605C70.4921 98.3197 70.5871 98.2732 70.679 98.2211C70.7282 98.1947 70.7759 98.1658 70.822 98.1344L70.8578 98.1112L70.8842 98.0941L70.9339 98.0616C71.0581 97.9807 71.1719 97.885 71.2728 97.7767C71.3219 97.7224 71.3738 97.6707 71.4282 97.6218L71.509 97.5505L71.5805 97.4901C71.6797 97.4156 71.7727 97.3332 71.8588 97.2439C72.0448 97.0762 72.1926 96.8708 72.2924 96.6414C72.3686 96.4184 72.5613 96.2961 72.6422 96.0793C72.6775 95.9855 72.7245 95.8965 72.7821 95.8144H72.8007C72.9683 95.7513 73.1254 95.6636 73.267 95.5542C73.3629 95.4929 73.4547 95.4257 73.5421 95.3529C73.68 95.2451 73.7837 95.0999 73.8406 94.9348C73.8685 94.8697 74.0224 94.625 74.0535 94.5569C74.1064 94.4577 74.2369 94.4299 74.2898 94.3153C74.3815 94.1139 74.397 93.8506 74.481 93.6369C74.5477 93.5494 74.6193 93.4656 74.6954 93.386C74.8167 93.2637 74.9597 93.163 75.0934 93.0515C75.3778 92.8176 75.6809 92.5993 75.956 92.3561C76.2102 92.1088 76.4242 91.8235 76.5902 91.5105C76.7627 91.224 76.9881 90.9809 77.1715 90.7021C77.3438 90.4426 77.5428 90.2018 77.7653 89.9835C77.8943 89.8627 77.9067 89.6366 78.0388 89.5189C78.1444 89.4157 78.2446 89.3072 78.3388 89.1936C78.5627 88.9582 78.6497 88.6237 78.8875 88.4007C79.0252 88.2947 79.1435 88.1658 79.2372 88.0197C79.3056 87.8881 79.2372 87.5954 79.3134 87.4715C79.4688 87.2717 79.6243 87.0827 79.7937 86.8969C79.9802 86.6878 80.0673 86.4679 80.26 86.2619C80.2816 86.2405 80.2984 86.2148 80.3095 86.1866C80.3206 86.1583 80.3256 86.1281 80.3243 86.0978C80.323 86.0675 80.3153 86.0378 80.3019 86.0106C80.2884 85.9834 80.2694 85.9593 80.246 85.9398C80.0813 85.7694 80.0051 85.8174 79.9072 85.9258Z" fill="#BADFD8"/>
<path d="M104.111 63.3391C103.85 63.6272 103.58 63.906 103.306 64.1832C102.885 64.6478 100.462 66.895 100.264 67.0746C99.1592 67.8986 98.0338 68.6698 97.1898 69.596C96.7074 70.1461 96.2644 70.7293 95.864 71.3414L95.2422 72.2458C95.1381 72.4007 95.0324 72.5432 94.9314 72.6903C94.8348 72.8248 94.731 72.954 94.6205 73.0775C94.4885 73.2299 94.3388 73.3661 94.1744 73.4832C94.1143 73.5284 94.0453 73.5605 93.972 73.5776C93.8986 73.5947 93.8225 73.5963 93.7485 73.5824C93.7075 73.5748 93.6673 73.5628 93.6288 73.5467C93.584 73.53 93.5412 73.5082 93.5014 73.4817C93.3981 73.4126 93.3008 73.3349 93.2107 73.2494C93.0195 73.0682 92.8159 72.8529 92.634 72.6733C92.491 72.4967 92.3138 72.2876 92.1848 72.1157C91.8304 71.6697 91.4527 71.1865 91.0331 70.6042C90.2761 69.5634 89.5409 68.7039 89.373 68.8262C89.2052 68.9486 89.816 69.8608 90.6087 70.9186L91.8584 72.6036C91.9703 72.825 92.0791 73.0542 92.188 73.2865C92.295 73.5347 92.417 73.7762 92.5532 74.0098C92.6388 74.1489 92.7389 74.2787 92.8517 74.397C92.9928 74.5418 93.1573 74.6622 93.3382 74.7532C93.7163 74.9346 94.149 74.9678 94.5506 74.8461C94.7987 74.7699 95.0336 74.656 95.2469 74.5085C95.4243 74.3866 95.5921 74.2515 95.749 74.1043C95.9044 73.968 96.0318 73.8255 96.1484 73.7063L96.5121 73.3346C97.1556 72.8033 97.8225 72.3 98.3774 71.6836C99.31 70.6429 100.168 69.4225 100.954 68.2919C101.503 67.7009 102.002 67.0664 102.447 66.3947C102.81 65.8295 103.27 65.2502 103.57 64.6571C103.853 64.3303 104.141 64.0004 104.458 63.652C104.853 63.2183 105.263 62.6933 105.153 62.5787C105.002 62.4238 104.651 62.7475 104.111 63.3391Z" fill="#BADFD8"/>
<path d="M129.352 62.6949C129.051 63.0263 128.622 63.2431 128.382 63.6241C127.984 64.2653 127.761 64.1306 127.479 64.4511C127.338 64.606 126.956 64.9467 126.809 65.1062C126.663 65.2658 126.564 65.6901 126.415 65.8264L126.36 65.8806C125.71 66.4443 124.568 66.5992 124.038 67.1815C123.727 67.5176 123.572 67.9683 123.328 68.3617C123.105 68.721 122.861 69.071 122.622 69.4179L121.829 70.5717C121.584 70.8745 121.317 71.1596 121.032 71.425L120.183 72.2149L119.737 72.6501C119.582 72.805 119.453 72.9382 119.321 73.0574C119.203 73.1667 119.075 73.2652 118.94 73.3517C118.857 73.4066 118.763 73.4435 118.665 73.4601C118.575 73.4734 118.484 73.4807 118.393 73.4818C118.335 73.4795 118.278 73.4707 118.223 73.4554C118.145 73.4272 118.069 73.3919 117.996 73.3501C117.825 73.2506 117.665 73.1321 117.521 72.997C117.362 72.8587 117.22 72.7028 117.096 72.5324C116.785 72.0833 116.409 71.2934 116.066 70.8691C115.68 70.2031 115.203 70.0142 114.687 69.2661C114.46 68.9362 114.19 68.7024 114.023 68.8247C113.857 68.9471 114.014 69.2537 114.263 69.579C114.976 70.5082 115.233 70.9991 115.871 71.8943C116.182 72.3187 116.484 72.8112 117.05 73.5685C117.226 73.8441 117.428 74.1032 117.651 74.3428C117.801 74.4853 117.978 74.5969 118.172 74.6712C118.37 74.7454 118.584 74.7704 118.794 74.744C118.925 74.7268 119.054 74.6951 119.178 74.6495L119.333 74.5844L119.456 74.5225C119.569 74.4588 119.678 74.3884 119.782 74.3119C119.945 74.1942 120.042 74.1229 120.186 74.0331C120.404 73.8999 120.601 73.7838 120.761 73.6955C120.931 73.6076 121.088 73.4977 121.228 73.3687C121.549 73.0616 121.848 72.7319 122.122 72.3822C122.616 71.6977 123.195 71.078 123.845 70.5376C124.152 70.308 124.434 70.0486 124.689 69.7633C124.963 69.4442 125.311 69.2011 125.581 68.8867C126.393 67.9574 126.825 66.3932 126.963 66.2368C127.181 66.0418 127.379 65.8254 127.554 65.591C127.689 65.3835 127.907 65.193 128.053 64.9963C128.322 64.6695 128.597 64.3536 128.883 64.0376C129.194 63.6861 129.388 63.3531 129.705 63.0046C129.828 62.8714 129.929 62.684 129.812 62.5756C129.649 62.43 129.519 62.5121 129.352 62.6949Z" fill="#BADFD8"/>
<path d="M54.764 62.8204C54.5868 63.0155 54.3521 63.1596 54.164 63.347C53.9759 63.5344 53.8951 63.7636 53.7319 63.9556C53.648 64.0532 53.4055 64.2328 53.3184 64.3273C53.2222 64.4435 53.1183 64.5531 53.0076 64.6556C52.8257 64.8105 52.9423 64.891 52.7635 65.0397C52.5848 65.1884 52.3781 65.3107 52.1884 65.4656C51.9988 65.6198 51.8201 65.787 51.6537 65.9659C51.489 66.1207 51.3133 66.2756 51.1393 66.4305C50.942 66.5838 50.758 66.7531 50.589 66.9369C50.4041 67.1708 50.2315 67.417 50.0636 67.6648C49.9102 67.8837 49.7199 68.0745 49.501 68.2285C49.0984 68.4562 48.6678 68.6513 48.2342 68.848C47.9627 68.9743 47.6995 69.1176 47.4461 69.277C47.2791 69.3745 47.1228 69.4893 46.9798 69.6193C46.9487 69.6503 46.9192 69.6812 46.8912 69.7138C46.8057 69.8129 46.7249 69.9166 46.6472 70.0235C46.3814 70.2419 46.3985 70.7313 46.2431 71.0472C46.2116 71.0786 46.1778 71.1076 46.142 71.1339C46.0814 71.1804 46.0146 71.2191 45.9524 71.2625C45.867 71.3348 45.7967 71.4232 45.7457 71.5227C45.6835 71.6187 45.6244 71.7194 45.5638 71.8169C45.3999 72.0356 45.2513 72.2654 45.1193 72.5046C45.0556 72.6269 44.9996 72.757 44.9452 72.8856L44.7898 73.2603C44.7422 73.367 44.6877 73.4705 44.6266 73.5701C44.611 73.5933 44.597 73.6181 44.5815 73.6398L44.5457 73.6971C44.5193 73.7343 44.4929 73.773 44.4618 73.8086C44.323 73.996 44.1274 74.134 43.9038 74.202C43.8042 74.213 43.7035 74.1999 43.6101 74.1637C43.5168 74.1276 43.4335 74.0695 43.3675 73.9944C43.2992 73.9248 43.2387 73.848 43.1872 73.7652C43.1344 73.6847 43.0955 73.6104 43.0318 73.5159C42.7843 73.0954 42.5151 72.6881 42.2251 72.2955C41.9251 71.8897 41.4184 71.6373 41.137 71.2114C40.9552 70.9435 40.8759 70.5996 40.6707 70.3534C40.4733 69.9383 40.1019 69.7339 39.8081 69.2801C39.6791 69.0819 39.4972 68.9611 39.3278 69.085C39.1584 69.2089 39.2345 69.4025 39.3837 69.5945C39.8096 70.1412 39.7071 70.6182 40.0754 71.1525C40.2511 71.4065 40.4205 71.7085 40.7531 72.1546C40.9505 72.4194 40.9987 72.7911 41.2008 73.0544C41.479 73.4152 41.5396 73.4601 41.5863 73.6382C41.6153 73.7664 41.6366 73.8962 41.65 74.027C41.6588 74.1473 41.6943 74.2643 41.7541 74.3692C41.7945 74.4327 41.8381 74.4978 41.8894 74.5659C41.9158 74.6015 41.9593 74.6557 41.9982 74.7007C42.037 74.7456 42.079 74.7936 42.121 74.8385C42.2865 75.0139 42.4791 75.1619 42.6914 75.2768C43.084 75.4831 43.5238 75.584 43.9675 75.5695C44.4127 75.5472 44.8497 75.4421 45.2561 75.2597C45.3534 75.2181 45.4484 75.171 45.5405 75.1188C45.5871 75.094 45.6322 75.0662 45.682 75.0336L45.7177 75.0104L45.7441 74.9934L45.7939 74.9608C45.9177 74.8795 46.0314 74.7838 46.1327 74.6759C46.1819 74.6217 46.2338 74.57 46.2881 74.521L46.369 74.4498L46.442 74.3909C46.5404 74.3159 46.6328 74.2336 46.7187 74.1447C46.9049 73.9765 47.0528 73.7705 47.1524 73.5407C47.2285 73.3177 47.4213 73.1968 47.5021 72.98C47.538 72.8861 47.585 72.7966 47.642 72.7136H47.6622C47.8271 72.6499 47.9816 72.5623 48.1207 72.4535C48.2165 72.3913 48.3088 72.3241 48.3974 72.2521C48.5345 72.1433 48.6375 71.9976 48.6943 71.8324C48.7222 71.7689 48.8761 71.5227 48.9088 71.4561C48.9601 71.3554 49.0922 71.3275 49.1435 71.2145C49.2352 71.0116 49.2523 70.7499 49.3347 70.5361C49.401 70.4483 49.4727 70.3645 49.5492 70.2852C49.6704 70.1629 49.815 70.0607 49.9471 69.9507C50.2315 69.7153 50.5346 69.4985 50.8097 69.2553C51.0637 69.0074 51.2781 68.7223 51.4455 68.4097C51.6164 68.1217 51.8418 67.8801 52.0252 67.6013C52.1975 67.3418 52.3965 67.101 52.619 66.8827C52.748 66.7619 52.7604 66.5358 52.8926 66.4181C53.0247 66.3004 53.0931 66.1997 53.1941 66.0929C53.4164 65.8559 53.505 65.5214 53.7412 65.2999C53.8789 65.1934 53.9977 65.0646 54.0925 64.9189C54.1609 64.7857 54.0925 64.493 54.1671 64.3707C54.3226 64.1709 54.478 63.9819 54.6474 63.7945C54.8168 63.6071 54.921 63.3671 55.1137 63.1611C55.1354 63.1397 55.1524 63.114 55.1636 63.0857C55.1748 63.0573 55.18 63.027 55.1789 62.9966C55.1777 62.9661 55.1702 62.9363 55.1568 62.9089C55.1435 62.8815 55.1246 62.8572 55.1013 62.8374C54.9396 62.6624 54.865 62.712 54.764 62.8204Z" fill="#BADFD8"/>
<path d="M54.6567 86.045C54.3552 86.3748 53.9262 86.5917 53.6868 86.9742C53.2889 87.6154 53.0651 87.4822 52.7837 87.8012C52.6423 87.9561 52.2599 88.2968 52.1138 88.4563C51.9677 88.6158 51.8682 89.0402 51.719 89.1765L51.6646 89.2307C51.0149 89.7944 49.8709 89.9508 49.3331 90.5332C49.0222 90.8692 48.8668 91.3199 48.6228 91.7117C48.402 92.0726 48.1565 92.4211 47.9186 92.7695L47.1259 93.9218C46.8805 94.2254 46.6135 94.5111 46.327 94.7767L45.4799 95.565L45.0338 96.0002C44.8783 96.155 44.7493 96.2882 44.6172 96.4075C44.4993 96.5173 44.3713 96.6158 44.2348 96.7017C44.1528 96.7574 44.0594 96.7945 43.9613 96.8101C43.8713 96.8243 43.7804 96.8315 43.6893 96.8318C43.6319 96.8304 43.5749 96.8215 43.5198 96.8055C43.4412 96.7778 43.3652 96.7431 43.2929 96.7017C42.9421 96.4892 42.6363 96.2104 42.3929 95.8809C42.0821 95.4318 41.7059 94.6419 41.3624 94.2176C40.9769 93.5516 40.4998 93.3627 39.9837 92.6131C39.7568 92.2848 39.4863 92.0494 39.32 92.1717C39.1537 92.2941 39.3107 92.6023 39.5594 92.9275C40.2713 93.8567 40.5293 94.3461 41.1681 95.2413C41.4712 95.6672 41.7805 96.1597 42.3448 96.9155C42.5227 97.1907 42.7245 97.4498 42.9478 97.6898C43.0982 97.8321 43.2751 97.9436 43.4685 98.0181C43.6669 98.0918 43.8803 98.1163 44.0903 98.0894C44.2209 98.0722 44.3491 98.0405 44.4727 97.9949L44.6281 97.9314L44.7509 97.8679C44.8641 97.8047 44.9731 97.7344 45.0773 97.6573C45.2405 97.5396 45.3353 97.4683 45.4814 97.3801C45.699 97.2453 45.8949 97.1292 46.0565 97.0409C46.2254 96.953 46.3821 96.8437 46.5228 96.7157C46.8436 96.408 47.1418 96.0778 47.415 95.7276C47.9097 95.0436 48.4889 94.4244 49.1388 93.8846C49.4457 93.655 49.7289 93.3956 49.9844 93.1102C50.2579 92.8005 50.6061 92.5481 50.875 92.2337C51.6879 91.3044 52.1185 89.7418 52.2584 89.5838C52.4764 89.3887 52.6743 89.1724 52.849 88.938C52.9843 88.732 53.2019 88.5415 53.348 88.3448C53.6169 88.0165 53.892 87.7005 54.1764 87.3862C54.4873 87.0346 54.6831 86.7001 55.0002 86.3532C55.1215 86.2184 55.2241 86.0326 55.1075 85.9226C54.9536 85.7801 54.823 85.8607 54.6567 86.045Z" fill="#BADFD8"/>
</svg>
