<svg width="164" height="164" viewBox="0 0 164 164" fill="none" xmlns="http://www.w3.org/2000/svg">
<path d="M80.6217 21.7658L33.0456 70.0932C32.9851 70.1548 32.9443 70.2329 32.928 70.3177C32.9118 70.4025 32.921 70.4902 32.9544 70.5698C32.9878 70.6494 33.0439 70.7173 33.1158 70.7652C33.1877 70.813 33.2721 70.8385 33.3584 70.8386H129.968C130.054 70.8385 130.139 70.813 130.21 70.7652C130.282 70.7173 130.338 70.6494 130.372 70.5698C130.405 70.4902 130.414 70.4025 130.398 70.3177C130.382 70.2329 130.341 70.1548 130.281 70.0932L82.7046 21.7658C82.5686 21.6277 82.4064 21.518 82.2276 21.4431C82.0489 21.3683 81.857 21.3297 81.6631 21.3297C81.4693 21.3297 81.2774 21.3683 81.0986 21.4431C80.9198 21.518 80.7577 21.6277 80.6217 21.7658Z" fill="#BADFD8"/>
<path d="M80.6392 21.7789C80.3761 21.5202 79.4275 22.5653 77.7991 24.2185C64.3897 37.8428 51.1864 50.9262 37.3517 64.4306C36.6286 65.1361 35.9139 65.8426 35.2074 66.5501C34.8537 66.9038 34.5019 67.257 34.1521 67.6098L32.5734 69.2176C32.3654 69.4333 32.2077 69.6924 32.1116 69.9762C32.0914 70.0278 32.0743 70.0805 32.0604 70.1341L32.018 70.2803C31.9908 70.3876 31.9833 70.4991 31.9961 70.6091C32.0118 70.7525 32.0539 70.8918 32.1203 71.0199C32.182 71.1393 32.2653 71.2464 32.3659 71.3356C32.4467 71.3982 32.5339 71.4521 32.6261 71.4964C32.6758 71.5198 32.7138 71.5446 32.7722 71.568L32.9418 71.6382C33.0783 71.6877 33.2193 71.7239 33.3627 71.7463C33.5386 71.7699 33.7161 71.7782 33.8933 71.7712H35.0057L36.498 71.7536L41.6621 71.6557C45.0868 71.5826 48.4809 71.5008 51.8676 71.4569C60.4169 71.3444 67.7063 71.435 76.6357 71.5519C87.3307 71.6908 98.6646 71.8223 109.604 71.6426C115.477 71.5461 120.834 71.6835 126.224 71.8428L127.236 71.872L127.743 71.8881L128.566 71.9027L129.488 71.9173C129.643 71.9173 129.8 71.9173 129.943 71.9173C130.011 71.9152 130.079 71.9064 130.146 71.891C130.208 71.883 130.269 71.8693 130.329 71.8501L130.493 71.7975C130.542 71.7803 130.591 71.7603 130.639 71.7376C130.683 71.7171 130.732 71.6966 130.77 71.6762L130.878 71.6119C130.912 71.5899 130.952 71.568 130.984 71.5461C131.016 71.5242 131.045 71.5022 131.076 71.4774C131.152 71.4122 131.22 71.3376 131.277 71.2552C131.411 71.0642 131.497 70.8435 131.526 70.6121C131.535 70.527 131.535 70.4413 131.526 70.3563C131.526 70.2817 131.503 70.1955 131.492 70.1151C131.482 70.0347 131.444 69.9295 131.418 69.8359L131.349 69.6781C131.339 69.6502 131.327 69.6233 131.313 69.5977L131.261 69.5129C131.093 69.2617 130.897 69.0303 130.677 68.823L129.994 68.1141L129.651 67.7574L129.469 67.5645L128.758 66.8059C126.857 64.7785 124.877 62.7132 122.765 60.5747C115.779 53.4973 108.184 46.4813 101.002 39.5018C95.1449 33.8012 89.6007 28.3711 83.9002 22.5712L82.9355 21.5948C82.7629 21.4155 82.5541 21.275 82.323 21.1826C82.1147 21.1007 81.8919 21.0624 81.6682 21.07C81.3377 21.0773 81.0198 21.1981 80.7678 21.4121C80.5983 21.5714 80.5559 21.7044 80.6041 21.7497C80.6214 21.7658 80.642 21.778 80.6645 21.7853C80.6869 21.7926 80.7107 21.7949 80.7342 21.7921C80.798 21.7847 80.8608 21.77 80.9213 21.7483C81.116 21.6737 81.3202 21.627 81.5279 21.6094C81.8449 21.5908 82.1575 21.6908 82.4049 21.89C82.44 21.9237 82.4707 21.9485 82.5116 21.9894L82.6388 22.1181L82.9048 22.3885C83.089 22.5726 83.2819 22.77 83.4894 22.9731C92.2697 31.8894 100.29 40.7076 109.301 49.4967C113.172 53.2722 116.64 56.8709 120.063 60.4169C121.774 62.1899 123.474 63.9497 125.207 65.7096C126.072 66.5866 126.949 67.4685 127.838 68.3552L128.481 68.9911L128.907 69.4033L129.357 69.833C129.398 69.8674 129.434 69.9072 129.464 69.9514C129.49 69.9955 129.505 70.0459 129.506 70.0976C129.507 70.149 129.494 70.1998 129.468 70.2444C129.442 70.289 129.405 70.3256 129.36 70.3504C129.305 70.3748 129.246 70.3859 129.186 70.3826H129.005L128.639 70.3913L127.898 70.4001H126.841L125.789 70.387C124.4 70.3621 123.064 70.3139 121.74 70.2598C119.091 70.1516 116.488 70.0172 113.599 69.9909C106.832 69.9309 101.142 70.2744 94.1363 70.0976C84.745 69.8608 76.4646 70.4527 66.9974 70.3504C60.8583 70.2846 54.8771 70.1224 48.9603 69.9572L40.1113 69.7219L35.6956 69.624H35.5494H35.4617H35.4412L35.4047 69.6137C35.3881 69.6089 35.3719 69.6026 35.3565 69.5947C35.3433 69.5947 35.3404 69.5626 35.3565 69.548C35.3726 69.5333 35.3945 69.5246 35.4091 69.5158L35.4383 69.5027L36.0449 68.9004L37.3984 67.5455C38.3008 66.6392 39.2012 65.7262 40.0996 64.8063C41.8984 62.9646 43.6934 61.0888 45.4844 59.1788C50.8356 53.4578 56.906 47.5614 62.2835 41.5525C66.8439 36.4556 71.3458 31.6058 76.3609 26.4081L78.1967 24.6351C79.5225 23.2947 80.838 21.9792 80.6392 21.7789Z" fill="#063844"/>
<path d="M131.016 67.7998L81.5615 107.891L33.0616 70.2963C33.5019 69.8649 34.0898 69.6172 34.706 69.6035L85.967 68.2047L129.158 67.028C129.505 67.0184 129.849 67.0822 130.17 67.2152C130.49 67.3482 130.778 67.5474 131.016 67.7998Z" fill="#BADFD8"/>
<path d="M131.03 67.8217C130.798 67.5294 129.8 68.4166 128.097 69.7979C114.078 81.1566 100.3 92.0285 85.8793 103.221C85.0403 103.872 84.212 104.526 83.3944 105.181L82.171 106.166L81.7077 106.536L81.5396 106.682L78.3326 104.263L74.5454 101.44C72.0299 99.5795 69.5304 97.7407 67.0587 95.8859C60.6098 91.0287 55.2265 86.7402 48.6416 81.4811C44.6951 78.3326 40.6258 75.0936 36.5097 71.8676L35.4676 71.0506L35.2118 70.8474L35.0802 70.7451L35.0159 70.6954C35.0338 70.6752 35.0539 70.657 35.0758 70.6413C35.1622 70.573 35.2617 70.5232 35.3682 70.4951C35.4738 70.4693 35.5825 70.458 35.6912 70.4615L37.0681 70.4177C39.6801 70.3358 42.2848 70.2393 44.8647 70.1253C55.9456 69.6284 65.1045 70.1253 76.4486 69.7921C85.8325 69.5173 95.5702 68.7689 105.013 68.288C112.719 67.9007 120.037 67.5674 127.718 67.3584L129.013 67.3204H129.16C129.205 67.3204 129.249 67.3204 129.293 67.3204C129.379 67.3217 129.464 67.3276 129.55 67.3379C129.707 67.3593 129.861 67.3945 130.012 67.4432C130.576 67.6302 130.889 67.9255 130.992 67.8247C131.06 67.7633 131.052 67.6522 130.954 67.5045C130.802 67.2971 130.601 67.1296 130.37 67.0163C130 66.8281 129.59 66.7347 129.176 66.7445L127.698 66.7883C115.886 67.1099 104.633 66.9476 92.7638 67.5192C82.5657 68.0161 73.8848 67.8217 64.2246 68.3421C58.4261 68.6563 54.0411 68.288 48.5846 68.3859C45.3909 68.4429 42.4529 68.5935 39.4872 68.7309L37.2537 68.8303L36.1238 68.8741L35.355 68.9004C35.0716 68.9012 34.7885 68.9187 34.5072 68.9531C34.262 68.9839 34.0203 69.0378 33.7852 69.1138C33.5633 69.1869 33.3505 69.285 33.1508 69.4062C32.9528 69.5293 32.7647 69.6676 32.5881 69.8198C32.496 69.8958 32.4024 69.9777 32.3089 70.0625L32.2402 70.1268C32.2299 70.1268 32.2402 70.137 32.2402 70.1429L32.2533 70.1575L32.2782 70.1882L32.3776 70.311L32.7751 70.8035L32.9739 71.0535L33.0733 71.1792L33.123 71.242L33.2122 71.3137L34.6812 72.483L35.9821 73.5354L37.2596 74.5484C38.1093 75.2149 38.9556 75.8682 39.7985 76.5085C41.4853 77.7903 43.1604 79.0313 44.85 80.2693C48.2119 82.7542 51.6045 85.2171 55.1052 87.9958C59.5633 91.5345 63.8431 95.0527 68.0775 98.5388L74.4095 103.747L77.5814 106.33L79.1731 107.617L79.9902 108.274L81.5717 109.519L85.3092 106.541C86.2944 105.754 87.2776 104.96 88.2589 104.159C90.2244 102.557 92.1884 100.917 94.1509 99.2404C99.7696 94.4301 106.094 89.5466 111.761 84.46C116.567 80.1451 121.291 76.0597 126.547 71.7098L128.459 70.2481C129.832 69.1372 131.207 68.0351 131.03 67.8217Z" fill="#063844"/>
<path d="M130.686 67.4636L131.016 67.7998L81.5615 107.891L33.0617 70.2963C33.0104 70.246 32.975 70.1817 32.9599 70.1114C32.9449 70.0411 32.9508 69.9679 32.9769 69.901C33.0031 69.834 33.0483 69.7763 33.1071 69.7348C33.1658 69.6933 33.2354 69.67 33.3072 69.6678L85.967 68.2061L130.317 67.2838L130.686 67.4636Z" fill="#BADFD8"/>
<path d="M130.702 67.4475C130.611 67.5367 130.668 67.7048 130.848 67.9591L130.867 67.6229C130.38 67.908 129.566 68.5979 128.452 69.5012C114.41 80.8847 100.607 91.7742 86.1614 102.987C85.2727 103.677 84.3957 104.369 83.5304 105.065L82.2353 106.107L81.7179 106.528L81.5396 106.674L81.199 106.422C80.8862 106.186 80.5744 105.949 80.2635 105.713L78.397 104.309L74.677 101.547C72.2038 99.7184 69.7482 97.9117 67.3189 96.0803C60.8583 91.2144 55.4662 86.9185 48.8624 81.6506C44.9071 78.4978 40.8319 75.2529 36.71 72.0211L35.5523 71.1134L35.2965 70.9102L35.1679 70.8108L35.1036 70.7597L35.0875 70.748H35.0802C35.0802 70.748 35.0919 70.748 35.0656 70.748L34.9677 70.7261L34.7718 70.6822L33.2078 70.3358L33.1099 70.3139L33.1844 70.3285L33.6975 70.4337L34.7206 70.6427L34.9764 70.6939C35.0656 70.7129 35.0013 70.6939 35.0203 70.6939V70.6851C35.0142 70.6732 35.0103 70.6604 35.0086 70.6471C35.0046 70.6199 35.0097 70.5922 35.0232 70.5682C35.0389 70.5447 35.0611 70.5263 35.087 70.5151C35.1129 70.504 35.1415 70.5006 35.1694 70.5053L35.4953 70.4951L36.4045 70.4644C39.0209 70.3811 41.6285 70.2832 44.2128 70.1721C55.3127 69.6693 64.4877 70.1589 75.8493 69.8213C78.1982 69.7511 80.5705 69.6503 82.9559 69.5289L90.1342 69.1606C94.9314 68.9092 99.736 68.6329 104.459 68.4298C112.179 68.0907 119.514 67.8056 127.208 67.6449C127.837 67.6317 128.465 67.6215 129.012 67.5995C129.435 67.5931 129.858 67.5575 130.276 67.4928C130.491 67.5557 130.64 67.5674 130.678 67.4928C130.732 67.3876 130.636 67.2575 130.368 67.0733C130.294 67.0631 130.206 67.0543 130.107 67.047L129.814 67.0324C129.613 67.0251 129.376 67.0236 129.117 67.0324C128.589 67.0324 127.948 67.0573 127.199 67.0733C115.36 67.3189 104.09 67.085 92.1952 67.5878C89.6402 67.6989 87.1816 67.7516 84.7786 67.8129C82.3756 67.8743 80.0282 67.9138 77.6983 67.9591C73.037 68.0395 68.443 68.1243 63.6048 68.3874C57.7961 68.7031 53.4038 68.3391 47.9371 68.44C44.7375 68.4985 41.7981 68.6519 38.8236 68.7908L36.5857 68.8902L35.1811 68.9428L34.3172 68.9706C34.1711 68.9706 34.0249 68.9706 33.8787 68.9881C33.7518 68.9964 33.6257 69.0145 33.5016 69.0422L33.3408 69.0846C33.2867 69.0992 33.2444 69.1168 33.1947 69.1314C33.0953 69.1621 33.0178 69.1942 32.9345 69.2264C32.8512 69.2585 32.7883 69.2892 32.7094 69.3199C32.6323 69.3442 32.5608 69.3835 32.4989 69.4354C32.4191 69.5146 32.3584 69.6109 32.3212 69.717C32.2839 69.823 32.2712 69.9362 32.284 70.0478C32.284 70.061 32.284 70.0712 32.2913 70.0844V70.1005V70.1092L32.341 70.1238L32.401 70.1399L32.8789 70.2686L32.9973 70.3007L33.0499 70.3153H33.0339L32.9535 70.308L32.6348 70.2846L32.4755 70.2715C32.4273 70.2715 32.3454 70.2583 32.3761 70.2715L32.5004 70.4834C32.6044 70.6599 32.7227 70.8276 32.8541 70.9848C32.8939 71.0361 32.9369 71.0849 32.9827 71.1309C33.0317 71.1829 33.084 71.2317 33.1391 71.2771L33.4987 71.5621L34.8975 72.6803C41.7674 78.3092 48.323 82.6402 55.339 88.2077C59.7562 91.7157 63.998 95.1989 68.193 98.6543L74.468 103.814L77.615 106.347L79.1921 107.622L80.0092 108.278L81.5717 109.51L85.3823 106.477C86.3918 105.672 87.4004 104.859 88.408 104.038C90.4251 102.396 92.4398 100.715 94.452 98.9948C100.079 94.1713 106.416 89.2835 112.093 84.1895C116.908 79.8674 121.639 75.7761 126.906 71.4189L128.822 69.9484C129.769 69.1811 130.722 68.4225 131.147 67.962L131.32 67.7764L131.163 67.6536C130.925 67.4665 130.764 67.3832 130.702 67.4475Z" fill="#063844"/>
<path d="M33.8261 70.5024L81.5542 108.385L130.686 67.4636" fill="#BADFD8"/>
<path d="M33.8407 70.4834C33.6112 70.7757 34.2295 71.1908 35.1898 71.9524C43.0829 78.2229 50.6295 84.5008 58.3793 91.1442C62.0598 94.2999 65.8953 96.8798 69.5553 99.6394C73.1598 102.357 76.1168 104.82 79.7359 107.841L80.4872 108.465L81.5659 109.342L82.7352 108.399L83.5421 107.753L85.0607 106.539C86.0742 105.725 87.0886 104.901 88.104 104.067C90.1313 102.401 92.1411 100.705 94.0793 98.9831C98.7186 94.867 103.123 92.1688 107.981 88.0922C112.002 84.7186 115.874 80.8554 119.799 77.3065C122.997 74.4109 126.058 71.6878 129.358 68.9398C130.117 68.3069 130.881 67.6916 130.702 67.4782C130.465 67.1946 129.93 67.715 128.988 68.5013C123.914 72.727 118.785 76.3944 113.844 80.8364C109.605 84.6558 105.6 87.4271 101.611 91.0842C99.2171 93.2767 97.0275 94.4695 94.6508 96.3813C91.8736 98.6206 89.7805 100.806 86.8265 103.038C85.7901 103.82 84.8225 104.619 83.887 105.431C83.4193 105.836 82.9579 106.244 82.5028 106.654L82.1622 106.961L81.9927 107.116L81.9503 107.154L81.9254 107.177L81.886 107.217L81.5454 107.553L81.1902 107.321L81.0967 107.256L80.9374 107.142L80.5968 106.895C80.1417 106.567 79.6866 106.233 79.2316 105.892C78.321 105.213 77.4059 104.507 76.488 103.747C69.3346 97.8299 63.2511 91.7449 55.7834 86.3849C52.4215 83.9717 49.0421 81.0484 45.4742 78.7068C42.4485 76.7203 39.5924 74.7062 36.558 72.3894L35.5436 71.5022C34.7747 70.8912 34.0147 70.2641 33.8407 70.4834Z" fill="#063844"/>
<path d="M128.952 32.8102H35.2381C34.434 32.8102 33.7822 33.462 33.7822 34.266V91.7786C33.7822 92.5826 34.434 93.2344 35.2381 93.2344H128.952C129.756 93.2344 130.408 92.5826 130.408 91.7786V34.266C130.408 33.462 129.756 32.8102 128.952 32.8102Z" fill="#063844"/>
<path d="M128.952 93.2548C128.952 92.9479 127.096 92.9961 124.039 92.9961C98.8707 92.9961 74.3949 92.8046 48.9398 92.4845C45.919 92.4465 42.9314 92.4334 39.9768 92.4451L35.5626 92.4699H35.2878C35.2571 92.472 35.2263 92.472 35.1957 92.4699C35.1738 92.4721 35.1518 92.4721 35.1299 92.4699C35.0434 92.4584 34.96 92.4301 34.8844 92.3866C34.7284 92.2988 34.6114 92.1552 34.5569 91.9847C34.5441 91.942 34.5343 91.8986 34.5277 91.8546C34.5292 91.8322 34.5292 91.8097 34.5277 91.7873V91.647V91.1003L34.5145 90.0085C34.4473 84.1939 34.3479 78.4612 34.3011 72.7417C34.2076 61.4868 34.2836 51.8836 34.3801 40.1244C34.3927 38.3645 34.4069 36.592 34.4225 34.8068V34.4721V34.2382V34.1915C34.4343 34.0661 34.4759 33.9453 34.5438 33.8392C34.61 33.7328 34.7001 33.6432 34.8069 33.5775C34.9137 33.5118 35.0343 33.4718 35.1591 33.4606H35.2629H35.4325H35.7687H36.4425L37.7931 33.4709L48.6796 33.5264C55.9719 33.5483 63.3052 33.5381 70.5083 33.4635C85.9758 33.3028 98.7274 33.9211 114.554 33.902C117.829 33.902 121.129 33.8767 124.456 33.826L126.951 33.7924L128.201 33.7734L128.826 33.7632H128.965C128.983 33.7632 129.002 33.7632 129.019 33.7632C129.055 33.765 129.09 33.7714 129.124 33.7822C129.196 33.8046 129.262 33.8424 129.317 33.8929C129.373 33.9433 129.417 34.0053 129.446 34.0745C129.454 34.0914 129.461 34.1091 129.466 34.1271C129.473 34.1446 129.477 34.1627 129.48 34.1812C129.485 34.1997 129.488 34.2189 129.488 34.2382C129.489 34.2504 129.489 34.2626 129.488 34.2748V34.3493L129.499 34.9764C129.514 35.8105 129.53 36.6461 129.545 37.4832C129.671 44.1689 129.817 50.8648 129.908 57.4555C130.054 68.2134 130.165 78.4291 130.165 89.1461C130.165 89.7629 130.165 90.3783 130.165 90.9542C130.165 91.2465 130.165 91.5198 130.165 91.7829C130.166 91.9931 130.116 92.2003 130.019 92.3866C129.862 92.6716 129.614 92.8958 129.314 93.0239C129.092 93.1189 128.942 93.1481 128.942 93.211C128.942 93.2739 129.062 93.3572 129.312 93.3367C129.683 93.2959 130.024 93.1093 130.259 92.8178C130.434 92.6073 130.553 92.3559 130.605 92.087C130.631 91.9422 130.642 91.7954 130.639 91.6485V91.21C130.639 90.6063 130.639 89.9164 130.639 89.1519C130.639 72.6715 131.028 56.9951 130.816 40.4153C130.792 38.6369 130.777 36.8887 130.77 35.1708C130.77 34.9559 130.77 34.7411 130.77 34.5276V34.3669C130.77 34.3128 130.77 34.2631 130.77 34.1915C130.769 34.1243 130.763 34.0574 130.751 33.9912C130.742 33.9249 130.728 33.8594 130.709 33.7953C130.604 33.4082 130.375 33.0664 130.056 32.8229C129.737 32.5795 129.347 32.4481 128.946 32.4491H127.056C123.709 32.4491 120.441 32.4228 117.196 32.4038C110.706 32.3629 104.311 32.3278 97.5668 32.4345C89.4706 32.5617 83.3711 32.1583 75.7601 32.1159C66.8439 32.0662 59.3572 32.3512 50.1311 32.2036C47.0396 32.1553 44.0388 32.1495 41.0833 32.1656L36.6764 32.2065L35.5801 32.2211H35.3068H35.2381H35.1431C35.0794 32.223 35.0159 32.2294 34.9531 32.2401C34.5732 32.2972 34.2173 32.4608 33.9268 32.7121C33.6362 32.9633 33.4229 33.2918 33.3116 33.6594L33.2663 33.8436C33.2546 33.905 33.2473 33.9678 33.2385 34.0307C33.2297 34.0935 33.2312 34.1549 33.2283 34.2178C33.2283 34.2529 33.2283 34.2762 33.2283 34.2982V34.3669L33.237 34.9135C33.3247 40.7427 33.4256 46.5865 33.3832 52.8191C33.3057 64.3999 33.0616 75.5218 32.8848 86.613L32.8205 90.7715V91.2918V91.552V91.8443C32.8317 92.4332 33.0553 92.9981 33.4502 93.4351C33.845 93.8721 34.3844 94.1517 34.9691 94.2225C35.0422 94.2327 35.1153 94.2342 35.1869 94.2386H35.2775H35.3433H35.6035H36.1239C38.9001 94.2727 41.6826 94.2965 44.4715 94.3102C50.0551 94.3379 55.684 94.3204 61.4123 94.2283C71.7244 94.0632 82.8668 94.2196 93.4727 93.9009C102.469 93.6305 111.175 93.4624 120.691 93.4083L124.052 93.4624C126.502 93.4741 128.952 93.4873 128.952 93.2548Z" fill="#063844"/>
<mask id="mask0_1882_11780" style="mask-type:alpha" maskUnits="userSpaceOnUse" x="33" y="32" width="98" height="62">
<path d="M128.952 32.8102H35.2381C34.434 32.8102 33.7822 33.462 33.7822 34.266V91.7786C33.7822 92.5826 34.434 93.2344 35.2381 93.2344H128.952C129.756 93.2344 130.408 92.5826 130.408 91.7786V34.266C130.408 33.462 129.756 32.8102 128.952 32.8102Z" fill="#063844"/>
</mask>
<g mask="url(#mask0_1882_11780)">
<path d="M124.377 55.2293V100.271H112.518V56.3811C112.518 51.6492 111.294 47.9882 108.845 45.3981C106.396 42.808 103.045 41.5124 98.7903 41.5115C94.4052 41.5115 91.4044 43.1763 89.0876 45.6831C85.0388 50.0681 85.2566 69.4675 80.7064 82.0452C79.6087 85.0767 76.9382 88.8317 73.6728 90.9497C70.3227 93.1237 66.4555 94.2107 62.0715 94.2107C55.8837 94.2107 50.9213 92.2287 47.1843 88.2646C43.4473 84.3006 41.5773 78.6419 41.5744 71.2887V26.1346H53.4301V70.1311C53.4301 74.863 54.6549 78.524 57.1047 81.1141C59.5545 83.7042 62.9149 85.2872 67.1596 84.9992C70.4776 84.7712 73.7371 84.1222 76.8622 80.8262C81.6521 75.7702 83.5172 49.5112 85.242 44.4655C86.2871 41.415 89.0116 37.679 92.2756 35.561C95.6277 33.3889 99.4953 32.3029 103.878 32.3029C110.066 32.3029 115.029 34.2849 118.767 38.249C122.505 42.2131 124.375 47.8732 124.377 55.2293Z" fill="#185059" stroke="#185059" stroke-width="1.66" stroke-miterlimit="10"/>
<path d="M124.389 55.2293C124.076 55.2293 124.124 60.3189 124.124 68.6972C124.124 73.9241 124.121 79.1696 124.114 84.4336C124.103 89.5982 124.093 94.7783 124.083 99.9741L112.852 99.9405C112.884 91.4209 112.916 82.8725 112.948 74.2954C112.967 69.9542 112.986 65.6077 113.007 61.2558C113.007 60.1683 113.011 59.0804 113.021 57.9919V56.3592L113.011 55.5261L112.974 54.6944C112.91 53.5775 112.755 52.4678 112.51 51.3764C112.26 50.2742 111.889 49.2031 111.403 48.1826C111.157 47.6699 110.879 47.1733 110.57 46.6961C110.492 46.5762 110.408 46.4607 110.327 46.3438C110.247 46.2269 110.168 46.107 110.076 45.9974C109.898 45.7738 109.729 45.5443 109.535 45.3338C108.785 44.4696 107.916 43.7157 106.955 43.0945C105.995 42.4729 104.955 41.9846 103.864 41.6431C102.781 41.3071 101.665 41.0866 100.535 40.9853C100.255 40.9546 99.9727 40.9459 99.6921 40.9254C99.4115 40.9049 99.1308 40.9093 98.8502 40.902C98.5695 40.8947 98.2845 40.9108 98.0024 40.9152C97.7203 40.9195 97.4367 40.9517 97.1532 40.9707C96.0133 41.0744 94.8908 41.3199 93.8118 41.7015C93.2706 41.8973 92.7432 42.1293 92.2332 42.3958L91.8561 42.6049L91.669 42.7116L91.4863 42.827L91.1223 43.0565L90.77 43.305C90.5318 43.4658 90.314 43.6514 90.086 43.8253C89.9749 43.9145 89.8696 44.011 89.76 44.1045C89.6504 44.1981 89.5422 44.2887 89.4399 44.3881C89.2324 44.584 89.0233 44.7784 88.8289 44.9859L88.6828 45.1321C88.6331 45.1832 88.5834 45.2329 88.5366 45.2958L88.3817 45.4741L88.2355 45.6568C87.8857 46.1419 87.5892 46.6634 87.3512 47.2121C87.1166 47.7318 86.9097 48.2636 86.7314 48.8053C86.3777 49.8738 86.1029 50.951 85.8544 52.0297C85.3764 54.1886 85.0198 56.3519 84.6851 58.5123C84.0127 62.8315 83.4266 67.1434 82.6183 71.3969C82.2134 73.5236 81.7573 75.6358 81.199 77.7099C80.9183 78.7462 80.6143 79.7752 80.2723 80.7794C80.1027 81.2851 79.92 81.8026 79.7329 82.2601C79.5458 82.7176 79.3134 83.1999 79.0649 83.656C78.0741 85.492 76.7949 87.1571 75.2763 88.5877C75.0833 88.7601 74.8992 88.9429 74.6989 89.1022C74.4987 89.2615 74.3057 89.4369 74.0996 89.586L73.7927 89.8184C73.6904 89.8944 73.5837 89.9646 73.4784 90.0362C73.3732 90.1078 73.2694 90.1824 73.1612 90.2496L72.8294 90.4542C71.9443 90.9979 71.0153 91.4668 70.0522 91.856C68.1183 92.6245 66.078 93.0918 64.0024 93.2416L63.6121 93.2723L63.2218 93.2899L62.8301 93.3074H62.4384H62.0466L61.6535 93.2986C61.3918 93.2913 61.1302 93.2899 60.8685 93.2782C59.8281 93.2255 58.7918 93.1098 57.7654 92.9318C56.7498 92.7428 55.7497 92.4785 54.7734 92.141L54.0498 91.8735L53.3511 91.5768L53.1743 91.4993L53.0018 91.4131L52.6583 91.2421L52.3148 91.0696L51.9815 90.8781C51.5314 90.634 51.1045 90.349 50.6792 90.0669L50.058 89.6167C49.8533 89.4632 49.6589 89.2951 49.4587 89.1358C48.6722 88.4789 47.9423 87.7572 47.2764 86.9784C46.6243 86.1931 46.0377 85.3557 45.5224 84.4745C45.017 83.582 44.5773 82.6538 44.2069 81.6973C44.0359 81.2121 43.8517 80.7312 43.7128 80.2357C43.574 79.7402 43.4366 79.2403 43.3065 78.7389C43.0735 77.7261 42.8954 76.7014 42.773 75.6694C42.6999 75.1534 42.6678 74.6316 42.6268 74.1127C42.6005 73.8525 42.5976 73.5909 42.5815 73.3307C42.5654 73.0705 42.5523 72.8089 42.5435 72.5472L42.5304 71.7609C42.5304 71.5007 42.5216 71.239 42.523 70.9686V69.3608C42.523 67.217 42.523 65.0791 42.523 62.947C42.5123 54.4069 42.4894 45.916 42.4543 37.4744C42.4383 33.9386 42.4222 30.413 42.4061 26.9503L52.6934 26.8962C52.7533 39.7882 52.8132 52.61 52.8717 65.4567L52.898 70.3752C52.9043 72.0587 53.1089 73.7356 53.5075 75.3712C53.5631 75.5758 53.6099 75.7819 53.6727 75.9851L53.8627 76.5917L54.082 77.191C54.1536 77.3912 54.2457 77.5842 54.3261 77.7757C54.6688 78.5585 55.0864 79.3065 55.5729 80.0091C56.5574 81.4125 57.8079 82.6088 59.2534 83.5303C60.7 84.4552 62.3224 85.0708 64.0184 85.3384C64.8619 85.4658 65.715 85.5177 66.5676 85.4933L67.2049 85.4641L67.8305 85.4144L68.4561 85.3501L69.0817 85.2697C69.9234 85.1536 70.7544 84.9698 71.5665 84.7201C72.3843 84.4646 73.1734 84.1252 73.9213 83.7071C74.6618 83.2857 75.3603 82.7942 76.0071 82.2396L76.4807 81.8113C76.64 81.6652 76.7833 81.5117 76.9353 81.3641L77.1604 81.1375C77.2349 81.0557 77.3065 80.9694 77.3825 80.8846C77.5287 80.7122 77.6573 80.5353 77.7772 80.3541C78.0181 79.9954 78.2354 79.6214 78.4276 79.2344C78.622 78.8529 78.7931 78.4656 78.9553 78.0738C79.2754 77.2919 79.5517 76.4967 79.8002 75.6957C80.2971 74.0879 80.6962 72.4683 81.0557 70.8356C81.7705 67.5688 82.323 64.2683 82.8361 60.9547C83.3491 57.6411 83.8037 54.3099 84.2977 50.9788C84.5535 49.3154 84.8079 47.6447 85.1587 46.0091C85.2478 45.5998 85.3443 45.1935 85.4627 44.8018C85.5212 44.6073 85.5942 44.4144 85.6659 44.2171C85.7375 44.0198 85.812 43.8327 85.8983 43.6412C86.2335 42.8774 86.6244 42.1392 87.0676 41.4326C87.9582 40.0083 89.0254 38.7024 90.2438 37.546C90.8522 36.968 91.5062 36.4401 92.1996 35.9674C92.8989 35.4954 93.6284 35.0696 94.3833 34.6928C95.9045 33.9421 97.5151 33.3881 99.1761 33.044C100.85 32.7038 102.556 32.5485 104.264 32.5807C105.981 32.5925 107.692 32.7885 109.367 33.1654L109.991 33.3232C110.095 33.351 110.2 33.3744 110.302 33.4051L110.611 33.5001L111.226 33.6916L111.83 33.9137L112.134 34.0248L112.426 34.152L113.02 34.4063C113.214 34.4999 113.406 34.5978 113.604 34.6987L113.897 34.8448C113.992 34.8945 114.084 34.9501 114.179 35.0027L114.74 35.3213C114.924 35.4339 115.104 35.5537 115.285 35.6692L115.557 35.8431C115.648 35.9031 115.733 35.9689 115.822 36.0317L116.346 36.4117C117.033 36.939 117.681 37.5134 118.288 38.1307C118.602 38.4303 118.872 38.7636 119.165 39.0851C119.238 39.1655 119.311 39.2503 119.372 39.3365L119.574 39.5909L119.776 39.8467L119.876 39.9738L119.97 40.1069C120.218 40.4635 120.479 40.8128 120.701 41.1885C120.815 41.3741 120.935 41.5554 121.043 41.7454L121.356 42.3184L121.502 42.5932L121.636 42.8738L121.905 43.4365C121.996 43.6236 122.067 43.818 122.149 44.0081C122.231 44.1981 122.31 44.3866 122.383 44.5781C122.456 44.7696 122.529 44.964 122.591 45.1555C122.652 45.347 122.737 45.5355 122.787 45.7285L122.962 46.3014C122.99 46.3964 123.019 46.4914 123.048 46.585C123.077 46.6785 123.098 46.7765 123.123 46.87C123.171 47.06 123.219 47.2471 123.269 47.4328L123.339 47.7105C123.36 47.804 123.38 47.8961 123.399 47.9882C123.438 48.1724 123.476 48.3551 123.514 48.5349C123.553 48.7146 123.593 48.8915 123.62 49.0684C123.68 49.4221 123.739 49.7632 123.795 50.0916C123.852 50.4199 123.895 50.743 123.924 51.0606L123.954 51.2901L123.976 51.5167C123.991 51.6629 124.006 51.809 124.02 51.9552C124.047 52.2388 124.083 52.5077 124.096 52.762C124.13 53.2707 124.175 53.7136 124.196 54.0775C124.239 54.8084 124.291 55.2279 124.351 55.2279C124.41 55.2279 124.479 54.9092 124.508 54.2982C124.508 54.1521 124.525 53.9752 124.525 53.7867C124.525 53.5981 124.525 53.3905 124.514 53.1669C124.504 52.9433 124.506 52.7021 124.491 52.4434C124.476 52.1847 124.453 51.9113 124.432 51.6205C124.317 50.2016 124.094 48.7934 123.767 47.4079L123.611 46.7896C123.583 46.6844 123.557 46.5791 123.529 46.4724L123.433 46.1553L123.234 45.5034C123.167 45.2826 123.08 45.0648 123.001 44.8398C122.855 44.3896 122.655 43.9394 122.462 43.476C122.417 43.3576 122.361 43.2436 122.306 43.1296L122.139 42.7817C122.084 42.6662 122.028 42.5478 121.971 42.4309C121.914 42.314 121.847 42.1985 121.785 42.0816C121.193 40.9574 120.485 39.8978 119.673 38.92C118.858 37.9489 117.948 37.0612 116.957 36.27C115.968 35.4785 114.898 34.7926 113.765 34.2236C112.634 33.6586 111.45 33.2067 110.231 32.8745C109.016 32.5416 107.774 32.3166 106.52 32.2021C106.207 32.1627 105.893 32.1466 105.58 32.1276L105.111 32.0983C104.953 32.0896 104.796 32.0896 104.64 32.0852C104.013 32.0676 103.384 32.0676 102.757 32.0983C101.503 32.1503 100.254 32.3038 99.0241 32.5573C97.7952 32.8152 96.5918 33.1826 95.4284 33.655C94.2683 34.136 93.1551 34.7231 92.1031 35.409C91.0591 36.1079 90.0932 36.9169 89.2221 37.8223C87.4988 39.6333 86.0488 41.7235 85.147 44.0738C85.0334 44.368 84.9358 44.6681 84.8546 44.9728C84.7728 45.2768 84.6997 45.5794 84.6325 45.8834C84.498 46.4914 84.3825 47.0995 84.2729 47.709C84.0551 48.9266 83.8636 50.1471 83.6765 51.3632C83.313 53.7993 82.9491 56.2355 82.5847 58.6716C82.2148 61.1038 81.826 63.5302 81.3861 65.9434C80.9461 68.3566 80.455 70.7669 79.8396 73.1261C79.5297 74.3086 79.1892 75.4808 78.7799 76.6253C78.5753 77.1983 78.3546 77.7625 78.1046 78.3121C77.8616 78.8586 77.5757 79.385 77.2495 79.8863C77.1648 80.0076 77.0844 80.1319 76.9923 80.2444C76.947 80.3014 76.9031 80.3614 76.8563 80.4154L76.7102 80.5777C76.5085 80.7926 76.2878 81.003 76.0773 81.215L75.7411 81.5146C75.6271 81.6126 75.5204 81.7193 75.3991 81.807C75.1637 81.9911 74.9357 82.187 74.6858 82.3522L74.3174 82.608L73.9359 82.8433L73.7444 82.9617L73.5471 83.0669L73.1525 83.2789C72.6163 83.5424 72.0619 83.7671 71.4935 83.9512C70.3419 84.3069 69.1547 84.5348 67.9533 84.6309C67.8071 84.647 67.6522 84.6587 67.5002 84.6689C67.3481 84.6791 67.1976 84.6938 67.0485 84.6982L66.5998 84.7157L66.3747 84.7245H66.151H65.7023C65.5561 84.7245 65.41 84.7055 65.255 84.6952C65.1001 84.685 64.9627 84.6791 64.8092 84.6587L64.3707 84.6002C64.2245 84.5841 64.0784 84.5549 63.9322 84.5271L63.4937 84.4424L63.0552 84.3327L62.8389 84.2787L62.6269 84.2114L62.2016 84.0769L61.7821 83.9001L61.5731 83.8197L61.3699 83.7291C61.234 83.6677 61.098 83.6092 60.9635 83.5449C59.8948 83.0207 58.9096 82.3409 58.0402 81.5278C57.1636 80.7238 56.4136 79.7919 55.8155 78.7638C55.2271 77.7276 54.7779 76.6184 54.4796 75.4648C54.1794 74.3018 53.99 73.113 53.9139 71.9143C53.8949 71.6147 53.8861 71.3136 53.8715 71.014L53.8613 70.1106L53.873 68.2733C53.9577 53.7794 54.041 39.5003 54.1229 25.436L40.8217 25.3761C40.7837 35.2668 40.7456 45.1004 40.7076 54.8771C40.693 59.646 40.6794 64.4077 40.6667 69.162V70.9453C40.6667 71.2376 40.6667 71.5445 40.674 71.8486C40.6813 72.1526 40.674 72.4552 40.6901 72.7592C40.7223 73.3672 40.7369 73.9738 40.7968 74.5819C40.8246 74.8859 40.8421 75.19 40.8801 75.4925L40.9897 76.4017C41.0073 76.5479 41.0292 76.7057 41.0555 76.8563L41.1286 77.3094L41.2032 77.7625C41.2265 77.9087 41.2631 78.0636 41.2923 78.2142C41.3552 78.5138 41.4136 78.8149 41.4809 79.1146L41.706 80.0091C42.0282 81.2035 42.4391 82.3722 42.9352 83.5054C44.1217 86.1818 45.9017 88.553 48.1403 90.4396C48.5028 90.7319 48.8521 91.0243 49.2292 91.2859C49.4148 91.4175 49.5961 91.5549 49.7847 91.6791L50.3562 92.0431C50.5433 92.1688 50.7391 92.2755 50.9408 92.3851C51.1425 92.4947 51.3282 92.6058 51.5255 92.7096L52.1204 93.0019L52.4127 93.1481L52.7153 93.2782L53.3161 93.5325C53.5178 93.6144 53.7224 93.6787 53.9241 93.7576C54.3275 93.9125 54.7383 94.0309 55.1446 94.1537C56.7392 94.6109 58.3794 94.8903 60.0354 94.9869C61.6272 95.0933 63.2254 95.0566 64.8107 94.8773C66.3761 94.7015 67.9182 94.3585 69.4106 93.8541C70.9001 93.3456 72.3259 92.6668 73.6597 91.8311C73.8248 91.723 73.9929 91.6236 74.1581 91.5096L74.6507 91.1661C74.8129 91.0477 74.9679 90.922 75.1272 90.8006C75.2865 90.6793 75.4385 90.5507 75.5905 90.4206C75.9004 90.1663 76.1869 89.8885 76.4807 89.6152C76.7745 89.3419 77.0493 89.051 77.3153 88.7499C78.1391 87.848 78.8844 86.8773 79.5429 85.8485C79.7037 85.5942 79.8659 85.3398 80.0136 85.0782C80.0881 84.9466 80.1597 84.8195 80.2387 84.6865L80.4506 84.2903C80.5237 84.1588 80.588 84.0243 80.6538 83.8884L80.8496 83.485C80.968 83.2087 81.0981 82.9398 81.2019 82.6562C81.256 82.51 81.313 82.3756 81.3627 82.2382L81.5089 81.8274C81.6053 81.5541 81.6959 81.2808 81.7866 81.0074C81.9649 80.4593 82.1359 79.9141 82.2938 79.3674C82.6139 78.2741 82.8945 77.1749 83.1562 76.0962C84.1793 71.7463 84.8663 67.4723 85.5285 63.2335C85.8588 61.117 86.1775 59.0078 86.5356 56.9073C86.8937 54.8069 87.2825 52.7109 87.8321 50.6733C88.0899 49.6717 88.4322 48.6937 88.8552 47.7499C89.0516 47.3143 89.2968 46.9024 89.5861 46.5221C89.6188 46.4783 89.654 46.4364 89.6913 46.3964C89.7281 46.3516 89.7671 46.3087 89.8083 46.2678L90.0801 45.9872C90.1693 45.8922 90.2643 45.8045 90.3578 45.7153C90.4514 45.6261 90.5449 45.5355 90.6414 45.4493C90.8387 45.2826 91.0273 45.1029 91.2348 44.9494L91.5403 44.7097L91.8561 44.486L92.0139 44.3735L92.1776 44.2697L92.505 44.0621L92.8442 43.8721L93.0122 43.7771L93.1876 43.6909C94.1261 43.2146 95.1277 42.8745 96.1622 42.6809C96.8249 42.5537 97.4962 42.4765 98.1705 42.4499L98.6821 42.4368C98.8516 42.4295 99.0256 42.4368 99.1966 42.4368C99.5416 42.4368 99.8836 42.4616 100.22 42.4791C100.899 42.5309 101.575 42.6251 102.243 42.7613C102.902 42.9007 103.551 43.0893 104.182 43.3255C105.435 43.8016 106.59 44.5047 107.588 45.3996C108.088 45.8447 108.546 46.3339 108.958 46.8612C109.365 47.3976 109.727 47.9667 110.041 48.5626C110.35 49.1683 110.615 49.7961 110.832 50.4409C111.046 51.095 111.22 51.7618 111.352 52.4375C111.606 53.8158 111.731 55.2149 111.725 56.6165C111.75 59.5193 111.775 62.4237 111.801 65.3295C111.917 77.0755 112.032 88.8386 112.147 100.619L124.634 100.518C124.609 96.697 124.584 92.8787 124.561 89.0627C124.546 85.3354 124.532 81.6116 124.517 77.8911C124.546 74.8216 124.575 71.7521 124.603 68.6826C124.603 65.3061 124.603 61.9399 124.582 59.417C124.56 56.8942 124.504 55.2293 124.389 55.2293Z" fill="#185059" stroke="#185059" stroke-width="1.66" stroke-miterlimit="10"/>
</g>
<path d="M107.116 77.4833L104.024 84.859H102.007L100.486 78.9728C100.394 78.6103 100.313 78.4773 100.033 78.3253C99.4338 78.0383 98.8013 77.8276 98.15 77.6982L98.1953 77.4833H101.44C101.652 77.4836 101.857 77.5594 102.017 77.6971C102.178 77.8349 102.285 78.0255 102.317 78.2347L103.121 82.5042L105.108 77.4833H107.116ZM115.021 82.453C115.028 80.5061 112.328 80.3979 112.347 79.5297C112.347 79.2637 112.605 78.983 113.156 78.9114C113.8 78.8495 114.449 78.9631 115.034 79.2403L115.367 77.6763C114.797 77.461 114.192 77.3501 113.582 77.3489C111.697 77.3489 110.367 78.3516 110.358 79.787C110.346 80.8481 111.305 81.4416 112.029 81.7938C112.752 82.1461 113.021 82.3873 113.02 82.7103C113.02 83.2058 112.426 83.4236 111.878 83.4324C111.196 83.4474 110.521 83.2874 109.918 82.9676L109.573 84.5754C110.019 84.78 110.84 84.9584 111.695 84.9671C113.699 84.9671 115.01 83.9776 115.018 82.4443L115.021 82.453ZM120.004 84.859H121.768L120.226 77.4833H118.596C118.422 77.4828 118.252 77.5339 118.107 77.6302C117.963 77.7265 117.85 77.8636 117.783 78.0242L114.921 84.859H116.924L117.323 83.7583H119.77L120.004 84.859ZM117.874 82.2455L118.88 79.4756L119.464 82.2455H117.874ZM109.843 77.4833L108.265 84.859H106.357L107.934 77.4833H109.843Z" fill="white"/>
<path d="M94.3862 39.6888V43.7231H93.5472V42.8461C93.4546 43.1312 93.2674 43.3761 93.0166 43.5403C92.7517 43.7084 92.443 43.7943 92.1294 43.7874C91.9201 43.7955 91.7114 43.7589 91.5173 43.68C91.3232 43.6011 91.1482 43.4818 91.0039 43.3299C90.7203 43.0288 90.5844 42.599 90.5844 42.0319V39.6932H91.4161V41.9427C91.3949 42.2484 91.4934 42.5504 91.6909 42.7847C91.7886 42.8854 91.9071 42.9638 92.0381 43.0142C92.169 43.0647 92.3094 43.0861 92.4495 43.077C92.5971 43.0825 92.7442 43.0569 92.8812 43.0017C93.0182 42.9465 93.1421 42.8631 93.2447 42.7569C93.4464 42.5464 93.5472 42.2263 93.5472 41.8243V39.6888H94.3862Z" fill="white"/>
<path d="M96.9193 40.0821C97.2029 40.3846 97.3403 40.8129 97.3403 41.3815V43.7319H96.5071V41.4721C96.5255 41.1675 96.4279 40.8672 96.2338 40.6317C96.1356 40.5311 96.0169 40.4529 95.8857 40.4025C95.7545 40.352 95.614 40.3305 95.4738 40.3393C95.3262 40.334 95.1792 40.3598 95.0422 40.4149C94.9052 40.47 94.7813 40.5534 94.6786 40.6594C94.4769 40.8699 94.3761 41.1813 94.3761 41.5935V43.7334H93.5473V39.6889H94.379V40.5761C94.4748 40.2871 94.6653 40.0388 94.9198 39.8716C95.1818 39.7056 95.4866 39.6198 95.7968 39.6246C96.0056 39.6172 96.2136 39.6542 96.4071 39.7331C96.6006 39.8119 96.7752 39.9309 96.9193 40.0821Z" fill="white"/>
<path d="M101.081 40.0499C101.427 40.3322 101.655 40.7336 101.721 41.1754H100.834C100.797 40.9381 100.669 40.7244 100.477 40.5805C100.274 40.4297 100.025 40.3524 99.7726 40.3613C99.622 40.3564 99.4722 40.3842 99.3335 40.4428C99.1947 40.5013 99.0702 40.5892 98.9686 40.7004C98.7581 40.9284 98.6485 41.2573 98.6485 41.6972C98.6485 42.1372 98.7581 42.4749 98.9686 42.7029C99.07 42.815 99.1942 42.904 99.3328 42.964C99.4715 43.024 99.6215 43.0536 99.7726 43.0508C100.026 43.061 100.275 42.9836 100.477 42.8315C100.667 42.6813 100.794 42.4662 100.834 42.2278H101.721C101.659 42.6704 101.43 43.0724 101.081 43.3519C100.71 43.6394 100.25 43.7883 99.7813 43.7728C99.4214 43.7803 99.0655 43.6953 98.7479 43.5258C98.4475 43.3637 98.2025 43.1153 98.0448 42.8125C97.8753 42.4699 97.787 42.0927 97.787 41.7104C97.787 41.3281 97.8753 40.9509 98.0448 40.6083C98.2049 40.3072 98.4492 40.0594 98.7479 39.895C99.066 39.7267 99.4215 39.6417 99.7813 39.648C100.248 39.6241 100.709 39.7665 101.081 40.0499Z" fill="white"/>
<path d="M104.739 39.9037C104.99 40.0804 105.181 40.3292 105.287 40.617V39.6845H106.118V43.7187H105.285V42.7847C105.184 43.0754 104.991 43.3257 104.736 43.498C104.463 43.6864 104.136 43.7826 103.804 43.7728C103.473 43.7783 103.147 43.6929 102.861 43.5258C102.58 43.356 102.355 43.1082 102.212 42.8125C102.055 42.4663 101.974 42.0905 101.974 41.7104C101.974 41.3302 102.055 40.9545 102.212 40.6083C102.355 40.3126 102.58 40.0647 102.861 39.895C103.146 39.7268 103.473 39.6413 103.804 39.648C104.135 39.6313 104.463 39.721 104.739 39.9037ZM103.175 40.7267C102.962 41.0083 102.847 41.352 102.847 41.7053C102.847 42.0586 102.962 42.4022 103.175 42.6839C103.289 42.8031 103.427 42.8967 103.58 42.9582C103.733 43.0197 103.898 43.0478 104.063 43.0405C104.282 43.0466 104.499 42.9907 104.688 42.8793C104.877 42.7678 105.031 42.6054 105.133 42.4105C105.241 42.1931 105.298 41.9534 105.298 41.7104C105.298 41.4673 105.241 41.2277 105.133 41.0102C105.031 40.8154 104.877 40.6529 104.688 40.5415C104.499 40.4301 104.282 40.3742 104.063 40.3803C103.898 40.3687 103.733 40.3943 103.579 40.455C103.426 40.5157 103.288 40.61 103.175 40.7311V40.7267Z" fill="white"/>
<path d="M109.962 39.8906C110.243 40.06 110.469 40.308 110.611 40.6039C110.775 40.946 110.857 41.3221 110.849 41.7016C110.857 42.084 110.775 42.4629 110.611 42.8081C110.468 43.1038 110.243 43.3517 109.962 43.5214C109.676 43.6889 109.35 43.7744 109.019 43.7685C108.687 43.7783 108.36 43.682 108.086 43.4937C107.836 43.3191 107.647 43.0693 107.547 42.7804V45.6336H106.715V39.6889H107.547V40.6215C107.642 40.33 107.832 40.0788 108.086 39.9082C108.36 39.7198 108.687 39.6236 109.019 39.6334C109.35 39.6363 109.675 39.7249 109.962 39.8906ZM108.132 40.5396C107.946 40.6523 107.794 40.8135 107.693 41.0059C107.585 41.2231 107.528 41.4625 107.528 41.7053C107.528 41.9481 107.585 42.1875 107.693 42.4047C107.794 42.5999 107.948 42.7626 108.137 42.8743C108.327 42.986 108.544 43.0421 108.763 43.0362C108.929 43.0438 109.095 43.016 109.25 42.9545C109.404 42.893 109.544 42.7992 109.659 42.6795C109.879 42.4023 109.999 42.059 109.999 41.7053C109.999 41.3516 109.879 41.0083 109.659 40.7311C109.543 40.6119 109.404 40.5185 109.249 40.457C109.095 40.3956 108.929 40.3674 108.763 40.3744C108.542 40.3705 108.323 40.4276 108.132 40.5396Z" fill="white"/>
<path d="M114.572 39.8906C114.853 40.0608 115.078 40.3085 115.221 40.6039C115.385 40.9463 115.466 41.3222 115.459 41.7016C115.466 42.0839 115.384 42.4625 115.221 42.8081C115.078 43.1032 114.852 43.3508 114.572 43.5214C114.286 43.6889 113.96 43.7744 113.629 43.7684C113.297 43.7782 112.97 43.682 112.697 43.4937C112.445 43.3195 112.256 43.0696 112.157 42.7804V45.6336H111.324V39.6889H112.157V40.6215C112.25 40.3283 112.44 40.0753 112.695 39.9038C112.969 39.7154 113.296 39.6192 113.628 39.629C113.96 39.633 114.285 39.7231 114.572 39.8906ZM112.742 40.5396C112.556 40.6523 112.405 40.8135 112.303 41.0059C112.195 41.223 112.138 41.4625 112.138 41.7053C112.138 41.9481 112.195 42.1875 112.303 42.4047C112.404 42.5998 112.558 42.7626 112.748 42.8743C112.937 42.986 113.154 43.0421 113.373 43.0361C113.54 43.0438 113.705 43.016 113.86 42.9545C114.014 42.893 114.154 42.7992 114.269 42.6795C114.489 42.4023 114.609 42.059 114.609 41.7053C114.609 41.3516 114.489 41.0083 114.269 40.7311C114.154 40.6119 114.014 40.5186 113.859 40.4571C113.705 40.3957 113.539 40.3675 113.373 40.3744C113.152 40.3703 112.933 40.4275 112.742 40.5396Z" fill="white"/>
<path d="M119.638 41.8755H116.538C116.555 42.2863 116.665 42.5976 116.886 42.7993C117.101 43.0001 117.387 43.1082 117.681 43.1004C117.932 43.1064 118.179 43.0327 118.386 42.8899C118.575 42.7555 118.703 42.5516 118.742 42.3228H119.638C119.588 42.6 119.47 42.8604 119.294 43.0807C119.119 43.3011 118.891 43.4746 118.633 43.5857C118.345 43.7133 118.032 43.7756 117.718 43.7684C117.358 43.7753 117.002 43.6903 116.684 43.5214C116.384 43.359 116.138 43.1106 115.98 42.8081C115.811 42.4651 115.724 42.0881 115.724 41.706C115.724 41.3239 115.811 40.9469 115.98 40.6039C116.14 40.3029 116.385 40.0551 116.684 39.8906C117.002 39.7219 117.358 39.6369 117.718 39.6436C118.078 39.6348 118.434 39.72 118.751 39.8906C119.038 40.0448 119.273 40.2802 119.428 40.5673C119.587 40.859 119.669 41.1866 119.666 41.5189C119.676 41.6385 119.667 41.759 119.638 41.8755ZM118.697 40.8319C118.603 40.6616 118.459 40.5243 118.285 40.4387C118.107 40.3549 117.914 40.3115 117.718 40.3115C117.415 40.3014 117.119 40.4094 116.895 40.6126C116.778 40.7289 116.687 40.8674 116.626 41.0199C116.564 41.1723 116.535 41.3356 116.538 41.4999H118.824C118.849 41.2695 118.805 41.0368 118.697 40.8319Z" fill="white"/>
<path d="M122.702 39.9037C122.953 40.0778 123.143 40.3277 123.243 40.617V38.2959H124.083V43.7041H123.243V42.7715C123.148 43.0636 122.958 43.315 122.702 43.4848C122.428 43.6732 122.101 43.7694 121.769 43.7596C121.439 43.7646 121.113 43.6792 120.828 43.5126C120.547 43.3425 120.321 43.0948 120.177 42.7993C120.021 42.4528 119.941 42.0772 119.941 41.6972C119.941 41.3172 120.021 40.9416 120.177 40.5951C120.321 40.2993 120.547 40.0515 120.828 39.8818C121.113 39.7135 121.439 39.628 121.769 39.6348C122.1 39.6284 122.425 39.7221 122.702 39.9037ZM121.129 40.7267C120.916 41.0083 120.8 41.3519 120.8 41.7052C120.8 42.0586 120.916 42.4022 121.129 42.6838C121.243 42.8031 121.381 42.8967 121.534 42.9582C121.687 43.0197 121.852 43.0478 122.016 43.0405C122.236 43.0465 122.453 42.9906 122.642 42.8792C122.831 42.7678 122.985 42.6054 123.086 42.4105C123.195 42.1931 123.251 41.9534 123.251 41.7104C123.251 41.4673 123.195 41.2276 123.086 41.0102C122.985 40.8153 122.831 40.6529 122.642 40.5415C122.453 40.4301 122.236 40.3742 122.016 40.3802C121.852 40.3706 121.687 40.3969 121.534 40.4575C121.381 40.5181 121.242 40.6115 121.129 40.731V40.7267Z" fill="white"/>
<path d="M131.688 69.8433V132.428L129.962 134.311H34.7732C34.4496 134.31 34.1291 134.246 33.8302 134.122C33.5312 133.998 33.2597 133.816 33.0311 133.587C32.8025 133.358 32.6213 133.086 32.4979 132.787C32.3744 132.487 32.3112 132.167 32.3118 131.843V72.4187C32.3111 72.0886 32.3771 71.7618 32.506 71.4578C32.6348 71.1539 32.8238 70.8791 33.0616 70.6501L81.5615 108.244L131.016 68.1536C131.449 68.6093 131.69 69.2145 131.688 69.8433Z" fill="#F7F4F2"/>
<path d="M131.697 69.8432C131.329 69.8432 131.386 73.7283 131.386 80.1231C131.386 88.7266 131.367 97.3924 131.329 106.121C131.282 114.779 131.233 123.481 131.182 132.226L129.73 133.786L95.522 133.539L61.0659 133.312L43.9131 133.236L35.3725 133.211H34.7733H34.7353H34.6607C34.611 133.211 34.5642 133.195 34.5145 133.191C34.3206 133.153 34.1374 133.074 33.9781 132.957C33.8179 132.841 33.6847 132.692 33.588 132.52C33.4913 132.348 33.4334 132.157 33.4183 131.96V131.887V131.849V129.915C33.4183 129.207 33.4183 128.498 33.4183 127.788C33.4251 116.459 33.3944 105.226 33.3262 94.0895C33.2775 86.9653 33.2288 79.879 33.18 72.8308C33.18 72.6262 33.18 72.331 33.18 72.293C33.183 72.2431 33.1928 72.1939 33.2093 72.1468C33.226 72.099 33.2491 72.0538 33.278 72.0123C33.2923 71.9914 33.3079 71.9714 33.3247 71.9524C33.3247 71.9524 33.3335 71.9392 33.3379 71.9421L33.3525 71.9524L33.3832 71.9743L33.5045 72.062L33.5674 72.1088L33.7939 72.2813L34.8463 73.0837L39.0457 76.2994L47.4431 82.7147L81.5615 108.825L102.873 91.4073C110 85.5957 117.264 79.689 124.666 73.6874C127.185 71.641 129.697 69.6181 131.168 68.342L130.839 68.3201C131.136 68.6162 131.355 68.9806 131.478 69.3813C131.568 69.6736 131.596 69.8432 131.652 69.8432C131.707 69.8432 131.798 69.6809 131.78 69.3462C131.738 68.8414 131.529 68.365 131.185 67.9927L131.048 67.8363L130.868 67.9708C129.5 69.0013 127.252 70.8503 124.304 73.2401C117.059 79.1151 109.865 84.9472 102.724 90.7364L81.5498 107.853L67.8934 97.1692C63.2891 93.554 58.6946 89.9329 54.1098 86.306L37.1339 72.8849L35.032 71.2259L34.4692 70.7874L34.0307 70.4395L33.8071 70.2656L33.696 70.1779L33.5908 70.1238L33.1742 69.909L32.9637 69.8023L32.9111 69.7745L32.8862 69.7613C32.876 69.7526 32.8687 69.7613 32.8614 69.7613L32.7708 69.852C32.5296 70.0825 32.3081 70.3329 32.1086 70.6003C31.7929 71.0525 31.5995 71.5787 31.5473 72.1278C31.5298 72.3032 31.5327 72.4377 31.5313 72.5414L31.5196 73.8759L31.4976 76.5391C31.4713 80.09 31.4445 83.6282 31.4173 87.1538C31.3179 101.265 31.2462 115.218 31.2141 129.159C31.2141 129.904 31.2141 130.635 31.2141 131.352V131.755C31.2141 131.801 31.2141 131.837 31.2141 131.909C31.2195 132.165 31.2523 132.421 31.312 132.67C31.487 133.404 31.8912 134.063 32.4661 134.551C33.041 135.039 33.7565 135.331 34.5087 135.385L34.6899 135.393H34.7791H35.0934H35.5918H36.5784C39.1904 135.376 41.6563 135.348 44.0461 135.316C48.8273 135.255 53.3029 135.17 58.0402 135.13C72.6336 134.984 84.479 135.449 98.4877 135.407C103.708 135.39 108.943 135.351 114.192 135.29L130.305 135.076C131.01 134.287 131.715 133.498 132.422 132.71C132.307 125.071 132.192 117.426 132.076 109.775C131.978 102.224 131.909 94.6853 131.868 87.1597L131.969 80.1305C131.963 74.9693 131.979 69.8432 131.697 69.8432Z" fill="#063844"/>
</svg>
