<svg width="164" height="164" viewBox="0 0 164 164" fill="none" xmlns="http://www.w3.org/2000/svg">
<path d="M28.5232 85.2157C27.6629 74.8261 27.9919 64.3722 29.5039 54.0572C30.3386 48.3771 31.2156 40.7092 33.62 39.1481C40.7822 34.5 62.9529 40.0251 71.492 40.0003C79.54 39.974 83.2351 32.4902 83.0393 22.3959C86.4713 22.6297 87.5076 39.8395 91.0346 40.3745C93.214 40.7004 102.615 41.1389 104.064 42.7994C105.663 44.6323 106.683 59.6671 106.094 63.6268C105.138 70.0581 105.363 83.1021 100.455 87.379C98.0112 89.5116 90.3696 90.4587 85.3092 90.371C67.0617 90.0392 38.9303 87.7766 28.7512 85.3619" fill="#BADFD8"/>
<path d="M31.236 86.1088L33.4183 86.5078L35.6108 86.8703L36.1574 86.9624L36.7056 87.0443L37.8033 87.208C38.5341 87.3147 39.265 87.4272 40.0046 87.5149C41.3975 87.6889 42.7598 87.8409 44.125 87.9534L48.2513 88.3335C49.6735 88.4796 52.9769 88.829 54.3991 88.9532L59.4171 89.3596C61.9882 89.5832 61.8478 89.4341 64.4204 89.6358L68.307 89.9442L70.2481 90.0977L72.195 90.2322L74.2238 90.3623L76.2702 90.4631L78.3165 90.5552L80.3512 90.6327C81.636 90.6868 82.9179 90.7233 84.1998 90.7642C84.84 90.7847 85.4817 90.8125 86.1321 90.8139C86.7826 90.8154 87.4286 90.8066 88.0761 90.7847C89.4764 90.7321 90.8709 90.6385 92.2609 90.4631C93.6605 90.3028 95.0477 90.0494 96.4135 89.7045C97.2441 89.494 98.0584 89.2239 98.8502 88.8962C99.2572 88.7254 99.6514 88.5257 100.03 88.2984C100.225 88.1803 100.413 88.051 100.592 87.911C100.68 87.8365 100.78 87.7649 100.856 87.6859L101.097 87.4521C101.711 86.8228 102.232 86.1091 102.645 85.3326C103.051 84.5777 103.393 83.79 103.668 82.9779C104.144 81.5527 104.524 80.097 104.804 78.6206C105.096 77.1589 105.321 75.6973 105.52 74.2195C105.879 71.7814 106.141 69.3463 106.448 66.9462C106.527 66.3469 106.606 65.7491 106.695 65.1586C106.739 64.8663 106.789 64.5739 106.841 64.2743L106.919 63.8358L106.958 63.6048L106.998 63.3607C107.09 62.7176 107.144 62.0993 107.18 61.4781C107.217 60.8569 107.243 60.2459 107.264 59.632C107.337 56.4363 107.239 53.2389 106.971 50.0536C106.882 48.9983 106.772 47.9357 106.623 46.8643C106.548 46.3273 106.46 45.787 106.357 45.2433C106.252 44.6981 106.128 44.147 105.957 43.5726L105.837 43.2013C105.795 43.0771 105.736 42.9397 105.691 42.8096L105.65 42.7116C105.635 42.678 105.615 42.6386 105.597 42.602L105.483 42.3798C105.463 42.3418 105.447 42.3082 105.423 42.2688L105.33 42.1314C105.267 42.0407 105.201 41.9501 105.132 41.8624C105.078 41.8069 105.023 41.7513 104.966 41.6972C104.903 41.6345 104.836 41.575 104.767 41.5189L104.576 41.3815L104.481 41.3157C104.45 41.2953 104.424 41.2807 104.394 41.2631L104.22 41.1652C104.101 41.095 103.998 41.0526 103.889 41C103.834 40.9766 103.779 40.9489 103.726 40.9269L103.571 40.8655C103.18 40.7139 102.781 40.586 102.374 40.4826C101.601 40.2809 100.85 40.1376 100.104 40.0178C98.1705 39.6684 96.2162 39.5413 94.278 39.4463L92.8324 39.3805C92.3545 39.3586 91.875 39.3366 91.4263 39.303L91.2655 39.2899H91.2348C91.228 39.2891 91.2212 39.2891 91.2144 39.2899C91.186 39.2875 91.158 39.2816 91.131 39.2723C91.0208 39.2156 90.9217 39.1393 90.8387 39.0472C90.7116 38.9153 90.5976 38.7714 90.4981 38.6175C90.3842 38.4462 90.2793 38.2691 90.1839 38.0869C89.987 37.6725 89.8132 37.2475 89.6635 36.8138C89.4004 36.0625 89.1841 35.2907 88.9765 34.5116C88.6623 33.3248 88.3334 32.1554 88.0089 30.9656C87.6742 29.7393 87.3365 28.5042 86.9536 27.2676C86.8586 26.9533 86.7606 26.6405 86.6612 26.3263L86.4931 25.8278C86.404 25.575 86.3177 25.3235 86.2198 25.0736C86.1219 24.8237 86.0225 24.5839 85.9275 24.3428C85.8763 24.2244 85.8208 24.1147 85.7667 24.0007L85.6863 23.8312L85.6015 23.6733C85.5445 23.571 85.4904 23.4585 85.4305 23.3649L85.2156 23.0945C85.1042 22.9272 84.9841 22.7657 84.8561 22.6107C84.6391 22.3456 84.3868 22.1114 84.1062 21.9149C83.8438 21.7288 83.5449 21.6003 83.2292 21.5378C83.1474 21.5173 83.0538 21.5027 82.9632 21.4852L82.817 21.4662H82.782C82.7703 21.4662 82.7542 21.4662 82.7542 21.4662L82.7352 21.4852L82.589 21.646L82.513 21.7293C82.4882 21.7636 82.4556 21.7917 82.418 21.8111C82.3318 21.8623 82.247 21.9149 82.1622 21.969C82.1622 22.3753 82.1724 22.7729 82.1739 23.1661C82.1754 23.5593 82.1827 23.954 82.1739 24.3267L82.1447 25.2563L82.1301 25.7167C82.1198 25.8629 82.1125 26.0091 82.1008 26.1552L82.0716 26.5294L82.0526 26.8013L82 27.3334C81.9693 27.6944 81.9137 28.051 81.8713 28.4106L81.788 28.9441C81.7602 29.1224 81.731 29.3008 81.6945 29.4762C81.5653 30.1831 81.3989 30.8828 81.196 31.5722C80.9905 32.2589 80.741 32.9317 80.4491 33.5864C80.177 34.1876 79.8594 34.7671 79.499 35.3199C79.1374 35.8721 78.7238 36.3885 78.2639 36.862C77.8053 37.3408 77.2933 37.7655 76.7379 38.1278C76.1862 38.4949 75.5936 38.7966 74.9722 39.0268C74.2801 39.2825 73.5628 39.4638 72.8323 39.5676L72.2813 39.6304C72.0956 39.6494 71.91 39.6524 71.7244 39.664C71.356 39.6889 70.976 39.6816 70.6004 39.6801C69.0904 39.6567 67.5732 39.534 66.0531 39.3878C63.4835 39.1145 60.9855 38.7563 58.4144 38.3865C55.8959 38.0226 53.376 37.6674 50.8546 37.3941C48.1252 37.0786 45.3802 36.9156 42.6327 36.9059C41.2506 36.9073 39.87 36.9957 38.499 37.1704C37.8067 37.2638 37.1201 37.3955 36.4425 37.5651C35.7542 37.7315 35.0828 37.9615 34.437 38.2521L34.1871 38.369C34.1038 38.4085 34.0234 38.4552 33.9415 38.4976C33.7764 38.5809 33.62 38.6818 33.4606 38.7797C33.3759 38.834 33.2939 38.8926 33.2151 38.9551C33.1351 39.0177 33.0589 39.0851 32.9871 39.1568C32.915 39.2243 32.8476 39.2965 32.7853 39.3732C32.7195 39.4446 32.6585 39.5203 32.6026 39.5997C32.3772 39.9012 32.1814 40.2238 32.018 40.563C31.8584 40.8911 31.7159 41.2272 31.5912 41.5701C31.1314 42.9216 30.7829 44.3085 30.549 45.7168C30.0432 48.5072 29.7436 51.3136 29.3212 54.1025C28.7891 57.6982 28.2629 61.2749 28.0495 64.8896C27.842 67.4096 27.7718 69.7599 27.7674 72.2287C27.763 74.6975 27.8288 77.2832 27.9516 80.2855C28.0554 82.9238 28.3302 85.2215 28.5275 85.2084C28.7248 85.1952 28.5918 82.9574 28.4646 80.2621C28.412 79.2959 28.3945 78.3941 28.374 77.5434C28.3535 76.6927 28.3579 75.8873 28.374 75.1199C28.3945 73.5822 28.4456 72.1834 28.5202 70.8021C28.678 68.0396 28.8988 65.3457 29.2232 61.75C29.3855 60.0442 29.5887 58.2419 29.8795 56.105C30.0359 55.035 30.204 53.8788 30.3897 52.6072C30.5753 51.3355 30.7755 49.9455 31.0255 48.4239C31.3049 46.6354 31.7153 44.8698 32.2533 43.1414C32.3892 42.7175 32.5456 42.3068 32.7093 41.9077C32.8672 41.5191 33.0549 41.1433 33.2706 40.7837C33.4498 40.4684 33.6805 40.1853 33.9532 39.9461C33.9839 39.9257 34.0132 39.9052 34.0409 39.8833L34.0862 39.8511L34.152 39.8117C34.2397 39.7605 34.3245 39.7064 34.4137 39.6567L34.687 39.5106C34.7791 39.4638 34.8755 39.4214 34.9691 39.3761C35.4516 39.1602 35.9501 38.9819 36.46 38.8426C36.9234 38.711 37.3487 38.6204 37.7346 38.5502C38.5063 38.4041 39.1203 38.3339 39.6348 38.2828C40.5154 38.1983 41.4003 38.1651 42.2848 38.1834C43.7187 38.2082 44.9406 38.3135 46.1158 38.4289L49.6969 38.7987C52.5604 39.0808 55.491 39.455 58.3705 39.8C61.1112 40.1274 63.8766 40.4943 66.6743 40.7968C68.0746 40.943 69.4807 41.0819 70.9292 41.1316C71.109 41.1389 71.2932 41.1389 71.4759 41.1433L72.0416 41.133H72.3251L72.6175 41.1096C72.8075 41.0936 72.9975 41.0848 73.1875 41.0599C73.9526 40.9692 74.7076 40.8078 75.4429 40.5776C76.1143 40.3599 76.7633 40.0784 77.3811 39.7371C77.9972 39.3832 78.5791 38.9727 79.119 38.5108C79.6503 38.0458 80.1395 37.5346 80.5807 36.9833C81.0107 36.44 81.3959 35.8627 81.7325 35.2571L81.8786 35.0101L82.0073 34.7587C82.0906 34.5906 82.1798 34.4239 82.2601 34.2558C82.4063 33.9167 82.5744 33.5791 82.7074 33.2327C82.9877 32.5533 83.2317 31.8595 83.4383 31.1542C83.8291 29.7606 84.0961 28.3353 84.2363 26.8948L84.2626 26.6332C84.2581 26.6189 84.2581 26.6036 84.2626 26.5894C84.2626 26.566 84.2831 26.5367 84.3269 26.5557C84.3486 26.5679 84.3656 26.5869 84.3752 26.6098C84.4731 26.8832 84.5667 27.1579 84.6558 27.4401C84.8356 28.0013 85.0008 28.5743 85.1601 29.1517C85.4802 30.3079 85.7813 31.4801 86.1248 32.6378C86.4332 33.6756 86.7358 34.728 87.072 35.7906C87.0881 35.8549 87.1027 35.9178 87.1188 35.9835C87.3533 36.931 87.6592 37.8594 88.0338 38.7607C88.2492 39.2734 88.5155 39.7631 88.8289 40.2224C89.0199 40.498 89.2431 40.7498 89.494 40.9722C89.566 41.0379 89.6422 41.0989 89.722 41.155C89.8077 41.2191 89.8981 41.2767 89.9924 41.3274C90.0901 41.3834 90.1917 41.4323 90.2964 41.4736C90.4006 41.5174 90.5081 41.5526 90.618 41.5788L90.8329 41.6285L90.979 41.6519L91.2275 41.6885L91.7069 41.7528L92.6453 41.8624L94.5075 42.067L97.3797 42.3886C98.1807 42.4792 98.9598 42.5582 100.055 42.7219C100.357 42.7686 101.098 42.8914 101.809 43.0756C102.134 43.157 102.453 43.261 102.763 43.3869C102.821 43.4099 102.878 43.4362 102.933 43.4659L103.001 43.5009L103.035 43.5185C103.043 43.5222 103.05 43.5266 103.057 43.5316C103.08 43.5506 103.114 43.5653 103.121 43.5726C103.126 43.5797 103.134 43.5844 103.143 43.5857C103.143 43.6018 103.153 43.6018 103.166 43.6179C103.185 43.6559 103.202 43.6866 103.216 43.7129C103.231 43.7392 103.242 43.7582 103.254 43.7801L103.281 43.8459L103.349 44.0052C103.373 44.0578 103.392 44.1265 103.414 44.1865L103.475 44.3721C103.494 44.435 103.511 44.5037 103.53 44.5709C103.605 44.834 103.663 45.1176 103.725 45.4026C103.842 45.977 103.94 46.5851 104.062 47.2194C104.486 49.4865 104.869 51.7711 105.113 54.101C105.207 55.3113 105.276 56.5215 105.314 57.7552C105.341 58.7038 105.349 59.6554 105.328 60.5967C105.318 61.0674 105.303 61.538 105.276 61.9984C105.248 62.4589 105.213 62.9208 105.15 63.3417L105.096 63.7101L105.037 64.0989L104.932 64.8721C104.868 65.3852 104.808 65.8953 104.751 66.4083L104.435 69.4574C104.229 71.4818 104.011 73.4916 103.722 75.478C103.465 77.3732 103.095 79.2514 102.614 81.1025C102.376 81.9963 102.073 82.8717 101.709 83.7219C101.368 84.5312 100.917 85.2901 100.37 85.9772L100.179 86.2053C100.115 86.2813 100.041 86.3427 99.9742 86.4143C99.9069 86.4859 99.828 86.5604 99.7666 86.6189C99.7052 86.6774 99.638 86.73 99.5649 86.7841C99.2473 87.0147 98.9075 87.213 98.5505 87.3761C97.7629 87.7305 96.9462 88.0166 96.1095 88.2311C94.3699 88.6743 92.6013 88.9947 90.8168 89.19C89.1294 89.3889 87.4321 89.4914 85.7331 89.4969C85.3136 89.4969 84.8765 89.4853 84.4439 89.4779L83.1445 89.4487L81.8465 89.4166L80.5471 89.3669C79.5663 89.3259 78.584 89.3303 77.6018 89.3201C76.6195 89.3099 75.6373 89.2967 74.658 89.2455L69.7263 88.9912C67.9182 88.8816 66.1583 88.8217 64.3999 88.734C63.5229 88.693 62.6459 88.655 61.7558 88.6024C60.8656 88.5498 59.9798 88.4869 59.078 88.4138C58.1103 88.3393 57.1471 88.2443 56.1882 88.1624C55.2294 88.0806 54.2749 88.009 53.3277 87.9432C51.7199 87.8365 49.8197 87.914 48.2119 87.7722L46.1319 87.5778L44.0593 87.36C42.675 87.2226 41.2952 87.0472 39.9066 86.882C39.1305 86.7929 38.3996 86.6876 37.6863 86.6028C36.973 86.5181 36.2788 86.4377 35.5903 86.3353L33.503 86.043C32.797 85.9305 32.0735 85.8033 31.3105 85.6688L30.8632 85.5914L30.4247 85.5066C30.1324 85.4525 29.8562 85.4072 29.6121 85.3736C29.1239 85.3063 28.7745 85.2873 28.7453 85.3619C28.7073 85.4613 28.9251 85.5665 29.3533 85.6908C29.5682 85.7536 29.8357 85.8208 30.1499 85.8925C30.4642 85.9641 30.8311 86.0415 31.236 86.1088Z" fill="#063844"/>
<path d="M91.4014 77.1852C90.7919 77.1399 90.1853 77.058 89.5728 77.0054C88.9882 76.9572 88.4386 76.9616 87.8583 76.9221C87.566 76.9016 86.8775 76.8227 86.5823 76.8008C86.287 76.7789 85.8163 76.7496 85.543 76.7204C85.011 76.6634 85.0373 76.7365 84.5052 76.6809C83.9732 76.6254 83.4353 76.5523 82.8974 76.4909C82.3595 76.4295 81.7734 76.3871 81.215 76.3447C80.6829 76.2994 80.1567 76.2468 79.6262 76.1986C79.0532 76.143 78.4846 76.0758 77.9087 76.0407C77.2217 75.9983 76.5318 75.9662 75.8419 75.9369C75.2236 75.9092 74.6214 75.8536 74.0104 75.782C73.0018 75.6358 72.0064 75.4721 71.014 75.3055C70.3708 75.1973 69.7233 75.1052 69.067 75.0132C68.6373 74.9547 68.2032 74.8991 67.7661 74.867C67.6667 74.8582 67.5673 74.8494 67.4665 74.8436C67.1644 74.8231 66.8623 74.8051 66.5602 74.7895C65.7768 74.7077 64.9524 74.8129 64.1675 74.8027C64.0652 74.7939 63.9643 74.7837 63.862 74.772C63.6895 74.753 63.5214 74.7281 63.3519 74.7077C63.0932 74.6755 62.8403 74.6711 62.5845 74.6624C62.3287 74.6536 62.0568 74.6434 61.7937 74.6346C61.1696 74.6053 60.5425 74.5717 59.9242 74.56C59.306 74.5483 58.6891 74.56 58.0694 74.56C57.5008 74.56 56.9234 74.541 56.3475 74.525C55.7132 74.5074 55.0832 74.4957 54.4474 74.4767C53.9124 74.4489 53.3906 74.4066 52.8541 74.351C52.3177 74.2955 51.8061 74.2399 51.2843 74.1888C50.153 74.0762 49.0275 73.9827 47.8961 73.8964C46.7268 73.8087 45.5575 73.8453 44.3881 73.7503C43.6383 73.6874 42.8987 73.5617 42.1503 73.5164C41.111 73.3965 40.2092 73.4155 38.9697 73.3059C38.4259 73.2591 37.9465 73.2606 37.9377 73.36C37.929 73.4594 38.3923 73.5237 38.9507 73.5632C40.5585 73.6743 41.2894 73.9081 42.7832 74.0309C43.495 74.0879 44.2873 74.1698 45.5721 74.2648C46.3351 74.3218 47.0849 74.4665 47.8523 74.5206C48.9032 74.5951 49.0728 74.5966 49.4601 74.6667C50.0623 74.7617 50.4833 74.8772 51.008 74.9284C51.6073 74.9868 52.2227 75.0351 52.8234 75.0614C53.9694 75.1126 55.1329 75.1798 56.2671 75.3333C56.7787 75.402 57.2976 75.4663 57.8151 75.4999C58.388 75.5364 58.9449 75.6183 59.5164 75.6592C60.088 75.7001 60.6492 75.7557 61.2251 75.7455C61.728 75.7367 62.2337 75.8039 62.7321 75.7981C62.9558 75.7981 63.1809 75.7981 63.406 75.8112L63.4454 75.82C63.8138 75.8916 64.2113 75.9369 64.5972 75.9852C64.8501 76.0173 65.1073 76.0495 65.3661 76.0758C65.7577 76.1194 66.1516 76.1384 66.5456 76.1328C66.702 76.1328 67.3744 76.1562 67.5279 76.1591C67.7822 76.1591 68.0292 76.2205 68.3055 76.222C68.7966 76.222 69.2833 76.1796 69.7745 76.1781C70.0288 76.1913 70.2817 76.2088 70.5375 76.2293C70.9336 76.2614 71.3312 76.3097 71.7243 76.3506C72.5648 76.4383 73.4038 76.5391 74.2472 76.621C75.0584 76.6999 75.877 76.7277 76.6823 76.7525C77.4439 76.7774 78.2069 76.8344 78.9699 76.8666C79.6846 76.8987 80.4052 76.9396 81.1229 77.004C81.5293 77.042 81.9414 77.004 82.3463 77.0405C82.6869 77.0741 83.0289 77.0917 83.3695 77.118C84.1193 77.1764 84.8312 77.1516 85.581 77.2203C85.983 77.2554 86.382 77.3021 86.7767 77.3094C87.1099 77.3094 87.5075 77.2232 87.8451 77.2364C88.4298 77.2685 88.9955 77.3065 89.5743 77.3489C90.2204 77.3957 90.7349 77.3913 91.3766 77.4395C91.6236 77.4585 91.9071 77.4395 91.9174 77.3679C91.9393 77.2364 91.7405 77.2101 91.4014 77.1852Z" fill="#063844"/>
<path d="M93.8791 66.0984C93.2535 66.037 92.6322 65.9391 92.0037 65.8704C91.4088 65.8046 90.8344 65.8076 90.2409 65.7579C89.9369 65.7345 89.2338 65.6453 88.9254 65.619C88.617 65.5927 88.1376 65.5635 87.8555 65.5328C87.3088 65.4743 87.3351 65.5474 86.7885 65.4904L85.1368 65.2989C84.5638 65.236 83.9791 65.1995 83.4047 65.1527L81.7705 65.0139C81.1859 64.9642 80.6012 64.9013 80.0034 64.8677C79.2945 64.8312 78.5855 64.8122 77.8766 64.7917C77.2393 64.7742 76.6196 64.7288 75.9896 64.666C74.9504 64.5403 73.9243 64.3927 72.8996 64.245C72.236 64.15 71.568 64.0711 70.8913 63.9951C70.4528 63.9454 70.0011 63.8986 69.5524 63.8694L69.2425 63.8518L68.31 63.8168C67.5046 63.7495 66.6583 63.8723 65.8514 63.8782L65.5372 63.8533L65.011 63.7992C64.7464 63.7729 64.4848 63.7729 64.2217 63.7685L63.409 63.7554C62.7673 63.7378 62.1227 63.7174 61.4869 63.7174C60.851 63.7174 60.2181 63.7349 59.5867 63.7437C59.002 63.7437 58.4086 63.7437 57.8166 63.7437L55.8653 63.7291C55.3142 63.7086 54.7763 63.6735 54.2253 63.6253L52.6086 63.4791C51.4393 63.3783 50.2875 63.2964 49.124 63.2116C47.9269 63.1269 46.7195 63.1751 45.521 63.0655C44.7492 63.0011 43.9891 62.874 43.2218 62.8272C42.1533 62.7015 41.228 62.7059 39.9549 62.586C39.3966 62.5319 38.9025 62.529 38.8937 62.6284C38.885 62.7278 39.3586 62.7965 39.933 62.8418C41.5803 62.9675 42.3287 63.2189 43.8707 63.3417C44.6016 63.4016 45.4187 63.4879 46.74 63.5844C47.5249 63.637 48.2982 63.7802 49.086 63.8314C50.1691 63.9015 50.343 63.9045 50.7479 63.9629C51.3677 64.0536 51.7974 64.1646 52.3426 64.2114C52.9609 64.2626 53.5923 64.305 54.2121 64.3269C55.3917 64.362 56.5888 64.4131 57.7567 64.552C58.2843 64.6134 58.8193 64.6675 59.3528 64.6982C59.9375 64.7245 60.5222 64.7975 61.1068 64.8297C61.6915 64.8619 62.2762 64.9043 62.8608 64.8823C63.3768 64.8648 63.8972 64.9218 64.4102 64.9072C64.6412 64.9013 64.8721 64.9013 65.103 64.9072H65.144C65.524 64.9729 65.9333 65.0095 66.3323 65.0533C66.5925 65.0797 66.8585 65.1074 67.1245 65.1279C67.5279 65.1634 67.933 65.1746 68.3377 65.1615H69.3477C69.6079 65.1615 69.8637 65.2141 70.1473 65.2097C70.653 65.2024 71.1515 65.1483 71.6572 65.1352C71.9174 65.144 72.1776 65.1557 72.4421 65.1717C72.8499 65.1966 73.2577 65.2375 73.6626 65.2711L76.26 65.4962C77.0946 65.562 77.9366 65.5766 78.7639 65.5898C79.5473 65.6 80.3308 65.6541 81.1157 65.676C81.8465 65.7009 82.5905 65.7316 83.3272 65.7944C83.7453 65.8295 84.1677 65.7944 84.5843 65.8251C84.9336 65.8573 85.2859 65.8733 85.6352 65.8982C86.4055 65.9581 87.1378 65.9362 87.9066 66.0064C88.3188 66.0444 88.7281 66.0897 89.133 66.1043C89.475 66.1145 89.8872 66.0283 90.2307 66.0458C90.8241 66.0882 91.4117 66.1277 92.0066 66.192C92.6688 66.2563 93.195 66.2665 93.8527 66.3308C94.1071 66.3572 94.3994 66.3528 94.4126 66.2753C94.433 66.1657 94.2269 66.1335 93.8791 66.0984Z" fill="#063844"/>
<path d="M94.3292 54.082C93.29 54.0177 92.2522 53.873 91.2115 53.8452C89.4808 53.8013 89.3697 53.6712 88.3816 53.6084C87.8774 53.5777 86.7095 53.471 86.2067 53.4374C85.7346 53.4081 84.8108 53.4461 84.3445 53.4052L84.1647 53.3906C82.1827 53.2079 80.1597 52.7036 78.3297 52.575C77.2744 52.5004 76.2322 52.5151 75.1798 52.4844C74.2122 52.4537 73.2314 52.4113 72.2565 52.3674L69.0247 52.2213C68.1126 52.1686 67.2239 52.1014 66.3104 52.0196L63.6326 51.7813C61.7046 51.6147 59.7854 51.4685 57.8575 51.3296C55.8725 51.1835 54.0761 51.2946 52.0883 51.1484C50.8093 51.0534 48.8302 50.8371 47.5571 50.7625C45.7811 50.6047 44.7594 50.6675 42.6444 50.5228C41.7162 50.4599 40.9006 50.4468 40.8904 50.5476C40.8801 50.6485 41.6724 50.7245 42.6268 50.7801C45.3572 50.9408 46.6216 51.0636 49.1766 51.2449C50.3883 51.3296 51.7404 51.4466 53.93 51.5957C55.2279 51.6863 56.5127 51.8646 57.818 51.9538C59.61 52.0766 59.898 52.0868 60.5689 52.1672C61.5921 52.2929 62.3112 52.4288 63.2131 52.5048C64.2362 52.5896 65.2813 52.6685 66.306 52.7241C68.2558 52.8293 70.2364 52.9521 72.1717 53.1626C73.0487 53.2576 73.9257 53.3453 74.8115 53.4038C75.7864 53.4666 76.7394 53.5777 77.7114 53.642C80.5807 53.8335 83.9835 53.7107 84.4629 53.7399C85.147 53.7926 85.8281 53.8569 86.499 53.8861C87.0676 53.9037 87.7327 53.9636 88.3013 53.9899L91.2495 54.1653C92.3516 54.2355 93.2242 54.2442 94.319 54.3115C94.7414 54.3378 95.2223 54.3422 95.2355 54.2647C95.2486 54.1609 94.9066 54.12 94.3292 54.082Z" fill="#063844"/>
<path d="M142.266 78.4642C143.122 88.8002 142.795 99.2002 141.29 109.462C140.46 115.113 139.587 122.74 137.197 124.292C130.072 128.915 108.016 123.415 99.5226 123.444C91.517 123.471 87.8409 130.915 88.0411 140.957C84.631 140.724 83.5918 123.605 80.0823 123.073C77.9146 122.75 68.5628 122.313 67.1216 120.661C65.5313 118.839 64.5169 103.881 65.1016 99.942C66.0531 93.5413 65.8324 80.5675 70.7115 76.3126C73.1423 74.1917 80.7459 73.2431 85.7785 73.3366C103.928 73.6509 131.912 75.9048 142.038 78.3063" fill="white"/>
<path d="M139.567 77.5682L137.397 77.1765L135.223 76.814L134.677 76.7234L134.132 76.6415L133.04 76.4793C132.309 76.3726 131.579 76.26 130.848 76.1723C129.464 75.9998 128.109 75.8493 126.755 75.7338L122.649 75.3567C121.236 75.2105 117.948 74.8627 116.534 74.7399L111.543 74.3365C108.983 74.107 109.121 74.2531 106.556 74.0529L102.69 73.7445L100.758 73.5983L98.8224 73.4638L96.8038 73.3337L94.7794 73.23L92.7491 73.1379L90.7247 73.0619C89.4458 73.0063 88.1697 72.9713 86.8951 72.9303C86.2578 72.9099 85.6206 72.8821 84.973 72.8806C84.3255 72.8792 83.6838 72.8806 83.0392 72.9099C81.6463 72.9625 80.2621 73.056 78.8764 73.2285C77.4842 73.3883 76.1043 73.6408 74.7457 73.9842C73.9185 74.1932 73.1076 74.4619 72.3193 74.7881C71.9157 74.958 71.5249 75.1569 71.15 75.383C70.9554 75.4997 70.7684 75.6286 70.5902 75.7689C70.5025 75.8434 70.4031 75.9151 70.3271 75.9925L70.0873 76.2264C69.4764 76.8524 68.9577 77.562 68.5467 78.3341C68.1416 79.084 67.7993 79.8663 67.5236 80.6728C67.0498 82.0908 66.6723 83.5393 66.3937 85.0082C66.1013 86.4596 65.8792 87.9154 65.6804 89.3859C65.3237 91.8123 65.0606 94.2343 64.7551 96.6212C64.6777 97.2175 64.5987 97.8124 64.5096 98.4C64.4657 98.6924 64.4175 98.9847 64.3634 99.277L64.2859 99.7155L64.2465 99.945L64.2085 100.188C64.1149 100.828 64.0623 101.443 64.0258 102.06C63.9892 102.677 63.9615 103.286 63.941 103.897C63.8689 107.077 63.9665 110.257 64.2333 113.426C64.321 114.476 64.4306 115.532 64.5783 116.599C64.6528 117.133 64.7391 117.671 64.8428 118.207C64.9466 118.744 65.0709 119.299 65.2404 119.871L65.372 120.273C65.4231 120.419 65.4831 120.565 65.5401 120.699C65.5678 120.768 65.6161 120.857 65.6555 120.935C65.695 121.012 65.7345 121.091 65.7842 121.177C65.9093 121.383 66.0606 121.572 66.2344 121.739C66.2973 121.801 66.3636 121.86 66.4331 121.915L66.6246 122.062L66.7182 122.127C66.7503 122.148 66.7766 122.161 66.8059 122.179L66.9784 122.276C67.0967 122.347 67.1991 122.389 67.3087 122.442C67.3628 122.465 67.4183 122.493 67.4709 122.515L67.6244 122.575C68.0134 122.726 68.4112 122.854 68.8157 122.958C69.586 123.158 70.3329 123.3 71.0754 123.42C72.999 123.766 74.943 123.893 76.8724 123.987L78.3107 124.052C78.7858 124.074 79.2623 124.096 79.7081 124.128L79.8689 124.143C79.8854 124.144 79.902 124.144 79.9186 124.143C79.9465 124.145 79.974 124.151 80.0004 124.161C80.1108 124.216 80.21 124.291 80.2928 124.383C80.419 124.514 80.532 124.657 80.6304 124.81C80.744 124.98 80.8489 125.156 80.9447 125.337C81.1398 125.749 81.312 126.172 81.4606 126.603C81.7237 127.35 81.9371 128.117 82.1432 128.893C82.4575 130.075 82.7834 131.232 83.1065 132.421C83.4397 133.64 83.7759 134.869 84.1574 136.1C84.251 136.412 84.3504 136.725 84.4498 137.038L84.6237 137.552C84.7143 137.807 84.802 138.063 84.9 138.31C84.9979 138.557 85.0973 138.796 85.1923 139.04C85.2435 139.157 85.299 139.267 85.3531 139.38L85.4335 139.548L85.5182 139.704C85.5752 139.805 85.6293 139.917 85.6878 140.008L85.8632 140.289C85.9816 140.457 86.1 140.628 86.2213 140.767C86.438 141.028 86.6887 141.258 86.9668 141.452C87.0959 141.541 87.2329 141.617 87.376 141.68C87.5271 141.743 87.6837 141.792 87.8438 141.826C87.9271 141.847 88.0206 141.861 88.1113 141.878L88.2574 141.897H88.294C88.3071 141.897 88.3027 141.897 88.3086 141.897L88.3276 141.878L88.4737 141.717L88.5483 141.633L88.5848 141.593C88.6041 141.578 88.6246 141.564 88.6462 141.553C88.731 141.502 88.8158 141.448 88.8991 141.394C88.8933 140.996 88.8894 140.606 88.8874 140.224C88.8874 139.84 88.8786 139.45 88.8874 139.081L88.9152 138.155L88.9298 137.697L88.9576 137.259L88.9883 136.865L89.0073 136.597L89.0599 136.059C89.0891 135.699 89.1432 135.345 89.187 134.989L89.2704 134.457C89.2967 134.28 89.3259 134.103 89.3624 133.928C89.4918 133.224 89.6581 132.529 89.8609 131.843C90.0647 131.16 90.3128 130.491 90.6034 129.841C90.8738 129.243 91.1895 128.666 91.5477 128.116C91.9077 127.567 92.3188 127.053 92.7755 126.581C93.231 126.107 93.739 125.686 94.2898 125.327C94.8379 124.962 95.4265 124.661 96.0438 124.431C96.7322 124.177 97.4456 123.997 98.172 123.893L98.7201 123.83C98.9043 123.811 99.0884 123.808 99.2741 123.797C99.641 123.772 100.018 123.778 100.392 123.781C101.893 123.804 103.403 123.927 104.923 124.073C107.48 124.346 109.965 124.701 112.524 125.071C115.028 125.431 117.535 125.786 120.044 126.058C122.762 126.372 125.495 126.534 128.23 126.543C129.605 126.543 130.979 126.455 132.343 126.281C133.032 126.19 133.715 126.061 134.389 125.894C135.074 125.728 135.742 125.499 136.385 125.21L136.633 125.095C136.716 125.054 136.797 125.008 136.877 124.966C137.042 124.883 137.199 124.782 137.357 124.685C137.441 124.631 137.522 124.572 137.601 124.51C137.681 124.449 137.757 124.382 137.827 124.31C137.899 124.242 137.966 124.171 138.029 124.095C138.094 124.024 138.154 123.948 138.21 123.87C138.433 123.569 138.626 123.247 138.786 122.909C138.945 122.583 139.087 122.249 139.211 121.908C139.671 120.563 140.019 119.182 140.254 117.78C140.756 115.003 141.055 112.213 141.474 109.439C142.005 105.862 142.528 102.303 142.74 98.7084C142.947 96.2002 143.016 93.8615 143.021 91.4001C143.025 88.9386 142.959 86.3719 142.838 83.3842C142.734 80.7532 142.459 78.473 142.263 78.4876C142.068 78.5022 142.198 80.7254 142.325 83.4076C142.377 84.3679 142.394 85.2654 142.415 86.1132C142.437 86.961 142.43 87.759 142.415 88.5235C142.395 90.0524 142.342 91.4468 142.269 92.8179C142.111 95.5658 141.892 98.2465 141.569 101.823C141.407 103.52 141.205 105.312 140.917 107.439C140.761 108.503 140.593 109.653 140.407 110.918C140.221 112.182 140.024 113.566 139.776 115.081C139.498 116.862 139.089 118.621 138.554 120.343C138.419 120.764 138.261 121.171 138.101 121.569C137.944 121.956 137.757 122.33 137.542 122.687C137.364 123 137.134 123.28 136.864 123.517L136.776 123.58C136.762 123.591 136.75 123.601 136.731 123.612L136.667 123.652C136.579 123.702 136.496 123.756 136.406 123.798L136.135 123.944C136.043 123.991 135.948 124.032 135.854 124.077C135.374 124.292 134.879 124.469 134.372 124.608C133.911 124.738 133.495 124.829 133.105 124.9C132.337 125.046 131.726 125.115 131.204 125.166C130.33 125.25 129.452 125.283 128.573 125.264C127.147 125.239 125.931 125.134 124.761 125.02L121.211 124.65C118.364 124.371 115.448 123.998 112.587 123.655C109.86 123.33 107.109 122.965 104.327 122.662C102.933 122.516 101.534 122.379 100.088 122.331C99.9084 122.331 99.7243 122.331 99.543 122.319L98.9803 122.329H98.6967L98.4146 122.351C98.2246 122.369 98.036 122.377 97.8475 122.402C97.0833 122.485 96.3287 122.64 95.5936 122.864C94.925 123.081 94.2785 123.361 93.6627 123.7C93.0518 124.053 92.4749 124.461 91.9394 124.921C91.4129 125.384 90.9282 125.893 90.4909 126.441C90.0628 126.982 89.6795 127.557 89.3449 128.16L89.1987 128.405L89.0716 128.655C88.9868 128.823 88.8991 128.989 88.8187 129.157C88.6725 129.494 88.5059 129.829 88.3729 130.171C88.0965 130.847 87.8565 131.538 87.6537 132.239C87.2544 133.625 86.978 135.044 86.8279 136.478L86.806 136.703C86.8107 136.717 86.8107 136.733 86.806 136.747C86.806 136.77 86.7855 136.8 86.7417 136.782C86.7236 136.772 86.7085 136.757 86.6978 136.74L86.5604 136.35L86.4245 135.933C86.2462 135.376 86.081 134.806 85.9231 134.23C85.6045 133.081 85.3048 131.913 84.9643 130.763C84.6559 129.73 84.3548 128.683 84.0215 127.626L83.9733 127.435C83.7398 126.491 83.4359 125.567 83.0641 124.669C82.8497 124.159 82.5847 123.672 82.2733 123.215C82.0832 122.94 81.8604 122.688 81.6097 122.467C81.2889 122.18 80.9055 121.971 80.4901 121.858L80.2752 121.81L80.129 121.785L79.882 121.749L79.4041 121.686L78.47 121.576L76.6196 121.373L73.7649 121.059C72.9683 120.97 72.1936 120.891 71.1047 120.729C70.3841 120.622 69.6712 120.468 68.9706 120.268C68.7804 120.212 68.5935 120.145 68.4108 120.068L68.2924 120.017C68.2573 120.001 68.231 119.983 68.2003 119.969C68.1301 119.936 68.0995 119.907 68.0688 119.892C68.0381 119.878 68.0556 119.879 68.0483 119.875C68.041 119.871 68.0322 119.875 68.0322 119.866C68.0305 119.861 68.0269 119.856 68.022 119.853C68.022 119.844 68.0132 119.853 68.0015 119.827C67.9612 119.758 67.9251 119.688 67.8934 119.615L67.8247 119.455C67.8013 119.404 67.7823 119.336 67.7618 119.277L67.7004 119.092C67.68 119.029 67.6639 118.96 67.6449 118.894C67.5718 118.634 67.5119 118.35 67.4519 118.067C67.335 117.495 67.2385 116.89 67.1157 116.26C66.6948 114.005 66.3118 111.729 66.0692 109.415C65.9756 108.211 65.9084 107.008 65.8704 105.786C65.8412 104.842 65.8353 103.896 65.8543 102.959C65.8646 102.491 65.8806 102.024 65.9084 101.565C65.9362 101.106 65.9713 100.648 66.0326 100.23L66.0867 99.8617L66.1452 99.4758L66.249 98.707C66.3133 98.1954 66.3732 97.6858 66.4288 97.1781L66.7445 94.1451C66.9491 92.1309 67.1654 90.1313 67.4534 88.1522C67.7089 86.2672 68.0774 84.3992 68.557 82.5584C68.7943 81.6695 69.0957 80.799 69.4588 79.9537C69.7983 79.1493 70.2457 78.395 70.7889 77.7115L70.9804 77.4849C71.0433 77.4089 71.1164 77.3475 71.1836 77.2773C71.2508 77.2072 71.321 77.1312 71.3882 77.0742C71.4555 77.0172 71.5169 76.9631 71.5899 76.909C71.9057 76.6809 72.2436 76.485 72.5985 76.3243C73.3818 75.9728 74.1935 75.6883 75.0249 75.4736C76.7546 75.0341 78.5129 74.7156 80.2869 74.5206C81.965 74.3223 83.6531 74.2203 85.3428 74.2151C85.7609 74.2151 86.1965 74.2268 86.6262 74.2341L87.9183 74.2619L89.2104 74.2941L90.5026 74.3438C91.479 74.3862 92.4554 74.3803 93.4259 74.3905C94.3965 74.4008 95.3802 74.4139 96.3493 74.4636L101.255 74.7165C103.053 74.8276 104.804 74.886 106.553 74.9723C107.43 75.0147 108.307 75.0512 109.184 75.1038C110.061 75.1565 110.951 75.2193 111.849 75.2924C112.811 75.3655 113.77 75.459 114.723 75.5409C115.676 75.6227 116.623 75.687 117.568 75.7601C119.163 75.8654 121.059 75.7879 122.655 75.9282L124.725 76.1212L126.787 76.3375C128.163 76.4749 129.537 76.6488 130.918 76.814C131.69 76.9017 132.418 77.0069 133.126 77.0917C133.835 77.1765 134.527 77.2554 135.212 77.3563L137.288 77.6486C137.991 77.7597 138.71 77.8883 139.467 78.0213L139.906 78.0988L140.344 78.1836C140.637 78.2362 140.91 78.2815 141.153 78.3151C141.638 78.3824 141.987 78.3999 142.015 78.3254C142.053 78.2274 141.838 78.1207 141.411 77.9965C141.198 77.9351 140.932 77.8679 140.619 77.7962C140.306 77.7246 139.97 77.6355 139.567 77.5682Z" fill="#063844"/>
<path d="M79.714 86.4479C80.3206 86.4932 80.9228 86.5736 81.5323 86.6262C82.1082 86.6745 82.6622 86.6701 83.2395 86.7096C83.5319 86.7286 84.2145 86.8075 84.5068 86.8294C84.7991 86.8513 85.2698 86.8806 85.5417 86.9098C86.0708 86.9654 86.046 86.8937 86.5751 86.9478C87.1042 87.0019 87.6392 87.0764 88.1727 87.1378C88.7062 87.1992 89.2909 87.2416 89.8463 87.2913C90.374 87.3366 90.8987 87.3892 91.4264 87.4375C91.9964 87.493 92.5621 87.5603 93.1336 87.5953C93.8191 87.6377 94.5047 87.6684 95.1902 87.6991C95.8056 87.7254 96.4048 87.781 97.0129 87.8526C98.0156 87.9987 99.0066 88.161 99.9932 88.3276C100.633 88.4358 101.278 88.5279 101.931 88.62C102.358 88.6784 102.789 88.7325 103.224 88.7661C103.323 88.7749 103.424 88.7837 103.516 88.7895C103.817 88.81 104.117 88.8275 104.418 88.8436C105.195 88.9255 106.017 88.8187 106.797 88.829L107.101 88.8597L107.609 88.924C107.866 88.9561 108.119 88.9605 108.373 88.9693L109.159 88.9971C109.781 89.0263 110.403 89.0585 111.019 89.0702C111.634 89.0819 112.248 89.0702 112.863 89.0702C113.43 89.0702 114.003 89.0892 114.576 89.1052C115.209 89.1228 115.835 89.133 116.466 89.152C117 89.1798 117.519 89.2222 118.052 89.2777C118.586 89.3333 119.094 89.3888 119.615 89.44C120.739 89.5511 121.858 89.6461 122.985 89.7323C124.144 89.82 125.312 89.782 126.473 89.8785C127.22 89.9399 127.955 90.0641 128.699 90.1094C129.734 90.2293 130.63 90.2103 131.862 90.3184C132.404 90.3667 132.885 90.3652 132.885 90.2643C132.885 90.1635 132.434 90.1006 131.877 90.0626C130.284 89.9515 129.557 89.7177 128.065 89.5964C127.357 89.5379 126.569 89.4575 125.288 89.3625C124.529 89.3069 123.782 89.1622 123.02 89.1082C121.974 89.0336 121.804 89.0322 121.413 88.962C120.815 88.8655 120.4 88.7501 119.873 88.7004C119.276 88.6419 118.665 88.5951 118.067 88.5673C116.927 88.5176 115.769 88.4504 114.642 88.2969C114.132 88.2282 113.619 88.1639 113.102 88.1318C112.531 88.0952 111.978 88.0134 111.409 87.9724C110.84 87.9315 110.282 87.8774 109.709 87.8877C109.209 87.8964 108.706 87.8292 108.209 87.835C107.987 87.835 107.771 87.835 107.54 87.8219L107.5 87.8131C107.134 87.7415 106.739 87.6962 106.354 87.648C106.103 87.6158 105.846 87.5836 105.589 87.5573C105.2 87.5151 104.81 87.4965 104.419 87.5018C104.264 87.5018 103.596 87.4784 103.443 87.4755C103.191 87.4755 102.944 87.4141 102.67 87.4126C102.181 87.4126 101.696 87.455 101.208 87.4579C100.955 87.4448 100.704 87.4272 100.449 87.4068C100.055 87.3746 99.66 87.3264 99.2697 87.2855C98.4322 87.1977 97.5976 87.0984 96.76 87.0165C95.9517 86.9376 95.1376 86.9113 94.3366 86.8864C93.5794 86.8616 92.8208 86.8046 92.0607 86.7739C91.3504 86.7402 90.6327 86.7008 89.9194 86.6365C89.5145 86.5985 89.1052 86.6365 88.7018 86.5999C88.3627 86.5663 88.0236 86.5488 87.6786 86.5225C86.9317 86.464 86.217 86.4903 85.4774 86.4216C85.0783 86.3865 84.6822 86.3398 84.289 86.3324C83.9572 86.3324 83.5582 86.4201 83.2264 86.407C82.6505 86.3748 82.0804 86.3368 81.5045 86.2944C80.8614 86.2491 80.3513 86.2521 79.7125 86.2038C79.4655 86.1863 79.1834 86.2038 79.1732 86.2754C79.1775 86.3968 79.3763 86.4231 79.714 86.4479Z" fill="#063844"/>
<path d="M77.3534 97.4938C78.0944 97.5669 78.8311 97.7306 79.5766 97.7584C80.8175 97.8037 80.8921 97.9353 81.5981 97.9952C81.9576 98.023 82.7937 98.1165 83.1533 98.1414C83.5129 98.1662 84.1545 98.115 84.4893 98.1414L84.6179 98.1516C85.3268 98.2261 86.043 98.3781 86.7461 98.5141C87.4203 98.6607 88.1042 98.7584 88.7924 98.8064C89.551 98.8474 90.298 98.7933 91.0522 98.7845C91.7465 98.7845 92.4495 98.7845 93.1511 98.7845H95.4664C96.1198 98.8006 96.7571 98.8327 97.4119 98.878L99.3296 99.0169L101.396 99.1631L103.463 99.2917C104.172 99.3356 104.849 99.3209 105.527 99.3063C106.205 99.2917 106.882 99.2888 107.592 99.3429C108.507 99.4101 109.921 99.6074 110.83 99.6659C112.099 99.8033 112.833 99.7375 114.338 99.8793C115 99.9407 115.585 99.9524 115.594 99.853C115.602 99.7536 115.041 99.6776 114.36 99.6221C113.384 99.5446 112.67 99.4759 111.972 99.4072C111.273 99.3385 110.59 99.2786 109.677 99.2025C108.81 99.128 107.842 99.0403 106.276 98.9321C105.346 98.8649 104.427 98.726 103.498 98.6676C102.214 98.5916 102.007 98.5974 101.527 98.5346C100.796 98.4425 100.277 98.3299 99.6264 98.2875C98.8955 98.2378 98.1428 98.1969 97.4075 98.1823C96.0087 98.1516 94.5894 98.1121 93.2023 97.9835C92.5752 97.925 91.9409 97.8739 91.3021 97.8505C90.6049 97.8242 89.9223 97.7511 89.228 97.7189C88.2048 97.6751 87.0808 97.7014 86.1731 97.7379C85.2654 97.7745 84.5653 97.811 84.3972 97.8008C83.909 97.7642 83.4237 97.7072 82.9355 97.6912C82.5306 97.678 82.0585 97.6239 81.6478 97.6035C80.9447 97.5508 80.2489 97.4924 79.5444 97.4295C78.758 97.3579 78.1339 97.3316 77.3519 97.2541C77.0493 97.2234 76.7058 97.2132 76.6927 97.2892C76.6985 97.4003 76.9412 97.4456 77.3534 97.4938Z" fill="#063844"/>
</svg>
