<svg width="455" height="424" viewBox="0 0 455 424" fill="none" xmlns="http://www.w3.org/2000/svg">
<path d="M254.452 256.807C267.336 234.492 259.69 205.957 237.375 193.073C215.059 180.189 186.525 187.835 173.641 210.151C160.757 232.466 168.403 261.001 190.718 273.885C213.034 286.769 241.569 279.123 254.452 256.807Z" fill="#F7F4F2"/>
<path d="M253.416 208.358C253.097 208.563 253.189 209.019 253.54 209.725C253.71 210.082 253.968 210.489 254.234 210.984L255.141 212.667C259.077 220.435 260.665 229.182 259.711 237.838C258.758 246.494 255.305 254.685 249.773 261.411C246.108 265.854 241.608 269.535 236.526 272.245C231.822 274.795 226.773 276.65 221.538 277.754C216.388 278.811 211.091 278.946 205.895 278.151C205.27 278.039 204.633 277.947 204.021 277.814C203.408 277.681 202.788 277.53 202.179 277.392L200.4 276.889C199.806 276.725 199.242 276.507 198.65 276.309C196.365 275.492 194.153 274.487 192.035 273.304C189.898 272.083 187.867 270.686 185.961 269.129L185.24 268.526C185.009 268.33 184.755 268.125 184.526 267.907C184.062 267.474 183.602 267.029 183.121 266.602C182.639 266.176 182.217 265.677 181.758 265.206C181.3 264.734 180.883 264.221 180.435 263.725C178.32 261.258 176.468 258.577 174.91 255.726C173.34 252.834 172.076 249.785 171.14 246.63C170.203 243.463 169.591 240.209 169.314 236.919C169.042 233.638 169.099 230.339 169.483 227.07C169.868 223.698 170.729 220.397 172.041 217.267C173.295 214.287 174.898 211.467 176.819 208.866C178.731 206.277 180.908 203.894 183.313 201.755C185.844 199.518 188.573 197.517 191.468 195.776C196.522 192.678 202.088 190.505 207.904 189.359C213.862 188.192 219.998 188.28 225.92 189.618C228.302 190.18 230.635 190.931 232.897 191.864C233.447 192.105 234.014 192.319 234.568 192.594C235.123 192.869 235.659 193.124 236.206 193.388L237.797 194.275L238.19 194.502L238.583 194.729L239.358 195.208C241.421 196.496 243.369 197.96 245.181 199.583C247.01 201.241 248.699 203.046 250.233 204.979C251.647 206.781 252.836 208.723 253.331 208.409C253.651 208.207 253.539 207.756 253.143 207.052C252.9 206.625 252.632 206.213 252.342 205.817L251.173 204.26C248.76 201.202 246.019 198.419 242.998 195.961C239.981 193.538 236.685 191.484 233.182 189.842C229.651 188.211 225.926 187.038 222.098 186.349C218.193 185.67 214.212 185.542 210.272 185.968C203.482 186.737 197.331 188.529 191.778 191.363C188.995 192.774 186.366 194.47 183.935 196.426C181.457 198.423 179.231 200.714 177.304 203.247C175.143 206.065 173.141 209 171.307 212.041C169.501 215.015 168.112 218.224 167.181 221.576C167.046 222.102 166.918 222.628 166.787 223.142L166.488 224.693C166.381 225.207 166.31 225.724 166.244 226.238C166.179 226.752 166.107 227.258 166.051 227.767L165.939 229.292C165.921 229.544 165.897 229.795 165.888 230.049L165.872 230.805L165.842 232.321L165.881 233.83L165.911 234.589L165.965 235.344L166.071 236.856L166.23 238.372L166.313 239.137C166.344 239.393 166.386 239.648 166.43 239.894L166.652 241.457L166.939 243.025C166.986 243.282 167.033 243.547 167.08 243.82L167.257 244.612L167.605 246.237C168.276 249.1 169.29 251.871 170.624 254.492C171.916 257.026 173.449 259.429 175.202 261.669C176.952 263.898 178.89 265.973 180.995 267.871C183.156 269.834 185.453 271.643 187.868 273.284C190.15 274.842 192.548 276.221 195.043 277.409C197.521 278.572 200.088 279.535 202.719 280.29C205.34 281.041 208.018 281.58 210.726 281.899C216.177 282.522 221.694 282.192 227.032 280.926C229.721 280.261 232.344 279.352 234.868 278.21C236.142 277.657 237.366 276.995 238.591 276.323L240.382 275.24C240.975 274.869 241.529 274.448 242.123 274.063C244.428 272.43 246.568 270.575 248.512 268.526C250.292 266.639 251.946 264.636 253.463 262.531C253.835 261.988 254.237 261.465 254.586 260.908L255.655 259.236L256.649 257.514C256.982 256.937 257.265 256.335 257.574 255.745C258.762 253.364 259.733 250.881 260.478 248.327C261.203 245.802 261.666 243.209 261.86 240.589C262.173 236.269 261.965 231.926 261.243 227.656C261.032 226.6 260.86 225.535 260.589 224.482L260.407 223.688C260.349 223.423 260.28 223.16 260.211 222.885L259.765 221.311C259.619 220.782 259.427 220.267 259.26 219.744L259.001 218.956C258.918 218.695 258.808 218.438 258.712 218.179L258.118 216.616L257.448 215.067C257.353 214.819 257.273 214.563 257.166 214.318L256.856 213.584C256.642 213.095 256.443 212.598 256.223 212.112C255.126 210.041 253.888 208.047 253.416 208.358Z" fill="#063844"/>
<path d="M245.576 251.681C255.627 234.272 249.662 212.012 232.253 201.961C214.845 191.91 192.584 197.874 182.533 215.283C172.482 232.692 178.447 254.953 195.856 265.004C213.264 275.055 235.525 269.09 245.576 251.681Z" fill="#FFD58E"/>
<path d="M236.857 262.092C240.34 259.378 243.281 256.032 245.527 252.229C246.253 250.967 246.912 249.667 247.502 248.336C247.744 247.821 247.919 247.346 248.103 246.925C248.288 246.504 248.427 246.112 248.563 245.746C248.699 245.379 248.837 245.039 248.955 244.697L249.289 243.652L249.463 243.101L249.619 242.501C249.722 242.085 249.855 241.634 249.951 241.121L250.13 240.214L250.235 239.685L250.322 239.111L250.507 237.87L250.639 236.567C250.779 235.032 250.818 233.49 250.757 231.95C250.732 231.45 250.712 230.835 250.622 230.148L250.496 229.1L250.313 228.019C250.206 227.292 250.024 226.58 249.888 225.919C249.753 225.258 249.572 224.675 249.462 224.191C249.404 223.922 249.334 223.685 249.264 223.459C248.154 219.36 246.396 215.464 244.057 211.92C242.894 210.177 241.578 208.541 240.124 207.033C238.729 205.569 237.192 204.246 235.537 203.084C231.826 200.516 227.664 198.671 223.269 197.646C219.215 196.658 215.024 196.353 210.869 196.744C206.295 197.173 201.845 198.463 197.751 200.547C194.302 202.274 191.134 204.513 188.356 207.189C186.99 208.516 185.725 209.943 184.571 211.458C183.42 212.973 182.393 214.579 181.499 216.259C177.594 223.569 176.269 231.983 177.737 240.14C177.843 240.66 177.93 241.178 178.047 241.698L178.43 243.208L178.887 244.686C179.036 245.175 179.235 245.648 179.407 246.127C180.13 248.005 181.008 249.821 182.03 251.554C183.065 253.274 184.223 254.917 185.495 256.468C186.809 258.053 188.244 259.533 189.786 260.896C190.913 261.901 192.098 262.84 193.334 263.707C194.73 264.666 196.185 265.536 197.691 266.312C199.205 267.076 200.769 267.737 202.373 268.288C202.755 268.432 203.146 268.538 203.523 268.655C203.9 268.773 204.27 268.89 204.636 268.977C205.372 269.154 206.068 269.352 206.734 269.464C208.421 269.828 210.134 270.055 211.858 270.144L213.048 270.197C213.438 270.201 213.829 270.193 214.223 270.186C214.999 270.196 215.772 270.118 216.554 270.083C220.185 269.78 223.756 268.969 227.162 267.676C228.766 267.058 230.319 266.315 231.806 265.454C232.97 264.747 233.658 264.248 233.622 264.19C233.587 264.131 232.855 264.522 231.692 265.144C230.176 265.945 228.617 266.663 227.023 267.295C224.656 268.201 222.199 268.853 219.694 269.242C217.592 269.572 215.464 269.71 213.337 269.654C208.854 269.529 204.431 268.591 200.284 266.885C197.69 265.822 195.233 264.452 192.966 262.805C191.554 261.794 190.221 260.678 188.977 259.467C188.644 259.13 188.283 258.805 187.951 258.437C187.618 258.07 187.273 257.701 186.921 257.319L185.904 256.094C185.558 255.673 185.237 255.219 184.89 254.764C181.676 250.388 179.651 245.261 178.675 239.936C178.404 238.448 178.229 236.945 178.15 235.435C178.075 234.233 178.105 233.298 178.114 232.511C178.156 231.184 178.281 229.861 178.491 228.55C178.786 226.671 179.243 224.82 179.857 223.02C180.414 221.348 181.08 219.715 181.85 218.13C183.705 214.29 186.211 210.801 189.256 207.816C190.703 206.406 192.268 205.123 193.935 203.981C195.602 202.821 197.372 201.815 199.221 200.975C202.898 199.29 206.846 198.273 210.879 197.974C212.689 197.836 214.506 197.834 216.316 197.969C218.128 198.109 219.929 198.369 221.706 198.747C225.594 199.628 229.31 201.145 232.704 203.238C235.263 204.816 237.629 206.689 239.752 208.818C241.753 210.842 243.521 213.085 245.021 215.504C246.204 217.408 247.203 219.42 248.006 221.512C248.444 222.61 248.81 223.734 249.103 224.879C249.437 226.263 249.69 227.665 249.861 229.078C249.929 229.783 250.009 230.487 250.052 231.188C250.096 231.889 250.142 232.591 250.129 233.301C250.148 235.811 249.905 238.315 249.406 240.775C248.996 242.786 248.419 244.759 247.682 246.675C247.485 247.147 247.306 247.63 247.098 248.099L246.456 249.497L245.743 250.864C245.501 251.318 245.229 251.754 244.971 252.201C243.869 254.035 242.612 255.772 241.215 257.393C239.826 259.014 238.287 260.5 236.618 261.831L235.568 262.641L235.06 263.037L234.585 263.377C233.995 263.801 233.596 264.123 233.608 264.191C233.62 264.26 233.948 264.116 234.513 263.77C235.326 263.256 236.109 262.696 236.857 262.092Z" fill="#063844"/>
<path d="M223.927 251.852L220.993 247.266C219.632 247.969 218.218 248.567 216.765 249.055C215.593 249.473 214.382 249.771 213.15 249.943L209.87 243.681C211.527 243.559 213.164 243.239 214.746 242.729C216.173 242.295 217.538 241.682 218.81 240.903C219.783 240.281 220.421 239.615 220.725 238.906C221.029 238.199 220.931 237.456 220.439 236.672C219.947 235.888 219.12 235.566 218.019 235.699C216.626 235.912 215.253 236.237 213.912 236.669C212.383 237.17 210.797 237.478 209.192 237.588C207.857 237.678 206.522 237.407 205.328 236.805C204.168 236.211 203.118 235.177 202.178 233.704C200.856 231.635 200.343 229.537 200.64 227.41C200.937 225.283 202.222 223.291 204.494 221.434L202.011 217.542L206.978 214.373L209.54 218.39C210.679 217.874 211.847 217.425 213.038 217.044C214.028 216.719 215.041 216.471 216.069 216.302L219.444 222.625C217.916 222.677 216.402 222.931 214.941 223.38C213.7 223.737 212.512 224.258 211.409 224.929C210.648 225.373 210.023 226.016 209.601 226.788C209.262 227.475 209.329 228.19 209.804 228.933C209.997 229.26 210.277 229.528 210.613 229.706C210.949 229.884 211.327 229.966 211.707 229.942C212.921 229.849 214.12 229.616 215.28 229.247C217.599 228.558 219.534 228.182 221.086 228.117C222.454 227.996 223.828 228.268 225.047 228.901C226.246 229.638 227.249 230.656 227.968 231.866C229.283 233.924 229.806 235.972 229.537 238.009C229.269 240.047 228.049 242.032 225.877 243.967L228.884 248.678L223.927 251.852Z" fill="#063844"/>
<path d="M71.5838 82.8187C71.5838 112.511 95.6544 136.582 125.347 136.582C155.039 136.582 179.11 112.511 179.11 82.8187C179.11 53.1262 155.039 29.0557 125.347 29.0557C95.6544 29.0557 71.5838 53.1262 71.5838 82.8187Z" fill="#F7F4F2"/>
<path d="M100.549 130.578C100.748 130.189 100.394 129.787 99.6368 129.284C99.2618 129.026 98.7698 128.768 98.2194 128.428L96.3444 127.272C87.9412 121.787 81.3171 113.973 77.2812 104.786C73.2452 95.5982 71.972 85.4342 73.6171 75.5351C74.7143 68.99 77.0848 62.7237 80.5942 57.0911C83.8198 51.8364 87.7887 47.076 92.3776 42.958C96.9076 38.9358 102.116 35.7498 107.76 33.5485C108.448 33.3008 109.136 33.0255 109.824 32.8053C110.512 32.5852 111.217 32.3787 111.905 32.1654L113.969 31.6425C114.658 31.4636 115.346 31.3569 116.051 31.2124C118.801 30.7116 121.588 30.44 124.384 30.4005C127.219 30.3884 130.051 30.6117 132.85 31.068L133.917 31.2537C134.261 31.3157 134.632 31.3741 134.987 31.4602C135.699 31.6253 136.415 31.8042 137.141 31.9521C137.866 32.1001 138.575 32.3547 139.305 32.5611C140.034 32.7675 140.746 33.0393 141.479 33.2767C145.011 34.5196 148.403 36.1281 151.601 38.076C154.834 40.0573 157.852 42.3715 160.604 44.9809C163.364 47.6011 165.849 50.4956 168.022 53.6197C170.182 56.7368 172.026 60.0618 173.526 63.5453C175.085 67.1325 176.127 70.9225 176.622 74.8023C177.088 78.4984 177.113 82.2369 176.695 85.9388C176.278 89.6241 175.479 93.256 174.311 96.7761C173.074 100.466 171.503 104.036 169.618 107.441C166.359 113.445 162.057 118.82 156.912 123.315C151.639 127.913 145.465 131.36 138.785 133.437C136.084 134.248 133.323 134.843 130.528 135.216C129.84 135.291 129.152 135.405 128.44 135.45C127.728 135.494 127.046 135.549 126.348 135.601L124.249 135.632L123.726 135.632L123.203 135.632L122.154 135.601C119.353 135.504 116.565 135.165 113.822 134.589C111.042 133.988 108.316 133.161 105.671 132.116C103.222 131.132 100.917 129.88 100.604 130.478C100.401 130.863 100.772 131.249 101.574 131.724C102.062 132.009 102.566 132.267 103.084 132.494L105.148 133.375C109.317 135.036 113.657 136.234 118.088 136.946C122.494 137.626 126.966 137.777 131.409 137.397C135.872 136.99 140.266 136.015 144.482 134.497C148.77 132.924 152.817 130.759 156.503 128.063C162.837 123.384 167.942 118.051 171.851 112.024C173.815 109.013 175.461 105.805 176.76 102.453C178.082 99.0319 178.984 95.4634 179.447 91.8253C179.981 87.7687 180.287 83.6855 180.366 79.5947C180.455 75.5859 179.992 71.5838 178.989 67.7013C178.821 67.0992 178.645 66.5006 178.48 65.9123L177.885 64.1921C177.696 63.6175 177.469 63.0602 177.238 62.5097C177.008 61.9593 176.788 61.4122 176.55 60.8721L175.783 59.2861C175.656 59.0246 175.535 58.7597 175.398 58.5017L174.978 57.7379L174.135 56.2069L173.227 54.7241L172.759 53.9844L172.27 53.2619L171.293 51.8135L170.261 50.3926L169.738 49.677C169.559 49.4397 169.37 49.2091 169.184 48.989L168.063 47.5578L166.872 46.1575C166.677 45.9282 166.478 45.6908 166.274 45.4454L165.641 44.7573L164.357 43.3364C162.038 40.8661 159.43 38.6841 156.589 36.8375C153.84 35.0535 150.925 33.5385 147.885 32.3134C144.854 31.097 141.724 30.1428 138.53 29.4613C135.243 28.7477 131.909 28.266 128.553 28.0198C125.379 27.7795 122.19 27.7852 119.017 28.037C115.874 28.3045 112.757 28.8222 109.697 29.5851C106.648 30.3451 103.665 31.3507 100.779 32.592C94.9809 35.1115 89.6645 38.619 85.0667 42.958C82.767 45.1715 80.6735 47.5897 78.8121 50.1828C77.8591 51.4695 77.0197 52.8353 76.1837 54.2115L75.0208 56.3239C74.6424 57.036 74.3327 57.7757 73.9611 58.5017C72.6023 61.4596 71.5353 64.543 70.7754 67.7082C70.0866 70.6173 69.5901 73.5687 69.2891 76.5431C69.2306 77.3 69.1308 78.0534 69.1033 78.8103L69.0001 81.0947L69.0001 83.386C69.0001 84.1532 69.0655 84.917 69.0964 85.6842C69.2834 88.7445 69.7439 91.7819 70.4726 94.76C71.2037 97.6977 72.2355 100.552 73.5518 103.278C75.729 107.77 78.4376 111.983 81.6195 115.829C82.4383 116.761 83.2227 117.725 84.1 118.619L84.7399 119.307C84.9498 119.538 85.17 119.761 85.397 119.995L86.7491 121.31C87.1998 121.753 87.6883 122.156 88.1562 122.582L88.8684 123.219C89.1023 123.432 89.3603 123.625 89.6046 123.828L91.0978 125.046L92.6597 126.205C92.8971 126.398 93.1241 126.608 93.3718 126.79L94.1047 127.344C94.6001 127.709 95.0852 128.091 95.584 128.448C97.8719 129.883 100.256 131.159 100.549 130.578Z" fill="#063844"/>
<path d="M83.4073 82.8256C83.4073 105.989 102.185 124.767 125.349 124.767C148.513 124.767 167.291 105.989 167.291 82.8256C167.291 59.6618 148.513 40.8838 125.349 40.8838C102.185 40.8838 83.4073 59.6618 83.4073 82.8256Z" fill="#BADFD8"/>
<path d="M86.1284 67.4367C84.2166 72.1528 83.2093 77.1865 83.1593 82.2751C83.1619 83.953 83.2526 85.6296 83.4311 87.298C83.4861 87.9517 83.5859 88.5263 83.6444 89.0526C83.7029 89.579 83.7889 90.0504 83.8646 90.4942C83.9403 90.938 83.9988 91.3577 84.0779 91.7671L84.3462 93.0022L84.4907 93.6524L84.68 94.3405C84.8176 94.8153 84.9449 95.3417 85.1444 95.9093L85.4884 96.9174L85.688 97.5057L85.9322 98.1284L86.4621 99.4736L87.0813 100.85C87.8263 102.462 88.6756 104.024 89.6238 105.525C89.9369 106.01 90.3119 106.612 90.797 107.245L91.5263 108.219L92.3314 109.193C92.8578 109.857 93.4495 110.462 93.9656 111.044C94.4816 111.625 94.9977 112.103 95.3864 112.523C95.5998 112.757 95.8062 112.953 96.0057 113.139C99.4756 116.59 103.474 119.464 107.851 121.654C110.015 122.723 112.271 123.597 114.591 124.265C116.827 124.922 119.122 125.356 121.444 125.562C126.627 125.987 131.843 125.43 136.819 123.921C141.435 122.572 145.793 120.461 149.714 117.677C154.031 114.614 157.729 110.762 160.613 106.323C163.061 102.613 164.932 98.5532 166.162 94.282C166.761 92.1709 167.201 90.0182 167.48 87.8416C167.755 85.6662 167.855 83.4722 167.779 81.2808C167.464 71.7358 163.939 62.576 157.775 55.2818C157.369 54.8242 156.983 54.3563 156.567 53.9056L155.315 52.6189L154.007 51.4079C153.577 51.0054 153.106 50.6476 152.659 50.2692C150.855 48.8113 148.933 47.5052 146.913 46.3643C144.89 45.2439 142.788 44.2723 140.624 43.4572C138.4 42.633 136.116 41.982 133.792 41.5099C132.088 41.1568 130.364 40.9029 128.631 40.7496C126.685 40.5971 124.732 40.5672 122.782 40.6602C120.831 40.7695 118.89 41.012 116.971 41.3861C116.507 41.4618 116.056 41.5822 115.613 41.682C115.169 41.7817 114.732 41.8781 114.315 42.0019C113.479 42.2496 112.671 42.4526 111.942 42.7244C110.049 43.3334 108.208 44.0939 106.437 44.9985L105.219 45.6315C104.827 45.8517 104.442 46.0856 104.053 46.3196C103.272 46.7565 102.546 47.2795 101.786 47.7646C98.3369 50.1599 95.2403 53.026 92.586 56.2795C91.3417 57.8201 90.2201 59.4558 89.2316 61.1717C88.4781 62.5479 88.0791 63.4424 88.1479 63.4802C88.2167 63.5181 88.7224 62.7062 89.524 61.416C90.5762 59.7433 91.7178 58.1286 92.9438 56.5788C94.7847 54.311 96.8605 52.2445 99.1365 50.4137C101.044 48.8728 103.088 47.5094 105.243 46.3402C109.789 43.8817 114.743 42.2695 119.865 41.5822C123.065 41.1488 126.306 41.1003 129.519 41.4377C131.51 41.6334 133.483 41.9784 135.422 42.4698C135.949 42.6143 136.496 42.7313 137.039 42.9067C137.583 43.0822 138.14 43.2508 138.711 43.4297L140.432 44.0661C141.02 44.2863 141.601 44.5547 142.21 44.8093C147.938 47.3242 152.913 51.2738 156.956 56.0249C158.083 57.354 159.124 58.7536 160.073 60.2153C160.84 61.3713 161.349 62.3208 161.793 63.1121C162.516 64.46 163.153 65.8528 163.699 67.2819C164.487 69.3274 165.097 71.4374 165.522 73.5881C165.929 75.5771 166.206 77.5906 166.351 79.6157C166.712 84.5161 166.222 89.442 164.903 94.1754C164.272 96.4162 163.449 98.5986 162.443 100.698C161.447 102.816 160.261 104.84 158.9 106.743C156.202 110.544 152.848 113.833 148.995 116.455C147.268 117.635 145.456 118.684 143.573 119.593C141.683 120.497 139.736 121.275 137.745 121.922C133.357 123.283 128.775 123.91 124.183 123.776C120.719 123.677 117.279 123.171 113.934 122.27C110.77 121.402 107.714 120.183 104.823 118.633C102.546 117.414 100.39 115.982 98.383 114.357C97.314 113.513 96.3004 112.602 95.3486 111.628C94.2179 110.44 93.1576 109.187 92.1731 107.875C91.6984 107.211 91.2133 106.554 90.766 105.88C90.3188 105.205 89.8681 104.531 89.4724 103.815C88.0077 101.322 86.8063 98.6825 85.8875 95.9403C85.1381 93.6972 84.5766 91.3957 84.2086 89.0595C84.1329 88.4746 84.0332 87.8898 83.9712 87.3015L83.8061 85.5366L83.7304 83.7613C83.7098 83.1696 83.7304 82.5778 83.7304 81.9827C83.7734 79.5172 84.0266 77.0599 84.4873 74.6374C84.9391 72.2197 85.6187 69.8502 86.5171 67.5605L87.0985 66.1465L87.3772 65.4585L87.6559 64.8461C87.9999 64.0823 88.2132 63.5318 88.1616 63.4699C88.11 63.408 87.8658 63.7417 87.5011 64.4126C86.9857 65.3934 86.5274 66.4031 86.1284 67.4367Z" fill="#063844"/>
<path d="M104.93 70.1926L110.5 73.0791C111.454 71.5927 112.52 70.1815 113.689 68.8577C114.618 67.7654 115.656 66.7706 116.786 65.8887L123.667 70.2477C122.083 71.325 120.634 72.5873 119.349 74.008C118.175 75.2625 117.166 76.6614 116.345 78.1709C115.733 79.3521 115.48 80.3842 115.585 81.2672C115.688 82.148 116.215 82.8326 117.157 83.3315C118.1 83.8303 119.112 83.6755 120.133 82.9083C121.4 81.8931 122.584 80.7783 123.674 79.5746C124.911 78.1936 126.315 76.972 127.854 75.9381C129.134 75.0791 130.622 74.58 132.161 74.4931C133.661 74.4174 135.304 74.844 137.091 75.7729C139.603 77.0757 141.323 78.8739 142.252 81.1675C143.181 83.4611 143.046 86.1893 141.849 89.3522L146.569 91.8052L143.439 97.8293L138.567 95.2972C137.728 96.4681 136.822 97.5892 135.853 98.655C135.052 99.5494 134.183 100.381 133.255 101.142L126.243 96.7765C127.738 95.8444 129.103 94.7188 130.303 93.429C131.335 92.3571 132.22 91.1527 132.935 89.8476C133.438 88.9667 133.692 87.9651 133.668 86.9508C133.611 86.07 133.131 85.3957 132.23 84.9278C131.848 84.712 131.415 84.6061 130.977 84.6219C130.539 84.6377 130.114 84.7746 129.749 85.0173C128.591 85.8088 127.529 86.7325 126.584 87.7696C124.667 89.7925 122.952 91.2834 121.441 92.2421C120.145 93.1507 118.618 93.6711 117.037 93.7421C115.415 93.6976 113.828 93.2596 112.413 92.4657C109.915 91.1698 108.214 89.4279 107.308 87.2398C106.402 85.0517 106.475 82.367 107.528 79.1858L101.813 76.2167L104.93 70.1926Z" fill="#063844"/>
<path d="M331.229 352.302C331.229 377.937 352.01 398.718 377.644 398.718C403.279 398.718 424.06 377.937 424.06 352.302C424.06 326.668 403.279 305.887 377.644 305.887C352.01 305.887 331.229 326.668 331.229 352.302Z" fill="#F7F4F2"/>
<path d="M356.236 393.536C356.408 393.2 356.102 392.853 355.448 392.419C355.125 392.196 354.7 391.973 354.225 391.679L352.606 390.681C345.351 385.946 339.632 379.2 336.148 371.268C332.664 363.337 331.564 354.562 332.985 346.015C333.932 340.365 335.979 334.955 339.008 330.092C341.793 325.555 345.22 321.446 349.181 317.89C353.092 314.418 357.589 311.667 362.461 309.767C363.055 309.553 363.649 309.315 364.243 309.125C364.837 308.935 365.446 308.757 366.04 308.573L367.822 308.121C368.416 307.967 369.01 307.875 369.619 307.75C371.994 307.318 374.4 307.083 376.813 307.049C379.262 307.039 381.706 307.231 384.123 307.625L385.044 307.786C385.341 307.839 385.661 307.89 385.967 307.964C386.582 308.107 387.2 308.261 387.827 308.389C388.453 308.516 389.065 308.736 389.695 308.914C390.325 309.093 390.94 309.327 391.572 309.532C394.621 310.605 397.55 311.994 400.311 313.676C403.102 315.386 405.708 317.384 408.084 319.637C410.466 321.899 412.612 324.398 414.487 327.095C416.353 329.786 417.945 332.657 419.24 335.664C420.585 338.761 421.485 342.033 421.913 345.383C422.315 348.574 422.336 351.801 421.975 354.997C421.615 358.179 420.925 361.315 419.917 364.353C418.849 367.54 417.493 370.622 415.866 373.561C413.052 378.744 409.338 383.385 404.897 387.266C400.344 391.235 395.014 394.211 389.246 396.004C386.915 396.704 384.531 397.218 382.118 397.54C381.524 397.605 380.93 397.703 380.315 397.742C379.7 397.78 379.112 397.828 378.509 397.872L376.697 397.899L376.246 397.899L375.794 397.899L374.888 397.872C372.47 397.788 370.063 397.496 367.695 396.999C365.295 396.48 362.942 395.766 360.658 394.863C358.543 394.014 356.553 392.933 356.283 393.45C356.108 393.782 356.429 394.115 357.121 394.525C357.542 394.772 357.978 394.994 358.425 395.19L360.207 395.951C363.806 397.385 367.552 398.419 371.378 399.034C375.182 399.62 379.043 399.751 382.878 399.423C386.732 399.071 390.525 398.23 394.165 396.919C397.867 395.562 401.36 393.692 404.543 391.365C410.011 387.325 414.419 382.721 417.793 377.517C419.489 374.918 420.91 372.149 422.032 369.254C423.173 366.301 423.952 363.22 424.351 360.079C424.812 356.577 425.077 353.052 425.144 349.52C425.221 346.059 424.822 342.604 423.956 339.252C423.811 338.732 423.659 338.216 423.517 337.708L423.003 336.223C422.84 335.727 422.644 335.245 422.445 334.77C422.246 334.295 422.055 333.823 421.851 333.356L421.188 331.987C421.078 331.761 420.974 331.533 420.855 331.31L420.493 330.65L419.765 329.329L418.981 328.049L418.577 327.41L418.156 326.786L417.312 325.536L416.421 324.309L415.969 323.691C415.815 323.486 415.652 323.287 415.491 323.097L414.523 321.862L413.495 320.653C413.327 320.455 413.155 320.25 412.978 320.038L412.432 319.444L411.324 318.217C409.322 316.084 407.07 314.201 404.617 312.606C402.244 311.066 399.727 309.758 397.103 308.701C394.486 307.65 391.784 306.827 389.027 306.238C386.188 305.622 383.31 305.206 380.413 304.994C377.672 304.786 374.92 304.791 372.18 305.009C369.466 305.24 366.776 305.687 364.133 306.345C361.501 307.001 358.927 307.869 356.435 308.941C351.429 311.116 346.839 314.144 342.87 317.89C340.884 319.801 339.077 321.889 337.47 324.128C336.647 325.239 335.922 326.418 335.201 327.606L334.197 329.43C333.87 330.045 333.603 330.683 333.282 331.31C332.109 333.863 331.187 336.526 330.531 339.258C329.937 341.77 329.508 344.318 329.248 346.886C329.198 347.539 329.112 348.19 329.088 348.843L328.999 350.815L328.999 352.793C328.999 353.456 329.055 354.115 329.082 354.777C329.243 357.42 329.641 360.042 330.27 362.613C330.901 365.149 331.792 367.614 332.928 369.967C334.808 373.845 337.146 377.482 339.893 380.802C340.6 381.607 341.278 382.439 342.035 383.211L342.587 383.805C342.769 384.004 342.959 384.197 343.155 384.399L344.322 385.534C344.711 385.917 345.133 386.265 345.537 386.633L346.152 387.182C346.354 387.367 346.576 387.533 346.787 387.708L348.076 388.76L349.425 389.761C349.63 389.927 349.826 390.108 350.04 390.266L350.672 390.744C351.1 391.059 351.519 391.388 351.95 391.697C353.925 392.936 355.983 394.038 356.236 393.536Z" fill="#063844"/>
<path d="M341.437 352.309C341.437 372.308 357.648 388.519 377.647 388.519C397.645 388.519 413.856 372.308 413.856 352.309C413.856 332.311 397.645 316.1 377.647 316.1C357.648 316.1 341.437 332.311 341.437 352.309Z" fill="#BADFD8"/>
<path d="M343.787 339.024C342.136 343.096 341.267 347.441 341.223 351.834C341.226 353.283 341.304 354.731 341.458 356.171C341.506 356.735 341.592 357.231 341.642 357.686C341.693 358.14 341.767 358.547 341.832 358.93C341.898 359.313 341.948 359.676 342.016 360.029L342.248 361.096L342.373 361.657L342.536 362.251C342.655 362.661 342.765 363.115 342.937 363.605L343.234 364.476L343.406 364.984L343.617 365.521L344.075 366.683L344.609 367.871C345.253 369.262 345.986 370.611 346.804 371.907C347.075 372.326 347.398 372.846 347.817 373.392L348.447 374.233L349.142 375.073C349.596 375.647 350.107 376.169 350.553 376.671C350.998 377.173 351.444 377.586 351.779 377.948C351.964 378.15 352.142 378.32 352.314 378.48C355.31 381.459 358.762 383.941 362.541 385.831C364.409 386.755 366.356 387.509 368.359 388.086C370.29 388.653 372.272 389.028 374.276 389.206C378.75 389.572 383.254 389.092 387.55 387.789C391.535 386.624 395.297 384.802 398.682 382.398C402.409 379.754 405.602 376.428 408.092 372.596C410.205 369.393 411.82 365.888 412.883 362.2C413.399 360.378 413.78 358.519 414.02 356.64C414.258 354.762 414.344 352.868 414.279 350.976C414.006 342.736 410.963 334.828 405.641 328.53C405.291 328.135 404.958 327.731 404.599 327.342L403.518 326.231L402.389 325.186C402.018 324.838 401.611 324.529 401.225 324.203C399.667 322.944 398.008 321.816 396.264 320.831C394.518 319.864 392.703 319.025 390.835 318.322C388.915 317.61 386.943 317.048 384.936 316.641C383.465 316.336 381.977 316.116 380.481 315.984C378.801 315.852 377.114 315.827 375.431 315.907C373.747 316.001 372.071 316.211 370.415 316.534C370.014 316.599 369.625 316.703 369.241 316.789C368.858 316.875 368.481 316.958 368.122 317.065C367.4 317.279 366.702 317.454 366.072 317.689C364.438 318.215 362.849 318.871 361.32 319.652L360.268 320.199C359.93 320.389 359.597 320.591 359.261 320.793C358.587 321.17 357.96 321.622 357.304 322.04C354.327 324.108 351.653 326.583 349.362 329.392C348.287 330.722 347.319 332.134 346.466 333.615C345.815 334.803 345.471 335.576 345.53 335.608C345.59 335.641 346.026 334.94 346.718 333.826C347.627 332.382 348.612 330.988 349.671 329.65C351.26 327.692 353.052 325.908 355.017 324.327C356.664 322.997 358.428 321.82 360.289 320.811C364.213 318.688 368.491 317.296 372.913 316.703C375.676 316.329 378.474 316.287 381.247 316.578C382.966 316.747 384.67 317.045 386.344 317.469C386.798 317.594 387.271 317.695 387.74 317.846C388.209 317.998 388.69 318.143 389.183 318.298L390.668 318.847C391.176 319.037 391.678 319.269 392.204 319.489C397.149 321.66 401.444 325.07 404.934 329.172C405.907 330.319 406.806 331.528 407.625 332.79C408.288 333.787 408.727 334.607 409.11 335.29C409.735 336.454 410.285 337.656 410.756 338.89C411.437 340.656 411.963 342.478 412.33 344.335C412.682 346.052 412.921 347.79 413.046 349.538C413.357 353.769 412.934 358.022 411.796 362.108C411.25 364.043 410.54 365.927 409.672 367.74C408.812 369.568 407.788 371.315 406.613 372.959C404.283 376.24 401.388 379.079 398.061 381.343C396.571 382.362 395.006 383.268 393.38 384.052C391.749 384.833 390.068 385.504 388.349 386.063C384.561 387.238 380.605 387.779 376.64 387.664C373.65 387.578 370.68 387.141 367.792 386.363C365.061 385.614 362.423 384.561 359.927 383.224C357.961 382.171 356.099 380.935 354.367 379.532C353.444 378.804 352.569 378.017 351.747 377.176C350.771 376.15 349.855 375.068 349.005 373.936C348.595 373.362 348.177 372.795 347.79 372.213C347.404 371.631 347.015 371.049 346.674 370.431C345.409 368.278 344.372 366 343.579 363.632C342.932 361.696 342.447 359.709 342.129 357.692C342.064 357.187 341.978 356.682 341.924 356.174L341.782 354.65L341.716 353.118C341.699 352.607 341.716 352.096 341.716 351.582C341.754 349.453 341.972 347.332 342.37 345.241C342.76 343.153 343.347 341.108 344.122 339.131L344.624 337.91L344.865 337.316L345.105 336.787C345.402 336.128 345.587 335.653 345.542 335.599C345.497 335.546 345.287 335.834 344.972 336.413C344.527 337.26 344.131 338.132 343.787 339.024Z" fill="#063844"/>
<path d="M360.019 341.403L364.828 343.895C365.651 342.612 366.572 341.394 367.581 340.251C368.383 339.308 369.278 338.449 370.254 337.687L376.195 341.451C374.827 342.381 373.576 343.471 372.467 344.697C371.454 345.78 370.582 346.988 369.874 348.291C369.345 349.311 369.126 350.202 369.218 350.964C369.307 351.725 369.761 352.316 370.575 352.746C371.389 353.177 372.262 353.044 373.144 352.381C374.238 351.505 375.26 350.542 376.201 349.503C377.268 348.311 378.481 347.256 379.809 346.363C380.915 345.622 382.199 345.191 383.528 345.116C384.823 345.051 386.242 345.419 387.784 346.221C389.953 347.346 391.438 348.898 392.24 350.878C393.042 352.858 392.926 355.214 391.892 357.944L395.967 360.062L393.264 365.263L389.059 363.077C388.334 364.088 387.552 365.056 386.715 365.976C386.024 366.748 385.274 367.466 384.473 368.123L378.419 364.354C379.71 363.549 380.888 362.578 381.924 361.464C382.815 360.539 383.579 359.499 384.196 358.372C384.631 357.612 384.85 356.747 384.829 355.871C384.779 355.111 384.366 354.529 383.587 354.125C383.258 353.938 382.884 353.847 382.506 353.861C382.128 353.874 381.761 353.992 381.446 354.202C380.446 354.885 379.529 355.683 378.713 356.578C377.058 358.325 375.578 359.612 374.273 360.439C373.155 361.224 371.836 361.673 370.471 361.734C369.071 361.696 367.701 361.318 366.479 360.632C364.323 359.514 362.853 358.01 362.071 356.121C361.289 354.232 361.352 351.914 362.261 349.167L357.328 346.604L360.019 341.403Z" fill="#063844"/>
<path d="M52.6291 362.386C64.3456 350.67 64.3456 331.674 52.6291 319.957C40.9126 308.241 21.9164 308.241 10.1999 319.957C-1.51656 331.674 -1.51656 350.67 10.1999 362.386C21.9164 374.103 40.9126 374.103 52.6291 362.386Z" fill="#F7F4F2"/>
<path d="M60.0379 332.114C59.8058 332.188 59.7868 332.487 59.8873 332.984C59.9334 333.234 60.0257 333.53 60.1085 333.881L60.3923 335.077C61.5437 340.557 61.0744 346.254 59.0416 351.472C57.0089 356.69 53.5006 361.203 48.9453 364.46C45.9297 366.61 42.5217 368.147 38.9143 368.985C35.568 369.786 32.1235 370.098 28.6878 369.912C25.3132 369.712 22.0009 368.914 18.9052 367.555C18.536 367.382 18.1559 367.219 17.7975 367.034C17.4391 366.85 17.0793 366.653 16.7237 366.465L15.7028 365.857C15.3607 365.656 15.0471 365.427 14.7117 365.206C13.4289 364.318 12.2219 363.325 11.1034 362.238C9.97956 361.124 8.95017 359.918 8.02577 358.634L7.67823 358.139C7.56691 357.979 7.44338 357.81 7.33749 357.636C7.12163 357.29 6.90986 356.937 6.68179 356.592C6.45372 356.247 6.27452 355.867 6.06817 355.498C5.86182 355.128 5.68805 354.74 5.49256 354.357C4.58937 352.473 3.8855 350.5 3.39242 348.47C2.89816 346.412 2.62061 344.308 2.56431 342.192C2.50931 340.069 2.67079 337.947 3.04624 335.856C3.42361 333.774 4.00799 331.734 4.79071 329.768C5.59112 327.737 6.67528 325.83 8.01084 324.104C9.28553 322.462 10.7511 320.977 12.3768 319.681C13.9955 318.391 15.7439 317.274 17.5939 316.346C19.538 315.377 21.5665 314.588 23.654 313.989C27.309 312.906 31.1277 312.482 34.9312 312.739C38.8261 313.005 42.6225 314.081 46.0782 315.898C47.464 316.643 48.7882 317.498 50.0382 318.454C50.3395 318.696 50.6559 318.922 50.9545 319.186C51.2532 319.449 51.5437 319.696 51.8396 319.951L52.68 320.767L52.8863 320.974L53.0927 321.18L53.4945 321.606C54.5615 322.75 55.5281 323.984 56.3834 325.293C57.2431 326.627 57.9922 328.029 58.6234 329.485C59.2017 330.84 59.6171 332.244 59.9769 332.131C60.209 332.059 60.2144 331.761 60.0855 331.257C60.0055 330.952 59.9081 330.651 59.7936 330.357L59.3266 329.195C58.3371 326.894 57.0975 324.709 55.63 322.68C54.1593 320.673 52.4543 318.849 50.5513 317.246C48.6295 315.645 46.5113 314.296 44.2482 313.231C41.9358 312.16 39.4847 311.418 36.9662 311.027C32.6207 310.374 28.5018 310.463 24.5812 311.3C22.6178 311.712 20.7028 312.329 18.8672 313.139C16.9957 313.967 15.2316 315.019 13.6135 316.272C11.8022 317.662 10.07 319.153 8.4249 320.736C6.80783 322.283 5.41137 324.045 4.27484 325.972C4.10378 326.276 3.9368 326.582 3.76982 326.879L3.3259 327.793C3.17385 328.094 3.04353 328.403 2.91728 328.712C2.79103 329.02 2.66206 329.323 2.54259 329.629L2.2195 330.558C2.16655 330.711 2.10953 330.863 2.06201 331.019L1.92626 331.486L1.65475 332.423L1.42804 333.367L1.32079 333.843L1.22847 334.321L1.04248 335.278L0.88908 336.246L0.813055 336.735C0.789977 336.899 0.773686 337.065 0.76011 337.225L0.637933 338.232L0.555121 339.254C0.541546 339.422 0.526612 339.594 0.510321 339.772L0.4886 340.293L0.434297 341.36C0.374653 343.25 0.542845 345.14 0.935236 346.99C1.31618 348.779 1.86855 350.527 2.58467 352.21C3.30064 353.886 4.15905 355.497 5.15045 357.026C6.16623 358.605 7.2917 360.111 8.51856 361.532C9.67642 362.879 10.9368 364.135 12.2885 365.288C13.6342 366.423 15.0683 367.448 16.577 368.355C18.0799 369.258 19.6535 370.038 21.2823 370.687C24.5644 371.981 28.0463 372.695 31.5726 372.797C33.3536 372.831 35.1339 372.703 36.8916 372.414C37.7753 372.283 38.6455 372.075 39.5184 371.862L40.8108 371.487C41.2412 371.355 41.6552 371.186 42.0883 371.046C43.7917 370.415 45.4294 369.619 46.9782 368.67C48.3979 367.794 49.7584 366.825 51.0509 365.77C51.3726 365.495 51.7093 365.237 52.0188 364.949L52.961 364.088L53.8651 363.184C54.1679 362.881 54.4434 362.554 54.734 362.239C55.8678 360.958 56.8846 359.578 57.7722 358.115C58.6429 356.667 59.3621 355.134 59.9185 353.539C60.8316 350.907 61.4255 348.176 61.6874 345.403C61.7322 344.712 61.8028 344.022 61.8096 343.323L61.8286 342.799C61.8367 342.625 61.8381 342.45 61.8408 342.268L61.8258 341.216C61.8231 340.863 61.7892 340.512 61.7729 340.159L61.743 339.626C61.7349 339.45 61.7091 339.272 61.6928 339.096L61.5842 338.026L61.4254 336.952C61.4077 336.782 61.4009 336.61 61.3751 336.44L61.3045 335.932C61.253 335.593 61.2122 335.251 61.1566 334.913C60.8199 333.444 60.3828 332 60.0379 332.114Z" fill="#063844"/>
<path d="M47.9554 357.722C57.0958 348.582 57.0958 333.762 47.9554 324.622C38.8151 315.482 23.9957 315.482 14.8554 324.622C5.71511 333.762 5.71511 348.582 14.8554 357.722C23.9957 366.862 38.8151 366.862 47.9554 357.722Z" fill="#BADFD8"/>
<path d="M40.8089 362.724C43.4243 361.617 45.808 360.029 47.8357 358.04C48.4967 357.377 49.1225 356.68 49.7104 355.951C49.9467 355.671 50.134 355.405 50.3186 355.175C50.5033 354.944 50.6553 354.724 50.8006 354.519C50.9458 354.314 51.0884 354.125 51.2187 353.932L51.6002 353.339L51.7997 353.026L51.9966 352.679C52.1296 352.438 52.2871 352.18 52.4323 351.877L52.6943 351.344L52.8478 351.033L52.9971 350.691L53.3188 349.951L53.6175 349.163C53.9596 348.233 54.2408 347.282 54.4592 346.315C54.527 346 54.6166 345.615 54.675 345.173L54.7714 344.501L54.8379 343.8C54.8922 343.33 54.8977 342.857 54.9235 342.424C54.9492 341.991 54.9343 341.599 54.9465 341.28C54.9547 341.104 54.9506 340.945 54.9452 340.793C54.9377 338.062 54.4941 335.35 53.631 332.759C53.199 331.483 52.6538 330.248 52.002 329.069C51.3788 327.927 50.6445 326.85 49.8095 325.853C47.9321 323.64 45.6541 321.802 43.095 320.433C40.7412 319.144 38.1888 318.258 35.5429 317.809C32.631 317.314 29.6516 317.375 26.7623 317.988C24.3324 318.487 21.992 319.35 19.8211 320.55C18.7518 321.147 17.7286 321.823 16.7598 322.571C15.7928 323.321 14.8876 324.148 14.0528 325.042C10.4109 328.933 8.18734 333.938 7.74153 339.249C7.72117 339.59 7.68858 339.926 7.67501 340.269L7.66144 341.27L7.69945 342.264C7.71031 342.593 7.75511 342.92 7.78226 343.246C7.91889 344.533 8.16183 345.807 8.50856 347.054C8.8647 348.294 9.3107 349.507 9.84304 350.682C10.3954 351.885 11.0399 353.043 11.7708 354.147C12.3038 354.959 12.8836 355.739 13.5071 356.483C14.2147 357.311 14.9737 358.094 15.7796 358.826C16.5927 359.553 17.4545 360.224 18.359 360.833C18.5721 360.986 18.7975 361.117 19.012 361.252C19.2265 361.388 19.4369 361.523 19.65 361.638C20.0777 361.87 20.4768 362.109 20.8718 362.29C21.8591 362.796 22.8856 363.222 23.9413 363.564L24.6717 363.795C24.9133 363.863 25.1577 363.923 25.4034 363.984C25.884 364.12 26.3767 364.2 26.8682 364.308C29.1742 364.724 31.527 364.815 33.8582 364.578C34.9571 364.461 36.0452 364.259 37.1123 363.972C37.9526 363.726 38.4631 363.53 38.4509 363.488C38.4386 363.446 37.9187 363.567 37.0933 363.76C36.0181 364.005 34.9305 364.191 33.8352 364.319C32.2139 364.488 30.5793 364.484 28.9588 364.308C27.5982 364.164 26.2536 363.895 24.9418 363.506C22.1781 362.682 19.587 361.364 17.2947 359.614C15.8607 358.522 14.5627 357.262 13.4284 355.861C12.72 354.999 12.0774 354.084 11.5061 353.125C11.3554 352.86 11.1857 352.598 11.0404 352.314C10.8952 352.03 10.7417 351.744 10.587 351.448L10.1594 350.518C10.0141 350.199 9.89055 349.864 9.75072 349.523C8.48276 346.27 8.07821 342.749 8.35786 339.279C8.43754 338.31 8.57901 337.347 8.78142 336.395C8.93482 335.637 9.10859 335.061 9.2457 334.574C9.49206 333.756 9.79043 332.955 10.139 332.176C10.635 331.058 11.2268 329.985 11.9079 328.968C12.5321 328.023 13.2173 327.119 13.9591 326.263C15.7506 324.187 17.8876 322.436 20.2758 321.089C21.4092 320.454 22.5951 319.918 23.8204 319.486C25.0491 319.043 26.3155 318.713 27.6039 318.499C30.1682 318.064 32.7895 318.089 35.3447 318.575C36.4916 318.79 37.6206 319.092 38.7223 319.476C39.8245 319.865 40.8998 320.326 41.9411 320.857C44.2095 322.051 46.265 323.612 48.0243 325.477C49.3516 326.883 50.5094 328.44 51.4739 330.115C52.3799 331.706 53.1044 333.393 53.6338 335.145C54.0513 336.525 54.3372 337.941 54.4877 339.374C54.5768 340.129 54.6171 340.888 54.6085 341.648C54.5858 342.563 54.5096 343.476 54.3804 344.382C54.3058 344.831 54.2379 345.282 54.1483 345.725C54.0587 346.167 53.9704 346.611 53.8442 347.05C53.4382 348.612 52.8709 350.127 52.1513 351.572C51.5619 352.752 50.8753 353.882 50.0987 354.949C49.8978 355.21 49.7064 355.48 49.4987 355.737L48.8674 356.498L48.1968 357.229C47.9714 357.47 47.7298 357.696 47.4949 357.93C46.5051 358.886 45.4355 359.756 44.2979 360.53C43.1656 361.306 41.9624 361.973 40.7044 362.522L39.917 362.85L39.5356 363.012L39.1839 363.143C38.7468 363.309 38.4454 363.442 38.4414 363.487C38.4373 363.532 38.6654 363.496 39.074 363.376C39.6644 363.192 40.2436 362.974 40.8089 362.724Z" fill="#063844"/>
<path d="M34.4765 354.226L33.4176 350.889C32.4547 351.1 31.4771 351.236 30.4934 351.297C29.696 351.361 28.8941 351.345 28.1 351.247L27.105 346.811C28.155 347.011 29.225 347.085 30.2925 347.031C31.2507 346.999 32.2009 346.846 33.1203 346.574C33.828 346.349 34.3353 346.042 34.6421 345.652C34.9489 345.264 35.0114 344.786 34.8363 344.217C34.6611 343.648 34.2009 343.31 33.495 343.21C32.5945 343.11 31.6874 343.083 30.7826 343.128C29.7495 343.185 28.7134 343.113 27.6982 342.914C26.854 342.748 26.0701 342.357 25.4284 341.784C24.8066 341.222 24.3265 340.406 23.988 339.334C23.511 337.829 23.5418 336.441 24.0803 335.169C24.6188 333.897 25.7483 332.874 27.4688 332.098L26.5742 329.268L30.1866 328.126L31.1098 331.047C31.9029 330.916 32.7029 330.832 33.5059 330.794C34.1748 330.757 34.8456 330.771 35.5123 330.837L36.5563 335.326C35.5986 335.104 34.6159 335.01 33.6335 335.045C32.8032 335.061 31.9788 335.187 31.1817 335.42C30.6355 335.569 30.1403 335.864 29.7495 336.274C29.4246 336.644 29.3476 337.099 29.5187 337.64C29.584 337.875 29.7134 338.088 29.8924 338.255C30.0714 338.421 30.2931 338.535 30.5328 338.583C31.3022 338.728 32.0858 338.783 32.8678 338.746C34.4227 338.704 35.6875 338.793 36.6622 339.011C37.5319 339.163 38.34 339.561 38.9917 340.157C39.6142 340.814 40.0675 341.613 40.3126 342.485C40.7869 343.982 40.7711 345.341 40.2651 346.562C39.7592 347.782 38.6709 348.813 37.0002 349.653L38.0835 353.079L34.4765 354.226Z" fill="#063844"/>
<path d="M410.349 75.3259C385.459 68.6567 359.876 83.4274 353.207 108.317C346.537 133.207 361.308 158.79 386.198 165.46C411.088 172.129 436.671 157.358 443.34 132.468C450.009 107.579 435.239 81.9951 410.349 75.3259Z" fill="#F7F4F2"/>
<path d="M363.817 88.8668C364.098 89.1213 364.515 88.9147 365.106 88.3931C365.407 88.1367 365.734 87.7822 366.143 87.3973L367.533 86.0852C374.018 80.2733 382.055 76.4756 390.663 75.1561C399.271 73.8365 408.077 75.0522 416.006 78.6546C421.246 81.0444 425.966 84.4389 429.899 88.6459C433.58 92.5299 436.678 96.9261 439.1 101.698C441.454 106.398 442.955 111.48 443.532 116.705C443.585 117.337 443.662 117.976 443.692 118.602C443.722 119.229 443.736 119.866 443.76 120.491L443.735 122.339C443.731 122.956 443.665 123.556 443.628 124.18C443.43 126.598 443.032 128.995 442.437 131.347C441.81 133.727 440.987 136.051 439.976 138.295L439.581 139.147C439.452 139.421 439.319 139.72 439.167 139.997C438.869 140.557 438.558 141.117 438.271 141.692C437.984 142.267 437.612 142.804 437.275 143.369C436.938 143.934 436.55 144.47 436.186 145.031C434.351 147.713 432.241 150.195 429.89 152.438C427.503 154.704 424.885 156.713 422.08 158.434C419.264 160.159 416.279 161.592 413.172 162.711C410.074 163.822 406.873 164.621 403.616 165.096C400.259 165.597 396.848 165.62 393.484 165.163C390.281 164.724 387.142 163.904 384.133 162.723C381.137 161.545 378.272 160.06 375.584 158.29C372.768 156.425 370.128 154.306 367.698 151.961C363.397 147.88 359.858 143.067 357.245 137.745C354.576 132.292 353.073 126.343 352.832 120.276C352.759 117.83 352.88 115.382 353.196 112.955C353.287 112.362 353.346 111.759 353.469 111.152C353.591 110.545 353.698 109.962 353.812 109.365L354.257 107.599L354.375 107.16L354.492 106.722L354.754 105.85C355.465 103.523 356.374 101.262 357.473 99.0919C358.601 96.8968 359.907 94.7977 361.377 92.8155C362.752 90.9831 364.32 89.3322 363.888 88.9353C363.611 88.6786 363.204 88.9035 362.626 89.4688C362.277 89.8139 361.948 90.1788 361.641 90.5618L360.439 92.0943C358.11 95.2158 356.132 98.5842 354.54 102.139C352.98 105.68 351.849 109.395 351.17 113.204C350.508 117.037 350.339 120.938 350.664 124.814C351.019 128.762 351.926 132.64 353.357 136.336C355.857 142.696 359.18 148.173 363.355 152.803C365.438 155.126 367.757 157.226 370.275 159.068C372.846 160.945 375.634 162.503 378.58 163.708C381.861 165.066 385.215 166.24 388.626 167.225C391.966 168.2 395.425 168.711 398.905 168.742C399.447 168.736 399.989 168.724 400.519 168.717L402.095 168.605C402.619 168.575 403.137 168.51 403.65 168.441C404.163 168.371 404.671 168.309 405.177 168.232L406.679 167.945C406.927 167.897 407.176 167.855 407.423 167.798L408.158 167.618L409.63 167.255L411.077 166.827L411.802 166.601L412.518 166.353L413.951 165.86L415.374 165.314L416.092 165.036C416.331 164.939 416.566 164.833 416.793 164.726L418.244 164.108L419.686 163.424C419.922 163.312 420.165 163.198 420.417 163.082L421.136 162.706L422.615 161.95C425.207 160.561 427.622 158.864 429.808 156.898C431.921 154.994 433.845 152.891 435.555 150.617C437.256 148.35 438.758 145.941 440.047 143.417C441.384 140.821 442.536 138.135 443.496 135.377C444.411 132.77 445.122 130.096 445.624 127.379C446.106 124.685 446.372 121.956 446.419 119.219C446.467 116.493 446.294 113.767 445.902 111.068C445.092 105.642 443.346 100.398 440.742 95.5694C439.403 93.1444 437.846 90.8464 436.09 88.7037C435.226 87.6158 434.27 86.6054 433.304 85.5955L431.794 84.1463C431.282 83.6691 430.732 83.2434 430.207 82.7689C428.032 80.9654 425.687 79.3785 423.205 78.0305C420.921 76.7997 418.559 75.7207 416.133 74.8003C415.512 74.5812 414.902 74.3284 414.274 74.1353L412.382 73.5357L410.462 73.021C409.819 72.8487 409.164 72.732 408.514 72.5856C405.906 72.0549 403.257 71.7588 400.597 71.7007C397.97 71.6537 395.345 71.8775 392.765 72.3684C388.511 73.1848 384.37 74.5088 380.432 76.3123C379.467 76.7892 378.483 77.2304 377.536 77.7649L376.815 78.1467C376.575 78.2709 376.338 78.4052 376.091 78.543L374.686 79.3812C374.213 79.6593 373.765 79.9784 373.303 80.2748L372.609 80.7288C372.378 80.877 372.158 81.05 371.933 81.2092L370.577 82.1872L369.254 83.2361C369.04 83.3918 368.813 83.535 368.604 83.7017L367.975 84.1916C367.558 84.525 367.129 84.8458 366.717 85.1836C365.001 86.7792 363.395 88.491 363.817 88.8668Z" fill="#063844"/>
<path d="M407.694 85.227C388.277 80.0242 368.319 91.5471 363.116 110.964C357.913 130.381 369.436 150.34 388.853 155.542C408.27 160.745 428.228 149.222 433.431 129.805C438.634 110.388 427.111 90.4297 407.694 85.227Z" fill="#FFD58E"/>
<path d="M420.007 90.9549C416.483 88.2931 412.49 86.3182 408.235 85.1333C406.828 84.7586 405.402 84.4581 403.964 84.2329C403.403 84.1322 402.899 84.0868 402.445 84.0176C401.991 83.9484 401.576 83.9147 401.187 83.8784C400.798 83.8422 400.433 83.7969 400.072 83.7713L398.977 83.7188L398.399 83.6939L397.78 83.698C397.351 83.7067 396.881 83.6952 396.361 83.7349L395.438 83.7969L394.9 83.832L394.323 83.8969L393.077 84.0389L391.784 84.2489C390.266 84.5113 388.766 84.8724 387.294 85.33C386.817 85.4835 386.228 85.6626 385.588 85.927L384.608 86.3197L383.612 86.7759C382.937 87.068 382.296 87.428 381.693 87.73C381.09 88.032 380.573 88.3572 380.134 88.5888C379.89 88.715 379.679 88.844 379.478 88.9696C375.806 91.1031 372.499 93.8094 369.68 96.9863C368.298 98.5603 367.058 100.255 365.978 102.049C364.925 103.776 364.045 105.603 363.351 107.503C361.831 111.752 361.126 116.249 361.273 120.76C361.368 124.932 362.158 129.059 363.611 132.971C365.209 137.278 367.608 141.243 370.68 144.657C373.24 147.542 376.223 150.023 379.527 152.014C381.163 152.989 382.868 153.842 384.63 154.565C386.392 155.284 388.208 155.861 390.062 156.289C398.134 158.169 406.604 157.271 414.103 153.742C414.578 153.505 415.057 153.287 415.528 153.039L416.888 152.278L418.197 151.455C418.631 151.185 419.036 150.87 419.454 150.58C421.081 149.395 422.608 148.077 424.018 146.641C425.411 145.197 426.698 143.653 427.867 142.022C429.058 140.343 430.117 138.574 431.034 136.732C431.713 135.383 432.313 133.995 432.831 132.577C433.396 130.98 433.859 129.349 434.219 127.694C434.566 126.034 434.799 124.352 434.916 122.66C434.957 122.254 434.957 121.849 434.973 121.455C434.989 121.06 435.007 120.672 434.996 120.296C434.976 119.539 434.988 118.816 434.924 118.143C434.839 116.42 434.615 114.706 434.254 113.018L433.997 111.855C433.9 111.477 433.791 111.102 433.682 110.723C433.491 109.97 433.216 109.244 432.98 108.498C431.747 105.069 430.04 101.83 427.909 98.874C426.897 97.485 425.778 96.1774 424.561 94.9634C423.577 94.0227 422.917 93.4872 422.87 93.5364C422.822 93.5856 423.389 94.1919 424.291 95.1536C425.457 96.4113 426.554 97.7309 427.578 99.1067C429.065 101.159 430.331 103.363 431.355 105.682C432.218 107.627 432.902 109.647 433.397 111.716C434.437 116.079 434.676 120.594 434.102 125.042C433.746 127.822 433.059 130.55 432.055 133.166C431.443 134.791 430.711 136.368 429.863 137.883C429.624 138.292 429.403 138.724 429.134 139.141C428.865 139.557 428.598 139.986 428.32 140.425L427.4 141.724C427.083 142.167 426.728 142.595 426.378 143.048C422.983 147.285 418.555 150.568 413.664 152.889C412.297 153.535 410.89 154.094 409.451 154.561C408.31 154.944 407.4 155.158 406.637 155.352C405.345 155.656 404.034 155.877 402.714 156.013C400.822 156.215 398.916 156.252 397.018 156.125C395.259 156.02 393.509 155.8 391.779 155.466C387.59 154.668 383.571 153.151 379.9 150.982C378.163 149.949 376.518 148.769 374.984 147.455C373.432 146.144 372.003 144.696 370.713 143.127C368.133 140.012 366.13 136.461 364.797 132.643C364.195 130.93 363.723 129.176 363.384 127.393C363.051 125.606 362.836 123.799 362.741 121.984C362.585 118.001 363.089 114.019 364.233 110.199C365.094 107.319 366.291 104.549 367.798 101.947C369.235 99.4899 370.944 97.2023 372.892 95.1269C374.425 93.492 376.11 92.006 377.924 90.6888C378.871 89.982 379.862 89.3371 380.892 88.758C382.142 88.077 383.431 87.4697 384.752 86.9392C385.415 86.6903 386.075 86.4313 386.74 86.2078C387.406 85.9844 388.073 85.7581 388.761 85.5871C391.181 84.9194 393.663 84.5051 396.168 84.3509C398.216 84.2265 400.272 84.2728 402.313 84.489C402.82 84.557 403.333 84.6047 403.84 84.6849L405.356 84.9429L406.861 85.2782C407.362 85.3938 407.853 85.544 408.352 85.6777C410.409 86.2675 412.412 87.0317 414.339 87.962C416.264 88.8837 418.098 89.9856 419.816 91.253L420.87 92.058L421.384 92.4461L421.835 92.8173C422.398 93.2772 422.812 93.5796 422.875 93.5503C422.939 93.5209 422.714 93.2412 422.233 92.7848C421.527 92.1325 420.784 91.5215 420.007 90.9549Z" fill="#063844"/>
<path d="M413.462 106.094L409.792 110.115C410.824 111.248 411.767 112.459 412.614 113.736C413.321 114.76 413.922 115.853 414.407 116.999L409.208 121.788C408.661 120.218 407.928 118.72 407.026 117.324C406.238 116.058 405.292 114.898 404.211 113.871C403.358 113.092 402.55 112.648 401.786 112.538C401.025 112.427 400.332 112.714 399.703 113.393C399.073 114.071 398.975 114.953 399.389 115.982C399.955 117.272 400.624 118.515 401.388 119.698C402.268 121.046 402.977 122.497 403.498 124.019C403.93 125.285 404.014 126.645 403.741 127.954C403.468 129.229 402.741 130.511 401.561 131.8C399.905 133.612 398.011 134.65 395.88 134.914C393.749 135.177 391.492 134.452 389.11 132.738L385.993 136.144L381.647 132.166L384.864 128.651C384.07 127.685 383.334 126.674 382.659 125.622C382.089 124.75 381.587 123.835 381.157 122.886L386.391 117.989C386.837 119.451 387.474 120.848 388.286 122.144C388.952 123.25 389.763 124.262 390.697 125.155C391.322 125.774 392.105 126.212 392.96 126.419C393.711 126.569 394.384 126.319 394.979 125.668C395.246 125.397 395.432 125.057 395.517 124.687C395.602 124.316 395.583 123.929 395.461 123.569C395.058 122.42 394.522 121.322 393.865 120.298C392.6 118.236 391.735 116.464 391.271 114.982C390.8 113.692 390.707 112.294 391.003 110.953C391.404 109.604 392.128 108.372 393.111 107.364C394.759 105.561 396.601 104.526 398.639 104.258C400.676 103.99 402.91 104.655 405.341 106.252L409.113 102.128L413.462 106.094Z" fill="#063844"/>
</svg>
