<svg width="165" height="164" viewBox="0 0 165 164" fill="none" xmlns="http://www.w3.org/2000/svg">
<path d="M77.7326 82.1182H74.8431C74.0771 82.1182 73.3425 81.8139 72.8009 81.2723C72.2593 80.7307 71.955 79.9961 71.955 79.2301C71.955 78.4642 72.2593 77.7296 72.8009 77.1879C73.3425 76.6463 74.0771 76.342 74.8431 76.342H77.7326V82.1182Z" fill="white"/>
<path d="M77.7325 82.1239C77.7325 81.939 77.505 81.9669 77.1308 81.9669C76.6715 81.9669 76.2078 81.9581 75.7426 81.9434L75.044 81.917L74.8679 81.9082C74.8107 81.9082 74.7593 81.8979 74.7036 81.8935C74.5957 81.8836 74.4888 81.8654 74.3836 81.8392C73.9743 81.7416 73.5955 81.544 73.2813 81.2641C72.967 80.9842 72.7271 80.6307 72.583 80.2352C72.4498 79.8647 72.4056 79.4679 72.4541 79.0771C72.5025 78.6863 72.6422 78.3124 72.8618 77.9855C73.0728 77.673 73.3494 77.4103 73.6722 77.2157C73.9951 77.021 74.3566 76.8991 74.7314 76.8585C74.8268 76.8423 74.9604 76.8365 75.0866 76.8291L75.4667 76.8071L76.2254 76.7616L76.9811 76.7146L77.1705 76.7044L77.2482 76.6926L77.4082 76.6706L77.4273 76.791L77.4361 76.8585V76.8937V76.97C77.4464 77.1799 77.4581 77.3912 77.4684 77.6025C77.4874 78.0251 77.5065 78.4493 77.5256 78.8792C77.5579 79.7378 77.577 80.6124 77.577 81.5208C77.577 81.8143 77.577 82.121 77.7105 82.121C77.8954 82.121 77.8675 81.895 77.8675 81.5208C77.8675 80.6403 77.8675 79.7774 77.8675 78.9159C77.8675 78.486 77.8822 78.0574 77.8998 77.6289C77.9262 77.1167 77.9512 76.6016 77.9776 76.091L77.8191 76.0821L77.3554 76.0543H77.235H77.1749H77.1338L76.9753 76.0411L76.3442 75.9912C75.926 75.9603 75.5107 75.931 75.0983 75.906C74.9912 75.906 74.8987 75.8914 74.7813 75.8899C74.6639 75.8884 74.5421 75.8899 74.4218 75.8987C74.1817 75.9177 73.9444 75.9634 73.7144 76.0352C73.2499 76.1791 72.8232 76.4247 72.4656 76.7543C72.2009 77.0004 71.991 77.2994 71.8492 77.6319C71.7329 77.9277 71.6535 78.2367 71.613 78.552C71.5448 79.0046 71.5285 79.4635 71.5645 79.9197C71.601 80.3832 71.7628 80.8281 72.0327 81.2067C72.3052 81.5732 72.6601 81.8703 73.0687 82.0741C73.467 82.2728 73.9036 82.383 74.3484 82.3969H74.5098L74.6713 82.3866L74.8298 82.3749L74.9765 82.3558L75.5635 82.2854C75.9509 82.2428 76.3384 82.2105 76.7243 82.2003C76.8623 82.212 76.9988 82.2384 77.1367 82.2502C77.4258 82.256 77.7325 82.2648 77.7325 82.1239Z" fill="white"/>
<path d="M89.8485 87.95V90.8396C89.8477 91.6045 89.5438 92.338 89.0033 92.8794C88.4628 93.4207 87.7298 93.7257 86.9648 93.7277C86.5851 93.7283 86.209 93.654 85.858 93.5091C85.507 93.3643 85.188 93.1516 84.9193 92.8834C84.6505 92.6152 84.4372 92.2966 84.2917 91.9459C84.1461 91.5952 84.0711 91.2193 84.0709 90.8396V87.95H89.8485Z" fill="white"/>
<path d="M89.8529 87.9501C89.668 87.9501 89.6973 88.1776 89.6973 88.5518C89.6973 89.0116 89.689 89.4739 89.6724 89.9386L89.646 90.6386V90.8133C89.646 90.872 89.6342 90.9233 89.6298 90.9776C89.6203 91.0854 89.6027 91.1924 89.577 91.2975C89.4799 91.708 89.2825 92.088 89.0026 92.4035C88.7227 92.719 88.3689 92.9602 87.973 93.1056C87.6021 93.2384 87.2052 93.2824 86.8142 93.234C86.4232 93.1855 86.0491 93.0461 85.7218 92.8267C85.4096 92.6154 85.1472 92.3387 84.9526 92.0159C84.758 91.6931 84.6358 91.3318 84.5947 90.9571C84.58 90.8617 84.5727 90.7281 84.5654 90.6005L84.5434 90.2204C84.5287 89.968 84.5125 89.7155 84.4979 89.4631L84.4524 88.7073L84.4406 88.518C84.4406 88.4799 84.4406 88.4681 84.4289 88.4402L84.4069 88.2788L84.5272 88.2612L84.5947 88.2524H84.6314H84.7077L85.3388 88.2186L86.6155 88.1629C87.474 88.1306 88.3487 88.1101 89.2571 88.1101C89.5579 88.1101 89.8588 88.11 89.8588 87.978C89.8588 87.7916 89.6313 87.8209 89.2571 87.8209C88.3766 87.8209 87.5136 87.8209 86.6522 87.8209C86.2222 87.8209 85.7937 87.8048 85.3652 87.7872L83.8287 87.7109L83.8184 87.8679L83.792 88.3316V88.452V88.5136V88.5547L83.7802 88.7132C83.7626 88.9245 83.7465 89.1344 83.7303 89.3428C83.6981 89.761 83.6702 90.1763 83.6438 90.5902C83.6438 90.6959 83.6291 90.7883 83.6291 90.9072C83.6291 91.0261 83.6291 91.1464 83.6291 91.2653C83.6482 91.5059 83.6939 91.7436 83.7656 91.9741C83.9101 92.4384 84.1557 92.8649 84.4847 93.223C84.7354 93.492 85.0406 93.7046 85.3799 93.8467C85.6763 93.9625 85.9858 94.0419 86.3015 94.0829C86.7536 94.1504 87.2119 94.1667 87.6677 94.1314C88.1316 94.0942 88.5767 93.9325 88.9562 93.6632C89.3222 93.3896 89.6191 93.0343 89.8235 92.6257C90.0221 92.2279 90.1317 91.7918 90.1449 91.3474V91.186L90.1347 91.0246L90.1229 90.8646L90.1038 90.7179C90.0804 90.5242 90.0569 90.3304 90.0349 90.1309C89.9923 89.7434 89.96 89.356 89.9483 88.97C89.96 88.8335 89.9879 88.6956 89.9996 88.5591C89.9864 88.2495 89.9938 87.9501 89.8529 87.9501Z" fill="white"/>
<path d="M83.5191 70.2429V67.3592C83.5191 66.9799 83.5938 66.6044 83.7389 66.254C83.8841 65.9036 84.0968 65.5852 84.365 65.317C84.6332 65.0488 84.9516 64.8361 85.302 64.691C85.6524 64.5458 86.0279 64.4711 86.4072 64.4711C86.7866 64.4709 87.1623 64.5455 87.5128 64.6906C87.8634 64.8356 88.182 65.0483 88.4503 65.3165C88.7186 65.5847 88.9315 65.9032 89.0767 66.2537C89.222 66.6041 89.2967 66.9798 89.2967 67.3592V70.2473L83.5191 70.2429Z" fill="white"/>
<path d="M83.5147 70.2429C83.6996 70.2429 83.6702 70.0155 83.6702 69.6412C83.6702 69.1819 83.6791 68.7196 83.6937 68.2544C83.704 68.0226 83.7128 67.7892 83.7216 67.5544L83.7289 67.3798C83.7289 67.3226 83.7392 67.2697 83.7451 67.2154C83.7539 67.1075 83.7715 67.0005 83.7979 66.8955C83.8947 66.4851 84.0919 66.1051 84.3719 65.7898C84.6519 65.4744 85.0058 65.2336 85.4019 65.089C85.7727 64.9554 86.1697 64.9111 86.5608 64.9595C86.9519 65.008 87.3261 65.1478 87.6531 65.3678C87.9652 65.5788 88.2277 65.8552 88.4223 66.1778C88.6169 66.5004 88.739 66.8615 88.7802 67.236C88.7948 67.3314 88.8007 67.4664 88.808 67.5926L88.8315 67.9727C88.8462 68.2265 88.8609 68.479 88.877 68.7314L88.9225 69.4872L88.9343 69.6765C88.9367 69.7021 88.9406 69.7276 88.946 69.7528L88.968 69.9142L88.8477 69.9333L88.7802 69.9421H88.7435H88.6672L88.0361 69.9744L86.7594 70.0316C85.9009 70.0639 85.0248 70.083 84.1178 70.083C83.8155 70.083 83.5162 70.0756 83.5162 70.2165C83.5162 70.4014 83.7436 70.3721 84.1178 70.3721C84.9984 70.3721 85.8613 70.3721 86.7212 70.3721C87.1527 70.3721 87.5812 70.3867 88.0097 70.4044L89.5462 70.4821L89.5565 70.3236L89.5829 69.8599V69.7396V69.6794V69.6368L89.5961 69.4798C89.6137 69.2685 89.6299 69.0586 89.646 68.8488C89.6783 68.43 89.7067 68.0147 89.7311 67.6029C89.7311 67.4957 89.7473 67.4033 89.7473 67.2859C89.7473 67.1685 89.7473 67.0452 89.7399 66.9263C89.7209 66.6857 89.6751 66.448 89.6034 66.2175C89.4583 65.7535 89.2128 65.3271 88.8844 64.9686C88.6328 64.7008 88.3279 64.4888 87.9892 64.3464C87.6927 64.2301 87.3833 64.1503 87.0676 64.1087C86.6149 64.0409 86.156 64.0252 85.6998 64.0617C85.2364 64.0984 84.7915 64.2602 84.4128 64.5299C84.0471 64.8031 83.7501 65.1578 83.5455 65.5659C83.3472 65.9637 83.2375 66.3998 83.2241 66.8441V67.007L83.2344 67.1685L83.2461 67.327L83.2637 67.4737L83.3342 68.0607C83.3767 68.4481 83.409 68.8356 83.4208 69.2215C83.409 69.3595 83.3811 69.496 83.3694 69.6324C83.3811 69.9436 83.3738 70.2429 83.5147 70.2429Z" fill="white"/>
<path d="M86.9589 89.6715C92.7255 89.6715 97.4003 84.9967 97.4003 79.2301C97.4003 73.4634 92.7255 68.7886 86.9589 68.7886C81.1922 68.7886 76.5175 73.4634 76.5175 79.2301C76.5175 84.9967 81.1922 89.6715 86.9589 89.6715Z" fill="#BBE0D9"/>
<path d="M87.7343 75.6902V82.802H86.2119V81.2539C86.0298 81.7861 85.6989 82.1892 85.2521 82.4795C84.7887 82.7698 84.2591 82.9149 83.6469 82.9149C82.8029 82.9149 82.1244 82.6408 81.6114 82.1086C81.0984 81.5764 80.8502 80.8185 80.8502 79.8186V75.6902H82.3561V79.6574C82.3561 80.3024 82.5216 80.8023 82.8525 81.141C83.1835 81.4958 83.6469 81.657 84.226 81.657C84.8218 81.657 85.3017 81.4635 85.6658 81.0926C86.0298 80.7217 86.2119 80.1573 86.2119 79.4477V75.6902H87.7343Z" fill="#063844"/>
<path d="M92.3183 76.3837C92.8313 76.9158 93.0795 77.6738 93.0795 78.6736V82.8182H91.5736V78.8349C91.5736 78.206 91.4081 77.706 91.0771 77.3513C90.7462 76.9965 90.2828 76.8352 89.7036 76.8352C89.1079 76.8352 88.628 77.0287 88.2639 77.3996C87.8998 77.7705 87.7178 78.3188 87.7178 79.0445V82.8182H86.2119L86.2119 75.6902L87.7178 75.6902V77.2545C87.9164 76.7223 88.2308 76.303 88.6942 76.0128C89.1575 75.7225 89.6871 75.5773 90.2828 75.5773C91.1268 75.5773 91.8053 75.8515 92.3183 76.3837Z" fill="#063844"/>
<path d="M97.4136 79.23C97.3212 79.23 97.2786 79.3269 97.2581 79.503C97.2463 79.5896 97.2463 79.6982 97.2375 79.8229C97.2287 79.9477 97.217 80.0915 97.2067 80.2485C97.0144 82.185 96.2608 84.0232 95.0384 85.5373C93.8159 87.0515 92.1779 88.1757 90.3255 88.7719C89.1025 89.1656 87.8141 89.3152 86.5334 89.2121C85.3445 89.1229 84.1741 88.8665 83.0568 88.4505C81.9615 88.0335 80.9493 87.4248 80.0675 86.6528C79.2415 85.9208 78.5535 85.0464 78.0364 84.0714C77.7834 83.5864 77.5708 83.0813 77.401 82.5613C77.2211 82.0142 77.0919 81.4518 77.015 80.881C76.8122 79.4322 76.9182 77.9568 77.3262 76.5518C77.7359 75.1367 78.4273 73.819 79.3587 72.6776C80.2997 71.5317 81.5298 70.6582 82.9218 70.1476C85.5687 69.2058 88.4631 69.2292 91.0945 70.2136C92.7543 70.8516 94.2045 71.9378 95.2836 73.3511C96.3628 74.7645 97.0285 76.4496 97.2067 78.2189C97.2551 78.7282 97.2448 79.2359 97.3901 79.2374C97.4826 79.2374 97.5193 79.1391 97.5369 78.9585C97.5435 78.8486 97.5435 78.7383 97.5369 78.6284C97.5266 78.4992 97.5149 78.3525 97.5017 78.1881C97.4148 77.3193 97.2332 76.4625 96.9601 75.6331C96.6849 74.8089 96.312 74.0206 95.8492 73.2851C95.3795 72.5491 94.8178 71.8759 94.1777 71.282C93.5226 70.6835 92.7859 70.181 91.9896 69.7895C90.6894 69.1433 89.2847 68.7333 87.841 68.5788C86.4306 68.4242 85.0036 68.5959 83.6703 69.0807C82.9213 69.3547 82.1866 69.6662 81.469 70.014C80.7656 70.3537 80.1131 70.7898 79.5304 71.3098C79.1815 71.6286 78.8595 71.9756 78.5677 72.3474C78.4312 72.5337 78.2888 72.7098 78.167 72.9021L77.9807 73.1853L77.806 73.4788C77.3373 74.2933 76.9444 75.149 76.632 76.0352C76.2088 77.2669 76.0644 78.5771 76.2094 79.8714C76.353 81.1547 76.6899 82.409 77.2088 83.5915C77.4501 84.1627 77.7357 84.7142 78.0629 85.241C78.39 85.7583 78.7576 86.249 79.162 86.7085C79.9676 87.6365 80.926 88.4197 81.9958 89.0243C84.1935 90.2824 86.7916 90.6451 89.2498 90.0369C89.8151 89.8923 90.3705 89.7115 90.9125 89.4954C91.4667 89.2775 92.0013 89.0128 92.5106 88.7044C93.024 88.3969 93.5084 88.0432 93.9576 87.6477C94.3991 87.2565 94.798 86.8197 95.1478 86.3446C96.315 84.7638 97.0773 82.9212 97.3681 80.9779C97.396 80.8619 97.4165 80.7445 97.4356 80.6271C97.4547 80.5097 97.4782 80.3909 97.4958 80.2735C97.5457 79.7539 97.5501 79.2286 97.4136 79.23Z" fill="white"/>
<path d="M87.4372 90.891C87.2523 90.891 87.2817 91.2168 87.2817 91.7524C87.2817 93.0732 87.2465 94.394 87.1966 95.7456C87.1687 96.4162 87.1408 97.0913 87.1129 97.7663L87.1026 98.0187V98.145L87.0924 98.2447C87.0714 98.3754 87.0283 98.5015 86.9647 98.6175C86.8475 98.8404 86.6567 99.0157 86.4246 99.1135C86.3135 99.1611 86.1947 99.1884 86.0739 99.1942C85.9756 99.1942 85.7804 99.1942 85.6146 99.181L84.602 99.1443C83.9289 99.1209 83.2567 99.1027 82.5856 99.09C81.2472 99.0665 79.9191 99.0695 78.6115 99.1209L72.8383 99.3513C72.5521 99.3647 72.2736 99.4479 72.0268 99.5934C71.7859 99.7379 71.5843 99.9395 71.4398 100.18C71.2932 100.422 71.2114 100.698 71.202 100.98V101.086V101.178V101.363C71.202 101.486 71.202 101.61 71.2094 101.735C71.2314 102.727 71.2446 103.738 71.2446 104.774C71.2446 105.205 71.2372 105.635 71.3767 105.635C71.563 105.635 71.5337 105.309 71.5337 104.774C71.5337 104.132 71.5337 103.496 71.5337 102.866C71.5337 102.549 71.5337 102.232 71.5337 101.916V101.089L71.541 100.983C71.5656 100.699 71.6844 100.432 71.8786 100.223C72.0683 100.017 72.3204 99.8787 72.5962 99.8297C72.7392 99.8114 72.8838 99.8075 73.0276 99.8179L73.4972 99.837C73.8113 99.8497 74.1244 99.8659 74.4364 99.8854C76.8769 100.032 79.2176 100.145 81.5525 100.179C82.5504 100.192 83.2563 100.084 84.0472 100.032C84.6186 100.008 85.1909 100.024 85.7598 100.082L85.9668 100.1C86.0576 100.106 86.1489 100.106 86.2397 100.1C86.4257 100.086 86.6083 100.043 86.7812 99.9735C87.1459 99.8298 87.4546 99.5725 87.6618 99.2397C87.8597 98.9167 87.9587 98.5427 87.9465 98.164C87.9318 97.8872 87.9137 97.6108 87.8922 97.3349C87.8511 96.7816 87.7982 96.2269 87.7454 95.6722C87.6412 94.5627 87.5341 93.4504 87.5121 92.3453C87.5238 92.1487 87.5517 91.9535 87.5634 91.7583C87.5708 91.321 87.5781 90.891 87.4372 90.891Z" fill="white"/>
<path d="M41.3102 79.258C41.1253 79.258 41.1532 79.8171 41.1532 80.7372C41.1532 81.8907 41.1449 83.052 41.1282 84.2211C41.1077 85.4685 41.0866 86.7218 41.0651 87.9809L51.6636 88.2304C55.1122 88.2979 58.536 88.3287 61.8805 88.2524L65.3071 88.1687L67.0109 88.1277L67.8635 88.1056L69.061 88.0851L69.0478 87.2515L69.0361 86.7115C69.0288 86.3681 69.02 86.0247 69.0126 85.6842C68.9979 84.9994 68.9833 84.3077 68.9686 83.6092C68.9466 82.281 68.9231 80.9383 68.8996 79.5735L69.9416 79.5603L71.1816 79.55H73.7072C74.441 79.55 75.1865 79.55 75.1865 79.4164C75.1865 79.2315 74.6274 79.2594 73.7072 79.2594H68.5797C68.5797 79.9775 68.5768 80.6942 68.5709 81.4093C68.564 82.0785 68.5572 82.7467 68.5503 83.414C68.5435 84.0812 68.5308 84.7465 68.5122 85.4098L68.4858 86.4092L68.4711 86.9081L68.4623 87.1576V87.2413V87.3058C68.4623 87.3626 68.4579 87.4183 68.4491 87.4731L68.2524 87.4599H68.1526H67.9619L67.2046 87.435L65.6857 87.3689L62.7067 87.2868C60.7329 87.2383 58.7796 87.2031 56.8292 87.1884C55.1166 87.1752 53.903 87.2838 52.5397 87.3352C50.4397 87.4071 48.7344 87.1767 46.7195 87.1972C45.8214 87.206 44.9203 87.2354 44.0163 87.2736L42.6589 87.3381L41.9809 87.3748H41.8957H41.8546H41.84L41.7783 87.3836L41.6316 87.4027L41.6096 87.2559L41.5993 87.1708L41.589 86.983L41.5494 86.2331L41.4746 84.7333C41.4276 83.7339 41.3938 82.736 41.3806 81.7395C41.3983 81.404 41.4154 81.0669 41.432 80.7284C41.4423 79.9961 41.4511 79.258 41.3102 79.258Z" fill="white"/>
<path d="M86.755 70.2371C86.9399 70.2371 86.9106 69.9759 86.9106 69.5444C86.9106 68.1987 86.9282 66.8677 86.959 65.5352C86.9776 64.8709 86.9967 64.2046 87.0162 63.5364C87.028 63.2018 87.0402 62.8672 87.0529 62.5326L87.0617 62.2802V62.2171V62.1701V62.1026L87.0837 61.8517L87.4081 61.8796L88.0376 61.9104L89.3393 61.9779C91.046 62.0703 92.6691 61.8869 94.2834 61.8311C95.8727 61.7754 97.2287 61.8209 98.8885 61.8796C100.877 61.95 102.984 62.016 105.018 61.925C107.202 61.8282 109.003 62.2009 111.236 62.1907C111.954 62.1907 112.683 62.1466 113.414 62.0938L114.513 62.0072L114.788 61.9837L114.924 61.972L115.138 61.9617L116.001 61.9162C115.984 61.5802 115.969 61.2456 115.953 60.9125C115.938 60.6967 115.925 60.4825 115.91 60.2682C115.822 58.7493 115.755 57.3068 115.755 55.7937C115.755 55.4459 115.755 55.1011 115.621 55.1011C115.436 55.1011 115.466 55.3623 115.466 55.7937C115.466 56.7652 115.424 57.7162 115.386 58.6657C115.366 59.1412 115.348 59.6152 115.335 60.0906L115.322 60.8068V61.2368C115.216 61.2368 115.11 61.2368 114.999 61.2485L114.46 61.2735C112.45 61.3835 110.743 61.1663 108.838 61.2955C107.695 61.3733 106.834 61.1297 105.756 61.1032C104.499 61.0724 103.441 61.25 102.139 61.1561C100.393 61.0372 98.8532 61.3351 97.0922 61.2837C93.8226 61.1898 90.8112 60.6967 87.5768 60.9169L87.4756 60.9242H87.4242H87.3332L86.9473 60.9345L86.1841 60.9506C86.19 61.4398 86.1959 61.9358 86.2018 62.4387C86.2076 62.7488 86.213 63.059 86.2179 63.3691C86.2283 63.9886 86.27 64.6072 86.3426 65.2226C86.5082 66.4972 86.6061 67.7796 86.6361 69.0645L86.6039 69.54C86.6215 69.8922 86.6141 70.2371 86.755 70.2371Z" fill="white"/>
<path d="M76.7435 46.7552H18.8805C17.9079 46.7552 17.1195 47.5437 17.1195 48.5163V78.0252C17.1195 78.9978 17.9079 79.7863 18.8805 79.7863H76.7435C77.716 79.7863 78.5045 78.9978 78.5045 78.0252V48.5163C78.5045 47.5437 77.716 46.7552 76.7435 46.7552Z" fill="white"/>
<path d="M78.3622 78.9688C78.5049 78.7271 78.5907 78.4561 78.6131 78.1764C78.6234 78.0296 78.6131 77.9049 78.6219 77.7728V77.3795L78.6351 75.8048C78.642 74.756 78.6498 73.7043 78.6586 72.6497C78.6586 70.6553 78.619 68.7534 78.616 66.7561C78.616 65.7406 78.6366 63.3808 78.6424 62.3623C78.6424 61.407 78.6424 59.7208 78.6424 58.7816C78.6601 56.9472 78.5882 57.0528 78.6043 55.2184C78.6204 53.384 78.6527 51.5247 78.6762 49.6727C78.6762 49.432 78.6762 49.1913 78.6835 48.9507V48.5882C78.6871 48.5241 78.6871 48.46 78.6835 48.3959C78.6819 48.329 78.675 48.2622 78.663 48.1963C78.5996 47.7941 78.4115 47.422 78.1253 47.1323C77.8391 46.8427 77.4692 46.6502 77.0678 46.5821C76.9368 46.5605 76.8043 46.5502 76.6716 46.5513H76.3091H74.8606L69.3868 46.5175C67.4115 46.5043 65.4494 46.4793 63.4697 46.4852L56.3684 46.5351C54.2434 46.5542 52.1698 46.5439 50.0581 46.5175C46.5683 46.4456 43.1211 46.3546 39.6812 46.2607C37.452 46.202 35.2097 46.158 32.9409 46.1139C31.4572 46.089 29.9559 46.0655 28.4517 46.0596H27.4245L24.306 46.0728C22.9573 46.0611 21.5823 46.0963 20.2101 46.1418L19.1829 46.1756L18.9246 46.1844L18.7778 46.1946C18.7213 46.1964 18.6649 46.2018 18.6091 46.2108C18.3863 46.2443 18.1695 46.309 17.9648 46.403C17.6638 46.5436 17.3966 46.7474 17.1816 47.0007C16.9665 47.254 16.8087 47.5507 16.7189 47.8706C16.6622 48.0796 16.6336 48.2953 16.6338 48.5119C16.6338 48.8611 16.6338 49.2119 16.6338 49.5655C16.6235 50.1526 16.6147 50.7396 16.6074 51.3266C16.5941 52.2174 16.6074 53.0876 16.6176 53.9681L16.6484 56.6816C16.6661 58.8256 16.6793 60.9799 16.7145 63.1005C16.7497 65.2211 16.8011 67.3299 16.8451 69.4475C16.8759 71.3993 16.9067 73.3746 16.939 75.3499L16.961 76.9818L16.9728 77.7948V77.9988C16.9728 78.0678 16.9816 78.1455 16.986 78.2174C16.9904 78.2893 17.0065 78.3642 17.0227 78.4346C17.0392 78.5063 17.0603 78.5769 17.0858 78.646C17.1832 78.9228 17.3439 79.1731 17.5551 79.3769C17.7663 79.5808 18.0222 79.7325 18.3023 79.82C18.5767 79.8987 18.8631 79.927 19.1476 79.9036L19.9636 79.8933C21.8039 79.8816 23.6001 79.8845 25.4492 79.9007L30.8673 79.9477C34.7665 79.9755 38.6451 79.9858 42.5385 79.9887C46.5492 79.9887 50.5614 79.8655 54.5721 79.8772C57.155 79.8845 59.7202 79.9535 62.2884 79.9432C65.8809 79.9873 68.9597 79.9022 73.2288 79.9183C75.1043 79.9256 76.7508 79.889 76.7508 79.7877C76.7508 79.6864 75.1556 79.6586 73.2288 79.66C67.7167 79.6674 65.1574 79.4883 59.9946 79.4766L50.3882 79.4487C47.7643 79.4487 45.1565 79.3592 42.5209 79.3621C38.9005 79.3621 38.3193 79.3753 36.9575 79.3416C34.8751 79.2902 33.4178 79.2051 31.5952 79.1948C29.526 79.1816 27.4127 79.1787 25.345 79.1948C23.377 79.211 21.3944 79.2242 19.4133 79.2242H18.9481C18.9207 79.2258 18.8932 79.2258 18.8659 79.2242C18.8237 79.2235 18.7815 79.2205 18.7397 79.2154C18.4872 79.1848 18.2512 79.0741 18.0663 78.8995C17.8814 78.7249 17.7573 78.4956 17.7124 78.2453C17.7057 78.2045 17.7013 78.1634 17.6992 78.1221V78.0589V77.9826V77.6114L17.708 76.8776L17.73 75.4101C17.7623 73.6402 17.7872 71.8484 17.7828 70.0668C17.7828 68.0989 17.8166 66.1691 17.8166 64.2055C17.8166 62.242 17.8269 60.3034 17.774 58.3355C17.7285 56.6185 17.7579 54.8706 17.7168 53.1639C17.6982 52.3979 17.6855 51.6279 17.6786 50.854C17.6786 50.8085 17.6786 50.763 17.6786 50.7161C17.7007 50.0777 17.7168 49.4144 17.7285 48.7452V48.6205C17.7285 48.5808 17.7285 48.528 17.7285 48.5075C17.731 48.4527 17.7379 48.3982 17.7491 48.3446C17.7673 48.2384 17.8025 48.1358 17.8533 48.0408C17.9018 47.9443 17.9646 47.8557 18.0397 47.7781C18.1119 47.6998 18.1961 47.6335 18.2891 47.5815C18.4087 47.5123 18.5401 47.466 18.6766 47.445C18.7105 47.4394 18.7449 47.4359 18.7793 47.4347H18.8938H19.2254L20.5594 47.4494C22.3424 47.4641 22.9735 47.4494 24.6127 47.4186L27.9792 47.3716C28.848 47.3584 29.7094 47.3965 30.6559 47.3716C32.3392 47.3378 33.9946 47.2571 35.6749 47.2175H38.2988L42.3903 47.2513L51.0927 47.3334C53.8912 47.3525 56.7001 47.3202 59.4575 47.285C62.0712 47.2527 64.6966 47.2542 67.3161 47.2292C69.7713 47.2087 72.2485 47.1955 74.7212 47.2072C75.0705 47.2072 75.4212 47.2072 75.7705 47.2072L76.2959 47.197H76.5586C76.6452 47.197 76.7405 47.197 76.7992 47.197C76.9343 47.1983 77.0682 47.2221 77.1955 47.2674C77.3242 47.3096 77.4451 47.3726 77.5535 47.4538C77.7761 47.6161 77.9424 47.8439 78.029 48.1054C78.0481 48.1582 78.0584 48.2154 78.073 48.2712C78.0877 48.327 78.0936 48.3827 78.0936 48.4414V48.5265C78.0936 48.5544 78.0936 48.597 78.0936 48.6322V49.7314C78.0936 50.3184 78.0936 50.9054 78.0936 51.4924C78.0936 54.0738 78.1699 56.5113 78.1567 59.0912C78.1567 60.4736 78.1332 61.8502 78.1567 63.2003C78.1758 64.345 78.3034 65.6951 78.3034 66.8383C78.3034 68.8253 78.3137 70.8006 78.3196 72.7905C78.3196 73.9015 78.3313 74.8979 78.3416 75.89C78.3416 76.3874 78.3504 76.8835 78.3548 77.3927C78.3548 77.5204 78.3548 77.6495 78.3548 77.7787C78.3548 77.9078 78.3548 78.0428 78.3548 78.1617C78.3407 78.4143 78.2662 78.6599 78.1376 78.8778C77.9405 79.2143 77.6384 79.4767 77.2777 79.6248C76.9695 79.7583 76.7215 79.7627 76.7156 79.8082C76.7097 79.8537 76.88 79.9066 77.2087 79.8391C77.4094 79.793 77.5999 79.7104 77.7707 79.5954C78.0148 79.4364 78.2175 79.2216 78.3622 78.9688Z" fill="#063844"/>
<path fill-rule="evenodd" clip-rule="evenodd" d="M68.0251 63.984C68.0251 61.1957 66.6764 58.9944 64.098 58.9944C61.5195 58.9944 59.9449 61.1957 59.9449 63.9546C59.9449 67.2272 61.7925 68.8811 64.4472 68.8811C65.7401 68.8811 66.719 68.5876 67.4586 68.1737V66.0018C66.6314 66.4115 65.718 66.6168 64.795 66.6005C63.7399 66.6005 62.8051 66.2307 62.6847 64.9467H68.0031C68.0031 64.8058 68.0251 64.2393 68.0251 63.984ZM62.6525 62.9567C62.6525 61.7269 63.4024 61.2162 64.0877 61.2162C64.751 61.2162 65.4584 61.7269 65.4584 62.9567H62.6525Z" fill="#635BFF"/>
<path fill-rule="evenodd" clip-rule="evenodd" d="M55.7463 58.9944C54.9527 58.9911 54.1889 59.2957 53.6154 59.8441L53.4687 59.169H51.0766V71.8499L53.7989 71.2761L53.8091 68.1943C54.3533 68.6368 55.0331 68.8787 55.7345 68.8796C57.6804 68.8796 59.4532 67.3138 59.4532 63.8651C59.4444 60.7158 57.6496 58.9944 55.7463 58.9944ZM55.0932 66.4876C54.4519 66.4876 54.0659 66.2601 53.8106 65.9769L53.7989 61.9456C54.0806 61.6301 54.4724 61.4129 55.0917 61.4129C56.0823 61.4129 56.7677 62.5223 56.7677 63.9458C56.7691 65.4031 56.0941 66.4905 55.0932 66.4905V66.4876Z" fill="#635BFF"/>
<path fill-rule="evenodd" clip-rule="evenodd" d="M47.3403 58.356L50.0698 57.769V55.5618L47.3403 56.1386V58.356Z" fill="#635BFF"/>
<path d="M50.0698 59.1822H47.3403V68.6976H50.0698V59.1822Z" fill="#635BFF"/>
<path fill-rule="evenodd" clip-rule="evenodd" d="M44.4139 59.9879L44.2407 59.1823H41.8927V68.6991H44.612V62.2494C45.2533 61.4129 46.3408 61.564 46.6783 61.6844V59.1823C46.3276 59.0531 45.0552 58.8139 44.4139 59.9879Z" fill="#635BFF"/>
<path fill-rule="evenodd" clip-rule="evenodd" d="M38.9768 56.8225L36.3235 57.389L36.3118 66.1002C36.3118 67.7145 37.5195 68.8885 39.1294 68.8885C40.0202 68.8885 40.6732 68.7256 41.0372 68.5304V66.332C40.6894 66.4788 38.9709 66.9748 38.9709 65.365V61.4995H41.0313V59.1823H38.965L38.9768 56.8225Z" fill="#635BFF"/>
<path fill-rule="evenodd" clip-rule="evenodd" d="M31.6246 61.9455C31.6246 61.5214 31.9724 61.3585 32.5491 61.3585C33.49 61.3779 34.4135 61.616 35.2464 62.0541V59.4977C34.388 59.1583 33.4722 58.9874 32.5491 58.9943C30.3478 58.9943 28.8803 60.1478 28.8803 62.0761C28.8803 65.0772 33.0129 64.5988 33.0129 65.8917C33.0129 66.3921 32.5726 66.555 31.9694 66.555C31.0669 66.555 29.9149 66.1852 29.0006 65.6848V68.2735C29.9382 68.6786 30.9481 68.8893 31.9694 68.8928C34.2309 68.8928 35.785 67.7731 35.785 65.8257C35.7689 62.5868 31.6246 63.1636 31.6246 61.9455Z" fill="#635BFF"/>
<path d="M148.103 58.0126H72.8033C72.2043 58.0126 71.6299 57.7747 71.2063 57.3511C70.7828 56.9276 70.5448 56.3531 70.5448 55.7541V31.6867C70.5448 31.0877 70.7828 30.5133 71.2063 30.0897C71.6299 29.6662 72.2043 29.4282 72.8033 29.4282H148.103C148.701 29.4282 149.274 29.6652 149.698 30.0871C150.121 30.5091 150.36 31.0817 150.362 31.6794V55.7541C150.362 56.3531 150.124 56.9276 149.7 57.3511C149.277 57.7747 148.702 58.0126 148.103 58.0126Z" fill="white"/>
<path d="M150.475 55.7366C150.475 51.6642 150.558 47.5801 150.519 43.5092C150.451 36.7439 150.576 36.2801 150.573 32.4073V31.6736C150.573 31.631 150.573 31.5885 150.573 31.5444C150.554 31.1657 150.448 30.7965 150.262 30.4658C150.048 30.0846 149.738 29.7665 149.362 29.5439C148.986 29.3212 148.558 29.2019 148.121 29.1979L143.858 29.1817C142.007 29.1817 138.415 29.2859 136.583 29.2771H135.88C128.102 29.2287 120.072 28.8662 112.902 28.8662C108.763 28.8662 104.7 28.9543 100.591 28.9968L89.1439 29.0907L76.5042 29.1832H73.8392H72.8442C72.7235 29.1846 72.603 29.1924 72.4832 29.2067C71.9966 29.2713 71.54 29.478 71.1703 29.8009C70.8007 30.1238 70.5346 30.5486 70.4052 31.022C70.3418 31.2559 70.3112 31.4974 70.3142 31.7396V32.4044C70.3142 33.2908 70.3107 34.1821 70.3039 35.0782C70.2892 38.5866 70.2736 42.0901 70.2569 45.5886C70.2423 47.4817 70.2349 49.3714 70.2349 51.2577C70.2349 52.2008 70.2349 53.1434 70.2349 54.0856V55.5003C70.2251 55.7576 70.2418 56.0153 70.2848 56.2693C70.3406 56.5334 70.4355 56.7876 70.5666 57.0236C70.6984 57.2595 70.8674 57.4725 71.067 57.6546C71.2639 57.8397 71.49 57.9909 71.7362 58.1022C71.9817 58.2161 72.2438 58.2903 72.5125 58.3223C72.5797 58.3309 72.6473 58.3358 72.715 58.337H72.8148H73.2551H76.083H81.7447C89.5226 58.337 96.5021 58.1081 104.293 58.1183C109.305 58.1257 117.084 58.2108 122.066 58.2005C129.034 58.2446 133.005 58.1125 141.291 58.1286C143.108 58.1286 144.813 58.1286 146.065 58.1051C147.317 58.0817 148.119 58.0494 148.119 57.998C148.119 57.9466 147.347 57.9158 146.107 57.8967C144.867 57.8777 143.159 57.8703 141.292 57.8718C130.599 57.8718 125.634 57.8366 115.611 57.8248L96.9732 57.797C91.8853 57.797 86.8282 57.7089 81.7109 57.7104H74.6668H72.9528C72.8794 57.7104 72.806 57.7104 72.74 57.7104C72.3695 57.695 72.0111 57.5741 71.7069 57.3619C71.4027 57.1498 71.1655 56.8552 71.023 56.5129C70.9467 56.3224 70.8997 56.1216 70.8836 55.9171V55.7703C70.8836 55.7189 70.8836 55.6558 70.8836 55.5986C70.8836 55.4827 70.8836 55.3682 70.8836 55.2537C70.8836 55.0263 70.8909 54.8003 70.8953 54.5787C70.9114 53.6908 70.9261 52.8485 70.9408 52.0223C70.9701 50.3684 70.9936 48.7776 70.9995 47.0092C71.0127 42.997 71.0156 38.8953 70.9995 34.886C70.9995 33.9321 70.9956 32.9763 70.9878 32.0184V31.6618C70.9897 31.5635 70.9986 31.4654 71.0142 31.3683C71.0442 31.1779 71.1046 30.9936 71.1932 30.8224C71.3743 30.477 71.6613 30.1988 72.0121 30.0285C72.1857 29.9418 72.3728 29.8852 72.5653 29.8612C72.6139 29.8531 72.6629 29.8487 72.7121 29.848C72.7605 29.848 72.806 29.848 72.8706 29.848H73.2301H74.6712H77.5535C81.3969 29.848 85.2374 29.8597 89.0383 29.8949C92.4708 29.9272 95.9459 29.9522 99.4019 29.9478L110.774 29.9815C122.012 29.9698 135.249 29.6132 137.128 29.6088C139.809 29.6088 142.478 29.6323 145.102 29.6088L146.828 29.6H147.723C147.87 29.6 148.03 29.6 148.163 29.6C148.303 29.604 148.441 29.6222 148.577 29.6543C148.98 29.7506 149.345 29.9647 149.626 30.2691C149.907 30.5735 150.091 30.9546 150.155 31.3639L150.169 31.4623V31.5606C150.169 31.6266 150.169 31.6927 150.169 31.7646C150.169 31.9113 150.169 32.0478 150.169 32.1872C150.169 36.0409 150.18 39.8624 150.186 43.7308C150.2 48.0438 150.212 51.4514 150.227 55.7351C150.229 56.1339 150.122 56.5257 149.917 56.868C149.731 57.1812 149.47 57.4434 149.158 57.6311C148.928 57.7716 148.674 57.8709 148.41 57.9246C148.313 57.9496 148.232 57.9584 148.176 57.9687C148.121 57.9789 148.088 57.9907 148.084 58.0009C148.08 58.0112 148.15 58.045 148.312 58.0538C148.552 58.0471 148.79 57.9974 149.013 57.907C149.379 57.7583 149.701 57.5171 149.946 57.207C150.285 56.7913 150.471 56.2725 150.475 55.7366Z" fill="#063844"/>
<path d="M95.4207 38.9935C95.415 38.9617 95.399 38.9327 95.3751 38.911C95.3512 38.8892 95.3208 38.8759 95.2886 38.8732L94.1395 38.8512C94.1395 38.8512 93.2223 37.9707 93.1343 37.8679C93.0866 37.8345 93.0317 37.8129 92.974 37.805C92.9163 37.7971 92.8575 37.8031 92.8026 37.8225L92.3389 37.9692C92.2812 37.7825 92.207 37.6013 92.1173 37.4277C91.7974 36.8099 91.3116 36.4782 90.7364 36.4782C90.6954 36.4764 90.6544 36.4804 90.6146 36.4899C90.5925 36.4665 90.5823 36.4445 90.5603 36.4342C90.4379 36.3035 90.2885 36.2012 90.1224 36.1343C89.9564 36.0674 89.7778 36.0375 89.599 36.0468C88.8579 36.0688 88.1183 36.6103 87.5107 37.5612C87.0981 38.2229 86.8134 38.9562 86.6713 39.7229C85.8202 39.9885 85.2244 40.1764 85.2038 40.1764C84.7724 40.3084 84.7635 40.3231 84.7063 40.7281C84.6843 41.0378 83.5573 49.7549 83.5573 49.7549L93.014 51.3897L97.1127 50.3727C97.0995 50.3727 95.4324 39.0713 95.4207 38.9935ZM91.8634 38.1218C91.6433 38.1884 91.3987 38.2656 91.1297 38.3537C91.1325 37.895 91.0581 37.4391 90.9095 37.005C91.4775 37.0946 91.7534 37.7344 91.8634 38.1218ZM90.6336 38.4975C90.1376 38.6516 89.5961 38.8174 89.0546 38.9833C89.1965 38.4131 89.4688 37.8836 89.85 37.4365C89.9982 37.2724 90.1785 37.1406 90.3798 37.0491C90.6043 37.4805 90.6483 38.0881 90.6336 38.4975ZM89.621 36.5413C89.7771 36.5332 89.9316 36.5759 90.0613 36.6631C89.8432 36.7768 89.6485 36.9306 89.4875 37.1166C88.9804 37.7001 88.6406 38.4101 88.5043 39.1711C88.0508 39.3179 87.6091 39.447 87.2114 39.5688C87.477 38.364 88.4837 36.5751 89.621 36.5413Z" fill="#95BF47"/>
<path d="M95.2886 38.8732L94.1396 38.8511C94.1396 38.8511 93.2224 37.9706 93.1343 37.8679C93.1025 37.8341 93.0588 37.8141 93.0125 37.8121V51.3896L97.1112 50.3727C97.1112 50.3727 95.4427 39.0727 95.4324 38.9935C95.424 38.961 95.4056 38.9319 95.3798 38.9103C95.354 38.8887 95.3221 38.8757 95.2886 38.8732Z" fill="#5E8E3E"/>
<path d="M90.7364 40.982L90.2624 42.7621C89.8953 42.6094 89.4986 42.5412 89.1016 42.5626C88.1741 42.6183 88.1741 43.2039 88.1741 43.3477C88.2284 44.1431 90.3167 44.3192 90.4385 46.1859C90.5266 47.6534 89.6651 48.6616 88.406 48.7379C86.9033 48.8157 86.0741 47.9322 86.0741 47.9322L86.3955 46.5733C86.3955 46.5733 87.2349 47.2029 87.8982 47.1603C87.9779 47.1587 88.0564 47.1409 88.129 47.108C88.2016 47.0751 88.2667 47.0277 88.3204 46.9688C88.3741 46.9099 88.4152 46.8407 88.4413 46.7654C88.4674 46.6901 88.4778 46.6102 88.472 46.5307C88.406 45.4917 86.711 45.5578 86.5936 43.8452C86.5055 42.4099 87.4448 40.9615 89.5213 40.8294C90.3285 40.7722 90.7364 40.982 90.7364 40.982Z" fill="white"/>
<path d="M102.657 44.7727C102.182 44.5173 101.939 44.2972 101.939 43.9993C101.939 43.6236 102.281 43.38 102.82 43.38C103.224 43.389 103.622 43.4751 103.994 43.6339L104.424 42.3131C104.424 42.3131 104.026 42.0035 102.855 42.0035C101.22 42.0035 100.083 42.9427 100.083 44.2576C100.083 45.009 100.613 45.5784 101.32 45.9805C101.894 46.3018 102.094 46.5337 102.094 46.8756C102.094 47.2176 101.8 47.517 101.276 47.517C100.738 47.495 100.211 47.3553 99.7322 47.1075L99.2685 48.4283C99.2685 48.4283 99.9538 48.8935 101.113 48.8935C102.792 48.8935 104.009 48.0643 104.009 46.5733C103.988 45.7662 103.386 45.1997 102.657 44.7727Z" fill="black"/>
<path d="M109.352 41.9712C108.524 41.9712 107.871 42.3689 107.375 42.9662L107.353 42.9544L108.071 39.1976H106.204L104.381 48.7658H106.248L106.866 45.4962C107.11 44.2576 107.746 43.4959 108.347 43.4959C108.766 43.4959 108.934 43.7894 108.934 44.1915C108.935 44.4698 108.909 44.7476 108.856 45.0207L108.15 48.7658H110.017L110.739 44.9062C110.816 44.5016 110.861 44.0912 110.871 43.6794C110.885 42.6184 110.335 41.9712 109.352 41.9712Z" fill="black"/>
<path d="M115.119 41.9711C112.865 41.9711 111.374 44.0036 111.374 46.268C111.374 47.7165 112.269 48.8876 113.948 48.8876C116.158 48.8876 117.649 46.9093 117.649 44.5892C117.659 43.2581 116.876 41.9711 115.119 41.9711ZM114.202 47.4626C113.561 47.4626 113.296 46.9211 113.296 46.2357C113.296 45.1645 113.848 43.4181 114.865 43.4181C115.527 43.4181 115.746 43.9934 115.746 44.5452C115.749 45.7001 115.185 47.4685 114.202 47.4685V47.4626Z" fill="black"/>
<path d="M122.444 41.9711C121.185 41.9711 120.467 43.0864 120.467 43.0864H120.445L120.555 42.0812H118.898C118.82 42.7563 118.665 43.7938 118.523 44.5672L117.218 51.4176H119.086L119.604 48.644H119.648C119.986 48.8188 120.363 48.9027 120.743 48.8876C122.944 48.8876 124.378 46.6334 124.378 44.3573C124.378 43.1041 123.814 41.9711 122.444 41.9711ZM120.655 47.4846C120.372 47.4883 120.097 47.3898 119.881 47.2072L120.19 45.4624C120.411 44.2883 121.019 43.5179 121.67 43.5179C122.246 43.5179 122.422 44.0477 122.422 44.5452C122.422 45.7661 121.704 47.4905 120.655 47.4905V47.4846Z" fill="black"/>
<path d="M127.05 39.2929C126.909 39.2923 126.768 39.32 126.637 39.3742C126.506 39.4285 126.388 39.5083 126.288 39.609C126.188 39.7097 126.109 39.8293 126.056 39.9607C126.003 40.0921 125.977 40.2328 125.979 40.3745C125.979 40.9278 126.333 41.3137 126.86 41.3137H126.882C127.026 41.3194 127.17 41.2954 127.304 41.2432C127.439 41.1911 127.561 41.1118 127.664 41.0104C127.766 40.909 127.847 40.7876 127.901 40.6537C127.955 40.5199 127.98 40.3764 127.976 40.2321C127.983 40.1081 127.964 39.9841 127.92 39.8679C127.876 39.7517 127.808 39.646 127.721 39.5576C127.634 39.4691 127.529 39.3999 127.414 39.3543C127.298 39.3087 127.174 39.2878 127.05 39.2929Z" fill="black"/>
<path d="M124.432 48.7599H126.299L127.57 42.1311H125.691L124.432 48.7599Z" fill="black"/>
<path d="M132.332 42.1179H131.027L131.095 41.8082C131.205 41.1669 131.58 40.6049 132.21 40.6049C132.413 40.6056 132.615 40.6388 132.807 40.7032L133.171 39.2357C133.171 39.2357 132.851 39.0698 132.154 39.0698C131.489 39.0528 130.84 39.2723 130.321 39.6891C129.68 40.2306 129.382 41.0099 129.238 41.8097L129.182 42.1193H128.311L128.033 43.5326H128.907L127.909 48.7716H129.775L130.769 43.534H132.062L132.332 42.1179Z" fill="black"/>
<path d="M136.838 42.1311C136.838 42.1311 135.664 45.0808 135.149 46.6951H135.126C135.094 46.1756 134.662 42.1311 134.662 42.1311H132.696L133.823 48.2184C133.836 48.2704 133.839 48.3245 133.832 48.3777C133.824 48.4308 133.806 48.482 133.779 48.5281C133.532 48.9781 133.184 49.3642 132.762 49.6551C132.435 49.8801 132.078 50.0584 131.702 50.1849L132.222 51.7772C132.907 51.5938 133.536 51.2445 134.055 50.7602C134.906 49.9648 135.701 48.7276 136.507 47.0473L138.795 42.1311H136.838Z" fill="black"/>
<path d="M127.223 136.604H41.8885C41.5524 136.604 41.2197 136.538 40.9091 136.41C40.5986 136.281 40.3165 136.093 40.0788 135.856C39.8411 135.618 39.6526 135.336 39.5239 135.026C39.3953 134.715 39.3291 134.382 39.3291 134.046V106.762C39.3291 106.426 39.3953 106.093 39.5239 105.783C39.6525 105.472 39.8411 105.19 40.0787 104.952C40.3164 104.715 40.5985 104.526 40.909 104.398C41.2196 104.269 41.5524 104.203 41.8885 104.203H127.223C127.56 104.203 127.892 104.269 128.203 104.398C128.513 104.526 128.795 104.715 129.033 104.952C129.271 105.19 129.459 105.472 129.588 105.783C129.717 106.093 129.783 106.426 129.783 106.762V134.046C129.783 134.382 129.717 134.715 129.588 135.026C129.459 135.336 129.271 135.618 129.033 135.856C128.795 136.093 128.513 136.281 128.203 136.41C127.892 136.538 127.559 136.604 127.223 136.604Z" fill="white"/>
<path d="M128.667 136.312C129.037 136.077 129.344 135.756 129.564 135.378C129.786 134.998 129.911 134.569 129.928 134.13C129.946 133.291 129.951 132.467 129.956 131.635C129.956 130.059 129.956 128.482 129.956 126.904C129.956 126.101 130.012 124.409 130.012 123.608C130.012 122.855 130.012 121.526 130.012 120.78C130.029 119.33 130.073 119.313 130.089 117.861C130.106 116.41 130.138 114.942 130.161 113.479C130.185 111.96 130.182 110.418 130.189 108.898C130.189 108.173 130.194 107.45 130.202 106.729C130.198 106.304 130.105 105.886 129.928 105.501C129.751 105.115 129.494 104.772 129.175 104.492C128.83 104.186 128.418 103.965 127.972 103.846C127.916 103.832 127.86 103.816 127.804 103.804L127.634 103.774C127.521 103.756 127.407 103.746 127.292 103.742H127.206H126.987H126.694C125.916 103.735 125.137 103.73 124.354 103.733L118.744 103.783C117.065 103.801 115.426 103.792 113.754 103.764C110.997 103.694 108.273 103.603 105.555 103.509C103.794 103.45 102.022 103.405 100.23 103.362C99.0557 103.336 97.8714 103.312 96.6827 103.306H95.8668L90.9917 103.339C89.1001 103.353 87.2158 103.371 85.3491 103.409L76.7978 103.595L72.768 103.67L69.6158 103.694C68.113 103.703 66.622 103.725 65.1252 103.745L58.1676 103.86L55.1578 103.87C54.0586 103.87 52.9565 103.883 51.8646 103.899C48.9795 103.933 46.0806 103.942 43.1681 103.924H41.9941H41.8473L41.6844 103.931C41.5761 103.936 41.4683 103.948 41.3616 103.967C41.2542 103.985 41.1478 104.01 41.0431 104.04C40.9389 104.071 40.8377 104.11 40.7364 104.149C40.3333 104.32 39.9745 104.58 39.6874 104.911C39.4003 105.242 39.1924 105.633 39.0796 106.056C39.0664 106.109 39.0502 106.162 39.04 106.215L39.0135 106.376C38.996 106.485 38.9857 106.594 38.9827 106.704C38.9739 106.913 38.9827 107.097 38.9739 107.291L38.9607 108.456L38.9255 110.785C38.8991 112.252 38.88 113.683 38.8771 115.164C38.8829 116.602 38.8878 118.042 38.8917 119.483C38.8917 121.032 38.9064 122.598 38.9006 124.154C38.9006 125.686 38.8829 127.203 38.8624 128.738C38.8404 129.485 38.8184 130.226 38.7964 130.972C38.767 131.776 38.7391 132.575 38.7098 133.38L38.6966 133.779C38.6966 133.926 38.6848 134.03 38.6966 134.211C38.6998 134.377 38.7155 134.543 38.7435 134.707C38.7765 134.871 38.8206 135.033 38.8756 135.191C38.9887 135.508 39.1517 135.806 39.3584 136.072C39.5662 136.339 39.8136 136.574 40.0922 136.767C40.3768 136.961 40.691 137.106 41.0226 137.199C41.1891 137.245 41.3588 137.28 41.5303 137.301L41.7886 137.319C41.8826 137.319 41.9354 137.319 42.0073 137.319L43.6392 137.345C45.4193 137.367 47.2317 137.375 49.0162 137.375C50.924 137.375 52.7936 137.335 54.6779 137.307C55.3896 137.307 56.0882 137.307 56.8014 137.316L58.1941 137.343C58.8985 137.354 59.5853 137.343 60.2779 137.331L62.422 137.3C64.117 137.284 65.8178 137.269 67.4937 137.235L72.5097 137.103C74.0506 137.065 75.6121 137.037 77.1721 137.011L82.3216 136.918C83.7759 136.907 85.195 136.91 86.6566 136.918L90.9374 136.965C94.0192 136.993 97.0819 137.004 100.159 137.006C103.328 137.006 106.499 136.883 109.672 136.893C111.713 136.893 113.74 136.883 115.769 136.873C118.608 136.917 121.041 136.711 124.415 136.726C125.895 136.726 127.193 136.695 127.203 136.594C127.213 136.493 125.942 136.465 124.415 136.468C120.059 136.468 118.037 136.415 113.957 136.403C112.02 136.403 109.86 136.463 106.365 136.463C104.293 136.463 102.233 136.374 100.151 136.375C97.2888 136.375 96.831 136.39 95.7479 136.356C94.1028 136.305 92.9523 136.22 91.5112 136.21C89.8764 136.196 88.2063 136.193 86.573 136.21C83.4633 136.243 80.3052 136.264 77.2073 136.193C75.8087 136.163 74.394 136.136 72.9852 136.142C71.4311 136.142 69.9034 136.107 68.3537 136.108C66.804 136.11 65.2719 136.097 63.7134 136.149C62.3574 136.195 60.9765 136.166 59.6278 136.207C59.0222 136.225 58.4137 136.238 57.8022 136.245H57.6936C56.684 136.199 55.5995 136.183 54.5443 136.164L52.4781 136.135C50.9518 136.12 49.4271 136.135 47.9097 136.154L43.4132 136.191H42.5327H42.0924C42.0205 136.191 41.9457 136.191 41.8737 136.191L41.6874 136.183C41.6037 136.166 41.5186 136.149 41.4364 136.126C41.223 136.063 41.0198 135.97 40.8333 135.849C40.6449 135.73 40.4773 135.581 40.3373 135.408C40.0462 135.067 39.8733 134.641 39.8442 134.193L39.8354 134.023V133.398C39.8354 133.12 39.8354 132.843 39.8354 132.567C39.8354 132.014 39.8354 131.464 39.8354 130.921C39.8354 130.746 39.8354 130.59 39.8148 130.455C39.8148 127.181 39.8148 123.915 39.8398 120.632C39.8515 118.737 39.8794 116.853 39.9029 114.961C39.9263 113.102 39.9498 111.249 39.9733 109.401L40.0041 107.834L40.0232 107.047V106.85V106.755V106.683C40.031 106.588 40.0448 106.494 40.0643 106.401C40.1104 106.219 40.1815 106.044 40.2756 105.882C40.3732 105.722 40.4939 105.578 40.6337 105.453C40.7704 105.33 40.9266 105.231 41.096 105.16C41.1791 105.122 41.2649 105.091 41.3528 105.066C41.4402 105.045 41.529 105.03 41.6184 105.02L41.7006 105.01H41.8649C41.8943 105.01 41.9413 105.01 41.9794 105.01L42.4578 105.022L43.4161 105.041L45.3415 105.069L49.2055 105.107C51.7604 105.133 54.3257 105.06 56.8366 105.006L59.9331 104.935C61.2538 104.935 62.6421 104.966 63.957 104.916C65.4099 104.862 66.8084 104.739 68.2774 104.711C69.6715 104.684 71.0833 104.711 72.473 104.662C73.7513 104.626 75.1293 104.587 76.4251 104.587L78.575 104.605C79.2647 104.605 79.9192 104.571 80.6046 104.562L83.5132 104.508C85.487 104.542 87.4623 104.579 89.4435 104.593C91.2676 104.606 93.124 104.593 94.9276 104.564L99.0161 104.488L101.925 104.452C102.777 104.452 103.623 104.442 104.486 104.444C105.564 104.444 106.647 104.467 107.714 104.477L114.592 104.561C116.802 104.58 119.021 104.546 121.205 104.513C122.232 104.496 123.273 104.489 124.307 104.482L125.861 104.471H126.639H127.027H127.22L127.395 104.479C127.614 104.493 127.83 104.539 128.036 104.615C128.244 104.689 128.439 104.795 128.615 104.928C128.794 105.059 128.951 105.216 129.083 105.395C129.221 105.571 129.329 105.769 129.401 105.982C129.44 106.085 129.472 106.192 129.497 106.3C129.508 106.356 129.514 106.41 129.524 106.466C129.534 106.521 129.54 106.576 129.541 106.632L129.549 106.799V107.349V108.817C129.542 109.923 129.612 111.03 129.604 112.136C129.595 113.061 129.604 113.99 129.604 114.916C129.604 116.957 129.564 118.985 129.551 121.024C129.551 122.116 129.527 123.203 129.551 124.273C129.57 125.177 129.614 126.138 129.626 127.043C129.626 128.614 129.636 130.171 129.642 131.747C129.642 132.627 129.652 133.407 129.656 134.19C129.644 134.582 129.537 134.965 129.343 135.305C129.149 135.645 128.875 135.933 128.544 136.144C128.279 136.309 127.988 136.432 127.684 136.506L127.502 136.546C127.448 136.559 127.398 136.563 127.355 136.574C127.273 136.59 127.223 136.609 127.22 136.628C127.217 136.647 127.247 136.675 127.313 136.688C127.409 136.708 127.508 136.712 127.606 136.701C127.987 136.663 128.352 136.529 128.667 136.312Z" fill="#063844"/>
<path d="M77.376 115.943H73.7175C73.5965 115.943 73.4794 115.986 73.3874 116.065C73.2954 116.143 73.2345 116.252 73.2156 116.372L71.7363 125.753C71.7294 125.796 71.7317 125.84 71.7432 125.882C71.7547 125.924 71.775 125.963 71.8029 125.996C71.8307 126.029 71.8654 126.056 71.9046 126.075C71.9437 126.093 71.9865 126.103 72.0298 126.104H73.7762C73.8974 126.104 74.0146 126.061 74.1069 125.983C74.1991 125.904 74.2603 125.795 74.2795 125.676L74.6787 123.146C74.697 123.026 74.7575 122.917 74.8493 122.838C74.9411 122.759 75.0581 122.716 75.1791 122.716H76.3385C78.7482 122.716 80.1379 121.542 80.5018 119.239C80.6647 118.228 80.5018 117.433 80.0352 116.876C79.523 116.266 78.5999 115.943 77.376 115.943ZM77.7987 119.37C77.5976 120.682 76.5953 120.682 75.6253 120.682H75.0779L75.4653 118.231C75.4765 118.159 75.5129 118.094 75.5681 118.046C75.6232 117.999 75.6935 117.973 75.7661 117.973H76.0186C76.6789 117.973 77.3026 117.973 77.6328 118.35C77.8119 118.576 77.8662 118.907 77.7987 119.37Z" fill="#253B80"/>
<path d="M88.3119 119.327H86.5597C86.4884 119.329 86.42 119.355 86.3663 119.402C86.3127 119.449 86.2772 119.514 86.2662 119.584L86.1884 120.074L86.0652 119.897C85.6865 119.346 84.8413 119.163 83.996 119.163C82.0603 119.163 80.4079 120.63 80.085 122.685C79.9177 123.712 80.1555 124.692 80.7381 125.376C81.2722 126.006 82.0354 126.267 82.9393 126.267C83.3903 126.272 83.8375 126.185 84.2543 126.013C84.6711 125.841 85.0489 125.586 85.3652 125.265L85.2859 125.75C85.2789 125.794 85.2814 125.839 85.2933 125.881C85.3052 125.924 85.3262 125.963 85.3548 125.997C85.3834 126.03 85.4189 126.057 85.459 126.076C85.499 126.094 85.5426 126.104 85.5868 126.104H87.1658C87.287 126.104 87.4042 126.061 87.4963 125.982C87.5883 125.903 87.6491 125.794 87.6677 125.674L88.6142 119.679C88.6213 119.636 88.6187 119.591 88.6068 119.549C88.5948 119.506 88.5736 119.467 88.5449 119.433C88.5161 119.4 88.4803 119.373 88.4401 119.354C88.3999 119.336 88.3561 119.327 88.3119 119.327ZM85.87 122.736C85.8013 123.208 85.5625 123.639 85.1984 123.947C84.8343 124.255 84.3701 124.419 83.8932 124.409C83.384 124.409 82.9775 124.246 82.7192 123.937C82.5864 123.764 82.4929 123.564 82.4455 123.351C82.3981 123.139 82.3979 122.918 82.4448 122.705C82.5114 122.234 82.7475 121.803 83.1088 121.492C83.4701 121.182 83.9321 121.014 84.4083 121.019C84.6273 121.007 84.8462 121.043 85.0493 121.126C85.2524 121.209 85.4345 121.336 85.5824 121.498C85.7172 121.671 85.8128 121.871 85.8624 122.085C85.9121 122.299 85.9147 122.521 85.87 122.736Z" fill="#253B80"/>
<path d="M97.641 119.327H95.8799C95.7969 119.327 95.7151 119.348 95.6417 119.387C95.5683 119.426 95.5055 119.482 95.4588 119.55L93.0315 123.125L92.0042 119.688C91.9729 119.583 91.9086 119.492 91.8208 119.426C91.733 119.361 91.6265 119.326 91.517 119.326H89.7854C89.7363 119.325 89.6878 119.336 89.6439 119.357C89.5999 119.379 89.5619 119.411 89.5331 119.451C89.5042 119.491 89.4854 119.537 89.4782 119.585C89.4711 119.634 89.4757 119.683 89.4919 119.729L91.4304 125.419L89.6063 127.994C89.5736 128.04 89.554 128.094 89.5499 128.15C89.5457 128.205 89.5571 128.261 89.5828 128.311C89.6084 128.361 89.6474 128.403 89.6953 128.432C89.7433 128.461 89.7983 128.476 89.8543 128.476H91.6154C91.6975 128.476 91.7784 128.456 91.8512 128.418C91.9241 128.38 91.9866 128.325 92.0336 128.257L97.889 119.806C97.9204 119.76 97.9388 119.707 97.9423 119.652C97.9457 119.596 97.9341 119.541 97.9086 119.492C97.8831 119.443 97.8448 119.402 97.7976 119.373C97.7505 119.344 97.6963 119.328 97.641 119.327Z" fill="#253B80"/>
<path d="M103.47 115.943H99.8115C99.6904 115.943 99.5732 115.986 99.4811 116.064C99.389 116.143 99.3282 116.252 99.3096 116.372L97.8245 125.753C97.8177 125.797 97.8204 125.841 97.8324 125.883C97.8444 125.926 97.8654 125.965 97.894 125.998C97.9226 126.031 97.9581 126.058 97.998 126.077C98.0379 126.095 98.0814 126.104 98.1253 126.104H100.004C100.087 126.104 100.168 126.075 100.233 126.021C100.297 125.968 100.34 125.893 100.354 125.811L100.774 123.151C100.793 123.032 100.854 122.923 100.946 122.844C101.038 122.765 101.155 122.721 101.276 122.722H102.434C104.844 122.722 106.233 121.547 106.597 119.245C106.762 118.234 106.605 117.438 106.131 116.882C105.616 116.266 104.694 115.943 103.47 115.943ZM103.891 119.37C103.692 120.682 102.689 120.682 101.719 120.682H101.167L101.555 118.231C101.566 118.159 101.603 118.094 101.658 118.046C101.713 117.999 101.783 117.973 101.856 117.973H102.11C102.769 117.973 103.392 117.973 103.715 118.35C103.907 118.576 103.965 118.907 103.891 119.37Z" fill="#179BD7"/>
<path d="M114.408 119.327H112.654C112.583 119.329 112.514 119.355 112.46 119.402C112.407 119.449 112.371 119.514 112.36 119.584L112.283 120.074L112.159 119.897C111.781 119.346 110.935 119.163 110.092 119.163C108.156 119.163 106.502 120.63 106.181 122.685C106.013 123.712 106.251 124.692 106.832 125.376C107.368 126.006 108.131 126.267 109.033 126.267C109.484 126.272 109.931 126.185 110.348 126.013C110.764 125.841 111.142 125.586 111.458 125.265L111.38 125.75C111.373 125.794 111.376 125.839 111.388 125.881C111.4 125.924 111.421 125.964 111.449 125.997C111.478 126.031 111.514 126.058 111.554 126.076C111.594 126.095 111.638 126.104 111.682 126.104H113.258C113.38 126.104 113.497 126.061 113.589 125.982C113.681 125.903 113.742 125.794 113.76 125.674L114.701 119.679C114.708 119.636 114.705 119.593 114.694 119.551C114.682 119.509 114.662 119.47 114.634 119.437C114.606 119.404 114.572 119.377 114.533 119.358C114.494 119.339 114.451 119.328 114.408 119.327ZM111.966 122.736C111.898 123.209 111.659 123.64 111.295 123.948C110.931 124.256 110.466 124.42 109.989 124.409C109.481 124.409 109.075 124.246 108.815 123.937C108.682 123.764 108.588 123.564 108.54 123.352C108.493 123.139 108.492 122.918 108.539 122.705C108.606 122.234 108.842 121.803 109.204 121.493C109.565 121.183 110.026 121.014 110.502 121.019C110.721 121.007 110.94 121.043 111.143 121.126C111.347 121.209 111.529 121.336 111.676 121.498C111.812 121.671 111.907 121.871 111.957 122.085C112.006 122.299 112.008 122.521 111.963 122.736H111.966Z" fill="#179BD7"/>
<path d="M116.469 116.2L114.968 125.753C114.961 125.796 114.964 125.84 114.976 125.882C114.987 125.923 115.008 125.962 115.035 125.995C115.063 126.029 115.098 126.055 115.137 126.074C115.176 126.093 115.218 126.103 115.262 126.104H116.772C116.893 126.105 117.01 126.062 117.102 125.983C117.194 125.904 117.255 125.795 117.274 125.676L118.754 116.295C118.761 116.252 118.759 116.209 118.747 116.167C118.735 116.125 118.715 116.086 118.687 116.053C118.66 116.019 118.625 115.992 118.586 115.973C118.547 115.955 118.504 115.944 118.461 115.943H116.77C116.698 115.943 116.628 115.969 116.572 116.016C116.517 116.063 116.481 116.128 116.469 116.2Z" fill="#179BD7"/>
<path d="M56.543 127.928L56.8233 126.151L56.1996 126.137H53.2249L55.2927 113.024C55.2988 112.984 55.3191 112.948 55.3499 112.921C55.3805 112.895 55.4195 112.881 55.46 112.88H60.4774C62.143 112.88 63.2936 113.227 63.8938 113.908C64.1593 114.199 64.3475 114.552 64.4412 114.935C64.5324 115.402 64.5324 115.882 64.4412 116.35V116.391V116.753L64.7215 116.912C64.9369 117.023 65.1303 117.172 65.2923 117.352C65.5422 117.647 65.7026 118.007 65.7546 118.389C65.8187 118.892 65.7954 119.402 65.6856 119.897C65.5791 120.495 65.3706 121.071 65.0693 121.599C64.8216 122.019 64.4893 122.384 64.0934 122.669C63.6928 122.944 63.2451 123.143 62.7726 123.256C62.2349 123.388 61.6826 123.451 61.129 123.445H60.7386C60.459 123.446 60.1886 123.546 59.9755 123.727C59.7625 123.909 59.6214 124.16 59.5778 124.437L59.547 124.597L59.0539 127.729L59.0304 127.843C59.0292 127.869 59.0182 127.893 58.9996 127.911C58.9853 127.923 58.9671 127.93 58.9482 127.93L56.543 127.928Z" fill="#253B80"/>
<path d="M64.9858 116.435C64.9711 116.53 64.9535 116.628 64.9345 116.728C64.2726 120.126 62.0097 121.3 59.1172 121.3H57.6497C57.4792 121.299 57.3142 121.36 57.1847 121.471C57.0552 121.582 56.9698 121.736 56.9438 121.904L56.1895 126.685L55.9767 128.04C55.9675 128.094 55.9702 128.149 55.9847 128.202C55.9991 128.255 56.0249 128.304 56.0602 128.346C56.0956 128.388 56.1396 128.422 56.1893 128.445C56.239 128.468 56.2932 128.48 56.348 128.48H58.9587C59.1082 128.48 59.2528 128.426 59.3665 128.329C59.4803 128.232 59.5558 128.098 59.5795 127.95L59.6059 127.817L60.0975 124.697L60.1283 124.527C60.1514 124.379 60.2267 124.244 60.3405 124.146C60.4543 124.049 60.5992 123.995 60.7491 123.995H61.1365C63.6665 123.995 65.6462 122.968 66.2244 119.996C66.4666 118.755 66.3418 117.719 65.702 116.989C65.4991 116.762 65.2564 116.574 64.9858 116.435Z" fill="#179BD7"/>
<path d="M64.2931 116.157C64.1953 116.128 64.0911 116.102 63.9805 116.078C63.8734 116.055 63.7634 116.034 63.6504 116.015C63.2211 115.949 62.7873 115.918 62.3531 115.921H58.4201C58.2705 115.921 58.1258 115.974 58.012 116.071C57.8982 116.169 57.8228 116.303 57.7994 116.451L56.9629 121.75L56.9394 121.897C56.9654 121.728 57.0508 121.575 57.1803 121.464C57.3098 121.353 57.4748 121.292 57.6453 121.292H59.1128C62.0053 121.292 64.2682 120.118 64.93 116.721C64.9491 116.621 64.9667 116.523 64.9814 116.427C64.8068 116.335 64.6247 116.258 64.4369 116.197L64.2931 116.157Z" fill="#222D65"/>
<path d="M57.7992 116.451C57.8226 116.303 57.898 116.169 58.0118 116.071C58.1256 115.974 58.2703 115.921 58.4199 115.921H62.3529C62.7872 115.918 63.221 115.95 63.6502 116.016C63.7627 116.034 63.8728 116.055 63.9804 116.078C64.0875 116.103 64.1917 116.129 64.293 116.159L64.4397 116.204C64.627 116.265 64.8086 116.342 64.9827 116.435C65.1793 115.179 64.9827 114.324 64.3032 113.55C63.5548 112.698 62.2032 112.333 60.4759 112.333H55.4614C55.2903 112.333 55.1248 112.394 54.9948 112.505C54.8648 112.616 54.7789 112.77 54.7526 112.939L52.6628 126.186C52.6531 126.248 52.6568 126.311 52.6736 126.371C52.6904 126.43 52.72 126.486 52.7602 126.533C52.8005 126.581 52.8506 126.619 52.907 126.645C52.9634 126.671 53.0248 126.685 53.087 126.685H56.1849L56.9627 121.75L57.7992 116.451Z" fill="#253B80"/>
</svg>
