<svg width="165" height="164" viewBox="0 0 165 164" fill="none" xmlns="http://www.w3.org/2000/svg">
<path d="M145.651 67.3362L58.3648 75.5104C57.2589 75.6139 56.4463 76.5944 56.5499 77.7003L61.5211 130.784C61.6246 131.89 62.6051 132.703 63.711 132.599L150.998 124.425C152.104 124.321 152.916 123.341 152.813 122.235L147.841 69.1511C147.738 68.0452 146.757 67.2326 145.651 67.3362Z" fill="#BADFD8"/>
<path d="M151.033 124.297C151.013 124.092 149.283 124.284 146.43 124.549C122.937 126.727 100.08 128.716 76.2979 130.705C73.476 130.94 70.6868 131.189 67.9303 131.454L65.8645 131.651L64.8375 131.751L64.5799 131.778L64.4519 131.789C64.4087 131.789 64.3854 131.789 64.3505 131.789C64.224 131.796 64.0972 131.786 63.9733 131.76C63.7248 131.705 63.4945 131.588 63.3043 131.421C63.1141 131.253 62.9703 131.04 62.8864 130.802C62.8631 130.745 62.8532 130.682 62.8349 130.621L62.8199 130.527V130.48V130.419L62.7684 129.914L62.6637 128.905C62.1053 123.537 61.5552 118.243 61.0018 112.964C59.9548 102.567 59.1737 93.693 58.2049 82.8204C58.1317 82.0077 58.0592 81.1912 57.9872 80.3708L57.8775 79.1402L57.8226 78.5233L57.811 78.3703V78.2486C57.811 78.2075 57.811 78.1663 57.811 78.1268C57.8118 78.0859 57.8168 78.0451 57.826 78.0051C57.876 77.6826 58.0284 77.3843 58.2612 77.1533C58.4939 76.9223 58.7949 76.7706 59.1206 76.7203L59.2469 76.7038L59.4047 76.6907L59.7188 76.6627L60.3487 76.6068L61.6084 76.4965L71.7759 75.5917C78.5896 74.9764 85.4267 74.3348 92.1457 73.6603C106.573 72.2126 118.517 71.5217 133.288 70.143C136.344 69.8568 139.424 69.5541 142.526 69.2349L144.853 68.9964L145.434 68.9355L145.727 68.9059L145.8 68.8977H145.848C145.881 68.8977 145.913 68.8977 145.946 68.8977C146.21 68.8973 146.468 68.9746 146.687 69.1198C146.908 69.2675 147.082 69.4755 147.186 69.7186C147.238 69.8433 147.272 69.9745 147.287 70.1085L147.349 70.6859C147.432 71.4537 147.516 72.2247 147.6 72.999C148.264 79.1682 148.956 85.3473 149.594 91.4326C150.634 101.363 151.603 110.796 152.541 120.698C152.567 120.982 152.595 121.267 152.62 121.547C152.635 121.687 152.647 121.825 152.66 121.963L152.68 122.165C152.68 122.228 152.68 122.29 152.68 122.351C152.672 122.805 152.494 123.241 152.182 123.573C151.961 123.812 151.688 123.997 151.384 124.113C151.161 124.199 151.022 124.228 151.027 124.278C151.032 124.327 151.056 124.322 151.115 124.334C151.197 124.349 151.282 124.349 151.364 124.334C151.688 124.285 151.991 124.148 152.24 123.937C152.646 123.603 152.911 123.13 152.981 122.611C153.002 122.456 153.005 122.298 152.993 122.142C152.978 121.993 152.963 121.838 152.948 121.678L152.853 120.673C151.41 105.444 150.305 90.9292 148.712 75.6279C148.545 73.9828 148.382 72.3684 148.221 70.7846C148.203 70.5856 148.183 70.3882 148.163 70.1908C148.15 69.9751 148.113 69.7615 148.052 69.5541C147.915 69.1276 147.652 68.7517 147.297 68.4749C146.854 68.1324 146.298 67.9653 145.737 68.006C145.63 68.006 145.539 68.0241 145.439 68.0323L144.853 68.0866L135.647 68.9092C129.586 69.4439 123.614 69.972 117.325 70.6284C109.777 71.4164 104.058 71.6714 96.9502 72.3015C88.6308 73.0385 81.6608 73.8808 73.0339 74.58C70.1439 74.8136 67.3436 75.0735 64.5849 75.3367L60.485 75.7398L59.4629 75.8434L59.207 75.8697H59.1438L59.0674 75.8812L58.9162 75.9043C58.7147 75.9451 58.5193 76.0109 58.3345 76.1001C57.9655 76.2777 57.6492 76.5468 57.4162 76.8811C57.1832 77.2155 57.0416 77.6038 57.005 78.0084C56.9983 78.1086 56.9983 78.2092 57.005 78.3095L57.0133 78.4575L57.0266 78.5842L57.0798 79.0892L57.1878 80.0994L57.4022 82.1229C57.5418 83.4768 57.6847 84.834 57.8276 86.2044C58.1085 88.9468 58.381 91.7353 58.6403 94.6159C59.5992 105.321 60.4052 115.614 61.2544 125.873L61.5752 129.72L61.6151 130.202L61.635 130.442L61.645 130.562C61.645 130.6 61.6583 130.664 61.6649 130.713C61.7213 131.143 61.8859 131.551 62.1435 131.901C62.4001 132.254 62.7406 132.539 63.1348 132.73C63.5291 132.921 63.9649 133.014 64.4037 132.998L64.5699 132.99L64.6912 132.98L64.9339 132.961L65.4208 132.919L66.3947 132.836L68.3424 132.671L72.2445 132.329C77.4596 131.863 82.7145 131.365 88.0525 130.805C97.6682 129.802 108.078 128.943 117.967 127.81C126.347 126.849 134.462 125.984 143.34 125.122L146.481 124.867C148.76 124.658 151.048 124.455 151.033 124.297Z" fill="#063844"/>
<path d="M31.6398 46.9879L27.1567 111.75C27.0799 112.858 27.916 113.819 29.0241 113.895L134.99 121.231C136.099 121.308 137.059 120.472 137.136 119.363L141.619 54.6013C141.696 53.4932 140.859 52.5327 139.751 52.456L33.7851 45.1205C32.677 45.0438 31.7165 45.8799 31.6398 46.9879Z" fill="#BADFD8"/>
<path d="M135.065 121.924C135.08 121.712 132.955 121.599 129.465 121.357C100.719 119.367 72.7736 117.298 43.7146 115.063C40.2643 114.797 36.8523 114.552 33.4784 114.327L28.4749 113.99C28.1657 113.948 27.8776 113.809 27.6512 113.594C27.4248 113.379 27.2716 113.099 27.2131 112.792C27.2008 112.718 27.1941 112.643 27.1929 112.568C27.1929 112.489 27.1929 112.42 27.2013 112.306L27.2401 111.682C27.2653 111.266 27.2923 110.85 27.3175 110.434C27.7286 103.79 28.1329 97.2374 28.5356 90.7048C29.3611 77.8417 30.1731 66.8821 31.1704 53.4564C31.3187 51.4461 31.4686 49.4247 31.6202 47.392C31.6202 47.323 31.632 47.2809 31.6388 47.2236C31.6434 47.174 31.6524 47.125 31.6657 47.077C31.6746 47.0274 31.6887 46.9788 31.7078 46.9322C31.7215 46.8846 31.7396 46.8383 31.7617 46.794C31.8848 46.5187 32.0844 46.2844 32.3367 46.1193C32.5891 45.9541 32.8837 45.865 33.1853 45.8625H33.342L33.534 45.8776L33.9181 45.9046L34.688 45.9619L36.2295 46.0747L48.6608 46.9743C56.9898 47.5672 65.3661 48.14 73.5941 48.6588C91.268 49.7706 105.803 51.2075 123.882 52.4456C127.621 52.7017 131.392 52.9454 135.194 53.1767L138.047 53.3452L139.474 53.4311L139.826 53.453L139.945 53.4648L140.063 53.4884C140.299 53.5482 140.514 53.6692 140.688 53.839C140.861 54.0087 140.987 54.2213 141.052 54.4553C141.074 54.5334 141.089 54.6135 141.096 54.6945C141.099 54.7354 141.099 54.7765 141.096 54.8175C141.096 54.8579 141.096 54.8933 141.096 54.9606L141.054 55.6766L140.885 58.5403C140.444 66.1813 140.016 73.8358 139.558 81.3674C138.808 93.6645 138.077 105.333 137.23 117.573C137.181 118.277 137.132 118.98 137.088 119.637C137.075 119.805 137.069 119.974 137.051 120.113C137.036 120.255 137.003 120.394 136.955 120.528C136.87 120.779 136.731 121.009 136.549 121.202C136.276 121.49 135.924 121.692 135.538 121.784C135.255 121.852 135.08 121.855 135.076 121.901C135.073 121.946 135.107 121.951 135.173 121.971C135.214 121.984 135.256 121.994 135.299 122C135.348 122 135.407 122 135.467 122C135.867 121.984 136.252 121.841 136.566 121.592C136.796 121.414 136.987 121.19 137.128 120.935C137.209 120.789 137.273 120.634 137.319 120.474C137.336 120.388 137.363 120.305 137.373 120.214C137.383 120.123 137.396 120.031 137.4 119.947C137.447 119.258 137.501 118.471 137.568 117.598C138.872 98.7753 140.383 80.8755 141.547 61.9464C141.677 59.9126 141.805 57.9148 141.931 55.9528C141.947 55.7086 141.963 55.4626 141.98 55.2184C142.01 54.9551 142.006 54.6891 141.97 54.4266C141.903 54.0203 141.726 53.64 141.459 53.3264C141.192 53.0128 140.844 52.7776 140.454 52.6461C140.325 52.6022 140.193 52.5706 140.058 52.5518C139.992 52.5433 139.92 52.5332 139.859 52.5282L139.679 52.5164L138.242 52.417L126.982 51.6051C119.569 51.0643 112.269 50.532 104.56 50.0738C95.3079 49.5213 88.3603 48.7599 79.669 48.1282C69.4952 47.3887 60.9236 46.9928 50.3926 46.1623C46.8632 45.8827 43.4366 45.6418 40.0605 45.4194L35.025 45.0994L33.7631 45.0185L33.4498 45H33.3723H33.278C33.2156 45 33.1533 45 33.0893 45C32.8391 45.0144 32.5926 45.0666 32.3581 45.155C31.9472 45.3091 31.5865 45.5732 31.3155 45.9184C31.0446 46.2636 30.8737 46.6767 30.8217 47.1124C30.8217 47.1714 30.8065 47.2421 30.8048 47.291L30.7947 47.4476C30.3938 54.11 30.0029 60.7874 29.4807 67.9046C28.5103 81.1265 27.4591 93.8161 26.4617 106.48L26.0827 111.221L26.0372 111.814L26.0136 112.113L26.0018 112.262V112.338V112.437C25.9822 112.971 26.1218 113.499 26.4028 113.953C26.5399 114.179 26.7103 114.384 26.9082 114.559C27.1088 114.739 27.3361 114.885 27.582 114.994C27.8253 115.107 28.0844 115.181 28.3503 115.215L28.4497 115.227L28.5389 115.237L28.6872 115.247L28.9837 115.27L38.5156 115.979C44.8905 116.441 51.3192 116.874 57.8676 117.263C69.6603 117.964 82.3729 118.948 94.5026 119.573C104.791 120.096 114.742 120.671 125.614 121.383L129.448 121.687C132.256 121.884 135.053 122.086 135.065 121.924Z" fill="#063844"/>
<path d="M123.078 34.8202L16.9361 38.8978C15.8262 38.9404 14.961 39.8747 15.0037 40.9847L17.4957 105.854C17.5383 106.964 18.4727 107.829 19.5826 107.787L125.724 103.709C126.834 103.666 127.699 102.732 127.657 101.622L125.165 36.7527C125.122 35.6428 124.188 34.7776 123.078 34.8202Z" fill="white"/>
<path d="M125.888 104.213C125.888 104.001 123.753 104.115 120.249 104.25C91.402 105.353 63.343 106.294 34.1582 107.19C30.6924 107.296 27.2672 107.418 23.8824 107.556L18.8661 107.755C18.5533 107.747 18.2511 107.641 18.0022 107.452C17.7533 107.264 17.5701 107.003 17.4787 106.705C17.4553 106.632 17.4378 106.557 17.4264 106.481C17.4264 106.402 17.4095 106.335 17.4061 106.219L17.3774 105.597L17.3217 104.354C17.0145 97.7313 16.7124 91.2012 16.4103 84.6912C15.8482 71.8692 15.4769 60.9325 15.0262 47.5335C14.9587 45.5296 14.8901 43.51 14.8203 41.4747C14.8203 41.406 14.8203 41.3624 14.8203 41.307C14.8236 41.2071 14.8361 41.1078 14.8574 41.0101C14.8668 40.9615 14.8803 40.9138 14.8979 40.8675C14.991 40.5819 15.1648 40.3288 15.3985 40.1385C15.6322 39.9481 15.916 39.8286 16.2162 39.794L16.3714 39.7823H16.5639L16.9504 39.7688L17.7234 39.742L19.2712 39.69L31.7513 39.2505C40.1112 38.9469 48.5151 38.6181 56.7688 38.2441C74.4913 37.454 89.1268 37.3215 107.268 36.6153C111.021 36.4688 114.803 36.3067 118.615 36.1289L121.475 35.9947L122.906 35.9276L123.259 35.9108H123.379L123.498 35.9226C123.74 35.9556 123.968 36.0517 124.159 36.2011C124.351 36.3506 124.499 36.5479 124.589 36.773C124.619 36.8478 124.641 36.9254 124.656 37.0045C124.667 37.0438 124.674 37.0844 124.675 37.1253C124.675 37.1672 124.685 37.2007 124.688 37.2695L124.722 37.9824C124.771 38.9341 124.818 39.8846 124.866 40.834C125.249 48.446 125.645 56.0698 126 63.5761C126.577 75.8211 127.104 87.4606 127.578 99.6686L127.657 101.727C127.657 101.895 127.678 102.062 127.673 102.202C127.673 102.343 127.656 102.485 127.624 102.623C127.563 102.878 127.448 103.118 127.286 103.325C127.043 103.641 126.713 103.879 126.336 104.011C126.061 104.109 125.885 104.131 125.888 104.179C125.892 104.228 125.922 104.224 125.991 104.238C126.034 104.246 126.077 104.251 126.12 104.253C126.17 104.253 126.229 104.253 126.289 104.241C126.687 104.187 127.057 104.008 127.345 103.73C127.556 103.529 127.722 103.288 127.835 103.02C127.899 102.866 127.946 102.706 127.975 102.542C127.988 102.455 127.996 102.367 128 102.279C128 102.19 128 102.096 128 102.012C127.973 101.324 127.943 100.539 127.909 99.6636C127.181 80.8902 126.759 63.0159 125.883 44.1418C125.796 42.1138 125.715 40.1261 125.622 38.1669L125.591 37.4339C125.592 37.1704 125.559 36.9079 125.495 36.6522C125.384 36.257 125.166 35.8993 124.866 35.6174C124.566 35.3356 124.194 35.1401 123.79 35.052C123.658 35.0221 123.523 35.0047 123.387 35C123.32 35 123.247 35 123.186 35H123.006L121.562 35.0537L110.254 35.4546C102.814 35.7112 95.4816 35.9679 87.7546 36.3369C78.4713 36.7797 71.4768 36.7697 62.7506 37.0733C52.5373 37.4289 43.9562 37.9556 33.3817 38.2592C29.8372 38.3598 26.3974 38.4873 23.0098 38.6282L17.9597 38.8496L16.704 38.9083L16.39 38.9218H16.3124H16.2179C16.1571 38.9218 16.093 38.9301 16.0322 38.9419C15.7836 38.9829 15.5428 39.0615 15.3182 39.175C14.9836 39.3453 14.6933 39.5905 14.4701 39.8911C14.2469 40.1918 14.097 40.5398 14.0321 40.9078C14.0121 41.0298 14.0014 41.1532 14 41.2768C14 41.3355 14 41.406 14 41.4546V41.6106C14.319 48.2498 14.6481 54.9023 14.8929 62.0044C15.3554 75.2139 15.676 87.8967 16.0423 100.543L16.1824 105.281L16.1993 105.873L16.2094 106.17V106.318V106.393V106.492C16.2364 106.891 16.3525 107.278 16.5493 107.627C16.7461 107.975 17.0187 108.275 17.347 108.505C17.5651 108.66 17.8059 108.781 18.061 108.862C18.3149 108.949 18.5809 108.995 18.8492 109H19.0383H19.1885H19.4872L29.0574 108.683C35.4578 108.457 41.9088 108.198 48.4679 107.883C60.2829 107.316 73.0583 106.937 85.2076 106.251C95.512 105.67 105.486 105.174 116.391 104.718L120.244 104.607C123.087 104.473 125.895 104.374 125.888 104.213Z" fill="#063844"/>
<path d="M49.1826 57.047L32.6881 57.6807C31.5782 57.7233 30.713 58.6576 30.7556 59.7676L31.1806 70.8309C31.2233 71.9408 32.1576 72.806 33.2675 72.7634L49.762 72.1297C50.872 72.0871 51.7372 71.1527 51.6945 70.0428L51.2695 58.9795C51.2269 57.8696 50.2925 57.0044 49.1826 57.047Z" fill="#BADFD8"/>
<path d="M50.6755 72.1923C51.0415 72.0478 51.3606 71.8024 51.597 71.4838C51.8347 71.161 51.9748 70.7748 52 70.3724C52 70.1776 52 70.0014 51.9868 69.8217C51.9736 69.6421 51.9686 69.4658 51.9587 69.2878C51.9389 68.9319 51.9191 68.576 51.9042 68.2117C51.8894 67.8474 51.8679 66.9777 51.858 66.6067C51.8481 66.2357 51.8183 65.6431 51.8101 65.2989C51.7936 64.6274 51.7556 64.6693 51.7391 63.9978C51.7226 63.3262 51.716 62.6547 51.7027 61.9714C51.6895 61.2881 51.6614 60.5561 51.6383 59.8527L51.6235 59.349V59.0989C51.6235 59.0133 51.6136 58.9226 51.6003 58.8353C51.5496 58.4823 51.4122 58.148 51.2007 57.8633C51.0871 57.7084 50.9539 57.5695 50.8043 57.4503C50.6523 57.3321 50.4857 57.2344 50.3089 57.1598C50.1327 57.0855 49.947 57.0369 49.7573 57.0154C49.6625 57.0037 49.5671 56.9986 49.4716 57.0003C49.3775 57.0003 49.2933 57.0003 49.2024 57.0104L46.6526 57.138C45.8896 57.1783 45.1448 57.2018 44.3851 57.2169C43.13 57.2169 41.8897 57.2169 40.6528 57.2169C39.8502 57.2169 39.0443 57.2169 38.2285 57.2286C37.695 57.2286 37.155 57.2421 36.6133 57.2605L36.2434 57.274L35.1237 57.326C34.6382 57.3378 34.146 57.3781 33.6539 57.4234L33.284 57.457C33.2245 57.457 33.1634 57.467 33.0874 57.4788C33.0169 57.4865 32.9469 57.4982 32.8777 57.5141C32.6033 57.5739 32.3415 57.683 32.1048 57.8364L31.9248 57.9556L31.7597 58.0916C31.5774 58.2541 31.4204 58.4437 31.294 58.654C31.1084 58.9745 31.0072 59.3382 31 59.71C31 59.9098 31.0116 60.0609 31.0198 60.2288L31.0479 60.724C31.0875 61.5064 31.1239 62.2921 31.1734 63.066C31.2229 63.84 31.2807 64.6089 31.3385 65.3812C31.3831 66.093 31.4277 66.8149 31.4723 67.5351C31.5202 68.3309 31.5664 69.1183 31.6143 69.9124C31.6276 70.2482 31.6424 70.5839 31.6556 70.9197C31.6606 71.2651 31.7472 71.6043 31.9083 71.9085C32.0707 72.2099 32.3024 72.4668 32.5837 72.6573C32.8678 72.8467 33.1934 72.9621 33.5317 72.9931C33.7099 73.0023 33.8885 73.0023 34.0668 72.9931L34.5903 72.978L35.639 72.9427L37.7347 72.8672C39.1747 72.8118 40.6148 72.6842 42.0565 72.6338C42.9863 72.6019 43.9078 72.6053 44.831 72.5633C46.1224 72.5381 47.2273 72.4458 48.7615 72.3954C49.4353 72.3736 50.0232 72.3299 50.0232 72.2712C50.0232 72.2124 49.4468 72.2191 48.7549 72.2477C46.7731 72.3299 45.8516 72.2628 43.997 72.3299L40.5455 72.4491C39.6025 72.4861 38.6644 72.471 37.7165 72.5096C36.4168 72.5616 36.2087 72.5767 35.7182 72.5767C34.9685 72.5767 34.4433 72.5482 33.7877 72.5666C33.4742 72.5792 33.1633 72.5037 32.8893 72.3484C32.753 72.2713 32.6284 72.1746 32.5193 72.0613C32.4089 71.9508 32.3154 71.824 32.2419 71.6852C32.1681 71.5549 32.1125 71.4148 32.0768 71.2689C32.0437 71.1116 32.026 70.9513 32.0239 70.7904C32.0085 70.4289 31.9931 70.0674 31.9777 69.7059C31.9512 68.9823 31.9298 68.2587 31.9232 67.5435C31.9232 66.8955 31.9067 66.2407 31.8786 65.591C31.8472 64.8708 31.8439 64.1657 31.8158 63.4488C31.7877 62.7319 31.7679 62.0234 31.7118 61.3049C31.687 60.9926 31.6721 60.6753 31.6589 60.3597C31.6589 60.2019 31.6441 60.0441 31.6375 59.8863C31.6375 59.8191 31.6375 59.7553 31.6375 59.6898C31.6375 59.6244 31.6375 59.5606 31.6556 59.4968C31.6898 59.2634 31.775 59.0408 31.905 58.8454L31.9314 58.8118C32.1838 58.5008 32.5336 58.2874 32.9223 58.2074C32.9848 58.1937 33.0483 58.1858 33.1122 58.1839H33.2113H33.3302L33.8108 58.1722C34.4516 58.1554 34.6778 58.1403 35.2657 58.0983L36.4746 58.0244C36.7867 58.0043 37.0972 58.0143 37.4357 57.9892C38.0402 57.9472 38.6331 57.8767 39.2358 57.8314L40.1788 57.7911L41.6486 57.7524L44.7765 57.6786C45.7822 57.65 46.7913 57.5913 47.7838 57.5325L49.1925 57.4603C49.4075 57.439 49.6243 57.4436 49.8382 57.4738C50.0397 57.5094 50.2333 57.5816 50.4096 57.687C50.745 57.8893 51.0038 58.2003 51.1445 58.57C51.2116 58.7576 51.2489 58.9548 51.2552 59.1543L51.2783 59.8258C51.2948 60.3295 51.3526 60.8466 51.3675 61.3586C51.384 61.7867 51.3989 62.2148 51.4154 62.6429C51.4484 63.5865 51.5277 64.4746 51.5558 65.4181C51.5706 65.9217 51.5805 66.4254 51.6119 66.919C51.6383 67.337 51.7259 67.8256 51.7473 68.2436C51.7638 68.6062 51.7798 68.9683 51.7952 69.3298L51.8183 69.8721C51.8183 70.0551 51.8349 70.2364 51.8183 70.4076C51.794 70.7706 51.6704 71.1195 51.4616 71.415C51.252 71.7124 50.9624 71.9421 50.6276 72.0764C50.4935 72.1281 50.3561 72.1707 50.2164 72.204C50.0959 72.2275 50.01 72.2493 50.0083 72.2728C50.0001 72.3131 50.2693 72.3467 50.6755 72.1923Z" fill="#063844"/>
<path d="M36 59L36.3778 68L44 67.7311L43.8093 63.2328" fill="#BADFD8"/>
<path d="M44.5509 63.9258C44.5688 64.3461 44.5311 64.7718 44.5768 65.1921C44.6523 65.8914 44.5768 65.9415 44.5887 66.344C44.5986 66.5479 44.6006 67.0218 44.6086 67.2257C44.6165 67.4296 44.7019 67.7873 44.7039 67.9769C44.7039 68.0038 44.7039 68.027 44.7039 68.0503C44.7044 68.131 44.6991 68.2116 44.688 68.2917C44.5291 68.281 44.4635 68.2613 44.235 68.2452L43.6587 68.1898C43.2923 68.1496 42.9231 68.1329 42.554 68.1397C42.079 68.1558 41.6121 68.2255 41.1412 68.2685C40.706 68.3078 40.2669 68.34 39.8257 68.3704L38.3752 68.4777C37.9639 68.4992 37.5625 68.5099 37.1512 68.5153H36.8293H36.6604V68.2041C36.6445 67.4207 36.6187 66.6409 36.5869 65.8592C36.5551 65.0776 36.3663 64.3354 36.3405 63.5341C36.3226 63.0154 36.3405 62.207 36.3166 61.6918C36.3166 60.9764 36.2073 60.5615 36.1835 59.7029C36.1716 59.3255 36.1318 58.9965 36.0643 59C35.9967 59.0036 35.9908 59.322 36.0086 59.7155C36.0603 60.8244 36.0543 61.3377 36.0901 62.3769C36.108 62.8687 36.1159 63.4178 36.1537 64.3068C36.1775 64.8326 36.1398 65.3584 36.1636 65.8879C36.1974 66.6158 36.2093 66.7321 36.1974 67.0057C36.1815 67.426 36.1358 67.7212 36.1438 68.0878C36.1438 68.1987 36.1438 68.3096 36.1537 68.4223C36.1537 68.6137 36.1676 68.8068 36.1755 69L36.8194 68.975L37.1909 68.9571C38.0672 68.9052 38.9594 68.8623 39.8357 68.8748C40.2331 68.8748 40.6305 68.8748 41.0279 68.8659C41.467 68.8462 41.8982 68.8659 42.3374 68.8408C42.7765 68.8158 43.2653 68.7782 43.7025 68.7263L44.3184 68.6494L44.4635 68.6298L44.6622 68.6083L45 68.5707L44.9185 67.9251C44.9185 67.6478 44.9185 67.3706 44.8828 67.1005C44.8609 66.8698 44.8589 66.5997 44.843 66.369C44.8212 65.9701 44.8013 65.5749 44.7794 65.1742C44.7596 64.7271 44.7178 64.3765 44.698 63.9329C44.698 63.7541 44.6662 63.5663 44.6125 63.5663C44.5589 63.5663 44.541 63.6915 44.5509 63.9258Z" fill="#063844"/>
<path d="M46.8902 61.2775C46.7762 61.2521 46.6607 61.246 46.5459 61.2594C46.3562 61.3293 46.3412 61.2205 46.2315 61.2309C46.1766 61.2309 46.0468 61.2179 45.9903 61.2309C45.9337 61.2438 45.8406 61.3319 45.789 61.3267H45.769C45.5478 61.2956 45.3149 60.9899 45.112 61.0003C44.9946 61.0285 44.8793 61.0745 44.7677 61.1376C44.6629 61.179 44.5547 61.2101 44.4483 61.2386C44.3418 61.2671 44.2121 61.3112 44.094 61.3423C43.9943 61.3539 43.8942 61.3539 43.7946 61.3423C43.6948 61.3423 43.5966 61.3241 43.4968 61.3189C43.2839 61.3189 43.071 61.3189 42.8581 61.3189C42.6451 61.3189 42.4489 61.5469 42.2293 61.5495C42.0879 61.5495 41.8667 61.49 41.7303 61.5081C41.5323 61.4822 41.4225 61.604 41.1896 61.604C41.0865 61.604 40.9984 61.6402 41 61.7309C41.0017 61.8216 41.0898 61.8397 41.1946 61.832C41.4957 61.806 41.6371 61.832 41.9199 61.832C42.053 61.832 42.2027 61.832 42.4455 61.832C42.5886 61.832 42.7316 61.8941 42.8764 61.8838C42.9773 61.8615 43.0798 61.8615 43.1808 61.8838C43.2772 61.9349 43.3762 61.973 43.4768 61.9978C43.5907 62.0043 43.7048 61.9965 43.8178 61.9745C44.0324 61.9214 44.2506 61.9135 44.4666 61.9511C44.5633 61.9762 44.6614 61.9857 44.7593 61.9796C44.8658 61.9667 44.9723 62.0004 45.0804 61.9796C45.3964 61.9511 45.7607 61.6143 45.8139 61.6065C45.8889 61.6166 45.9643 61.6122 46.0385 61.5936C46.1001 61.5729 46.1749 61.5936 46.2365 61.5703C46.3462 61.5521 46.4527 61.5444 46.5691 61.5366C46.6856 61.5288 46.7854 61.4848 46.9018 61.4796C46.9484 61.4796 47.0016 61.4511 47 61.3811C46.9983 61.3112 46.955 61.2775 46.8902 61.2775Z" fill="#063844"/>
<path d="M100.504 86.5572L97.2132 94.9148L94.8478 95L92.8012 88.504C92.6754 88.1041 92.5755 87.9583 92.2396 87.801C91.5233 87.5065 90.7708 87.2989 90 87.1832L90.0431 86.9423L93.8486 86.803C94.0976 86.7917 94.3425 86.8665 94.5382 87.0135C94.7338 87.1604 94.867 87.3697 94.9133 87.6027L96.0486 92.3272L98.1486 86.6457L100.504 86.5572ZM109.991 91.7536C109.912 89.5823 106.742 89.579 106.718 88.6089C106.718 88.3123 106.995 87.9878 107.638 87.8846C108.391 87.7878 109.159 87.8869 109.858 88.1713L110.18 86.4146C109.502 86.1998 108.788 86.1021 108.073 86.1262C105.863 86.2065 104.352 87.3815 104.404 88.9825C104.438 90.1657 105.589 90.7851 106.454 91.1489C107.319 91.5127 107.643 91.7668 107.66 92.1322C107.676 92.6844 106.997 92.9516 106.354 92.986C105.555 93.0318 104.756 92.8818 104.035 92.5501L103.705 94.3658C104.235 94.5756 105.207 94.7378 106.209 94.7116C108.558 94.6264 110.049 93.4661 109.989 91.7618L109.991 91.7536ZM115.933 94.2314L118 94.156L115.862 86L113.953 86.0688C113.749 86.075 113.552 86.1392 113.386 86.2531C113.221 86.367 113.095 86.5254 113.025 86.7079L109.979 94.4494L112.327 94.3642L112.744 93.1187L115.612 93.0138L115.933 94.2314ZM113.321 91.4095L114.372 88.2779L115.175 91.3423L113.321 91.4095ZM103.691 86.4408L102.175 94.7312L99.9351 94.8132L101.451 86.5228L103.691 86.4408Z" fill="#063844"/>
<path d="M32.0001 90.8183C32.0085 91.0479 32.246 91.0005 32.6375 90.9859C35.8678 90.8511 39.0161 90.862 42.2916 90.9659C43.8473 91.0151 45.3144 90.7271 46.7799 90.6014C48.2453 90.4756 49.4564 90.4756 50.9704 90.4848C52.7804 90.4957 54.6992 90.4975 56.5444 90.3025C58.525 90.0984 60.1795 90.4939 62.2103 90.3936C63.8832 90.3116 65.6263 89.9344 67.3142 89.7285C68.691 89.559 69.9992 89.4205 71.3743 89.364C71.6905 89.3512 72.005 89.3476 71.9999 89.1817C71.9916 88.9521 71.754 88.9995 71.3626 89.0141C69.2464 89.1016 67.2222 88.8938 65.101 89.1435C63.2793 89.3567 61.7168 89.1526 59.9905 89.3858C58.955 89.5243 58.1603 89.2546 57.1834 89.2638C56.0375 89.2747 55.0839 89.528 53.8962 89.4679C52.302 89.3877 50.9168 89.8141 49.3142 89.8178C46.3365 89.8178 43.5763 89.3275 40.6455 89.7266C39.3256 89.9089 37.8919 89.8487 36.5386 90.144C35.3879 90.3955 34.2233 90.5641 33.0523 90.6488L32.6207 90.6269C32.3096 90.6415 31.9934 90.6433 32.0001 90.8183Z" fill="#063844"/>
<path d="M84.3248 44.1529L84.5024 48.7568L83.5421 48.7937L83.5035 47.7881C83.4114 48.1177 83.2091 48.4057 82.9303 48.6043C82.6344 48.8086 82.2843 48.92 81.9248 48.9244C81.6864 48.9434 81.4467 48.9113 81.2218 48.83C80.9969 48.7488 80.792 48.6204 80.6208 48.4534C80.2857 48.1182 80.1181 47.6372 80.0845 46.9903L79.9823 44.3222L80.9309 44.2853L81.0298 46.8495C81.0187 47.1988 81.1444 47.5385 81.3801 47.7965C81.4958 47.9075 81.6343 47.992 81.7859 48.0441C81.9376 48.0962 82.0988 48.1146 82.2583 48.0981C82.4269 48.0973 82.5934 48.0612 82.7472 47.9922C82.9011 47.9232 83.0388 47.8229 83.1516 47.6976C83.3711 47.4495 83.4717 47.0791 83.4532 46.6216L83.3611 44.1914L84.3248 44.1529Z" fill="#063844"/>
<path d="M87.231 44.4897C87.5661 44.8249 87.7337 45.3059 87.7672 45.9528L87.8695 48.6344L86.9209 48.6696L86.822 46.0953C86.8296 45.7461 86.7044 45.4071 86.4717 45.1467C86.3557 45.0362 86.2171 44.9522 86.0655 44.9005C85.9139 44.8487 85.7529 44.8303 85.5935 44.8467C85.4249 44.8471 85.2582 44.883 85.1043 44.952C84.9504 45.021 84.8128 45.1216 84.7003 45.2472C84.4768 45.4953 84.3762 45.8539 84.3986 46.3232L84.4924 48.7567L83.5422 48.7936L83.3662 44.1847L84.3148 44.1478L84.3533 45.1534C84.4497 44.8195 84.6557 44.5278 84.9382 44.3255C85.2298 44.125 85.5734 44.0138 85.9271 44.0053C86.1664 43.9886 86.4065 44.0231 86.6313 44.1066C86.8562 44.1902 87.0606 44.3208 87.231 44.4897Z" fill="#063844"/>
<path d="M91.9742 44.2752C92.3804 44.5827 92.658 45.03 92.7535 45.5305L91.7479 45.569C91.6984 45.2971 91.5428 45.0559 91.3155 44.8986C91.077 44.736 90.7906 44.6587 90.5027 44.6791C90.3308 44.6806 90.1614 44.7191 90.0058 44.792C89.8502 44.8649 89.7121 44.9704 89.601 45.1014C89.3714 45.3713 89.2658 45.75 89.2792 46.2511C89.2926 46.7523 89.4468 47.1327 89.6881 47.3841C89.8088 47.5075 89.9547 47.6036 90.1157 47.6657C90.2768 47.7279 90.4493 47.7548 90.6216 47.7444C90.9103 47.7454 91.1904 47.6466 91.4144 47.4646C91.6237 47.2849 91.7592 47.0342 91.7948 46.7606L92.8004 46.7204C92.7505 47.2285 92.5068 47.6979 92.12 48.031C91.7104 48.3751 91.1935 48.5654 90.6585 48.569C90.2482 48.5929 89.8386 48.5115 89.4686 48.3327C89.1172 48.1616 88.8253 47.8889 88.6306 47.55C88.423 47.1664 88.3063 46.7402 88.2895 46.3044C88.2726 45.8685 88.3561 45.4346 88.5334 45.0361C88.7043 44.6883 88.972 44.3973 89.3043 44.1981C89.6614 43.9915 90.0651 43.879 90.4775 43.8713C91.0085 43.8246 91.5388 43.9677 91.9742 44.2752Z" fill="#063844"/>
<path d="M96.1387 43.9485C96.4323 44.1393 96.6614 44.4145 96.7956 44.7379L96.7537 43.6736L97.7024 43.6384L97.88 48.2356L96.9314 48.2725L96.8895 47.2099C96.7875 47.546 96.5793 47.84 96.2962 48.0479C95.992 48.2748 95.6232 48.3987 95.2437 48.4015C94.8672 48.4223 94.4921 48.3394 94.1594 48.1619C93.8322 47.9801 93.5645 47.7078 93.3884 47.3775C93.1944 46.9895 93.0853 46.5645 93.0686 46.131C93.0518 45.6975 93.1277 45.2654 93.2912 44.8636C93.4423 44.522 93.6884 44.2312 94.0001 44.0256C94.3178 43.8221 94.6855 43.7102 95.0627 43.7021C95.4384 43.6681 95.8152 43.7544 96.1387 43.9485ZM94.3906 44.9541C94.1365 45.2728 94.0163 45.6779 94.0555 46.0837C94.0487 46.4909 94.1987 46.8851 94.4744 47.1848C94.6094 47.3156 94.7707 47.4161 94.9475 47.4797C95.1244 47.5433 95.3128 47.5685 95.5001 47.5535C95.7531 47.5492 95.9998 47.4743 96.2124 47.3373C96.4194 47.2008 96.5856 47.0108 96.6934 46.7876C96.8069 46.5349 96.8604 46.2593 96.8496 45.9825C96.8388 45.7057 96.7642 45.4352 96.6314 45.1921C96.5068 44.9751 96.324 44.7973 96.1036 44.6789C95.8833 44.5604 95.6342 44.5059 95.3845 44.5217C95.197 44.5157 95.0105 44.5516 94.8386 44.6267C94.6667 44.7017 94.5137 44.8142 94.3906 44.9557V44.9541Z" fill="#063844"/>
<path d="M102.09 43.6987C102.417 43.8805 102.685 44.1528 102.861 44.4831C103.063 44.8663 103.173 45.2917 103.181 45.725C103.206 46.1605 103.13 46.5959 102.958 46.9971C102.807 47.3386 102.561 47.6295 102.249 47.835C101.931 48.0385 101.563 48.1504 101.185 48.1585C100.807 48.1837 100.431 48.088 100.111 47.8853C99.8162 47.6982 99.5894 47.4215 99.4638 47.0959L99.5895 50.349L98.6392 50.3859L98.3795 43.6082L99.3281 43.5714L99.3683 44.6356C99.4637 44.2986 99.6697 44.0034 99.9532 43.7976C100.257 43.5712 100.625 43.4473 101.004 43.444C101.382 43.4332 101.756 43.521 102.09 43.6987ZM100.032 44.5183C99.8258 44.6559 99.6602 44.8463 99.5526 45.0697C99.4384 45.3222 99.3845 45.5978 99.3953 45.8748C99.4061 46.1517 99.4812 46.4223 99.6147 46.6652C99.7379 46.8834 99.9204 47.0621 100.141 47.1808C100.362 47.2994 100.612 47.3531 100.862 47.3356C101.051 47.3366 101.239 47.2974 101.412 47.2206C101.586 47.1437 101.741 47.031 101.867 46.8898C102.105 46.5642 102.226 46.1677 102.211 45.7646C102.195 45.3615 102.044 44.9755 101.782 44.6691C101.645 44.538 101.481 44.4375 101.302 44.3743C101.124 44.311 100.933 44.2864 100.744 44.3021C100.492 44.3079 100.246 44.3827 100.034 44.5183H100.032Z" fill="#063844"/>
<path d="M107.346 43.4959C107.674 43.6775 107.942 43.9498 108.119 44.2802C108.32 44.6637 108.429 45.089 108.437 45.5221C108.462 45.9575 108.387 46.3929 108.216 46.7942C108.065 47.1357 107.819 47.4266 107.507 47.6322C107.189 47.8356 106.82 47.9475 106.443 47.9556C106.064 47.9808 105.688 47.8858 105.367 47.6841C105.073 47.4959 104.847 47.2188 104.721 46.8931L104.845 50.1478L103.897 50.183L103.635 43.4054L104.586 43.3685L104.626 44.4327C104.721 44.096 104.926 43.8009 105.209 43.5947C105.513 43.3679 105.882 43.244 106.262 43.2411C106.639 43.23 107.013 43.3178 107.346 43.4959ZM105.29 44.3171C105.083 44.4539 104.917 44.6445 104.81 44.8685C104.691 45.1173 104.637 45.3924 104.653 45.6679C104.657 45.9468 104.732 46.2201 104.871 46.4623C104.995 46.6795 105.178 46.8575 105.399 46.976C105.62 47.0945 105.869 47.1488 106.119 47.1327C106.309 47.1337 106.496 47.0945 106.67 47.0177C106.843 46.9408 106.998 46.8281 107.125 46.6869C107.363 46.361 107.484 45.9642 107.469 45.5609C107.453 45.1575 107.302 44.7712 107.039 44.4646C106.902 44.3335 106.739 44.233 106.56 44.1697C106.381 44.1064 106.191 44.0818 106.002 44.0975C105.749 44.1031 105.502 44.1791 105.29 44.3171Z" fill="#063844"/>
<path d="M113.21 45.5372L109.676 45.6729C109.714 46.1405 109.853 46.4908 110.113 46.7103C110.367 46.9308 110.698 47.0417 111.033 47.0187C111.319 47.0149 111.597 46.9204 111.826 46.7489C112.036 46.5871 112.173 46.3493 112.208 46.0869L113.23 46.0467C113.185 46.3646 113.061 46.6662 112.871 46.925C112.68 47.1837 112.429 47.3915 112.139 47.5299C111.792 47.6931 111.413 47.7788 111.029 47.7811C110.645 47.7834 110.265 47.7023 109.915 47.5433C109.564 47.3724 109.272 47.0997 109.077 46.7606C108.87 46.377 108.753 45.9508 108.736 45.515C108.719 45.0791 108.803 44.6452 108.98 44.2467C109.152 43.8987 109.42 43.6077 109.753 43.4087C110.11 43.2018 110.514 43.0893 110.926 43.0819C111.337 43.055 111.747 43.1365 112.116 43.3182C112.45 43.4815 112.728 43.739 112.917 44.059C113.11 44.3851 113.218 44.7545 113.23 45.1333C113.245 45.2681 113.238 45.4044 113.21 45.5372ZM112.091 44.3891C111.977 44.1993 111.807 44.049 111.605 43.9584C111.399 43.8709 111.176 43.8297 110.953 43.8377C110.607 43.8405 110.275 43.9768 110.028 44.2182C109.9 44.3558 109.802 44.5177 109.739 44.6942C109.675 44.8708 109.648 45.0583 109.659 45.2455L112.267 45.145C112.285 44.8811 112.224 44.6178 112.091 44.3891Z" fill="#063844"/>
<path d="M116.618 43.1607C116.912 43.3478 117.139 43.6245 117.264 43.9501L117.162 41.3004L118.121 41.2635L118.359 47.4378L117.4 47.4747L117.358 46.4104C117.264 46.7477 117.059 47.043 116.775 47.2484C116.47 47.4746 116.102 47.5984 115.723 47.602C115.346 47.6222 114.971 47.5387 114.638 47.3607C114.311 47.179 114.043 46.9066 113.867 46.5763C113.673 46.1884 113.564 45.7634 113.547 45.3299C113.53 44.8963 113.606 44.4642 113.77 44.0624C113.921 43.7207 114.167 43.4297 114.479 43.2244C114.797 43.0207 115.164 42.9093 115.542 42.9026C115.918 42.8777 116.293 42.9677 116.618 43.1607ZM114.859 44.1663C114.605 44.485 114.485 44.8901 114.524 45.2959C114.517 45.7031 114.667 46.0973 114.943 46.397C115.078 46.5278 115.239 46.6284 115.416 46.692C115.593 46.7555 115.782 46.7807 115.969 46.7657C116.222 46.7606 116.468 46.6858 116.681 46.5495C116.889 46.4133 117.055 46.2225 117.162 45.9981C117.283 45.7463 117.337 45.4674 117.318 45.1886C117.315 44.9122 117.239 44.6414 117.1 44.4026C116.976 44.1906 116.795 44.0168 116.579 43.8998C116.357 43.7779 116.106 43.7199 115.853 43.7322C115.666 43.7285 115.48 43.7656 115.308 43.8409C115.137 43.9161 114.984 44.0277 114.859 44.168V44.1663Z" fill="#063844"/>
</svg>
