<svg width="164" height="164" viewBox="0 0 164 164" fill="none" xmlns="http://www.w3.org/2000/svg">
<path d="M61.9575 95.8787H38.9273V127.378H61.9575V95.8787Z" fill="white"/>
<path d="M62.0715 125.558C62.0715 123.472 62.1548 121.381 62.1153 119.295C62.0481 115.831 62.1723 115.594 62.1694 113.609C62.1694 112.6 62.1899 110.247 62.1957 109.244C62.1957 108.296 62.0919 106.455 62.1007 105.518C62.1007 105.388 62.1007 105.27 62.1007 105.157C62.1197 103.605 62.187 102.032 62.26 100.48C62.298 99.7024 62.3346 98.9277 62.3726 98.1604C62.3887 97.7774 62.4062 97.3959 62.4223 97.0173C62.4311 96.8273 62.4384 96.6388 62.4457 96.4502C62.4457 96.0921 62.4588 95.734 62.4647 95.3788L61.3187 95.3598L60.6902 95.3452C60.2751 95.3364 59.8648 95.332 59.4595 95.332C57.3386 95.332 55.2586 95.4212 53.1538 95.4636L47.291 95.5557L40.8158 95.6477L38.6905 95.6551C38.6905 96.3245 38.6905 96.9935 38.6905 97.6619C38.6905 98.2466 38.6832 98.8474 38.6788 99.4466C38.6642 101.244 38.6486 103.039 38.6321 104.83C38.6043 108.705 38.594 112.555 38.5911 116.425C38.5911 118.317 38.6423 120.118 38.6964 121.914C38.7212 122.813 38.7461 123.71 38.7709 124.62C38.7797 125.074 38.7885 125.53 38.7972 125.992C38.7972 126.222 38.7972 126.454 38.806 126.686C38.806 126.958 38.806 127.23 38.806 127.505H39.5091C42.0758 127.505 46.0603 127.597 48.6124 127.587C52.1803 127.631 54.215 127.499 58.4568 127.515C60.3189 127.515 61.9502 127.486 61.9531 127.385C61.956 127.284 60.3686 127.256 58.4568 127.259C52.9799 127.259 50.4365 127.224 45.3017 127.213L39.1129 127.191C39.1129 126.784 39.1129 125.593 39.1129 124.228C39.1129 121.622 39.2021 119.033 39.2006 116.412C39.2006 112.817 39.186 112.239 39.2196 110.886C39.2708 108.817 39.3556 107.378 39.3658 105.559C39.379 103.504 39.3819 101.404 39.3658 99.3502C39.357 98.3445 39.3488 97.334 39.341 96.3187H39.4594H39.9519H40.9941H43.077C44.4656 96.3187 45.8542 96.3377 47.2252 96.3625C48.9793 96.3932 50.764 96.4195 52.5341 96.4137C54.4898 96.4137 56.406 96.4517 58.3574 96.4473L60.1391 96.4341L61.041 96.421H61.2661H61.3903C61.405 96.421 61.3977 96.421 61.4035 96.421L61.4415 96.4107C61.4415 96.4195 61.4415 96.4312 61.4503 96.4444V96.4546V96.5569V96.7747C61.4576 97.067 61.4649 97.3594 61.4722 97.64C61.4897 98.213 61.5058 98.7743 61.5219 99.3195C61.5614 100.408 61.5979 101.43 61.6301 102.328C61.6988 104.124 61.7558 105.431 61.7572 105.814C61.7572 107.186 61.7338 108.554 61.7572 109.898C61.7762 111.035 61.7572 112.372 61.7718 113.512C61.7718 115.486 61.7835 117.443 61.7879 119.425C61.7879 121.633 61.8303 123.379 61.8303 125.573C61.8303 126.42 61.8552 127.382 61.9326 127.397C62.051 127.398 62.0715 126.71 62.0715 125.558Z" fill="#063844"/>
<path d="M125.073 68.7719H102.042V127.376H125.073V68.7719Z" fill="white"/>
<path d="M125.203 126.396C125.203 125.273 125.239 124.152 125.245 123.025C125.252 121.958 125.252 120.891 125.245 119.824C125.245 119.282 125.301 118.137 125.301 117.595C125.301 117.085 125.301 116.186 125.301 115.68C125.317 114.699 125.361 114.688 125.377 113.705C125.393 112.723 125.425 111.731 125.448 110.741C125.472 109.718 125.469 108.67 125.476 107.641C125.488 106.663 125.499 105.691 125.51 104.717C125.523 103.661 125.549 102.613 125.542 101.554C125.533 100.289 125.514 99.0228 125.494 97.754C125.475 96.6183 125.485 95.5103 125.511 94.3819C125.581 92.5168 125.672 90.6722 125.766 88.8276C125.825 87.6363 125.869 86.4377 125.912 85.2245C125.938 84.4323 125.961 83.6284 125.967 82.8245V82.2734C125.967 81.1684 125.948 80.0707 125.935 78.9744C125.919 77.6954 125.901 76.4194 125.865 75.1565C125.833 74.1898 125.801 73.2256 125.77 72.2638C125.755 71.783 125.739 71.3006 125.723 70.8197L125.704 70.102L125.692 69.7395L125.682 69.1739L125.665 68.1755L124.009 68.2048L122.946 68.2311L120.813 68.2559C119.79 68.2647 118.787 68.2852 117.775 68.3071L113.068 68.4211L111.032 68.4299C110.286 68.4299 109.545 68.4445 108.803 68.4606C106.847 68.4927 104.896 68.5 102.911 68.4854L101.741 68.4781C101.734 69.8097 101.725 70.5551 101.712 71.4921C101.699 72.3983 101.682 73.3031 101.66 74.2064C101.632 75.196 101.613 76.1665 101.611 77.1692C101.611 78.1437 101.616 79.1181 101.626 80.0926C101.626 81.1406 101.641 82.2003 101.635 83.2527C101.629 84.3051 101.617 85.3166 101.597 86.3544C101.575 86.8601 101.553 87.3615 101.529 87.8658C101.502 88.411 101.472 88.9503 101.445 89.4955C101.375 90.9387 101.326 92.4004 101.299 93.8806C101.275 95.085 101.268 96.3113 101.269 97.5187C101.269 98.8108 101.307 100.075 101.337 101.35C101.337 101.831 101.337 102.303 101.328 102.787C101.319 103.104 101.31 103.417 101.301 103.729C101.288 104.204 101.301 104.669 101.312 105.138L101.342 106.59C101.36 107.736 101.373 108.888 101.408 110.022C101.443 111.156 101.496 112.282 101.538 113.414C101.576 114.458 101.604 115.513 101.632 116.57C101.662 117.74 101.693 118.888 101.724 120.053C101.736 121.037 101.724 121.997 101.724 122.985C101.724 123.974 101.692 124.921 101.676 125.883C101.676 126.512 101.665 127.142 101.66 127.768L106.775 127.791C108.92 127.791 111.064 127.669 113.207 127.68C114.59 127.68 115.959 127.669 117.333 127.658C119.254 127.702 120.9 127.499 123.18 127.512C124.181 127.512 125.06 127.483 125.061 127.382C125.062 127.281 124.209 127.252 123.18 127.255C120.232 127.255 118.863 127.202 116.104 127.191C114.788 127.191 113.327 127.251 110.967 127.251C109.566 127.251 108.171 127.161 106.762 127.164C104.827 127.164 104.516 127.178 103.788 127.144L103.308 127.119L103.083 127.106C103.012 127.106 102.925 127.097 102.886 127.093L102.373 127.039C102.382 126.925 102.392 126.809 102.401 126.692L102.409 126.526V126.417C102.409 126.369 102.409 126.321 102.409 126.271C102.423 125.166 102.425 124.036 102.409 122.931C102.376 120.827 102.357 118.693 102.425 116.594C102.458 115.648 102.482 114.693 102.478 113.737C102.478 112.685 102.512 111.655 102.512 110.604C102.512 109.553 102.523 108.518 102.471 107.464C102.424 106.546 102.453 105.612 102.412 104.7C102.393 104.289 102.382 103.878 102.376 103.465V103.392C102.421 102.708 102.437 101.975 102.456 101.261C102.469 100.794 102.482 100.318 102.49 99.8413C102.506 98.8079 102.49 97.7774 102.471 96.7498L102.463 93.7037C102.463 93.3047 102.456 92.9042 102.452 92.5051L102.469 92.2976C102.591 90.8593 102.538 89.3099 102.541 87.8424C102.542 87.7368 102.535 87.6313 102.52 87.5267C102.52 85.3122 102.52 83.1007 102.547 80.8804C102.558 79.5985 102.585 78.324 102.608 77.0435C102.633 75.7875 102.656 74.5333 102.68 73.2812C102.705 72.5708 102.731 71.8609 102.757 71.1515L102.797 70.0889L102.807 69.8228V69.6898V69.6679V69.6577C102.812 69.6361 102.819 69.6151 102.827 69.5948L102.838 69.5714L102.915 69.5934H102.93H102.96L103.27 69.6007L104.508 69.6255L106.993 69.6621C108.722 69.6869 110.456 69.6138 112.151 69.5612L114.246 69.491C115.145 69.491 116.08 69.5203 116.969 69.472C117.953 69.418 118.899 69.2952 119.892 69.2674C120.837 69.2411 121.793 69.2674 122.731 69.2192L123.892 69.1739L124.175 69.1636L124.342 69.1563L124.682 69.1461C124.682 69.2133 124.682 69.2776 124.682 69.342L124.674 69.8316V70.5625C124.674 71.0302 124.707 71.4716 124.716 71.9364C124.734 72.5942 124.751 73.25 124.769 73.9038C124.735 75.2398 124.7 76.5758 124.685 77.9161C124.671 79.1513 124.685 80.401 124.713 81.6273C124.739 82.5511 124.764 83.4691 124.789 84.3928C124.801 85.0506 124.813 85.7069 124.826 86.3617C124.826 86.9464 124.834 87.5106 124.826 88.0938C124.826 88.8246 124.804 89.5555 124.792 90.2863L124.709 94.9403C124.69 96.4356 124.723 97.9367 124.757 99.4145C124.789 100.812 124.788 102.215 124.814 103.615C124.833 104.931 124.846 106.246 124.834 107.575C124.827 108.322 124.897 109.072 124.888 109.82C124.88 110.446 124.888 111.074 124.888 111.701C124.888 113.081 124.849 114.454 124.836 115.833C124.836 116.564 124.812 117.308 124.836 118.026C124.855 118.638 124.899 119.289 124.91 119.903C124.922 120.964 124.927 122.018 124.927 123.083C124.927 124.273 124.969 125.212 124.969 126.393C124.969 126.849 124.989 127.366 125.067 127.375C125.178 127.388 125.203 127.02 125.203 126.396Z" fill="#063844"/>
<path d="M93.9361 43.767H70.9059V127.378H93.9361V43.767Z" fill="#BADFD8"/>
<path d="M93.9361 127.401C93.9361 127.031 92.6644 127.09 90.5742 127.09C87.2689 127.09 83.9796 127.082 80.7064 127.065L75.7996 127.034L73.3513 127.02L71.2918 126.998C71.322 124.497 71.3522 121.997 71.3824 119.498C71.4214 116.867 71.4608 114.236 71.5008 111.605C71.587 106.327 71.6923 101.022 71.8107 95.6521C71.9934 87.379 71.6294 79.5079 71.5183 71.6806C71.4058 63.9746 71.4964 57.4044 71.6133 49.3549C71.626 48.437 71.6392 47.5137 71.6528 46.5851C71.6528 46.1217 71.666 45.6554 71.6718 45.1877C71.6718 44.9787 71.6835 44.7711 71.6894 44.5606L72.331 44.5782L73.7591 44.5957L76.6284 44.6235L82.402 44.6586C84.3294 44.6644 86.2574 44.6644 88.1858 44.6586L91.0683 44.6367L92.5051 44.6206H92.6396H92.7068H92.8427L93.1219 44.6089C93.1219 44.7551 93.1351 44.8924 93.1409 45.0328V45.1526V45.3997C93.1409 45.5634 93.1409 45.7285 93.1482 45.8908C93.1482 46.2182 93.1482 46.5441 93.1585 46.8686C93.1585 47.5166 93.1585 48.1588 93.1585 48.7951C93.1585 50.0682 93.1438 51.3194 93.1234 52.5575C93.081 55.035 93.0064 57.457 92.9275 59.8863C92.7682 64.7464 92.5869 69.6357 92.5986 75.0527C92.6176 84.0157 93.1058 93.3236 93.3295 102.351C93.5063 109.713 93.6408 116.706 93.6408 124.042C93.6408 125.728 93.6247 127.404 93.9054 127.404C94.2737 127.404 94.2167 126.132 94.2167 124.042C94.2167 112.761 94.6859 102.026 94.4316 90.6824C94.2123 80.9388 94.6435 72.6599 94.3863 63.4265C94.2313 57.8853 94.7181 53.7107 94.7692 48.5013C94.778 47.6886 94.778 46.8935 94.7692 46.1115C94.7619 45.0503 94.7531 44.0081 94.7444 42.9747L92.3545 43.0025L90.7949 43.0332L87.6655 43.0902C85.5607 43.1194 83.4047 43.1253 81.0879 43.061C79.3266 43.0113 77.6091 42.9981 75.9165 43.0069C75.0697 43.0069 74.2288 43.0161 73.3937 43.0347L70.1853 43.0858L70.2072 44.4349L70.2174 45.1L70.2291 45.5385C70.2452 46.1232 70.2598 46.7078 70.2759 47.2925C70.3051 48.4619 70.3344 49.6341 70.3636 50.8093C70.4133 53.1699 70.444 55.5715 70.4133 58.0622C70.2248 73.914 69.244 88.5147 69.6825 104.197C69.7819 107.727 69.7848 111.397 69.8096 115.094C69.8228 116.943 69.8418 118.798 69.8813 120.648C69.8998 121.57 69.9251 122.49 69.9573 123.409C69.9748 123.867 69.9928 124.325 70.0114 124.782C70.0333 125.25 70.0537 125.717 70.0757 126.185C70.0976 126.847 70.1195 127.501 70.1414 128.161L71.8297 128.109L72.2302 128.095L72.4977 128.084L73.0312 128.059L75.1652 127.967C76.5874 127.908 78.0111 127.857 79.445 127.821C82.3143 127.733 85.2274 127.674 88.2604 127.641L90.5596 127.705C92.2595 127.666 93.9361 127.682 93.9361 127.401Z" fill="#063844"/>
<path d="M56.3842 34.0249C56.2102 34.0863 56.2614 34.1375 56.2979 34.2369C56.6005 35.0554 56.8534 35.8681 57.134 36.7451C57.2079 36.9433 57.323 37.1237 57.4716 37.2742C57.6178 37.4204 57.7801 37.5592 57.9101 37.7127C58.16 38.0029 58.3757 38.3207 58.5533 38.6599C58.792 39.1154 59.1218 39.5169 59.5224 39.8394C59.7278 40.0045 59.892 40.2152 60.0018 40.4548C60.1206 40.6983 60.2825 40.9182 60.4798 41.1038C60.6744 41.2489 60.8904 41.3628 61.12 41.4414C61.3568 41.5233 61.595 41.5978 61.8157 41.687C61.997 41.7572 62.1695 41.8332 62.3346 41.9077C62.5035 41.9811 62.6671 42.0661 62.8243 42.162C62.8974 42.2074 62.9705 42.2585 63.0362 42.1372C63.1298 41.9793 63.0626 41.9706 62.9734 41.915C62.7421 41.7616 62.5283 41.5832 62.3361 41.383C62.143 41.1851 61.9189 41.0202 61.6725 40.8948C61.2208 40.6843 61.0498 40.2546 60.6289 40.0441C60.3716 39.9169 60.3979 39.591 60.2342 39.398C60.1391 39.2909 60.0288 39.1983 59.9068 39.1232C59.7816 39.0463 59.6803 38.9359 59.6145 38.8046C59.5159 38.6267 59.3722 38.478 59.1979 38.3734C59.0247 38.2642 58.8756 38.121 58.7594 37.9524C58.6659 37.7793 58.5876 37.5983 58.5255 37.4116C58.4656 37.2245 58.4188 37.033 58.3618 36.8503C58.3115 36.67 58.248 36.4937 58.1718 36.3227C58.0915 36.1527 57.9844 35.9967 57.8546 35.8608C57.7371 35.729 57.6387 35.5814 57.5623 35.4223C57.4745 35.2579 57.3553 35.1124 57.2115 34.994C56.9497 34.8023 56.7365 34.552 56.5888 34.2632C56.5888 34.2237 56.5888 34.1842 56.5771 34.1448C56.5391 34.0571 56.5172 33.9781 56.3842 34.0249Z" fill="#FFD58E"/>
<path d="M70.7173 25.7255C70.5346 25.7474 70.5712 25.8088 70.5843 25.917C70.6841 26.8007 70.6894 27.6924 70.6004 28.5772C70.5609 29.0158 70.7904 29.3899 70.8927 29.7831C70.9802 30.1579 71.0117 30.5436 70.9863 30.9276C70.9546 31.4398 71.0039 31.9539 71.1325 32.4507C71.2947 32.9798 70.9863 33.4739 71.0594 34.022C71.1251 34.478 71.4248 34.9238 71.59 35.3711C71.7293 35.721 71.8274 36.086 71.8823 36.4586C71.8925 36.5448 71.8954 36.6311 72.0285 36.6135C72.2112 36.5916 72.1746 36.5302 72.1615 36.4235C72.0913 35.8476 72.2565 35.2717 72.0591 34.7075C71.8896 34.2237 72.0518 33.775 71.8662 33.3189C71.7551 33.0456 71.97 32.803 71.9627 32.534C71.9627 32.2197 71.7522 31.9786 71.8004 31.6453C71.8647 31.1995 71.5242 30.8545 71.5213 30.4131C71.5213 29.5917 71.913 28.7863 71.5943 28.013C71.4482 27.6652 71.4979 27.2647 71.2611 26.9168C71.068 26.6408 70.9287 26.3308 70.8504 26.0032C70.8504 25.9623 70.862 25.9214 70.8679 25.8819C70.8591 25.7942 70.8562 25.7065 70.7173 25.7255Z" fill="#FFD58E"/>
<path d="M50.362 49.0041C50.2992 49.1781 50.362 49.1707 50.457 49.2044C51.2176 49.4872 51.9434 49.856 52.6203 50.3035C52.9536 50.5184 53.3614 50.4702 53.7253 50.5374C54.0671 50.6151 54.3942 50.7468 54.6944 50.9277C55.0935 51.1685 55.5311 51.3386 55.988 51.4305C56.4864 51.5021 56.7466 51.9888 57.2275 52.1467C57.6236 52.2783 58.1147 52.1935 58.543 52.2329C58.8854 52.2546 59.2235 52.3209 59.5487 52.4303C59.6232 52.4566 59.6948 52.4902 59.7416 52.3586C59.8044 52.1847 59.7416 52.192 59.6466 52.1584C59.1511 51.9801 58.7579 51.5898 58.2156 51.5313C57.7508 51.4816 57.4585 51.1484 57.0083 51.1265C56.7378 51.1133 56.6355 50.818 56.4134 50.7143C56.1546 50.59 55.8725 50.6733 55.6226 50.4921C55.2893 50.2495 54.8625 50.4132 54.5029 50.2334C53.835 49.9001 53.357 49.2102 52.594 49.1737C52.2505 49.1576 51.9465 48.9486 51.5635 49.0158C51.2597 49.0744 50.9471 49.0689 50.6456 48.9997L50.555 48.9325C50.4804 48.9062 50.4102 48.8726 50.362 49.0041Z" fill="#FFD58E"/>
<path d="M142.595 137.908C142.595 137.538 141.28 137.596 139.119 137.596C121.312 137.596 103.995 137.365 85.986 136.979C77.4352 136.797 69.298 137.161 61.2077 137.272C53.243 137.384 46.4447 137.294 38.1307 137.177L28.089 137.044L28.1007 136.589L28.1095 135.408C28.1153 134.581 28.1207 133.753 28.1256 132.923L28.1343 127.954C28.1343 124.637 28.1051 121.323 28.0481 118.049C27.8537 107.106 28.5977 98.0843 28.5758 86.8864C28.5568 77.6223 28.0686 67.9972 27.8449 58.676C27.6681 51.0651 27.5336 43.8371 27.5336 36.2554C27.5336 34.5131 27.5497 32.7795 27.269 32.7795C26.8992 32.7795 26.9577 34.095 26.9577 36.2554C26.9577 47.9152 26.4885 59.0108 26.7428 70.7363C26.9621 80.8087 26.5309 89.3668 26.7881 98.9101C26.9431 104.637 26.4563 108.953 26.4052 114.338C26.3452 120.641 26.6873 125.942 26.5119 132.463C26.4856 133.387 26.4709 134.3 26.4622 135.204C26.4622 135.654 26.4622 136.104 26.4549 136.55C26.4549 137.26 26.4549 137.968 26.4549 138.672L28.434 138.662L29.7159 138.644L32.1686 138.598L37.0549 138.475C40.3218 138.393 43.6325 138.329 47.1069 138.365C63.4923 138.554 78.5826 139.534 94.7926 139.096C102.089 138.897 109.972 139.086 117.476 138.703C123.84 138.377 130 138.178 136.732 138.109L139.111 138.174C140.862 138.172 142.595 138.188 142.595 137.908Z" fill="#063844"/>
<path d="M101.499 53.4724C102.887 55.4749 108.415 59.3981 110.707 60.2341C112.999 61.0702 115.567 59.2621 115.754 56.8314C115.923 54.6535 113.786 53.05 111.808 52.1174C109.83 51.1849 107.704 49.4046 105.144 47.842" fill="#BADFD8"/>
<path d="M106.609 48.8521C107.063 49.1561 107.511 49.4704 107.959 49.7861C108.326 50.0317 109.436 50.8546 110.561 51.5547C110.707 51.6424 110.843 51.7243 110.982 51.8076L111.397 52.04L112.147 52.423C112.365 52.5428 112.552 52.6466 112.689 52.7314C112.827 52.8161 112.923 52.8775 112.961 52.9009C113.736 53.3948 114.405 54.0377 114.929 54.7923C115.164 55.1479 115.331 55.5446 115.42 55.9617C115.499 56.3647 115.499 56.7792 115.42 57.1822C115.225 58.1314 114.684 58.9743 113.903 59.5472C113.514 59.8385 113.069 60.0458 112.596 60.1557C112.123 60.2657 111.632 60.276 111.155 60.1859C110.787 60.0921 110.429 59.9613 110.088 59.7956C109.903 59.7123 109.716 59.6246 109.532 59.5267C109.348 59.4288 109.159 59.3367 108.977 59.2344C108.237 58.8309 107.515 58.3895 106.91 57.9992L106.486 57.7157L106.08 57.4233C105.425 56.9615 104.725 56.4455 103.953 55.8038C103.254 55.2264 102.627 54.6549 102.19 54.212C101.978 53.9855 101.798 53.8042 101.69 53.6639C101.582 53.5236 101.505 53.4578 101.494 53.4637C101.484 53.4695 101.534 53.5528 101.641 53.6961C101.7 53.7842 101.764 53.8691 101.832 53.9504L102.107 54.2676C102.66 54.851 103.252 55.3974 103.877 55.9032C104.723 56.599 105.501 57.1792 106.239 57.6967C106.514 57.9086 106.802 58.1103 107.087 58.3208C107.372 58.5313 107.664 58.733 107.964 58.9289C108.553 59.3331 109.166 59.7016 109.8 60.0324C110.244 60.2748 110.72 60.4553 111.213 60.5689C111.723 60.6703 112.249 60.6589 112.754 60.5352C113.36 60.4047 113.93 60.1414 114.422 59.7643C114.914 59.3873 115.317 58.9057 115.601 58.3544C115.842 57.8752 115.985 57.3531 116.023 56.8182C116.059 56.2712 115.958 55.7239 115.731 55.225C115.507 54.7458 115.202 54.3087 114.829 53.9329C114.475 53.5729 114.086 53.2492 113.667 52.9667C113.196 52.6337 112.699 52.3403 112.179 52.0897C111.919 51.964 111.671 51.8514 111.422 51.7257C111.174 51.6 110.93 51.4685 110.682 51.3311C109.873 50.8765 109.01 50.2933 108.244 49.8139C107.743 49.4704 107.234 49.1181 106.682 48.7483C105.998 48.2835 105.191 47.8026 105.157 47.8289C105.124 47.8552 105.679 48.2236 106.609 48.8521Z" fill="#063844"/>
<path d="M83.2921 34.0058C80.6246 36.6295 79.4655 41.8243 80.781 46.072C82.0965 50.3196 86.1555 53.5704 90.5873 53.9299C95.0191 54.2895 99.5474 51.7374 101.529 47.7514C102.849 45.0545 103.066 41.9497 102.135 39.0954C101.532 37.2623 100.483 35.6079 99.0815 34.2812C97.6802 32.9546 95.971 31.9974 94.1076 31.4958C92.2443 30.9943 90.2855 30.9642 88.4077 31.4082C86.5298 31.8523 84.7919 32.7565 83.3506 34.0394" fill="white"/>
<path d="M83.295 34.0088C83.1825 33.8846 82.5773 34.4473 81.8845 35.5641C81.4695 36.2597 81.123 36.994 80.8496 37.7566C80.5846 38.5232 80.3827 39.3103 80.246 40.1099C79.969 41.7322 79.9794 43.3906 80.2767 45.0094L80.3322 45.3149L80.4082 45.616C80.4623 45.8162 80.5047 46.0194 80.5675 46.2182L80.7678 46.8117L80.8175 46.9578L80.8789 47.104L81.0017 47.3963L81.1259 47.6887C81.1654 47.7851 81.2195 47.8743 81.2721 47.9678C81.3685 48.1535 81.4636 48.3406 81.5644 48.5233C81.7866 48.877 81.9956 49.2424 82.2529 49.5742C82.5101 49.906 82.7717 50.232 83.0407 50.555L83.4792 51.0081C83.6254 51.1631 83.7818 51.3005 83.9382 51.4466L84.175 51.6556L84.2919 51.7609L84.4176 51.8574L84.9175 52.2447C85.087 52.3689 85.2668 52.4815 85.4408 52.5999C85.5299 52.6569 85.6162 52.7168 85.7053 52.7738L85.9816 52.9302C86.7093 53.3508 87.482 53.6882 88.2852 53.9359C89.0969 54.1962 89.9371 54.3577 90.7876 54.4167L91.4263 54.4504L92.0651 54.4328C92.2777 54.4272 92.4899 54.4106 92.7009 54.3831C92.9128 54.3583 93.1262 54.3466 93.3338 54.3013L93.9608 54.1858C94.1669 54.139 94.3716 54.0806 94.5762 54.0279C94.6785 54.0002 94.7823 53.9768 94.8832 53.9446L95.1843 53.8408C95.3831 53.7692 95.5877 53.7122 95.7821 53.6274C96.5665 53.3123 97.3181 52.9206 98.0258 52.4581C98.7237 51.9862 99.3743 51.4477 99.9683 50.8503C100.114 50.7041 100.25 50.5389 100.391 50.384C100.459 50.3051 100.537 50.229 100.598 50.1472L100.79 49.8987C100.915 49.7292 101.051 49.5698 101.165 49.3944L101.506 48.8668C101.565 48.7802 101.618 48.6899 101.665 48.5964L101.811 48.3201C101.911 48.1359 102.012 47.9532 102.092 47.7617L102.221 47.4782C102.262 47.3832 102.297 47.2852 102.335 47.1858L102.447 46.8935L102.545 46.6012C103.303 44.2828 103.337 41.7889 102.643 39.4507C102.295 38.3031 101.774 37.2153 101.098 36.2247C100.422 35.2383 99.6094 34.3526 98.685 33.5937C97.7504 32.8392 96.7122 32.2229 95.6023 31.7637C94.4786 31.3163 93.2922 31.0466 92.0855 30.9642C89.5891 30.7993 87.1017 31.3983 84.954 32.6816C84.7319 32.8278 84.5024 32.9579 84.3036 33.1055C84.1048 33.2532 83.9177 33.3876 83.7686 33.5163C83.4763 33.7823 83.295 33.9738 83.3418 34.0264C83.4748 34.1725 84.0083 33.5996 85.0958 32.9287C87.7296 31.3474 90.8795 30.8649 93.8658 31.5854C94.5931 31.7699 95.2995 32.029 95.9736 32.3586C96.6421 32.6921 97.2782 33.087 97.8737 33.5382C98.4634 33.9943 99.0091 34.5047 99.5035 35.0627C99.9965 35.6179 100.432 36.2218 100.803 36.865C101.517 38.0971 101.987 39.4554 102.187 40.8656C102.381 42.2438 102.32 43.6459 102.007 45.0021C101.853 45.668 101.637 46.3179 101.361 46.9432C101.227 47.2543 101.074 47.5569 100.902 47.8494C100.816 47.9956 100.742 48.1418 100.648 48.2879L100.356 48.7074C100.263 48.8482 100.163 48.9834 100.055 49.1123L99.7388 49.507L99.3968 49.8782L99.2258 50.0639C99.1659 50.1238 99.103 50.1794 99.0416 50.2378L98.6835 50.574C98.5578 50.6866 98.4233 50.7874 98.2947 50.8956C98.0404 51.1163 97.7568 51.299 97.4835 51.4949C96.6372 52.0648 95.7266 52.5329 94.7706 52.8893C93.9239 53.2101 93.0398 53.4218 92.1396 53.5193C90.8128 53.6322 89.4777 53.4438 88.234 52.9682C87.0317 52.4939 85.9055 51.8458 84.8912 51.0447C83.885 50.2582 83.0082 49.3192 82.2923 48.2616C81.5721 47.1846 81.0581 45.9832 80.7766 44.7185C80.6305 44.0778 80.5328 43.427 80.4842 42.7716L80.4652 42.2775C80.4652 42.1124 80.4477 41.9472 80.4565 41.782C80.4682 41.4517 80.4565 41.1199 80.5003 40.791L80.5456 40.2955C80.5675 40.1303 80.5939 39.9666 80.6187 39.8029C80.6596 39.474 80.74 39.151 80.8102 38.8265C80.8409 38.6628 80.892 38.5049 80.9373 38.3456C80.9827 38.1863 81.028 38.027 81.0835 37.8677L81.2545 37.3999L81.3408 37.1675C81.3715 37.09 81.408 37.0213 81.4416 36.9395L81.598 36.6238C81.649 36.5176 81.7056 36.4141 81.7676 36.3139C81.8933 36.1151 82.0044 35.9076 82.1345 35.7146L82.3435 35.393C82.4084 35.2872 82.4786 35.1848 82.554 35.0861C82.7001 34.8975 82.8288 34.7134 82.9486 34.5628C83.1927 34.2719 83.3433 34.0571 83.295 34.0088Z" fill="#063844"/>
<path d="M103.713 55.6095C105.52 54.1101 106.858 52.1227 107.568 49.8841C107.666 49.5698 107.641 49.5917 107.701 49.9206C107.79 50.4059 105.008 48.3011 104.631 48.3522C104.254 48.4034 105.925 48.7308 105.64 48.991C105.259 49.3486 104.932 49.7592 104.668 50.21C104.185 51.011 102.966 51.6176 102.541 52.4508C102.116 53.2839 102.304 52.9872 101.505 53.4739C101.943 53.7005 103.112 55.3215 103.551 55.5481" fill="#063844"/>
<path d="M102.756 54.6945C102.52 54.4255 102.291 54.1507 102.048 53.8832L101.902 53.7239C101.863 53.6815 101.831 53.6523 101.79 53.6128C101.745 53.5681 101.696 53.5284 101.643 53.4944C101.613 53.4827 101.643 53.4725 101.664 53.4608L101.725 53.4272L101.858 53.357C101.917 53.3278 101.978 53.2957 102.043 53.265C102.123 53.2278 102.197 53.1785 102.262 53.1188C102.319 53.0509 102.368 52.9763 102.408 52.8966L102.532 52.6701C102.603 52.5217 102.689 52.3807 102.788 52.2491C102.971 52.0258 103.176 51.8216 103.4 51.6396C103.583 51.4934 103.718 51.3794 103.757 51.3473C104.141 51.0447 104.555 50.748 104.853 50.3036C104.982 50.1133 105.121 49.9299 105.268 49.754C105.341 49.6678 105.415 49.5845 105.492 49.5026L105.609 49.3857L105.685 49.3111L105.811 49.1942C105.848 49.1554 105.878 49.1104 105.9 49.0612C105.926 49.0204 105.939 48.9723 105.936 48.9238C105.935 48.8725 105.923 48.8221 105.902 48.7754C105.88 48.7287 105.85 48.6868 105.812 48.6519C105.722 48.5736 105.621 48.5095 105.511 48.4619L105.407 48.4181L105.317 48.3815C105.15 48.3187 104.985 48.2661 104.837 48.2134C104.801 48.2003 104.764 48.1871 104.744 48.1769C104.744 48.1769 104.744 48.1593 104.723 48.2105C104.705 48.2451 104.683 48.2779 104.659 48.3084C104.649 48.3196 104.64 48.3319 104.633 48.345C104.625 48.3535 104.617 48.3613 104.608 48.3684C104.593 48.3757 104.592 48.3771 104.59 48.3801C104.589 48.383 104.577 48.3801 104.59 48.3801C104.603 48.3801 104.6 48.3961 104.619 48.4254C104.632 48.4532 104.64 48.4828 104.644 48.5131L104.662 48.5803V48.6139C104.662 48.63 104.662 48.6139 104.662 48.6212C104.614 48.2675 104.649 48.5248 104.638 48.4473C104.641 48.4648 104.641 48.4824 104.638 48.4999C104.638 48.5204 104.638 48.5452 104.638 48.5672C104.637 48.5832 104.637 48.5993 104.638 48.6154C104.647 48.6144 104.655 48.6144 104.663 48.6154C104.694 48.624 104.724 48.6347 104.754 48.6475C105.047 48.7835 105.334 48.9343 105.612 49.0992L106.482 49.6006C106.776 49.7773 107.08 49.9384 107.392 50.0829C107.464 50.1144 107.54 50.1356 107.617 50.1458C107.656 50.1503 107.695 50.1463 107.731 50.1341C107.766 50.1231 107.797 50.1029 107.82 50.0756C107.846 50.0483 107.862 50.0143 107.869 49.9777C107.873 49.9545 107.873 49.9307 107.869 49.9075V49.8797V49.868L107.86 49.8227L107.842 49.7292L107.832 49.678C107.827 49.6489 107.819 49.6205 107.807 49.5932C107.807 49.5859 107.8 49.5786 107.796 49.5728V49.5625L107.775 49.5406C107.755 49.5196 107.728 49.5054 107.699 49.4997C107.679 49.4946 107.657 49.4946 107.636 49.4997C107.622 49.5014 107.608 49.5058 107.595 49.5129C107.583 49.5188 107.571 49.5262 107.56 49.5348L107.549 49.545C107.541 49.552 107.535 49.5598 107.53 49.5684L107.516 49.5903C107.509 49.6038 107.502 49.618 107.497 49.6327L107.481 49.6868L107.454 49.7847C107.378 50.0391 107.299 50.3007 107.207 50.5594C107.032 51.0516 106.828 51.5329 106.596 52.0006C106.501 52.1862 106.375 52.4026 106.273 52.5721C105.97 53.0689 105.631 53.5424 105.258 53.9885C104.502 54.8991 103.696 55.5569 103.731 55.5963C103.744 55.6139 103.954 55.4706 104.258 55.2002C104.654 54.8513 105.021 54.4721 105.358 54.066C105.772 53.5664 106.148 53.0357 106.482 52.4786C107.001 51.7055 107.419 50.869 107.725 49.9894C107.753 49.9148 107.778 49.8315 107.8 49.7672C107.8 49.7672 107.807 49.7526 107.8 49.7526L107.718 49.716C107.692 49.7014 107.676 49.6941 107.663 49.6853L107.645 49.6736L107.636 49.6634C107.636 49.6561 107.636 49.6634 107.629 49.6634C107.622 49.6634 107.4 49.738 107.458 49.7263V49.7482L107.476 49.8637L107.486 49.925V49.9397C107.477 49.9397 107.568 49.925 107.53 49.9397H107.553C107.568 49.9397 107.588 49.9397 107.598 49.9397C107.608 49.9368 107.618 49.9368 107.628 49.9397C107.658 49.9514 107.628 49.9484 107.628 49.887C107.624 49.8535 107.624 49.8197 107.628 49.7862C107.567 49.7679 107.508 49.7439 107.452 49.7146C107.186 49.5816 106.914 49.4091 106.645 49.2395C106.333 49.0276 106.023 48.8098 105.703 48.5979C105.542 48.4926 105.378 48.3874 105.206 48.2894C105.116 48.236 105.023 48.1872 104.928 48.1433C104.869 48.1163 104.808 48.0953 104.745 48.0804C104.721 48.0743 104.697 48.0704 104.672 48.0687C104.638 48.0637 104.604 48.0637 104.57 48.0687L104.532 48.076C104.524 48.0749 104.516 48.0749 104.508 48.076L104.467 48.0907L104.428 48.1097C104.383 48.1382 104.345 48.1773 104.318 48.2237C104.304 48.2482 104.295 48.2749 104.289 48.3026C104.282 48.3393 104.282 48.3769 104.289 48.4137C104.295 48.4483 104.308 48.4814 104.326 48.5116L104.345 48.5379C104.361 48.5595 104.379 48.5791 104.4 48.5964L104.426 48.6154L104.47 48.6417L104.53 48.6695C104.565 48.6856 104.596 48.6972 104.627 48.7089L104.802 48.7703C104.916 48.8098 105.027 48.8463 105.132 48.8858L105.263 48.937H105.271C105.273 48.9376 105.274 48.9385 105.274 48.9397C105.275 48.9408 105.275 48.9422 105.275 48.9435C105.275 48.9449 105.275 48.9463 105.274 48.9474C105.274 48.9486 105.273 48.9495 105.271 48.9501L105.244 48.9808L105.134 49.1036C105.062 49.1869 104.988 49.2717 104.928 49.3594C104.797 49.5316 104.677 49.7112 104.567 49.8973C104.511 49.9894 104.459 50.0844 104.412 50.1574C104.388 50.197 104.362 50.2351 104.333 50.2715C104.305 50.3095 104.277 50.3475 104.245 50.384C104.122 50.5336 103.989 50.6747 103.846 50.8064C103.57 51.0535 103.282 51.2873 103.01 51.5504C102.872 51.6834 102.744 51.8266 102.627 51.9787C102.566 52.0666 102.511 52.159 102.463 52.2549L102.393 52.388L102.335 52.5151C102.288 52.6174 102.241 52.7241 102.189 52.8221C102.166 52.8679 102.14 52.9119 102.111 52.9536C102.084 52.9904 102.049 53.0217 102.01 53.0457C101.968 53.0749 101.917 53.1027 101.864 53.1319L101.68 53.2401L101.483 53.3614L101.389 53.4214C101.361 53.4404 101.316 53.4608 101.335 53.4784C101.515 53.5851 101.683 53.7106 101.836 53.8525C102.113 54.1347 102.373 54.4372 102.659 54.7705C102.829 54.9695 103.01 55.1593 103.2 55.3391C103.268 55.4019 103.341 55.4591 103.418 55.5101C103.481 55.5437 103.52 55.5583 103.526 55.551C103.532 55.5437 103.46 55.4721 103.323 55.3288C103.186 55.1856 102.998 54.9722 102.756 54.6945Z" fill="#063844"/>
<path d="M94.2006 47.8274C94.3044 47.7807 94.4067 47.728 94.509 47.6813C94.6113 47.6345 94.7078 47.5702 94.8013 47.5146C94.8949 47.4591 95.0381 47.3685 95.2398 47.2325L95.5409 46.9972L95.8479 46.7239C96.1238 46.4535 96.3761 46.1601 96.6021 45.8469C97.1011 45.2366 97.4702 44.5308 97.6867 43.7727C98.0007 42.2503 97.8478 40.6685 97.2482 39.2342L97.0874 38.8484C96.934 38.5112 96.7567 38.1853 96.5568 37.8734C96.4606 37.7216 96.3562 37.5753 96.244 37.4349C96.1388 37.3034 96.0321 37.1937 95.9517 37.0973C95.7617 36.9204 95.6316 36.8181 95.6155 36.8371C95.5994 36.8561 95.7003 36.9833 95.8713 37.1616C95.9488 37.261 96.0467 37.3735 96.149 37.5036C96.2513 37.6337 96.3595 37.7799 96.456 37.9421C96.6761 38.2789 96.8631 38.6363 97.0143 39.0091C97.1768 39.5575 97.2883 40.1197 97.3476 40.6886C97.4014 41.0761 97.4283 41.4668 97.428 41.8579C97.3932 42.3184 97.3302 42.7763 97.2394 43.229C97.1636 43.6181 97.0626 44.0019 96.9368 44.3779C96.8122 44.7505 96.6563 45.1118 96.4706 45.4581C96.2327 45.842 95.9669 46.2079 95.6754 46.5529C95.4154 46.8408 95.1334 47.1081 94.832 47.3524L94.5119 47.5483C94.3979 47.6038 94.2824 47.6637 94.1597 47.7193C93.8527 47.8537 93.4858 47.9561 93.4888 47.997C93.4917 48.0379 93.5589 48.0218 93.6832 47.997C93.76 47.9824 93.8357 47.9624 93.9097 47.9371L94.2006 47.8274Z" fill="#063844"/>
</svg>
