<svg width="164" height="164" viewBox="0 0 164 164" fill="none" xmlns="http://www.w3.org/2000/svg">
<path d="M113.585 29.0376H40.3816C39.7276 29.0376 39.1004 29.2974 38.638 29.7598C38.1756 30.2223 37.9158 30.8495 37.9158 31.5034V132.118C37.9158 132.699 38.1468 133.257 38.5579 133.668C38.9691 134.079 39.5268 134.31 40.1083 134.31H123.892C124.473 134.31 125.031 134.079 125.442 133.668C125.853 133.257 126.084 132.699 126.084 132.118V41.5364L113.585 29.0376Z" fill="white"/>
<path d="M113.585 29.0464C113.585 28.6781 109.434 28.7351 102.601 28.7351C85.8267 28.7351 68.8069 28.6649 51.6717 28.5655L45.2403 28.5275L42.0246 28.5071L40.4168 28.4968C40.0912 28.4972 39.7674 28.5464 39.4565 28.643C39.1411 28.7419 38.8447 28.8931 38.5795 29.0903C38.3144 29.2854 38.0829 29.5224 37.8939 29.7919C37.7068 30.0638 37.5642 30.3638 37.4715 30.6806C37.451 30.761 37.4277 30.8399 37.4116 30.9217L37.3721 31.1658C37.3575 31.3237 37.3487 31.5108 37.3502 31.6307V32.436C37.3424 33.5079 37.3356 34.5832 37.3297 35.662L37.2859 42.1153C37.2274 50.7245 37.1685 59.3416 37.109 67.9664C36.995 85.204 36.8927 102.427 36.8445 119.51C36.8445 121.646 36.8396 123.779 36.8298 125.909C36.8298 126.974 36.8298 128.038 36.8298 129.102V130.697V132.093C36.8298 132.108 36.8298 132.127 36.8298 132.154V132.229L36.8371 132.375C36.8978 133.181 37.2535 133.936 37.836 134.495C38.4186 135.055 39.1871 135.38 39.9944 135.408H40.1405H43.2232H49.5727C58.0271 135.399 66.4239 135.371 74.7632 135.322L110.054 135.092L118.839 135.034L123.231 135.005H123.781H123.927L124.106 134.996C124.227 134.988 124.346 134.972 124.465 134.949C124.939 134.853 125.382 134.64 125.754 134.331C126.122 134.02 126.407 133.622 126.583 133.173C126.67 132.949 126.729 132.715 126.758 132.476C126.776 132.358 126.774 132.238 126.78 132.119V131.843C126.745 125.981 126.709 120.104 126.672 114.214C126.615 102.424 126.556 90.545 126.498 78.4671C126.479 72.4255 126.46 66.3352 126.441 60.1962C126.432 54.0026 126.423 47.7427 126.413 41.4166L121.589 36.593C117.696 32.6991 113.834 28.8155 113.636 29.0143C113.375 29.2744 116.351 32.17 121.182 37.0009L125.811 41.6578C125.811 56.8314 125.799 71.8238 125.793 86.7329C125.765 101.68 125.703 116.551 125.561 131.427V132.149C125.552 132.424 125.476 132.693 125.338 132.932C125.2 133.17 125.005 133.371 124.77 133.515C124.617 133.611 124.447 133.679 124.27 133.717C124.226 133.727 124.182 133.734 124.137 133.739C124.092 133.748 124.047 133.752 124.001 133.752H123.934H123.9H123.674L122.221 133.739L116.428 133.686L104.921 133.587L82.1622 133.417L59.6524 133.289L48.456 133.245L42.8651 133.227L40.0879 133.217C39.9716 133.216 39.8565 133.194 39.7473 133.154C39.6372 133.118 39.5347 133.061 39.4448 132.988C39.3529 132.916 39.2722 132.83 39.2051 132.735C39.1416 132.638 39.0924 132.533 39.0589 132.422C39.0327 132.327 39.019 132.228 39.018 132.13V130.381C39.018 129.614 39.018 128.861 39.018 128.119C39.018 126.637 39.0048 125.195 38.999 123.805C38.9814 121.015 38.9536 118.38 38.923 115.826C38.8601 110.719 38.7768 105.935 38.7359 100.875C38.5897 85.28 39.0545 72.6234 39.0121 57.6558C38.9936 50.6485 38.9385 43.6154 38.8469 36.5565C38.8362 35.6737 38.8255 34.7913 38.8148 33.9094L38.7987 32.5866L38.7899 31.9245V31.5927V31.5108V31.4538V31.3456C38.8135 31.0572 38.9145 30.7805 39.0823 30.5446C39.2515 30.3055 39.4809 30.1154 39.7473 29.9936C39.8823 29.9354 40.0243 29.8951 40.1698 29.8737C40.2428 29.8576 40.3159 29.862 40.3934 29.8518H40.7252L42.0495 29.8328L52.6612 29.6793C66.8161 29.4688 80.9929 29.2584 95.0908 29.213L102.602 29.3154C108.108 29.3124 113.585 29.3271 113.585 29.0464Z" fill="#063844"/>
<path d="M63.9089 41.4225C63.7291 41.4225 63.5494 41.3859 63.3696 41.3786C63.1898 41.3713 63.0348 41.4195 62.8638 41.4225C62.7761 41.4225 62.5715 41.3961 62.4867 41.3961C62.4019 41.3961 62.2616 41.3961 62.1798 41.3961C62.0234 41.3786 62.0336 41.4488 61.8743 41.4327C61.715 41.4166 61.5586 41.3845 61.3992 41.3625C61.2399 41.3406 61.0674 41.3421 60.9023 41.3333C60.7371 41.3245 60.5895 41.3128 60.4331 41.2997C60.2648 41.2793 60.0954 41.269 59.9259 41.269C59.7227 41.2778 59.5195 41.2968 59.3163 41.3172C59.1361 41.334 58.9544 41.3281 58.7755 41.2997C58.4832 41.2295 58.1806 41.1374 57.8868 41.0453C57.6954 40.9854 57.5024 40.9416 57.3022 40.8992C57.1755 40.8718 57.047 40.8537 56.9177 40.8451H56.8286C56.7394 40.8451 56.6503 40.8524 56.5626 40.8582C56.3301 40.8334 56.0904 41.0044 55.8595 41.0483L55.7703 41.041C55.7192 41.0337 55.6695 41.022 55.6242 41.0146C55.549 41.0071 55.4732 41.0105 55.3991 41.0249L55.1652 41.0556C54.9825 41.0731 54.7968 41.0863 54.6156 41.1214C54.4344 41.1564 54.2531 41.2091 54.0719 41.2514C53.8906 41.2938 53.7342 41.3172 53.5661 41.3435C53.398 41.3698 53.1934 41.4078 53.0063 41.4371C52.8499 41.4473 52.693 41.4444 52.5371 41.4283C52.3822 41.4137 52.2258 41.3947 52.0723 41.3815C51.7376 41.3538 51.4058 41.3435 51.071 41.3406C50.7363 41.3377 50.384 41.4634 50.0391 41.4532C49.8184 41.4458 49.6006 41.3757 49.3784 41.3859C49.07 41.3435 48.8054 41.4283 48.44 41.4108C48.2792 41.4035 48.1389 41.4415 48.1389 41.5423C48.1389 41.6432 48.2749 41.6709 48.44 41.668C48.9121 41.668 49.1314 41.8405 49.5743 41.8522C49.7848 41.8522 50.0128 41.88 50.3987 41.88C50.6223 41.88 50.8459 41.9677 51.0725 41.9662C51.3824 41.9662 51.4321 41.9516 51.549 41.9852C51.6975 42.0485 51.8516 42.0975 52.0094 42.1314C52.1874 42.1467 52.3664 42.1467 52.5444 42.1314C52.8843 42.0842 53.2294 42.0896 53.5676 42.1475C53.7174 42.1831 53.871 42.2008 54.0251 42.2001C54.1932 42.2001 54.3598 42.2337 54.5279 42.2337C54.6967 42.2451 54.8662 42.2308 55.0307 42.1913C55.1769 42.146 55.3231 42.1752 55.4692 42.1343C55.5343 42.116 55.6008 42.1033 55.668 42.0963H55.6797C55.7902 42.1361 55.905 42.1631 56.0217 42.1767C56.0963 42.1898 56.1679 42.203 56.2483 42.2103C56.3651 42.2247 56.4837 42.2143 56.5962 42.1796C56.6429 42.1694 56.8403 42.1416 56.8885 42.1328C56.9631 42.1197 57.0347 42.1577 57.118 42.1328C57.2642 42.0992 57.403 42.0188 57.5477 41.9794C57.6223 41.9794 57.6939 41.9721 57.7728 41.9794C57.8898 41.9794 58.0067 42.0013 58.1236 42.013C58.3721 42.0378 58.6206 42.0758 58.8691 42.0963C59.1094 42.1061 59.3501 42.0894 59.5868 42.0466C59.8104 42.0144 60.0355 42.0174 60.2606 41.9911C60.4712 41.9684 60.6832 41.9611 60.895 41.9691C61.0148 41.9691 61.1361 41.9063 61.256 41.9165C61.3758 41.9267 61.4562 41.9165 61.5571 41.9165C61.7793 41.9165 61.9868 41.8405 62.209 41.8537C62.326 41.8675 62.4443 41.8675 62.5613 41.8537C62.6592 41.8347 62.7747 41.7075 62.8726 41.7075C63.0436 41.6958 63.2117 41.6914 63.3827 41.6914C63.5537 41.6914 63.7248 41.649 63.9133 41.649C63.9864 41.649 64.0697 41.6154 64.0712 41.5379C64.0683 41.4342 64.0098 41.4225 63.9089 41.4225Z" fill="#063844"/>
<path d="M71.1398 49.0377C70.6926 49.0377 70.2438 48.9544 69.7966 48.9939C69.054 49.0611 69.0029 48.9369 68.5775 48.9398C68.3612 48.9398 67.8569 48.9135 67.6406 48.9135C67.4243 48.9135 67.0428 49.0173 66.841 49.0085H66.765C65.91 48.9588 65.0271 48.5978 64.2393 48.5978C63.7847 48.5978 63.3389 48.6855 62.8872 48.7293C62.4721 48.7673 62.0511 48.7951 61.6302 48.8214C61.1654 48.8506 60.7049 48.8857 60.2416 48.9135C59.8484 48.9252 59.4654 48.9223 59.0722 48.9062C58.6791 48.8901 58.3005 48.8726 57.9175 48.8594C57.0858 48.8316 56.26 48.8214 55.4327 48.8185C54.5776 48.8185 53.8117 49.048 52.9478 49.0363C52.3982 49.0363 51.5432 48.9442 50.995 48.9544C50.2306 48.912 49.7935 49.0436 48.8844 49.026C48.4839 49.0187 48.1345 49.0567 48.1345 49.1561C48.1345 49.2555 48.4736 49.2862 48.8844 49.2833C50.0537 49.2833 50.6048 49.3169 51.7039 49.3286C52.2272 49.3286 52.809 49.3564 53.7503 49.3564C54.3086 49.3564 54.8655 49.4455 55.4268 49.4441C56.1986 49.4441 56.3214 49.4295 56.6122 49.4631C57.0507 49.5142 57.3665 49.599 57.7553 49.6093C58.1938 49.6224 58.6469 49.6253 59.0869 49.6093C59.9283 49.5627 60.7718 49.5681 61.6126 49.6253C61.9897 49.656 62.3712 49.6823 62.7513 49.6765C63.1708 49.6765 63.5815 49.7145 64.001 49.7101C65.2361 49.6984 66.689 49.3432 66.8966 49.3403C67.1889 49.3403 67.4813 49.3637 67.7736 49.3403C68.0177 49.3213 68.3042 49.3403 68.5483 49.3242C68.9722 49.314 69.3917 49.3096 69.817 49.3096C70.2906 49.3096 70.6648 49.2672 71.1325 49.2672C71.3152 49.2672 71.5213 49.2424 71.5243 49.1649C71.5359 49.0582 71.3883 49.0377 71.1398 49.0377Z" fill="#063844"/>
<path d="M68.0879 55.7117C67.949 55.7117 67.8116 55.6752 67.6727 55.6679C67.5339 55.6606 67.4111 55.6591 67.2796 55.6679C67.2138 55.6679 67.072 55.6123 67.0062 55.6123C66.9278 55.6167 66.8493 55.6167 66.7709 55.6123C66.6496 55.5962 66.6481 55.5524 66.5283 55.5363C66.4084 55.5202 66.2856 55.4866 66.1628 55.4647C66.0369 55.4474 65.9099 55.4382 65.7828 55.4369C65.6615 55.4369 65.5431 55.415 65.4218 55.4018C65.2932 55.3814 65.1632 55.3711 65.033 55.3711C64.878 55.3799 64.7231 55.3989 64.5667 55.4194C64.4288 55.4362 64.289 55.4303 64.153 55.4018C63.9235 55.3317 63.697 55.2396 63.4704 55.1475C63.3276 55.0893 63.1811 55.0405 63.0319 55.0013C62.9366 54.9731 62.8387 54.9545 62.7396 54.9458H62.6724C62.5364 54.9458 62.4005 54.9648 62.266 54.978C62.1082 54.9905 61.9514 55.0139 61.7968 55.0481C61.56 55.1066 61.3232 55.1782 61.0864 55.2352C60.9739 55.2615 60.8628 55.2864 60.7503 55.3083C60.664 55.3185 60.5763 55.3244 60.4886 55.3317C60.3629 55.3419 60.2401 55.3624 60.1144 55.3843C59.9215 55.4165 59.73 55.4662 59.5298 55.4983C59.445 55.4983 59.3631 55.5071 59.2783 55.5071C59.1866 55.5096 59.0952 55.5194 59.005 55.5363C58.7653 55.5692 58.5229 55.578 58.2815 55.5626C58.0209 55.5519 57.7614 55.5216 57.5053 55.472C57.3859 55.4441 57.264 55.4285 57.1414 55.4252C57.0215 55.4252 56.9017 55.4355 56.7818 55.4384C56.6619 55.4413 56.5231 55.453 56.393 55.4486C56.2652 55.4438 56.1378 55.4312 56.0115 55.4106C55.9501 55.3901 55.8887 55.3697 55.8259 55.3434C55.763 55.3171 55.6929 55.2849 55.6256 55.2586C55.4526 55.1891 55.2721 55.14 55.0877 55.1124C54.7825 55.0618 54.4701 55.0742 54.1698 55.149C54.1108 55.1538 54.0514 55.1514 53.9929 55.1417C53.9535 55.1344 53.9155 55.1227 53.8775 55.1154C53.8193 55.1078 53.7603 55.1113 53.7035 55.1256L53.5252 55.1563C53.3836 55.1695 53.2431 55.1915 53.1042 55.2221C52.9581 55.2571 52.8265 55.3098 52.6862 55.3521C52.5459 55.3945 52.4289 55.4179 52.2988 55.4457C52.1688 55.4735 52.0138 55.51 51.8706 55.5378C51.7503 55.5485 51.6293 55.546 51.5095 55.5305C51.3911 55.5144 51.2727 55.4954 51.1544 55.4822C50.8994 55.456 50.6433 55.4428 50.387 55.4428C50.1239 55.4428 49.8593 55.5655 49.5962 55.5539C49.4269 55.5519 49.2576 55.5587 49.089 55.5743C48.8522 55.5305 48.6505 55.7351 48.3699 55.7205C48.2471 55.7205 48.1389 55.7497 48.1389 55.8506C48.1389 55.9514 48.2427 55.9792 48.3699 55.9777C48.7324 55.9704 48.9004 56.0304 49.2396 56.0406C49.4003 56.0406 49.5801 55.9821 49.871 55.9821C50.0435 55.9821 50.2145 56.0698 50.387 56.0684C50.6252 56.0684 50.6632 56.0537 50.7539 56.0874C50.8648 56.1505 50.9831 56.1996 51.1061 56.2335C51.2426 56.2489 51.3804 56.2489 51.5168 56.2335C51.775 56.187 52.0399 56.1924 52.2959 56.2496C52.4095 56.285 52.5278 56.3028 52.6467 56.3022C52.7753 56.3022 52.9025 56.3358 53.0311 56.3358C53.1612 56.3484 53.2925 56.3345 53.417 56.2949C53.531 56.2481 53.645 56.2774 53.7576 56.2364C53.8047 56.2184 53.8537 56.2061 53.9038 56.1999H53.9125C53.9954 56.2392 54.0835 56.2663 54.1742 56.2803C54.232 56.2946 54.2906 56.3058 54.3496 56.3139C54.476 56.3244 54.6034 56.318 54.7282 56.2949C54.8539 56.2788 54.9781 56.2701 55.1023 56.2584L55.2485 56.2481L55.2748 56.2657C55.4517 56.387 55.6417 56.3344 55.8215 56.3373C55.8292 56.337 55.8367 56.335 55.8435 56.3314C55.8503 56.3279 55.8563 56.3229 55.8609 56.3168C56.1328 56.3168 56.4047 56.3168 56.678 56.3431C56.8359 56.3548 56.9923 56.3812 57.1487 56.4045C57.3051 56.4279 57.4586 56.4455 57.612 56.4762C57.7655 56.5069 57.9614 56.577 58.1353 56.6355C58.3445 56.6931 58.559 56.7294 58.7755 56.7436C58.9913 56.7495 59.2063 56.7158 59.4099 56.6443C59.4961 56.6223 59.5824 56.5989 59.6671 56.5726C59.7787 56.5923 59.8933 56.5858 60.0019 56.5536C60.1232 56.501 60.2387 56.3768 60.3614 56.349C60.4787 56.3405 60.5954 56.3249 60.7108 56.3022C60.8148 56.2586 60.9256 56.2334 61.0382 56.2277C61.0981 56.2277 61.1581 56.2423 61.218 56.2438C61.2751 56.2345 61.3314 56.2203 61.3861 56.2014C61.4679 56.1897 61.5483 56.1604 61.6287 56.1473C61.7912 56.1849 61.9556 56.2132 62.1213 56.2321C62.2739 56.2441 62.4274 56.2347 62.5773 56.2043C62.6914 56.1809 62.8039 56.1487 62.9179 56.1283L63.1591 56.0917C63.23 56.0842 63.3013 56.0818 63.3725 56.0844C63.4617 56.0844 63.5523 56.1064 63.6414 56.1181C63.8315 56.1429 64.0229 56.1809 64.213 56.2014C64.3981 56.2118 64.5837 56.195 64.764 56.1517C64.935 56.1195 65.1075 56.1224 65.28 56.0961C65.4412 56.0742 65.6041 56.0669 65.7667 56.0742C65.8588 56.0742 65.9509 56.0114 66.043 56.0216C66.1351 56.0318 66.1965 56.0216 66.2739 56.0216C66.4435 56.0216 66.6116 56.061 66.7811 56.0742C66.8707 56.0888 66.962 56.0888 67.0515 56.0742C67.1275 56.0567 67.2065 56.0114 67.2825 55.9997C67.4126 55.9894 67.5427 55.985 67.6742 55.985C67.8058 55.985 67.9358 55.9427 68.0806 55.9427C68.1361 55.9427 68.2004 55.9222 68.2004 55.8447C68.2092 55.7366 68.1639 55.7117 68.0879 55.7117Z" fill="#063844"/>
<path d="M101.337 86.8571C100.968 86.8571 100.606 86.8206 100.232 86.8147C99.8574 86.8089 99.5329 86.8059 99.1821 86.8147C99.0037 86.8147 98.6296 86.7592 98.4512 86.7592C98.2729 86.7592 97.9893 86.7592 97.8242 86.7592C97.5026 86.7416 97.4982 86.6978 97.1767 86.6817C96.8551 86.6656 96.5291 86.632 96.2046 86.6101C95.8801 86.5882 95.5264 86.5896 95.1888 86.5823C94.8511 86.575 94.55 86.5618 94.2299 86.5487C93.8835 86.5355 93.54 86.5092 93.1921 86.5165C92.7785 86.5253 92.3633 86.5443 91.9482 86.5662C91.5794 86.5818 91.2099 86.5755 90.8417 86.5472C90.2308 86.4771 89.6271 86.3864 89.0234 86.2929C88.6332 86.233 88.24 86.1891 87.8424 86.1467C87.5822 86.1204 87.3191 86.097 87.056 86.0912H86.8748C86.5123 86.0912 86.1527 86.1116 85.7931 86.1248C85.3751 86.1394 84.957 86.157 84.5419 86.195C83.909 86.252 83.2805 86.3251 82.6418 86.3806C82.3494 86.4084 82.0468 86.4318 81.7472 86.4537C81.5148 86.4639 81.2824 86.4712 81.0485 86.4785C80.7153 86.4873 80.3849 86.5078 80.0531 86.5297C79.5371 86.5633 79.0299 86.6115 78.5096 86.6437C78.2874 86.6437 78.0711 86.6525 77.8416 86.6525C77.6121 86.6525 77.3549 86.6671 77.1108 86.6832C76.4706 86.7153 75.826 86.7226 75.1814 86.708C74.49 86.6919 73.8001 86.6744 73.1116 86.6189C72.7871 86.5911 72.4685 86.5735 72.1396 86.5706C71.8107 86.5677 71.5023 86.5808 71.1822 86.5852C70.8387 86.5852 70.4908 86.5999 70.1459 86.594C69.8009 86.5882 69.4691 86.5765 69.13 86.556C68.9634 86.537 68.7997 86.5151 68.6345 86.4902C68.4693 86.4654 68.2793 86.4303 68.0995 86.404C67.6274 86.3338 67.148 86.2871 66.6642 86.2578C66.2695 86.2344 65.8676 86.2271 65.4714 86.2286C65.0476 86.2286 64.6339 86.2666 64.2159 86.2958C64.058 86.2958 63.9031 86.2958 63.7452 86.2871C63.6414 86.2871 63.5391 86.2695 63.4368 86.2607C63.2823 86.2539 63.1275 86.2573 62.9734 86.271L62.4984 86.3031C62.1227 86.3192 61.7456 86.3324 61.3729 86.3674C61.0002 86.4025 60.6318 86.4552 60.2606 86.499C59.92 86.537 59.5736 86.5648 59.2272 86.5911C58.8442 86.6203 58.4671 86.6554 58.0856 86.6832C57.7626 86.6949 57.4468 86.6919 57.1238 86.6832C56.8008 86.6744 56.4895 86.6495 56.1737 86.6364C55.4911 86.6086 54.8114 86.5969 54.1274 86.5955C53.4433 86.594 52.7213 86.7182 52.0167 86.7066C51.5651 86.6992 51.1149 86.7182 50.6647 86.7285C50.0362 86.6846 49.4953 86.8878 48.7484 86.8746C48.4195 86.8673 48.1316 86.9039 48.1316 87.0047C48.1316 87.1056 48.4108 87.1348 48.7484 87.1319C49.7146 87.1319 50.1619 87.1845 51.0666 87.1962C51.4964 87.1962 51.9758 87.1363 52.7505 87.1363C53.2109 87.1363 53.667 87.2254 54.1288 87.2225C54.7632 87.2225 54.8597 87.2094 55.1038 87.243C55.4144 87.3074 55.7281 87.3562 56.0436 87.3892C56.4061 87.4023 56.7745 87.4038 57.1399 87.3892C57.8317 87.3431 58.526 87.349 59.2169 87.4067C59.5275 87.442 59.8399 87.4591 60.1524 87.4579C60.4974 87.4579 60.8365 87.4915 61.1756 87.4915C61.5172 87.5039 61.8592 87.4902 62.1988 87.4505C62.4999 87.4052 62.8068 87.4345 63.105 87.3921C63.2395 87.3731 63.3739 87.3629 63.5099 87.3555H63.5347C63.7656 87.3944 63.9983 87.4213 64.2319 87.4359C64.3854 87.4491 64.5418 87.4622 64.6982 87.4681C65.0359 87.4842 65.375 87.4681 65.7112 87.4491C66.0473 87.4301 66.3762 87.4242 66.708 87.414L67.1012 87.4038L67.1685 87.4199C67.6406 87.5412 68.1478 87.49 68.6301 87.4929C68.6652 87.4926 68.6999 87.4857 68.7324 87.4725C69.4633 87.4725 70.1839 87.4725 70.9118 87.4973C71.3313 87.509 71.7493 87.5368 72.1688 87.5602C72.5883 87.5836 72.9932 87.5996 73.4025 87.6303C73.8688 87.6815 74.3336 87.7327 74.7969 87.7911C75.3611 87.8613 75.9341 87.873 76.5056 87.8993C77.071 87.9046 77.6361 87.8709 78.1968 87.7984C78.4277 87.7765 78.6572 87.7546 78.8838 87.7283C79.1815 87.7468 79.4802 87.7404 79.7769 87.7093C80.0984 87.6552 80.4083 87.5324 80.7343 87.5046C81.0602 87.4769 81.3569 87.5046 81.6654 87.4564C81.9557 87.4118 82.2487 87.3869 82.5424 87.3819C82.7017 87.3819 82.861 87.3979 83.0203 87.3979C83.1796 87.3979 83.3127 87.3658 83.4705 87.357C83.6854 87.3438 83.9002 87.3146 84.1151 87.3029C84.5536 87.3365 84.9921 87.3716 85.4306 87.3877C85.8362 87.3999 86.2422 87.3902 86.6467 87.3585C86.9493 87.3365 87.2504 87.3044 87.553 87.2825C87.7693 87.2722 87.9842 87.2605 88.199 87.2474C88.3876 87.2386 88.5747 87.2371 88.7662 87.2386C89.0059 87.2386 89.2456 87.2605 89.4839 87.2722C89.9925 87.2985 90.507 87.3365 91.0084 87.3555C91.4961 87.3656 91.984 87.3495 92.4701 87.3073C92.9276 87.2751 93.388 87.2766 93.847 87.2518C94.2767 87.2313 94.7108 87.2181 95.1449 87.2298C95.3905 87.2298 95.636 87.167 95.8758 87.1757C96.0819 87.1845 96.288 87.1757 96.4926 87.1757C96.9457 87.1757 97.3959 87.2152 97.8476 87.2284C98.0876 87.2423 98.3282 87.2423 98.5682 87.2284C98.7684 87.2094 98.9818 87.1655 99.1821 87.1538C99.5314 87.1421 99.8764 87.1392 100.226 87.1378C100.616 87.1378 100.923 87.0954 101.31 87.0954C101.456 87.0954 101.629 87.0764 101.632 86.9974C101.663 86.882 101.541 86.8571 101.337 86.8571Z" fill="#063844"/>
<path d="M103.289 94.702C102.32 94.702 101.351 94.6976 100.382 94.6889C98.8196 94.6889 90.6065 94.5529 89.9458 94.5427C86.5708 94.4156 83.263 94.2621 80.1394 94.2621C76.4852 94.2621 72.8953 94.4389 69.266 94.4828C66.6627 94.512 63.257 94.5953 60.6918 94.6669C60.1261 94.6669 59.4435 94.6801 58.9071 94.6801C57.4863 94.6889 55.9457 94.6947 54.1669 94.6903C50.9512 94.6903 48.1433 94.7196 48.1389 94.8204C48.1345 94.9213 50.8708 94.9505 54.1669 94.9476C56.1036 94.9476 57.8138 94.9476 59.407 94.9476C61.8626 95.0294 64.4235 95.1683 66.9083 95.2004C68.6287 95.2209 70.3579 95.2297 72.0899 95.2428C74.1451 95.2998 76.1929 95.3758 78.2641 95.3729C81.7502 95.3729 85.4424 95.2779 88.851 95.1902C90.8973 95.1902 92.8428 95.1712 94.8439 95.1054C96.4985 95.0499 98.3402 95.0265 99.9378 94.9403C101.015 94.9403 102.108 94.9315 103.282 94.9315C104.744 94.9315 106.403 94.9067 106.429 94.8292C106.471 94.7166 105.286 94.702 103.289 94.702Z" fill="#063844"/>
<path d="M90.0888 102.529C89.6108 102.529 89.1329 102.493 88.652 102.485C88.1974 102.485 87.7633 102.526 87.3072 102.529C87.0763 102.529 86.5369 102.503 86.306 102.503C86.075 102.503 85.7052 102.503 85.4889 102.503C85.0709 102.487 85.0957 102.557 84.6762 102.541C84.2567 102.525 83.8343 102.493 83.4119 102.471C82.9894 102.449 82.5349 102.45 82.0963 102.442C81.6798 102.442 81.2661 102.421 80.8481 102.408C80.3979 102.395 79.9506 102.368 79.499 102.376C78.9596 102.386 78.4202 102.405 77.8794 102.425C77.3956 102.444 76.922 102.434 76.4411 102.408C75.646 102.336 74.8596 102.246 74.0747 102.152C73.566 102.094 73.0515 102.05 72.5385 102.006C72.1993 101.981 71.8573 101.958 71.5153 101.952C71.4378 101.952 71.3589 101.952 71.28 101.952C71.0432 101.952 70.8064 101.952 70.5696 101.965C69.9542 101.94 69.3169 102.111 68.703 102.155C68.6226 102.155 68.5437 102.155 68.4633 102.146C68.3274 102.146 68.1944 102.129 68.0599 102.12C67.8596 102.114 67.659 102.118 67.4591 102.132L66.8408 102.162C66.3512 102.178 65.8601 102.193 65.3792 102.227C64.8983 102.26 64.4145 102.316 63.9321 102.358C63.4936 102.396 63.0361 102.424 62.5859 102.45C62.0889 102.48 61.5964 102.515 61.1008 102.542C60.6799 102.554 60.2706 102.551 59.8496 102.542C59.4287 102.534 59.0238 102.509 58.6131 102.496C57.7244 102.468 56.8401 102.458 55.9528 102.455C55.0378 102.455 54.1228 102.577 53.2063 102.567C52.6217 102.567 52.037 102.49 51.4523 102.5C50.6323 102.456 49.9307 102.542 48.9572 102.525C48.529 102.518 48.1548 102.556 48.1548 102.655C48.1548 102.754 48.5173 102.785 48.9572 102.782C50.2143 102.775 50.7975 102.955 51.9756 102.965C52.534 102.965 53.1566 102.993 54.1681 102.993C54.7659 102.993 55.3608 103.082 55.9616 103.08C56.7874 103.08 56.9205 103.066 57.2303 103.099C57.7054 103.15 58.0386 103.235 58.4538 103.245C58.9259 103.259 59.4082 103.262 59.8789 103.245C60.7793 103.199 61.6817 103.204 62.5815 103.262C62.9849 103.294 63.3942 103.319 63.8006 103.313C64.2493 103.313 64.6893 103.348 65.1365 103.348C65.5833 103.359 66.0303 103.345 66.4754 103.305C66.8672 103.26 67.2662 103.289 67.655 103.248C67.8304 103.229 68.0058 103.218 68.1827 103.21H68.2134C68.5057 103.256 68.817 103.272 69.1225 103.291C69.3213 103.304 69.5245 103.317 69.7277 103.324C70.0359 103.339 70.3448 103.329 70.6514 103.294C70.7742 103.283 71.3004 103.256 71.4188 103.247C71.6176 103.234 71.8149 103.272 72.0298 103.247C72.4142 103.213 72.7913 103.133 73.1743 103.101C73.3731 103.101 73.5719 103.093 73.7736 103.101C74.0834 103.101 74.3962 103.123 74.7061 103.134C75.3668 103.159 76.0216 103.197 76.6911 103.216C77.3284 103.235 77.9686 103.203 78.5986 103.168C79.1949 103.136 79.7942 103.137 80.3906 103.112C80.9504 103.092 81.5161 103.079 82.0803 103.091C82.3989 103.091 82.719 103.028 83.0377 103.038C83.3052 103.038 83.5727 103.038 83.8401 103.038C84.4248 103.038 84.9846 102.963 85.5722 102.977C85.8879 102.977 86.2022 103 86.5106 102.977C86.7708 102.958 87.0777 102.83 87.3394 102.823C87.7925 102.813 88.2427 102.808 88.6973 102.808C89.2045 102.808 89.605 102.766 90.1078 102.766C90.3037 102.766 90.5244 102.732 90.5273 102.655C90.5127 102.541 90.3548 102.529 90.0888 102.529Z" fill="#063844"/>
<path d="M73.5107 110.883C73.0166 110.883 72.5226 110.799 72.0285 110.839C71.2085 110.906 71.1515 110.782 70.6838 110.785C70.4441 110.785 69.8887 110.758 69.6504 110.758C69.4121 110.758 68.9912 110.861 68.7734 110.852H68.6886C67.7458 110.802 66.7724 110.441 65.9114 110.441C65.4086 110.441 64.9175 110.529 64.4191 110.573C63.9601 110.611 63.4953 110.639 63.0319 110.665C62.5189 110.694 62.0088 110.729 61.5001 110.757C61.0616 110.769 60.645 110.766 60.2109 110.75C59.7768 110.734 59.3602 110.716 58.9363 110.703C58.0199 110.675 57.1092 110.663 56.1928 110.662C55.25 110.662 54.4051 110.891 53.4609 110.88C52.8528 110.872 51.9101 110.788 51.3064 110.798C50.463 110.754 49.9806 110.886 48.9779 110.87C48.5394 110.87 48.1506 110.899 48.1506 111C48.1506 111.1 48.5248 111.13 48.9779 111.127C50.273 111.127 50.8781 111.16 52.0884 111.172C52.6643 111.172 53.3074 111.2 54.3467 111.2C54.9635 111.2 55.5759 111.289 56.1957 111.286C57.0464 111.286 57.1838 111.273 57.5039 111.307C57.9935 111.358 58.3356 111.443 58.7638 111.453C59.2506 111.466 59.7476 111.467 60.2328 111.453C61.1611 111.407 62.0912 111.413 63.0188 111.47C63.4354 111.501 63.8563 111.527 64.2758 111.521C64.7377 111.521 65.1923 111.559 65.6527 111.555C67.015 111.543 68.6199 111.188 68.8465 111.185C69.1724 111.185 69.4955 111.209 69.8141 111.185C70.0831 111.166 70.3988 111.185 70.6692 111.171C71.1355 111.16 71.5988 111.156 72.068 111.155C72.5898 111.155 73.0035 111.114 73.5224 111.114C73.7226 111.114 73.9506 111.089 73.9536 111.011C73.9477 110.903 73.7855 110.883 73.5107 110.883Z" fill="#063844"/>
<path d="M105.419 60.3029C111.885 60.3029 117.127 55.061 117.127 48.5949C117.127 42.1287 111.885 36.8868 105.419 36.8868C98.9528 36.8868 93.7109 42.1287 93.7109 48.5949C93.7109 55.061 98.9528 60.3029 105.419 60.3029Z" fill="#FFD58E"/>
<path d="M117.216 47.8612C117.175 47.0197 117.048 46.1846 116.836 45.369C116.614 44.6134 116.311 43.8837 115.933 43.1926C115.844 43.0099 115.681 42.7146 115.515 42.4194L115.259 42.0013C115.176 41.8741 115.097 41.7645 115.038 41.6812C114.932 41.5219 114.763 41.3187 114.6 41.1112C114.436 40.9036 114.259 40.7092 114.135 40.5674C113.979 40.3861 113.807 40.2197 113.62 40.0704C113.486 39.9608 113.354 39.8497 113.081 39.6071C112.531 39.11 111.937 38.6634 111.307 38.2726C110.638 37.8705 109.927 37.5426 109.187 37.2947C108.491 37.0546 107.775 36.8761 107.047 36.7612C106.259 36.6329 105.459 36.5927 104.662 36.6413C103.706 36.7122 102.763 36.9017 101.854 37.2056C101.049 37.4754 100.267 37.8098 99.5152 38.2053C98.2478 38.8395 97.0968 39.6836 96.111 40.7019C95.4604 41.3739 94.8984 42.1265 94.4388 42.9412C94.281 43.2072 94.1465 43.4893 94.0076 43.7714C93.8688 44.0535 93.7562 44.3473 93.6583 44.6484C93.6101 44.7843 93.5618 44.9203 93.5253 45.0606C93.4683 45.2711 93.4025 45.4801 93.3601 45.695C93.3177 45.9098 93.2651 46.1189 93.2344 46.3337C93.1239 46.8957 93.0812 47.4688 93.1073 48.041C93.1219 48.3333 93.1336 48.6125 93.1686 48.8946C93.2037 49.1767 93.2359 49.4544 93.2695 49.7307C93.2695 49.8768 93.2987 50.023 93.3104 50.1692C93.3294 50.4133 93.363 50.653 93.3981 50.8927C93.4247 51.0735 93.4618 51.2526 93.5092 51.4291C93.5501 51.606 93.6042 51.7785 93.6554 51.9509L93.7387 52.2184L93.8396 52.4742C93.9039 52.6496 93.9682 52.825 94.0456 52.996C94.376 53.8128 94.8018 54.5875 95.3144 55.304C95.8252 56.0018 96.4136 56.6393 97.0684 57.2042C97.6663 57.7322 98.3117 58.2039 98.9963 58.6133C99.7467 59.0581 100.543 59.4203 101.372 59.6934C102.062 59.9327 102.769 60.1198 103.487 60.2533C104.198 60.3849 104.92 60.4519 105.644 60.4535C107.216 60.4521 108.771 60.1241 110.21 59.4903C110.947 59.1609 111.642 58.7437 112.279 58.2478C112.912 57.7553 113.504 57.2132 114.052 56.6268C114.144 56.5362 114.228 56.4397 114.313 56.3433C114.398 56.2468 114.489 56.1547 114.572 56.0509C114.736 55.8522 114.907 55.6592 115.059 55.4517C115.375 55.0449 115.655 54.6111 115.895 54.1551C116.24 53.548 116.513 52.9024 116.707 52.2316C116.923 51.498 117.079 50.7482 117.174 49.9894C117.27 49.2439 117.225 48.5832 117.128 48.5847C117.032 48.5862 117.006 49.2103 116.918 49.9587C116.817 50.8338 116.587 51.689 116.234 52.4961C115.897 53.2663 115.496 54.0066 115.034 54.7091C114.751 55.1478 114.437 55.565 114.093 55.9574C113.629 56.4988 113.116 56.9964 112.561 57.4439C112.166 57.7561 111.745 58.0348 111.304 58.2771C110.865 58.5124 110.412 58.736 109.95 58.9334C109.529 59.1215 109.096 59.2822 108.654 59.4143C108.507 59.4537 108.396 59.4844 108.285 59.5122C108.174 59.54 108.062 59.556 107.934 59.578C107.148 59.6978 106.591 59.6788 105.907 59.7037C105.125 59.7214 104.342 59.6725 103.568 59.5575C102.088 59.3545 100.677 58.8035 99.4509 57.9497C98.9087 57.5608 98.3912 57.1385 97.9015 56.6853C97.3733 56.1815 96.8977 55.6251 96.4823 55.0248C96.066 54.4258 95.6881 53.8008 95.3509 53.1539C95.0643 52.5739 94.8305 51.9692 94.6522 51.3473C94.5648 51.071 94.4936 50.7899 94.4388 50.5053V50.4527C94.4257 50.3329 94.4198 50.2101 94.4125 50.0858C94.4052 49.9616 94.3964 49.8374 94.3877 49.7117C94.3877 49.4602 94.3614 49.2074 94.3716 48.9574C94.3716 48.63 94.3935 48.2968 94.4155 47.9649C94.4374 47.6331 94.4637 47.4095 94.49 47.1932C94.5032 47.0836 94.5075 46.9769 94.5236 46.8585L94.5733 46.4594C94.5733 46.36 94.6391 46.0999 94.6873 45.8382C94.7356 45.5766 94.8101 45.3208 94.8335 45.2272C94.8803 45.0708 94.9373 44.9174 94.9972 44.7624C95.0571 44.6075 95.1302 44.4555 95.1858 44.2859C95.3884 43.6821 95.6391 43.0956 95.9356 42.5319C96.0218 42.3857 96.111 42.2498 96.2089 42.1153C96.3069 41.9809 96.3989 41.842 96.5013 41.7119C96.8235 41.3051 97.1768 40.9239 97.5581 40.5718C98.3686 39.826 99.2822 39.2008 100.271 38.7155C101.209 38.2363 102.2 37.8684 103.224 37.6192C104.196 37.4051 105.193 37.3225 106.188 37.3736C107.129 37.4124 108.06 37.5862 108.952 37.8896C109.463 38.0365 109.963 38.2212 110.447 38.4421C110.644 38.5474 110.846 38.6482 111.032 38.7637C111.128 38.8192 111.228 38.8719 111.324 38.9318L111.616 39.113C111.722 39.1788 111.821 39.249 111.922 39.3191L112.223 39.5238C112.416 39.6699 112.616 39.8044 112.808 39.9623C113.193 40.2616 113.55 40.5952 113.875 40.9591C114.226 41.3596 114.538 41.7864 114.851 42.203C115.108 42.5582 115.49 42.9412 115.699 43.3387C116.061 44.0243 116.348 44.7466 116.557 45.4933C116.787 46.2677 116.934 47.0644 116.995 47.8699C117.017 48.2032 117.049 48.5832 117.131 48.5891C117.213 48.5949 117.24 48.326 117.216 47.8612Z" fill="#063844"/>
<path d="M126.084 41.5364H113.585V29.0376L119.834 35.2863L126.084 41.5364Z" fill="#BADFD8"/>
<path d="M125.948 41.3085C125.741 41.1009 125.548 40.8817 125.342 40.6712C125.135 40.4607 124.95 40.2736 124.757 40.0777C124.656 39.9783 124.465 39.7459 124.365 39.6392C124.266 39.5325 124.102 39.3805 124.013 39.284C123.837 39.097 123.851 39.0794 123.675 38.8923L123.152 38.3193C122.971 38.1206 122.776 37.9291 122.589 37.7347L122.05 37.1895C121.858 36.9892 121.674 36.786 121.475 36.5931C121.239 36.3641 120.999 36.1361 120.758 35.909C120.54 35.7059 120.34 35.4968 120.139 35.2791C119.821 34.9093 119.512 34.5365 119.205 34.1638C119.005 33.9226 118.799 33.6858 118.59 33.4476C118.453 33.2912 118.312 33.1348 118.166 32.9842L118.064 32.8819C117.858 32.6787 117.65 32.4814 117.443 32.2841C117.201 32.0531 116.959 31.8237 116.712 31.6029L115.578 30.5988L115.047 30.1208L114.645 29.7364L113.832 28.9602L113.369 28.5217C113.381 28.9115 113.393 29.3013 113.406 29.6911V30.3444C113.406 30.5388 113.406 30.7332 113.42 30.9291C113.436 31.4407 113.44 31.9537 113.433 32.4683C113.425 33.0193 113.416 33.5689 113.388 34.1185C113.375 34.3772 113.365 34.6315 113.365 34.8932V35.6562C113.365 35.931 113.372 36.2072 113.365 36.482C113.357 36.7568 113.356 37.0214 113.346 37.2932C113.334 37.4248 113.322 37.5563 113.312 37.6879C113.302 37.8194 113.283 37.9715 113.27 38.1147C113.233 38.4918 113.21 38.8733 113.196 39.2592C113.185 39.5735 113.18 39.895 113.18 40.2093C113.18 40.3788 113.18 40.5455 113.192 40.7121L113.204 40.962V41.0878V41.3085C113.204 41.5014 113.204 41.6914 113.204 41.8931H113.292L113.73 41.9063H113.898H114.044L114.228 41.899L114.607 41.8844C114.899 41.8756 115.208 41.8697 115.504 41.8522C115.801 41.8347 116.089 41.8084 116.392 41.7864C116.664 41.7674 116.94 41.7528 117.216 41.7397L118.127 41.6944C118.384 41.6944 118.635 41.6944 118.893 41.6944L119.65 41.7177C120.195 41.7324 120.737 41.7367 121.281 41.7382C121.825 41.7397 122.402 41.6768 122.963 41.6827C123.324 41.6827 123.683 41.6827 124.042 41.6724C124.543 41.6944 124.973 41.592 125.571 41.6008C125.833 41.6008 126.062 41.5847 126.062 41.535C126.062 41.4853 125.84 41.4707 125.571 41.4722C124.801 41.4722 124.443 41.4459 123.721 41.44C123.378 41.44 122.99 41.4693 122.379 41.4693C122.012 41.4693 121.648 41.4254 121.28 41.4269C120.774 41.4269 120.695 41.4269 120.502 41.4166C120.21 41.3903 120.008 41.3479 119.752 41.3421C119.46 41.3421 119.167 41.3348 118.875 41.3421C118.326 41.3596 117.766 41.3684 117.219 41.3333C116.972 41.3187 116.721 41.3055 116.472 41.3085C116.197 41.3085 115.927 41.2909 115.654 41.2909C115.38 41.2909 115.107 41.2909 114.832 41.3114C114.592 41.3348 114.348 41.3202 114.11 41.3406L113.973 41.3523L113.873 41.3596H113.863C113.826 41.3509 113.791 41.345 113.756 41.3392C113.756 41.2748 113.769 41.2062 113.775 41.1389V41.0907V41.0044L113.783 40.8173C113.783 40.5484 113.783 40.278 113.772 40.0105L113.755 39.2153V38.9011L113.764 38.847C113.805 38.4587 113.818 38.0678 113.8 37.6777C113.8 37.6501 113.797 37.6226 113.79 37.5958C113.79 37.0111 113.79 36.4396 113.803 35.8579C113.803 35.5232 113.822 35.1899 113.834 34.8552L113.869 33.8715C113.895 33.5017 113.923 33.1304 113.949 32.7606C113.984 32.3104 113.99 31.8529 114.003 31.3983C114.003 31.1717 114.003 30.9452 113.993 30.7201C113.986 30.6075 113.98 30.495 113.974 30.3839L113.964 30.2158V30.1325C113.964 30.112 113.964 30.1223 113.964 30.115C113.948 30.0787 113.936 30.041 113.927 30.0024C113.93 29.9752 113.93 29.9478 113.927 29.9206C113.938 29.9279 113.945 29.9293 113.951 29.9206C113.958 29.913 113.967 29.907 113.977 29.9029C113.987 29.8989 113.997 29.897 114.008 29.8972C114.052 29.9034 114.093 29.9222 114.126 29.9512C114.139 29.9603 114.151 29.97 114.163 29.9805L114.23 30.0448L114.363 30.1749C114.452 30.2611 114.541 30.3459 114.635 30.4263C114.809 30.5725 114.994 30.7318 115.155 30.894L115.418 31.1688C115.504 31.2551 115.598 31.3252 115.687 31.4071L116.07 31.752C116.305 32.0107 116.539 32.2709 116.782 32.5238C117.025 32.7767 117.242 32.9842 117.478 33.1991L118.016 33.6829L118.393 34.0352C118.502 34.1389 118.609 34.2442 118.716 34.3524C118.849 34.4883 118.977 34.6301 119.107 34.7689L119.938 35.6576C120.208 35.9412 120.498 36.2058 120.783 36.4674C121.068 36.729 121.312 36.9746 121.579 37.2245C121.847 37.4745 122.078 37.6996 122.319 37.9554C122.453 38.1016 122.611 38.2097 122.757 38.3515C122.87 38.4699 122.988 38.5839 123.104 38.6994C123.358 38.9566 123.598 39.2227 123.849 39.4828C123.984 39.6202 124.114 39.7635 124.254 39.8892C124.394 40.0149 124.51 40.0997 124.628 40.2093C124.828 40.4022 125.024 40.5952 125.222 40.794C125.441 41.0132 125.629 41.1725 125.847 41.3918C125.932 41.4751 126.034 41.5643 126.064 41.5379C126.093 41.5116 126.064 41.4239 125.948 41.3085Z" fill="#063844"/>
</svg>
