<svg width="164" height="164" viewBox="0 0 164 164" fill="none" xmlns="http://www.w3.org/2000/svg">
<path d="M121.479 133.605H42.5477C41.93 133.605 41.3375 133.359 40.9007 132.923C40.4639 132.486 40.2185 131.893 40.2185 131.275V81.65H123.808V131.275C123.808 131.893 123.562 132.486 123.126 132.923C122.689 133.359 122.096 133.605 121.479 133.605Z" fill="white"/>
<path d="M123.699 132.295C123.862 131.932 123.939 131.536 123.923 131.139V129.999L123.936 127.719C123.945 126.198 123.953 124.675 123.961 123.149C123.961 120.259 123.921 117.505 123.917 114.614C123.917 113.142 123.937 109.719 123.943 108.249C123.943 106.867 123.943 104.43 123.943 103.065C123.959 100.407 123.889 100.561 123.905 97.9026C123.929 95.2196 123.952 92.5526 123.975 89.871C123.983 88.5098 123.99 87.1384 123.996 85.7656C123.996 84.3243 123.996 82.8816 123.996 81.4506H123.763L115.683 81.4171C112.822 81.404 109.981 81.3778 107.113 81.3851L96.8289 81.4346C93.7513 81.4535 90.7494 81.4433 87.6908 81.4171C82.6391 81.3458 77.6457 81.2555 72.664 81.1623C69.435 81.1041 66.1886 81.0604 62.9028 81.0168C60.7555 80.992 58.5805 80.9687 56.4026 80.9629H54.9221L50.4091 80.976C48.7305 80.9658 47.0273 80.9905 45.3211 81.0255L42.7632 81.0837L41.4879 81.1128L40.8081 81.1259L39.7046 81.139C39.7133 81.8669 39.722 82.5948 39.7308 83.3227C39.7308 83.8294 39.7308 84.3418 39.722 84.847C39.7133 85.7074 39.7046 86.5546 39.6958 87.4005C39.6842 88.6903 39.6958 89.9496 39.7075 91.2205L39.738 95.1512C39.7541 98.2564 39.7686 101.375 39.8021 104.448C39.8356 107.521 39.8894 110.571 39.9331 113.638C39.9637 116.466 39.9943 119.326 40.0248 122.187C40.0413 123.765 40.0569 125.338 40.0714 126.907C40.0802 127.692 40.0879 128.477 40.0947 129.262C40.0947 129.655 40.102 130.048 40.1064 130.441V131.032C40.1019 131.235 40.113 131.437 40.1398 131.638C40.218 132.153 40.46 132.63 40.8299 132.997C41.1999 133.364 41.6781 133.602 42.194 133.676C42.2786 133.691 42.3643 133.699 42.4502 133.699C42.5376 133.699 42.6176 133.699 42.7006 133.699H43.1956L47.1714 133.713L55.0196 133.759C60.6667 133.787 66.2803 133.798 71.9215 133.8C77.7287 133.8 83.5403 133.678 89.3562 133.689C93.0991 133.689 96.8114 133.765 100.532 133.756C105.734 133.798 110.193 133.714 116.377 133.73C117.734 133.73 119.008 133.73 119.943 133.707C120.877 133.683 121.473 133.651 121.474 133.6C121.476 133.549 120.892 133.519 119.973 133.5C119.055 133.481 117.771 133.474 116.377 133.475C108.394 133.475 104.687 133.303 97.2088 133.292L83.2972 133.264C79.4975 133.264 75.727 133.175 71.904 133.178C66.6631 133.178 65.8202 133.193 63.8462 133.159C60.8312 133.107 58.7203 133.024 56.0809 133.014C53.0849 133.001 50.0233 132.998 47.0302 133.014L42.7414 133.036H42.5405H42.4895C42.4217 133.036 42.354 133.03 42.2872 133.018L42.1867 133.004L42.0877 132.979C42.0223 132.962 41.9581 132.941 41.8955 132.916C41.6405 132.818 41.4125 132.66 41.2302 132.456C41.0453 132.255 40.9115 132.012 40.8401 131.749C40.8204 131.683 40.8058 131.617 40.7964 131.549C40.7964 131.516 40.7848 131.482 40.7819 131.449V131.345C40.7819 131.287 40.7819 131.187 40.7819 131.099V130.83C40.7819 127.961 40.7935 125.094 40.8284 122.255C40.859 119.692 40.8852 117.097 40.8794 114.518C40.8794 111.667 40.9143 108.872 40.9129 106.027C40.9129 103.158 40.9245 100.376 40.8721 97.5227C40.827 95.0362 40.8561 92.5045 40.8153 90.0325C40.7964 88.9232 40.7848 87.8066 40.7775 86.6842C40.7775 86.6172 40.7775 86.5517 40.7775 86.4848C40.7964 85.7088 40.8095 84.9081 40.8212 84.0972C40.8212 83.6925 40.826 83.2854 40.8357 82.8758V82.3299L40.843 82.2775H40.8838H40.9085H41.1443L44.9891 82.311C47.5703 82.3255 48.4831 82.311 50.8589 82.2804L55.733 82.2338C56.9922 82.2207 58.2399 82.2586 59.6112 82.2338C62.0482 82.2003 64.4445 82.1203 66.8801 82.0882H70.6797L76.6034 82.1232L89.2092 82.2047C93.2607 82.2236 97.3282 82.1916 101.332 82.1566L112.713 82.1013L118.065 82.0795H123.373L123.403 84.5034C123.416 85.4555 123.429 86.409 123.426 87.3611C123.426 89.0586 123.426 90.7571 123.426 92.4565C123.426 96.1964 123.501 99.7253 123.488 103.462C123.488 105.464 123.464 107.457 123.488 109.415C123.506 111.073 123.633 113.023 123.633 114.685C123.633 117.562 123.643 120.415 123.648 123.304C123.656 124.914 123.662 126.361 123.67 127.793C123.67 128.512 123.68 129.232 123.684 129.977C123.684 130.347 123.684 130.721 123.684 131.102C123.684 131.198 123.684 131.294 123.684 131.385C123.681 131.477 123.671 131.569 123.655 131.66C123.625 131.845 123.569 132.025 123.489 132.196C123.365 132.466 123.19 132.709 122.974 132.913C122.775 133.1 122.546 133.251 122.297 133.36C122.109 133.44 121.914 133.5 121.714 133.539C121.569 133.563 121.474 133.583 121.47 133.603C121.465 133.624 121.519 133.647 121.639 133.657C121.819 133.664 121.999 133.644 122.173 133.596C122.456 133.517 122.722 133.385 122.956 133.207C123.104 133.094 123.239 132.965 123.358 132.823C123.493 132.662 123.608 132.484 123.699 132.295Z" fill="#063844"/>
<path d="M40.2185 120.882H123.808V130.865C123.808 131.592 123.519 132.288 123.005 132.802C122.492 133.316 121.795 133.605 121.068 133.605H43.3994C42.5558 133.605 41.7467 133.27 41.1501 132.673C40.5536 132.077 40.2185 131.267 40.2185 130.424V120.882Z" fill="#BADFD8"/>
<path d="M123.808 81.9849H40.2185V32.358C40.2185 31.7402 40.4639 31.1477 40.9007 30.7109C41.3375 30.2741 41.93 30.0287 42.5477 30.0287H121.479C122.096 30.0287 122.689 30.2741 123.126 30.7109C123.562 31.1477 123.808 31.7402 123.808 32.358V81.9849Z" fill="#F7F4F2"/>
<path d="M123.921 79.3237C123.936 76.2825 123.951 73.2486 123.965 70.1943C123.965 67.3046 123.926 64.5516 123.921 61.6589C123.921 60.1871 123.942 56.766 123.948 55.2942C123.948 53.9126 123.948 51.477 123.948 50.11C123.964 47.4517 123.894 47.6061 123.91 44.9478C123.933 42.2647 123.956 39.5991 123.98 36.9176C123.987 35.5258 123.994 34.1224 124 32.719C124 32.5414 124 32.3769 123.993 32.1804C123.98 31.99 123.946 31.8015 123.892 31.6184C123.779 31.2539 123.586 30.9192 123.327 30.6387C123.07 30.3567 122.751 30.1384 122.394 30.001C122.306 29.9651 122.216 29.9354 122.123 29.9122L121.985 29.8773L121.84 29.854C121.746 29.8387 121.652 29.8299 121.557 29.8278C121.46 29.8278 121.378 29.8278 121.289 29.8278L113.361 29.7943C110.5 29.7812 107.659 29.755 104.791 29.7623L94.5069 29.8118C91.4293 29.8292 88.4274 29.8205 85.3688 29.7928C80.3171 29.723 75.3237 29.6327 70.342 29.5395C67.113 29.4813 63.8665 29.4362 60.5808 29.394C58.4335 29.3677 56.2585 29.3459 54.0806 29.3401H52.5928L48.0798 29.3532C47.103 29.3459 46.1159 29.3532 45.126 29.3648L43.6381 29.3896L42.8928 29.4041L42.5128 29.4143L42.277 29.4303C42.1998 29.4303 42.1227 29.4536 42.0455 29.4667C41.7392 29.5259 41.4444 29.6335 41.172 29.7856C40.9006 29.9406 40.655 30.1371 40.4441 30.3679C40.0253 30.8254 39.7654 31.406 39.7031 32.0231C39.6915 32.0974 39.6944 32.1687 39.69 32.2502V32.3638V32.457L39.6973 32.8267C39.6973 33.0728 39.7075 33.3188 39.7118 33.5648C39.7206 34.0554 39.7279 34.546 39.7351 35.0323C39.7424 35.5185 39.7351 36.0513 39.7264 36.558C39.7177 37.4169 39.7089 38.2642 39.7002 39.1114C39.6885 40.4013 39.7002 41.6606 39.7118 42.93L39.7424 46.8607C39.7584 49.9659 39.773 53.0857 39.8065 56.1575C39.8399 59.2292 39.8938 62.2806 39.9375 65.3494C39.9681 68.1751 39.9986 71.0358 40.0292 73.8964C40.0569 76.6435 40.0831 79.3659 40.1093 82.1072L41.5651 82.0941C44.2321 82.0824 46.8322 82.0853 49.5094 82.0941L57.3576 82.1407C63.0047 82.1683 68.6183 82.18 74.2595 82.1814C80.0667 82.1814 85.8783 82.0591 91.6942 82.0708C95.4371 82.0708 99.1494 82.1465 102.87 82.1363C108.072 82.18 112.531 82.0955 118.715 82.1115C120.072 82.1115 121.346 82.1115 122.281 82.0868C123.215 82.062 123.811 82.0329 123.812 81.982C123.814 81.931 123.23 81.9005 122.311 81.8815C121.393 81.8626 120.109 81.8553 118.715 81.8553C110.732 81.8626 107.025 81.685 99.5469 81.6734L85.6352 81.6457C81.8355 81.6457 78.065 81.5569 74.2421 81.5598C69.0012 81.5598 68.1583 81.5743 66.1842 81.5394C63.1692 81.4885 61.0583 81.4055 58.4189 81.3938C55.4229 81.3793 52.3613 81.3778 49.3682 81.3938L44.8028 81.4157L40.7819 81.4244C40.7819 80.2666 40.7857 79.1121 40.7935 77.961C40.8051 76.6236 40.8168 75.2906 40.8284 73.9619C40.859 71.3983 40.8852 68.8055 40.8794 66.2243C40.8794 63.3739 40.9143 60.5787 40.9129 57.7341C40.9129 54.8647 40.9245 52.0827 40.8721 49.2307C40.827 46.7442 40.8561 44.2126 40.8153 41.7392C40.7969 40.6299 40.7843 39.5137 40.7775 38.3908C40.7775 38.3239 40.7775 38.2583 40.7775 38.1914C40.8226 36.3396 40.8386 34.3539 40.8576 32.4191V32.3609C40.8576 32.342 40.8576 32.3303 40.8576 32.3143V32.2284C40.8616 32.1712 40.8694 32.1143 40.8808 32.0581C40.9023 31.9452 40.9355 31.835 40.9798 31.7291C41.067 31.5156 41.1985 31.323 41.3656 31.1642C41.5326 31.0041 41.7309 30.8802 41.948 30.8003C42.0009 30.7794 42.0554 30.7628 42.111 30.7508C42.1661 30.734 42.2226 30.7223 42.2799 30.7158L42.3643 30.7042H42.4517H42.5376H42.6584C45.2395 30.7173 46.1523 30.7042 48.5282 30.6736L53.4022 30.627C54.6615 30.6139 55.9091 30.6518 57.2805 30.627C59.7175 30.5935 62.1138 30.5135 64.5493 30.4814H68.349L74.2726 30.5149L86.8784 30.5979C90.9299 30.6168 94.9975 30.5833 99.0009 30.5499L110.382 30.4945C113.937 30.4742 117.525 30.4611 121.106 30.4727H121.483L121.637 30.48C121.69 30.48 121.739 30.4945 121.783 30.5004C121.986 30.5344 122.182 30.5997 122.365 30.694C122.735 30.8912 123.032 31.202 123.212 31.5806C123.3 31.771 123.357 31.9738 123.383 32.1818L123.393 32.339C123.393 32.3929 123.393 32.4628 123.393 32.5239V32.9039C123.393 33.4105 123.4 33.923 123.393 34.4238C123.393 36.1212 123.393 37.8231 123.393 39.5191C123.393 43.259 123.467 46.7879 123.454 50.525C123.454 52.5267 123.431 54.5197 123.454 56.4792C123.473 58.1359 123.6 60.0867 123.6 61.7477C123.6 64.6259 123.61 67.4793 123.614 70.3661C123.63 73.5878 123.642 76.1311 123.656 79.3295C123.656 80.5655 123.69 81.9674 123.767 81.9893C123.91 82.014 123.921 81.0124 123.921 79.3237Z" fill="#063844"/>
<path d="M71.808 89.8186H48.6825V114.617H71.808V89.8186Z" fill="white"/>
<path d="M71.9215 114.039C71.9215 113.381 71.9535 112.729 71.9594 112.06C71.9652 111.434 71.9652 110.808 71.9594 110.182C71.9594 109.862 72.0074 109.191 72.0089 108.872C72.0103 108.553 72.0089 108.045 72.0089 107.75C72.0234 107.167 72.0613 107.167 72.0758 106.585C72.0904 106.003 72.118 105.42 72.1384 104.845C72.1588 104.27 72.1559 103.63 72.1632 103.026C72.1734 102.443 72.1821 101.88 72.1923 101.308C72.2039 100.688 72.2272 100.072 72.22 99.4502C72.22 98.7077 72.1952 97.9638 72.1777 97.2213C72.1617 96.5546 72.1705 95.9038 72.1937 95.2414C72.2549 94.1467 72.3393 93.0577 72.4165 91.9848C72.4412 91.6339 72.4645 91.2846 72.4849 90.9322L72.4995 90.6673V90.5974V90.4722L72.5067 90.2189C72.5155 89.8734 72.5247 89.5274 72.5344 89.1809C72.5344 89.1445 72.5344 89.1081 72.5344 89.0703L70.4366 89.0251H70.1134C69.4641 89.0251 68.8206 89.0426 68.1772 89.0543C67.426 89.0674 66.6777 89.0819 65.9352 89.1154L62.5389 89.2785L60.9375 89.3425L59.6869 89.3629C59.0901 89.3716 58.4975 89.3891 57.9021 89.408L55.1361 89.5085C54.7372 89.5085 54.3412 89.5085 53.9409 89.5085C53.5041 89.5085 53.0674 89.5216 52.6306 89.5347C52.0571 89.5492 51.4825 89.5584 50.907 89.5623H50.0422H49.0887H48.4015L48.3913 90.6178L48.3768 91.4156C48.3651 91.9484 48.3506 92.4783 48.3287 93.0097C48.3055 93.592 48.2894 94.1612 48.288 94.7479C48.2865 95.3346 48.2967 95.8922 48.2996 96.4643C48.2996 97.0801 48.3127 97.7017 48.3084 98.319C48.304 98.9363 48.2923 99.5302 48.2749 100.14C48.2574 100.431 48.2385 100.731 48.2166 101.027L48.1424 101.983C48.0798 102.832 48.039 103.688 48.0143 104.554C47.9939 105.262 47.9881 105.982 47.9881 106.691C47.9881 107.45 48.0216 108.191 48.0478 108.939C48.0478 109.222 48.0478 109.5 48.039 109.783C48.0318 109.97 48.0245 110.153 48.0172 110.337C48.0056 110.616 48.0172 110.888 48.0259 111.164L48.0536 112.015L48.0754 113.026C48.0871 113.414 48.0987 113.796 48.1104 114.171C48.121 114.494 48.1312 114.816 48.1409 115.135L49.3056 115.093H49.4512H49.5385L49.7132 115.083L50.0655 115.062C50.677 115.029 51.2971 115.004 51.9173 114.981L53.9627 114.901C54.545 114.89 55.1041 114.893 55.6835 114.901L57.3853 114.941C58.6082 114.966 59.8252 114.976 61.0481 114.978C62.3059 114.978 63.5652 114.87 64.8259 114.88C65.6368 114.88 66.4419 114.87 67.2484 114.861C68.3752 114.899 69.3418 114.716 70.6812 114.736C71.2635 114.736 71.7847 114.71 71.7861 114.621C71.7876 114.532 71.2853 114.509 70.6812 114.51C68.9517 114.51 68.1481 114.465 66.5278 114.455C65.7591 114.455 64.9002 114.508 63.5128 114.508C62.6888 114.508 61.8706 114.429 61.0379 114.432C59.9009 114.432 59.719 114.443 59.291 114.414C58.6373 114.369 58.1802 114.295 57.608 114.285C56.9588 114.273 56.2978 114.272 55.6456 114.285C54.4111 114.314 53.1562 114.331 51.926 114.27C51.3714 114.243 50.808 114.221 50.249 114.225C49.9811 114.225 49.7161 114.225 49.4497 114.216C49.3129 114.216 49.1979 114.2 49.0756 114.197C49.0756 114.16 49.0756 114.122 49.0756 114.084C49.0756 113.871 49.0756 113.663 49.0756 113.454C49.0756 113.148 49.0639 112.844 49.0406 112.533C49.0013 111.995 49.0261 111.446 48.9897 110.91C48.9737 110.67 48.9635 110.428 48.9577 110.182V110.139C48.997 109.737 49.0115 109.307 49.029 108.888C49.0406 108.613 49.0508 108.335 49.0581 108.054C49.0712 107.448 49.0581 106.843 49.0406 106.24C49.0232 105.637 49.0203 105.048 49.0101 104.454C49.0101 104.219 49.0101 103.985 48.9999 103.751L49.0159 103.628C49.1207 102.784 49.0756 101.881 49.0785 101.008C49.0784 100.946 49.0726 100.884 49.061 100.823C49.061 99.5229 49.061 98.2258 49.0828 96.9214C49.093 96.1688 49.1163 95.4205 49.1367 94.6693C49.1571 93.9181 49.1731 93.1946 49.1993 92.4608C49.2212 92.043 49.2444 91.6267 49.2663 91.2103L49.3012 90.6003C49.31 90.5729 49.3227 90.5469 49.3391 90.5232L49.3478 90.513C49.3771 90.5223 49.4058 90.5334 49.4337 90.5465H49.4628H49.5531H49.7351L50.099 90.5566L51.5548 90.5872C52.5739 90.6105 53.5929 90.5465 54.5829 90.4999L55.813 90.4373C56.34 90.4373 56.8889 90.4649 57.4144 90.4213C57.9967 90.3747 58.547 90.2669 59.1294 90.2422C59.684 90.2189 60.2445 90.2422 60.7963 90.2014C61.3043 90.1679 61.8517 90.1345 62.3656 90.1359L63.2202 90.1505C63.4939 90.1505 63.7545 90.1214 64.0267 90.1126L65.1811 90.066C65.9658 90.0952 66.7505 90.1272 67.5366 90.1403C68.2645 90.1519 68.9997 90.1403 69.7203 90.1155L70.5327 90.0821L70.9374 90.0646L71.2285 90.0486L71.5386 90.0369L71.5576 90.5421C71.5576 90.7051 71.5576 90.8682 71.5648 91.0312V91.5408C71.5648 91.9688 71.5459 92.3997 71.5357 92.8248C71.5124 93.7361 71.4789 94.646 71.4629 95.5559C71.4455 96.4294 71.4746 97.316 71.5052 98.1763C71.5328 98.9959 71.5314 99.8199 71.5546 100.642C71.5707 101.413 71.5823 102.19 71.5736 102.972C71.5736 103.408 71.6274 103.845 71.6202 104.291C71.6129 104.658 71.6202 105.019 71.6202 105.394C71.6202 106.205 71.5852 107.01 71.5736 107.821C71.5736 108.258 71.5532 108.686 71.5736 109.111C71.5896 109.47 71.6274 109.852 71.6376 110.211C71.6478 110.835 71.6507 111.453 71.6522 112.079C71.6522 112.778 71.6886 113.328 71.6886 114.021C71.6886 114.289 71.7061 114.593 71.7745 114.604C71.8997 114.623 71.9215 114.406 71.9215 114.039Z" fill="#063844"/>
<path d="M60.5313 104.955C63.2722 104.955 65.4941 102.733 65.4941 99.9918C65.4941 97.2509 63.2722 95.0289 60.5313 95.0289C57.7904 95.0289 55.5685 97.2509 55.5685 99.9918C55.5685 102.733 57.7904 104.955 60.5313 104.955Z" fill="#FFD58E"/>
<path d="M65.5422 99.801C65.5422 99.6933 65.5349 99.5856 65.5334 99.4764C65.532 99.3672 65.5101 99.2595 65.4956 99.1518C65.465 98.9469 65.4198 98.7445 65.3602 98.5461C65.334 98.4457 65.2743 98.2302 65.2394 98.1298C65.1968 98.0138 65.1482 97.9001 65.0938 97.7891C65.0546 97.6661 65.006 97.5464 64.9482 97.431L64.8026 97.1748C64.7575 97.0889 64.6993 97.0103 64.6454 96.9287C64.59 96.8429 64.5297 96.7602 64.4649 96.6813L64.2625 96.4512C64.229 96.4163 64.1985 96.3784 64.165 96.3435L64.0602 96.2431L63.8491 96.0451C63.7719 95.9737 63.6875 95.9126 63.6074 95.8456C63.5272 95.7777 63.4421 95.7159 63.3526 95.6607L63.0251 95.4729C62.913 95.4147 62.7951 95.3681 62.6815 95.3172L62.5359 95.2488L62.3787 95.1905C62.2754 95.1512 62.1734 95.109 62.0686 95.0653C61.8939 95.0056 61.7207 94.9372 61.5431 94.8819C61.3655 94.8266 61.1835 94.78 61.0001 94.7465C60.76 94.7012 60.5164 94.6769 60.2722 94.6737H60.0247C59.9432 94.6737 59.8602 94.6897 59.7786 94.6999L59.6665 94.7159C59.4431 94.7551 59.2227 94.8101 59.0071 94.8804C58.8819 94.9183 58.761 94.9736 58.6402 95.026C58.5791 95.0522 58.5194 95.0755 58.4597 95.1032L58.2894 95.1963L58.0317 95.3419C57.9502 95.3958 57.8701 95.454 57.79 95.5108C57.7099 95.5676 57.6284 95.62 57.5556 95.6855L57.3329 95.8762L57.2295 95.965C57.1961 95.997 57.1655 96.0305 57.132 96.0625L56.9413 96.2576C56.8895 96.3058 56.8408 96.3574 56.7957 96.4119L56.6501 96.5735C56.52 96.7276 56.4008 96.8905 56.2934 97.0612C56.2076 97.1922 56.1479 97.3349 56.0678 97.4703C55.9877 97.6057 55.9441 97.7542 55.88 97.8954C55.8248 98.0169 55.7762 98.1413 55.7344 98.2681C55.7082 98.338 55.6849 98.4064 55.6631 98.4763C55.6413 98.5461 55.6311 98.6218 55.6165 98.6903L55.5466 98.9567L55.5059 99.2478C55.4957 99.3439 55.4724 99.4371 55.4695 99.539L55.452 99.8302L55.4418 99.9845C55.4418 100.037 55.4418 100.088 55.4418 100.14L55.4505 100.449C55.4505 100.554 55.4709 100.654 55.4782 100.758C55.4855 100.861 55.4971 100.964 55.5131 101.068C55.5292 101.171 55.5524 101.258 55.5714 101.359C55.5895 101.458 55.6158 101.555 55.65 101.65C55.7113 101.833 55.7852 102.011 55.8713 102.184L56.0096 102.464L56.1726 102.73C56.2702 102.912 56.3983 103.069 56.5118 103.243C56.5628 103.33 56.6297 103.404 56.6865 103.487C56.7433 103.57 56.8088 103.669 56.8831 103.751C56.9791 103.858 57.0796 103.968 57.1829 104.074C57.2863 104.18 57.4086 104.267 57.5251 104.365C57.6237 104.439 57.7262 104.507 57.8322 104.57L57.9895 104.669C58.0433 104.698 58.1001 104.723 58.1554 104.751C58.2726 104.809 58.3926 104.861 58.515 104.907L58.8848 105.023C58.9765 105.058 59.0711 105.075 59.1643 105.106L59.3463 105.166C59.4382 105.193 59.5329 105.21 59.6287 105.217L59.9199 105.247C60.0355 105.257 60.1517 105.262 60.2678 105.26C60.3829 105.266 60.4982 105.263 60.6128 105.252C60.8396 105.231 61.0644 105.193 61.2854 105.138C61.3859 105.113 61.4892 105.093 61.5897 105.067L61.8896 104.971L62.0526 104.918L62.2113 104.848L62.5243 104.711C62.6097 104.668 62.6956 104.626 62.782 104.585C62.8679 104.543 62.9581 104.508 63.0411 104.457C63.2097 104.37 63.3726 104.273 63.5288 104.166L63.7807 103.988C63.8593 103.922 63.9364 103.853 64.0136 103.786C64.1685 103.65 64.3144 103.504 64.4503 103.349C64.52 103.269 64.5833 103.184 64.6396 103.094C64.6964 103.004 64.7619 102.921 64.8099 102.826C64.906 102.637 65.0152 102.458 65.1011 102.264C65.2202 102.023 65.3177 101.772 65.3922 101.513C65.4451 101.339 65.4798 101.16 65.4956 100.979C65.4956 100.887 65.5043 100.792 65.5116 100.695C65.5116 100.647 65.5203 100.597 65.5262 100.549C65.532 100.501 65.5262 100.445 65.5334 100.389C65.5465 100.196 65.5334 100.025 65.4956 100.027C65.4577 100.028 65.4301 100.187 65.4213 100.38C65.3892 100.824 65.2875 101.261 65.12 101.673C65.0749 101.787 65.0457 101.916 64.9744 102.056C64.9066 102.23 64.8233 102.397 64.7255 102.555C64.6588 102.669 64.5808 102.776 64.4925 102.874C64.4023 102.973 64.3251 103.078 64.2349 103.176L63.9917 103.446C63.9475 103.492 63.8987 103.534 63.8462 103.57C63.7617 103.633 63.6875 103.681 63.6161 103.727C63.5448 103.774 63.4706 103.81 63.3978 103.863C63.2347 103.986 63.0542 104.09 62.8839 104.202C62.802 104.256 62.7164 104.305 62.6277 104.348C62.5403 104.391 62.4559 104.441 62.3642 104.476C62.2724 104.511 62.1793 104.541 62.0861 104.572C62.0395 104.586 61.9944 104.604 61.9478 104.615L61.8022 104.642C61.7163 104.658 61.6304 104.672 61.5445 104.691C61.4586 104.71 61.3713 104.713 61.2854 104.73C61.1995 104.748 61.0947 104.758 60.9942 104.765C60.8938 104.773 60.8035 104.765 60.7031 104.765C60.5095 104.784 60.3231 104.757 60.128 104.774C60.0433 104.779 59.9582 104.774 59.8747 104.758C59.7908 104.745 59.7062 104.736 59.6214 104.732C59.5452 104.728 59.4695 104.717 59.3958 104.697H59.3827C59.3244 104.671 59.2618 104.649 59.2007 104.627C59.1369 104.608 59.0746 104.584 59.0143 104.556C58.9357 104.521 58.8571 104.486 58.7756 104.454C58.6941 104.422 58.6024 104.38 58.5165 104.339L58.2573 104.225C58.1758 104.183 58.0957 104.135 58.0142 104.088C57.9317 104.045 57.8519 103.996 57.7755 103.943L57.5964 103.815L57.5702 103.786C57.477 103.691 57.3882 103.585 57.2863 103.494C57.1828 103.404 57.0855 103.307 56.9951 103.203C56.9823 103.189 56.967 103.176 56.95 103.167L56.8467 103.055L56.7564 102.932L56.5759 102.689L56.4216 102.427L56.3444 102.296L56.2818 102.151C56.2338 102.043 56.1828 101.938 56.1362 101.829L56.0299 101.496C55.9921 101.389 55.979 101.274 55.9513 101.164C55.9247 101.054 55.9067 100.942 55.8975 100.829C55.8975 100.701 55.8756 100.574 55.8771 100.446L55.8946 100.066C55.9091 99.9204 55.9324 99.7603 55.9441 99.6074C55.9557 99.4546 55.9994 99.3046 56.0241 99.1532C56.0489 99.0018 56.0984 98.862 56.1246 98.7077C56.1508 98.5534 56.2046 98.4166 56.2425 98.271C56.2789 98.1516 56.3298 98.0381 56.3721 97.9201L56.4259 97.811L56.4914 97.7076C56.5354 97.6395 56.5739 97.5679 56.6065 97.4936C56.6741 97.328 56.7534 97.1675 56.8437 97.0132C56.9515 96.8793 57.0708 96.7511 57.1815 96.6172C57.2862 96.4909 57.4021 96.3745 57.528 96.2693L57.7478 96.1135C57.8119 96.0584 57.8789 96.0069 57.9487 95.9592C58.0506 95.8922 58.1438 95.8136 58.2501 95.7525L58.5951 95.6069C58.7101 95.5617 58.8309 95.5312 58.9474 95.489C59.0012 95.4715 59.0537 95.4496 59.109 95.4351L59.2749 95.3914C59.3856 95.3638 59.4933 95.3201 59.604 95.2982L59.8543 95.2444C59.9375 95.2224 60.0222 95.2068 60.1077 95.1978L60.4745 95.1643C60.5822 95.1643 60.6885 95.1643 60.7977 95.173L61.0015 95.1891L61.201 95.2284C61.3438 95.2512 61.4848 95.2838 61.6232 95.3259L61.8299 95.39C61.899 95.4082 61.9666 95.4316 62.0322 95.4598C62.1603 95.5137 62.2928 95.553 62.4209 95.6054C62.549 95.6578 62.6757 95.7146 62.8024 95.7685C62.929 95.8223 63.0309 95.8937 63.143 95.9577C63.2551 96.0218 63.3585 96.1033 63.4691 96.1775C63.5186 96.2125 63.571 96.246 63.6147 96.2853L63.7603 96.4061C63.8557 96.4848 63.9448 96.571 64.0267 96.6638C64.1155 96.7715 64.2407 96.8487 64.3178 96.9637C64.395 97.0787 64.4634 97.1529 64.5289 97.2548C64.6706 97.4712 64.7929 97.6997 64.8943 97.9376L64.9788 98.1254C65.0035 98.1895 65.0254 98.255 65.0545 98.3161C65.1089 98.4206 65.1575 98.528 65.2001 98.6379C65.2601 98.8283 65.3058 99.0229 65.3369 99.2202C65.3544 99.3323 65.3748 99.4298 65.3937 99.5288C65.4126 99.6278 65.4126 99.7283 65.4184 99.8404C65.4184 99.9262 65.4359 100.024 65.4708 100.027C65.5058 100.03 65.548 99.9219 65.5422 99.801Z" fill="#063844"/>
<path d="M68.6299 114.615H52.4341V110.401C52.4343 109.824 52.5481 109.253 52.7691 108.72C52.99 108.188 53.3137 107.704 53.7217 107.296C54.1298 106.889 54.6141 106.566 55.147 106.346C55.68 106.125 56.2511 106.012 56.8277 106.013H64.2523C65.4159 106.013 66.5318 106.476 67.3545 107.299C68.1773 108.121 68.6397 109.237 68.6401 110.401L68.6299 114.615Z" fill="#FFD58E"/>
<path d="M68.6867 114.34C68.6867 114.026 68.7027 113.711 68.7056 113.394V112.496C68.7056 112.35 68.7304 112.022 68.7304 111.87C68.7304 111.717 68.7304 111.474 68.7304 111.332C68.7377 111.057 68.7566 111.054 68.7639 110.779L68.777 110.361V109.925C68.7595 109.779 68.7391 109.625 68.7173 109.476L68.6081 109.04L68.4625 108.636C68.4057 108.505 68.3446 108.376 68.2864 108.246C68.2281 108.117 68.1335 107.977 68.0564 107.841C67.9792 107.706 67.8773 107.59 67.7812 107.467C67.538 107.186 67.2613 106.936 66.9572 106.722C66.8247 106.621 66.6821 106.538 66.5423 106.453C66.4026 106.367 66.2512 106.297 66.1056 106.217C65.6164 105.965 65.0883 105.797 64.5435 105.72L64.2756 105.69C64.1868 105.68 64.1068 105.677 64.0209 105.671L63.5128 105.643C63.29 105.632 63.0659 105.621 62.8402 105.618H62.6844L61.7585 105.633C61.4004 105.633 61.0423 105.646 60.6871 105.664L59.0638 105.745L58.2981 105.777L57.6998 105.787C57.4086 105.787 57.1305 105.8 56.8467 105.811C56.3887 105.83 55.9355 105.912 55.5 106.055C55.4054 106.084 55.3152 106.124 55.222 106.157C55.1283 106.188 55.0369 106.226 54.9483 106.269L54.6571 106.415L54.3863 106.589C53.9169 106.906 53.504 107.3 53.1649 107.754C52.8019 108.246 52.5352 108.802 52.3788 109.393C52.3039 109.672 52.261 109.959 52.2507 110.248C52.2405 110.393 52.2507 110.526 52.2507 110.663V111.073C52.2507 111.364 52.2507 111.664 52.2507 111.96C52.2507 112.255 52.2419 112.542 52.2332 112.833C52.2245 112.979 52.2143 113.125 52.2041 113.258C52.1939 113.392 52.1793 113.563 52.1677 113.716L52.1371 114.164V114.219V114.317V114.516C52.1371 114.653 52.1298 114.79 52.1269 114.928L52.7093 114.94L53.2756 114.95H53.7866C54.149 114.95 54.5028 114.933 54.8609 114.92C54.9963 114.92 55.1288 114.92 55.2642 114.92L55.5292 114.931C55.6631 114.931 55.7927 114.931 55.9251 114.931L56.3313 114.917C56.653 114.917 56.9762 114.904 57.295 114.889L58.2471 114.832C58.5383 114.815 58.8295 114.803 59.1323 114.791L60.1106 114.751C60.3872 114.751 60.6565 114.751 60.9346 114.751L61.7469 114.771C62.3292 114.784 62.9115 114.789 63.4939 114.79C64.0762 114.791 64.6978 114.736 65.3005 114.74C65.6878 114.74 66.0721 114.74 66.4652 114.732C67.0038 114.751 67.4668 114.662 68.1073 114.669C68.3883 114.669 68.6343 114.656 68.6358 114.611C68.6372 114.566 68.3956 114.556 68.1073 114.556C67.2804 114.556 66.8961 114.532 66.1216 114.528C65.7533 114.528 65.3427 114.554 64.6803 114.554C64.2858 114.554 63.8957 114.515 63.4997 114.516C62.9567 114.516 62.8693 114.516 62.6641 114.508C62.3525 114.486 62.1341 114.448 61.8604 114.443C61.5504 114.443 61.233 114.443 60.9215 114.443C60.3319 114.458 59.7321 114.467 59.1439 114.443C58.8775 114.43 58.6096 114.419 58.3418 114.422C58.0506 114.422 57.7594 114.407 57.4683 114.407C57.1771 114.407 56.886 114.407 56.5875 114.425C56.3298 114.445 56.0678 114.425 55.8116 114.449C55.6966 114.458 55.5801 114.464 55.4651 114.467H55.4433C55.2525 114.446 55.0458 114.441 54.8464 114.432L54.4475 114.417C54.1563 114.417 53.8652 114.417 53.574 114.425L52.7733 114.441H52.6175V114.41L52.6248 114.372L52.6423 114.285V114.247C52.6423 114.232 52.6423 114.227 52.6423 114.195C52.6423 114.091 52.6496 113.986 52.6496 113.88C52.6496 113.669 52.6496 113.458 52.6496 113.251C52.6499 113.222 52.647 113.193 52.6408 113.164C52.6408 112.542 52.6408 111.922 52.6525 111.298C52.6525 111.118 52.6598 110.939 52.6627 110.759C52.6656 110.578 52.67 110.396 52.6874 110.232L52.7078 109.983L52.7515 109.73C52.7804 109.567 52.8217 109.407 52.8752 109.251C52.9978 108.901 53.1704 108.57 53.3877 108.269C53.6455 107.904 53.9532 107.577 54.3019 107.297C54.6468 107.021 55.0249 106.79 55.4272 106.608C55.5933 106.536 55.764 106.475 55.9382 106.425C56.1683 106.38 56.4085 106.352 56.6399 106.327L56.8306 106.295L57.0345 106.268C57.1713 106.25 57.3067 106.234 57.4464 106.227C57.7114 106.217 57.9793 106.227 58.2428 106.207C58.5063 106.186 58.7479 106.173 58.994 106.175H59.4016C59.5326 106.175 59.6578 106.16 59.7874 106.156L60.3391 106.132C60.7147 106.147 61.0903 106.163 61.4659 106.169C61.8124 106.169 62.1647 106.169 62.5068 106.157L63.2842 106.124L63.836 106.108C63.9976 106.108 64.1606 106.099 64.3208 106.108L64.6119 106.129C64.7124 106.129 64.8099 106.163 64.9031 106.177C65.0076 106.192 65.1107 106.215 65.2117 106.246C65.3136 106.276 65.4155 106.303 65.5145 106.338C65.7138 106.41 65.9083 106.494 66.0968 106.591L66.2322 106.659C66.2774 106.683 66.3196 106.712 66.3633 106.736C66.4491 106.79 66.5394 106.837 66.6238 106.892C66.7923 107.004 66.9537 107.126 67.1072 107.258C67.2521 107.381 67.3879 107.515 67.5133 107.658C67.5745 107.732 67.6313 107.804 67.6909 107.885L67.7797 107.999L67.8569 108.119L68.0025 108.347L68.1233 108.59L68.183 108.712C68.2005 108.753 68.215 108.796 68.231 108.839L68.3228 109.095C68.3504 109.194 68.3795 109.291 68.413 109.386C68.4276 109.436 68.4465 109.485 68.4582 109.532C68.4698 109.578 68.4771 109.634 68.4844 109.684L68.5222 109.941L68.5353 110.2C68.5499 110.389 68.5353 110.584 68.5353 110.782L68.5222 111.364C68.5222 111.573 68.512 111.779 68.5222 111.982C68.5295 112.154 68.5484 112.335 68.5542 112.509C68.5542 112.807 68.5542 113.103 68.5542 113.401C68.5542 113.735 68.5717 113.998 68.5717 114.33C68.5717 114.458 68.5804 114.604 68.6154 114.605C68.6503 114.607 68.6867 114.515 68.6867 114.34Z" fill="#063844"/>
<path d="M98.4899 93.2674C98.3109 93.2674 98.1318 93.2296 97.9513 93.2237C97.7708 93.2179 97.6194 93.263 97.449 93.2674C97.3617 93.2674 97.1579 93.2412 97.0734 93.2397C96.9716 93.2448 96.8696 93.2448 96.7677 93.2397C96.6105 93.2223 96.6221 93.2936 96.4635 93.2776C96.3048 93.2616 96.1476 93.2281 95.9903 93.2063C95.8331 93.1844 95.6584 93.1859 95.4939 93.1786C95.3294 93.1713 95.1838 93.1582 95.0266 93.1451C94.859 93.1243 94.6903 93.1136 94.5214 93.1131C94.3205 93.1218 94.1182 93.1408 93.9158 93.1611C93.7362 93.1779 93.5553 93.172 93.3772 93.1437C93.086 93.0738 92.7846 92.9835 92.4906 92.8904C92.2991 92.8317 92.1048 92.7831 91.9082 92.7448C91.7823 92.7163 91.6543 92.6978 91.5254 92.6895H91.4366L91.1847 92.6967C90.9547 92.6734 90.7159 92.8423 90.4859 92.8874L90.3957 92.8787C90.3447 92.8787 90.2952 92.8612 90.2501 92.8525C90.1748 92.845 90.0988 92.8484 90.0244 92.8627L89.793 92.8947C89.6095 92.9066 89.4268 92.9279 89.2456 92.9588C89.0636 92.9952 88.8845 93.0461 88.7026 93.0883C88.5206 93.1306 88.3677 93.1553 88.1989 93.1815C88.03 93.2077 87.8291 93.2456 87.6427 93.2732C87.4868 93.287 87.3299 93.287 87.174 93.2732C87.0197 93.2572 86.8653 93.2397 86.711 93.2266C86.3791 93.199 86.0472 93.1873 85.7153 93.1859C85.3833 93.1844 85.0296 93.3082 84.6875 93.2965C84.4662 93.2892 84.2507 93.2208 84.028 93.231C83.7223 93.1873 83.4588 93.2718 83.0948 93.2558C82.9347 93.2485 82.7935 93.2849 82.7935 93.3853C82.7935 93.4858 82.9303 93.5134 83.0948 93.512C83.565 93.5047 83.7834 93.6823 84.2245 93.694C84.4342 93.694 84.6613 93.7216 85.0441 93.7216C85.2683 93.7216 85.4911 93.8104 85.7167 93.8075C86.0253 93.8075 86.0748 93.7944 86.1913 93.8279C86.3387 93.8908 86.4918 93.9396 86.6484 93.9735C86.8262 93.9895 87.005 93.9895 87.1827 93.9735C87.5212 93.9271 87.8649 93.9325 88.2018 93.9895C88.3514 94.0257 88.505 94.0433 88.6589 94.0419C88.8263 94.0419 88.9908 94.0754 89.1582 94.0754C89.3268 94.088 89.4962 94.0742 89.6605 94.0346C89.8061 93.988 89.9517 94.0186 90.0972 93.9764C90.1619 93.9578 90.2282 93.9456 90.2952 93.94H90.3069C90.4168 93.9783 90.5305 94.0047 90.6461 94.0186C90.7218 94.0317 90.7916 94.0448 90.8732 94.0521C90.9894 94.0662 91.1074 94.0563 91.2197 94.023C91.2648 94.0113 91.4613 93.9837 91.5108 93.9764C91.5851 93.9618 91.6564 93.9997 91.7394 93.9764C91.885 93.9429 92.0305 93.8614 92.1761 93.8235C92.2504 93.8235 92.3217 93.8235 92.3989 93.8235C92.5168 93.8235 92.6332 93.8454 92.7482 93.857C92.9972 93.8832 93.2447 93.9211 93.4922 93.94C93.7315 93.9502 93.9712 93.9341 94.207 93.8919C94.4297 93.8599 94.6539 93.8614 94.8781 93.8352C95.0879 93.8131 95.2991 93.8063 95.5099 93.8148C95.6293 93.8148 95.7487 93.7522 95.868 93.7609C95.9874 93.7697 96.0689 93.7609 96.1694 93.7609C96.3892 93.7609 96.5974 93.6867 96.8172 93.6983C96.9342 93.7129 97.0525 93.7129 97.1695 93.6983C97.2671 93.6794 97.3821 93.5527 97.4796 93.5527C97.6485 93.5426 97.8174 93.5382 97.9877 93.5367C98.158 93.5353 98.3269 93.4945 98.5161 93.4945C98.5889 93.4945 98.6719 93.4625 98.6734 93.3853C98.6486 93.279 98.5889 93.2674 98.4899 93.2674Z" fill="#063844"/>
<path d="M68.4814 47.3716C68.2587 47.3716 68.0345 47.3542 67.8103 47.3513C67.5861 47.3484 67.394 47.3702 67.1814 47.3716C67.0722 47.3716 66.8204 47.3585 66.7126 47.3585C66.6049 47.3585 66.4317 47.3585 66.3298 47.3585C66.1347 47.3498 66.1463 47.3862 65.9498 47.3775C65.7533 47.3687 65.5567 47.3527 65.3587 47.3425C65.1608 47.3323 64.9453 47.3323 64.74 47.328C64.5348 47.3236 64.3513 47.3178 64.1577 47.3105C63.9641 47.3032 63.7384 47.2916 63.5273 47.2959C63.274 47.2959 63.0222 47.309 62.7689 47.3192C62.5447 47.328 62.3202 47.3251 62.0963 47.3105C61.7236 47.2756 61.3567 47.2304 60.9899 47.1838C60.7511 47.1547 60.5124 47.1329 60.2707 47.1125C60.112 47.0994 59.9519 47.0878 59.7917 47.0849H59.6811C59.5705 47.0849 59.4598 47.0849 59.3492 47.0849C59.058 47.0732 58.7669 47.1562 58.4757 47.1795H58.3636C58.301 47.1795 58.2384 47.1693 58.1758 47.1664C58.0822 47.1605 57.9884 47.1605 57.8948 47.1664L57.6037 47.1824C57.3751 47.1911 57.1451 47.1969 56.918 47.2144C56.6909 47.2319 56.4681 47.2581 56.241 47.2799C56.0139 47.3018 55.8232 47.312 55.6121 47.3265C55.401 47.3411 55.1492 47.3585 54.9177 47.3716C54.7212 47.3716 54.529 47.3716 54.3354 47.3716L53.7531 47.3469C53.3367 47.3338 52.9233 47.328 52.5084 47.328C52.0935 47.328 51.6523 47.3891 51.2243 47.3833C50.9477 47.3833 50.674 47.344 50.4004 47.3498C50.0175 47.328 49.6885 47.3702 49.2357 47.3615C49.0348 47.3615 48.8601 47.3775 48.8601 47.427C48.8601 47.4765 49.0304 47.491 49.2357 47.4896C49.818 47.4896 50.0961 47.5755 50.6464 47.5813C50.9084 47.5813 51.1996 47.5958 51.6654 47.5958C51.945 47.5958 52.223 47.6395 52.504 47.6381C52.702 47.6287 52.9004 47.6321 53.098 47.6482C53.3207 47.6745 53.475 47.7152 53.6701 47.721C53.8899 47.7283 54.1156 47.7298 54.3369 47.721C54.7578 47.698 55.1798 47.7004 55.6005 47.7283C55.7897 47.7443 55.9805 47.7574 56.1712 47.7545C56.3619 47.7516 56.5861 47.772 56.7957 47.772C57.0046 47.7783 57.2137 47.7715 57.4217 47.7516C57.6051 47.7283 57.7915 47.7429 57.9734 47.7225C58.0564 47.7123 58.138 47.7065 58.2209 47.7036H58.2355C58.3709 47.7254 58.5179 47.7341 58.6606 47.7429C58.7538 47.7502 58.8484 47.756 58.943 47.7603C59.0888 47.7679 59.2349 47.7625 59.3798 47.7443L59.7393 47.7225C59.8325 47.7152 59.9242 47.7341 60.0305 47.7225C60.2096 47.7065 60.3872 47.6657 60.5662 47.6468C60.6594 47.6468 60.7511 47.6468 60.8457 47.6468C60.9913 47.6468 61.1369 47.6584 61.2825 47.6643C61.5911 47.6759 61.9012 47.6948 62.2098 47.705C62.5185 47.7152 62.8082 47.6977 63.1037 47.6803C63.3992 47.6628 63.6613 47.6657 63.9408 47.6526C64.2203 47.6395 64.4678 47.6366 64.7313 47.6424C64.8769 47.6424 65.0297 47.6119 65.1797 47.6162C65.3034 47.6162 65.4301 47.6162 65.5538 47.6162C65.8304 47.6162 66.0896 47.5784 66.3647 47.5857C66.5103 47.5857 66.6559 47.5973 66.8014 47.5857C66.9237 47.5769 67.0679 47.5158 67.1901 47.5099C67.4027 47.5099 67.6123 47.5027 67.8249 47.5027C68.0622 47.5027 68.25 47.4808 68.4844 47.4808C68.5761 47.4808 68.6794 47.4648 68.6809 47.4255C68.6823 47.3862 68.6066 47.3716 68.4814 47.3716Z" fill="#063844"/>
<path d="M71.8822 51.4887C71.7235 51.4887 71.5648 51.4713 71.4047 51.4669C71.2446 51.4625 71.1019 51.4669 70.9505 51.4669C70.8733 51.4669 70.7117 51.4392 70.6346 51.4392C70.5574 51.4392 70.4337 51.4392 70.3623 51.4392C70.2168 51.432 70.2168 51.4101 70.0828 51.4014C69.9489 51.3926 69.8019 51.3766 69.6621 51.3664C69.5223 51.3563 69.3709 51.3563 69.2254 51.3519C69.0798 51.3475 68.9488 51.3417 68.8105 51.3344C68.6722 51.3271 68.5106 51.3155 68.3606 51.3199C68.1815 51.3199 68.0025 51.333 67.822 51.3432C67.6628 51.3519 67.5032 51.349 67.3445 51.3344C67.0795 51.2995 66.8175 51.2543 66.5569 51.2078C66.388 51.1786 66.2177 51.1568 66.0459 51.1364C65.9338 51.1233 65.8188 51.1117 65.7052 51.1088H65.6266C65.4708 51.1088 65.3151 51.1175 65.1593 51.1248C64.9773 51.1248 64.7968 51.1408 64.6177 51.1597C64.3426 51.1888 64.0704 51.2238 63.7967 51.2529L63.4094 51.2893L63.1066 51.3009C62.961 51.3009 62.8155 51.3155 62.6699 51.3271C62.4471 51.3431 62.2331 51.3679 62.0031 51.3839C61.907 51.3839 61.8109 51.3839 61.712 51.3839C61.613 51.3839 61.5009 51.3839 61.396 51.3985C61.1194 51.415 60.8414 51.4193 60.5619 51.4116C60.262 51.4028 59.9635 51.3941 59.6651 51.3664C59.5195 51.3533 59.387 51.3432 59.2458 51.3432C59.1046 51.3432 58.9692 51.3432 58.8309 51.3432C58.6926 51.3432 58.5325 51.3432 58.3825 51.3432C58.2326 51.3432 58.0914 51.3344 57.9458 51.3242C57.873 51.314 57.8002 51.3038 57.7303 51.2907L57.5003 51.2485C57.2946 51.2126 57.0871 51.1882 56.8787 51.1757C56.7069 51.1641 56.5337 51.1597 56.3619 51.1612C56.1901 51.1626 55.9994 51.1801 55.8189 51.1947C55.7504 51.1947 55.6835 51.1947 55.615 51.1947C55.5699 51.1947 55.5262 51.1845 55.4811 51.1816C55.4148 51.1757 55.348 51.1757 55.2817 51.1816L55.0808 51.2063C54.9192 51.215 54.7547 51.2209 54.5945 51.2383C54.4344 51.2558 54.2743 51.282 54.1127 51.3038C53.9511 51.3257 53.8215 51.3359 53.6657 51.3504C53.51 51.365 53.3367 51.3825 53.1708 51.3956C53.0325 51.4028 52.8941 51.4028 52.7558 51.3956L52.3439 51.3723C52.0527 51.3592 51.7543 51.3533 51.4587 51.3533C51.1632 51.3533 50.8502 51.4145 50.5459 51.4087C50.3494 51.4087 50.1558 51.4087 49.9636 51.4189C49.6914 51.397 49.457 51.4989 49.1338 51.4902C48.9882 51.4902 48.8674 51.5047 48.8674 51.5557C48.8674 51.6067 48.9882 51.6198 49.1338 51.6183C49.5516 51.6183 49.7467 51.6445 50.1383 51.6503C50.3232 51.6503 50.5314 51.6212 50.8662 51.6212C51.0657 51.6212 51.2622 51.6649 51.4631 51.6634C51.6038 51.6542 51.7451 51.6576 51.8853 51.6736C52.0191 51.7061 52.1547 51.7304 52.2914 51.7464C52.4495 51.7544 52.6079 51.7544 52.766 51.7464C53.0651 51.7234 53.3656 51.7258 53.6643 51.7537C53.7984 51.7718 53.9336 51.7806 54.069 51.7799C54.2146 51.7799 54.3601 51.7974 54.5145 51.7974C54.6633 51.8024 54.8123 51.7951 54.9599 51.7755C55.0895 51.7537 55.222 51.7755 55.3515 51.7479C55.4098 51.7379 55.4686 51.7316 55.5277 51.7289H55.5379C55.6374 51.7487 55.738 51.7619 55.8392 51.7682C55.9062 51.7755 55.9732 51.7813 56.0416 51.7857C56.1873 51.7903 56.3331 51.7869 56.4783 51.7755L56.9151 51.7581H57.0854L57.1145 51.7668C57.3229 51.808 57.536 51.8203 57.7478 51.8032C57.7629 51.8029 57.7778 51.7995 57.7915 51.793C58.1059 51.793 58.4204 51.793 58.7348 51.8061C58.9168 51.8061 59.0973 51.825 59.2793 51.8367C59.4613 51.8483 59.636 51.8571 59.8136 51.8716C60.0145 51.8964 60.2154 51.9226 60.4163 51.9517C60.6609 51.9866 60.9084 51.9924 61.1558 52.0055C61.3994 52.0085 61.6428 51.992 61.8837 51.956L62.1749 51.9196C62.3035 51.9299 62.4327 51.927 62.5607 51.9109C62.7063 51.8847 62.8344 51.8221 62.9756 51.809C63.1168 51.7959 63.2449 51.809 63.3788 51.7857C63.5039 51.7637 63.6304 51.751 63.7574 51.7479C63.8258 51.7479 63.9029 51.7551 63.9641 51.7566C64.0252 51.7581 64.0936 51.7391 64.1592 51.7348C64.2523 51.7348 64.3455 51.7144 64.4387 51.7086C64.6279 51.7246 64.8172 51.7435 65.0079 51.7508C65.1832 51.7561 65.3587 51.7513 65.5334 51.7362C65.6645 51.7246 65.7955 51.7086 65.9265 51.6984L66.206 51.6809C66.2875 51.6809 66.3676 51.6809 66.4506 51.6809C66.5336 51.6809 66.6588 51.6925 66.7607 51.6984C66.982 51.71 67.1974 51.7289 67.4216 51.7391C67.6335 51.7448 67.8455 51.7365 68.0563 51.7144C68.2543 51.6984 68.4538 51.6998 68.6518 51.6867C68.8498 51.6736 69.0259 51.6707 69.2137 51.6765C69.32 51.6765 69.4263 51.6445 69.5325 51.6503C69.6388 51.6561 69.7101 51.6503 69.7989 51.6503C69.9955 51.6503 70.1906 51.6707 70.3813 51.6765C70.485 51.6838 70.5891 51.6838 70.6928 51.6765C70.7802 51.6678 70.8719 51.646 70.9592 51.6401C71.1048 51.6401 71.2591 51.6329 71.4105 51.6329C71.5619 51.6329 71.7119 51.611 71.8793 51.611C71.9448 51.611 72.0176 51.6008 72.0249 51.563C72.0322 51.5251 71.9681 51.4887 71.8822 51.4887Z" fill="#063844"/>
<path d="M72.4514 55.6217C71.9928 55.6217 71.5328 55.5809 71.0742 55.5999C70.3114 55.6333 70.2604 55.5707 69.8237 55.5737C69.601 55.5737 69.0842 55.5605 68.8629 55.5605C68.6416 55.5605 68.2485 55.6115 68.0432 55.6071H67.9632C67.0897 55.5824 66.1827 55.4033 65.3748 55.4033C64.9074 55.4033 64.4503 55.447 63.9874 55.4674C63.5608 55.4878 63.1285 55.5009 62.6975 55.514L61.2723 55.5605C60.8705 55.5605 60.4774 55.5605 60.0742 55.5605L58.8891 55.5373C58.0375 55.5242 57.1902 55.5183 56.3386 55.5169C55.4651 55.5169 54.6761 55.6319 53.7982 55.6261C53.2333 55.6261 52.357 55.5795 51.795 55.5853C51.0103 55.5635 50.5619 55.629 49.6288 55.6202C49.2197 55.6202 48.8601 55.6348 48.8601 55.6857C48.8601 55.7367 49.208 55.7498 49.6288 55.7483C50.8342 55.7483 51.3932 55.7658 52.5215 55.7716C53.0572 55.7716 53.6555 55.7847 54.6222 55.7847C55.1943 55.7847 55.765 55.8299 56.3415 55.8284C57.132 55.8284 57.2586 55.8284 57.5571 55.8386C58.0128 55.8634 58.3301 55.9056 58.729 55.9114C59.1818 55.9187 59.6433 55.9187 60.0946 55.9114C60.9549 55.8954 61.8299 55.8852 62.6859 55.9201C63.0731 55.9361 63.4647 55.9492 63.8505 55.9463C64.2873 55.9463 64.7022 55.9653 65.1316 55.9624C66.3982 55.9624 67.8904 55.7804 68.1015 55.7775C68.4043 55.7775 68.7042 55.7891 69.0012 55.7775C69.2501 55.7673 69.5442 55.7775 69.796 55.7702C70.2328 55.7702 70.6608 55.7629 71.0961 55.7615C71.5823 55.7615 71.9696 55.7411 72.4485 55.7411C72.6363 55.7411 72.8474 55.7294 72.8503 55.6901C72.8532 55.6508 72.7062 55.6217 72.4514 55.6217Z" fill="#063844"/>
<path d="M61.3407 59.746C61.1951 59.746 61.0568 59.7286 60.9127 59.7257C60.7686 59.7227 60.6492 59.7446 60.5138 59.746C60.4454 59.746 60.2853 59.7344 60.2227 59.7329C60.1601 59.7315 60.0436 59.7329 59.9795 59.7329C59.8558 59.7242 59.8631 59.7606 59.7379 59.7519C59.6127 59.7431 59.4875 59.7271 59.3623 59.7169C59.2371 59.7067 59.1002 59.7067 58.9692 59.7024C58.8382 59.698 58.7217 59.6922 58.598 59.6849C58.4742 59.6776 58.3316 59.666 58.1962 59.6703C58.036 59.6703 57.8759 59.6834 57.7158 59.6936C57.5731 59.7024 57.43 59.6995 57.2878 59.6849C57.0505 59.65 56.8175 59.6048 56.5832 59.5582C56.4376 59.5291 56.2803 59.5073 56.126 59.4869C56.0251 59.4726 55.9236 59.4633 55.8218 59.4592H55.7519C55.682 59.4592 55.6063 59.4592 55.5408 59.4592C55.3574 59.4476 55.1681 59.5306 54.9861 59.5539H54.9148L54.794 59.5408C54.7349 59.5349 54.6754 59.5349 54.6164 59.5408L54.4315 59.5568C54.2859 59.5655 54.1403 59.5713 53.9947 59.5888C53.8492 59.6063 53.7036 59.6325 53.5653 59.6543C53.427 59.6762 53.2989 59.6863 53.1649 59.7009C53.031 59.7155 52.8738 59.7329 52.7282 59.746C52.6045 59.7526 52.4806 59.7526 52.357 59.746C52.2332 59.7373 52.1109 59.7286 51.9886 59.7227C51.7237 59.7082 51.4616 59.7024 51.1967 59.7024C50.9317 59.7024 50.6537 59.7635 50.3814 59.7577C50.2053 59.7577 50.032 59.7198 49.8573 59.7242C49.6142 59.7024 49.406 59.7446 49.1163 59.7373C48.9882 59.7373 48.8776 59.7519 48.8776 59.8014C48.8776 59.8509 48.9853 59.8654 49.1163 59.8654C49.489 59.8654 49.6637 59.9499 50.0131 59.9557C50.1791 59.9557 50.3654 59.9702 50.6653 59.9702C50.8429 59.9702 51.0191 60.0139 51.1981 60.0124C51.3238 60.0031 51.4502 60.0065 51.5752 60.0226C51.6947 60.055 51.8163 60.0793 51.9391 60.0954C52.0802 60.1034 52.2217 60.1034 52.3628 60.0954C52.6303 60.0724 52.8994 60.0748 53.1664 60.1027C53.2863 60.1209 53.4075 60.1296 53.5289 60.1289C53.6628 60.1289 53.7938 60.1464 53.9263 60.1464C54.0596 60.1527 54.1932 60.1458 54.3252 60.126C54.4417 60.1027 54.5596 60.1173 54.6761 60.0969C54.7275 60.0869 54.7795 60.0806 54.8318 60.078H54.842C54.9307 60.0978 55.0207 60.1109 55.1113 60.1173C55.171 60.1245 55.2307 60.1304 55.2919 60.1347C55.3838 60.1417 55.4763 60.1369 55.567 60.1202C55.6034 60.1202 55.7592 60.0998 55.7956 60.0969C55.832 60.094 55.912 60.1085 55.9761 60.0969C56.0911 60.0809 56.2032 60.0401 56.3167 60.0212C56.3764 60.0212 56.4347 60.0212 56.4944 60.0212C56.5875 60.0212 56.6807 60.0328 56.7724 60.0387C56.9689 60.0518 57.1655 60.0707 57.362 60.0794C57.5516 60.0848 57.7413 60.077 57.9298 60.0561C58.1074 60.0401 58.285 60.0401 58.4626 60.027C58.6402 60.0139 58.7974 60.011 58.9649 60.0168C59.0595 60.0168 59.1556 59.9862 59.256 59.9906C59.3565 59.995 59.4147 59.9906 59.4948 59.9906C59.6695 59.9906 59.834 59.9542 60.0101 59.96C60.1027 59.9673 60.1956 59.9673 60.2882 59.96C60.3653 59.9513 60.4571 59.8902 60.5357 59.8843C60.6696 59.8843 60.8035 59.8771 60.9389 59.8771C61.0743 59.8771 61.2082 59.8552 61.3582 59.8552C61.4164 59.8552 61.4819 59.8392 61.4834 59.7999C61.4849 59.7606 61.4135 59.746 61.3407 59.746Z" fill="#063844"/>
<path d="M105.692 100.849C105.246 100.849 104.799 100.766 104.354 100.807C103.614 100.873 103.563 100.749 103.138 100.753C102.923 100.753 102.422 100.727 102.207 100.727C101.991 100.727 101.611 100.829 101.41 100.82H101.333C100.481 100.772 99.6036 100.412 98.8189 100.412C98.3662 100.412 97.9222 100.5 97.4723 100.542C97.0574 100.58 96.6382 100.608 96.2189 100.635C95.7559 100.664 95.2988 100.699 94.8359 100.727C94.4457 100.739 94.0643 100.734 93.6712 100.727L92.5211 100.679C91.6942 100.651 90.8717 100.641 90.0463 100.64C89.1946 100.64 88.4303 100.867 87.5787 100.856C87.0298 100.856 86.1782 100.765 85.6337 100.775C84.8709 100.731 84.4371 100.862 83.5301 100.846C83.1327 100.846 82.7847 100.875 82.7833 100.976C82.7818 101.076 83.1225 101.104 83.5301 101.103C84.6947 101.103 85.2436 101.136 86.3398 101.148C86.8595 101.148 87.4404 101.175 88.3779 101.175C88.934 101.175 89.4872 101.264 90.0477 101.261C90.8149 101.261 90.9387 101.247 91.2284 101.28C91.6651 101.333 91.9796 101.416 92.3654 101.426C92.8021 101.439 93.2534 101.442 93.6931 101.426C94.5312 101.38 95.3712 101.385 96.2087 101.442C96.5843 101.474 96.9643 101.499 97.3428 101.494C97.7606 101.494 98.1697 101.531 98.586 101.528C99.8162 101.516 101.265 101.162 101.47 101.158C101.761 101.158 102.052 101.181 102.343 101.158C102.585 101.139 102.872 101.158 103.115 101.143C103.537 101.132 103.955 101.129 104.379 101.127C104.85 101.127 105.223 101.085 105.689 101.085C105.869 101.085 106.076 101.062 106.079 100.983C106.086 100.871 105.939 100.849 105.692 100.849Z" fill="#063844"/>
<path d="M86.6965 128.686C85.9263 128.686 85.1548 128.603 84.3846 128.643C83.1064 128.709 83.0191 128.585 82.2868 128.59C81.9142 128.59 81.0479 128.563 80.6753 128.562C80.3259 128.562 79.646 128.665 79.2995 128.657H79.167C77.6967 128.608 76.1783 128.249 74.8229 128.249C74.0412 128.249 73.2725 128.336 72.4936 128.378C71.7774 128.416 71.0538 128.444 70.3289 128.472C69.5296 128.501 68.7391 128.536 67.9399 128.563C67.2644 128.575 66.6064 128.563 65.928 128.555C65.2496 128.546 64.6017 128.521 63.9422 128.508C62.5112 128.48 61.0903 128.47 59.6622 128.469C58.1918 128.469 56.8729 128.696 55.3996 128.686C54.4519 128.678 52.9815 128.594 52.0396 128.604C50.7294 128.56 49.9723 128.691 48.4001 128.675C47.7129 128.675 47.1117 128.705 47.1102 128.805C47.1088 128.905 47.6926 128.933 48.4001 128.93C50.4222 128.93 51.3612 128.965 53.2537 128.977C54.152 128.977 55.155 129.004 56.7768 129.004C57.7376 129.004 58.6941 129.092 59.6607 129.09C60.9884 129.09 61.201 129.076 61.6988 129.109C62.4631 129.16 62.9974 129.245 63.6656 129.255C64.4241 129.268 65.1986 129.271 65.9571 129.255C67.3998 129.221 68.8687 129.201 70.3027 129.271C70.9519 129.303 71.6129 129.328 72.2622 129.323C72.9901 129.323 73.6918 129.36 74.4124 129.357C76.5364 129.345 79.0389 128.991 79.3942 128.987C79.9008 128.987 80.4045 129.01 80.9009 128.987C81.3202 128.968 81.8137 128.987 82.2344 128.972C82.9623 128.961 83.6902 128.956 84.4181 128.956C85.2348 128.956 85.8739 128.914 86.6877 128.914C87.0007 128.914 87.3559 128.889 87.3618 128.812C87.3778 128.706 87.1245 128.686 86.6965 128.686Z" fill="#063844"/>
<path d="M118.327 128.67C118.181 128.67 118.036 128.633 117.89 128.627C117.744 128.622 117.61 128.619 117.471 128.627C117.399 128.627 117.249 128.572 117.18 128.572C117.096 128.576 117.012 128.576 116.928 128.572C116.8 128.555 116.798 128.511 116.67 128.495C116.542 128.479 116.411 128.445 116.281 128.424C116.146 128.406 116.01 128.397 115.874 128.396C115.746 128.396 115.619 128.376 115.491 128.362C115.353 128.342 115.215 128.331 115.076 128.33C114.91 128.339 114.744 128.358 114.578 128.38C114.432 128.395 114.285 128.388 114.141 128.361C113.897 128.291 113.655 128.201 113.413 128.108C113.259 128.049 113.102 128.001 112.942 127.962C112.839 127.934 112.734 127.915 112.627 127.907H112.554C112.409 127.907 112.263 127.927 112.118 127.94C111.949 127.952 111.782 127.975 111.617 128.01C111.364 128.067 111.112 128.14 110.858 128.195C110.739 128.223 110.62 128.246 110.5 128.268C110.407 128.278 110.314 128.285 110.221 128.293C110.088 128.301 109.956 128.322 109.823 128.343C109.617 128.377 109.411 128.425 109.206 128.457C109.116 128.457 109.029 128.466 108.938 128.466C108.841 128.468 108.743 128.478 108.647 128.496C108.391 128.528 108.133 128.536 107.876 128.521C107.598 128.511 107.322 128.481 107.049 128.432C106.921 128.404 106.791 128.388 106.66 128.384C106.532 128.384 106.404 128.394 106.277 128.399C106.15 128.403 106 128.413 105.862 128.408C105.725 128.401 105.587 128.387 105.452 128.364C105.385 128.345 105.319 128.323 105.254 128.298C105.188 128.274 105.108 128.239 105.04 128.212C104.853 128.144 104.661 128.096 104.465 128.067C104.139 128.016 103.807 128.029 103.486 128.105C103.423 128.108 103.36 128.105 103.297 128.096L103.173 128.07C103.112 128.062 103.049 128.066 102.988 128.08L102.799 128.112C102.648 128.124 102.498 128.145 102.349 128.176C102.204 128.212 102.058 128.263 101.904 128.306C101.749 128.348 101.629 128.373 101.49 128.399C101.352 128.425 101.186 128.463 101.033 128.491C100.905 128.502 100.776 128.499 100.649 128.483C100.522 128.469 100.396 128.45 100.269 128.437C99.9952 128.409 99.7245 128.397 99.4508 128.396C99.1771 128.394 98.8888 128.518 98.6064 128.507C98.4259 128.499 98.2454 128.518 98.0663 128.528C97.8144 128.485 97.5975 128.687 97.2991 128.674C97.1681 128.667 97.0531 128.703 97.0516 128.804C97.0501 128.904 97.1637 128.933 97.2991 128.93C97.6849 128.923 97.8654 128.983 98.2264 128.994C98.3982 128.994 98.5904 128.935 98.9005 128.935C99.0839 128.935 99.2673 129.023 99.4522 129.02C99.7055 129.02 99.7434 129.007 99.8409 129.041C99.9611 129.102 100.088 129.151 100.218 129.186C100.363 129.202 100.51 129.202 100.655 129.186C100.93 129.14 101.211 129.146 101.485 129.204C101.607 129.239 101.733 129.256 101.86 129.255C101.997 129.255 102.132 129.288 102.271 129.288C102.411 129.298 102.552 129.281 102.686 129.237C102.805 129.191 102.927 129.221 103.048 129.179C103.1 129.161 103.155 129.149 103.21 129.143H103.218C103.308 129.181 103.402 129.207 103.498 129.221C103.559 129.236 103.622 129.247 103.684 129.255C103.82 129.265 103.956 129.259 104.09 129.236C104.223 129.22 104.355 129.211 104.489 129.201L104.647 129.191L104.673 129.207C104.862 129.328 105.064 129.277 105.255 129.278C105.263 129.278 105.271 129.276 105.278 129.273C105.285 129.269 105.291 129.264 105.296 129.258C105.587 129.258 105.878 129.258 106.169 129.284C106.337 129.296 106.504 129.323 106.672 129.347C106.839 129.37 107.001 129.386 107.165 129.416C107.33 129.447 107.538 129.518 107.723 129.577C107.947 129.634 108.176 129.67 108.407 129.684C108.636 129.689 108.864 129.655 109.082 129.584C109.176 129.562 109.267 129.54 109.358 129.514C109.476 129.532 109.598 129.526 109.714 129.495C109.844 129.441 109.967 129.319 110.099 129.291C110.223 129.283 110.347 129.267 110.47 129.243C110.582 129.2 110.7 129.175 110.821 129.169C110.885 129.169 110.947 129.185 111.011 129.185C111.072 129.176 111.133 129.163 111.192 129.144C111.278 129.131 111.364 129.102 111.45 129.09C111.623 129.127 111.799 129.155 111.975 129.173C112.138 129.187 112.302 129.177 112.463 129.146C112.584 129.124 112.704 129.092 112.825 129.07C112.912 129.06 112.998 129.049 113.083 129.035C113.158 129.027 113.234 129.024 113.31 129.026C113.406 129.026 113.502 129.048 113.601 129.06C113.805 129.086 114.007 129.124 114.211 129.143C114.407 129.153 114.602 129.136 114.793 129.095C114.977 129.063 115.16 129.064 115.345 129.038C115.517 129.016 115.69 129.009 115.864 129.018C115.963 129.025 116.06 128.955 116.155 128.964C116.249 128.972 116.319 128.964 116.402 128.964C116.583 128.964 116.763 129.003 116.944 129.016C117.04 129.03 117.138 129.03 117.235 129.016C117.315 128.997 117.401 128.953 117.481 128.942C117.626 128.93 117.758 128.927 117.897 128.926C118.037 128.924 118.177 128.884 118.334 128.884C118.395 128.884 118.462 128.863 118.464 128.786C118.458 128.694 118.408 128.67 118.327 128.67Z" fill="#063844"/>
<path d="M102.651 107.498C102.514 107.498 102.377 107.461 102.239 107.456C102.1 107.45 101.978 107.447 101.847 107.456C101.78 107.456 101.64 107.4 101.573 107.4C101.495 107.405 101.417 107.405 101.339 107.4C101.22 107.383 101.218 107.339 101.097 107.323C100.976 107.307 100.856 107.274 100.735 107.252C100.609 107.235 100.482 107.225 100.355 107.224C100.235 107.224 100.116 107.204 99.9967 107.191C99.8687 107.17 99.7392 107.159 99.6095 107.159C99.4551 107.167 99.2994 107.186 99.1451 107.208C99.0071 107.224 98.8675 107.217 98.7316 107.189C98.503 107.119 98.2774 107.029 98.0532 106.936C97.9109 106.878 97.765 106.83 97.6165 106.79C97.5215 106.762 97.4239 106.744 97.3253 106.735H97.2569C97.1215 106.735 96.9875 106.755 96.8536 106.768C96.6963 106.78 96.5401 106.803 96.3863 106.838C96.149 106.895 95.9146 106.968 95.6773 107.023C95.5667 107.051 95.456 107.074 95.3439 107.096C95.2566 107.106 95.1693 107.113 95.0834 107.121C94.9583 107.131 94.8339 107.148 94.7107 107.172C94.5185 107.205 94.3263 107.253 94.1283 107.285C94.0454 107.293 93.9624 107.294 93.8794 107.294C93.7875 107.296 93.6959 107.307 93.6057 107.325C93.3674 107.356 93.1265 107.364 92.8865 107.349C92.627 107.339 92.3686 107.31 92.1135 107.261C91.994 107.233 91.8721 107.217 91.7496 107.212C91.6316 107.212 91.5123 107.223 91.3929 107.227C91.2735 107.231 91.1338 107.242 91.0057 107.236C90.8783 107.231 90.7514 107.218 90.6257 107.198C90.5645 107.179 90.5019 107.157 90.4408 107.132C90.3797 107.108 90.3083 107.073 90.2414 107.047C90.0686 106.979 89.889 106.93 89.7056 106.901C89.4011 106.85 89.0892 106.863 88.7899 106.939C88.7315 106.942 88.6729 106.94 88.6152 106.93C88.5759 106.923 88.5381 106.913 88.4988 106.904C88.4413 106.897 88.3832 106.9 88.327 106.914L88.1494 106.946C88.0079 106.958 87.8673 106.979 87.7286 107.01C87.5831 107.047 87.452 107.097 87.3137 107.141C87.1754 107.185 87.0561 107.207 86.9265 107.233C86.7969 107.259 86.6353 107.297 86.4999 107.325C86.381 107.338 86.2608 107.338 86.1418 107.325C86.0239 107.31 85.9045 107.291 85.7866 107.278C85.5327 107.251 85.2776 107.238 85.0223 107.237C84.7602 107.237 84.4982 107.36 84.2347 107.348C84.0661 107.346 83.8974 107.354 83.7295 107.37C83.4952 107.326 83.2928 107.528 83.0133 107.515C82.891 107.515 82.7833 107.544 82.7833 107.645C82.7833 107.745 82.8881 107.774 83.0133 107.772C83.3743 107.772 83.5417 107.824 83.8795 107.836C84.0411 107.836 84.2201 107.776 84.5084 107.776C84.6802 107.776 84.852 107.865 85.0237 107.862C85.261 107.862 85.2989 107.849 85.3877 107.882C85.4986 107.944 85.6163 107.993 85.7386 108.028C85.8745 108.043 86.0117 108.043 86.1476 108.028C86.4049 107.982 86.6687 107.988 86.9236 108.045C87.0368 108.08 87.1546 108.097 87.273 108.096C87.4025 108.096 87.5292 108.13 87.6573 108.13C87.7869 108.142 87.9176 108.128 88.0416 108.089C88.1537 108.044 88.2687 108.073 88.3808 108.031C88.4279 108.013 88.4767 108.001 88.5264 107.994H88.5366C88.6196 108.032 88.7072 108.059 88.7972 108.074C88.8542 108.089 88.9121 108.099 88.9704 108.106C89.0968 108.117 89.224 108.111 89.3489 108.089C89.4727 108.071 89.5979 108.063 89.7216 108.052L89.8672 108.042L89.892 108.058C90.0681 108.179 90.2574 108.128 90.4379 108.131C90.4453 108.131 90.4525 108.128 90.459 108.125C90.4655 108.121 90.4712 108.117 90.4757 108.111C90.748 108.111 91.0187 108.111 91.2895 108.135C91.4468 108.147 91.6025 108.175 91.7598 108.198C91.917 108.221 92.0669 108.237 92.2198 108.268C92.3945 108.319 92.5677 108.37 92.741 108.428C92.9494 108.485 93.163 108.521 93.3786 108.536C93.5936 108.541 93.8076 108.507 94.0104 108.435C94.0963 108.414 94.1822 108.392 94.2681 108.365C94.3793 108.384 94.4931 108.377 94.6015 108.347C94.7209 108.293 94.8373 108.17 94.9582 108.143C95.0751 108.135 95.1914 108.119 95.3061 108.095C95.4102 108.051 95.521 108.026 95.6337 108.02C95.6933 108.02 95.753 108.036 95.8113 108.038C95.8719 108.024 95.9313 108.006 95.9889 107.983C96.0689 107.97 96.149 107.94 96.2291 107.929C96.3915 107.965 96.5558 107.994 96.7211 108.013C96.8732 108.025 97.0261 108.016 97.1754 107.984C97.2889 107.962 97.401 107.93 97.5131 107.908C97.5946 107.898 97.6747 107.887 97.7548 107.873C97.8253 107.865 97.8963 107.862 97.9673 107.865C98.0561 107.865 98.1464 107.887 98.2352 107.898C98.4244 107.924 98.6137 107.962 98.8044 107.981C98.9882 107.991 99.1725 107.975 99.3518 107.933C99.5236 107.901 99.6953 107.903 99.8671 107.878C100.027 107.855 100.189 107.847 100.35 107.856C100.442 107.856 100.534 107.793 100.626 107.802C100.717 107.811 100.78 107.802 100.857 107.802C101.026 107.802 101.193 107.841 101.362 107.854C101.451 107.868 101.542 107.868 101.632 107.854C101.706 107.836 101.786 107.792 101.862 107.78C101.991 107.77 102.119 107.766 102.25 107.764C102.381 107.763 102.511 107.722 102.655 107.722C102.712 107.722 102.774 107.703 102.776 107.624C102.773 107.523 102.728 107.498 102.651 107.498Z" fill="#063844"/>
<path d="M123.699 132.295C123.862 131.932 123.939 131.536 123.923 131.139V129.999L123.936 127.719C123.945 126.198 123.953 124.675 123.961 123.149C123.961 120.259 123.921 117.505 123.917 114.614C123.917 113.142 123.937 109.719 123.943 108.249C123.943 106.867 123.943 104.43 123.943 103.065C123.959 100.407 123.889 100.561 123.905 97.9026C123.929 95.2196 123.952 92.5526 123.975 89.871C123.983 88.5098 123.99 87.1384 123.996 85.7656C123.996 84.3243 123.996 82.8816 123.996 81.4506H123.763L115.683 81.4171C112.822 81.404 109.981 81.3778 107.113 81.3851L96.8289 81.4346C93.7513 81.4535 90.7494 81.4433 87.6908 81.4171C82.6391 81.3458 77.6457 81.2555 72.664 81.1623C69.435 81.1041 66.1886 81.0604 62.9028 81.0168C60.7555 80.992 58.5805 80.9687 56.4026 80.9629H54.9221L50.4091 80.976C48.7305 80.9658 47.0273 80.9905 45.3211 81.0255L42.7632 81.0837L41.4879 81.1128L40.8081 81.1259L39.7046 81.139C39.7133 81.8669 39.722 82.5948 39.7308 83.3227C39.7308 83.8294 39.7308 84.3418 39.722 84.847C39.7133 85.7074 39.7046 86.5546 39.6958 87.4005C39.6842 88.6903 39.6958 89.9496 39.7075 91.2205L39.738 95.1512C39.7541 98.2564 39.7686 101.375 39.8021 104.448C39.8356 107.521 39.8894 110.571 39.9331 113.638C39.9637 116.466 39.9943 119.326 40.0248 122.187C40.0413 123.765 40.0569 125.338 40.0714 126.907C40.0802 127.692 40.0879 128.477 40.0947 129.262C40.0947 129.655 40.102 130.048 40.1064 130.441V131.032C40.1019 131.235 40.113 131.437 40.1398 131.638C40.218 132.153 40.46 132.63 40.8299 132.997C41.1999 133.364 41.6781 133.602 42.194 133.676C42.2786 133.691 42.3643 133.699 42.4502 133.699C42.5376 133.699 42.6176 133.699 42.7006 133.699H43.1956L47.1714 133.713L55.0196 133.759C60.6667 133.787 66.2803 133.798 71.9215 133.8C77.7287 133.8 83.5403 133.678 89.3562 133.689C93.0991 133.689 96.8114 133.765 100.532 133.756C105.734 133.798 110.193 133.714 116.377 133.73C117.734 133.73 119.008 133.73 119.943 133.707C120.877 133.683 121.473 133.651 121.474 133.6C121.476 133.549 120.892 133.519 119.973 133.5C119.055 133.481 117.771 133.474 116.377 133.475C108.394 133.475 104.687 133.303 97.2088 133.292L83.2972 133.264C79.4975 133.264 75.727 133.175 71.904 133.178C66.6631 133.178 65.8202 133.193 63.8462 133.159C60.8312 133.107 58.7203 133.024 56.0809 133.014C53.0849 133.001 50.0233 132.998 47.0302 133.014L42.7414 133.036H42.5405H42.4895C42.4217 133.036 42.354 133.03 42.2872 133.018L42.1867 133.004L42.0877 132.979C42.0223 132.962 41.9581 132.941 41.8955 132.916C41.6405 132.818 41.4125 132.66 41.2302 132.456C41.0453 132.255 40.9115 132.012 40.8401 131.749C40.8204 131.683 40.8058 131.617 40.7964 131.549C40.7964 131.516 40.7848 131.482 40.7819 131.449V131.345C40.7819 131.287 40.7819 131.187 40.7819 131.099V130.83C40.7819 127.961 40.7935 125.094 40.8284 122.255C40.859 119.692 40.8852 117.097 40.8794 114.518C40.8794 111.667 40.9143 108.872 40.9129 106.027C40.9129 103.158 40.9245 100.376 40.8721 97.5227C40.827 95.0362 40.8561 92.5045 40.8153 90.0325C40.7964 88.9232 40.7848 87.8066 40.7775 86.6842C40.7775 86.6172 40.7775 86.5517 40.7775 86.4848C40.7964 85.7088 40.8095 84.9081 40.8212 84.0972C40.8212 83.6925 40.826 83.2854 40.8357 82.8758V82.3299L40.843 82.2775H40.8838H40.9085H41.1443L44.9891 82.311C47.5703 82.3255 48.4831 82.311 50.8589 82.2804L55.733 82.2338C56.9922 82.2207 58.2399 82.2586 59.6112 82.2338C62.0482 82.2003 64.4445 82.1203 66.8801 82.0882H70.6797L76.6034 82.1232L89.2092 82.2047C93.2607 82.2236 97.3282 82.1916 101.332 82.1566L112.713 82.1013L118.065 82.0795H123.373L123.403 84.5034C123.416 85.4555 123.429 86.409 123.426 87.3611C123.426 89.0586 123.426 90.7571 123.426 92.4565C123.426 96.1964 123.501 99.7253 123.488 103.462C123.488 105.464 123.464 107.457 123.488 109.415C123.506 111.073 123.633 113.023 123.633 114.685C123.633 117.562 123.643 120.415 123.648 123.304C123.656 124.914 123.662 126.361 123.67 127.793C123.67 128.512 123.68 129.232 123.684 129.977C123.684 130.347 123.684 130.721 123.684 131.102C123.684 131.198 123.684 131.294 123.684 131.385C123.681 131.477 123.671 131.569 123.655 131.66C123.625 131.845 123.569 132.025 123.489 132.196C123.365 132.466 123.19 132.709 122.974 132.913C122.775 133.1 122.546 133.251 122.297 133.36C122.109 133.44 121.914 133.5 121.714 133.539C121.569 133.563 121.474 133.583 121.47 133.603C121.465 133.624 121.519 133.647 121.639 133.657C121.819 133.664 121.999 133.644 122.173 133.596C122.456 133.517 122.722 133.385 122.956 133.207C123.104 133.094 123.239 132.965 123.358 132.823C123.493 132.662 123.608 132.484 123.699 132.295Z" fill="#063844"/>
</svg>
