<svg width="164" height="164" viewBox="0 0 164 164" fill="none" xmlns="http://www.w3.org/2000/svg">
<path d="M119.385 133.891L63.6428 142.661V20.6857L119.385 29.4557V133.891Z" fill="#F7F4F2"/>
<path d="M119.388 133.914C119.331 133.549 117.342 133.914 114.055 134.438C105.586 135.771 97.1853 137.069 88.7909 138.346L76.1957 140.246L69.8856 141.198L66.724 141.667L65.1425 141.901L64.1836 142.037C64.2382 137.199 64.2928 132.329 64.3473 127.429C64.4126 122.314 64.4794 117.164 64.5476 111.979C64.7303 98.8239 64.3663 86.2973 64.2552 73.8468C64.1427 61.5891 64.2333 51.1382 64.3502 38.328C64.3956 32.8804 64.4409 27.3085 64.4876 21.6737L64.8209 21.7322L65.3369 21.8184L67.164 22.1108L70.8255 22.6954L78.1645 23.8648C83.0597 24.6292 87.949 25.3732 92.7901 26.0777C97.4864 26.7618 101.942 27.4824 106.297 28.2249C108.477 28.5962 110.63 28.9719 112.778 29.3519L115.994 29.9249L117.602 30.2172L118.005 30.2888L118.102 30.3064H118.124L118.166 30.3166L118.323 30.359L118.309 30.492V30.5534V30.5826V30.7288C118.302 31.1512 118.293 31.5766 118.285 32.0004C118.267 32.8511 118.25 33.7043 118.233 34.5598C118.205 36.2729 118.176 38.0045 118.147 39.7546C118.096 43.2627 118.065 46.8584 118.07 50.6178C118.089 64.875 118.575 79.6861 118.801 94.0398C118.977 105.752 119.112 116.876 119.112 128.544C119.112 131.226 119.096 133.894 119.376 133.894C119.745 133.894 119.688 131.872 119.688 128.544C119.688 110.601 120.157 93.5238 119.901 75.4853C119.682 59.9915 120.115 46.816 119.857 32.1305C119.851 31.6735 119.844 31.2224 119.838 30.777C119.838 30.2089 119.835 29.6496 119.828 29.099L118.084 28.8242L116.734 28.6035C115.842 28.4564 114.965 28.3058 114.103 28.1519C112.379 27.8478 110.706 27.535 109.035 27.2208C105.694 26.5937 102.37 25.9579 98.704 25.3586C89.13 23.7917 81.0177 22.8621 71.1222 21.1197C69.8739 20.9005 68.6378 20.6905 67.4139 20.4898L65.5868 20.1974L62.852 19.7618C62.852 20.7314 62.8545 21.6966 62.8593 22.6574C62.8593 23.3123 62.8642 23.9646 62.874 24.6146C62.8886 25.9165 62.9037 27.213 62.9193 28.5041C62.9602 31.0869 63.0026 33.658 63.0435 36.251C63.1298 41.4209 63.2028 46.6494 63.1604 52.1599C62.9719 77.3752 61.9911 100.6 62.4296 125.546C62.4778 128.323 62.5042 131.147 62.5202 134.009C62.5319 137.289 62.5436 140.607 62.5568 143.937L66.0122 143.382L68.2178 143.021L72.6219 142.281C75.5452 141.781 78.4686 141.258 81.3364 140.711C90.9615 138.866 100.294 137.203 110.517 135.519L114.142 135.015C116.788 134.59 119.432 134.191 119.388 133.914Z" fill="#063844"/>
<path d="M78.1631 36.5347V72.0943H90.0539V63.4149" fill="#F7F4F2"/>
<path d="M78.1865 36.5419C77.8167 36.5419 77.8737 36.8766 77.8737 37.4276C77.8737 41.9588 77.6442 46.3702 77.2584 50.9555C77.0756 53.1319 77.4381 55.2045 77.5507 57.264C77.6632 59.2929 77.5711 61.022 77.4557 63.14C77.3855 64.4087 77.3183 65.7155 77.2905 67.028C77.2759 67.6858 77.2759 68.3431 77.2905 68.9998C77.2964 69.3292 77.3056 69.6571 77.3183 69.9836C77.3378 70.348 77.3558 70.7105 77.3724 71.071C77.4001 71.6908 77.4089 72.2755 77.4031 72.8674C77.8532 72.8674 78.2903 72.8835 78.7346 72.9011L79.4041 72.9318H79.4889H79.5429L79.6467 72.942L79.8543 72.961C80.4068 73.0165 80.9549 73.0882 81.5074 73.1569C83.4908 73.4683 85.5079 73.5007 87.5003 73.2533L88.8158 73.0998C89.5656 73.0458 90.2614 72.9888 90.9031 72.9332L90.77 71.1982L90.7408 70.7977L90.713 70.5273L90.6531 70.0143C90.4763 68.0761 90.3418 66.2358 90.3418 64.3049C90.3418 63.8664 90.3579 63.4192 90.0772 63.4192C89.7089 63.4192 89.7659 63.7539 89.7659 64.3049C89.7659 65.6205 89.6723 66.917 89.5919 68.2062C89.5525 68.8522 89.5145 69.4968 89.494 70.1443L89.4808 70.6311V70.9687C89.4808 71.1514 89.4808 71.3356 89.4969 71.5373C89.3201 71.549 89.1417 71.5695 88.9444 71.5972L88.7983 71.6162L88.7164 71.6236H88.598C88.4416 71.6323 88.2852 71.6396 88.1303 71.644C87.8204 71.6543 87.5149 71.6557 87.2138 71.6528C86.6116 71.6528 86.0225 71.6221 85.4379 71.5972C84.2685 71.549 83.1167 71.5052 81.9021 71.6353C81.2672 71.691 80.6276 71.6576 80.0019 71.5359L79.5532 71.4569L79.4976 71.4467L79.4699 71.4365L79.4158 71.416L79.3164 71.3765C79.2156 71.3304 79.1116 71.2918 79.005 71.2611C79.005 71.2333 79.0124 71.207 79.0153 71.1792C79.0203 71.1067 79.0203 71.0339 79.0153 70.9614C79.0153 70.9278 79.0153 70.8942 79.0065 70.8591V70.8065V70.7802V70.7319C78.9846 70.3534 78.9539 69.9821 78.9247 69.6094C78.8499 68.8347 78.847 68.0547 78.9159 67.2795C79.1527 65.0519 78.5607 63.0888 78.663 60.8481C78.8516 56.6765 79.8324 52.8337 79.3939 48.7059C79.1951 46.8481 79.3836 44.8413 78.9992 42.9309C78.6706 41.3152 78.4727 39.6758 78.4072 38.0284L78.4715 37.4233C78.4511 36.9804 78.4657 36.5419 78.1865 36.5419Z" fill="#063844"/>
<path d="M112.219 72.8909H100.328V36.5347" fill="#F7F4F2"/>
<path d="M100.214 37.0111C100.214 37.5563 100.177 38.1015 100.17 38.6482C100.17 39.1671 100.211 39.6611 100.214 40.1785C100.214 40.4431 100.188 41.0555 100.188 41.3201C100.188 41.5847 100.188 42.0042 100.188 42.2497C100.17 42.7262 100.24 42.6985 100.224 43.175C100.208 43.6515 100.176 44.1338 100.154 44.6147C100.132 45.0956 100.134 45.6218 100.125 46.1217C100.125 46.5953 100.104 47.0674 100.091 47.5425C100.078 48.0555 100.053 48.5656 100.06 49.0787C100.069 49.694 100.088 50.3079 100.109 50.9233C100.128 51.4744 100.117 52.0137 100.091 52.5618C100.021 53.4666 99.9289 54.3626 99.8354 55.2557C99.7769 55.8404 99.7331 56.4163 99.6892 57.0097C99.6644 57.3956 99.641 57.7859 99.6351 58.1791V58.4466C99.6351 58.7184 99.6439 58.9874 99.6483 59.2563C99.6234 59.9579 99.7944 60.6844 99.8383 61.3831C99.8383 61.4737 99.8383 61.5643 99.8383 61.6564C99.8281 61.8099 99.8193 61.9619 99.8105 62.1139C99.7988 62.3448 99.8105 62.5714 99.8222 62.798L99.8529 63.504C99.8705 64.0594 99.8836 64.6192 99.9187 65.1703C99.9538 65.7213 100.006 66.268 100.049 66.8176C100.087 67.3248 100.115 67.8407 100.141 68.3509C100.173 68.9165 100.202 69.4778 100.234 70.0435C100.245 70.5215 100.234 70.9877 100.226 71.4672L100.202 72.1717C100.195 72.464 100.186 72.7417 100.179 73.0268V73.056L101.841 73.0867L103.34 73.0838C104.381 73.0838 105.423 72.961 106.467 72.9727C107.138 72.9727 107.803 73.0487 108.471 73.0385C109.404 73.0823 110.203 72.9975 111.311 73.0136C111.798 73.0209 112.225 72.9844 112.225 72.8835C112.225 72.7827 111.811 72.7534 111.311 72.7564C109.88 72.7637 109.215 72.5853 107.875 72.5737C107.239 72.5737 106.528 72.5459 105.38 72.5459C104.698 72.5459 104.022 72.4567 103.333 72.4596C102.392 72.4596 102.241 72.4728 101.888 72.4392C101.617 72.4143 101.388 72.3792 101.167 72.35L101.084 72.3398H101.043H101.024L100.996 72.3222C100.983 72.313 100.968 72.3061 100.952 72.3018H100.932V72.2477V72.1702C100.932 71.9261 100.932 71.6835 100.92 71.4394C100.873 70.4137 100.879 69.3863 100.936 68.3611C100.968 67.9021 100.993 67.4359 100.989 66.974C100.989 66.4624 101.022 65.961 101.022 65.4509C101.034 64.9423 101.02 64.4335 100.98 63.9264C100.935 63.4806 100.964 63.0274 100.923 62.5831C100.904 62.3843 100.892 62.1841 100.885 61.9838V61.9487C100.93 61.6169 100.946 61.2603 100.965 60.9139C100.978 60.6873 100.992 60.4549 100.999 60.224C101.013 59.8729 101.003 59.5212 100.968 59.1715C100.968 59.0254 100.929 58.4334 100.921 58.2945C100.908 58.068 100.946 57.8443 100.921 57.5988C100.888 57.1603 100.807 56.732 100.775 56.2964C100.775 56.0699 100.768 55.8433 100.775 55.6153C100.775 55.2601 100.797 54.9049 100.809 54.5527C100.834 53.7984 100.872 53.0457 100.891 52.2929C100.91 51.5621 100.878 50.8312 100.842 50.1194C100.81 49.4397 100.812 48.7586 100.787 48.073C100.768 47.4358 100.753 46.7926 100.765 46.1509C100.765 45.787 100.702 45.4201 100.712 45.0605C100.72 44.7565 100.712 44.451 100.712 44.147C100.712 43.4761 100.636 42.8432 100.65 42.1737C100.65 41.8141 100.673 41.4575 100.65 41.1052C100.631 40.8129 100.503 40.4592 100.496 40.161C100.486 39.645 100.481 39.1378 100.481 38.616C100.481 38.0386 100.439 37.5826 100.439 37.0082C100.439 36.7874 100.405 36.536 100.328 36.5317C100.226 36.5287 100.214 36.7085 100.214 37.0111Z" fill="#063844"/>
<path d="M78.1631 94.0764V128.481L90.0539 127.128V120.04" fill="#F7F4F2"/>
<path d="M89.9398 120.935C89.9398 121.958 89.8565 122.981 89.8974 124.004C89.9265 124.559 89.9265 125.116 89.8974 125.671C89.8857 125.852 89.8755 126.011 89.8638 126.185C89.8638 126.273 89.855 126.363 89.8506 126.463C89.8506 126.512 89.8506 126.565 89.8506 126.619C89.8506 126.673 89.8506 126.692 89.8506 126.732V126.939L89.1081 127.008L88.2428 127.096C87.7824 127.148 86.8966 127.353 86.4391 127.395L86.2637 127.413C84.3167 127.585 82.2733 127.454 80.4857 127.657C80.0852 127.704 79.6905 127.761 79.2973 127.825L79.005 127.873L78.8588 127.898L78.7843 127.91C78.7675 127.912 78.7509 127.915 78.7346 127.92C78.7024 127.938 78.6687 127.954 78.6337 127.965C78.6267 127.949 78.6209 127.932 78.6162 127.914L78.6074 127.879V127.86V127.781C78.5694 126.831 78.5416 125.869 78.5139 124.908C78.4832 123.846 78.4525 122.795 78.4218 121.734C78.4101 120.837 78.4218 119.963 78.4291 119.062C78.4364 118.162 78.4612 117.308 78.4773 116.431C78.5051 114.531 78.5153 112.644 78.5168 110.747C78.5168 108.794 78.2888 107.042 78.299 105.086C78.3063 103.827 78.3911 101.87 78.3808 100.623C78.4247 98.8693 78.2931 97.8768 78.3092 95.7997C78.3092 94.8862 78.28 94.0867 78.1791 94.0852C78.0783 94.0837 78.0505 94.8614 78.052 95.7997C78.052 98.4834 78.0183 99.7302 78.0066 102.244C78.0066 103.438 77.9789 104.77 77.9789 106.922C77.9789 108.199 77.8897 109.469 77.8926 110.753C77.8926 112.517 77.9073 112.799 77.8736 113.463C77.821 114.476 77.7377 115.186 77.7275 116.073C77.7143 117.082 77.7114 118.111 77.7275 119.118C77.7611 121.034 77.7801 122.981 77.7114 124.89C77.6792 125.752 77.6544 126.624 77.6588 127.492C77.6588 128.025 77.6588 128.556 77.6588 129.082L79.1468 128.92C79.4552 128.891 79.7636 128.86 80.072 128.823C82.874 128.493 86.1365 127.764 86.6042 127.707C87.2737 127.638 87.9417 127.578 88.5936 127.482C89.0745 127.411 89.5261 127.369 90.2292 127.286C90.2292 127.151 90.2292 127.031 90.2292 126.913C90.2292 126.407 90.2253 125.902 90.2175 125.399C90.2175 124.918 90.2175 124.435 90.2175 123.949C90.2175 122.866 90.1751 122.011 90.1751 120.935C90.1751 120.52 90.1503 120.047 90.0728 120.04C89.9602 120.03 89.9398 120.368 89.9398 120.935Z" fill="#063844"/>
<path d="M112.219 123.864L100.328 125.456V92.6425" fill="#F7F4F2"/>
<path d="M100.198 92.9128C100.198 93.2198 100.161 93.5282 100.154 93.8366C100.147 94.145 100.147 94.4213 100.154 94.7136C100.154 94.8598 100.098 95.177 100.098 95.3261C100.098 95.4752 100.098 95.7134 100.098 95.8523C100.082 96.1212 100.039 96.1241 100.022 96.3931C100.006 96.662 99.9728 96.9354 99.9508 97.2072C99.9289 97.4791 99.9304 97.7758 99.9231 98.0579C99.9158 98.34 99.9026 98.5929 99.888 98.8619C99.8734 99.1308 99.85 99.4465 99.8573 99.7301C99.8661 100.077 99.8851 100.424 99.9055 100.771C99.9224 101.08 99.9165 101.389 99.888 101.698C99.8178 102.209 99.7257 102.721 99.6337 103.219C99.5737 103.547 99.5299 103.875 99.4875 104.209C99.4612 104.426 99.4378 104.647 99.4319 104.868V105.014C99.4319 105.318 99.4509 105.619 99.4641 105.92C99.4802 106.271 99.4977 106.62 99.5343 106.967C99.5971 107.499 99.6585 108.025 99.7214 108.556C99.7477 108.806 99.7725 109.054 99.7944 109.304C99.8032 109.498 99.8105 109.693 99.8178 109.889C99.8281 110.168 99.8485 110.446 99.8704 110.723C99.9026 111.162 99.9523 111.583 99.9845 112.015C99.9845 112.201 99.9932 112.387 99.9932 112.574C99.9932 112.761 100.008 112.982 100.022 113.185C100.056 113.721 100.063 114.261 100.049 114.8C100.033 115.385 100.014 115.958 99.9581 116.534C99.9318 116.805 99.9128 117.071 99.9114 117.346C99.9099 117.621 99.9216 117.881 99.926 118.149C99.9304 118.416 99.9406 118.733 99.9348 119.015C99.9289 119.298 99.9172 119.583 99.8968 119.868C99.8763 120.006 99.8558 120.144 99.8295 120.283C99.8032 120.422 99.7725 120.575 99.7447 120.721C99.6739 121.119 99.6251 121.521 99.5986 121.924C99.5752 122.255 99.5679 122.591 99.5693 122.923C99.5693 123.278 99.6073 123.624 99.6366 123.973C99.6366 124.106 99.6366 124.235 99.6278 124.368C99.619 124.501 99.6103 124.66 99.6015 124.807C99.5883 125.048 99.6015 125.276 99.6117 125.501L99.6424 126.184V126.236C100.191 126.147 100.73 126.061 101.237 125.96L101.432 125.919L101.547 125.888L101.774 125.824L102.225 125.695C102.504 125.619 102.788 125.549 103.072 125.488L104.007 125.27C104.273 125.223 104.535 125.191 104.807 125.171L105.6 125.112C106.172 125.064 106.736 124.998 107.303 124.925C107.87 124.852 108.453 124.647 109.04 124.58C109.415 124.536 109.786 124.469 110.159 124.409C110.687 124.383 111.108 124.117 111.73 124.054C112.004 124.025 112.238 123.956 112.224 123.855C112.211 123.754 111.976 123.759 111.697 123.798C110.896 123.912 110.516 123.903 109.763 123.992C109.406 124.035 109.018 124.153 108.374 124.239C107.993 124.289 107.601 124.253 107.218 124.307C106.692 124.38 106.609 124.402 106.407 124.394C106.142 124.364 105.875 124.351 105.608 124.353C105.303 124.379 104.999 124.42 104.698 124.476C104.13 124.599 103.553 124.671 102.972 124.691C102.71 124.69 102.448 124.707 102.189 124.744C101.896 124.788 101.617 124.786 101.332 124.824L101.211 124.839C101.179 124.839 101.146 124.848 101.113 124.855C101.034 124.87 100.957 124.893 100.883 124.925C100.841 124.943 100.798 124.957 100.753 124.967C100.752 124.874 100.741 124.782 100.72 124.691C100.7 124.631 100.688 124.568 100.683 124.504V124.491C100.696 124.46 100.705 124.428 100.712 124.396C100.712 124.348 100.727 124.299 100.733 124.25L100.764 123.957C100.777 123.829 100.79 123.699 100.797 123.569C100.808 123.285 100.801 123.002 100.778 122.719C100.762 122.442 100.753 122.162 100.743 121.885L100.731 121.556L100.749 121.499C100.87 121.104 100.818 120.679 100.821 120.275C100.821 120.245 100.814 120.216 100.8 120.189C100.8 119.581 100.8 118.975 100.826 118.365C100.838 118.013 100.864 117.663 100.888 117.313C100.911 116.962 100.929 116.623 100.959 116.279C101.009 115.89 101.06 115.5 101.119 115.11C101.189 114.639 101.201 114.158 101.227 113.68C101.233 113.206 101.2 112.732 101.127 112.264C101.106 112.071 101.082 111.88 101.056 111.69C101.076 111.441 101.07 111.19 101.038 110.943C100.984 110.672 100.86 110.412 100.832 110.14C100.804 109.868 100.832 109.618 100.785 109.361C100.741 109.12 100.716 108.875 100.711 108.63C100.711 108.496 100.726 108.363 100.727 108.23C100.728 108.097 100.693 107.981 100.685 107.854C100.673 107.673 100.644 107.493 100.631 107.313C100.664 106.946 100.701 106.582 100.715 106.213C100.727 105.871 100.718 105.53 100.688 105.189C100.661 104.935 100.636 104.684 100.612 104.429C100.6 104.25 100.587 104.07 100.575 103.89C100.563 103.71 100.565 103.574 100.568 103.415C100.568 103.215 100.59 103.013 100.601 102.814C100.626 102.389 100.664 101.964 100.685 101.537C100.695 101.127 100.679 100.717 100.635 100.309C100.604 99.926 100.606 99.5401 100.579 99.1557C100.56 98.7961 100.547 98.4321 100.557 98.0696C100.557 97.8635 100.496 97.6589 100.505 97.4528C100.505 97.2818 100.505 97.1093 100.505 96.9368C100.505 96.5583 100.544 96.1811 100.557 95.8026C100.571 95.6016 100.571 95.3999 100.557 95.1989C100.538 95.0323 100.495 94.8525 100.483 94.6844C100.471 94.3921 100.467 94.0997 100.467 93.8074C100.467 93.4814 100.424 93.2227 100.424 92.8997C100.424 92.774 100.404 92.6322 100.326 92.6293C100.223 92.6395 100.198 92.7418 100.198 92.9128Z" fill="#063844"/>
<path d="M48.2762 135.222H63.6428V29.2744H48.2762C48.0436 29.2744 47.8205 29.3668 47.656 29.5313C47.4916 29.6958 47.3992 29.9188 47.3992 30.1514V134.345C47.3992 134.578 47.4916 134.801 47.656 134.966C47.8205 135.13 48.0436 135.222 48.2762 135.222Z" fill="#063844"/>
<path d="M48.2762 135.205C48.2762 135.391 49.7277 135.361 52.1175 135.361L63.8007 135.375C63.8134 131.393 63.8265 127.422 63.8402 123.46C63.8606 119.549 63.8816 115.636 63.903 111.722C63.9527 103.886 64.0185 96.0174 64.096 88.025C64.1866 78.5738 64.0053 69.5816 63.9498 60.6405C63.8942 51.8383 63.9396 44.3326 63.998 35.1387C64.0097 33.0792 64.0214 30.9977 64.0331 28.8798L56.6736 28.8462L49.6312 28.8271H48.2353H48.1534C48.0985 28.8331 48.0438 28.8418 47.9897 28.8535C47.8812 28.8773 47.7762 28.9146 47.6769 28.9645C47.4786 29.0648 47.309 29.2136 47.1837 29.3971C47.0585 29.5806 46.9818 29.7928 46.9607 30.014V30.0973V30.1383V30.9393C46.9607 32.1145 46.9607 33.2892 46.9607 34.4634C46.9724 36.8108 46.9846 39.1466 46.9973 41.4706C47.0952 53.5645 46.7225 63.5419 46.7342 75.9106C46.7429 86.1497 46.987 96.7848 47.0966 107.093C47.1844 115.504 47.2516 123.491 47.2516 131.871C47.2516 132.353 47.2516 132.833 47.2516 133.284C47.2516 133.509 47.2516 133.723 47.2516 133.933C47.2516 134.036 47.2516 134.136 47.2516 134.226C47.2491 134.329 47.2579 134.432 47.2779 134.533C47.3195 134.716 47.4134 134.883 47.5483 135.013C47.6495 135.113 47.7734 135.187 47.9093 135.228C48.1344 135.294 48.266 135.246 48.2645 135.217C48.2631 135.187 48.1724 135.145 48.0307 135.079C47.8282 134.988 47.6678 134.824 47.5819 134.619C47.556 134.55 47.5388 134.477 47.5308 134.404C47.5308 134.334 47.5308 134.229 47.5308 134.129C47.5308 133.927 47.5308 133.708 47.5308 133.473C47.5308 132.999 47.5308 132.461 47.5308 131.865C47.5308 118.979 47.7661 106.724 47.6375 93.7592C47.5293 82.6285 47.7442 73.17 47.6155 62.6255C47.5381 56.295 47.7822 51.527 47.807 45.575C47.8231 42.0919 47.7866 38.8864 47.7588 35.6488C47.7486 34.0293 47.7398 32.4039 47.7296 30.7317V30.1149C47.7339 29.9849 47.7859 29.8611 47.8757 29.767C47.9673 29.673 48.0898 29.6153 48.2207 29.6048H48.839L51.4861 29.6267C53.585 29.653 55.6314 29.6588 57.647 29.653L60.6522 29.6369L62.1432 29.6238L62.8871 29.6165L63.2803 29.6091C63.3096 32.0735 63.3373 34.5291 63.3666 37.0257C63.39 39.6406 63.4046 42.3009 63.39 45.0649C63.295 63.1721 62.8053 79.8528 63.0245 97.7656C63.1239 105.828 63.0245 114.54 63.2219 122.833C63.2643 124.905 63.3067 126.957 63.349 129.012C63.3797 131.007 63.4119 133.004 63.4426 135.028L59.2432 135.075L54.731 135.104L52.1 135.072C50.191 135.079 48.2762 135.07 48.2762 135.205Z" fill="#063844"/>
<path d="M73.0502 87.4667C75.1838 87.4667 76.9134 85.737 76.9134 83.6034C76.9134 81.4698 75.1838 79.7402 73.0502 79.7402C70.9166 79.7402 69.187 81.4698 69.187 83.6034C69.187 85.737 70.9166 87.4667 73.0502 87.4667Z" fill="#BADFD8"/>
<path d="M76.925 83.9423C76.7394 83.9423 76.7613 84.0817 76.7496 84.3121C76.7023 84.7776 76.5614 85.2287 76.3352 85.6379C76.1091 86.047 75.8025 86.4058 75.4341 86.6924C75.0791 86.9699 74.6716 87.172 74.2364 87.2865C73.8012 87.401 73.3474 87.4256 72.9025 87.3587C72.4996 87.305 72.101 87.2226 71.7098 87.1121C71.3176 86.9967 70.9506 86.808 70.6281 86.556C70.3254 86.3087 70.0766 86.0015 69.8973 85.6534C69.7254 85.2969 69.6194 84.9121 69.5845 84.5176C69.5401 84.0134 69.5942 83.5054 69.7438 83.0222C69.8922 82.5376 70.121 82.0816 70.4206 81.6735C70.7321 81.2625 71.1766 80.9734 71.6776 80.8561C72.5899 80.6794 73.5285 80.6919 74.4358 80.8928C75.0467 81.0498 75.595 81.3907 76.0073 81.8697C76.4196 82.3487 76.6761 82.9429 76.7423 83.5725C76.7511 83.7574 76.754 83.9408 76.8885 83.9423C77.0726 83.9423 77.0346 83.7955 77.0244 83.5446C76.9656 82.8797 76.7705 82.2342 76.4514 81.6486C76.1178 81.0518 75.6039 80.577 74.9839 80.2926C74.474 80.0691 73.9367 79.9147 73.3863 79.8332C72.8449 79.749 72.2908 79.8191 71.7872 80.0358C71.4847 80.1825 71.2026 80.2603 70.9278 80.3674L70.7173 80.4467C70.6501 80.4775 70.5828 80.5112 70.5141 80.5464C70.445 80.5812 70.3777 80.6194 70.3124 80.6609C70.2481 80.7079 70.1853 80.7563 70.1209 80.8077C70.0844 80.84 70.0479 80.8708 70.0142 80.9031L69.9207 81.0073C69.8593 81.0777 69.7994 81.154 69.7438 81.22L69.5977 81.4475L69.5275 81.5605L69.4676 81.6794C69.4281 81.7586 69.3872 81.8379 69.3462 81.9171C69.3053 81.9964 69.2746 82.0815 69.2381 82.1651C69.2191 82.2062 69.2001 82.2488 69.1796 82.2899L69.127 82.419C69.0919 82.5071 69.0525 82.5936 69.0086 82.6846C68.8179 83.1619 68.7696 83.6845 68.8697 84.1888C68.9671 84.68 69.114 85.1599 69.3082 85.6211C69.4772 86.0711 69.7101 86.4943 69.9996 86.8773C70.2947 87.269 70.6534 87.6079 71.0608 87.8797C71.4837 88.1655 71.9646 88.3533 72.4687 88.4295C72.9728 88.5056 73.4874 88.4682 73.9754 88.3199C74.4297 88.1852 74.8664 87.9965 75.2763 87.7579C75.6892 87.5165 76.0327 87.1716 76.2731 86.757C76.46 86.4227 76.6123 86.0702 76.7277 85.7048C76.792 85.5302 76.8271 85.3453 76.8739 85.1662C76.8929 85.0752 76.906 84.9813 76.925 84.8889L76.9513 84.7494L76.9659 84.6027L77.0376 84.3385C77.0478 84.136 77.0653 83.9423 76.925 83.9423Z" fill="#063844"/>
</svg>
