<svg width="164" height="164" viewBox="0 0 164 164" fill="none" xmlns="http://www.w3.org/2000/svg">
<path d="M118.893 123.162H113.512L111.399 118.156L108.708 123.162H49.1576V58.0621C49.1576 38.7797 64.7975 23.1471 84.0726 23.1471C103.357 23.1471 118.988 38.787 118.988 58.0621L118.893 123.162Z" fill="#063844"/>
<path d="M32.8994 138.766V133.512C32.8998 127.998 35.0907 122.709 38.9903 118.81C42.8898 114.911 48.1786 112.72 53.6932 112.72H111.808C117.322 112.72 122.611 114.911 126.51 118.81C130.41 122.709 132.6 127.998 132.6 133.512V138.766" fill="white"/>
<path d="M132.928 138.235C132.928 138.235 132.928 137.32 132.939 137.167C133.029 136.455 133.043 135.608 133.115 134.894C133.146 134.519 133.153 134.142 133.137 133.767C133.137 133.58 133.121 133.387 133.106 133.192C133.091 132.998 133.081 132.808 133.074 132.616C132.989 131.134 132.784 129.662 132.459 128.214C132.312 127.191 132.187 126.156 131.807 125.157C131.392 124.124 130.891 123.127 130.308 122.177C130.067 121.801 129.844 121.413 129.578 121.05L129.198 120.498L128.793 119.963L128.591 119.694L128.378 119.435L127.949 118.917C127.803 118.748 127.648 118.584 127.499 118.418C127.35 118.251 127.198 118.084 127.037 117.928L126.935 117.811C126.726 117.544 126.526 117.269 126.309 117.01C126.093 116.751 125.893 116.472 125.665 116.219C125.403 115.91 125.109 115.628 124.788 115.38C124.629 115.254 124.467 115.129 124.301 115.008C124.133 114.893 123.962 114.782 123.791 114.673C123.62 114.563 123.474 114.467 123.307 114.38L122.806 114.113C122.472 113.932 122.126 113.78 121.782 113.619C121.439 113.458 121.107 113.327 120.767 113.18C120.426 113.034 120.077 112.923 119.73 112.802C118.394 112.352 117.013 112.045 115.611 111.887C115.436 111.868 115.263 111.846 115.089 111.831L114.566 111.802L114.044 111.777H113.522L113.004 111.786C112.83 111.786 112.657 111.808 112.485 111.82C112.143 111.849 111.793 111.874 111.472 111.92C109.668 111.95 107.86 111.929 106.064 111.804C105.46 111.725 104.862 111.621 104.257 111.548C103.512 111.454 102.761 111.406 102.01 111.402C100.481 111.402 98.9569 111.611 97.4251 111.559C96.9749 111.491 96.5305 111.404 96.0759 111.342C95.4359 111.264 94.7912 111.23 94.1465 111.241C92.888 111.241 91.6237 111.293 90.3666 111.225C90.1272 111 89.86 110.806 89.5715 110.649C89.1936 110.453 88.7969 110.296 88.3875 110.18C87.6801 109.98 86.9535 109.855 86.2199 109.808C85.3984 109.731 84.5711 109.678 83.7467 109.604L83.0919 109.515C82.5356 109.419 81.9736 109.36 81.4095 109.339H81.2385C80.2422 109.37 79.252 109.507 78.2844 109.747C77.6808 109.906 77.0946 110.142 76.5041 110.332L75.6271 110.612C75.3201 110.694 75.022 110.805 74.7369 110.946C74.0456 110.921 73.3542 110.899 72.6643 110.899C72.331 110.899 71.9992 110.899 71.666 110.913C70.4133 110.956 69.1592 111.038 67.9095 111.112C66.5516 111.194 65.2112 111.321 63.865 111.475L63.9425 111.464L62.9442 111.57C62.5086 111.506 62.0689 111.474 61.6286 111.476C61.1039 111.476 60.5835 111.476 60.0603 111.476C59.6042 111.476 59.1833 111.651 58.7316 111.637C58.2478 111.621 57.7771 111.518 57.2918 111.596C56.8402 111.669 56.4689 111.814 56.007 111.733L54.598 111.473C54.1213 111.38 53.6379 111.325 53.1524 111.309C52.5452 111.232 51.9325 111.205 51.3209 111.231C51.0902 111.248 50.8608 111.279 50.6339 111.324C50.5199 111.346 50.4059 111.37 50.2919 111.399C50.1793 111.431 50.0668 111.464 49.9542 111.501C49.7321 111.571 49.5157 111.647 49.2906 111.722C49.0655 111.796 48.8594 111.888 48.646 111.963C48.4546 112.033 48.2645 112.097 48.0804 112.181L47.5308 112.429L47.1756 112.53L46.8263 112.647C46.5733 112.725 46.3161 112.788 46.056 112.837C45.7971 112.894 45.5418 112.967 45.2915 113.055C44.2873 113.452 43.2568 113.976 42.4617 114.702C41.7484 115.364 40.8933 115.82 40.1976 116.488C40.0909 116.589 39.9871 116.69 39.8891 116.795L39.6114 117.13L39.4404 117.244C39.1261 117.443 38.9142 117.744 38.6935 118.029C38.4333 118.217 38.1946 118.433 37.9817 118.673L37.6893 118.898C37.5914 118.976 37.5008 119.061 37.4072 119.15C37.3 119.257 37.2022 119.374 37.1149 119.498C37.055 119.569 36.9921 119.644 36.9322 119.718L36.7597 119.947C36.6457 120.093 36.5361 120.239 36.444 120.351C36.3212 120.498 36.2116 120.644 36.1034 120.803C35.9952 120.962 35.8885 121.109 35.7833 121.263C35.5772 121.575 35.396 121.899 35.2118 122.222C35.1051 122.385 35.0086 122.553 34.9063 122.718C34.3006 123.706 33.8018 124.756 33.4183 125.85C33.0289 126.957 32.7221 128.092 32.5004 129.244C32.2869 130.396 32.1749 131.565 32.1656 132.736C32.1656 133.029 32.1803 133.321 32.2066 133.602C32.2329 133.882 32.2709 134.147 32.306 134.419C32.3776 134.962 32.4521 135.506 32.4755 136.075C32.4989 136.586 32.5735 137.725 32.5735 138.231C32.5735 138.552 32.6334 138.761 32.8994 138.761C33.1216 138.761 33.2254 138.592 33.2254 138.231C33.2254 138.077 33.2254 137.368 33.2429 137.207C33.3365 136.496 33.3759 136.351 33.4505 135.635C33.525 134.918 33.3145 134.198 33.3043 133.454C33.2911 131.982 33.6434 130.531 34.003 129.127C34.0892 128.896 34.1755 128.67 34.2705 128.446L34.5745 127.785C34.6695 127.565 34.7864 127.347 34.8873 127.132C34.9881 126.917 35.0802 126.694 35.1796 126.47C35.5641 125.531 36.0114 124.619 36.5185 123.74C36.9943 122.938 37.5402 122.18 38.1497 121.474C38.2104 121.415 38.2652 121.349 38.3135 121.28L38.35 121.237L38.4085 121.145L38.3529 121.242C38.4055 121.152 38.4596 121.062 38.5181 120.974L38.6964 120.714C38.8166 120.541 38.9274 120.361 39.0282 120.176C39.1035 120.039 39.1642 119.895 39.2095 119.746C39.3556 119.571 39.493 119.407 39.6626 119.236C39.7898 119.103 39.9081 118.97 40.0353 118.844C40.0989 118.782 40.1658 118.722 40.2356 118.666C40.3095 118.612 40.3872 118.563 40.468 118.52C40.6463 118.422 40.8202 118.325 40.9898 118.228C41.1593 118.13 41.3347 118.039 41.5014 117.935C41.668 117.831 41.8259 117.723 41.9896 117.618C42.1546 117.51 42.3128 117.391 42.4632 117.263C42.5289 117.209 42.5932 117.152 42.6605 117.098L42.8563 116.934L43.27 116.623C43.5492 116.417 43.8444 116.237 44.1368 116.054L44.7288 115.711C45.0328 115.614 45.347 115.548 45.6569 115.481C45.8118 115.449 45.9639 115.409 46.1203 115.382L46.5865 115.295C46.816 115.249 47.044 115.2 47.2765 115.168L47.9649 115.06C48.4297 115.013 48.8828 114.95 49.3447 114.949L49.8329 114.936H50.3182C50.479 114.936 50.6383 114.936 50.7991 114.936C50.9599 114.936 51.1236 114.936 51.2873 114.936C51.451 114.936 51.6015 114.92 51.7609 114.899C51.9202 114.879 52.0824 114.87 52.2418 114.844C52.4011 114.817 52.5604 114.784 52.7168 114.744C52.8732 114.705 53.0267 114.673 53.1758 114.627C53.2927 114.592 53.4096 114.553 53.5266 114.511L53.7049 114.448L53.8964 114.385C54.1112 114.364 54.3261 114.345 54.5424 114.332C54.8407 114.333 55.1384 114.358 55.4326 114.407C55.7629 114.439 56.083 114.347 56.4119 114.297C56.7737 114.221 57.15 114.255 57.4921 114.395C57.8079 114.556 58.1491 114.661 58.5007 114.705C59.1204 114.756 59.7548 114.68 60.3804 114.66L61.5599 114.756C61.9853 114.826 62.4048 114.91 62.8272 114.997C63.4925 115.118 64.1647 115.198 64.8399 115.236C65.6789 115.303 66.5194 115.342 67.3569 115.411C67.8846 115.491 68.3962 115.599 68.9136 115.728C69.5964 115.89 70.2918 115.993 70.9921 116.035C72.0506 116.103 73.112 116.111 74.1713 116.058C75.348 116.02 76.5204 115.897 77.6793 115.689L78.682 115.484C79.4625 115.597 80.2387 115.719 81.0295 115.795C81.9674 115.894 82.9104 115.936 83.8534 115.923C84.9579 115.874 86.057 115.739 87.1407 115.521C87.5338 115.446 87.9212 115.344 88.2998 115.215C88.6579 115.094 89.0161 114.97 89.3654 114.826C89.5375 114.752 89.7029 114.662 89.8594 114.559C90.3564 114.461 90.8695 114.399 91.3679 114.315C91.7786 114.245 92.1864 114.18 92.5986 114.12C93.2271 114.054 93.8542 113.996 94.4871 113.965C95.246 113.939 96.0057 113.954 96.7629 114.011C98.0317 114.088 99.3209 113.974 100.591 113.857C100.797 114.077 101.068 114.225 101.364 114.28C102.373 114.426 103.378 114.5 104.4 114.553C105.178 114.592 105.952 114.654 106.727 114.728C107.446 114.817 108.17 114.854 108.893 114.839C109.662 114.8 110.419 114.66 111.178 114.565L111.47 114.531C111.539 114.531 111.603 114.516 111.666 114.506H111.804H111.931L112.184 114.515L112.688 114.527C113.024 114.54 113.36 114.566 113.699 114.581C114.717 114.67 115.722 114.871 116.696 115.18C117.605 115.456 118.501 115.81 119.41 116.092C119.664 116.18 119.926 116.256 120.18 116.348L120.948 116.63L121.705 116.944C121.959 117.051 122.202 117.177 122.453 117.294C122.534 117.333 122.614 117.371 122.693 117.412L122.925 117.544L123.392 117.81C123.699 117.995 123.995 118.198 124.295 118.394C124.595 118.59 124.88 118.82 125.156 119.051L125.571 119.401C125.64 119.46 125.71 119.517 125.777 119.577L125.973 119.762C126.371 120.172 126.742 120.606 127.1 121.047C127.204 121.185 127.309 121.32 127.416 121.454C127.522 121.587 127.631 121.717 127.73 121.854C127.829 121.991 127.935 122.124 128.04 122.257L128.199 122.456L128.345 122.662L128.622 123.115C128.891 123.567 129.31 124.139 129.706 124.723C129.906 125.016 130.086 125.327 130.262 125.615C130.437 125.903 130.563 126.191 130.672 126.436C130.782 126.682 130.858 126.938 130.944 127.176C130.984 127.296 131.026 127.414 131.063 127.531C131.099 127.648 131.125 127.768 131.156 127.883C131.216 128.116 131.282 128.341 131.327 128.568C131.372 128.794 131.416 129.019 131.46 129.243C131.606 130.143 131.736 131.045 131.843 132.131C131.861 132.267 131.878 132.404 131.897 132.54C131.916 132.676 131.931 132.812 131.95 132.948C131.989 133.223 132.043 133.492 132.081 133.775C132.165 134.338 132.251 134.901 132.279 135.47C132.304 135.98 132.279 138.225 132.279 138.225C132.279 138.546 132.34 138.755 132.605 138.755C132.822 138.766 132.928 138.596 132.928 138.235Z" fill="#063844"/>
<path d="M57.4878 74.7297C54.7866 72.5035 51.1499 71.2801 47.7121 71.9408C44.2742 72.6015 41.1988 75.345 40.6127 78.7961C39.933 82.8069 42.6342 86.7797 46.1305 88.8597C49.6269 90.9397 53.7795 91.5331 57.8093 92.0842" fill="white"/>
<path d="M57.0886 91.7552C56.2306 91.6354 55.3989 91.3445 54.5365 91.2802C54.2512 91.2622 53.9675 91.2246 53.6873 91.1676C53.5074 91.1326 53.3305 91.0837 53.1582 91.0214C52.8668 90.9003 52.5662 90.8025 52.2593 90.7291C51.8514 90.6502 50.9437 90.3476 50.5447 90.2292C50.2951 90.1705 50.0423 90.1266 49.7876 90.0977C49.5334 90.0666 49.2831 90.0092 49.0407 89.9267C48.991 89.9076 48.9471 89.8901 48.9047 89.8711C48.1578 89.5349 47.4913 88.9941 46.8978 88.4489C46.7517 88.3027 46.5982 88.1799 46.4593 88.0367C46.3205 87.8935 46.1875 87.7634 46.0515 87.6362C45.8013 87.3754 45.5379 87.1275 45.2622 86.8937C44.6469 86.3821 43.9555 85.9494 43.384 85.3604C42.8573 84.8115 42.3975 84.2021 42.0144 83.545C41.5859 82.8175 41.2709 82.0288 41.0804 81.2063C41.0643 81.1186 41.0409 81.0309 41.0307 80.9432L41.0058 80.6786L40.9839 80.4141L40.9737 80.281V80.1495L40.9912 79.6204C41.0102 79.4435 41.0424 79.2696 41.0701 79.0927C41.1985 78.4122 41.4261 77.7543 41.7454 77.1399C42.4462 75.8169 43.4749 74.6961 44.7331 73.8847C45.3748 73.4652 45.9814 73.0413 46.6523 72.6891C47.3376 72.3147 48.0952 72.0914 48.874 72.0343C49.4898 72.0066 50.1067 72.0492 50.7128 72.1614C51.3647 72.2769 52.0005 72.4362 52.496 72.5721C53.1728 72.806 53.7151 72.958 54.2822 73.1568C54.5746 73.2489 54.8552 73.3731 55.1709 73.5105C55.3244 73.588 55.4837 73.6699 55.6518 73.762C55.8199 73.854 55.9865 73.9681 56.1678 74.085C56.7934 74.5133 57.3488 74.8845 57.4833 74.7281C57.6178 74.5717 57.1325 74.0981 56.4528 73.6553C55.6575 73.1393 54.8188 72.6938 53.946 72.3237C53.1032 71.9614 52.2199 71.7018 51.315 71.5504C50.7448 71.4543 50.1684 71.3991 49.5902 71.3853C48.7959 71.3707 48.0029 71.4557 47.2296 71.6381C46.9519 71.6937 46.6815 71.7843 46.4053 71.8442C46.2664 71.8735 46.1348 71.9246 45.9974 71.9641C45.86 72.0036 45.7241 72.0445 45.5896 72.0913C45.0455 72.2761 44.5265 72.528 44.0446 72.8411C43.8929 72.9358 43.7465 73.0387 43.6061 73.1495L43.2656 73.4126C43.0697 73.5763 42.925 73.7137 42.7964 73.8219C42.6677 73.93 42.5742 74.0324 42.4733 74.1142C42.3725 74.1961 42.276 74.2867 42.1591 74.3846C41.991 74.541 41.8302 74.6843 41.6738 74.8231C41.5174 74.962 41.3815 75.1067 41.2499 75.2456L41.1476 75.3493L41.0541 75.4604C40.9927 75.535 40.9327 75.6066 40.8728 75.6884C40.8129 75.7703 40.753 75.8434 40.6959 75.9267C40.6389 76.01 40.5922 76.1006 40.5498 76.1927C40.0742 77.038 39.7791 77.9727 39.683 78.9378L39.6552 79.2783C39.6431 79.3914 39.6382 79.5052 39.6406 79.6189C39.6406 79.8469 39.6406 80.0749 39.6479 80.3015L39.7122 80.9797L39.7298 81.1478L39.759 81.3144L39.8175 81.6477C39.9863 82.5257 40.2368 83.386 40.5659 84.2173C40.636 84.4059 40.7252 84.5842 40.8056 84.7699L40.9327 85.0447C40.9795 85.1324 41.0292 85.2201 41.0789 85.3078C41.1783 85.4817 41.2762 85.6586 41.3873 85.8266C41.4984 85.9947 41.6183 86.1541 41.7396 86.3149C42.2877 87.0048 42.811 87.7049 43.4775 88.2852C43.7296 88.4989 43.9925 88.6995 44.2654 88.8859C44.4057 88.9756 44.5475 89.0633 44.6907 89.149L44.9041 89.2747L45.1263 89.3888C45.4111 89.5361 45.7038 89.6674 46.0033 89.7819L46.4257 89.9427L46.8364 90.0743C47.9035 90.4002 48.7366 90.5128 48.9266 90.5771C49.1985 90.6794 49.466 90.792 49.7408 90.8811C49.8767 90.9264 50.0141 90.9703 50.1515 91.0112C50.2889 91.0522 50.4278 91.0814 50.5666 91.1106C50.7055 91.1399 50.8064 91.1632 50.9306 91.1954L51.3062 91.2889C51.5591 91.3547 51.8105 91.419 52.0473 91.4585C52.86 91.6237 53.6669 91.7698 54.4839 91.897C55.3946 92.0432 56.1269 92.0709 57.0302 92.1966C57.3795 92.2449 57.7829 92.2522 57.8092 92.0987C57.8429 91.8999 57.5651 91.821 57.0886 91.7552Z" fill="#063844"/>
<path d="M59.1409 116.14C63.3724 115.05 66.249 110.845 65.027 106.65C63.7744 102.354 46.1524 96.6182 49.9572 76.7453C54.4313 39.5924 66.6524 38.4786 74.9986 36.1428C83.3447 33.8071 93.2242 35.184 100.717 38.5517C100.717 38.5517 116.69 46.4214 115.864 67.7618C115.038 89.1023 106.623 102.586 104.042 104.723C104.042 104.723 99.9377 118.633 110.488 118.633" fill="white"/>
<path d="M109.211 118.295C108.85 118.25 108.494 118.177 108.145 118.076C107.97 118.03 107.802 117.965 107.631 117.906C107.459 117.848 107.299 117.772 107.139 117.688C106.501 117.375 105.928 116.941 105.453 116.412C105.004 115.907 104.641 115.332 104.38 114.709C104.115 114.076 103.922 113.414 103.805 112.738C103.728 112.261 103.691 111.778 103.693 111.295C103.693 110.745 103.721 110.197 103.734 109.843C103.747 109.49 103.766 109.05 103.81 108.592C103.854 108.135 103.915 107.677 103.975 107.351C104.048 106.926 104.15 106.505 104.279 106.093L104.435 105.59C104.462 105.507 104.489 105.415 104.522 105.311L104.562 105.184L104.584 105.113L104.598 105.078C104.598 105.072 104.601 105.066 104.604 105.06C104.608 105.054 104.612 105.05 104.618 105.046L104.742 104.942C104.764 104.926 104.784 104.908 104.804 104.888C104.804 104.888 104.852 104.843 104.881 104.815L105.074 104.627L105.254 104.434C105.377 104.307 105.492 104.177 105.603 104.046C105.714 103.916 105.831 103.785 105.936 103.652C106.375 103.123 106.775 102.576 107.163 102.018C107.946 100.844 108.659 99.6233 109.295 98.3634C109.908 97.1839 110.484 95.9955 111.025 94.7852C111.609 93.4697 112.159 92.1542 112.618 90.7978C113.16 89.1695 113.631 87.5212 114.033 85.8529C114.389 84.3562 114.763 82.9062 115.119 81.4197C115.766 78.9758 116.335 76.5333 116.798 74.0675C116.879 73.6684 116.944 73.2664 117.006 72.863C117.067 72.4596 117.137 72.0576 117.193 71.6513C117.248 71.245 117.298 70.8386 117.351 70.4293C117.375 70.2267 117.4 70.022 117.425 69.8154L117.487 69.1986C117.513 68.9297 117.539 68.6592 117.566 68.3874C117.589 68.1155 117.621 67.848 117.63 67.5659C117.659 67.0076 117.681 66.4477 117.696 65.8865C117.696 65.6292 117.685 65.3705 117.678 65.1132C117.662 64.7259 117.644 64.34 117.628 63.9556C117.612 63.5712 117.56 63.1867 117.526 62.8023L117.468 62.2279L117.438 61.9355C117.427 61.8391 117.411 61.7441 117.397 61.6432L117.226 60.5133C116.942 58.7454 116.502 57.006 115.911 55.3156C115.803 54.9926 115.668 54.6798 115.547 54.3626L115.361 53.8905L115.266 53.6537L115.163 53.4227L114.742 52.5019L114.636 52.2709L114.522 52.0444L114.303 51.5971L114.074 51.1469L113.957 50.9218L113.832 50.7026L113.331 49.8256C113.164 49.5332 112.976 49.2526 112.8 48.9661L112.526 48.5276L112.242 48.111C111.537 47.0625 110.771 46.0561 109.949 45.097L109.48 44.5372C109.32 44.3501 109.152 44.1703 108.988 43.9876C108.665 43.6164 108.319 43.267 107.977 42.9118C106.991 41.9154 105.93 40.9967 104.802 40.1639C103.932 39.5145 103.021 38.9208 102.076 38.3865C101.838 38.2535 101.598 38.1234 101.345 37.9977L101.154 37.9041L101.035 37.8471L100.932 37.8077L100.556 37.6615C100.055 37.4729 99.5591 37.2683 99.0475 37.1031L98.3971 36.8678C98.1808 36.7874 97.9586 36.7085 97.7437 36.6398L96.4282 36.21C95.943 36.0639 95.4548 35.9353 94.9665 35.8052C94.4784 35.6751 93.9814 35.5859 93.4888 35.4792L93.2462 35.4251L93.0021 35.3813L92.5124 35.2907L91.5345 35.1079L90.5494 34.9618C90.2219 34.9106 89.8945 34.8551 89.5627 34.8156C88.9021 34.7396 88.2472 34.6417 87.5792 34.5949L86.5824 34.5043L85.5826 34.4502C84.8693 34.3961 84.1531 34.402 83.4369 34.3888C83.0787 34.3756 82.7206 34.4005 82.3625 34.4063C82.0044 34.4122 81.6463 34.418 81.2896 34.4414L80.2168 34.5145C80.037 34.5291 79.8587 34.535 79.6803 34.554L79.1454 34.6139L78.074 34.7323L77.0069 34.8975L76.5041 34.9749C76.3375 35.0012 76.1738 35.0422 76.0086 35.0758L75.0176 35.2936L74.7706 35.3491L74.5323 35.4076L74.0573 35.5289L73.0926 35.7759C71.8297 36.1092 70.5522 36.4848 69.2922 36.9453C67.9208 37.4442 66.597 38.0655 65.3369 38.8016C64.0889 39.5295 62.9141 40.3764 61.8289 41.3303C61.2749 41.7688 60.7736 42.2614 60.2532 42.7408L59.4508 43.5579C59.3134 43.6909 59.1891 43.8341 59.0649 43.9774L58.6892 44.4086C57.3772 45.97 56.2446 47.6738 55.3128 49.4879C55.1242 49.8606 54.9356 50.2363 54.7471 50.6119C54.5585 50.9876 54.405 51.3779 54.2355 51.7623C53.8862 52.5282 53.604 53.3146 53.3088 54.0922C53.1465 54.5073 53.0165 54.9268 52.8849 55.3463L52.499 56.6004C52.271 57.4409 52.0605 58.2813 51.8413 59.1233C51.6819 59.7591 51.5153 60.3803 51.3282 61.0103C51.2011 61.424 51.0856 61.8318 50.9745 62.2425C50.8049 62.8666 50.6895 63.4893 50.5638 64.1134C50.4546 64.7595 50.3445 65.406 50.2334 66.0531C50.1662 66.436 50.0873 66.8175 50.0317 67.2005C49.9762 67.5835 49.9133 67.9679 49.8549 68.3508C49.7438 69.1182 49.6181 69.8812 49.545 70.6442C49.4719 71.4072 49.3988 72.1673 49.3228 72.9273C49.2468 73.6874 49.2176 74.4329 49.1591 75.1886C49.1021 75.8829 49.0641 76.5845 48.9574 77.2758L48.9238 77.5375L48.8945 77.8079L48.8361 78.3487C48.8024 78.7097 48.7761 79.0795 48.7498 79.4347C48.7045 80.2372 48.6855 81.0353 48.7089 81.8333C48.7323 82.6314 48.7849 83.4266 48.8843 84.2217C48.9179 84.5579 48.9618 84.8912 49.0027 85.2244C49.0436 85.5577 49.0933 85.8866 49.1489 86.2169C49.2556 86.8776 49.3973 87.5324 49.5567 88.196C49.716 88.8596 49.9075 89.4837 50.1209 90.1167C50.3343 90.7496 50.5901 91.3664 50.8649 91.9744C51.4693 93.2807 52.1987 94.5255 53.0428 95.6915C53.8844 96.8492 54.8128 97.9413 55.82 98.9583C56.8569 99.9862 57.9625 100.942 59.1292 101.82C60.2722 102.708 61.443 103.551 62.4998 104.485C62.8375 104.777 63.1678 105.087 63.4718 105.4C63.7669 105.691 64.03 106.012 64.2567 106.359C64.3054 106.437 64.3489 106.519 64.3868 106.603C64.4082 106.641 64.4253 106.681 64.438 106.723C64.4549 106.764 64.4695 106.806 64.4818 106.848L64.5666 107.154L64.6339 107.464C64.7152 107.879 64.7559 108.301 64.7552 108.724C64.7069 109.882 64.4256 111.019 63.9279 112.067C63.6565 112.625 63.3125 113.146 62.9047 113.615C62.4474 114.138 61.9101 114.586 61.3129 114.942C60.8202 115.229 60.3123 115.489 59.7913 115.721C59.5852 115.813 59.4171 115.898 59.3017 115.963C59.1862 116.029 59.1263 116.094 59.1394 116.142C59.1526 116.19 59.23 116.21 59.3645 116.208C59.4453 116.205 59.5259 116.197 59.6057 116.184C59.6978 116.168 59.8016 116.145 59.9156 116.117C60.5028 115.955 61.0635 115.708 61.5804 115.386C62.3501 114.914 63.0456 114.331 63.6443 113.655C63.9006 113.362 64.1388 113.053 64.3576 112.73C64.5624 112.42 64.7469 112.098 64.9101 111.764C65.0732 111.434 65.211 111.092 65.3223 110.741C65.3852 110.564 65.4275 110.381 65.4772 110.197C65.5269 110.013 65.562 109.822 65.5883 109.626C65.6539 109.218 65.6817 108.805 65.6716 108.392C65.6639 107.933 65.6106 107.476 65.5123 107.028C65.4904 106.914 65.4568 106.803 65.429 106.689C65.4115 106.631 65.4012 106.578 65.3793 106.515C65.3574 106.452 65.334 106.391 65.3121 106.327C65.2078 106.087 65.0784 105.859 64.9262 105.647C64.6021 105.219 64.2364 104.824 63.8343 104.469C62.9997 103.709 61.978 102.933 60.756 101.931C59.306 100.736 58.0154 99.3939 56.713 98.0784C55.817 97.1663 55.3332 96.605 54.9897 96.1884C54.6983 95.8405 54.4293 95.4743 54.1843 95.0922C53.4009 93.8512 53.015 92.8997 52.4566 91.7771C51.8289 90.4859 51.3106 89.1442 50.9073 87.7663C50.1344 85.1272 49.9453 82.3515 50.3533 79.632C50.3971 79.3266 50.4527 79.0225 50.4994 78.717C50.5462 78.4115 50.612 78.1075 50.6675 77.8035C50.7231 77.4995 50.7976 77.1735 50.8546 76.8578C50.9116 76.5421 50.9438 76.2234 50.9833 75.9062C51.068 75.2046 51.1762 74.5147 51.2844 73.8233C51.3925 73.132 51.5285 72.4581 51.6308 71.7668C51.8296 70.3723 52.1058 69.0378 52.2418 67.6405C52.3061 67.0324 52.4289 66.4302 52.5414 65.8265C52.654 65.2228 52.765 64.6192 52.8674 64.0228C52.9536 63.4849 53.0545 62.947 53.1597 62.415C53.1699 62.3843 53.1816 62.3536 53.1919 62.3214C53.262 62.1051 53.3361 61.8863 53.414 61.6651C53.4886 61.4444 53.5602 61.2193 53.6333 60.9928L54.0557 59.629C54.2574 59.0443 54.4606 58.4509 54.6535 57.8516C55.092 56.561 55.4896 55.263 55.9471 53.9913C56.4046 52.7197 56.9147 51.5065 57.4746 50.3035C57.5783 50.0623 57.704 49.8343 57.8224 49.6005L58.182 48.9047L58.3384 48.6811C58.6308 48.304 58.907 47.9181 59.1716 47.5117C59.3002 47.3071 59.4493 47.1185 59.5867 46.9271C59.7241 46.7356 59.8629 46.5309 59.9974 46.3292C60.1319 46.1275 60.281 45.9375 60.4228 45.7446C60.5646 45.5516 60.7078 45.3558 60.851 45.1599C61.1434 44.7784 61.4562 44.4188 61.7573 44.0563C61.8513 43.9591 61.9341 43.8518 62.0043 43.7362C62.9533 42.6877 64.0228 41.755 65.1908 40.9576C66.3661 40.1703 67.6268 39.5187 68.9487 39.015C70.4806 38.4143 72.0942 38.0255 73.7562 37.6352L74.9913 37.3428L75.3026 37.2668L75.595 37.2011L76.1796 37.071L76.7643 36.9409C76.9616 36.9014 77.1619 36.8751 77.3607 36.8415L77.957 36.7465C78.1573 36.7172 78.3531 36.6778 78.5549 36.6632L79.9201 36.5492L81.2896 36.5024C81.5162 36.4907 81.7457 36.4951 81.9737 36.5024L82.6578 36.5141C83.1124 36.5141 83.5669 36.5492 84.0215 36.5784C86.2471 36.7052 88.4623 36.9751 90.6531 37.3867C92.8237 37.8252 95.0148 38.233 97.1094 38.8484C97.5479 38.9755 97.9688 39.1217 98.3986 39.2547L98.7201 39.3585L99.0359 39.4725L99.6658 39.6991L100.059 39.8686C100.072 39.874 100.084 39.8803 100.096 39.8876L100.175 39.9315L100.35 40.0309C100.587 40.177 100.828 40.3232 101.069 40.4694C101.553 40.7734 102.032 41.092 102.516 41.3858C103.582 42.0378 104.676 42.6356 105.644 43.4877C106.562 44.2975 107.367 45.2417 108.199 46.1334C108.589 46.5397 108.962 46.9899 109.336 47.4489C109.518 47.6798 109.69 47.9181 109.862 48.1549C109.949 48.2733 110.035 48.3902 110.115 48.51L110.346 48.8755C110.511 49.1459 110.681 49.4119 110.83 49.6911C110.979 49.9703 111.122 50.2494 111.282 50.5242C111.441 50.799 111.574 51.0504 111.72 51.3033C111.866 51.5562 112.033 51.8091 112.159 52.0853C112.344 52.4727 112.551 52.8498 112.733 53.24C112.916 53.6303 113.088 54.022 113.258 54.4181C113.786 56.089 114.195 57.7952 114.481 59.5238C114.515 59.7226 114.55 59.9214 114.584 60.1216C114.617 60.3219 114.658 60.5192 114.68 60.7223C114.733 61.1248 114.788 61.5268 114.847 61.9282C114.861 62.0291 114.879 62.1299 114.891 62.2308L114.92 62.5334C114.942 62.7351 114.962 62.9368 114.984 63.137C115.024 63.5405 115.084 63.9395 115.104 64.34L115.17 65.2477C115.193 65.5503 115.221 65.8528 115.224 66.1569C115.239 66.7635 115.269 67.3686 115.265 67.9825C115.24 68.8595 115.23 69.7277 115.184 70.5989C115.163 70.9818 115.144 71.3633 115.113 71.7448C115.082 72.1263 115.04 72.5093 115.003 72.8952C114.977 73.1364 114.953 73.379 114.921 73.626L114.818 74.3466C114.746 74.8275 114.68 75.307 114.597 75.782C114.272 77.8181 113.844 79.8338 113.369 81.8348C112.912 83.7642 112.48 85.7068 111.98 87.604C111.507 89.396 110.896 91.1588 110.263 92.907C109.667 94.5546 108.967 96.1623 108.165 97.7203C107.708 98.5973 107.353 99.5372 106.834 100.383C106.395 101.092 105.957 101.8 105.483 102.474C105.222 102.846 104.941 103.204 104.65 103.544C104.58 103.63 104.504 103.709 104.428 103.792C104.352 103.875 104.282 103.957 104.2 104.032L104.083 104.146C104.036 104.194 103.982 104.245 103.937 104.292L103.779 104.438C103.732 104.488 103.656 104.521 103.65 104.597C103.611 104.73 103.57 104.865 103.533 104.999L103.434 105.371C103.374 105.597 103.318 105.825 103.267 106.055C103.163 106.513 103.074 106.974 103.001 107.438C102.827 108.426 102.752 109.429 102.776 110.432C102.83 111.292 102.954 112.146 103.148 112.986C103.286 113.706 103.507 114.407 103.807 115.076C104.109 115.755 104.523 116.379 105.03 116.922C105.315 117.204 105.631 117.453 105.972 117.665C106.283 117.873 106.615 118.049 106.963 118.191C107.304 118.337 107.657 118.454 108.018 118.542C108.394 118.635 108.775 118.704 109.159 118.751C109.457 118.79 109.757 118.802 110.057 118.784C110.311 118.76 110.495 118.714 110.495 118.638C110.503 118.415 110.014 118.396 109.211 118.295Z" fill="#063844"/>
<path d="M106.053 76.6473C108.755 74.4211 112.391 73.1992 115.829 73.8599C119.267 74.5205 122.342 77.2641 122.927 80.7151C123.607 84.7245 120.905 88.6988 117.409 90.7773C113.913 92.8558 109.76 93.4507 105.73 94.0018" fill="white"/>
<path d="M106.515 94.1318C107.373 94.0119 108.262 94.0499 109.11 93.8263C109.461 93.7342 109.732 93.6801 109.955 93.6363C110.177 93.5924 110.354 93.5866 110.509 93.5749C110.832 93.5765 111.154 93.5427 111.47 93.474C111.884 93.3849 112.856 93.1817 113.267 93.0618C113.519 92.971 113.764 92.8596 113.998 92.7286C114.225 92.5953 114.462 92.4809 114.708 92.3866C114.761 92.3705 114.809 92.3544 114.854 92.3369C115.655 92.0854 116.519 91.9115 117.37 91.6616C117.58 91.5943 117.795 91.5417 118.001 91.4569C118.207 91.3722 118.413 91.2947 118.615 91.207C119.002 91.0258 119.366 90.7986 119.698 90.5302C120.438 89.9149 120.983 89.1256 121.493 88.3377C121.972 87.6117 122.385 86.8441 122.727 86.0443C123.094 85.1583 123.325 84.2221 123.414 83.2672C123.427 83.1678 123.446 83.0684 123.453 82.9748L123.474 82.6825L123.494 82.3902L123.506 82.244V82.0978C123.506 81.8976 123.506 81.6988 123.506 81.4985C123.506 81.2983 123.472 81.0966 123.458 80.8934C123.381 80.0955 123.184 79.3139 122.873 78.5752C122.528 77.781 122.062 77.0452 121.492 76.3944C120.925 75.7458 120.275 75.1764 119.556 74.7017C118.833 74.2429 118.027 73.9305 117.184 73.7823C116.367 73.6157 115.551 73.5762 114.709 73.5017C114.064 73.436 113.415 73.416 112.767 73.4418C112.116 73.4625 111.471 73.5606 110.843 73.7341C110.19 73.8783 109.562 74.1224 108.983 74.4576C108.7 74.6038 108.427 74.7836 108.116 74.9605L107.082 75.5685C106.413 75.9895 105.929 76.4952 106.059 76.6458C106.189 76.7963 106.72 76.4294 107.367 75.9968C108.126 75.492 108.943 75.0811 109.801 74.7734C110.62 74.4807 111.467 74.2725 112.328 74.1521C112.864 74.0766 113.405 74.0448 113.946 74.0571C114.679 74.0743 115.407 74.1679 116.12 74.3363C116.37 74.395 116.614 74.4742 116.851 74.5731C116.972 74.6155 117.086 74.6798 117.203 74.7339C117.32 74.788 117.435 74.8435 117.548 74.9064C117.995 75.1622 118.425 75.4282 118.852 75.7161C118.987 75.7984 119.117 75.8876 119.242 75.9836L119.548 76.2117C119.724 76.3578 119.853 76.4748 119.966 76.5727C120.062 76.6581 120.152 76.7509 120.235 76.8504C120.312 76.9396 120.381 77.0258 120.461 77.1325C120.572 77.3021 120.669 77.4614 120.753 77.6119C120.838 77.7625 120.9 77.9218 120.976 78.0665L121.028 78.1747L121.074 78.2858C121.103 78.3589 121.134 78.4319 121.167 78.505C121.201 78.5781 121.233 78.6512 121.269 78.7199C121.306 78.7886 121.331 78.8661 121.366 78.945C121.69 79.6267 121.92 80.3489 122.051 81.0922L122.095 81.3567C122.113 81.4449 122.124 81.5343 122.127 81.6242L122.157 82.1651C122.157 82.3463 122.138 82.529 122.127 82.7117L122.119 82.8477L122.097 82.9836L122.051 83.2555C121.919 83.9828 121.655 84.6801 121.274 85.3135C121.191 85.4597 121.09 85.5941 121.002 85.7345L120.881 85.9464L120.734 86.1511L120.442 86.5618C120.338 86.6933 120.239 86.8278 120.142 86.9652C119.704 87.5601 119.14 88.041 118.593 88.5365C118.387 88.7163 118.181 88.9048 117.973 89.0963C117.867 89.1869 117.76 89.2805 117.655 89.3755L117.498 89.5217L117.336 89.6547C117.12 89.8345 116.911 90.0216 116.689 90.1867L116.368 90.4425L116.054 90.6764C115.233 91.2874 114.549 91.7303 114.366 91.799C114.1 91.8867 113.834 91.9744 113.566 92.0504C113.432 92.0898 113.3 92.1322 113.169 92.1761C113.037 92.2199 112.906 92.2623 112.777 92.3105C112.648 92.3588 112.552 92.3895 112.434 92.426C112.315 92.4626 112.189 92.4918 112.067 92.5225C111.821 92.5868 111.574 92.6453 111.348 92.7067C110.561 92.9098 109.769 93.0721 108.961 93.208C108.06 93.3542 107.353 93.5457 106.455 93.6714C106.106 93.7196 105.724 93.8175 105.732 93.9769C105.749 94.1888 106.037 94.1903 106.515 94.1318Z" fill="#063844"/>
<path d="M115.911 83.4455C115.375 82.9778 114.749 82.5173 114.036 82.3697C113.422 82.2303 112.779 82.3262 112.233 82.6386C111.266 83.1985 110.691 84.2757 110.209 85.2404C109.94 85.7812 109.689 86.3323 109.399 86.8629C109.178 87.2663 109.287 87.8378 109.713 88.0629C109.915 88.1766 110.153 88.2073 110.377 88.1487C110.601 88.09 110.793 87.9466 110.914 87.7487C111.391 86.8717 111.766 85.9376 112.29 85.087C112.349 84.9919 112.41 84.8984 112.473 84.8063C112.505 84.7581 112.539 84.7113 112.574 84.6601C112.574 84.6514 112.622 84.5841 112.63 84.5856C112.637 84.5871 112.469 84.7873 112.586 84.647C112.718 84.4841 112.864 84.3339 113.024 84.1983C113.121 84.1149 112.824 84.3357 112.979 84.2363C113.02 84.2099 113.059 84.1822 113.102 84.1573C113.144 84.1325 113.185 84.112 113.227 84.0886C113.394 84.0009 113.011 84.1603 113.192 84.1047C113.279 84.0784 113.363 84.0579 113.451 84.0389C113.539 84.0199 113.189 84.0609 113.328 84.0565H113.394C113.448 84.0565 113.504 84.0565 113.559 84.0565C113.759 84.0565 113.331 84.0053 113.531 84.0565C113.591 84.0696 113.651 84.0828 113.71 84.0989C113.768 84.1149 113.834 84.1398 113.895 84.1617C114.02 84.2041 113.802 84.1208 113.799 84.1208C113.835 84.1413 113.878 84.1559 113.916 84.1749C114.063 84.2503 114.206 84.3353 114.343 84.4292L114.427 84.4891C114.587 84.6046 114.354 84.4263 114.427 84.4891C114.5 84.552 114.593 84.6236 114.673 84.6938C115.018 84.9949 115.578 85.0592 115.912 84.6938C116.216 84.3634 116.282 83.7758 115.912 83.4543L115.911 83.4455Z" fill="#063844"/>
<path d="M64.6967 62.6357L64.7756 70.5828C64.7756 71.0418 65.1761 71.4818 65.6526 71.4598C65.8842 71.4568 66.1055 71.3634 66.2694 71.1996C66.4332 71.0358 66.5265 70.8145 66.5296 70.5828L66.4506 62.6357C66.4506 62.1768 66.0501 61.7368 65.5736 61.7587C65.3421 61.7621 65.121 61.8556 64.9573 62.0193C64.7935 62.1831 64.7001 62.4042 64.6967 62.6357Z" fill="#063844"/>
<path d="M93.6481 62.8171L92.9377 70.2906C92.8939 70.7495 93.3762 71.188 93.8147 71.1676C94.3263 71.1456 94.645 70.7817 94.6917 70.2906L95.4021 62.8171C95.446 62.3595 94.9636 61.921 94.5251 61.94C94.012 61.9634 93.6949 62.3274 93.6481 62.8171Z" fill="#063844"/>
<path d="M73.4477 60.8496C72.4977 64.0302 71.5476 67.2283 71.0813 70.5215C70.8255 72.1905 70.7276 73.8799 70.789 75.5672C70.8635 77.1239 71.1456 78.7829 72.0402 80.0984C72.9829 81.4812 74.5864 82.5584 76.3199 82.4079C76.776 82.3684 77.2188 82.0337 77.1969 81.5309C77.1765 81.0924 76.8096 80.6115 76.3199 80.6538C76.1654 80.6677 76.0101 80.6707 75.8551 80.6626C75.8244 80.6626 75.5701 80.6334 75.7294 80.6626C75.8887 80.6919 75.7484 80.6626 75.7119 80.6626L75.5803 80.6363C75.4316 80.6028 75.2851 80.5599 75.1418 80.5077L75.041 80.4682C74.9328 80.4302 75.2032 80.5442 75.0994 80.4931C75.0249 80.458 74.9533 80.4244 74.8773 80.3864C74.7395 80.3133 74.6058 80.2328 74.4768 80.1452L74.3847 80.0823L74.3627 80.0663C74.3028 80.0209 74.3028 80.0224 74.3627 80.0663L74.4066 80.1013L74.3423 80.0487L74.2137 79.942C74.1026 79.8426 73.9959 79.7403 73.8935 79.6321C73.8424 79.5781 73.7927 79.5225 73.7474 79.4655C73.7021 79.4085 73.6889 79.3939 73.6582 79.3588C73.5559 79.2375 73.7386 79.4699 73.6758 79.3822C73.4828 79.1118 73.3127 78.8257 73.1671 78.5271L73.1145 78.4131C73.1028 78.3853 73.0502 78.2582 73.0969 78.3751C73.1437 78.492 73.0969 78.3649 73.0823 78.3356L73.0385 78.2187C72.9742 78.0433 72.9157 77.865 72.866 77.6852C72.7708 77.3421 72.6966 76.9936 72.6438 76.6416C72.6438 76.6094 72.616 76.472 72.6438 76.6021C72.6716 76.7322 72.6365 76.5451 72.6351 76.5305C72.6248 76.4471 72.616 76.3624 72.6073 76.279C72.5897 76.1007 72.5766 75.9209 72.5664 75.7426C72.5245 74.9636 72.5245 74.1829 72.5664 73.4039C72.5858 73.0142 72.6136 72.62 72.6497 72.2214C72.6862 71.8312 72.7096 71.4277 72.7827 71.0433C72.7827 71.0711 72.7564 71.2348 72.7827 71.0682C72.79 71.0229 72.7958 70.9761 72.8017 70.9308C72.8148 70.8387 72.8295 70.7466 72.8426 70.6545C72.8748 70.447 72.9084 70.2394 72.9435 70.0333C73.0092 69.643 73.0896 69.2528 73.1598 68.864C73.3176 68.0849 73.496 67.3087 73.6889 66.537C74.1274 64.783 74.6434 63.0567 75.1594 61.3276C75.2212 61.1033 75.1914 60.8637 75.0765 60.6614C74.9617 60.4591 74.7712 60.3107 74.5469 60.2488C74.3227 60.187 74.083 60.2168 73.8807 60.3317C73.6784 60.4465 73.53 60.637 73.4682 60.8613L73.4477 60.8496Z" fill="#063844"/>
<path d="M58.2259 114.138C57.7567 114.708 58.2873 114.975 59.0371 115.557C60.9352 116.978 62.9233 118.274 64.9891 119.438C67.1154 120.634 69.3422 121.641 71.6441 122.449C76.282 124.057 81.2824 124.745 85.9685 124.125C89.4473 123.668 92.7624 122.874 96.0541 121.933C97.6999 121.459 99.3458 120.959 101.006 120.422C102.667 119.884 104.348 119.319 106.069 118.736C106.783 118.486 107.505 118.267 107.313 117.739C107.062 117.047 106.571 117.339 105.697 117.646C103.625 118.371 101.517 118.986 99.3809 119.489C97.2714 119.987 95.1162 120.265 92.9495 120.321C88.7238 120.388 84.7568 120.189 80.8775 119.882C80.1386 119.829 79.3965 119.843 78.6601 119.923L77.6633 120.014C77.3331 120.049 77.0013 120.067 76.6693 120.066C76.1754 120.063 75.6839 119.996 75.2077 119.865C74.7565 119.733 74.3138 119.575 73.8819 119.39C73.4566 119.201 73.0371 119.007 72.6073 118.839C72.1771 118.65 71.7297 118.503 71.2714 118.4C69.5173 117.986 67.6683 117.761 65.8003 117.362C63.9323 116.963 62.0584 116.39 60.4389 115.379C60.1904 115.145 59.9755 114.866 59.7329 114.63C59.1409 114.179 58.5825 113.705 58.2259 114.138Z" fill="#063844"/>
<path d="M116.971 54.8874V74.1611L112.732 73.6802L107.959 75.3377L105.738 62.817C103.08 56.5961 98.5755 51.4028 93.7242 46.6859L84.1327 39.2577C83.2502 38.5753 82.2054 38.1341 81.1009 37.9775C79.9964 37.8209 78.8702 37.9543 77.8328 38.3646L76.3215 38.9639C65.3399 46.2255 59.1438 55.5539 52.9346 67.1596L50.7144 71.3108L52.0299 54.8874L69.51 30.2012H95.9313L116.971 54.8874Z" fill="#063844"/>
<path d="M65.5825 87.2986C65.5109 87.357 65.5182 87.4184 65.5825 87.5003C65.6175 87.5441 65.6583 87.5829 65.7038 87.6157C65.7606 87.6611 65.8196 87.7035 65.8807 87.7429C66.4169 88.0991 66.9744 88.4222 67.5499 88.7105C68.1171 89.0029 68.6915 89.283 69.2732 89.551C70.4426 90.0904 71.6221 90.6093 72.8646 91.115C73.4426 91.3376 74.0537 91.4621 74.6727 91.4833C74.9752 91.5067 75.2793 91.5009 75.5804 91.5009H76.4749C77.6442 91.536 78.6133 91.6894 79.8368 91.8502C80.2007 91.8897 80.5676 91.9379 80.9462 91.9628C81.3247 91.9876 81.7018 91.9993 82.0819 92.0022C82.4619 92.0052 82.8419 91.9701 83.2205 91.9306C83.5968 91.8845 83.9698 91.8147 84.3372 91.7216C84.7144 91.63 85.0997 91.5756 85.4876 91.5594C85.6761 91.552 85.8647 91.552 86.0547 91.5594H86.6189H87.1904C87.3831 91.5623 87.5759 91.5549 87.7678 91.5374C88.1672 91.5035 88.5622 91.4306 88.9474 91.3196C89.2785 91.2052 89.6013 91.0679 89.9135 90.9089C90.0714 90.83 90.2293 90.7481 90.3857 90.6604C90.5421 90.5727 90.6926 90.4748 90.8446 90.3783L91.7494 89.8097C92.0417 89.6109 92.3341 89.4209 92.6264 89.2484C93.1146 88.978 93.5706 88.6798 94.0413 88.4241C94.512 88.1683 94.9739 87.8949 95.4591 87.6494C95.6828 87.5339 95.9064 87.4243 95.8435 87.3C95.7602 87.1363 95.5994 87.2357 95.3188 87.3614C94.9373 87.5295 94.5587 87.6888 94.1729 87.8218C93.787 87.9549 93.3909 88.0601 93.0035 88.1756C92.8106 88.237 92.6132 88.2867 92.4188 88.3393C92.2244 88.3919 92.0286 88.4489 91.8342 88.5117C91.6398 88.5746 91.4498 88.6433 91.2583 88.7149C91.0668 88.7865 90.8738 88.8611 90.6853 88.9444C90.523 89.0204 90.3593 89.0906 90.1986 89.1447C90.0398 89.2042 89.8771 89.253 89.7118 89.2908C89.3859 89.3698 89.0628 89.437 88.7442 89.4896C88.5849 89.5203 88.4255 89.5452 88.2648 89.57C88.104 89.5949 87.9461 89.6241 87.7883 89.6592C87.4651 89.7325 87.148 89.8302 86.8396 89.9515C86.4841 90.0797 86.0999 90.106 85.7302 90.0275C85.3663 89.9617 85.0096 89.8653 84.6354 89.8901C84.2173 89.927 83.8042 90.0084 83.4032 90.1328C82.9899 90.2511 82.5574 90.2873 82.1301 90.2395C81.8338 90.1965 81.5331 90.1921 81.2356 90.2263C81.0894 90.2438 80.9432 90.2672 80.7971 90.295L80.3586 90.3769C80.0662 90.4324 79.7739 90.4982 79.4816 90.5318C79.18 90.5661 78.8755 90.5661 78.5739 90.5318C77.4235 90.371 76.355 89.9661 75.3129 89.6182C74.2707 89.2704 73.2431 88.9766 72.0972 88.9327C71.8373 88.9215 71.5787 88.8892 71.324 88.8362C71.0667 88.7865 70.8085 88.7305 70.5493 88.6681C70.2906 88.6082 70.0275 88.5527 69.7644 88.5015C69.6313 88.4781 69.4983 88.4562 69.3639 88.4416C69.2294 88.427 69.0949 88.408 68.9575 88.3977C68.7271 88.3845 68.4977 88.3576 68.2705 88.3173C67.5882 88.2054 66.9274 87.9879 66.3119 87.6727C66.2198 87.607 66.1321 87.5397 66.0459 87.471C65.9596 87.4023 65.85 87.3351 65.7681 87.2971C65.6863 87.2591 65.6293 87.2532 65.5825 87.2986Z" fill="#063844"/>
<path d="M105.201 41.0731C105.131 40.9576 105.093 40.8217 105.027 40.7004C104.961 40.5791 104.9 40.4738 104.83 40.3642C104.793 40.3086 104.771 40.1596 104.735 40.104C104.689 40.0407 104.647 39.9748 104.609 39.9067C104.56 39.7971 104.595 39.7722 104.543 39.6626C104.492 39.553 104.451 39.4331 104.397 39.3191C104.347 39.2023 104.287 39.0898 104.217 38.9829C104.155 38.882 104.098 38.7753 104.039 38.6701C103.983 38.5524 103.917 38.4395 103.842 38.3325C103.744 38.2126 103.633 38.1001 103.525 37.9875C103.428 37.8873 103.348 37.7717 103.289 37.6455C103.21 37.4174 103.134 37.188 103.066 36.9512C103.018 36.8016 102.962 36.6552 102.896 36.5127C102.857 36.4198 102.808 36.3315 102.75 36.2496C102.736 36.232 102.722 36.2145 102.706 36.1969C102.614 36.0946 102.513 36.0011 102.414 35.9046C102.301 35.7901 102.179 35.6864 102.047 35.5947C101.841 35.4486 101.627 35.3302 101.424 35.1928C101.326 35.1314 101.231 35.0685 101.132 35.0028L100.932 34.8317C100.837 34.7487 100.737 34.6721 100.632 34.6023C100.47 34.4912 100.297 34.3932 100.136 34.2822C100.072 34.2295 100.012 34.1725 99.9509 34.1155C99.8815 34.0558 99.8071 34.002 99.7287 33.9547C99.5314 33.8166 99.3461 33.6621 99.1747 33.4928C98.9856 33.3151 98.8084 33.1252 98.6441 32.9243C98.5686 32.8276 98.4839 32.7385 98.3913 32.6582C98.2977 32.5837 98.1998 32.5121 98.0989 32.4448C97.9981 32.3776 97.8841 32.2987 97.7847 32.2168C97.6866 32.1351 97.5929 32.0482 97.504 31.9566C97.4646 31.904 97.428 31.8499 97.3915 31.7929C97.3549 31.7359 97.3184 31.6672 97.2789 31.6058C97.1785 31.447 97.0576 31.302 96.9193 31.1746C96.8078 31.0722 96.6885 30.9783 96.5627 30.894C96.4226 30.8143 96.2759 30.7468 96.1242 30.6923C96.0713 30.6634 96.0222 30.628 95.978 30.587L95.8918 30.5037C95.8457 30.4667 95.7932 30.4384 95.7368 30.4204L95.5673 30.3532C95.4389 30.2883 95.3055 30.234 95.1683 30.1909C95.0221 30.15 94.8759 30.1251 94.74 30.093C94.604 30.0608 94.4798 30.0258 94.3541 29.9877C94.2284 29.9497 94.0735 29.9074 93.9331 29.8664C93.8223 29.8205 93.7165 29.7632 93.6174 29.6954L93.3251 29.4952C93.1069 29.3596 92.8798 29.239 92.6454 29.1341C92.4042 29.0245 92.1134 29.0362 91.8736 28.9266C91.7169 28.862 91.5563 28.8073 91.3928 28.7629C91.1837 28.6415 90.9265 28.7629 90.6619 28.6664C90.5464 28.6225 90.431 28.6284 90.4047 28.7263C90.3783 28.8243 90.4675 28.8725 90.5859 28.912C90.8523 29.0077 91.1121 29.1209 91.3635 29.2511C91.5097 29.311 91.6953 29.3154 91.9584 29.425C92.1148 29.4893 92.2332 29.6369 92.3882 29.7042C92.6016 29.7948 92.6396 29.8036 92.7039 29.8708C92.8033 29.9746 92.85 30.0871 92.9509 30.15C93.0625 30.2219 93.1822 30.2803 93.3075 30.3239C93.5521 30.3962 93.7777 30.5214 93.9682 30.6908C94.0475 30.7748 94.1398 30.8453 94.2416 30.8998C94.3526 30.9568 94.4389 31.046 94.5471 31.1147C94.6499 31.1881 94.7661 31.2407 94.8891 31.2696C95.006 31.2872 95.0864 31.3705 95.2004 31.3924C95.2509 31.4012 95.3 31.4164 95.3466 31.4377V31.4465C95.3939 31.5223 95.4509 31.5916 95.5161 31.6526C95.5571 31.6935 95.5965 31.7345 95.6404 31.7725C95.7391 31.8463 95.846 31.9086 95.959 31.9581C96.0672 32.0122 96.1724 32.0736 96.2777 32.132L96.4019 32.2051L96.4121 32.2329C96.4838 32.4302 96.6606 32.496 96.801 32.6012C96.8076 32.6042 96.8149 32.6057 96.8222 32.6057C96.8294 32.6057 96.8367 32.6042 96.8433 32.6012C97.0589 32.7541 97.2649 32.9201 97.4602 33.0982C97.5725 33.2023 97.6784 33.3131 97.7774 33.43C97.8797 33.5411 97.9849 33.6478 98.0799 33.7647C98.1749 33.9109 98.2699 34.0571 98.3576 34.2135C98.4737 34.3857 98.6032 34.5484 98.745 34.7002C98.8952 34.8419 99.0694 34.9557 99.2595 35.0364C99.334 35.0773 99.4057 35.1182 99.4861 35.1562C99.5498 35.2442 99.6335 35.3158 99.7301 35.3653C99.8515 35.4062 100.022 35.3989 100.12 35.4647C100.205 35.5403 100.295 35.6101 100.389 35.6737C100.491 35.7155 100.585 35.7754 100.666 35.8505C100.707 35.8915 100.734 35.9455 100.772 35.9894C100.81 36.0332 100.87 36.0464 100.918 36.0815C100.967 36.1166 101.054 36.1692 101.117 36.2189C101.199 36.365 101.284 36.4981 101.376 36.6311C101.464 36.7511 101.568 36.8579 101.686 36.9483C101.775 37.0184 101.872 37.0798 101.961 37.1514L102.138 37.3107C102.186 37.3603 102.232 37.413 102.273 37.4686C102.326 37.5388 102.367 37.6148 102.412 37.6937C102.509 37.8545 102.595 38.0226 102.689 38.1834C102.788 38.335 102.909 38.4714 103.048 38.5883C103.177 38.7008 103.272 38.8411 103.389 38.9639C103.499 39.079 103.597 39.2054 103.681 39.341C103.726 39.4185 103.837 39.4521 103.88 39.5325C103.922 39.6129 103.963 39.6582 104.003 39.7225C104.09 39.8687 104.149 40.0222 104.229 40.1683C104.266 40.2495 104.315 40.3244 104.375 40.3905C104.439 40.4354 104.499 40.4842 104.557 40.5367C104.633 40.6404 104.703 40.7471 104.769 40.8568C104.834 40.9664 104.937 41.0556 105.011 41.1769C105.017 41.1905 105.025 41.2028 105.035 41.2131C105.046 41.2233 105.059 41.2311 105.072 41.2361C105.086 41.2411 105.101 41.243 105.116 41.2419C105.13 41.2408 105.144 41.2365 105.157 41.2295C105.241 41.1842 105.241 41.133 105.201 41.0731Z" fill="white"/>
<path d="M99.2579 46.5398C99.2141 46.4185 99.2068 46.2869 99.1687 46.1627C99.1307 46.0384 99.0957 45.9288 99.0504 45.8148C99.027 45.7578 99.0372 45.6146 99.0167 45.5546C98.989 45.487 98.9656 45.4177 98.9466 45.3471C98.9246 45.2345 98.9656 45.2184 98.9466 45.1059C98.9276 44.9933 98.9159 44.875 98.8983 44.7595C98.8778 44.6409 98.8435 44.5251 98.796 44.4145C98.7565 44.3093 98.7259 44.2011 98.6937 44.0915C98.6643 43.9727 98.6257 43.8564 98.5782 43.7436C98.511 43.6121 98.4321 43.4849 98.359 43.3592C98.2923 43.2463 98.2458 43.1226 98.2216 42.9938C98.2099 42.8798 98.2055 42.7643 98.2011 42.6474L98.1777 42.3009C98.1664 42.1536 98.1454 42.0071 98.1149 41.8624C98.0984 41.768 98.0724 41.6754 98.0374 41.5862C98.0286 41.5657 98.0184 41.5467 98.0082 41.5277C97.9468 41.4137 97.8737 41.3055 97.805 41.1974C97.7261 41.0684 97.6367 40.9461 97.5375 40.832C97.3723 40.6639 97.1955 40.5075 97.0318 40.3408C96.9558 40.2629 96.8812 40.184 96.8081 40.104C96.7584 40.0383 96.7102 39.971 96.662 39.9038C96.5932 39.8072 96.5185 39.7149 96.4383 39.6275C96.3229 39.4814 96.1709 39.3674 96.0451 39.2314C95.9969 39.17 95.9501 39.1072 95.9063 39.0414C95.8571 38.9705 95.8008 38.9049 95.7382 38.8455C95.5864 38.6769 95.4522 38.4933 95.3377 38.2974C95.2012 38.094 95.0787 37.8815 94.9708 37.6616C94.9245 37.5555 94.8672 37.4546 94.7998 37.3605C94.7326 37.2699 94.6536 37.1865 94.5835 37.0988C94.5133 37.0111 94.4212 36.9161 94.3452 36.8211C94.2706 36.7283 94.2022 36.6307 94.1406 36.5288C94.1172 36.4718 94.0967 36.4133 94.0777 36.3534C94.0587 36.2935 94.0397 36.2189 94.0178 36.1531C93.9631 35.9827 93.8875 35.8197 93.7927 35.6679C93.7109 35.5504 93.6195 35.4399 93.5194 35.3375C93.4081 35.2339 93.2877 35.1405 93.1598 35.0584C93.1175 35.0209 93.0802 34.9781 93.0487 34.9312C93.0283 34.899 93.0107 34.8639 92.9917 34.8318C92.9587 34.7867 92.9163 34.7494 92.8675 34.7222L92.7213 34.6257C92.6135 34.5424 92.5008 34.4658 92.3836 34.3962C92.2623 34.3319 92.1308 34.2793 92.0065 34.2208C91.8823 34.1623 91.7829 34.1039 91.6703 34.0454L91.3035 33.8525C91.2108 33.7869 91.126 33.7108 91.0506 33.6259C90.9761 33.5397 90.9044 33.4593 90.8182 33.3789C90.6445 33.2093 90.4605 33.0506 90.2671 32.9038C90.064 32.7577 89.7906 32.7124 89.5919 32.5633C89.4584 32.4746 89.3203 32.3931 89.1782 32.3192C89.0901 32.2492 88.9822 32.2088 88.8698 32.2037C88.7473 32.1921 88.6285 32.1558 88.5204 32.097C88.424 32.0341 88.3129 32.0195 88.269 32.1102C88.2252 32.2008 88.2953 32.268 88.3977 32.3221C88.5182 32.3857 88.6319 32.4616 88.7368 32.5487C88.8318 32.6217 88.9209 32.6948 89.0467 32.7884C89.1724 32.8819 89.339 32.9024 89.5612 33.0617C89.6912 33.1538 89.7673 33.3175 89.8973 33.4067C90.0757 33.5338 90.1078 33.5528 90.1531 33.6259C90.2204 33.7443 90.2365 33.8642 90.3154 33.9402C90.4052 34.0268 90.5031 34.1046 90.6077 34.1726C90.8162 34.2904 90.9968 34.4519 91.1368 34.6462C91.1927 34.7384 91.2611 34.8226 91.34 34.8961C91.4306 34.9736 91.4862 35.0817 91.5724 35.1621C91.6502 35.2524 91.747 35.3243 91.856 35.3726C91.9627 35.4106 92.0182 35.5027 92.122 35.5436C92.1653 35.5636 92.206 35.5886 92.2433 35.6182V35.6284C92.2686 35.7091 92.305 35.7858 92.3515 35.8564C92.3771 35.9046 92.4059 35.951 92.4377 35.9953C92.5098 36.0858 92.5945 36.1656 92.6891 36.2321C92.7798 36.3037 92.8645 36.3782 92.9508 36.4542C92.9844 36.4849 93.0151 36.5171 93.0473 36.5493V36.5785C93.0619 36.7802 93.2124 36.8708 93.3162 37.0038C93.3212 37.0091 93.3274 37.0131 93.3343 37.0157C93.3411 37.0182 93.3484 37.0192 93.3557 37.0185C93.5212 37.2035 93.675 37.3988 93.8161 37.6031C93.8936 37.7244 93.9623 37.8545 94.0266 37.9817C94.0909 38.1089 94.1727 38.2302 94.2254 38.3588C94.2809 38.5152 94.335 38.6701 94.3832 38.8295C94.4454 39.0152 94.5246 39.1948 94.62 39.3659C94.7237 39.5306 94.86 39.6724 95.0205 39.7825C95.0819 39.8351 95.1448 39.8877 95.2105 39.9374C95.2512 40.0313 95.3139 40.114 95.3932 40.1786C95.4941 40.2444 95.652 40.2707 95.7323 40.3525C95.8127 40.4344 95.8449 40.5323 95.9341 40.6025C96.0199 40.6612 96.0934 40.7362 96.1504 40.8232C96.1782 40.87 96.1928 40.924 96.2191 40.9694C96.2454 41.0147 96.3009 41.041 96.3346 41.0819C96.3682 41.1228 96.4456 41.1886 96.4939 41.2456C96.545 41.3918 96.5787 41.5379 96.64 41.6841C96.6924 41.8145 96.7649 41.9358 96.8549 42.0437C96.9207 42.127 97.0011 42.2045 97.0639 42.2878L97.1955 42.4705C97.2322 42.5248 97.2644 42.582 97.292 42.6415C97.3232 42.7185 97.3505 42.7971 97.3738 42.8768C97.4352 43.0406 97.4615 43.2218 97.52 43.3899C97.5773 43.5479 97.6592 43.6959 97.7626 43.8284C97.8547 43.9614 97.9161 44.1076 98.0023 44.2435C98.0823 44.3706 98.1485 44.5058 98.1997 44.6469C98.226 44.7273 98.3268 44.7785 98.3458 44.8633C98.3648 44.948 98.3941 44.9977 98.416 45.065C98.4657 45.2111 98.4832 45.3719 98.5241 45.5239C98.5377 45.6067 98.566 45.6864 98.6075 45.7593C98.6484 45.8177 98.7142 45.8718 98.7536 45.9347C98.8033 46.0443 98.8472 46.1554 98.8896 46.2694C98.932 46.3834 99.0109 46.4843 99.0562 46.61C99.059 46.6239 99.0647 46.6371 99.073 46.6487C99.0813 46.6603 99.0919 46.67 99.1042 46.6771C99.1165 46.6843 99.1301 46.6888 99.1443 46.6903C99.1584 46.6919 99.1728 46.6904 99.1863 46.686C99.2725 46.6538 99.2813 46.607 99.2579 46.5398Z" fill="white"/>
<path d="M66.4668 37.7113C66.5516 37.5651 66.667 37.4496 66.7591 37.3122C66.8512 37.1749 66.8819 37.0301 66.9594 36.8957C67.0018 36.827 67.126 36.6881 67.1684 36.6223C67.2108 36.5566 67.2766 36.4469 67.3233 36.3899C67.4154 36.2788 67.3511 36.2438 67.4432 36.1356C67.5353 36.0274 67.6478 35.9251 67.7472 35.8199C67.8469 35.7069 67.9405 35.5889 68.0279 35.4661C68.1126 35.3521 68.212 35.2498 68.307 35.1431C68.4155 35.035 68.5162 34.9192 68.6081 34.7967C68.709 34.6432 68.8157 34.4941 68.9136 34.3377C69.0031 34.2001 69.113 34.0769 69.2396 33.9723C69.472 33.8183 69.7131 33.6778 69.9617 33.5513C70.1224 33.4695 70.273 33.3789 70.4192 33.2853C70.5167 33.2264 70.6104 33.1615 70.6998 33.0909L70.7568 33.0383C70.8123 32.9842 70.865 32.9272 70.9176 32.8702C71.0798 32.7504 71.1325 32.4946 71.2552 32.3235C71.2772 32.3075 71.2976 32.2928 71.321 32.2782C71.3444 32.2636 71.4014 32.2373 71.4409 32.2168C71.4962 32.1821 71.5456 32.1387 71.587 32.0882L71.7332 31.942C71.8516 31.831 71.9788 31.733 72.0898 31.6117C72.2009 31.4904 72.3106 31.3676 72.4246 31.2434C72.5315 31.1337 72.6468 31.0325 72.7695 30.9408C72.9011 30.8326 73.037 30.7303 73.1773 30.6338C73.3006 30.5631 73.4328 30.5095 73.5705 30.4745C73.705 30.4336 73.8424 30.4073 73.9783 30.3766C74.2707 30.305 74.563 30.2494 74.848 30.1939C75.1331 30.1383 75.4327 29.9863 75.7513 29.9936C75.8497 30.0012 75.9474 30.0158 76.0437 30.0375C76.1393 30.0634 76.2372 30.0801 76.336 30.0872C76.5991 30.1603 76.8447 30.1179 77.1502 30.2333C77.2832 30.2845 77.403 30.2977 77.4425 30.2085C77.482 30.1193 77.3738 30.0346 77.2247 29.9892C77.047 29.9334 76.8748 29.8615 76.7102 29.7744C76.5485 29.6879 76.372 29.6329 76.1898 29.6121C75.9252 29.5789 75.658 29.5701 75.3918 29.5858C75.2815 29.5914 75.171 29.5874 75.0614 29.5741C74.9509 29.5648 74.8397 29.5673 74.7296 29.5814C74.5808 29.6282 74.4265 29.6557 74.2707 29.6633C74.0909 29.6633 73.9447 29.6048 73.7942 29.6457C73.6216 29.6853 73.4547 29.7462 73.2972 29.827C73.2226 29.8665 73.151 29.9045 73.0736 29.941C72.9961 29.9775 72.9274 30.0185 72.8514 30.0536C72.7754 30.0886 72.7052 30.1208 72.6219 30.15C72.5386 30.1793 72.4684 30.21 72.388 30.2333C72.2415 30.2694 72.1014 30.3281 71.9729 30.4073C71.8355 30.4994 71.6806 30.5534 71.5344 30.6397C71.3927 30.723 71.2649 30.8281 71.1558 30.951C71.0681 31.0709 70.9381 31.1381 70.8518 31.2565C70.8138 31.3089 70.7713 31.3578 70.7246 31.4027H70.713C70.6057 31.4368 70.5038 31.486 70.4104 31.5488C70.3475 31.5854 70.2832 31.6219 70.2233 31.6643C70.1275 31.7252 70.0486 31.8091 69.9938 31.9084C69.9704 31.9464 69.8476 32.0955 69.8257 32.1306C69.7833 32.1891 69.7059 32.211 69.6635 32.2768C69.5845 32.3937 69.5538 32.5516 69.4866 32.6743C69.4413 32.7284 69.3931 32.7796 69.3404 32.8293C69.2615 32.9068 69.168 32.9754 69.089 33.0456C68.9151 33.202 68.7324 33.3526 68.5614 33.5148C68.4108 33.6828 68.2803 33.8677 68.1726 34.0659C68.0629 34.2471 67.9402 34.4167 67.8335 34.5979C67.7315 34.767 67.6197 34.9301 67.4987 35.0861C67.4286 35.1723 67.4213 35.3054 67.3526 35.3901C67.2839 35.4749 67.2459 35.5436 67.1918 35.6196C67.069 35.7848 67.031 35.9909 66.9097 36.1561C66.838 36.238 66.778 36.3295 66.7314 36.4279C66.6977 36.5142 66.743 36.6691 66.7036 36.751C66.6305 36.8971 66.5574 37.0258 66.4756 37.1602C66.3937 37.2947 66.3499 37.4526 66.2607 37.5987C66.2499 37.6118 66.2419 37.6268 66.2371 37.643C66.2323 37.6592 66.2308 37.6762 66.2327 37.693C66.2347 37.7098 66.2399 37.726 66.2482 37.7407C66.2566 37.7554 66.2678 37.7682 66.2812 37.7785C66.382 37.8253 66.42 37.7844 66.4668 37.7113Z" fill="white"/>
<path d="M81.5235 26.5621C80.838 26.8835 74.6902 20.9062 74.6902 20.9062L79.9186 18.1664C79.9186 18.1664 82.6958 28.6269 83.5421 28.8793C84.3884 29.1317 81.5235 26.5621 81.5235 26.5621Z" fill="#063844"/>
<path d="M80.9768 25.8283C80.265 25.1709 85.0125 15.0083 85.0125 15.0083L88.2589 17.7394C88.2589 17.7394 80.3381 28.8573 80.4038 29.9741C80.4696 31.0909 80.9768 25.8283 80.9768 25.8283Z" fill="#063844"/>
</svg>
