<svg width="164" height="164" viewBox="0 0 164 164" fill="none" xmlns="http://www.w3.org/2000/svg">
<path d="M80.9439 25.7256L33.1775 74.2463C33.1168 74.3082 33.0758 74.3866 33.0595 74.4718C33.0432 74.5569 33.0524 74.6449 33.0859 74.7248C33.1195 74.8048 33.1758 74.873 33.248 74.921C33.3201 74.969 33.4049 74.9947 33.4915 74.9948H130.487C130.574 74.9947 130.659 74.969 130.731 74.921C130.803 74.873 130.859 74.8048 130.893 74.7248C130.927 74.6449 130.936 74.5569 130.919 74.4718C130.903 74.3866 130.862 74.3082 130.801 74.2463L83.0351 25.7256C82.8985 25.587 82.7358 25.4769 82.5563 25.4017C82.3767 25.3265 82.1841 25.2878 81.9895 25.2878C81.7949 25.2878 81.6022 25.3265 81.4227 25.4017C81.2432 25.4769 81.0804 25.587 80.9439 25.7256Z" fill="#BADFD8"/>
<path d="M80.9618 25.7433C80.6977 25.4836 79.7452 26.5328 78.1104 28.1926C64.6474 41.867 51.3912 55.0028 37.5011 68.5612C36.7752 69.2695 36.0576 69.9788 35.3483 70.6891C34.9931 71.0443 34.6399 71.3989 34.2887 71.7531L32.7038 73.3673C32.4946 73.5837 32.3362 73.8438 32.2401 74.129C32.2198 74.1807 32.2026 74.2337 32.1887 74.2875L32.1461 74.4342C32.1188 74.542 32.1113 74.6539 32.1241 74.7644C32.1399 74.9084 32.1822 75.0482 32.2489 75.1768C32.3108 75.2967 32.3944 75.4042 32.4954 75.4938C32.5762 75.5567 32.6639 75.6104 32.7566 75.6537C32.8065 75.6787 32.8447 75.7036 32.9034 75.7271L33.0736 75.7976C33.2107 75.8473 33.3522 75.8836 33.4963 75.9062C33.6728 75.9298 33.851 75.9382 34.029 75.9311H35.1458L36.6441 75.9135L41.8289 75.8152C45.2673 75.7418 48.6748 75.6596 52.0751 75.6156C60.6586 75.5026 67.9772 75.5936 76.9423 75.711C87.6801 75.8504 99.0593 75.9825 110.042 75.802C115.939 75.7051 121.317 75.8431 126.729 76.003L127.745 76.0324L128.254 76.047L129.08 76.0632L130.006 76.0779C130.162 76.0779 130.319 76.0779 130.463 76.0779C130.532 76.0757 130.6 76.0668 130.667 76.0514C130.729 76.0434 130.79 76.0296 130.85 76.0104L131.015 75.9575C131.065 75.9403 131.114 75.9202 131.161 75.8974C131.205 75.8768 131.255 75.8563 131.293 75.8357L131.402 75.7711C131.437 75.7491 131.475 75.7271 131.508 75.7051C131.54 75.6831 131.569 75.6611 131.6 75.6361C131.677 75.5707 131.745 75.4958 131.803 75.4131C131.937 75.2213 132.023 74.9997 132.052 74.7674C132.061 74.682 132.061 74.5959 132.052 74.5105C132.052 74.4357 132.029 74.3491 132.018 74.2684C132.008 74.1877 131.97 74.082 131.942 73.9881L131.875 73.8296C131.865 73.8017 131.853 73.7746 131.838 73.7489L131.787 73.6638C131.617 73.4116 131.421 73.1793 131.2 72.9711L130.526 72.2682L130.169 71.9086L129.987 71.7149L129.273 70.9533C127.365 68.9178 125.376 66.8442 123.256 64.6972C116.243 57.5885 108.617 50.5415 101.406 43.5326C95.5255 37.8093 89.9592 32.3574 84.2359 26.5343L83.2673 25.554C83.094 25.374 82.8844 25.2329 82.6524 25.1402C82.4435 25.0571 82.2196 25.0186 81.9949 25.0272C81.663 25.0337 81.3436 25.1551 81.091 25.3706C80.9207 25.5305 80.8782 25.6641 80.9266 25.7096C80.944 25.7257 80.9646 25.7379 80.9872 25.7453C81.0097 25.7526 81.0336 25.755 81.0572 25.7521C81.1213 25.7447 81.1843 25.7299 81.245 25.7081C81.4401 25.6308 81.6452 25.5814 81.8541 25.5613C82.1724 25.5427 82.4862 25.6431 82.7346 25.8431C82.7698 25.8769 82.8006 25.9018 82.8417 25.9429L82.9694 26.072L83.2365 26.3421L83.8235 26.9291C92.6389 35.881 100.691 44.7345 109.738 53.5587C113.624 57.3493 117.107 60.9624 120.544 64.5226C122.262 66.3027 123.968 68.0681 125.708 69.8365C126.577 70.717 127.457 71.6024 128.35 72.4927L128.992 73.1281L129.419 73.542L129.871 73.9734C129.912 74.008 129.948 74.048 129.979 74.0923C130.005 74.1366 130.02 74.1872 130.021 74.2391C130.022 74.2907 130.009 74.3417 129.983 74.3865C129.957 74.4312 129.92 74.468 129.874 74.4929C129.82 74.5174 129.76 74.5285 129.7 74.5252H129.518L129.151 74.534L128.407 74.5428H127.346L126.289 74.5296C124.895 74.5047 123.554 74.4562 122.224 74.4019C119.565 74.2933 116.951 74.1583 114.05 74.1319C107.257 74.0718 101.544 74.4166 94.51 74.2391C85.0812 74.0013 76.7676 74.5957 67.2625 74.4929C61.0989 74.4269 55.0938 74.264 49.1533 74.0982L40.2733 73.859L35.8399 73.7606H35.6931H35.6242C35.608 73.7606 35.608 73.7606 35.608 73.7606H35.5875L35.5508 73.7504C35.5341 73.7455 35.5179 73.7392 35.5024 73.7313C35.4892 73.7313 35.4862 73.699 35.5024 73.6843C35.5185 73.6697 35.5405 73.6608 35.5552 73.652L35.5845 73.6388L36.1936 73.0342L37.5525 71.6738C38.4584 70.764 39.3624 69.8472 40.2645 68.9237C42.0705 67.0746 43.8726 65.1913 45.6708 63.2737C51.0434 57.5298 57.1381 51.6099 62.5371 45.5769C67.1157 40.4596 71.6357 35.5904 76.6708 30.3719L78.514 28.5918C79.8406 27.2607 81.1614 25.94 80.9618 25.7433Z" fill="#063844"/>
<path d="M131.539 71.9438L81.8873 112.195L33.1935 74.4503C33.6355 74.0171 34.2257 73.7684 34.8444 73.7547L86.3105 72.3488L129.674 71.1748C130.022 71.1651 130.368 71.2292 130.69 71.3627C131.011 71.4962 131.301 71.6963 131.539 71.9496V71.9438Z" fill="#F7F4F2"/>
<path d="M131.555 71.9615C131.321 71.668 130.319 72.5603 128.609 73.9456C114.534 85.3541 100.701 96.2695 86.2229 107.506C85.3805 108.161 84.5489 108.817 83.7281 109.474L82.4998 110.462L82.0346 110.835L81.8658 110.981L78.646 108.553L74.8437 105.723C72.3181 103.855 69.8086 102.009 67.327 100.147C60.8523 95.2701 55.4474 90.9644 48.8363 85.6843C44.8739 82.5233 40.7884 79.2712 36.6558 76.0324L35.6095 75.2121L35.3527 75.0081L35.225 74.9083L35.1604 74.8584C35.1784 74.8381 35.1985 74.8199 35.2206 74.8041C35.3073 74.7355 35.4072 74.6855 35.5141 74.6574C35.6201 74.6314 35.7293 74.62 35.8384 74.6236L37.2208 74.5796C39.8433 74.4974 42.4584 74.4005 45.0486 74.2861C56.1739 73.7871 65.3694 74.2861 76.7588 73.9515C86.1803 73.6756 95.9569 72.9242 105.437 72.4414C113.174 72.0525 120.522 71.7179 128.234 71.5081L129.534 71.4699H129.681C129.726 71.4699 129.77 71.4699 129.814 71.4699C129.901 71.4712 129.987 71.4771 130.072 71.4875C130.23 71.5089 130.385 71.5443 130.536 71.5932C131.103 71.7795 131.417 72.0774 131.521 71.9762C131.588 71.9131 131.581 71.803 131.483 71.6548C131.33 71.4462 131.128 71.2779 130.896 71.1647C130.525 70.9756 130.113 70.8818 129.697 70.8917L128.213 70.9357C116.354 71.2586 105.056 71.0957 93.1393 71.6695C82.9004 72.1684 74.1848 71.9733 64.4859 72.4957C58.6643 72.8097 54.2617 72.4414 48.7834 72.5397C45.5769 72.597 42.6272 72.7481 39.6496 72.8861L37.4072 72.9858L36.2728 73.0299L35.5009 73.0563C35.2164 73.057 34.9321 73.0746 34.6497 73.1091C34.4035 73.1401 34.1608 73.1942 33.9248 73.2705C33.702 73.3439 33.4883 73.4424 33.2878 73.564C33.0906 73.6826 32.9027 73.8161 32.7258 73.9632C32.6333 74.0395 32.5394 74.1202 32.4455 74.2068L32.3765 74.2714C32.3662 74.2714 32.3765 74.2817 32.3765 74.2875L32.3897 74.3022L32.4147 74.333L32.5145 74.4563L32.9136 74.9509L33.1132 75.2018L33.213 75.328L33.2629 75.3911L33.3524 75.463L34.8273 76.637L36.1334 77.6936L37.416 78.7106C38.2691 79.3798 39.1188 80.0353 39.9651 80.6771C41.6586 81.9656 43.3404 83.2115 45.0368 84.4545C48.4121 86.9493 51.8183 89.4221 55.333 92.2118C59.8089 95.7647 64.1058 99.297 68.3572 102.797L74.7146 108.026L77.8991 110.619L79.4972 111.912L80.3176 112.571C80.8468 112.987 81.3761 113.403 81.9054 113.821L85.6579 110.832C86.647 110.04 87.6341 109.243 88.6193 108.44C90.5927 106.831 92.5645 105.185 94.5349 103.501C100.176 98.6719 106.526 93.7674 112.216 88.6619C117.041 84.3298 121.784 80.2281 127.061 75.8607L128.981 74.3932C130.351 73.2793 131.732 72.1802 131.555 71.9615Z" fill="#063844"/>
<path d="M131.208 71.6063L131.54 71.9438L81.8801 112.195L33.1936 74.4504L32.5773 73.8443L86.3106 72.3503L130.838 71.4229L131.208 71.6063Z" fill="#063844"/>
<path d="M35.1116 73.8502C34.8753 74.1349 35.4785 74.5605 36.4118 75.3353C44.0913 81.7073 51.4113 88.0822 58.9309 94.8255C62.5014 98.0306 66.2421 100.657 69.8053 103.46C73.3112 106.224 76.1817 108.724 79.6949 111.792L80.5373 112.525L81.8874 113.68L83.8054 112.094L85.2436 110.91C86.2034 110.115 87.1631 109.313 88.1229 108.503C90.0307 106.889 91.9384 105.232 93.767 103.562C98.3002 99.4262 102.628 96.7069 107.381 92.6095C111.313 89.2196 115.093 85.3409 118.922 81.7763C122.046 78.875 125.033 76.1395 128.261 73.3762C129.002 72.7407 129.751 72.1214 129.567 71.9087C129.327 71.6269 128.806 72.1493 127.884 72.9359C122.919 77.1917 117.889 80.8708 113.062 85.338C108.916 89.1741 104.991 91.9638 101.096 95.637C98.758 97.8383 96.6022 99.0432 94.2762 100.966C91.5525 103.217 89.52 105.411 86.6245 107.655C85.6809 108.388 84.796 109.132 83.9404 109.89C83.5119 110.268 83.0922 110.648 82.6769 111.03C82.1603 111.5 82.106 111.577 81.8683 111.815L81.5073 111.568L81.409 111.502L81.2343 111.369L80.8777 111.1C80.4022 110.739 79.9253 110.377 79.4484 110.007C78.493 109.266 77.5406 108.497 76.5764 107.659C69.6306 101.649 63.7532 95.4873 56.4714 90.0282C53.1973 87.5715 49.9189 84.5983 46.4364 82.2165C43.4823 80.1899 40.6999 78.1383 37.7517 75.7829L36.7684 74.8819C36.0288 74.2655 35.2921 73.633 35.1116 73.8502Z" fill="#063844"/>
<path d="M114.76 32.0918H41.2606C40.9354 32.0916 40.6133 32.1555 40.3128 32.2798C40.0122 32.4042 39.7391 32.5865 39.5091 32.8164C39.279 33.0463 39.0965 33.3193 38.972 33.6198C38.8475 33.9202 38.7834 34.2423 38.7834 34.5675V130.448H127.306V44.6406L114.76 32.0918Z" fill="#F7F4F2"/>
<path d="M81.9755 87C80.1124 87 78.6509 86.4326 77.5913 85.2978C76.5316 84.163 76.0012 82.7865 76 81.1681C76 79.5516 76.5345 78.1998 77.6035 77.1128C78.6725 76.0257 80.1461 75.4828 82.0245 75.484C83.8876 75.484 85.3491 76.0269 86.4087 77.1128C87.4684 78.1986 87.9988 79.5504 88 81.1681C88 82.7853 87.4696 84.1618 86.4087 85.2978C85.3479 86.4338 83.8702 87.0012 81.9755 87ZM77.6655 72.347C77.2242 64.8986 76.7831 57.5477 76.3424 50.2945L87.7555 50C87.5435 53.6753 87.3272 57.3631 87.1065 61.0634C86.8859 64.7637 86.6614 68.492 86.4332 72.2482L77.6655 72.347Z" fill="#063844"/>
<path d="M114.761 32.1021C114.761 31.7308 110.734 31.788 104.106 31.788C90.8224 31.788 77.3799 31.7411 63.8479 31.6706L43.4875 31.5518L42.2123 31.5444H41.5753H41.254C41.124 31.5454 40.9941 31.5538 40.8651 31.5694C40.2092 31.6501 39.5977 31.9431 39.1238 32.4035C38.6498 32.864 38.3394 33.4667 38.2397 34.1199C38.2186 34.2496 38.2063 34.3805 38.203 34.5118C38.203 34.5822 38.203 34.6292 38.203 34.6835V34.8434L38.1942 36.1202L38.1766 38.6751C38.1521 42.0808 38.1276 45.4893 38.1032 48.9008C38.0122 62.5488 37.9212 76.207 37.8302 89.8227C37.796 96.631 37.7632 103.424 37.7319 110.202C37.7162 117.344 37.6996 124.465 37.682 131.566L56.9065 131.555C62.9146 131.541 68.8889 131.515 74.8294 131.478L127.968 131.114C127.889 116.976 127.81 102.774 127.728 88.3111C127.701 81.1927 127.675 74.0018 127.648 66.7385C127.635 59.4264 127.622 52.0178 127.609 44.5129L122.502 39.4104C118.724 35.6329 114.979 31.8644 114.78 32.0639C114.519 32.3266 117.407 35.1325 122.092 39.8198L127.031 44.7595C127.031 59.2395 127.02 73.5508 127.014 87.7843C126.99 94.9194 126.966 102.039 126.943 109.143C126.921 112.697 126.9 116.249 126.878 119.8L126.837 125.125L126.813 127.789L126.802 129.121L126.788 129.936H126.369L104.172 129.729L82.1714 129.559L60.411 129.43L39.8921 129.353V125.685C39.8852 124.246 39.8789 122.852 39.873 121.501C39.8539 118.793 39.8275 116.237 39.7952 113.759C39.7336 108.805 39.6558 104.165 39.6089 99.2559C39.4621 84.1287 39.9288 71.8514 39.8862 57.3303C39.8657 50.5327 39.8104 43.7102 39.7204 36.8627L39.7043 35.5801L39.6954 34.9373V34.6174V34.5514V34.5C39.6933 34.4658 39.6933 34.4315 39.6954 34.3973C39.7228 34.1228 39.8207 33.86 39.9796 33.6345C40.1385 33.409 40.3531 33.2284 40.6024 33.1103C40.7282 33.0507 40.8615 33.0083 40.9986 32.9841C41.0324 32.9841 41.0661 32.9709 41.1013 32.9665L41.207 32.9591H41.2613H41.342H41.502L42.7875 32.9415L45.3586 32.9048L55.6518 32.7493C69.382 32.5394 83.1341 32.3266 96.8114 32.2811L104.098 32.3839C109.444 32.3677 114.761 32.3824 114.761 32.1021Z" fill="#063844"/>
<path d="M127.306 44.6406H114.756V32.0918L121.031 38.3669L127.306 44.6406Z" fill="#BADFD8"/>
<path d="M127.169 44.4131C126.961 44.2047 126.766 43.9831 126.559 43.7718C126.352 43.5605 126.167 43.3726 125.972 43.176C125.871 43.0762 125.678 42.8428 125.577 42.743C125.476 42.6433 125.314 42.4833 125.223 42.3864C125.047 42.1986 125.061 42.1795 124.884 41.9917L124.361 41.4164C124.177 41.2183 123.983 41.0246 123.794 40.8294L123.263 40.2747C123.072 40.0736 122.887 39.8711 122.688 39.6774C122.45 39.4455 122.208 39.2166 121.966 38.9891C121.748 38.7851 121.546 38.5767 121.346 38.3566C121.025 37.9868 120.715 37.6111 120.407 37.2369C120.207 36.9948 120.001 36.757 119.789 36.5178C119.651 36.3623 119.51 36.2038 119.364 36.0526L119.262 35.9499C119.055 35.7459 118.846 35.5478 118.639 35.3497C118.395 35.1178 118.153 34.8874 117.905 34.6658L116.765 33.6591L116.228 33.1807L115.822 32.7932L115.008 32.014L114.541 31.5737C114.554 31.9651 114.566 32.3564 114.578 32.7477V33.4037C114.578 33.5989 114.585 33.7941 114.593 33.9907C114.61 34.5029 114.613 35.018 114.606 35.5346C114.606 36.0878 114.588 36.6411 114.562 37.1914C114.547 37.4512 114.538 37.7065 114.537 37.9692L114.544 38.7352C114.544 39.0111 114.544 39.2885 114.544 39.5659C114.544 39.8432 114.535 40.1074 114.525 40.3789C114.515 40.5124 114.503 40.643 114.491 40.7766C114.48 40.9101 114.464 41.0613 114.449 41.2036C114.414 41.5822 114.39 41.9653 114.376 42.3527C114.364 42.6697 114.361 42.9911 114.361 43.308C114.361 43.4768 114.361 43.6456 114.373 43.8114L114.383 44.0623V44.1885V44.4116C114.383 44.6053 114.383 44.7946 114.383 44.9986H114.471L114.911 45.0133H115.224H115.407L115.789 44.9972C116.082 44.9883 116.392 44.9825 116.688 44.9649C116.985 44.9473 117.275 44.9208 117.579 44.8988C117.854 44.8798 118.131 44.8665 118.407 44.8519L119.321 44.8064C119.579 44.8064 119.832 44.8064 120.091 44.8064L120.852 44.8299C121.399 44.8431 121.942 44.8489 122.489 44.8489C123.037 44.8489 123.615 44.7888 124.179 44.7932C124.541 44.7932 124.901 44.7932 125.26 44.7829C125.765 44.8049 126.196 44.7022 126.795 44.711C127.058 44.711 127.29 44.6963 127.29 44.645C127.29 44.5936 127.065 44.5804 126.795 44.5818C126.022 44.5818 125.664 44.5554 124.939 44.5496C124.595 44.5496 124.205 44.5804 123.592 44.5804C123.223 44.5804 122.858 44.5349 122.486 44.5364C121.979 44.5364 121.899 44.5437 121.707 44.5261C121.414 44.5011 121.21 44.4586 120.954 44.4527C120.661 44.4454 120.367 44.4439 120.074 44.4527C119.522 44.4703 118.962 44.4806 118.411 44.4454C118.163 44.4292 117.912 44.416 117.663 44.419C117.385 44.419 117.115 44.4013 116.839 44.4013C116.564 44.4013 116.292 44.4013 116.016 44.4234C115.776 44.4454 115.529 44.4307 115.282 44.4512L115.146 44.463L115.045 44.4703H115.034C114.999 44.4617 114.963 44.4553 114.927 44.4512L114.948 44.2487V44.2003V44.1137L114.955 43.9273C114.964 43.6558 114.955 43.3843 114.946 43.1158L114.929 42.3175V42.0034L114.938 41.9476C114.979 41.5578 114.991 41.1653 114.973 40.7736C114.973 40.7454 114.97 40.7172 114.963 40.69C114.963 40.103 114.963 39.5292 114.976 38.9466C114.976 38.6105 114.995 38.2759 115.007 37.9398C115.018 37.6038 115.031 37.2809 115.043 36.9522L115.122 35.8354C115.158 35.3849 115.164 34.9256 115.177 34.4677C115.184 34.2402 115.177 34.0142 115.167 33.7868C115.167 33.6738 115.155 33.5622 115.147 33.4492L115.137 33.2805V33.1968C115.137 33.1777 115.137 33.1865 115.137 33.1792C115.123 33.1425 115.111 33.1047 115.102 33.0662C115.104 33.0389 115.104 33.0114 115.102 32.984C115.111 32.9914 115.118 32.9928 115.125 32.984C115.133 32.9765 115.142 32.9707 115.152 32.9669C115.162 32.9631 115.172 32.9614 115.183 32.962C115.227 32.9672 115.268 32.9856 115.302 33.0148L115.337 33.0442L115.404 33.1088L115.538 33.2394C115.627 33.326 115.717 33.4125 115.812 33.4918C115.985 33.6385 116.172 33.7985 116.335 33.9614L116.599 34.2373C116.685 34.3239 116.779 34.3943 116.869 34.4765L117.253 34.8228C117.488 35.0826 117.724 35.3438 117.968 35.5977C118.212 35.8516 118.429 36.0599 118.667 36.2757L119.207 36.7629L119.584 37.1151C119.694 37.2193 119.801 37.325 119.908 37.4335C120.043 37.57 120.172 37.7124 120.303 37.8518L121.136 38.744C121.408 39.0287 121.697 39.2958 121.985 39.557C122.272 39.8183 122.514 40.0663 122.783 40.3172C123.051 40.5682 123.285 40.7956 123.525 41.0437C123.662 41.1904 123.826 41.3005 123.966 41.4414C124.105 41.5822 124.199 41.6747 124.315 41.7921C124.569 42.0489 124.811 42.316 125.062 42.5772C125.197 42.724 125.328 42.859 125.47 42.9852C125.59 43.0923 125.727 43.1965 125.844 43.3066C126.045 43.5003 126.242 43.694 126.44 43.8936C126.662 44.1137 126.851 44.2737 127.07 44.4923C127.155 44.5774 127.257 44.6655 127.287 44.6391C127.316 44.6127 127.285 44.529 127.169 44.4131Z" fill="#063844"/>
<path d="M132.215 73.9954V136.823L130.482 138.712H34.9127C34.2573 138.712 33.6287 138.451 33.1652 137.988C32.7018 137.524 32.4414 136.896 32.4414 136.24V76.5812C32.4405 76.2497 32.5068 75.9215 32.6362 75.6163C32.7656 75.3111 32.9554 75.0353 33.1943 74.8055L81.8881 112.55L131.54 72.299C131.975 72.7565 132.217 73.3641 132.215 73.9954Z" fill="white"/>
<path d="M132.224 73.9954C131.854 73.9954 131.911 77.896 131.911 84.3165C131.911 92.9543 131.892 101.655 131.854 110.418C131.807 119.111 131.758 127.848 131.707 136.628L130.249 138.194L95.9043 137.947L61.3103 137.72L44.089 137.643L35.5142 137.617H34.9125H34.8744H34.7995C34.7496 137.617 34.7027 137.601 34.6528 137.596C34.4581 137.559 34.2742 137.479 34.1142 137.361C33.9533 137.246 33.8197 137.096 33.7226 136.923C33.6255 136.75 33.5673 136.558 33.5521 136.361V136.287V136.249V134.308C33.5521 133.595 33.5521 132.884 33.5521 132.172C33.561 120.795 33.5311 109.517 33.4626 98.3386C33.4137 91.1859 33.3648 84.0714 33.3159 76.995C33.3159 76.7895 33.3159 76.4931 33.3159 76.4549C33.3189 76.4049 33.3287 76.3555 33.3452 76.3082C33.362 76.2603 33.3852 76.2148 33.4142 76.1732C33.4286 76.1522 33.4443 76.1321 33.4612 76.113C33.4612 76.113 33.47 76.0998 33.4744 76.1027L33.489 76.113L33.5199 76.135L33.6417 76.2231L33.7048 76.27L33.9322 76.4432L34.9874 77.2489L39.2036 80.4774L47.6345 86.9184L81.888 113.133L103.284 95.6457C110.44 89.8109 117.734 83.8806 125.165 77.855C127.694 75.8004 130.216 73.7694 131.693 72.4882L131.363 72.4662C131.66 72.7635 131.88 73.1294 132.004 73.5316C132.095 73.8251 132.123 73.9954 132.178 73.9954C132.234 73.9954 132.325 73.8325 132.308 73.4964C132.265 72.9897 132.055 72.5116 131.71 72.1375L131.572 71.9805L131.392 72.1155C130.018 73.1427 127.761 75.0065 124.801 77.4059C117.527 83.3034 110.305 89.1588 103.135 94.9721L81.8762 112.157L68.1651 101.431C63.5424 97.802 58.9295 94.1665 54.3264 90.5241L37.2826 77.0449L35.1723 75.3793L34.6073 74.939L34.167 74.5897L33.9425 74.4151L33.831 74.327L33.7268 74.2727L33.3071 74.057L33.0957 73.9499L33.0429 73.922L33.018 73.9088C33.0077 73.9 33.0004 73.9088 32.993 73.9161L32.902 74.0071C32.6599 74.2386 32.4375 74.49 32.2372 74.7585C31.9203 75.2125 31.7261 75.7408 31.6737 76.292C31.6561 76.4682 31.659 76.6032 31.6576 76.7074L31.6458 78.0472L31.618 80.7137C31.5915 84.2788 31.5646 87.8312 31.5372 91.3708C31.4374 105.538 31.3655 119.547 31.3333 133.544C31.3333 134.291 31.3333 135.025 31.3333 135.746V136.151C31.3333 136.196 31.3333 136.233 31.3333 136.305C31.3387 136.563 31.3716 136.819 31.4316 137.069C31.6072 137.806 32.0131 138.467 32.5903 138.957C33.1674 139.447 33.8858 139.741 34.6411 139.795L34.823 139.803H34.9125H35.2281H35.7285H36.7191C39.3415 139.786 41.8172 139.758 44.2166 139.726C49.0169 139.664 53.5105 139.579 58.2667 139.539C72.9185 139.393 84.8113 139.859 98.876 139.817C104.117 139.801 109.373 139.762 114.643 139.699L130.821 139.485C131.528 138.693 132.237 137.901 132.946 137.109C132.831 129.44 132.715 121.764 132.598 114.082C132.5 106.501 132.431 98.9325 132.39 91.3767L132.491 84.3194C132.491 79.142 132.507 73.9954 132.224 73.9954Z" fill="#063844"/>
</svg>
