<svg width="164" height="164" viewBox="0 0 164 164" fill="none" xmlns="http://www.w3.org/2000/svg">
<path d="M142.002 81.674C142.002 114.547 115.138 141.198 82 141.198C72.4 141.216 62.9354 138.933 54.3994 134.54C45.8633 130.147 38.5043 123.772 32.9388 115.95C32.1281 114.809 31.3568 113.64 30.625 112.442C24.9699 103.177 21.9854 92.5298 22.0011 81.6754C22.0011 48.8009 48.8653 22.1516 82.0029 22.1516C115.141 22.1516 142.002 48.7994 142.002 81.674Z" fill="#F7F4F2"/>
<path d="M27.0995 105.817C27.6242 105.58 26.6069 103.715 25.4916 100.408C23.2111 93.6338 22.2142 86.4932 22.5522 79.353C23.0666 68.6795 26.5146 58.3545 32.5169 49.5137C38.5193 40.6729 46.8435 33.6586 56.5741 29.2423C59.6288 27.8659 62.7792 26.7126 66.0005 25.7913L67.1918 25.4463C67.5908 25.3353 67.9942 25.2519 68.3947 25.154L69.5962 24.8617L70.197 24.7155L70.8021 24.6015C71.6104 24.4553 72.4099 24.2843 73.2197 24.144L75.6476 23.7932C78.8781 23.4003 82.1337 23.2503 85.3867 23.3445L87.8131 23.4745C88.0163 23.4819 88.2165 23.5067 88.4168 23.5272L89.0204 23.5915L90.2278 23.7201C91.0346 23.7873 91.8356 23.9408 92.6278 24.0621L93.825 24.2639C94.2211 24.3399 94.6157 24.4305 95.0104 24.5138L96.1797 24.7637L96.7571 24.8894L97.3242 25.0356L99.5723 25.6466L101.756 26.3628L102.298 26.5411C102.477 26.6055 102.652 26.6771 102.829 26.7443L103.887 27.1536C106.677 28.237 109.371 29.5512 111.942 31.0826L112.426 31.3632L112.669 31.5094L112.904 31.6556L113.848 32.2651C114.477 32.6729 115.116 33.069 115.719 33.5221L116.64 34.1857L117.102 34.5175C117.257 34.6271 117.411 34.7397 117.558 34.861L119.356 36.2934C121.803 38.3396 124.085 40.5762 126.179 42.9821C131.494 49.1197 135.496 56.2796 137.941 64.0214L138.063 64.3869L138.166 64.7552L138.374 65.4948L138.792 66.9726C138.922 67.4681 139.024 67.9694 139.144 68.4679L139.489 69.9646L139.76 71.476L139.897 72.2317L139.966 72.6103C139.989 72.736 140.011 72.8617 140.024 72.9888L140.223 74.5119L140.321 75.2764L140.371 75.6579C140.388 75.7836 140.394 75.9122 140.406 76.0393C140.81 80.0973 140.817 84.1851 140.426 88.2443C140.016 92.4232 139.086 96.5345 137.658 100.483C136.292 104.252 134.511 107.858 132.349 111.234C132.214 111.443 132.092 111.659 131.95 111.862L131.526 112.476L130.68 113.704L130.468 114.011C130.396 114.113 130.322 114.21 130.243 114.303L129.789 114.898L128.88 116.089C128.734 116.291 128.566 116.478 128.407 116.674L127.923 117.25C127.6 117.635 127.277 118.02 126.954 118.406L125.931 119.521L125.412 120.08C125.239 120.267 125.074 120.46 124.888 120.635C121.943 123.656 118.719 126.391 115.259 128.804C112.254 130.907 109.076 132.749 105.758 134.312C102.39 135.898 98.8848 137.172 95.2852 138.12C91.6577 139.074 87.948 139.683 84.2057 139.938C80.4678 140.207 76.7122 140.099 72.9961 139.615C60.9859 138.087 49.7688 132.793 40.9547 124.492C39.9315 123.537 38.9639 122.521 38.2082 121.79C37.4525 121.059 36.9263 120.59 36.767 120.73C36.3636 121.077 37.7902 122.696 40.3612 125.115C43.7924 128.362 47.5735 131.218 51.6351 133.631C53.6472 134.827 55.7256 135.908 57.8604 136.868C59.9944 137.824 62.1824 138.653 64.4131 139.353C68.8994 140.765 73.5396 141.632 78.2333 141.933C78.5256 141.957 78.8179 141.97 79.1103 141.981L79.996 142.018C80.5807 142.043 81.18 142.038 81.7734 142.049C82.3669 142.059 82.9589 142.021 83.5523 142.008L84.4439 141.98L84.8897 141.967L85.1134 141.96L85.3355 141.94L87.1188 141.794L88.0119 141.717C88.158 141.707 88.3042 141.688 88.4577 141.666L88.8962 141.603C90.0816 141.433 91.2743 141.293 92.4524 141.033C96.381 140.28 100.236 139.183 103.972 137.754C107.538 136.392 110.974 134.71 114.237 132.728C117.46 130.77 120.484 128.504 123.267 125.96C126.103 123.366 128.651 120.475 130.868 117.336L131.872 115.911C132.033 115.676 132.203 115.449 132.355 115.214L132.806 114.508C133.108 114.043 133.408 113.583 133.704 113.129C133.85 112.906 133.996 112.672 134.129 112.442L134.54 111.755L135.361 110.406L136.116 109.047C136.364 108.595 136.624 108.151 136.863 107.701C137.101 107.251 137.321 106.789 137.55 106.336L137.893 105.656C138.007 105.428 138.128 105.204 138.226 104.97L138.847 103.58L139.159 102.882L139.315 102.531C139.365 102.414 139.409 102.294 139.461 102.174L140.015 100.733C140.406 99.7726 140.705 98.7699 141.028 97.7526C141.107 97.4968 141.188 97.241 141.267 96.9837C141.345 96.7265 141.404 96.4604 141.473 96.1973C141.604 95.6682 141.736 95.1323 141.869 94.5895C142.035 93.9566 142.141 93.3193 142.256 92.6893C142.372 92.0593 142.489 91.4352 142.586 90.8111C142.662 90.1855 142.738 89.5642 142.813 88.9474C142.85 88.6375 142.886 88.3306 142.923 88.0236C142.959 87.7167 142.966 87.4068 142.988 87.0999C143.027 86.4879 143.066 85.8769 143.104 85.2669L143.13 84.8109V84.3548C143.13 84.0508 143.13 83.7468 143.13 83.4427C143.13 82.8376 143.134 82.2325 143.142 81.6273L143.063 79.8134C143.038 78.6031 142.898 77.3958 142.793 76.1782L142.752 75.7222L142.731 75.4927L142.7 75.2647C142.658 74.9606 142.617 74.6566 142.575 74.3511C142.491 73.7387 142.41 73.1248 142.326 72.505C141.888 70.0465 141.432 67.5178 140.718 64.916C139.814 61.5 138.558 58.1871 136.969 55.0307C136.563 54.2677 136.158 53.5066 135.756 52.7475L134.43 50.5463C133.502 49.1109 132.552 47.6974 131.507 46.3542C129.428 43.6404 127.136 41.0959 124.655 38.7447C122.095 36.3174 119.355 34.0878 116.458 32.0751C105.453 24.3442 92.3984 20.3568 79.3222 20.5921C76.0466 20.6627 72.7814 20.9852 69.5553 21.5568C66.3152 22.1707 63.13 23.0457 60.031 24.1732C56.9023 25.3139 53.8837 26.7366 51.0125 28.4238C48.1018 30.1173 45.3487 32.0681 42.7862 34.2529C40.4417 36.279 38.2236 38.4469 36.1443 40.7443L34.6081 42.5348L34.4151 42.7584L34.2324 42.9923L33.867 43.4586L33.1362 44.3926L32.7693 44.8603C32.7079 44.9393 32.6465 45.0153 32.5866 45.0957L32.4141 45.3383L31.7257 46.3089L31.0358 47.2823C30.9188 47.4417 30.8121 47.6097 30.7054 47.7778L30.3838 48.2821L29.7422 49.2892C29.5317 49.6269 29.3037 49.9572 29.118 50.3124L27.9385 52.3924C27.2076 53.8102 26.4768 55.2251 25.8731 56.6955C24.615 59.5807 23.6356 62.5796 22.9483 65.6512C22.8752 65.9728 22.7904 66.29 22.7261 66.613C22.6618 66.936 22.6063 67.2591 22.5449 67.5821C22.424 68.2291 22.3022 68.8728 22.1795 69.513L21.912 71.4526L21.776 72.4188C21.7424 72.7433 21.7176 73.0678 21.6869 73.3908L21.51 75.3319C21.4662 75.9794 21.4515 76.6299 21.4194 77.2774C21.3346 78.5739 21.377 79.8763 21.3741 81.1771C21.4173 83.8042 21.6272 86.4259 22.0026 89.0263C22.3811 91.6976 22.9303 94.3418 23.647 96.9428C23.7157 97.26 23.7932 97.5713 23.8809 97.8841L24.125 98.824L24.3939 99.7565L24.5284 100.224L24.6745 100.688C24.79 101.025 24.9055 101.361 25.0195 101.692L25.3805 102.655C25.439 102.81 25.4989 102.963 25.5559 103.113C25.6129 103.262 25.6773 103.405 25.7357 103.551C25.8556 103.832 25.971 104.095 26.0807 104.337C26.5309 105.298 26.9109 105.901 27.0995 105.817Z" fill="#063844"/>
<path d="M73.7284 92.4555V78.1311H81.3832C84.2909 78.1311 86.4581 77.3515 87.8847 75.7924C89.3113 74.2333 90.0246 72.3263 90.0246 70.0714C90.0246 68.4811 89.7089 67.0959 89.0774 65.9158C88.4549 64.7449 87.5133 63.7743 86.3616 63.1167C85.1816 62.4346 83.7686 62.0936 82.1228 62.0936C80.3688 62.0936 78.8876 62.4638 77.6793 63.2044C76.5029 63.9126 75.5366 64.9218 74.8802 66.1278C74.2082 67.3937 73.8687 68.8094 73.8935 70.2424H61.3012C61.3012 66.6204 62.1105 63.3418 63.7291 60.4068C65.3476 57.4717 67.7482 55.1262 70.9307 53.3703C74.1113 51.6163 77.9521 50.7393 82.4531 50.7393C86.6218 50.7393 90.2156 51.5213 93.2344 53.0852C96.2533 54.6492 98.5851 56.8028 100.23 59.5459C101.876 62.2909 102.699 65.4457 102.699 69.0102V69.9983C102.699 73.5063 101.862 76.5929 100.189 79.258C98.516 81.9231 96.0881 84.0065 92.9056 85.5081C89.722 87.0176 85.8535 87.8268 81.2999 87.936L86.9799 83.4048L86.8148 92.4584L73.7284 92.4555ZM72.7403 112.627V99.3692H87.7195V112.619L72.7403 112.627Z" fill="#063844"/>
<path d="M72.7359 112.619C72.9201 112.619 72.8923 111.998 72.8923 110.973C72.8923 109.073 72.9113 107.145 72.9434 105.208C72.961 104.241 72.979 103.27 72.9975 102.295L73.0282 100.834L73.0443 100.103V99.9215V99.8411V99.695L73.2446 99.7052H73.4302H73.6655L74.6054 99.7257L76.488 99.7695L80.2474 99.8455C81.4986 99.8679 82.7464 99.886 83.9908 99.8996L85.8515 99.9127H86.7797H87.1539V100.395L87.1626 101.427C87.1743 102.109 87.185 102.791 87.1948 103.473C87.2606 106.441 87.3263 109.354 87.3921 112.298L87.2167 112.306H87.1714H87.0954H86.8937L86.0825 112.322L84.4556 112.353L81.1639 112.404C78.9524 112.432 76.6956 112.45 74.37 112.45C73.5442 112.45 72.7227 112.442 72.7227 112.583C72.7227 112.767 73.3454 112.738 74.37 112.738H81.0777C82.1866 112.738 83.2926 112.746 84.3957 112.764L87.9315 112.827L87.9461 112.026L87.9636 111.453C88.0294 109.38 88.0879 107.345 88.1346 105.333C88.1551 104.325 88.1761 103.324 88.1975 102.329C88.2048 101.83 88.2136 101.332 88.2209 100.835L88.2311 100.091L88.2399 98.8092L86.2009 98.796C84.3007 98.7814 82.9442 98.8896 81.427 98.9422C79.0883 99.0138 77.1882 98.7829 74.9474 98.8048L73.8365 98.8223L73.2811 98.8355L72.2228 98.853L72.2345 99.4786V99.787V100.005L72.2608 100.66C72.2794 101.095 72.2988 101.534 72.3193 101.975L72.4465 104.597C72.5313 106.351 72.6058 108.097 72.6248 109.838L72.5736 110.965C72.6029 111.799 72.5956 112.619 72.7359 112.619Z" fill="#063844"/>
<path d="M73.724 92.4554C73.9082 92.4554 73.8789 90.2629 73.8789 86.6657C73.8789 83.8885 73.8862 81.1114 73.8892 78.2962L79.8952 78.3137H81.4416C81.965 78.3134 82.488 78.2861 83.0086 78.2319C84.0619 78.1276 85.0901 77.8469 86.0503 77.4016C86.5315 77.1681 86.9838 76.8792 87.398 76.5407C87.8075 76.1975 88.1785 75.8108 88.5045 75.3874C89.1659 74.5453 89.6543 73.5806 89.9413 72.5489C90.2178 71.5172 90.3249 70.4474 90.2585 69.3814C90.2139 68.3067 89.9752 67.249 89.5539 66.2593C89.1189 65.2622 88.4667 64.3748 87.645 63.6619C87.234 63.3069 86.7867 62.9963 86.3105 62.7352C85.8316 62.4771 85.3264 62.2712 84.8035 62.1213C83.7627 61.833 82.6827 61.7121 81.6039 61.7632C80.5155 61.7866 79.4404 62.007 78.4306 62.4136C77.9252 62.6265 77.4444 62.8936 76.9967 63.2102C76.548 63.5236 76.1318 63.8811 75.7543 64.2773C74.9969 65.0764 74.41 66.0213 74.0295 67.0544C73.84 67.5685 73.7005 68.0996 73.6129 68.6404C73.5661 68.9093 73.5354 69.1812 73.5135 69.4516L73.4989 69.6474V69.7205V69.779V69.8038C73.4989 69.8111 73.4989 69.8243 73.4901 69.8199L70.7349 69.8009L64.4599 69.7644L61.7923 69.7483C61.7923 69.7483 61.7923 69.741 61.7923 69.7322V69.6548V69.5086C61.8069 69.2528 61.8113 68.9985 61.8333 68.7441C61.8552 68.4898 61.8713 68.2369 61.9005 67.9841C61.9297 67.7312 61.959 67.4783 61.994 67.2269C62.1351 66.2226 62.355 65.231 62.6518 64.2612C62.945 63.2936 63.3191 62.3524 63.77 61.4475C63.9892 60.9929 64.2377 60.5529 64.492 60.1217C64.7464 59.6905 65.0299 59.2725 65.3325 58.872C65.6351 58.4715 65.9493 58.0812 66.2768 57.7026C66.6042 57.3241 66.9579 56.9718 67.3277 56.6268C68.0587 55.94 68.8464 55.316 69.6825 54.7617C70.516 54.205 71.3901 53.7115 72.2974 53.2855C74.1269 52.4542 76.0648 51.8859 78.0535 51.5972C80.0368 51.3045 82.044 51.2066 84.0464 51.3049C86.0321 51.3857 88.0005 51.7091 89.9077 52.2681C91.1237 52.6346 92.2992 53.1244 93.4157 53.7298C93.9711 54.0338 94.5163 54.3583 95.0396 54.715C95.5606 55.0715 96.0626 55.455 96.5437 55.8639C98.4655 57.5104 99.9769 59.5824 100.958 61.9152C101.446 63.0776 101.803 64.2904 102.025 65.5314C102.139 66.1542 102.22 66.7826 102.268 67.414C102.297 67.7297 102.307 68.0469 102.323 68.3626C102.339 68.6784 102.339 68.9955 102.339 69.32C102.339 69.9705 102.339 70.6005 102.313 71.2348C102.287 71.8692 102.212 72.4992 102.117 73.1262C101.924 74.3793 101.585 75.6055 101.108 76.7804C100.628 77.9597 100.003 79.0748 99.2478 80.0999C98.4868 81.126 97.6033 82.0552 96.6168 82.8668C96.1213 83.2741 95.6041 83.6542 95.0674 84.0055C94.5285 84.3553 93.9726 84.6803 93.3996 84.9804C92.8252 85.2727 92.239 85.5475 91.6456 85.7916C91.0522 86.0357 90.4339 86.255 89.8112 86.4435C88.5619 86.826 87.2871 87.119 85.9962 87.3206C85.3472 87.4199 84.6968 87.5062 84.0405 87.5676C83.7131 87.6041 83.3842 87.6231 83.0553 87.6523L82.402 87.6918L82.0789 87.705H81.9152C81.8904 87.705 81.9152 87.6962 81.924 87.6889L81.9547 87.664L82.0161 87.6143L82.516 87.2109L83.9513 86.0591L86.806 83.7672C86.7621 86.5678 86.7168 89.4122 86.6701 92.3005H79.5254C76.6225 92.3005 73.7357 92.2917 73.7357 92.432C73.7357 92.6177 75.9282 92.5884 79.5254 92.5884H86.9565C87.0131 89.4146 87.0701 86.256 87.1276 83.1124L83.5011 86.0007L81.617 87.5018L81.0938 87.9213L80.9637 88.0265L80.8979 88.0792C80.9184 88.0792 80.952 88.0792 80.9783 88.0792L81.3145 88.0675L81.9883 88.0455L82.6621 88.0119L82.9998 87.9944L83.276 87.9739L83.8183 87.9344C84.1779 87.8979 84.5389 87.8701 84.8985 87.8234C85.6177 87.7459 86.3324 87.6319 87.0457 87.5047C87.759 87.3775 88.4635 87.2124 89.1637 87.0297C89.8638 86.847 90.5537 86.6233 91.2334 86.3763C91.9144 86.1292 92.5819 85.8462 93.233 85.5285C93.8851 85.2148 94.5195 84.8654 95.1332 84.482C96.3686 83.7163 97.5025 82.798 98.5082 81.7486C99.509 80.691 100.361 79.5019 101.041 78.2143C101.721 76.9229 102.225 75.5465 102.539 74.1216C102.767 73.1092 102.909 72.0795 102.965 71.0433L102.985 70.656L102.994 70.2687C103.003 70.0085 103.003 69.7556 103.006 69.5013C103.009 69.2469 103.006 68.9941 103.006 68.7339V68.348L102.993 67.9621C102.932 65.8997 102.533 63.8613 101.812 61.9283C101.079 60.0048 100.005 58.2295 98.6412 56.6882C97.2778 55.1633 95.6644 53.8821 93.8703 52.8996C92.0916 51.9177 90.1754 51.2092 88.1858 50.7977C84.2387 50.0097 80.1738 50.0201 76.2308 50.8284C74.2549 51.2464 72.3513 51.9532 70.5814 52.9259C67.5733 54.5922 65.4027 56.7482 63.9278 59.0898C63.2119 60.2371 62.6195 61.4571 62.1607 62.7293C61.9319 63.3548 61.7367 63.992 61.576 64.6383C61.4091 65.2907 61.2759 65.9513 61.177 66.6174C61.0951 67.1348 61.041 67.6493 60.9943 68.158C60.9767 68.4138 60.9592 68.6667 60.9416 68.9195C60.9416 69.0452 60.9314 69.1724 60.927 69.2981C60.9226 69.4238 60.9153 69.5188 60.9139 69.7483L60.9051 70.333V70.6092C60.9051 70.6092 60.9051 70.6238 60.9051 70.6209H62.2206H63.6589C65.5591 70.6326 67.4154 70.6531 69.2556 70.6765L72.0138 70.7115L73.4331 70.7276H74.104H74.3964C74.3971 70.714 74.3971 70.7003 74.3964 70.6867L74.4066 70.3534L74.4271 69.7161V69.6533V69.6124L74.4344 69.5305C74.4344 69.475 74.4344 69.4209 74.449 69.3653C74.529 68.4859 74.7562 67.6261 75.1214 66.822C75.8258 65.2908 77.0391 64.0511 78.5548 63.314C79.2591 62.9858 80.0101 62.7693 80.781 62.6723C82.345 62.4765 83.9967 62.5656 85.432 63.1664C86.1524 63.471 86.8153 63.8967 87.3921 64.4249C87.9692 64.958 88.4468 65.5895 88.8026 66.29C89.5189 67.6946 89.7396 69.3595 89.6212 70.9673C89.5907 71.3683 89.5306 71.7665 89.4414 72.1586C89.3541 72.551 89.2353 72.9357 89.0862 73.3089C88.7881 74.0597 88.371 74.7575 87.8511 75.3757C87.5978 75.688 87.3138 75.9739 87.0033 76.2294C86.8572 76.3595 86.6847 76.4735 86.5224 76.5904C86.3602 76.7073 86.1833 76.8082 86.0035 76.9017C85.6472 77.0958 85.2745 77.2582 84.8897 77.387C84.6997 77.4586 84.5009 77.5098 84.3051 77.5683C84.1092 77.6267 83.909 77.6691 83.7072 77.7057C82.8964 77.8604 82.0727 77.9377 81.2472 77.9366L78.7375 77.9658L73.6114 78.0097C73.6183 79.5737 73.6261 81.1328 73.6348 82.687L73.5837 86.6453C73.591 89.5686 73.5837 92.4554 73.724 92.4554Z" fill="#063844"/>
</svg>
