<svg width="213" height="212" viewBox="0 0 213 212" fill="none" xmlns="http://www.w3.org/2000/svg">
<path d="M129.471 61.2123L154.63 41.9517L179.075 41.8184L154.792 61.6896L129.471 61.2123Z" fill="#F7F4F2"/>
<path d="M161.524 175.937V181.876H124.88V106.771H161.524V170.066" fill="#F7F4F2"/>
<path d="M59.6252 136.638C65.1254 136.638 69.5843 132.171 69.5843 126.661C69.5843 121.151 65.1254 116.684 59.6252 116.684C54.1249 116.684 49.666 121.151 49.666 126.661C49.666 132.171 54.1249 136.638 59.6252 136.638Z" fill="#BADFD8"/>
<path d="M69.6001 126.661C69.3571 126.661 69.3744 127.026 69.3455 127.629C69.222 128.866 68.8517 130.066 68.2711 131.144C67.6904 132.224 66.9015 133.181 65.964 133.952C65.0285 134.723 63.9444 135.306 62.7929 135.66C61.6413 136.014 60.4222 136.134 59.2243 136.02C58.0882 135.913 57.0002 135.697 55.9605 135.322C54.9286 134.937 53.9544 134.392 53.1231 133.666C52.3052 132.951 51.6802 132.135 51.196 131.237C50.735 130.327 50.4129 129.331 50.2644 128.214C50.0927 126.875 50.2007 125.47 50.5865 124.145L50.654 123.895C50.6791 123.812 50.7138 123.733 50.7427 123.652L50.9241 123.167C50.9761 123.001 51.061 122.85 51.1324 122.693L51.3523 122.226C51.4314 122.073 51.5259 121.928 51.6108 121.777C51.6995 121.631 51.7767 121.474 51.875 121.333L52.1721 120.91C52.2685 120.767 52.365 120.624 52.4788 120.496C53.4008 119.341 54.5929 118.595 55.8448 118.148C55.9972 118.081 56.1611 118.044 56.3213 117.998C56.4814 117.953 56.6415 117.907 56.8035 117.862C57.1295 117.789 57.4632 117.741 57.793 117.675C57.9609 117.659 58.1306 117.644 58.3023 117.627C58.3871 117.617 58.472 117.607 58.5588 117.6L58.6881 117.584H58.8192C58.9928 117.578 59.1684 117.574 59.3458 117.569L59.612 117.557C59.7008 117.561 59.7914 117.567 59.8821 117.571C61.08 117.596 62.3068 117.785 63.4853 118.22C64.6601 118.649 65.7808 119.325 66.6893 120.22L66.9671 120.492C67.0616 120.581 67.1349 120.688 67.2198 120.784L67.4667 121.082C67.5496 121.18 67.6326 121.279 67.7001 121.389C67.8428 121.604 67.9875 121.816 68.1302 122.029L68.491 122.709C68.9346 123.635 69.2259 124.637 69.3416 125.691C69.3648 126.176 69.3802 126.657 69.5654 126.659C69.8084 126.659 69.7525 126.278 69.7197 125.654C69.5461 123.977 69.0368 122.361 68.1669 120.929C67.2777 119.518 66.0123 118.303 64.4537 117.559C63.115 116.935 61.7995 116.541 60.4608 116.398C59.1279 116.256 57.7564 116.371 56.4524 116.885C56.2595 116.968 56.0724 117.045 55.8872 117.113C55.7946 117.147 55.7021 117.178 55.6133 117.213C55.5246 117.252 55.4378 117.29 55.351 117.329C55.1774 117.404 55.0038 117.474 54.8321 117.542C54.7453 117.572 54.6604 117.611 54.5794 117.654L54.3325 117.773L53.8368 118.011C53.6767 118.1 53.5204 118.199 53.3622 118.295C53.206 118.396 53.0382 118.49 52.8858 118.608C52.7353 118.728 52.5849 118.854 52.4325 118.987C52.3438 119.066 52.255 119.142 52.1721 119.221C52.0949 119.306 52.0178 119.393 51.9406 119.476C51.7902 119.648 51.6397 119.814 51.5008 119.988C51.3735 120.172 51.2501 120.353 51.1247 120.533L50.9414 120.805L50.7833 121.093C50.6772 121.285 50.5711 121.476 50.465 121.667C50.3724 121.868 50.2798 122.069 50.1872 122.274C50.139 122.377 50.0908 122.477 50.0406 122.581C50.0001 122.688 49.9577 122.796 49.9152 122.904C49.8304 123.12 49.7397 123.339 49.6452 123.565C49.1842 124.794 49.1205 126.066 49.2594 127.277C49.4041 128.495 49.7532 129.668 50.2451 130.86C50.3724 131.132 50.4804 131.413 50.6174 131.677C50.762 131.94 50.9048 132.201 51.0475 132.462C51.2134 132.709 51.3774 132.957 51.5413 133.204C51.713 133.445 51.9078 133.668 52.0911 133.903C52.8588 134.806 53.7693 135.589 54.8012 136.195L55.1947 136.414C55.3259 136.485 55.4552 136.563 55.596 136.617L56.4293 136.966L57.2992 137.225C57.4439 137.274 57.5944 137.295 57.7429 137.322L58.1923 137.401C59.396 137.577 60.6479 137.527 61.8535 137.206C62.9337 136.908 64.0177 136.483 65.015 135.882L65.3834 135.648L65.5667 135.531C65.6265 135.49 65.6824 135.442 65.7403 135.397C65.9679 135.216 66.1974 135.038 66.4154 134.848C66.6218 134.644 66.8224 134.439 67.0192 134.23C67.2121 134.019 67.3741 133.78 67.5419 133.554C67.6885 133.364 67.8062 133.158 67.9277 132.953L68.109 132.649C68.1688 132.549 68.2325 132.45 68.2807 132.342L68.5913 131.714L68.6684 131.558L68.7321 131.395L68.8594 131.071C69.0484 130.645 69.1603 130.189 69.305 129.743C69.3648 129.515 69.4053 129.281 69.4593 129.049C69.4844 128.933 69.5114 128.815 69.5364 128.699C69.5519 128.58 69.5673 128.46 69.5827 128.34C69.631 128.116 69.6811 127.892 69.7255 127.666C69.7506 127.161 69.7872 126.659 69.602 126.661H69.6001Z" fill="#063844"/>
<path d="M124.955 181.134C124.955 180.285 124.98 179.437 124.984 178.585C124.988 177.779 124.957 177.01 124.955 176.202C124.955 175.79 124.972 174.836 124.972 174.426C124.972 174.04 124.968 173.361 124.974 172.979C124.986 172.237 124.939 172.279 124.949 171.539C124.961 170.789 124.982 170.045 124.995 169.297C125.011 168.521 125.009 167.732 125.015 166.953C125.019 166.215 125.028 165.479 125.038 164.741C125.046 163.943 125.063 163.148 125.059 162.348C125.053 161.392 125.04 160.435 125.026 159.479C125.015 158.619 125.021 157.782 125.038 156.928C125.084 155.517 125.144 154.124 125.206 152.734C125.244 151.834 125.273 150.928 125.3 150.01C125.318 149.411 125.333 148.804 125.337 148.195C125.337 148.056 125.337 147.917 125.337 147.778C125.337 147.357 125.333 146.937 125.329 146.518C125.345 145.428 125.235 144.296 125.204 143.209C125.204 143.068 125.206 142.927 125.21 142.784C125.213 142.545 125.221 142.309 125.227 142.071C125.235 141.712 125.227 141.36 125.219 141.005C125.213 140.639 125.206 140.274 125.198 139.907C125.186 139.041 125.179 138.17 125.156 137.312C125.132 136.452 125.098 135.603 125.069 134.745C125.044 133.957 125.024 133.159 125.007 132.361C124.988 131.48 124.965 130.608 124.945 129.727C124.938 128.983 124.939 128.256 124.951 127.51C124.961 126.78 124.974 126.048 124.982 125.321C124.999 123.744 125.007 122.179 125.009 120.604C125.009 118.983 124.928 117.361 124.936 115.738C124.939 114.693 124.986 113.657 124.98 112.619C125.009 111.168 124.953 109.923 124.963 108.198C124.968 107.44 124.943 106.775 124.876 106.775C124.81 106.775 124.791 107.421 124.793 108.198C124.797 110.426 124.679 111.46 124.671 113.547C124.668 114.538 124.654 115.641 124.654 117.429C124.654 118.49 124.596 119.543 124.596 120.61C124.598 122.073 124.606 122.308 124.583 122.859C124.548 123.7 124.494 124.289 124.486 125.027C124.477 125.864 124.477 126.718 124.486 127.553C124.507 129.143 124.521 130.759 124.475 132.343C124.453 133.058 124.436 133.783 124.44 134.504C124.444 135.3 124.417 136.079 124.417 136.873C124.417 137.673 124.409 138.45 124.444 139.246C124.475 139.94 124.455 140.647 124.482 141.337C124.494 141.646 124.502 141.957 124.507 142.27C124.507 142.29 124.505 142.307 124.504 142.326C124.475 142.842 124.463 143.397 124.451 143.938C124.444 144.292 124.434 144.651 124.43 145.011C124.421 145.731 124.43 145.986 124.45 146.649C124.457 146.866 124.475 147.797 124.48 148.01C124.49 148.361 124.465 148.709 124.477 149.092C124.498 149.772 124.552 150.441 124.577 151.121C124.581 151.473 124.581 151.824 124.581 152.182C124.579 152.734 124.565 153.287 124.558 153.836C124.54 155.009 124.515 156.18 124.504 157.355C124.492 158.485 124.513 159.622 124.536 160.739C124.558 161.794 124.556 162.857 124.573 163.916C124.586 164.909 124.594 165.91 124.586 166.909C124.583 167.475 124.627 168.041 124.621 168.606C124.615 169.079 124.621 169.554 124.621 170.028C124.619 171.071 124.671 172.057 124.662 173.098C124.658 173.657 124.646 174.213 124.662 174.76C124.673 175.222 124.754 175.767 124.762 176.231C124.77 177.035 124.772 177.831 124.772 178.637C124.772 179.535 124.799 180.247 124.799 181.139C124.799 181.485 124.82 181.876 124.872 181.881C124.941 181.889 124.949 181.611 124.949 181.139L124.955 181.134Z" fill="black"/>
<path d="M148.803 107.281H138.062V126.66H148.803V107.281Z" fill="#BADFD8"/>
<path d="M50.8223 165.431C50.8223 165.675 50.911 165.638 51.0576 165.638C52.2593 165.638 53.4302 165.791 54.6454 166.046C55.2222 166.168 55.7719 165.926 56.3178 165.851C56.856 165.777 57.3151 165.837 57.8764 165.915C58.5496 166.007 59.2633 166.094 59.95 165.974C60.6888 165.847 61.2984 166.338 62.0545 166.324C62.6795 166.313 63.3295 165.99 63.9603 165.845C64.4734 165.727 64.9614 165.638 65.4745 165.638C65.5922 165.638 65.7099 165.648 65.7099 165.462C65.7099 165.219 65.6211 165.256 65.4745 165.256C64.6875 165.256 63.9372 164.946 63.1463 165.115C62.4654 165.259 61.8886 164.973 61.2444 165.144C60.8566 165.246 60.5654 164.923 60.2027 164.89C59.7764 164.85 59.4196 165.078 58.9778 164.96C58.3876 164.803 57.8668 165.194 57.2707 165.128C56.1635 165.002 55.145 164.353 54.0494 164.645C53.5575 164.776 53.0251 164.653 52.5178 164.906C52.0877 165.12 51.671 165.252 51.2177 165.298C51.1637 165.283 51.1116 165.271 51.0576 165.256C50.9399 165.256 50.8223 165.246 50.8223 165.431Z" fill="#063844"/>
<path d="M70.8524 171.166C70.6229 171.166 70.3952 171.141 70.1657 171.137C69.9477 171.133 69.7413 171.164 69.5234 171.166C69.4134 171.166 69.1549 171.148 69.045 171.148C68.9408 171.148 68.7576 171.152 68.6553 171.146C68.4547 171.135 68.4663 171.181 68.2676 171.172C68.0651 171.16 67.8664 171.139 67.6639 171.125C67.4555 171.11 67.2414 171.112 67.0331 171.106C66.8344 171.102 66.6357 171.092 66.437 171.083C66.221 171.075 66.0088 171.058 65.7928 171.061C65.5343 171.067 65.2777 171.081 65.0193 171.094C64.7878 171.106 64.5621 171.1 64.3326 171.083C63.9526 171.036 63.5764 170.976 63.2022 170.915C62.9592 170.876 62.7161 170.847 62.4692 170.82C62.3072 170.803 62.1432 170.787 61.9812 170.783C61.9445 170.783 61.906 170.783 61.8693 170.783C61.7555 170.783 61.6436 170.787 61.5298 170.791C61.2366 170.775 60.9318 170.886 60.6386 170.917C60.6001 170.917 60.5615 170.915 60.5248 170.911C60.4592 170.907 60.3956 170.899 60.3319 170.893C60.2355 170.886 60.141 170.893 60.0445 170.901C59.9461 170.907 59.8478 170.915 59.7494 170.922C59.516 170.934 59.2807 170.942 59.0511 170.965C58.8196 170.988 58.5901 171.023 58.3606 171.052C58.1484 171.077 57.9323 171.096 57.7182 171.114C57.481 171.133 57.2456 171.156 57.0084 171.175C56.8078 171.183 56.6129 171.181 56.4104 171.17C56.2136 171.16 56.0169 171.147 55.8201 171.139C55.3958 171.121 54.9733 171.114 54.549 171.112C54.113 171.112 53.6752 171.193 53.2373 171.185C52.9557 171.181 52.676 171.135 52.3963 171.141C52.0047 171.112 51.669 171.168 51.2042 171.158C50.9997 171.152 50.8203 171.177 50.8203 171.245C50.8203 171.311 50.9939 171.33 51.2042 171.328C51.8041 171.324 52.0838 171.442 52.6451 171.45C52.9113 171.454 53.2103 171.467 53.6906 171.467C53.9761 171.467 54.2596 171.525 54.547 171.525C54.9405 171.523 55.0042 171.516 55.1527 171.539C55.3803 171.574 55.5385 171.628 55.7372 171.635C55.9629 171.645 56.1924 171.645 56.4181 171.635C56.8463 171.614 57.2823 171.601 57.7086 171.647C57.9015 171.668 58.0963 171.686 58.2911 171.682C58.5052 171.678 58.7155 171.705 58.9296 171.705C59.1456 171.705 59.354 171.713 59.5681 171.678C59.7552 171.647 59.9461 171.666 60.1313 171.639C60.2143 171.628 60.2991 171.62 60.3821 171.614C60.3879 171.614 60.3917 171.616 60.3975 171.618C60.5364 171.647 60.6869 171.659 60.8315 171.67C60.926 171.68 61.0244 171.688 61.1209 171.691C61.3157 171.701 61.3832 171.691 61.5626 171.672C61.6205 171.664 61.8712 171.647 61.9291 171.641C62.0236 171.632 62.1181 171.657 62.2204 171.645C62.4036 171.624 62.583 171.57 62.7663 171.543C62.8608 171.539 62.9553 171.539 63.0517 171.539C63.2003 171.541 63.3488 171.554 63.4973 171.562C63.8137 171.579 64.1281 171.604 64.4444 171.616C64.7492 171.628 65.054 171.606 65.3568 171.583C65.6404 171.562 65.9278 171.564 66.2133 171.547C66.4814 171.533 66.7495 171.525 67.0196 171.533C67.172 171.537 67.3244 171.492 67.4767 171.498C67.6041 171.504 67.7314 171.498 67.8606 171.498C68.1422 171.5 68.4065 171.448 68.6881 171.458C68.8386 171.461 68.989 171.473 69.1356 171.458C69.261 171.446 69.4076 171.365 69.5311 171.357C69.7471 171.349 69.9612 171.347 70.1792 171.347C70.4222 171.347 70.6132 171.32 70.8524 171.32C70.945 171.32 71.0511 171.299 71.053 171.247C71.0549 171.177 70.9797 171.17 70.8524 171.17V171.166Z" fill="#063844"/>
<path d="M161.75 166.189C161.75 161.756 161.823 157.331 161.835 152.878C161.846 148.666 161.756 144.65 161.75 140.433C161.761 138.288 161.79 133.299 161.802 131.154C161.802 129.138 161.79 125.587 161.81 123.594C161.843 119.72 161.704 119.944 161.734 116.069C161.771 112.856 161.81 109.659 161.846 106.452C160.938 106.442 160.027 106.432 159.115 106.423C155.064 106.376 150.948 106.382 146.891 106.367C143.037 106.343 139.204 106.322 135.352 106.299C131.188 106.274 127.054 106.222 122.88 106.235C117.893 106.254 112.903 106.291 107.911 106.332C103.432 106.369 99.0631 106.349 94.613 106.295C87.2599 106.156 79.9916 105.974 72.7407 105.791C68.0418 105.673 63.3178 105.586 58.536 105.507C55.4091 105.454 52.2437 105.41 49.0745 105.396H46.8967C44.6996 105.402 42.5103 105.412 40.3248 105.42C39.8715 105.42 39.4182 105.416 38.963 105.416C38.1123 105.418 37.2578 105.42 36.3975 105.422C36.4013 106.026 36.4052 106.633 36.409 107.24L36.4168 108.144L36.4245 108.606C36.438 109.219 36.4515 109.833 36.465 110.448C36.5016 111.677 36.5363 112.91 36.573 114.141C36.6521 116.603 36.7331 119.057 36.7736 121.47C36.7678 122.209 36.762 122.949 36.7582 123.693C36.7408 124.947 36.7235 126.182 36.7061 127.417C36.681 129.297 36.7099 131.133 36.7273 132.986C36.7485 134.895 36.7678 136.806 36.789 138.717C36.8218 143.245 36.8488 147.792 36.9183 152.272C37.0051 156.761 37.09 161.199 37.1768 165.673C37.252 169.793 37.3079 173.965 37.36 178.135C37.3754 179.5 37.3928 180.86 37.4082 182.211C40.8591 182.166 44.2926 182.122 47.7493 182.077C51.6303 182.054 55.4149 182.062 59.3114 182.093C63.1249 182.124 66.9365 182.155 70.7327 182.186C78.9519 182.24 87.1229 182.263 95.3325 182.267C103.783 182.271 112.242 182.023 120.708 182.046C126.155 182.06 131.558 182.199 136.975 182.178C144.544 182.263 151.035 182.095 160.035 182.128C160.629 182.128 161.214 182.128 161.781 182.128C161.779 181.639 161.777 181.161 161.775 180.702C161.771 180.303 161.765 179.919 161.761 179.554C161.75 178.843 161.734 178.203 161.713 177.668C161.671 176.595 161.609 175.936 161.52 175.932C161.434 175.93 161.374 176.574 161.335 177.639C161.316 178.17 161.3 178.808 161.291 179.523C161.285 180.16 161.279 180.866 161.272 181.617C160.872 181.617 160.458 181.617 160.035 181.617C148.415 181.631 143.02 181.277 132.137 181.254C126.971 181.245 121.209 181.2 111.889 181.2C106.358 181.2 100.865 181.024 95.3074 181.028C87.6765 181.034 86.4536 181.055 83.5814 180.989C79.193 180.887 76.1202 180.721 72.2797 180.698C67.9203 180.671 63.4625 180.667 59.1069 180.702C55.5615 180.731 51.993 180.754 48.4244 180.759C46.6402 180.759 44.8559 180.758 43.0755 180.756C42.1843 180.752 41.2951 180.746 40.4077 180.742C39.9757 180.738 39.5455 180.734 39.1153 180.732L38.9032 180.719L38.9128 180.568L38.9186 180.499L38.9244 180.052C38.934 179.447 38.9417 178.846 38.9514 178.245C39.0131 174.508 39.0652 170.726 39.0536 166.964C39.042 162.809 39.1211 158.734 39.1211 154.587C39.1211 150.403 39.1443 146.347 39.0401 142.186C38.9495 138.561 39.0073 134.87 38.9244 131.264C38.8877 129.647 38.8646 128.019 38.8511 126.389C38.8549 126.29 38.8588 126.195 38.8607 126.097C38.9495 123.397 38.9803 120.502 39.0189 117.681C39.0401 115.837 39.0633 113.957 39.0845 112.075C39.0883 110.908 39.0922 109.976 39.0961 109.138C39.0961 108.929 39.0961 108.724 39.0961 108.525C39.0961 108.425 39.0961 108.326 39.0961 108.228V108.154C39.0961 108.142 39.0961 108.15 39.0961 108.146V108.142L39.0845 108.108C39.0845 108.108 39.0922 108.102 39.0999 108.098L39.1115 108.092L39.1192 108.088C39.1192 108.088 39.1173 108.088 39.1288 108.088H39.2272C39.7596 108.077 40.3402 108.067 40.9961 108.054C42.1226 108.038 46.9835 107.976 48.0907 107.961C49.9232 107.934 51.7403 108.009 53.7348 107.972C57.2821 107.907 60.7697 107.746 64.3151 107.667C66.1514 107.663 67.9839 107.661 69.8454 107.657C72.7233 107.665 75.6129 107.702 78.4677 107.725C84.5844 107.779 90.6953 107.835 96.8139 107.889C102.711 107.926 108.631 107.86 114.458 107.793C119.965 107.729 125.499 107.733 131.022 107.683C136.197 107.644 141.419 107.617 146.629 107.64C149.578 107.654 152.531 107.516 155.481 107.534C156.488 107.536 157.497 107.54 158.504 107.541L160.766 107.538V108.148C160.76 113.594 160.915 118.744 160.89 124.191C160.878 127.109 160.843 130.016 160.888 132.872C160.924 135.289 161.167 138.132 161.191 140.555C161.2 144.751 161.212 148.911 161.221 153.122C161.221 157.818 161.304 161.528 161.304 166.191C161.304 167.994 161.37 170.036 161.524 170.069C161.733 170.114 161.756 168.653 161.756 166.191L161.75 166.189Z" fill="#063844"/>
<path d="M146.755 61.2123H137.706L161.694 41.8184H170.743L146.755 61.2123Z" fill="#BADFD8"/>
<path d="M130.146 61.396C130.922 61.4114 131.695 61.4733 132.473 61.4965C133.21 61.5177 133.946 61.5351 134.683 61.5448C135.059 61.5486 135.846 61.6395 136.223 61.6472C136.576 61.653 137.197 61.6588 137.544 61.6762C138.221 61.711 138.229 61.7689 138.906 61.8037C139.589 61.8385 140.268 61.8945 140.952 61.937C141.66 61.9815 142.382 61.9912 143.094 62.0143C143.769 62.0356 144.44 62.0665 145.113 62.0974C145.842 62.1284 146.566 62.1767 147.297 62.1805C148.171 62.1844 149.044 62.1767 149.92 62.1651C150.705 62.1554 151.471 62.1825 152.25 62.2327C152.675 62.2752 153.099 62.3158 153.519 62.3564C153.73 62.3796 153.94 62.4008 154.15 62.424L154.306 62.4414L154.414 62.4511L154.544 62.4607L155.072 62.4994C155.348 62.2984 155.718 62.024 155.846 61.9448C156.027 61.823 156.206 61.7032 156.388 61.5815C157.075 61.1196 157.754 60.6404 158.434 60.1515C158.88 59.8307 159.329 59.5022 159.765 59.1563L160.062 58.9167C160.651 58.4297 161.224 57.933 161.8 57.4403C162.472 56.8644 163.139 56.2885 163.783 55.6972C164.767 54.787 165.741 53.8846 166.723 52.9725C167.19 52.5493 167.653 52.128 168.122 51.7029C168.494 51.384 168.868 51.0652 169.242 50.7444C169.779 50.2903 170.301 49.8265 170.824 49.3608C171.634 48.6342 172.437 47.9114 173.247 47.1829C173.604 46.8795 173.962 46.58 174.329 46.2824C174.728 45.9577 175.112 45.6176 175.496 45.2756L176.264 44.6128L176.651 44.2843L177.149 43.8707C177.832 43.3045 178.519 42.748 179.232 42.174C179.551 41.9209 179.867 41.6658 180.183 41.4146C179.431 41.4069 178.679 41.3972 177.926 41.3895L176.765 41.3663L175.604 41.3334C174.921 41.3025 174.25 41.2813 173.557 41.2813C172.884 41.2832 172.211 41.3006 171.54 41.3102C170.814 41.3199 170.083 41.3373 169.356 41.3354C168.64 41.3354 167.931 41.3199 167.213 41.2967C166.864 41.2716 166.517 41.2465 166.168 41.2156C165.791 41.1788 165.417 41.1441 165.041 41.1093C164.044 41.0204 163.035 40.9643 162.015 40.9315C161.181 40.9064 160.334 40.9006 159.501 40.9064C158.608 40.9122 157.736 40.9663 156.855 41.0088C156.523 41.0146 156.195 41.0146 155.861 41.003C155.641 40.9933 155.425 40.9817 155.209 40.9721L155.061 40.9682H154.825C154.648 40.9721 154.472 40.974 154.297 40.9779C154.112 41.1247 153.93 41.2716 153.749 41.4165L152.97 42.0658C152.354 42.5644 151.733 43.063 151.139 43.577C150.545 44.0929 149.968 44.6186 149.382 45.1403C148.84 45.6196 148.282 46.0911 147.725 46.5645C147.11 47.0863 146.502 47.6042 145.887 48.1259C145.356 48.5511 144.826 48.9511 144.27 49.3511C143.726 49.7415 143.184 50.1318 142.642 50.5183C141.475 51.3647 140.329 52.2246 139.185 53.0981C138.007 53.9967 136.931 55.0286 135.742 55.9194C134.978 56.4934 134.24 57.0866 133.495 57.676C132.407 58.4374 131.666 59.3437 130.399 60.2848C129.844 60.6984 129.39 61.1061 129.471 61.2124C129.55 61.3167 130.042 60.9902 130.606 60.5554C132.218 59.3089 133.017 58.7968 134.541 57.649C135.264 57.104 136.014 56.4219 137.312 55.4286C138.082 54.8392 138.919 54.3464 139.691 53.7513C140.75 52.9338 140.912 52.7928 141.338 52.5222C141.99 52.1087 142.486 51.8691 143.03 51.4729C143.647 51.0227 144.27 50.5492 144.862 50.0661C145.991 49.1463 147.148 48.2284 148.354 47.4206C148.898 47.0554 149.444 46.6805 149.962 46.2747C150.535 45.8263 151.133 45.4341 151.71 44.9935C152.291 44.549 152.864 44.1277 153.4 43.6311C153.633 43.4147 153.884 43.2156 154.135 43.0166C154.374 42.8272 154.683 42.5856 154.764 42.489L154.8 42.4523C154.87 42.4407 154.945 42.433 155.022 42.4253L155.4 42.4079L155.45 42.4137C155.923 42.4697 156.43 42.489 156.922 42.5122C157.244 42.5277 157.574 42.5431 157.902 42.5509C158.616 42.5683 159.328 42.5412 160.037 42.5141C160.738 42.4948 161.44 42.4755 162.138 42.4542C162.414 42.4484 162.69 42.4426 162.966 42.4369L163.108 42.4581C164.104 42.6127 165.172 42.5393 166.187 42.5373C166.268 42.5373 166.341 42.5277 166.405 42.5084C167.934 42.4929 169.462 42.5006 170.996 42.518C171.881 42.5277 172.763 42.5586 173.646 42.5856L174.948 42.6224L175.598 42.6417C175.739 42.6456 175.731 42.6494 175.774 42.6533L175.87 42.6668C176.127 42.7286 176.237 42.7944 176.156 42.8678L176.121 42.8852C175.936 42.976 175.853 43.0089 175.799 43.0282C175.772 43.0378 175.754 43.0417 175.739 43.0436C175.731 43.0436 175.725 43.0436 175.722 43.0436H175.718L175.629 43.1113L175.45 43.2504C174.503 43.9809 173.636 44.8157 172.772 45.6118C172.415 45.9442 172.062 46.2747 171.711 46.6012C171.229 46.9916 170.704 47.3723 170.27 47.8129C169.79 48.2979 169.385 48.839 168.878 49.3028C168.394 49.7434 167.867 50.1395 167.398 50.5937C166.968 51.0111 166.499 51.4575 166.031 51.8401L165.238 52.4604C164.987 52.6633 164.779 52.8933 164.538 53.1039C164.2 53.4111 163.864 53.7145 163.529 54.0199C162.786 54.5706 162.042 55.1175 161.31 55.6895C160.639 56.2151 159.978 56.7774 159.349 57.3436C158.874 57.7746 158.405 58.2017 157.933 58.6326C157.591 58.9321 157.25 59.2316 156.911 59.5312C156.608 59.792 156.305 60.0452 155.99 60.2983C155.794 60.4568 155.593 60.6114 155.392 60.7641C155.202 60.909 155.012 61.052 154.823 61.195L154.658 61.3167L154.065 61.28L153.338 61.2394L151.882 61.166C150.85 61.1216 149.812 61.1467 148.79 61.1718C147.823 61.1969 146.855 61.1757 145.887 61.1911C144.98 61.2008 144.064 61.2008 143.151 61.1679C142.634 61.1486 142.116 61.2317 141.599 61.2105C141.167 61.1911 140.733 61.1931 140.298 61.1834C139.346 61.1621 138.398 61.0945 137.446 61.0597C136.934 61.0423 136.427 61.0095 135.928 61.0288C135.505 61.0462 135.054 61.0964 134.629 61.1022C133.896 61.1022 133.167 61.0945 132.432 61.081C131.611 61.0674 130.96 61.108 130.146 61.0945C129.832 61.0887 129.473 61.108 129.466 61.2105C129.456 61.3496 129.711 61.3863 130.141 61.394L130.146 61.396Z" fill="#063844"/>
<path d="M154.792 102.526V106.074H129.471V61.2129H154.792V99.021" fill="#F7F4F2"/>
<path d="M77.3179 80.2699C80.7781 80.2699 83.5832 77.4598 83.5832 73.9933C83.5832 70.5269 80.7781 67.7168 77.3179 67.7168C73.8578 67.7168 71.0527 70.5269 71.0527 73.9933C71.0527 77.4598 73.8578 80.2699 77.3179 80.2699Z" fill="#BADFD8"/>
<path d="M83.5984 73.9932C83.3553 73.9932 83.3804 74.2193 83.363 74.5961C83.2145 76.1363 82.414 77.5682 81.2335 78.4958C80.0607 79.4349 78.5252 79.8543 77.0766 79.6591C76.3899 79.5702 75.736 79.4523 75.0975 79.2456C74.4648 79.033 73.8514 78.7257 73.3306 78.2909C72.8194 77.8619 72.4317 77.3595 72.1404 76.8049C71.8627 76.2426 71.6775 75.628 71.6023 74.942C71.5155 74.1207 71.6003 73.2685 71.8395 72.4666C72.0768 71.6627 72.4664 70.909 72.9718 70.2423C73.5158 69.5215 74.27 69.0906 75.0416 68.8607C75.8189 68.6268 76.6137 68.5805 77.472 68.5998C78.1838 68.6114 78.9149 68.6906 79.6421 68.9148C80.3655 69.137 81.0772 69.51 81.6559 70.0414C82.6088 70.8974 83.2203 72.082 83.363 73.3903C83.3785 73.6917 83.3823 73.9913 83.5675 73.9932C83.8105 73.9932 83.7623 73.7516 83.7411 73.3536C83.6312 72.2888 83.3341 71.2511 82.794 70.3216C82.2423 69.4075 81.4302 68.6094 80.4175 68.1592C79.5476 67.7824 78.7162 67.5215 77.8578 67.4152C77.0052 67.3128 76.1198 67.3765 75.2923 67.736C75.1708 67.794 75.0512 67.8442 74.9335 67.8886C74.8737 67.9099 74.8159 67.9312 74.758 67.9524C74.7021 67.9756 74.6442 68.0007 74.5883 68.0239C74.3626 68.1128 74.1369 68.1824 73.9228 68.2809L73.5929 68.4162C73.4868 68.4684 73.3827 68.5263 73.2747 68.5843C73.1705 68.6442 73.0586 68.7022 72.9564 68.7756C72.8561 68.851 72.7558 68.9302 72.6574 69.0153C72.5995 69.0655 72.5417 69.1138 72.4876 69.166C72.4375 69.222 72.3873 69.2761 72.3372 69.3322C72.2407 69.4443 72.1443 69.5544 72.0556 69.6665C71.9765 69.7863 71.8974 69.9061 71.8183 70.0259L71.7045 70.2056L71.6061 70.395C71.5405 70.5206 71.4749 70.6443 71.4074 70.7699C71.3496 70.8994 71.2917 71.0308 71.2319 71.1641C71.201 71.2298 71.1702 71.2955 71.1374 71.3612C71.1104 71.4289 71.0834 71.4984 71.0544 71.568C70.9985 71.7071 70.9368 71.8482 70.8712 71.9912C70.5471 72.7796 70.524 73.6106 70.6397 74.3894C70.7574 75.1739 71.0101 75.914 71.3129 76.6812C71.5945 77.3982 71.9726 78.0706 72.451 78.6716C72.9274 79.2726 73.5023 79.806 74.1658 80.2253C75.4794 81.0814 77.2058 81.3828 78.7818 80.9152C79.4859 80.6968 80.1938 80.4185 80.8438 80.0205C81.002 79.9142 81.1698 79.8234 81.3145 79.6997C81.4611 79.5799 81.6096 79.4601 81.7485 79.3325C81.8797 79.1953 82.0089 79.0581 82.1304 78.917C82.25 78.774 82.3484 78.6137 82.4487 78.4591C82.7689 77.9199 83.0313 77.3788 83.2203 76.8107C83.3302 76.5344 83.3939 76.2387 83.4768 75.9527C83.5116 75.8058 83.5347 75.657 83.5656 75.5082C83.581 75.4348 83.5964 75.3594 83.6099 75.2841C83.6177 75.2087 83.6273 75.1314 83.635 75.0541C83.6717 74.913 83.7083 74.772 83.7411 74.627C83.7585 74.3063 83.7835 73.9855 83.5984 73.9874V73.9932Z" fill="#063844"/>
<path d="M129.556 105.807C129.556 105.502 129.581 105.196 129.585 104.891C129.588 104.601 129.59 104.311 129.588 104.021C129.588 103.874 129.625 103.563 129.625 103.415C129.625 103.275 129.621 103.032 129.627 102.895C129.639 102.628 129.667 102.624 129.677 102.358C129.689 102.089 129.71 101.82 129.723 101.552C129.739 101.272 129.737 100.989 129.743 100.709C129.747 100.442 129.756 100.18 129.766 99.913C129.774 99.6251 129.791 99.341 129.787 99.0531C129.781 98.7091 129.768 98.3651 129.754 98.0212C129.743 97.712 129.749 97.4105 129.766 97.1052C129.812 96.5989 129.872 96.0964 129.934 95.5979C129.972 95.2732 130.001 94.9486 130.028 94.6181C130.046 94.4017 130.061 94.1833 130.065 93.965C130.065 93.9147 130.065 93.8645 130.065 93.8142C130.063 93.5147 130.051 93.2152 130.044 92.9176C130.034 92.5698 130.022 92.2239 129.997 91.8799C129.959 91.3543 129.912 90.8325 129.874 90.3069C129.857 90.0595 129.841 89.8141 129.826 89.5648C129.82 89.3716 129.814 89.1783 129.81 88.9851C129.804 88.7088 129.791 88.4343 129.776 88.1599C129.754 87.7329 129.722 87.3077 129.7 86.8807C129.696 86.6971 129.695 86.5135 129.695 86.328C129.695 86.1251 129.685 85.9241 129.675 85.7231C129.654 85.1917 129.648 84.6584 129.658 84.1231C129.669 83.5492 129.681 82.9771 129.718 82.4071C129.735 82.1385 129.749 81.8737 129.749 81.6013C129.749 81.3365 129.743 81.0718 129.739 80.807C129.735 80.521 129.729 80.2331 129.733 79.9471C129.735 79.665 129.745 79.3867 129.758 79.1046C129.772 78.9673 129.785 78.8301 129.803 78.6929C129.822 78.5441 129.841 78.3973 129.858 78.2504C129.905 77.8581 129.936 77.462 129.955 77.06C129.97 76.7315 129.974 76.3991 129.974 76.0706C129.974 75.7189 129.949 75.375 129.93 75.029C129.928 74.8976 129.93 74.7701 129.936 74.6387C129.939 74.5517 129.947 74.4667 129.953 74.3817C129.961 74.2522 129.953 74.1266 129.945 73.9991C129.939 73.8677 129.932 73.7362 129.924 73.6048C129.912 73.2937 129.905 72.9807 129.882 72.6715C129.858 72.3623 129.824 72.057 129.795 71.7497C129.77 71.4656 129.75 71.1796 129.733 70.8917C129.714 70.5748 129.691 70.2617 129.671 69.9448C129.664 69.6781 129.666 69.4153 129.677 69.1467C129.687 68.8839 129.7 68.6211 129.708 68.3583C129.725 67.7921 129.733 67.2278 129.735 66.6616C129.735 66.078 129.654 65.4963 129.662 64.9128C129.666 64.5379 129.654 64.1649 129.648 63.7919C129.677 63.2702 129.542 62.8219 129.554 62.2015C129.559 61.9291 129.534 61.6914 129.467 61.6895C129.401 61.6895 129.382 61.9213 129.384 62.2015C129.388 63.0035 129.349 63.3745 129.342 64.1243C129.338 64.4799 129.38 64.878 129.38 65.5195C129.38 65.9002 129.322 66.279 129.322 66.6635C129.324 67.1892 129.332 67.2742 129.309 67.4713C129.274 67.7747 129.22 67.9853 129.212 68.2501C129.203 68.5515 129.203 68.8588 129.212 69.1583C129.233 69.7303 129.247 70.312 129.201 70.8801C129.179 71.1371 129.162 71.398 129.166 71.6569C129.17 71.943 129.143 72.2232 129.143 72.5092C129.143 72.7971 129.135 73.0754 129.17 73.3633C129.201 73.6126 129.181 73.8677 129.208 74.115C129.22 74.2271 129.228 74.3392 129.233 74.4512C129.233 74.457 129.232 74.4648 129.23 74.4706C129.201 74.6561 129.189 74.8551 129.178 75.0503C129.17 75.1778 129.16 75.3073 129.156 75.4368C129.147 75.717 129.156 75.9972 129.168 76.2774C129.179 76.5518 129.185 76.8281 129.191 77.1045C129.193 77.2127 129.197 77.3209 129.199 77.4311C129.195 77.4504 129.191 77.4678 129.187 77.4871C129.108 77.8775 129.141 78.2987 129.139 78.6987C129.139 78.7316 129.145 78.7586 129.152 78.7838C129.156 79.3867 129.149 79.9857 129.135 80.5906C129.127 80.9384 129.11 81.2863 129.095 81.6341C129.079 81.9761 129.068 82.3163 129.048 82.6564C129.016 83.0429 128.981 83.4274 128.942 83.812C128.896 84.2796 128.888 84.755 128.871 85.2284C128.853 85.698 128.902 86.1695 128.936 86.6314C128.95 86.8227 128.965 87.0121 128.983 87.2015C128.983 87.4449 128.963 87.7 128.994 87.9416C129.031 88.2083 129.112 88.4653 129.129 88.7358C129.147 88.9928 129.133 89.2518 129.16 89.5068C129.185 89.7426 129.21 89.9958 129.208 90.2334C129.208 90.3648 129.199 90.4963 129.197 90.6296C129.197 90.7571 129.218 90.8769 129.224 91.0026C129.232 91.1823 129.251 91.3601 129.259 91.5378C129.237 91.9011 129.212 92.2644 129.203 92.6277C129.193 92.964 129.203 93.3041 129.222 93.6365C129.237 93.8877 129.259 94.137 129.272 94.3882C129.28 94.566 129.287 94.7457 129.295 94.9235C129.301 95.08 129.301 95.2365 129.301 95.395C129.299 95.594 129.286 95.7931 129.278 95.9902C129.26 96.4114 129.235 96.8327 129.224 97.2559C129.212 97.6617 129.233 98.0714 129.257 98.4733C129.278 98.8521 129.276 99.2347 129.293 99.6154C129.307 99.9729 129.314 100.332 129.307 100.692C129.303 100.895 129.347 101.1 129.342 101.302C129.336 101.472 129.342 101.643 129.342 101.815C129.34 102.189 129.314 102.562 129.307 102.937C129.303 103.138 129.291 103.337 129.307 103.534C129.318 103.701 129.349 103.878 129.357 104.045C129.365 104.332 129.367 104.62 129.367 104.91C129.367 105.233 129.394 105.488 129.394 105.809C129.394 105.933 129.407 106.074 129.457 106.076C129.527 106.079 129.542 105.979 129.542 105.809L129.556 105.807Z" fill="#063844"/>
<path d="M146.755 62.3145H137.706V76.0173H146.755V62.3145Z" fill="#BADFD8"/>
<path d="M71.0527 88.6131C71.0527 88.8566 71.1415 88.8199 71.2881 88.8199C72.4898 88.8199 73.6607 88.9725 74.8759 89.2276C75.4527 89.3493 76.0024 89.1078 76.5483 89.0324C77.0865 88.959 77.5456 89.0189 78.1069 89.0962C78.7801 89.189 79.4938 89.2759 80.1805 89.1561C80.9193 89.0286 81.5288 89.5194 82.285 89.5059C82.91 89.4943 83.56 89.1716 84.1908 89.0266C84.7039 88.9088 85.1919 88.8199 85.705 88.8199C85.8227 88.8199 85.9403 88.8295 85.9403 88.644C85.9403 88.4005 85.8516 88.4372 85.705 88.4372C84.918 88.4372 84.1676 88.128 83.3768 88.2962C82.6958 88.4411 82.1191 88.1551 81.4748 88.3252C81.0871 88.4276 80.7958 88.1049 80.4332 88.072C80.0069 88.0314 79.65 88.2595 79.2083 88.1416C78.6181 87.9851 78.0972 88.3754 77.5012 88.3097C76.394 88.1841 75.3755 87.5348 74.2799 87.8266C73.788 87.958 73.2556 87.8343 72.7483 88.0875C72.3181 88.302 71.9015 88.4334 71.4482 88.4798C71.3942 88.4643 71.3421 88.4527 71.2881 88.4372C71.1704 88.4372 71.0527 88.4276 71.0527 88.6131Z" fill="#063844"/>
<path d="M91.0848 94.3494C90.8553 94.3494 90.6277 94.3243 90.3981 94.3204C90.1801 94.3166 89.9738 94.3475 89.7558 94.3494C89.6458 94.3494 89.3874 94.332 89.2774 94.332C89.1732 94.332 88.99 94.3359 88.8878 94.3301C88.6871 94.3185 88.6987 94.3649 88.5 94.3552C88.2975 94.3436 88.0988 94.3224 87.8963 94.3088C87.688 94.2934 87.4738 94.2953 87.2655 94.2895C87.0668 94.2857 86.8682 94.276 86.6695 94.2663C86.4534 94.2586 86.2412 94.2412 86.0252 94.2451C85.7667 94.2509 85.5102 94.2644 85.2517 94.2779C85.0202 94.2895 84.7945 94.2837 84.565 94.2663C84.185 94.2199 83.8088 94.16 83.4346 94.0982C83.1916 94.0596 82.9485 94.0306 82.7016 94.0035C82.5396 93.9861 82.3756 93.9707 82.2136 93.9668C82.177 93.9668 82.1384 93.9668 82.1017 93.9668C81.9879 93.9668 81.876 93.9707 81.7622 93.9745C81.469 93.9591 81.1643 94.0692 80.8711 94.1001C80.8325 94.1001 80.7939 94.0982 80.7573 94.0943C80.6917 94.0905 80.628 94.0827 80.5644 94.0769C80.4679 94.0692 80.3734 94.0769 80.2769 94.0847C80.1786 94.0905 80.0802 94.0982 79.9818 94.1059C79.7484 94.1175 79.5131 94.1253 79.2835 94.1484C79.0521 94.1716 78.8225 94.2064 78.593 94.2354C78.3808 94.2605 78.1648 94.2798 77.9506 94.2972C77.7134 94.3166 77.478 94.3398 77.2408 94.3591C77.0402 94.3668 76.8454 94.3649 76.6428 94.3533C76.4461 94.3436 76.2493 94.3301 76.0526 94.3224C75.6282 94.305 75.2058 94.2972 74.7814 94.2953C74.3454 94.2953 73.9076 94.3765 73.4697 94.3687C73.1881 94.3649 72.9084 94.3185 72.6287 94.3243C72.2371 94.2953 71.9015 94.3514 71.4366 94.3417C71.2321 94.3359 71.0527 94.361 71.0527 94.4286C71.0527 94.4943 71.2263 94.5137 71.4366 94.5117C72.0365 94.5079 72.3162 94.6258 72.8775 94.6335C73.1437 94.6374 73.4427 94.6509 73.923 94.6509C74.2085 94.6509 74.492 94.7089 74.7795 94.7089C75.173 94.7069 75.2366 94.6992 75.3851 94.7224C75.6128 94.7572 75.7709 94.8113 75.9696 94.819C76.1953 94.8287 76.4248 94.8287 76.6505 94.819C77.0788 94.7977 77.5147 94.7842 77.941 94.8306C78.1339 94.8519 78.3287 94.8692 78.5235 94.8654C78.7376 94.8615 78.9479 94.8886 79.162 94.8886C79.3781 94.8886 79.5864 94.8963 79.8005 94.8615C79.9876 94.8306 80.1786 94.8499 80.3637 94.8229C80.4467 94.8113 80.5316 94.8035 80.6145 94.7977C80.6203 94.7977 80.6242 94.7997 80.6299 94.8016C80.7688 94.8306 80.9193 94.8422 81.064 94.8538C81.1585 94.8634 81.2568 94.8712 81.3533 94.875C81.5481 94.8847 81.6156 94.875 81.795 94.8557C81.8529 94.848 82.1037 94.8306 82.1615 94.8248C82.256 94.8151 82.3506 94.8403 82.4528 94.8287C82.636 94.8074 82.8154 94.7533 82.9987 94.7262C83.0932 94.7224 83.1877 94.7224 83.2842 94.7224C83.4327 94.7243 83.5812 94.7378 83.7298 94.7456C84.0461 94.763 84.3605 94.7881 84.6769 94.7997C84.9816 94.8113 85.2864 94.79 85.5893 94.7668C85.8728 94.7456 86.1602 94.7475 86.4457 94.7301C86.7138 94.7166 86.982 94.7089 87.252 94.7166C87.4044 94.7204 87.5568 94.676 87.7092 94.6818C87.8365 94.6876 87.9638 94.6818 88.093 94.6818C88.3747 94.6837 88.6389 94.6316 88.9205 94.6412C89.071 94.6451 89.2215 94.6567 89.3681 94.6412C89.4934 94.6296 89.64 94.5485 89.7635 94.5407C89.9795 94.533 90.1936 94.5311 90.4116 94.5311C90.6547 94.5311 90.8456 94.504 91.0848 94.504C91.1774 94.504 91.2835 94.4828 91.2854 94.4306C91.2874 94.361 91.2121 94.3533 91.0848 94.3533V94.3494Z" fill="#063844"/>
<path d="M62.4999 81.5371C62.4999 83.371 62.4266 85.2029 62.4131 87.0445C62.4015 88.7876 62.3957 90.5306 62.4034 92.2756C62.4073 93.1626 62.2935 95.0313 62.2915 95.9182C62.2915 96.7511 62.3031 98.2217 62.2838 99.0469C62.251 100.651 62.1642 100.67 62.1314 102.274C62.0948 103.789 62.0581 105.298 62.0215 106.809C62.5056 106.819 62.9917 106.831 63.4778 106.84C64.0025 106.85 64.5291 106.858 65.0576 106.867C65.4801 106.871 65.9025 106.877 66.325 106.881C67.1698 106.887 68.0147 106.893 68.8538 106.896C70.449 106.908 72.0346 106.937 73.6279 106.964C75.3505 106.989 77.0615 107.041 78.7879 107.028C80.8499 107.008 82.9158 106.972 84.9798 106.931C86.8335 106.894 88.6409 106.914 90.4811 106.968C93.5231 107.107 96.5303 107.289 99.5298 107.472C101.474 107.59 103.428 107.677 105.407 107.756C106.702 107.809 108.011 107.853 109.321 107.866H110.222C112.024 107.863 113.814 107.83 115.602 107.805C117.689 107.774 119.768 107.741 121.828 107.666C124.984 107.542 128.111 107.418 131.267 107.294C132.75 107.246 134.226 107.198 135.715 107.15C136.872 107.134 138.03 107.119 139.193 107.103C140.852 107.084 142.495 107.043 144.148 107.001C146.712 106.925 149.26 106.85 151.825 106.775C152.358 106.771 152.888 106.767 153.421 106.761C154.1 106.761 154.779 106.757 155.463 106.755V106.255L155.46 104.997L155.446 103.891C155.433 103.285 155.419 102.678 155.404 102.073C155.338 98.8826 155.325 95.6748 155.353 92.4573C155.386 89.0098 155.421 85.572 155.531 82.14C155.583 80.5225 155.622 78.936 155.625 77.2992C155.627 75.7088 155.606 74.1165 155.598 72.5242C155.589 70.8101 155.569 69.0806 155.579 67.3588C155.587 66.5124 155.596 65.6679 155.604 64.8254C155.622 63.7896 155.637 62.7519 155.654 61.7103C155.664 61.403 155.674 61.0977 155.683 60.7943C154.759 60.7595 153.839 60.7267 152.917 60.6919C152.028 60.6359 151.148 60.5798 150.259 60.5218C147.904 60.3808 145.524 60.288 143.114 60.232C141.149 60.1856 139.15 60.1721 137.179 60.174C135.073 60.1759 133.009 60.2494 130.931 60.3073C130.146 60.3151 129.374 60.3112 128.587 60.29C128.069 60.2726 127.559 60.2552 127.05 60.2378C126.273 60.2127 125.515 60.2416 124.751 60.259C123.962 60.2803 123.173 60.2996 122.384 60.3209C120.515 60.3537 118.636 60.3808 116.786 60.4503C114.932 60.5218 113.098 60.6243 111.252 60.7093C109.551 60.7847 107.828 60.8407 106.106 60.8929C104.204 60.9547 102.323 61.0146 100.423 61.0765C98.818 61.0996 97.2517 61.0919 95.6391 61.061C94.0613 61.0301 92.4834 60.9992 90.9132 60.9682C87.5125 60.9141 84.133 60.8909 80.7361 60.8871C77.2389 60.8832 73.7398 61.1306 70.2388 61.1074C69.1123 61.0996 67.9896 61.1074 66.8689 61.1151C65.644 61.1267 64.4211 61.1383 63.1962 61.148C62.8548 61.1402 62.5153 61.1364 62.197 61.1364C62.197 61.5982 62.1989 62.062 62.2086 62.518C62.2144 62.7461 62.2182 62.9722 62.224 63.1983L62.2337 63.5229L62.2452 63.7819C62.2742 64.4717 62.3147 65.1636 62.3552 65.8728C62.4343 67.2912 62.5114 68.783 62.496 70.4932C62.4806 72.13 62.5539 73.5658 62.7545 73.5677C62.9512 73.5696 63.0091 72.1744 63.0052 70.4932C62.9995 68.6729 63.013 67.2197 63.0342 65.8496C63.0573 64.5935 63.0785 63.4128 63.1017 62.0427C63.3852 62.0485 63.7209 62.0543 64.097 62.0601C64.5272 62.0639 65.0036 62.0678 65.5109 62.0717C67.6482 62.0813 70.0324 61.9538 73.8884 61.9538C76.1761 61.9538 78.4503 62.1296 80.7477 62.1258C83.9054 62.12 84.4107 62.0987 85.599 62.1644C87.4141 62.2668 88.6853 62.433 90.2747 62.4562C92.0783 62.4833 93.9224 62.4871 95.724 62.4523C99.1556 62.3866 102.641 62.3461 106.059 62.4852C107.602 62.547 109.165 62.5992 110.718 62.5876C112.434 62.576 114.116 62.6553 115.829 62.6553C117.558 62.6553 119.232 62.6784 120.951 62.5741C122.448 62.4833 123.971 62.5412 125.461 62.4581C126.128 62.4214 126.801 62.3982 127.474 62.3847C127.515 62.3886 127.554 62.3924 127.594 62.3944C128.709 62.4833 129.905 62.5142 131.07 62.5528C131.832 62.5799 132.607 62.605 133.385 62.6185C135.069 62.6495 136.753 62.6147 138.427 62.5818C140.078 62.5586 141.737 62.5335 143.388 62.5103C144.04 62.5026 144.692 62.4968 145.342 62.4891C145.454 62.5007 145.568 62.5123 145.682 62.5219C148.029 62.7615 150.554 62.6591 152.95 62.6649C153.01 62.6649 153.012 62.6649 153.039 62.663C153.06 62.663 153.079 62.6591 153.1 62.6553C153.141 62.6475 153.18 62.6379 153.22 62.6243H153.853C153.849 63.8997 153.843 65.1771 153.839 66.4564C153.826 68.0467 153.812 69.6371 153.799 71.2314C153.778 73.3262 153.723 75.4093 153.677 77.5002C153.631 79.5525 153.598 81.6047 153.536 83.6492C153.436 85.9701 153.336 88.289 153.22 90.6002C153.081 93.4099 153.058 96.268 153.006 99.1164C152.985 100.282 152.996 101.447 153.025 102.608C153.033 102.898 153.041 103.188 153.05 103.478L153.064 103.913L153.072 104.129L153.075 104.237C153.075 104.251 153.075 104.284 153.077 104.282H153.079C153.1 104.313 153.124 104.361 153.147 104.433C153.124 104.452 153.087 104.471 153.033 104.491L153.008 104.498C153.008 104.498 153.004 104.5 152.99 104.502L152.882 104.506L152.454 104.523C152.169 104.535 151.883 104.547 151.598 104.558C151.029 104.583 150.462 104.606 149.895 104.632C148.43 104.628 146.903 104.572 145.454 104.668C143.851 104.775 142.306 105.02 140.686 105.074C139.146 105.126 137.588 105.086 136.054 105.169C134.644 105.244 133.122 105.32 131.693 105.318C130.902 105.306 130.111 105.296 129.32 105.285C128.558 105.283 127.837 105.35 127.081 105.368C126.008 105.403 124.94 105.439 123.871 105.474C121.691 105.408 119.512 105.335 117.326 105.306C115.312 105.279 113.266 105.302 111.275 105.362C109.767 105.412 108.27 105.463 106.761 105.513C105.691 105.536 104.62 105.559 103.552 105.584C102.61 105.6 101.677 105.604 100.726 105.6C99.5356 105.592 98.3396 105.555 97.1591 105.532C94.6284 105.482 92.1014 105.406 89.5687 105.368C87.1286 105.331 84.6808 105.397 82.2696 105.464C79.9915 105.528 77.7019 105.524 75.4161 105.575C73.2749 105.613 71.1145 105.64 68.9599 105.617C67.7389 105.604 66.5179 105.741 65.2968 105.723L64.6603 105.718H64.126L63.0998 105.721V105.3C63.1056 104.819 63.1094 104.338 63.1152 103.859L63.1441 102.172C63.1634 101.047 63.1827 99.9223 63.2039 98.7956C63.2155 97.5879 63.2502 96.3859 63.2059 95.2032C63.1692 94.2042 63.0805 93.1413 63.0573 92.1384C63.0361 90.4031 63.0284 88.6813 63.0265 86.9402C63.0245 84.9981 62.9435 83.4618 62.9435 81.5332C62.9435 80.7873 62.903 79.9428 62.7506 79.9293C62.5423 79.9119 62.4941 80.5148 62.4941 81.5332L62.4999 81.5371Z" fill="#063844"/>
<path d="M42.0952 42.0085C41.8657 42.0897 41.9313 42.1573 41.9814 42.2887C42.3807 43.3709 42.7125 44.4472 43.0828 45.6048C43.1754 45.8772 43.3432 46.1014 43.5284 46.3043C43.7232 46.5014 43.9354 46.6811 44.111 46.8802C44.4717 47.2628 44.6742 47.659 44.9578 48.1324C45.2857 48.7044 45.6888 49.288 46.2386 49.6899C46.5299 49.9064 46.7073 50.1924 46.8694 50.5035C47.041 50.805 47.2127 51.1199 47.5001 51.3615C47.7432 51.5528 48.0383 51.6939 48.345 51.8079C48.6575 51.9161 48.9719 52.0147 49.2632 52.1325C49.5024 52.2253 49.73 52.32 49.9479 52.4243C50.1698 52.5248 50.3858 52.6292 50.5941 52.7606C50.6906 52.8205 50.7793 52.8881 50.8738 52.7297C50.9973 52.519 50.9086 52.5074 50.7909 52.4359C50.4765 52.2408 50.2103 51.9857 49.9499 51.7306C49.6818 51.4852 49.4194 51.2417 49.0741 51.0852C48.48 50.8088 48.2524 50.2407 47.6969 49.9624C47.3574 49.7943 47.3921 49.3634 47.1761 49.1083C47.0507 48.9556 46.8983 48.8532 46.744 48.745C46.5916 48.6368 46.4411 48.5208 46.3543 48.3256C46.2367 48.0648 46.0187 47.914 45.8046 47.7536C45.5924 47.5932 45.3628 47.4406 45.2201 47.1971C45.0947 46.9691 44.9983 46.7256 44.9134 46.4821C44.8343 46.2347 44.7726 45.9816 44.6974 45.742C44.6202 45.5024 44.5546 45.2608 44.4466 45.0424C44.3366 44.826 44.2113 44.6173 44.028 44.4318C43.8621 44.2656 43.7483 44.0588 43.6345 43.8521C43.5188 43.6453 43.378 43.4501 43.1716 43.2859C42.8166 43.0095 42.5369 42.7003 42.3498 42.3119L42.3363 42.1554C42.2978 42.051 42.2669 41.9447 42.0933 42.0066L42.0952 42.0085Z" fill="#FFD58E"/>
<path d="M61.0107 31.0343C60.7696 31.0633 60.8178 31.1444 60.8352 31.2855C60.9779 32.4488 60.9644 33.5967 60.8564 34.8045C60.8043 35.3784 61.1072 35.8789 61.248 36.3987C61.3849 36.9089 61.3791 37.3611 61.3695 37.9137C61.3579 38.5746 61.356 39.2761 61.5566 39.9254C61.7707 40.625 61.356 41.2723 61.4602 42.0028C61.547 42.6057 61.9424 43.1951 62.1604 43.7864C62.3378 44.2695 62.4825 44.7294 62.5442 45.2241C62.5577 45.3382 62.5616 45.4522 62.7448 45.429C62.986 45.4 62.9377 45.3188 62.9204 45.1778C62.8278 44.4164 63.0458 43.655 62.7853 42.9091C62.5616 42.2695 62.7757 41.6762 62.5307 41.0733C62.3841 40.7119 62.6677 40.3911 62.658 40.0356C62.6465 39.6201 62.3803 39.3012 62.4439 38.8606C62.5288 38.2712 62.0793 37.8152 62.0755 37.2297C62.0678 36.1456 62.5924 35.0808 62.1719 34.0585C61.9829 33.5986 62.0427 33.0691 61.7321 32.6092C61.4679 32.2208 61.2885 31.8343 61.1901 31.3995C61.1997 31.3454 61.2036 31.2932 61.2133 31.2391C61.1997 31.1251 61.1959 31.0111 61.0126 31.0343H61.0107Z" fill="#FFD58E"/>
<path d="M34.148 61.8123C34.065 62.0423 34.1518 62.0326 34.2733 62.0771C35.2725 62.4385 36.1926 62.9312 37.1224 63.5303C37.5641 63.8143 38.1004 63.7506 38.5807 63.8395C39.0533 63.9284 39.4159 64.1197 39.8596 64.3554C40.39 64.6395 40.9552 64.9294 41.5686 65.0183C42.2264 65.1149 42.5697 65.7564 43.2024 65.9671C43.7271 66.1391 44.3733 66.0289 44.9462 66.0811C45.413 66.1236 45.847 66.1874 46.2733 66.34C46.3717 66.3748 46.4643 66.4193 46.5279 66.2453C46.6109 66.0154 46.5241 66.0251 46.4025 65.9806C45.7486 65.7448 45.2297 65.227 44.5141 65.1516C43.8988 65.0859 43.513 64.6453 42.9208 64.6163C42.5639 64.5989 42.4289 64.2105 42.1357 64.0714C41.7943 63.909 41.4201 64.0173 41.0922 63.7796C40.6504 63.4588 40.0872 63.6752 39.6146 63.4375C38.7331 62.995 38.1023 62.0829 37.0954 62.0346C36.6421 62.0133 36.2409 61.737 35.7355 61.8259C35.3053 61.9012 34.9157 61.8993 34.5241 61.8065C34.4836 61.7776 34.445 61.7486 34.4045 61.7177C34.3061 61.6829 34.2135 61.6384 34.1499 61.8123H34.148Z" fill="#FFD58E"/>
</svg>
