<svg width="213" height="212" viewBox="0 0 213 212" fill="none" xmlns="http://www.w3.org/2000/svg">
<path d="M33.0739 137.33C33.7541 137.026 32.4315 134.598 30.9955 130.311C29.5217 125.91 28.4447 121.375 27.8212 116.784C27.1976 112.212 26.952 107.584 27.1976 102.974C27.6133 93.7728 29.7106 84.7047 33.3573 76.3005C37.0418 67.9154 42.2568 60.2132 48.6999 53.6872C55.1242 47.1423 62.7577 41.7735 71.1659 37.9414C75.1716 36.1391 79.234 34.6404 83.3531 33.4642C83.8632 33.3124 84.3734 33.1607 84.9024 33.0089C85.4126 32.8571 85.9417 32.7623 86.4518 32.6295C86.962 32.4967 87.491 32.3829 88.0012 32.2501L88.7759 32.0604L89.5506 31.9086C90.5898 31.7189 91.629 31.4912 92.6682 31.3205C93.7074 31.1687 94.7655 31.017 95.8048 30.8652C99.9994 30.353 104.194 30.1633 108.389 30.2771C109.428 30.334 110.486 30.3909 111.525 30.4478C111.79 30.4478 112.054 30.4858 112.3 30.5237L113.075 30.5996L114.643 30.7703C115.682 30.8652 116.721 31.0549 117.742 31.2067L119.291 31.4533C119.801 31.5482 120.311 31.662 120.822 31.7758C121.332 31.8896 121.823 31.9845 122.314 32.0983C122.56 32.1552 122.805 32.2121 123.051 32.2691C123.297 32.326 123.542 32.4018 123.788 32.4588C124.771 32.7244 125.734 32.9899 126.698 33.2555C127.643 33.5591 128.587 33.8816 129.513 34.1851L130.212 34.4128C130.439 34.4886 130.666 34.5835 130.892 34.6784C131.346 34.8491 131.799 35.0388 132.253 35.2095C135.881 36.6513 139.357 38.3018 142.664 40.3127L143.287 40.6732L143.609 40.8629L143.911 41.0526C144.308 41.3182 144.723 41.5838 145.139 41.8494C145.952 42.3806 146.783 42.8928 147.558 43.4809C147.954 43.7654 148.351 44.05 148.748 44.3346L149.353 44.7709C149.561 44.9227 149.75 45.0554 149.938 45.2072C150.713 45.8143 151.488 46.4403 152.263 47.0664C155.323 49.6274 158.271 52.511 161.086 55.755C164.45 59.6441 167.454 63.9315 170.024 68.5225C172.593 73.1134 174.71 77.989 176.297 83.0542L176.448 83.5285L176.58 84.0027L176.845 84.9703L177.393 86.8863C177.563 87.5313 177.695 88.1763 177.846 88.8214L178.3 90.7564L178.659 92.7104L178.829 93.6969L178.923 94.1901C178.961 94.3609 178.98 94.5126 178.999 94.6834L179.263 96.6563L179.395 97.6428L179.452 98.1361C179.471 98.3068 179.49 98.4586 179.49 98.6293C180.019 103.922 180.019 109.234 179.509 114.47C178.961 120.085 177.714 125.397 175.938 130.349C174.162 135.319 171.838 139.948 169.079 144.292C168.909 144.558 168.739 144.842 168.569 145.108L168.021 145.905C167.662 146.436 167.284 146.967 166.925 147.498L166.66 147.897C166.566 148.03 166.471 148.162 166.377 148.276L165.791 149.054C165.394 149.566 165.017 150.078 164.62 150.591C164.431 150.856 164.204 151.103 164.015 151.349L163.392 152.089C162.976 152.583 162.56 153.095 162.145 153.588C161.71 154.062 161.256 154.556 160.822 155.03C160.595 155.276 160.387 155.523 160.161 155.751C159.934 155.997 159.726 156.244 159.48 156.472C155.815 160.266 151.677 163.813 147.029 167.076C143.174 169.77 139.074 172.18 134.747 174.228C130.42 176.277 125.885 177.947 121.218 179.18C116.551 180.413 111.733 181.21 106.896 181.532C102.059 181.893 97.1841 181.741 92.4037 181.115C84.6001 180.09 77.1367 177.909 70.1645 174.608C63.2112 171.307 56.7303 166.925 50.9862 161.48C49.6636 160.247 48.4165 158.919 47.434 157.97C46.4704 157.003 45.7712 156.415 45.5634 156.585C45.0343 157.041 46.886 159.147 50.2115 162.277C54.6896 166.526 59.5834 170.226 64.7794 173.337C67.3869 174.892 70.07 176.296 72.8286 177.529C75.5873 178.781 78.4215 179.844 81.2935 180.754C87.0564 182.576 93.065 183.714 99.1491 184.112C99.527 184.15 99.9049 184.15 100.302 184.169L101.454 184.226C102.21 184.264 102.985 184.245 103.759 184.264C104.534 184.264 105.29 184.226 106.065 184.207L107.217 184.169L107.803 184.15H108.086L108.37 184.131C109.145 184.074 109.9 183.998 110.675 183.942L111.828 183.847C112.017 183.828 112.205 183.809 112.394 183.771L112.961 183.695C114.492 183.467 116.041 183.297 117.553 182.955C122.805 181.931 127.756 180.508 132.442 178.706C137.128 176.903 141.549 174.722 145.706 172.18C149.863 169.637 153.774 166.716 157.383 163.396C160.992 160.076 164.299 156.358 167.208 152.203C167.643 151.577 168.059 150.951 168.474 150.344C168.682 150.041 168.909 149.737 169.098 149.433C169.287 149.13 169.495 148.826 169.684 148.523C170.08 147.916 170.458 147.328 170.836 146.74C171.044 146.455 171.214 146.151 171.384 145.848C171.554 145.544 171.743 145.26 171.913 144.956C172.272 144.368 172.631 143.78 172.971 143.211C173.292 142.623 173.633 142.035 173.954 141.447C174.275 140.859 174.615 140.289 174.917 139.701C175.22 139.113 175.503 138.525 175.805 137.937L176.259 137.045C176.41 136.742 176.561 136.457 176.694 136.154C176.958 135.547 177.223 134.959 177.506 134.352C177.638 134.048 177.771 133.744 177.903 133.441L178.111 132.986C178.167 132.834 178.224 132.682 178.3 132.53C178.545 131.904 178.772 131.278 179.018 130.652C179.528 129.4 179.906 128.11 180.321 126.782C180.416 126.46 180.529 126.118 180.624 125.777C180.718 125.435 180.794 125.094 180.888 124.752C181.058 124.069 181.228 123.367 181.398 122.665C181.606 121.85 181.757 121.015 181.908 120.199C182.06 119.383 182.211 118.568 182.343 117.771C182.438 116.955 182.532 116.158 182.645 115.343C182.683 114.944 182.74 114.546 182.778 114.148C182.815 113.749 182.834 113.351 182.872 112.952C182.929 112.156 182.967 111.359 183.023 110.581L183.061 109.993V109.405C183.061 109.006 183.061 108.608 183.08 108.229C183.08 107.451 183.099 106.654 183.099 105.876C183.061 105.098 183.023 104.302 183.004 103.524C182.967 101.949 182.797 100.394 182.645 98.8001L182.589 98.212L182.57 97.9084L182.532 97.6049C182.475 97.2065 182.419 96.8081 182.362 96.4097C182.249 95.6129 182.154 94.8162 182.041 94.0194C181.474 90.8323 180.888 87.5503 179.962 84.1735C178.772 79.6394 177.128 75.352 175.106 71.3491C174.577 70.3627 174.067 69.3762 173.538 68.3897C172.971 67.4411 172.385 66.4736 171.819 65.5251C170.628 63.6659 169.4 61.8257 168.04 60.0804C165.376 56.5708 162.409 53.2888 159.178 50.1966C155.947 47.1043 152.414 44.2397 148.578 41.5458C134.35 31.5102 117.477 26.3312 100.566 26.6347C96.3338 26.7295 92.1203 27.1469 87.9445 27.8868C83.7687 28.6835 79.6497 29.8028 75.6251 31.2826C71.6005 32.7433 67.7081 34.6214 63.967 36.8031C60.2447 38.9848 56.6547 41.5079 53.3292 44.3725C50.3438 46.9715 47.4529 49.7792 44.7509 52.7956C44.0896 53.5734 43.4283 54.3322 42.767 55.11L42.5213 55.3946L42.2946 55.6981L41.8222 56.3052C41.501 56.7036 41.1987 57.121 40.8775 57.5193L40.4051 58.1264C40.3295 58.2213 40.254 58.3351 40.1784 58.4299L39.9516 58.7525C39.6493 59.1698 39.3659 59.5872 39.0636 60.0045L38.1755 61.2756C38.0244 61.4843 37.8921 61.6929 37.7409 61.9206L37.3253 62.5656L36.4939 63.8746C36.2294 64.3109 35.927 64.7473 35.6814 65.2026L34.1509 67.8964C33.2062 69.7366 32.2614 71.5768 31.4868 73.4739C29.8807 77.2681 28.5392 81.1571 27.6889 85.1031C27.5944 85.5204 27.4811 85.9378 27.4055 86.3551C27.3299 86.7725 27.2543 87.1899 27.1787 87.6072C27.0276 88.4419 26.8764 89.2767 26.7064 90.1114C26.593 90.9461 26.4796 91.7808 26.3663 92.6345L26.1962 93.8866C26.1584 94.3039 26.1206 94.7213 26.0828 95.1387L25.8561 97.6618C25.7994 98.4965 25.7805 99.3502 25.7427 100.185C25.6294 101.873 25.686 103.562 25.686 105.25C25.7238 108.627 26.0262 112.023 26.4985 115.438C26.9709 118.852 27.6889 122.267 28.6147 125.72C28.7092 126.137 28.8037 126.536 28.9171 126.934L29.2383 128.148L29.5784 129.362L29.7484 129.969L29.9374 130.576C30.0885 131.013 30.2397 131.449 30.3909 131.885C30.542 132.303 30.7121 132.72 30.8632 133.137C30.9388 133.346 31.0144 133.536 31.09 133.726C31.1655 133.915 31.2411 134.105 31.3167 134.295C31.4679 134.655 31.619 134.997 31.7702 135.319C32.337 136.666 32.8283 137.444 33.0739 137.33Z" fill="#FFD58E"/>
<path d="M192.377 68.7883C180.946 65.6771 169.269 63.4385 157.459 63.0022C142.325 62.471 121.389 64.9941 108.673 73.2654C108.673 73.2654 74.8511 99.4833 76.0981 104.188C77.3452 108.912 86.2635 112.402 96.5801 100.925C106.897 89.4476 149.334 115.457 149.334 115.457L156.288 129.021C161.635 129.021 167.606 115.722 184.876 121.546" fill="#BADFD8"/>
<path d="M192.357 68.8258C192.414 68.5982 192.074 68.3895 191.393 68.1808C190.713 67.9532 189.731 67.7065 188.484 67.403C183.382 66.113 178.28 65.0127 173.16 64.159C168.021 63.3053 162.862 62.7172 157.647 62.4516C152.432 62.186 147.217 62.2808 141.965 62.6603C136.731 63.0587 131.459 63.7606 126.206 64.9178C121.218 66.0181 116.457 67.6876 112.073 70.021C111.525 70.3245 110.977 70.6281 110.448 70.9316C109.919 71.2541 109.39 71.5576 108.88 71.9181L108.086 72.4493L107.349 73.0563C106.877 73.4358 106.423 73.8341 105.951 74.2136C104.099 75.7502 102.267 77.2868 100.434 78.8235C96.8249 81.8399 93.4994 84.6476 90.1361 87.5122C88.4544 88.954 86.7917 90.4147 85.0723 91.9324C83.3717 93.469 81.6334 95.0626 79.8951 96.8269C78.9125 97.8134 77.9678 98.8378 77.042 99.9571C76.5885 100.526 76.1539 101.114 75.7382 101.778C75.5304 102.12 75.3414 102.461 75.1903 102.898C75.1525 103.011 75.1147 103.106 75.0769 103.239C75.0391 103.391 75.0202 103.524 75.0013 103.656C74.9635 103.941 74.9824 104.226 75.058 104.491C75.1336 104.738 75.1714 104.871 75.2281 105.041L75.4359 105.535L75.6815 105.99C75.776 106.142 75.8705 106.274 75.965 106.426C76.3617 106.995 76.8341 107.489 77.3632 107.906C77.8922 108.342 78.478 108.665 79.0826 108.949C79.3849 109.101 79.6872 109.196 80.0084 109.31C80.1596 109.367 80.3297 109.405 80.4808 109.443L80.7265 109.499L80.9721 109.556C81.6145 109.708 82.2569 109.746 82.9183 109.765C83.5607 109.765 84.2031 109.727 84.8455 109.632C86.1115 109.443 87.3207 109.063 88.4733 108.57C89.6259 108.077 90.7029 107.47 91.7232 106.787C92.7436 106.104 93.6883 105.326 94.5953 104.529C95.0298 104.112 95.4833 103.713 95.899 103.277C96.1068 103.068 96.3336 102.86 96.5225 102.632L97.1272 101.968L97.4295 101.646L97.694 101.38L97.8263 101.247C97.8641 101.209 97.9207 101.171 97.9585 101.133L98.242 100.887C98.3364 100.811 98.4498 100.735 98.5443 100.659C98.6388 100.583 98.7521 100.507 98.8466 100.45L99.1678 100.261C99.2812 100.204 99.3756 100.128 99.5079 100.071C100.131 99.7484 100.831 99.5208 101.549 99.35C102.248 99.1793 102.985 99.1034 103.721 99.0465C105.195 98.9706 106.65 99.0655 108.105 99.2741C110.996 99.6915 113.792 100.507 116.532 101.456C119.272 102.404 121.993 103.543 124.751 104.757C127.51 105.99 130.306 107.318 133.254 108.722C138.11 111.074 143.079 113.54 147.935 116.196L148.162 116.329L148.257 116.386L148.275 116.405C148.313 116.424 148.351 116.424 148.37 116.462L148.408 116.519C148.408 116.519 148.427 116.557 148.464 116.595L148.521 116.708L148.786 117.164L149.806 118.985C150.486 120.199 151.166 121.413 151.847 122.646C152.527 123.86 153.207 125.075 153.868 126.289C154.208 126.896 154.53 127.503 154.87 128.11L155.191 128.698C155.304 128.926 155.437 129.153 155.569 129.343L155.758 129.647L155.852 129.798L155.909 129.874C155.928 129.874 155.966 129.874 156.003 129.874C156.249 129.855 156.495 129.836 156.74 129.798L157.326 129.703C157.515 129.647 157.704 129.571 157.893 129.514C157.987 129.476 158.082 129.457 158.176 129.419L158.384 129.324C158.516 129.248 158.668 129.191 158.8 129.115C159.064 128.964 159.329 128.812 159.556 128.66C159.801 128.508 160.047 128.338 160.274 128.167C161.2 127.503 162.05 126.801 162.919 126.118C164.638 124.752 166.377 123.5 168.285 122.532C169.23 122.039 170.231 121.641 171.252 121.337C171.762 121.167 172.272 121.053 172.801 120.92C173.065 120.863 173.33 120.825 173.595 120.768C173.727 120.749 173.859 120.711 173.991 120.692L174.388 120.654C175.446 120.503 176.542 120.503 177.619 120.522C178.696 120.597 179.792 120.692 180.869 120.92C181.115 120.977 181.36 121.015 181.606 121.072C181.852 121.129 182.078 121.186 182.324 121.242C182.777 121.356 183.212 121.451 183.59 121.546C184.327 121.736 184.837 121.793 184.894 121.622C184.969 121.394 184.629 121.186 183.968 120.939C183.798 120.882 183.609 120.806 183.401 120.749C183.193 120.692 182.966 120.635 182.721 120.578C182.475 120.522 182.211 120.446 181.927 120.389C181.644 120.332 181.341 120.275 181.02 120.218C179.32 119.896 177.581 119.725 175.843 119.782C174.105 119.839 172.385 120.104 170.741 120.578C169.079 121.053 167.51 121.793 166.018 122.627C164.525 123.481 163.127 124.468 161.766 125.454C161.086 125.947 160.425 126.459 159.745 126.915C159.064 127.37 158.384 127.806 157.685 128.072L157.628 128.091C157.61 128.091 157.591 128.11 157.591 128.11L157.496 128.129L157.326 128.186C157.213 128.205 157.08 128.243 156.967 128.243L156.778 128.262H156.74C156.721 128.262 156.721 128.243 156.721 128.224L156.684 128.148L156.514 127.825C156.155 127.123 155.814 126.422 155.455 125.72C153.925 122.703 152.338 119.668 150.675 116.633C150.505 116.31 150.316 115.969 150.146 115.646L149.976 115.324L149.882 115.153L149.863 115.115C149.863 115.096 149.844 115.096 149.825 115.077L149.749 115.02C149.541 114.906 149.352 114.792 149.145 114.66C148.502 114.299 147.879 113.939 147.255 113.578C146.008 112.876 144.761 112.174 143.552 111.491C141.095 110.144 138.696 108.835 136.296 107.602C133.878 106.369 131.459 105.174 128.965 104.074C126.471 102.973 123.92 101.949 121.237 101.057C118.006 99.995 115.21 99.0275 112.356 98.2307C110.939 97.8323 109.503 97.5098 107.992 97.2632C107.614 97.2063 107.236 97.1494 106.858 97.1115C106.669 97.0925 106.48 97.0735 106.272 97.0545C106.083 97.0356 105.875 97.0356 105.687 97.0166C105.29 96.9787 104.893 96.9976 104.477 96.9787C104.269 96.9787 104.062 96.9787 103.854 96.9976C103.646 96.9976 103.438 97.0166 103.23 97.0356C102.248 97.0925 101.284 97.2632 100.339 97.5478C99.3945 97.8324 98.4876 98.2118 97.6562 98.7619C97.4484 98.9137 97.2405 99.0465 97.0516 99.1983C96.8626 99.369 96.6737 99.5208 96.4847 99.6915C96.3147 99.8622 96.1446 100.052 95.9746 100.223C95.8801 100.318 95.8234 100.393 95.7478 100.469L95.54 100.697C95.2566 101 94.992 101.323 94.6897 101.627C94.3874 101.93 94.1229 102.234 93.8017 102.518C92.5924 103.694 91.3076 104.757 89.8527 105.648C89.1158 106.085 88.36 106.502 87.5475 106.825C86.735 107.147 85.9036 107.413 85.0156 107.545C83.315 107.811 81.6145 107.716 80.1596 107.109C79.4416 106.806 78.7803 106.407 78.2512 105.876L78.0623 105.686C78.0056 105.61 77.9489 105.554 77.8922 105.478C77.76 105.345 77.6844 105.174 77.571 105.041C77.4954 104.89 77.3821 104.738 77.3254 104.567C77.2876 104.491 77.2498 104.415 77.212 104.32L77.1742 104.188L77.1364 104.112C77.0986 104.036 77.0986 103.941 77.1175 103.846V103.789L77.1364 103.713C77.1553 103.656 77.1742 103.581 77.1931 103.505C77.2876 103.22 77.4388 102.917 77.6277 102.613C77.9867 102.006 78.4213 101.38 78.8748 100.792C79.8006 99.5966 80.802 98.4394 81.8601 97.3012C83.9764 95.0436 86.2815 92.843 88.7757 90.6803C92.4224 87.5311 96.1068 84.5717 99.8102 81.7071C101.662 80.2843 103.514 78.8804 105.384 77.4955C106.31 76.8126 107.236 76.1107 108.181 75.4277L109.541 74.4222L110.202 74.0428C110.448 73.91 110.675 73.7583 110.939 73.6255C114.869 71.4817 119.121 69.9261 123.485 68.693C127.869 67.4599 132.385 66.5114 137.014 65.6956C141.19 64.9747 145.611 64.5953 150.052 64.4435C154.492 64.2728 158.97 64.3487 163.354 64.4625C167.076 64.5574 170.741 64.8799 174.426 65.3541C178.129 65.8284 181.852 66.5303 185.725 67.384C186.632 67.6307 187.52 67.8773 188.427 68.1239C190.298 68.6171 192.263 69.1673 192.357 68.8258Z" fill="#063844"/>
<path d="M22.0957 88.233C25.7235 88.3848 28.2743 87.7777 31.7888 87.4742C46.3945 86.2221 58.7895 81.9726 58.7895 81.9726C58.7895 81.9726 89.6636 65.6387 108.71 71.311C108.71 71.311 74.3966 93.9433 76.8907 106.957C79.3848 119.971 104.194 91.5719 104.194 91.5719C104.194 91.5719 122.465 100.393 152.678 99.1034C178.243 98.0031 161.974 110.22 139.319 110.695C139.319 110.695 164.242 108.608 162.579 116.082C162.069 118.397 143.098 121.413 142.475 121.774C140.245 123.026 152.829 120.882 156.381 122.21C160.255 123.538 163.561 128.698 145.63 131.866C134.01 134.958 105.006 133.991 105.006 133.991C105.006 133.991 143.835 130.443 135.37 140.726C125.413 152.829 83.5039 131.714 32.3178 140.403" fill="white"/>
<path d="M22.096 88.1955C22.0771 88.4232 22.8707 88.5939 24.3445 88.5749C25.0814 88.5749 25.9695 88.4991 26.9898 88.3852C28.0101 88.2714 29.1816 88.1007 30.4664 87.9679C30.8821 87.9299 31.3167 87.873 31.7324 87.8351L32.9984 87.7023L34.2643 87.5695C34.68 87.5315 35.1146 87.4746 35.5303 87.4177C36.3805 87.3039 37.2308 87.209 38.0622 87.0762C38.9124 86.9434 39.7438 86.8296 40.5941 86.6968C43.9573 86.1467 47.2828 85.4637 50.5705 84.6669C52.2144 84.2685 53.8582 83.8322 55.4832 83.3769C56.2957 83.1493 57.1082 82.9026 57.9206 82.656L58.5253 82.4663L58.8465 82.3525C58.9032 82.3335 58.9598 82.2956 59.0165 82.2766L59.1677 82.2007C59.5456 82.011 59.9235 81.8213 60.3014 81.6316C63.3246 80.1518 66.4233 78.8049 69.541 77.5718C75.7951 75.1056 82.2194 73.0567 88.8137 71.8046C92.1014 71.1976 95.4458 70.7992 98.7902 70.7423C98.998 70.7233 99.2058 70.7423 99.4137 70.7423L100.037 70.7612L100.661 70.7802C100.869 70.7802 101.076 70.7802 101.284 70.7992C102.116 70.8561 102.947 70.894 103.759 71.0268L104.383 71.1027L104.648 71.1407C104.723 71.1407 104.78 71.1596 104.837 71.1786L105.573 71.3304C105.819 71.3683 106.065 71.4442 106.291 71.5011L106.65 71.596L106.82 71.6529C106.839 71.6529 106.896 71.6718 106.896 71.6718L106.82 71.7288C106.329 72.0513 105.857 72.3548 105.403 72.6773L105.063 72.905L104.534 73.2844L103.344 74.1191C101.757 75.2384 100.207 76.3956 98.6579 77.5908C95.5591 79.9621 92.5171 82.4284 89.5884 85.0463C86.6597 87.6833 83.8254 90.4531 81.2557 93.5643C79.9898 95.1199 78.7805 96.7704 77.7602 98.5536C77.25 99.4453 76.7777 100.394 76.3998 101.38C76.0219 102.367 75.7196 103.429 75.6062 104.529C75.4928 105.44 75.5117 106.408 75.7196 107.356C75.7762 107.584 75.814 107.811 75.8896 108.058L76.003 108.4C76.0408 108.513 76.0975 108.627 76.1352 108.76C76.3242 109.234 76.5887 109.709 76.9477 110.126C77.3067 110.562 77.798 110.923 78.3082 111.188C78.8372 111.454 79.4041 111.549 79.9331 111.587C80.4622 111.625 80.9534 111.568 81.4447 111.492C81.9171 111.397 82.3705 111.283 82.7862 111.131C83.6365 110.847 84.4301 110.467 85.1859 110.069C85.9417 109.671 86.6597 109.234 87.3588 108.76C88.757 107.83 90.0607 106.844 91.3078 105.801C93.8208 103.733 96.1638 101.513 98.4123 99.2366C99.5459 98.0983 100.642 96.9411 101.719 95.7839C102.267 95.1958 102.796 94.6077 103.325 94.0196L104.081 93.1659C104.194 93.0331 104.289 92.9193 104.383 92.8055L104.629 92.9003L104.95 93.0331L105.592 93.2797L106.235 93.5074C107.085 93.8299 107.935 94.1144 108.786 94.399C109.636 94.6646 110.505 94.9302 111.355 95.1958C112.224 95.4424 113.075 95.6701 113.944 95.9167C117.402 96.8273 120.878 97.5292 124.393 98.1363C129.154 98.952 133.783 99.3884 138.337 99.6729C139.471 99.7298 140.604 99.7867 141.738 99.8437C142.872 99.8626 144.005 99.8816 145.139 99.9006L146.84 99.9195C147.407 99.9195 147.973 99.9006 148.54 99.9006C149.674 99.8816 150.789 99.8626 151.922 99.8247C152.489 99.8247 153.056 99.8057 153.604 99.7867C154.152 99.7678 154.719 99.7678 155.286 99.7678C156.4 99.7678 157.515 99.7868 158.63 99.8626C159.745 99.9385 160.841 100.071 161.918 100.299C162.447 100.413 162.976 100.546 163.448 100.735C163.562 100.792 163.675 100.83 163.788 100.887C163.902 100.944 163.996 101.001 164.11 101.058C164.299 101.191 164.469 101.304 164.563 101.418C164.658 101.532 164.733 101.665 164.771 101.817C164.809 101.968 164.771 102.12 164.714 102.272C164.695 102.348 164.639 102.424 164.601 102.5C164.525 102.594 164.487 102.689 164.393 102.784L164.28 102.917L164.147 103.05C164.072 103.145 163.958 103.22 163.864 103.315C163.467 103.676 163.033 103.998 162.56 104.283C162.088 104.586 161.578 104.871 161.068 105.118C158.989 106.161 156.703 106.939 154.341 107.584C149.485 108.874 144.402 109.538 139.244 109.633L139.376 111.738C141.455 111.587 143.59 111.53 145.687 111.511C147.803 111.511 149.92 111.568 152.017 111.738C153.075 111.833 154.114 111.947 155.135 112.118C156.155 112.289 157.175 112.497 158.139 112.782C158.611 112.934 159.084 113.104 159.518 113.294C159.953 113.484 160.35 113.711 160.671 113.977C160.992 114.243 161.238 114.508 161.351 114.793C161.426 114.926 161.445 115.077 161.464 115.229C161.464 115.267 161.464 115.305 161.464 115.343C161.464 115.381 161.464 115.4 161.464 115.419C161.464 115.457 161.464 115.514 161.445 115.552C161.445 115.665 161.332 115.76 161.256 115.817C161.238 115.817 161.238 115.836 161.219 115.836C161.219 115.836 161.2 115.836 161.181 115.855L161.011 115.95C160.879 116.007 160.746 116.083 160.614 116.14C160.047 116.386 159.443 116.614 158.819 116.823C157.572 117.221 156.249 117.581 154.946 117.904C152.319 118.549 149.655 119.099 146.991 119.649C145.649 119.915 144.327 120.18 142.966 120.465C142.796 120.503 142.626 120.541 142.437 120.598L142.286 120.636L142.248 120.655L142.192 120.674L142.135 120.693L142.078 120.712L142.003 120.75L141.927 120.788L141.889 120.807L141.833 120.844L141.738 120.901L141.625 120.977C141.606 120.996 141.587 120.996 141.568 121.015L141.492 121.091C141.474 121.11 141.436 121.148 141.417 121.167C141.379 121.224 141.322 121.262 141.285 121.319C141.266 121.338 141.247 121.376 141.228 121.395C141.228 121.414 141.209 121.414 141.19 121.452C141.171 121.489 141.171 121.508 141.152 121.546C141.133 121.603 141.115 121.679 141.096 121.736C141.096 121.774 141.077 121.812 141.077 121.831C141.077 121.869 141.077 121.888 141.077 121.945C141.077 122.134 141.133 122.362 141.209 122.514C141.266 122.628 141.36 122.742 141.455 122.836C141.474 122.855 141.511 122.893 141.53 122.893L141.568 122.931C141.587 122.95 141.625 122.969 141.663 122.988C141.7 123.007 141.719 123.026 141.757 123.045L141.795 123.064L141.814 123.083C141.87 123.102 141.965 123.14 142.022 123.159L142.173 123.197C142.21 123.216 142.248 123.216 142.286 123.216C142.324 123.216 142.362 123.235 142.381 123.235C142.626 123.254 142.815 123.273 143.023 123.273C143.779 123.273 144.44 123.216 145.139 123.178C146.5 123.083 147.86 122.969 149.183 122.893C150.524 122.817 151.847 122.761 153.151 122.779C153.831 122.798 154.511 122.836 155.135 122.931C155.456 122.988 155.739 123.045 155.985 123.14C156.287 123.254 156.571 123.349 156.816 123.5C156.948 123.557 157.062 123.652 157.194 123.728C157.307 123.804 157.44 123.88 157.534 123.975C157.761 124.145 157.95 124.335 158.082 124.525C158.12 124.582 158.158 124.62 158.177 124.677C158.195 124.734 158.233 124.771 158.252 124.828C158.29 124.923 158.328 125.018 158.347 125.113C158.384 125.303 158.403 125.473 158.328 125.644C158.233 126.024 157.893 126.46 157.459 126.82C157.024 127.2 156.495 127.541 155.928 127.826C154.813 128.414 153.566 128.869 152.319 129.249C151.072 129.628 149.787 129.932 148.502 130.216C147.86 130.349 147.218 130.482 146.575 130.596L145.612 130.766L145.328 130.823L145.045 130.899L144.572 131.013C143.325 131.297 142.059 131.506 140.774 131.677C140.132 131.772 139.49 131.829 138.847 131.905C138.205 131.961 137.562 132.037 136.901 132.094C131.724 132.531 126.509 132.625 121.218 132.644C115.928 132.644 110.524 132.55 104.988 132.341L105.082 135.699C106.726 135.566 108.445 135.471 110.165 135.376C111.884 135.281 113.623 135.224 115.38 135.186C118.138 135.13 120.897 135.111 123.656 135.243C125.035 135.3 126.395 135.395 127.756 135.547C129.097 135.699 130.439 135.907 131.705 136.23C132.328 136.382 132.933 136.59 133.481 136.818C134.01 137.046 134.482 137.349 134.728 137.615C134.841 137.748 134.917 137.861 134.955 137.937C134.974 138.032 135.012 138.127 134.974 138.298C134.936 138.62 134.69 139.113 134.35 139.569C134.18 139.815 133.991 140.024 133.802 140.252C133.708 140.366 133.594 140.46 133.481 140.555L133.33 140.707L133.16 140.84C132.706 141.219 132.177 141.542 131.629 141.807C130.515 142.357 129.249 142.718 127.945 142.946C126.622 143.173 125.262 143.287 123.882 143.325C122.503 143.363 121.105 143.344 119.707 143.287C116.91 143.154 114.095 142.889 111.28 142.566C105.649 141.921 100.056 141.124 94.4632 140.403C89.9096 139.815 85.4126 139.284 80.9156 138.867C76.4376 138.449 71.9595 138.146 67.4814 137.975C58.5442 137.653 49.588 137.88 40.4807 138.886C38.3834 139.113 36.3049 139.398 34.7556 139.664C33.2062 139.948 32.1859 140.195 32.2237 140.385C32.2992 140.878 35.398 140.195 40.5563 139.626C44.0329 139.227 47.5096 138.981 50.9673 138.829C54.4251 138.696 57.8828 138.658 61.3217 138.734C64.7606 138.81 68.1805 138.981 71.6005 139.227C75.0205 139.474 78.4215 139.815 81.8226 140.214C88.6247 140.992 95.408 142.035 102.248 143.059C105.668 143.572 109.107 144.084 112.583 144.501C116.06 144.919 119.574 145.26 123.164 145.241C124.279 145.222 125.394 145.184 126.49 145.089C127.586 144.975 128.682 144.805 129.778 144.539C130.855 144.274 131.913 143.913 132.895 143.382C133.878 142.851 134.804 142.168 135.541 141.314C135.918 140.897 136.24 140.441 136.523 139.929C136.807 139.417 137.033 138.848 137.052 138.184C137.052 138.013 137.052 137.861 137.033 137.691L136.977 137.444C136.977 137.406 136.958 137.368 136.958 137.33L136.92 137.216C136.863 137.065 136.807 136.913 136.731 136.761L136.618 136.552C136.58 136.495 136.523 136.42 136.485 136.363C136.107 135.869 135.635 135.509 135.144 135.224C134.653 134.94 134.161 134.712 133.651 134.522C133.141 134.333 132.631 134.181 132.14 134.048C131.119 133.783 130.099 133.593 129.079 133.441C127.038 133.138 124.997 132.986 122.976 132.872C120.954 132.777 118.932 132.739 116.929 132.758C112.905 132.796 108.918 132.967 104.874 133.289L104.912 134.693C107.954 134.788 111.015 134.826 114.114 134.826C117.194 134.826 120.311 134.769 123.486 134.636C126.943 134.504 130.174 134.352 133.311 134.162C136.429 133.972 139.433 133.726 142.418 133.289C142.796 133.232 143.155 133.176 143.533 133.119L144.648 132.91L145.725 132.663L146.802 132.493C148.276 132.246 149.768 131.961 151.261 131.601C152.754 131.222 154.265 130.785 155.777 130.159C156.533 129.837 157.289 129.457 158.025 128.983C158.214 128.85 158.384 128.736 158.573 128.585C158.743 128.433 158.932 128.3 159.102 128.129C159.273 127.959 159.443 127.788 159.613 127.579C159.688 127.465 159.783 127.389 159.839 127.257L160.047 126.896C160.198 126.612 160.312 126.308 160.387 125.967C160.463 125.625 160.482 125.284 160.425 124.942C160.35 124.24 160.028 123.652 159.669 123.178C159.31 122.704 158.876 122.343 158.441 122.04C158.007 121.736 157.553 121.489 157.081 121.3L156.741 121.167C156.627 121.129 156.495 121.072 156.363 121.034C156.098 120.958 155.853 120.901 155.607 120.863C155.116 120.769 154.662 120.731 154.19 120.693C153.283 120.636 152.395 120.636 151.507 120.655C149.75 120.693 148.049 120.825 146.367 120.958C145.517 121.015 144.686 121.091 143.873 121.129C143.476 121.148 143.042 121.167 142.721 121.148C142.645 121.148 142.569 121.129 142.551 121.129C142.551 121.129 142.551 121.148 142.551 121.167L142.513 121.3C142.494 121.376 142.456 121.489 142.437 121.527C142.399 121.66 142.343 121.793 142.305 121.85C142.286 121.869 142.286 121.888 142.267 121.907C142.248 121.926 142.248 121.926 142.248 121.945C142.248 121.945 142.229 121.964 142.21 121.964C142.229 121.964 142.229 121.964 142.248 121.964C142.267 121.964 142.267 121.983 142.286 121.983C142.305 122.002 142.324 122.002 142.343 122.021C142.362 122.04 142.381 122.04 142.399 122.059L142.418 122.078C142.418 122.078 142.437 122.097 142.456 122.116C142.513 122.153 142.551 122.21 142.588 122.267C142.607 122.286 142.626 122.324 142.645 122.343L142.74 122.457L142.815 122.571C142.834 122.59 142.834 122.609 142.834 122.59C142.834 122.59 142.834 122.59 142.853 122.571H142.872C142.022 121.053 142.664 122.21 142.494 121.907C142.513 121.945 142.532 121.983 142.551 122.002C142.588 122.078 142.607 122.153 142.626 122.21L142.664 122.324L142.721 122.495C142.74 122.552 142.777 122.628 142.758 122.609C142.758 122.609 142.777 122.609 142.796 122.59C142.834 122.571 142.872 122.571 142.91 122.552C143.287 122.457 143.703 122.362 144.1 122.286C144.516 122.191 144.931 122.116 145.328 122.021C146.159 121.85 146.991 121.679 147.822 121.508C149.485 121.167 151.167 120.807 152.867 120.408C154.568 120.01 156.287 119.611 158.025 119.099C158.895 118.853 159.783 118.587 160.671 118.245C161.124 118.075 161.559 117.885 162.031 117.619C162.088 117.581 162.145 117.562 162.22 117.506C162.296 117.449 162.371 117.411 162.447 117.354C162.598 117.259 162.73 117.145 162.863 117.012C162.976 116.88 163.108 116.747 163.184 116.595C163.278 116.443 163.316 116.272 163.373 116.102C163.429 115.855 163.448 115.608 163.467 115.343C163.467 115.096 163.467 114.888 163.41 114.641C163.335 114.186 163.165 113.73 162.919 113.332C162.56 112.763 162.069 112.327 161.597 111.966C161.105 111.625 160.595 111.359 160.085 111.131C159.065 110.695 158.044 110.41 157.024 110.183C154.983 109.746 152.962 109.538 150.959 109.424C148.956 109.31 146.972 109.291 145.007 109.329C143.042 109.367 141.096 109.481 139.131 109.652L139.225 111.53C142.305 111.435 145.366 111.112 148.408 110.581C151.431 110.031 154.435 109.291 157.383 108.248C158.857 107.717 160.312 107.128 161.729 106.389C162.428 106.009 163.127 105.611 163.807 105.137C164.469 104.662 165.13 104.131 165.659 103.372C165.923 102.993 166.169 102.462 166.188 101.93C166.207 101.665 166.15 101.399 166.056 101.153C165.999 101.039 165.942 100.906 165.867 100.792C165.791 100.678 165.716 100.565 165.621 100.47C165.451 100.261 165.243 100.109 165.035 99.9575L164.752 99.7678L164.45 99.616C164.053 99.4263 163.656 99.2745 163.24 99.1417C162.428 98.8951 161.615 98.7434 160.803 98.6295C159.991 98.5157 159.159 98.4398 158.347 98.3829C157.156 98.307 155.966 98.288 154.776 98.288C153.585 98.288 152.395 98.345 151.242 98.345C150.071 98.3639 148.918 98.3829 147.747 98.3829C147.463 98.3829 147.161 98.4019 146.877 98.3829L146.008 98.3639C145.423 98.345 144.856 98.326 144.27 98.326C143.684 98.307 143.117 98.288 142.532 98.288C142.248 98.2691 141.965 98.2691 141.663 98.2501L140.793 98.1932C139.641 98.1173 138.507 98.0414 137.354 97.9655L136.92 97.9276L136.485 97.8897L135.635 97.7948C135.068 97.7379 134.501 97.681 133.935 97.6241C133.368 97.5671 132.801 97.5102 132.234 97.4343C131.667 97.3585 131.1 97.2826 130.533 97.1877C126.018 96.5807 121.577 95.727 117.232 94.5697C116.154 94.2662 115.059 93.9816 113.982 93.6591C112.905 93.3177 111.828 93.0141 110.788 92.6347C109.73 92.2743 108.691 91.8948 107.652 91.4965C107.142 91.2878 106.613 91.0981 106.121 90.8704L105.743 90.6997L105.441 90.5669L105.101 90.4151L103.703 89.7701L102.588 91.0032L102.097 91.5344L101.776 91.8759L100.51 93.2038C99.6593 94.0765 98.809 94.9492 97.9399 95.8218C96.2016 97.5482 94.4254 99.2176 92.6115 100.83C90.7976 102.443 88.927 103.979 86.9809 105.364C86.0172 106.047 85.0158 106.692 84.0144 107.242C83.013 107.792 81.9738 108.248 81.029 108.456C80.5566 108.551 80.1221 108.589 79.8197 108.532C79.4985 108.475 79.3096 108.381 79.1206 108.191C78.9317 108.001 78.7427 107.679 78.6105 107.242C78.5727 107.128 78.5349 107.034 78.516 106.92L78.4404 106.559C78.4026 106.332 78.3648 106.085 78.3648 105.857C78.3459 105.611 78.3648 105.364 78.3648 105.118C78.3648 104.985 78.3837 104.871 78.4026 104.738L78.4215 104.548L78.4593 104.359C78.5349 103.847 78.6672 103.315 78.8372 102.803C79.1773 101.76 79.6686 100.716 80.2354 99.6919C81.388 97.643 82.8429 95.689 84.4301 93.8109C86.0172 91.9328 87.7367 90.1305 89.5128 88.3663C92.4226 85.5016 95.6158 82.7509 98.9224 80.1139C100.585 78.7859 102.286 77.4959 104.005 76.2249C104.44 75.9024 104.874 75.5988 105.309 75.2763C105.781 74.9348 106.008 74.7641 106.991 74.0812C107.803 73.512 108.615 72.9429 109.466 72.3738C110.316 71.8046 111.166 71.2355 112.017 70.6664L111.865 70.6095L111.79 70.5905L111.695 70.5715L111.317 70.4767L110.543 70.287L108.993 69.8886L108.615 69.7937L108.219 69.7178L107.444 69.5471L105.895 69.2056C105.63 69.1487 105.384 69.0918 105.12 69.0539L104.515 68.978L103.571 68.8642L103.098 68.8072L102.626 68.7883L101.681 68.7314C99.168 68.6175 96.655 68.7503 94.1987 69.0159C93.5752 69.0918 92.9705 69.1677 92.347 69.2625C91.7424 69.3574 91.1189 69.4523 90.5142 69.5661C89.9096 69.6799 89.3049 69.7937 88.7003 69.9265C88.0957 70.0404 87.5099 70.1921 86.9053 70.3249C84.5246 70.8751 82.1816 71.5391 79.8764 72.2979C78.0436 72.905 76.2297 73.55 74.4158 74.2329C72.6208 74.9159 70.8447 75.6368 69.0875 76.3766C65.573 77.8943 62.1153 79.4879 58.6953 81.3091L58.5442 81.385C58.5064 81.4039 58.4686 81.4229 58.4308 81.4419L58.1096 81.5557L57.4294 81.7833C56.9759 81.9351 56.5224 82.0869 56.0689 82.2197C55.162 82.5042 54.2361 82.7888 53.3103 83.0354C51.4586 83.5666 49.588 84.0599 47.6796 84.4962C45.7901 84.9515 43.8629 85.3499 41.9167 85.7103C39.9705 86.0708 37.9866 86.3933 35.9837 86.6589L34.5666 86.8106C34.0943 86.8676 33.6219 86.8865 33.1495 86.9434L31.7324 87.0573C31.26 87.0952 30.7688 87.1331 30.2964 87.1711C29.2383 87.2849 28.1991 87.4177 27.2354 87.5505C26.2718 87.6643 25.3648 87.7592 24.5901 87.8161C23.1352 87.9868 22.096 88.0058 22.096 88.1955Z" fill="#063844"/>
<path d="M153.869 109.765C152.81 109.898 151.733 109.86 150.675 110.031C148.918 110.315 148.786 110.088 147.784 110.182C147.274 110.22 146.065 110.258 145.555 110.296C145.064 110.334 144.138 110.581 143.665 110.6C143.59 110.6 143.533 110.6 143.476 110.6C141.436 110.619 139.32 109.993 137.449 110.05C136.372 110.088 135.314 110.277 134.237 110.372C133.254 110.467 132.253 110.524 131.251 110.581C130.156 110.638 129.06 110.714 127.945 110.752C127.019 110.771 126.093 110.752 125.167 110.695C124.241 110.657 123.335 110.581 122.428 110.543C120.463 110.429 118.497 110.315 116.532 110.201C114.511 110.069 112.659 110.372 110.637 110.144C109.333 110.012 107.35 109.575 106.065 109.405C105.611 109.31 105.214 109.253 104.836 109.196C104.459 109.139 104.1 109.082 103.722 109.044C103.533 109.025 103.344 108.987 103.155 108.968C102.966 108.93 102.758 108.911 102.55 108.873C102.342 108.836 102.116 108.798 101.889 108.741C101.662 108.684 101.417 108.627 101.152 108.551C100.925 108.494 100.699 108.437 100.491 108.38C100.283 108.323 100.094 108.285 99.9427 108.266C99.6215 108.209 99.3948 108.209 99.3759 108.304C99.3381 108.399 99.527 108.513 99.8294 108.646C99.9805 108.703 100.169 108.779 100.377 108.854C100.585 108.93 100.812 108.987 101.058 109.044C102.418 109.386 103.438 109.594 104.421 109.803C104.912 109.898 105.403 109.993 105.932 110.088C106.461 110.182 107.028 110.258 107.69 110.372C108.937 110.543 110.297 110.771 112.546 110.96C113.868 111.074 115.191 111.34 116.532 111.435C118.384 111.529 118.668 111.529 119.367 111.624C120.425 111.776 121.162 111.966 122.087 112.023C123.146 112.08 124.223 112.117 125.281 112.099C127.284 112.08 129.324 112.042 131.327 112.174C132.234 112.231 133.141 112.269 134.048 112.25C135.049 112.231 136.032 112.288 137.033 112.25C140 112.155 143.439 111.283 143.911 111.245C144.61 111.226 145.309 111.207 146.008 111.112C146.594 111.036 147.274 111.017 147.86 110.941C148.861 110.846 149.863 110.752 150.883 110.657C152.017 110.543 152.886 110.372 154.001 110.22C154.435 110.163 154.908 110.05 154.908 109.898C154.813 109.67 154.454 109.689 153.869 109.765Z" fill="#063844"/>
<path d="M153.831 121.888C152.886 121.964 151.904 121.85 150.959 122.002C149.391 122.229 149.258 122.002 148.351 122.078C147.898 122.116 146.821 122.135 146.349 122.154C145.914 122.191 145.083 122.438 144.648 122.438C144.591 122.438 144.535 122.438 144.478 122.438C142.645 122.457 140.737 121.85 139.055 121.926C138.091 121.964 137.147 122.191 136.183 122.305C135.295 122.419 134.407 122.495 133.519 122.571C132.536 122.647 131.554 122.742 130.571 122.818C129.74 122.855 128.927 122.855 128.077 122.836C127.246 122.817 126.433 122.78 125.621 122.742C123.845 122.685 122.088 122.609 120.33 122.552C118.516 122.476 116.854 122.836 115.04 122.666C113.868 122.571 112.073 122.191 110.921 122.04C110.524 121.964 110.165 121.907 109.825 121.869C109.485 121.831 109.164 121.793 108.823 121.755C108.483 121.717 108.143 121.679 107.765 121.622C107.576 121.584 107.368 121.565 107.161 121.509C106.953 121.471 106.726 121.414 106.499 121.357C106.084 121.262 105.706 121.148 105.403 121.11C105.12 121.072 104.912 121.091 104.874 121.186C104.837 121.281 105.007 121.395 105.271 121.509C105.536 121.622 105.932 121.755 106.367 121.85C106.669 121.926 106.953 122.002 107.236 122.059C107.501 122.116 107.765 122.172 108.011 122.229C108.502 122.343 108.956 122.419 109.39 122.514C110.278 122.685 111.147 122.836 112.319 122.988C113.434 123.121 114.662 123.311 116.684 123.444C117.288 123.481 117.874 123.557 118.479 123.633C119.083 123.709 119.669 123.766 120.274 123.804C121.936 123.861 122.201 123.842 122.806 123.918C123.75 124.032 124.412 124.202 125.262 124.24C126.207 124.278 127.17 124.278 128.115 124.24C129.91 124.164 131.743 124.089 133.538 124.164C134.35 124.202 135.163 124.221 135.975 124.183C136.882 124.145 137.751 124.183 138.658 124.145C141.304 124.013 144.365 123.14 144.818 123.102C145.442 123.083 146.084 123.064 146.689 122.988C147.199 122.912 147.822 122.912 148.332 122.855C149.239 122.78 150.127 122.704 151.034 122.647C152.036 122.571 152.829 122.438 153.85 122.362C154.247 122.343 154.681 122.248 154.662 122.097C154.681 121.869 154.36 121.85 153.831 121.888Z" fill="#063844"/>
<path d="M75.2852 143.344C75.2852 143.344 89.2862 131.752 88.0959 119.725C86.9055 107.697 61.4353 131.752 63.9861 137.994C66.5369 144.235 68.8042 144.918 75.2852 143.344Z" fill="#BADFD8"/>
<path d="M75.2665 143.325C75.5688 143.685 75.89 143.325 76.4758 142.793C78.8376 140.612 81.0294 138.297 83.0512 135.812C85.054 133.308 86.8868 130.614 88.2283 127.465C88.8519 125.966 89.1731 124.373 89.2109 122.798C89.2109 122.4 89.2298 122.001 89.192 121.622C89.1731 121.224 89.1542 120.844 89.0786 120.446C88.9841 119.687 88.8519 118.871 88.5307 118.074C88.4929 117.98 88.4362 117.885 88.3984 117.79C88.3417 117.695 88.3039 117.6 88.2472 117.505C88.1339 117.316 88.0205 117.126 87.8693 116.974C87.6048 116.633 87.2269 116.348 86.849 116.139C86.4711 115.931 86.0554 115.817 85.6587 115.76C85.4697 115.741 85.2619 115.703 85.0729 115.722H84.7895L84.5061 115.741C83.7503 115.798 83.0323 115.969 82.3332 116.196C81.6341 116.424 80.9349 116.708 80.2358 117.031C78.5542 117.828 76.9292 118.833 75.4177 119.99C73.9061 121.129 72.489 122.419 71.2419 123.804C69.9004 125.302 68.5588 126.516 67.2173 127.825C66.556 128.489 65.8947 129.153 65.2711 129.912C64.6476 130.671 64.043 131.506 63.5328 132.473C63.1171 133.289 62.7581 134.162 62.5314 135.167C62.418 135.66 62.3613 136.211 62.3613 136.78C62.3613 136.931 62.3613 137.064 62.3991 137.235L62.4369 137.463C62.4369 137.539 62.4558 137.614 62.4747 137.69C62.5125 137.842 62.5503 138.013 62.607 138.165L62.7014 138.411C62.7392 138.487 62.777 138.582 62.7959 138.62C63.2305 139.398 63.684 140.175 64.1941 140.915C64.7043 141.655 65.29 142.395 65.9891 143.021C66.2726 143.287 66.5749 143.514 66.8961 143.723C67.2173 143.932 67.5763 144.102 67.9164 144.235C68.6344 144.501 69.3713 144.596 70.0704 144.596C70.7695 144.596 71.4686 144.539 72.1489 144.425C72.8291 144.311 73.4904 144.178 74.1706 144.046C74.7941 143.913 75.3988 143.78 75.3232 143.438C75.2098 142.964 74.7752 143.154 74.0194 143.325C73.018 143.533 71.9977 143.666 71.0152 143.666C70.0326 143.666 69.0879 143.476 68.3132 143.04C67.5385 142.604 66.9339 141.921 66.4048 141.143C65.8758 140.346 65.4034 139.474 64.9121 138.563C64.7988 138.373 64.7043 138.165 64.6098 137.975C64.5909 137.937 64.5531 137.861 64.5531 137.842L64.5153 137.728C64.4775 137.652 64.4587 137.576 64.4398 137.482C64.3642 137.14 64.402 136.761 64.4587 136.381C64.6098 135.622 64.931 134.902 65.29 134.2C66.0458 132.796 66.9717 131.525 67.8408 130.064C68.3699 129.191 69.0312 128.565 69.7114 128.015C70.3916 127.446 71.0907 126.934 71.771 126.289C72.5645 125.511 73.2448 124.752 73.9439 123.993C74.6619 123.234 75.4177 122.514 76.3813 121.888C77.685 121.053 78.762 120.123 79.9146 119.27C80.4815 118.833 81.0861 118.435 81.7096 118.074C82.3332 117.733 83.0323 117.429 83.7503 117.297C84.4116 117.164 85.0918 117.145 85.602 117.316C85.7342 117.353 85.8476 117.41 85.961 117.467C86.0554 117.543 86.1688 117.6 86.2444 117.695C86.3389 117.771 86.3956 117.866 86.4711 117.961C86.5278 118.074 86.6034 118.15 86.6412 118.283C86.8301 118.738 86.9057 119.307 86.8868 119.915C86.8679 120.237 86.849 120.56 86.8301 120.882C86.7923 121.205 86.7546 121.527 86.7168 121.85C86.5278 123.121 86.1877 124.373 85.7909 125.606C85.3941 126.858 84.9406 128.091 84.4683 129.4C84.0526 130.576 83.3913 131.714 82.7111 132.834C82.012 133.953 81.294 135.072 80.6515 136.267C79.5745 138.278 78.2897 140.081 76.608 141.807C76.3813 141.978 76.1546 142.148 75.9278 142.319C75.5121 142.661 75.0398 143.04 75.2665 143.325Z" fill="#063844"/>
<path d="M192.395 68.8071C191.941 68.6933 191.828 69.4142 191.544 70.5714C189.182 80.1138 187.104 89.4475 185.422 99.3123C184.629 103.998 184.742 108.551 184.686 113.028C184.686 114.129 184.648 115.191 184.629 116.234C184.61 116.766 184.61 117.278 184.61 117.79L184.591 118.568L184.572 118.947C184.572 119.061 184.553 119.137 184.553 119.251C184.459 120.01 183.873 120.655 183.155 120.901C182.796 121.015 182.399 121.015 182.021 120.92C181.927 120.901 181.832 120.844 181.738 120.825C181.719 120.825 181.681 120.806 181.643 120.787L181.549 120.749L181.341 120.674C181.077 120.56 180.793 120.465 180.529 120.351C179.13 119.82 177.638 119.403 176.126 119.099C175.37 118.947 174.596 118.852 173.821 118.777C173.632 118.758 173.424 118.739 173.235 118.72H173.103H173.046H172.952C172.82 118.701 172.706 118.701 172.574 118.701C172.555 118.587 172.574 118.473 172.574 118.359L172.555 117.79C172.536 117.126 172.517 116.462 172.498 115.798C172.479 115.134 172.461 114.47 172.442 113.806C172.423 113.484 172.423 113.142 172.404 112.82C172.385 112.497 172.385 112.156 172.366 111.833C172.347 111.074 172.328 110.353 172.347 109.633C172.366 108.912 172.404 108.21 172.442 107.508C172.517 106.104 172.687 104.738 172.838 103.372C172.914 102.689 173.009 102.006 173.103 101.304C173.197 100.621 173.292 99.9194 173.368 99.2175C173.462 98.5156 173.556 97.7947 173.632 97.0738C173.708 96.3529 173.783 95.594 173.859 94.8352C174.293 89.8079 174.369 84.4961 174.974 79.3929C175.484 75.2382 176.126 71.3113 177.109 67.2515C177.335 66.3219 177.581 65.3923 177.222 65.3165C176.769 65.2026 176.655 65.9235 176.372 67.0808C175.975 68.6364 175.616 70.192 175.2 71.7286C175.011 72.5064 174.822 73.2653 174.633 74.0241L174.35 75.1813C174.256 75.5608 174.18 75.9402 174.086 76.3386C173.915 77.1164 173.745 77.8752 173.575 78.653C173.424 79.4308 173.273 80.2086 173.141 80.9864C173.065 81.3848 173.009 81.7642 172.933 82.1626C172.876 82.561 172.82 82.9594 172.763 83.3578C172.668 84.1546 172.555 84.9514 172.498 85.7671C172.272 88.5558 171.894 91.0979 171.591 93.6211C171.516 94.2471 171.44 94.8731 171.365 95.5182C171.289 96.1442 171.251 96.7702 171.195 97.4153C171.138 98.0413 171.1 98.6863 171.081 99.3313C171.062 99.9763 171.043 100.621 171.043 101.285C171.043 101.684 171.025 102.063 171.006 102.443C170.987 102.822 170.968 103.182 170.93 103.543C170.873 104.264 170.779 104.947 170.684 105.63C170.59 106.313 170.495 106.977 170.42 107.679C170.344 108.361 170.269 109.082 170.231 109.822C170.212 110.695 170.212 111.53 170.231 112.364C170.25 113.18 170.307 113.996 170.344 114.812C170.382 115.627 170.42 116.443 170.458 117.278C170.458 117.486 170.477 117.695 170.477 117.904C170.477 118.169 170.477 118.435 170.496 118.701C170.496 119.365 170.496 120.029 170.496 120.768C170.496 120.787 170.496 120.806 170.496 120.825C170.949 120.844 171.421 120.863 171.875 120.882C172.102 120.882 172.347 120.901 172.574 120.901L172.914 120.92L173.141 120.939C173.708 120.977 174.256 121.015 174.804 121.072C175.899 121.186 176.976 121.319 178.053 121.527C178.582 121.641 179.13 121.755 179.659 121.888C179.924 121.964 180.189 122.04 180.453 122.115L180.85 122.248L181.058 122.305C181.133 122.324 181.228 122.362 181.303 122.381C181.398 122.4 181.473 122.438 181.568 122.457L181.832 122.495L181.965 122.514H182.097H182.361C182.72 122.495 183.079 122.457 183.401 122.343C184.081 122.134 184.686 121.717 185.158 121.129C185.592 120.598 185.857 119.915 185.914 119.232C185.933 119.042 185.933 118.928 185.951 118.777L185.97 118.359C185.989 118.075 186.008 117.809 186.027 117.524C186.065 116.974 186.103 116.424 186.159 115.874C186.216 115.324 186.273 114.774 186.329 114.242C186.386 113.692 186.443 113.161 186.499 112.611C186.575 112.08 186.632 111.53 186.707 110.998C186.783 110.467 186.84 109.936 186.915 109.386C186.991 108.855 187.066 108.324 187.142 107.792C187.728 103.524 188.37 99.3123 188.71 94.8731C189.012 90.8703 189.976 86.6587 190.297 82.5421C190.562 79.0324 191.034 75.6556 191.828 72.0322L192.225 70.7801C192.508 69.8126 192.754 68.883 192.395 68.8071Z" fill="#063844"/>
<path d="M34.4338 87.3804C33.1868 102.14 34.5661 136.876 37.4381 138.792C36.4556 139.683 34.9818 139.873 33.6213 140.025C30.2014 140.404 26.7625 140.784 23.3426 141.163C19.6203 124.355 20.1871 105.555 22.2278 88.4807C26.8948 86.7734 31.1272 86.7923 36.1344 87.1528" fill="#063844"/>
<path d="M34.472 87.38C33.9996 87.342 33.9996 88.1388 33.924 89.4478C33.7539 92.1417 33.6595 94.8166 33.5839 97.4915C33.5083 100.166 33.4516 102.822 33.4327 105.497C33.3761 110.828 33.3572 116.197 33.4516 121.679C33.5083 124.278 33.7539 126.821 34.1318 129.306C34.3208 130.558 34.5286 131.772 34.7743 133.005C35.0199 134.238 35.2844 135.452 35.6434 136.666C35.7001 136.856 35.7568 137.027 35.8135 137.217C35.8324 137.311 35.8702 137.406 35.908 137.482C35.9457 137.558 35.9835 137.691 36.0024 137.729L36.078 137.9L36.1347 138.032C36.1725 138.127 36.2292 138.203 36.2859 138.298C36.3047 138.336 36.3425 138.374 36.3803 138.412C36.3992 138.431 36.4181 138.45 36.437 138.469L36.4559 138.488L36.437 138.507C36.3614 138.564 36.2859 138.639 36.2103 138.677C36.0024 138.81 35.7568 138.905 35.5112 138.981C35.4734 138.981 35.4545 139 35.4167 139L35.3222 139.019C35.2277 139.038 35.1333 139.057 35.0199 139.076C34.8121 139.114 34.6231 139.152 34.4153 139.171C33.9996 139.227 33.5839 139.265 33.1304 139.303C32.6958 139.341 32.2613 139.379 31.8267 139.417C30.0695 139.569 28.2744 139.721 26.3472 139.872C25.9693 139.91 25.5914 139.929 25.2135 139.967L24.9301 139.986L24.7978 140.005H24.7411L24.4955 140.024L24.2687 140.043H24.2121H24.1932C24.1743 140.043 24.1743 140.043 24.1743 140.024L24.1554 139.891C24.1365 139.74 24.1176 139.569 24.0798 139.417C24.0231 139.057 23.9475 138.696 23.8908 138.336L23.7964 137.767L23.7019 137.198C23.5885 136.439 23.4563 135.68 23.3429 134.921C23.2295 134.162 23.1351 133.384 23.0217 132.626L22.8516 131.468C22.7949 131.089 22.7572 130.71 22.7194 130.311C22.6249 129.552 22.5304 128.775 22.417 128.016C22.3415 127.257 22.247 126.479 22.1525 125.72C21.7746 122.457 21.7935 119.441 21.9636 116.424C22.0203 114.907 22.1525 113.408 22.2281 111.852C22.2659 111.075 22.3415 110.297 22.3793 109.481C22.4171 108.684 22.4548 107.869 22.4926 107.015C22.5115 106.313 22.5304 105.63 22.5304 104.928C22.5493 104.226 22.5682 103.524 22.5682 102.822C22.5871 101.399 22.5871 99.9767 22.606 98.5538C22.6438 95.7082 22.6816 92.8436 22.8705 90.0359L22.8894 89.5996V89.353V89.0874V88.9546V88.9356C22.8894 88.9356 22.8894 88.9356 22.9083 88.9356L22.9272 88.9166L22.9839 88.8977C23.1351 88.8407 23.2862 88.7649 23.4563 88.689L23.6263 88.6321L23.8153 88.5562C23.9475 88.5182 24.0798 88.4613 24.2121 88.4234C25.2513 88.0819 26.3094 87.8163 27.4053 87.6266C29.5593 87.2472 31.7889 87.2092 34.0563 87.3231C35.0955 87.38 36.1347 87.4748 36.1725 87.1144C36.2103 86.6401 35.4167 86.6401 34.0941 86.5832C32.3368 86.4883 30.5796 86.4314 28.8224 86.5263C27.0652 86.6211 25.3269 86.8488 23.6074 87.3041L23.2862 87.399L22.9083 87.4938L22.0392 87.8353L21.6046 87.9681L21.5479 88.4044L21.4345 89.296C21.3778 89.7324 21.3211 90.1877 21.2645 90.643C21.2078 91.0793 21.1511 91.4967 21.1133 91.933C21.0188 92.8057 20.9433 93.6783 20.8677 94.551C20.7921 95.4236 20.7543 96.3153 20.7165 97.2069C20.6787 97.9658 20.6409 98.7246 20.6031 99.4644C20.5654 100.204 20.5087 100.925 20.452 101.646C20.4142 102.367 20.3575 103.069 20.3008 103.771C20.2819 104.131 20.2441 104.473 20.2252 104.814C20.2064 105.156 20.1875 105.516 20.1686 105.858C20.1308 106.56 20.093 107.243 20.0363 107.944C19.9985 108.646 19.9796 109.329 19.9607 110.031C19.9229 111.435 19.9607 112.839 20.0363 114.281C20.0552 114.489 20.0552 114.717 20.0552 114.926C20.0741 115.134 20.0741 115.343 20.0741 115.552C20.0741 115.969 20.0741 116.368 20.0741 116.747C20.0552 117.525 19.9985 118.284 19.9607 119.042C19.9229 119.801 19.8662 120.541 19.8285 121.3C19.7907 122.059 19.8096 122.837 19.8285 123.671C19.8474 124.146 19.8662 124.62 19.904 125.075C19.9418 125.53 19.9985 125.986 20.0552 126.441C20.1686 127.333 20.263 128.224 20.4142 129.116C20.5465 130.008 20.6787 130.88 20.7921 131.81C20.9244 132.72 21.0566 133.669 21.1322 134.655C21.1889 135.319 21.3023 135.964 21.3967 136.609C21.5101 137.255 21.6046 137.881 21.7368 138.507C21.9069 139.227 22.0769 139.948 22.247 140.669C22.3604 141.125 22.4737 141.58 22.5682 142.054C22.5682 142.073 22.5871 142.111 22.5871 142.13L22.6816 142.111L22.8705 142.092L23.2295 142.035L23.9286 141.94L24.6277 141.845L24.9679 141.789L25.1946 141.751C25.4969 141.694 25.8181 141.656 26.1204 141.599C26.744 141.504 27.3675 141.39 27.991 141.314C29.2381 141.125 30.5229 140.973 31.8456 140.859C32.299 140.821 32.7336 140.783 33.1871 140.745C33.6406 140.707 34.0752 140.688 34.5475 140.631C34.7743 140.612 35.0199 140.574 35.2466 140.536C35.36 140.518 35.4923 140.499 35.6056 140.48L35.8324 140.423C35.908 140.404 35.9835 140.385 36.0591 140.366C36.3803 140.29 36.6638 140.176 36.9661 140.043C37.2495 139.91 37.514 139.759 37.7597 139.569L37.9675 139L37.9864 138.924L37.9675 138.886C37.9486 138.848 37.9297 138.829 37.9297 138.791C37.9108 138.715 37.873 138.639 37.8541 138.545L37.8163 138.355L37.7785 138.146L37.7597 138.032C37.7597 137.994 37.7597 137.956 37.7597 137.9V137.653C37.7597 137.615 37.7785 137.558 37.7597 137.52L37.7219 137.406L37.6463 137.179C37.6274 137.141 37.6085 137.084 37.6085 137.065L37.5896 136.989L37.5518 136.837C37.4573 136.42 37.3629 135.983 37.3062 135.528C37.1739 134.637 37.0794 133.726 37.0039 132.815C36.8527 130.994 36.7582 129.154 36.6638 127.333C36.4937 123.652 36.3047 119.953 35.908 116.159C35.4545 111.777 35.5679 107.034 35.0577 102.5C34.6231 98.6677 34.4153 94.9304 34.5097 90.8706L34.6798 89.4478C34.7176 88.4423 34.831 87.4179 34.472 87.38Z" fill="#063844"/>
<path d="M80.9914 138.677C84.7515 133.991 87 130.994 90.2499 128.85C91.4402 128.053 92.6684 127.256 94.0477 126.934C95.427 126.611 97.052 126.877 97.9967 127.958C99.3572 129.514 98.7714 131.885 98.0723 133.82C96.2773 138.715 94.1233 143.477 91.6103 148.03C90.1554 150.686 88.1147 153.569 85.0916 153.797C82.2574 154.024 79.801 151.729 78.5351 149.187C76.1732 144.406 78.9696 141.276 82.4463 137.216" fill="#BADFD8"/>
<path d="M80.9533 138.658C81.3312 138.962 81.539 138.563 82.0114 137.994C82.9561 136.818 83.9009 135.642 84.9023 134.522C85.8848 133.403 86.9051 132.322 88.0199 131.373C88.5679 130.899 89.1536 130.463 89.7583 130.045C90.0606 129.837 90.3629 129.666 90.6841 129.476C91.0053 129.286 91.3265 129.097 91.6477 128.926C92.9137 128.243 94.2363 127.769 95.3889 127.977C95.9369 128.072 96.4092 128.243 96.7682 128.471C97.1272 128.698 97.4107 129.04 97.5807 129.476C97.6752 129.704 97.7508 129.95 97.7697 130.235C97.7886 130.368 97.7886 130.52 97.8075 130.652C97.8075 130.804 97.8263 130.956 97.8075 131.108C97.7886 131.715 97.6752 132.36 97.5051 132.986C97.4296 133.289 97.3162 133.612 97.2217 133.915C97.1272 134.219 97.0139 134.522 96.9005 134.826C96.6738 135.433 96.447 136.002 96.2014 136.59C95.7101 137.747 95.1433 138.905 94.5009 140.157C93.7262 141.655 92.9137 143.173 92.0823 144.71C91.6666 145.469 91.2698 146.246 90.8542 147.005C90.4574 147.783 90.0795 148.504 89.6638 149.225C89.2292 149.984 88.7001 150.648 88.1144 151.141C87.5287 151.653 86.8673 151.995 86.2249 152.165C85.5825 152.336 84.959 152.317 84.3732 152.165C84.3354 152.165 84.2976 152.146 84.2599 152.146L84.1465 152.108C84.0709 152.089 83.9953 152.07 83.9198 152.051C83.8442 152.014 83.7686 151.995 83.693 151.957L83.5796 151.919L83.4663 151.862C83.3907 151.824 83.3151 151.786 83.2395 151.767C83.164 151.729 83.0884 151.691 83.0128 151.653L82.8994 151.596L82.7861 151.52C82.7105 151.482 82.6349 151.425 82.5593 151.388C81.5579 150.743 80.5376 149.775 79.7251 148.618C79.3283 148.03 78.9882 147.404 78.7615 146.759C78.5347 146.114 78.4402 145.412 78.4969 144.71C78.5536 144.141 78.6859 143.571 78.8937 143.002C79.1016 142.452 79.3661 141.902 79.6873 141.371C80.3108 140.308 81.0855 139.322 81.9169 138.336C82.2948 137.88 82.6916 137.444 82.4271 137.216C82.0681 136.913 81.8224 137.292 81.3501 137.861C80.7076 138.62 80.0463 139.36 79.4039 140.119C78.7804 140.897 78.1568 141.693 77.6845 142.623C77.2121 143.534 76.872 144.596 76.872 145.696C76.8531 146.797 77.1365 147.878 77.6278 148.826C78.0435 149.642 78.4969 150.382 79.0071 151.065C79.5173 151.748 80.0652 152.393 80.7076 152.943C81.3501 153.493 82.087 153.949 82.9372 154.214C83.7686 154.48 84.7133 154.537 85.6014 154.29C85.7337 154.271 85.8659 154.214 85.9793 154.176C86.1116 154.138 86.2249 154.1 86.3572 154.062C86.4706 154.024 86.6028 153.987 86.7162 153.93C86.7729 153.911 86.8296 153.892 86.8862 153.873L87.0563 153.797C87.1697 153.759 87.283 153.702 87.3964 153.664C87.5098 153.626 87.6042 153.569 87.7176 153.512C87.831 153.455 87.9443 153.417 88.0388 153.36C88.1522 153.304 88.2467 153.247 88.3411 153.209C89.1725 152.772 89.9472 152.241 90.5707 151.482C91.3076 150.591 91.7989 149.661 92.2335 148.732C92.6681 147.802 93.1026 146.891 93.7073 145.943C94.5386 144.672 95.0488 143.344 95.5212 141.997C95.9935 140.65 96.4092 139.303 97.0517 137.918C97.6374 136.647 98.2609 135.414 98.8656 134.181C99.1679 133.555 99.4702 132.891 99.7158 132.17C99.9615 131.449 100.132 130.671 100.132 129.799L100.113 129.457V129.286L100.094 129.116C100.075 129.002 100.056 128.888 100.037 128.774L99.9426 128.433C99.9237 128.319 99.867 128.205 99.8292 128.091C99.7914 127.977 99.7536 127.864 99.6969 127.75C99.5836 127.522 99.4702 127.294 99.319 127.105C99.0356 126.687 98.6577 126.308 98.2609 126.004C97.8452 125.701 97.3918 125.492 96.9383 125.321C96.0313 125.018 95.1055 124.961 94.1985 125.094C93.9718 125.132 93.7451 125.17 93.5372 125.246C93.3294 125.302 93.1215 125.378 92.9326 125.454C92.5358 125.606 92.1579 125.796 91.8178 126.004C91.1943 126.365 90.6274 126.763 90.0606 127.143C89.9283 127.238 89.796 127.332 89.6449 127.427C89.5126 127.522 89.3804 127.617 89.2292 127.712C88.9458 127.92 88.6624 128.11 88.3978 128.338C87.3019 129.211 86.3383 130.216 85.6014 131.335C84.3732 133.251 83.2962 135.054 81.9169 136.894L81.3501 137.482C81.0666 137.975 80.6698 138.43 80.9533 138.658Z" fill="#063844"/>
<path d="M103.098 142.698C104.572 140.422 106.518 135.774 107.292 133.175C107.5 132.511 104.005 127.863 101.737 129.855C97.3537 133.744 95.3886 139.056 93.8015 144.709C91.8553 152.203 98.374 152.772 99.6211 152.26C104.968 150.097 110.146 148.959 113.924 144.576" fill="#BADFD8"/>
<path d="M103.079 142.68C103.476 142.945 103.627 142.566 103.948 142.035C104.704 140.669 105.384 139.284 106.026 137.899C106.348 137.197 106.669 136.495 106.971 135.793C107.122 135.433 107.273 135.091 107.425 134.731C107.5 134.56 107.576 134.37 107.651 134.181L107.765 133.896L107.897 133.517C107.935 133.346 108.01 133.194 107.991 133.005C107.991 132.834 107.935 132.663 107.878 132.492C107.765 132.17 107.576 131.809 107.443 131.601C107.16 131.126 106.839 130.671 106.48 130.235C106.121 129.817 105.705 129.4 105.214 129.04C104.968 128.85 104.704 128.679 104.401 128.527C104.099 128.376 103.759 128.262 103.381 128.186C102.928 128.11 102.399 128.129 101.926 128.3C101.813 128.338 101.681 128.395 101.586 128.452C101.473 128.508 101.378 128.565 101.265 128.641C101.17 128.717 101.076 128.774 100.981 128.85L100.906 128.907L100.868 128.945L100.774 129.021C100.547 129.248 100.32 129.476 100.112 129.704C99.9045 129.95 99.7155 130.178 99.5077 130.425C98.733 131.411 98.1283 132.473 97.5237 133.517C96.938 134.541 96.4278 135.509 95.9177 136.476C95.4075 137.444 94.9351 138.449 94.425 139.569C93.8392 140.915 93.3102 142.3 92.8567 143.742L92.6866 144.292C92.63 144.482 92.5922 144.691 92.5355 144.88C92.4788 145.07 92.4599 145.279 92.4221 145.487C92.3843 145.696 92.3654 145.886 92.3465 146.095C92.271 146.91 92.2898 147.783 92.5166 148.618C92.7244 149.433 93.0267 150.211 93.4802 150.894C93.9148 151.596 94.5005 152.184 95.1619 152.658C95.8232 153.133 96.5412 153.493 97.3348 153.721C97.7316 153.835 98.1472 153.911 98.5818 153.948C98.8086 153.967 99.0353 153.967 99.2998 153.948L99.5077 153.93L99.6021 153.911L99.7155 153.892C99.8856 153.873 100.056 153.816 100.207 153.759C100.358 153.702 100.49 153.664 100.641 153.607C100.774 153.55 100.925 153.493 101.057 153.436C103.457 152.469 105.932 151.008 108.275 149.566C109.239 148.978 110.145 148.352 110.996 147.688C111.846 147.005 112.658 146.284 113.452 145.487C113.792 145.108 114.151 144.748 113.887 144.52C113.528 144.216 113.339 144.52 112.923 144.975C111.77 146.151 110.391 146.967 108.955 147.631C107.519 148.314 106.026 148.864 104.534 149.604C102.776 150.477 101.019 150.875 99.3376 151.52C99.2809 151.539 99.2242 151.558 99.1487 151.558C99.0731 151.577 98.9975 151.577 98.903 151.596C98.733 151.615 98.5629 151.615 98.374 151.615C97.9961 151.615 97.6182 151.577 97.2403 151.539C96.5034 151.444 95.9177 151.027 95.5587 150.553C95.1808 150.059 95.0107 149.528 94.8029 148.997C94.6895 148.675 94.595 148.333 94.5005 148.011C94.425 147.669 94.3683 147.309 94.3494 146.948L94.3305 146.664C94.3305 146.569 94.3305 146.474 94.3305 146.379C94.3305 146.284 94.3305 146.189 94.3494 146.095C94.3683 146 94.3683 145.905 94.3872 145.791C94.4061 145.696 94.425 145.601 94.4439 145.487C94.4628 145.393 94.5005 145.298 94.5194 145.184C94.5383 145.089 94.5761 144.994 94.6139 144.88C94.6517 144.786 94.6895 144.672 94.7462 144.558C95.2374 143.42 95.4642 142.262 95.7098 141.124C95.9554 139.986 96.22 138.829 96.7868 137.709C97.3159 136.685 97.9583 135.736 98.6385 134.883C98.8086 134.674 98.9786 134.465 99.1676 134.257C99.3565 134.067 99.5266 133.858 99.7155 133.669C100.093 133.289 100.471 132.91 100.868 132.568L101.152 132.303C101.246 132.208 101.359 132.132 101.454 132.056C101.662 131.885 101.851 131.715 102.058 131.563C102.266 131.411 102.474 131.24 102.663 131.089L102.739 131.032H102.758C102.776 131.032 102.795 131.013 102.795 131.013C102.814 131.013 102.814 131.013 102.833 131.013H102.852C102.871 131.013 102.89 131.013 102.947 131.032C103.003 131.032 103.117 131.051 103.268 131.107C103.419 131.164 103.57 131.24 103.759 131.316C103.948 131.411 104.137 131.525 104.326 131.658C104.704 131.904 105.082 132.246 105.384 132.625C105.46 132.72 105.535 132.815 105.592 132.91L105.63 132.967L105.648 132.986L105.667 133.024C105.705 133.062 105.724 133.118 105.705 133.175V133.213C105.705 133.232 105.705 133.213 105.686 133.289L105.592 133.631C105.535 133.858 105.46 134.086 105.403 134.333C105.289 134.807 105.176 135.281 105.119 135.774C104.855 137.596 104.383 139.322 103.57 141.067C103.438 141.257 103.306 141.447 103.173 141.617C103.06 142.092 102.776 142.471 103.079 142.68Z" fill="#063844"/>
<path d="M53.9908 64.6337C54.1419 64.3681 54.312 64.1215 54.5009 63.8748L55.03 63.135C55.1622 62.9453 55.4457 62.5279 55.8613 62.0536C56.0692 61.826 56.277 61.5604 56.5227 61.2948C56.7494 61.0292 56.995 60.7446 57.2407 60.498C57.7508 59.9858 58.2232 59.4736 58.62 59.0942C59.0357 58.7337 59.3191 58.4681 59.3947 58.3922C60.2072 57.7282 61.0763 57.1591 61.8888 56.571C62.0966 56.4193 62.3045 56.2865 62.5123 56.1537C62.7202 56.0209 62.928 55.8881 63.1359 55.7363C63.5326 55.4517 63.9294 55.1672 64.3262 54.9016C64.7797 54.5791 65.2332 54.2566 65.6678 53.8961C66.1212 53.5736 66.5747 53.2511 67.0093 52.9096C67.236 52.7579 67.4439 52.5682 67.6895 52.4164L68.3886 51.9611L69.0877 51.5248C69.2011 51.4489 69.3334 51.373 69.4467 51.3161L69.8246 51.1264C70.1836 50.9367 70.5615 50.747 70.9583 50.5383C71.1662 50.4434 71.3551 50.3106 71.5629 50.2158C71.7708 50.1209 71.9786 50.0261 72.1865 49.9122C72.6022 49.7036 73.0178 49.5138 73.4335 49.3241C73.8492 49.1534 74.246 48.9827 74.605 48.8309C74.9451 48.7171 75.3419 48.5653 75.6631 48.4704C76.0977 48.3566 76.5323 48.2428 77.0047 48.11C77.2314 48.0531 77.477 47.9772 77.7415 47.9203C77.9872 47.8823 78.2517 47.8254 78.5351 47.7685C79.0264 47.6737 79.4988 47.5978 79.9333 47.5029C80.3679 47.427 80.7647 47.3701 81.1048 47.3132C81.785 47.1804 82.2196 47.0666 82.2007 46.9717C82.2007 46.8769 81.7661 46.8579 81.067 46.9148C80.7269 46.9338 80.3112 46.9717 79.8578 47.0286C79.4043 47.1045 78.913 47.1994 78.4029 47.2942C78.1006 47.3512 77.8171 47.4081 77.5337 47.465C77.2503 47.5409 76.9858 47.5978 76.7212 47.6737C76.4567 47.7495 76.1922 47.8065 75.9465 47.8634C75.7009 47.9393 75.4364 47.9772 75.2096 48.0721C74.8317 48.1479 74.435 48.2238 74.0571 48.2997C73.8681 48.3376 73.6603 48.3756 73.4713 48.4135L73.169 48.4704C73.0745 48.4894 72.9801 48.5274 72.8856 48.5463C72.4888 48.6412 72.1109 48.755 71.7141 48.8688C71.3362 48.9827 70.9394 49.0775 70.5804 49.2482C70.0703 49.4569 69.5601 49.6846 69.0688 49.8933C68.8043 49.9881 68.5587 50.1209 68.313 50.2537L67.5761 50.6331L66.6692 51.0125L65.7811 51.4489C65.1954 51.7524 64.5908 52.0559 64.0617 52.4543C63.6082 52.7768 63.1359 53.1183 62.6824 53.4598C62.2478 53.8202 61.8132 54.1997 61.3786 54.5791C60.9441 54.9585 60.5473 55.3569 60.1505 55.7742C59.9615 55.9829 59.7537 56.1726 59.5647 56.3813C59.4703 56.4762 59.3758 56.59 59.2813 56.6848C59.1868 56.7987 59.1113 56.8935 59.0168 57.0074C58.5633 57.4627 58.1098 57.9369 57.6752 58.3922C57.2785 58.8855 56.8817 59.3787 56.5038 59.9099C56.4282 60.0237 56.3526 60.1186 56.2581 60.2324C56.1826 60.3462 56.107 60.4601 56.0314 60.5739C55.8802 60.8015 55.7291 61.0292 55.5779 61.2568C55.2756 61.7121 54.9733 62.1674 54.7654 62.6417C54.5765 62.9263 54.3875 63.2108 54.1986 63.4954C54.0097 63.78 53.7829 64.0835 53.6129 64.406C53.1405 65.2028 52.6492 66.1324 52.7626 66.2083C52.9515 66.3221 53.3483 65.696 53.9908 64.6337Z" fill="#FFD58E"/>
<path d="M123.334 167.627C123.636 167.608 123.938 167.57 124.241 167.532C124.543 167.494 124.845 167.475 125.147 167.418C125.639 167.342 127.15 167.134 128.586 166.811C129.304 166.66 130.003 166.47 130.533 166.318C131.062 166.147 131.458 166.052 131.553 166.015C133.631 165.483 135.672 164.819 137.391 163.776C137.901 163.472 138.374 163.131 138.827 162.789C139.281 162.429 139.734 162.069 140.169 161.67C141.038 160.911 141.851 160.077 142.663 159.28C143.834 158.123 145.195 156.434 146.064 155.068C146.272 154.784 146.518 154.423 146.725 154.158C146.858 153.968 146.971 153.778 147.103 153.589C147.16 153.494 147.236 153.399 147.311 153.304C147.368 153.209 147.443 153.095 147.5 153C147.632 152.792 147.765 152.583 147.916 152.355C148.048 152.128 148.199 151.9 148.331 151.654C148.464 151.445 148.596 151.217 148.709 151.009C148.823 150.8 148.936 150.591 149.049 150.382C149.238 149.984 149.408 149.605 149.56 149.282C149.805 148.637 149.937 148.201 149.843 148.163C149.749 148.125 149.522 148.485 149.201 149.092C149.031 149.396 148.842 149.737 148.634 150.136C148.52 150.326 148.407 150.534 148.294 150.743C148.18 150.952 148.048 151.179 147.916 151.388C147.311 152.431 146.706 153.285 146.121 154.082C145.082 155.201 143.872 156.226 142.757 157.25C142.002 157.971 141.208 158.654 140.377 159.318C139.356 160.039 138.26 160.646 137.221 161.329C136.787 161.632 136.333 161.898 135.88 162.201C135.426 162.486 134.973 162.789 134.5 163.055C134.047 163.34 133.575 163.605 133.102 163.871C132.875 164.004 132.63 164.117 132.403 164.25C132.29 164.307 132.176 164.383 132.063 164.44C131.95 164.497 131.836 164.554 131.704 164.611C131.421 164.724 131.137 164.838 130.854 164.952C130.57 165.066 130.287 165.161 130.003 165.275C129.437 165.483 128.87 165.711 128.303 165.92C128.19 165.958 128.057 166.015 127.944 166.052C127.812 166.09 127.698 166.128 127.566 166.185C127.32 166.261 127.056 166.356 126.81 166.432C126.3 166.584 125.79 166.754 125.318 166.906C124.996 166.963 124.656 167.02 124.316 167.077C123.976 167.115 123.636 167.172 123.277 167.21C122.389 167.305 121.369 167.38 121.35 167.532C121.35 167.627 121.52 167.684 121.86 167.703C122.03 167.703 122.238 167.722 122.483 167.703C122.748 167.665 123.031 167.646 123.334 167.627Z" fill="#FFD58E"/>
</svg>
