<svg width="165" height="164" viewBox="0 0 165 164" fill="none" xmlns="http://www.w3.org/2000/svg">
<path d="M81.7569 25.7256L33.9905 74.2463C33.9298 74.3082 33.8888 74.3866 33.8725 74.4718C33.8562 74.5569 33.8654 74.6449 33.8989 74.7248C33.9325 74.8048 33.9888 74.873 34.061 74.921C34.1331 74.969 34.2179 74.9947 34.3045 74.9948H131.3C131.387 74.9947 131.472 74.969 131.544 74.921C131.616 74.873 131.672 74.8048 131.706 74.7248C131.74 74.6449 131.749 74.5569 131.732 74.4718C131.716 74.3866 131.675 74.3082 131.614 74.2463L83.8481 25.7256C83.7115 25.587 83.5488 25.4769 83.3692 25.4017C83.1897 25.3265 82.9971 25.2878 82.8025 25.2878C82.6078 25.2878 82.4152 25.3265 82.2357 25.4017C82.0562 25.4769 81.8934 25.587 81.7569 25.7256Z" fill="#BADFD8"/>
<path d="M81.7748 25.7433C81.5106 25.4835 80.5582 26.5328 78.9234 28.1925C65.4604 41.8669 52.2042 55.0027 38.3141 68.5611C37.5882 69.2695 36.8706 69.9788 36.1613 70.6891C35.8061 71.0442 35.4529 71.3988 35.1017 71.753L33.5168 73.3673C33.3076 73.5836 33.1492 73.8438 33.053 74.1289C33.0328 74.1807 33.0156 74.2336 33.0017 74.2874L32.9591 74.4342C32.9318 74.542 32.9243 74.6539 32.9371 74.7644C32.9529 74.9083 32.9952 75.0482 33.0619 75.1767C33.1238 75.2967 33.2074 75.4041 33.3084 75.4937C33.3892 75.5566 33.4768 75.6103 33.5696 75.6537C33.6195 75.6786 33.6577 75.7036 33.7164 75.7271L33.8866 75.7975C34.0237 75.8472 34.1652 75.8836 34.3092 75.9061C34.4858 75.9297 34.664 75.9381 34.842 75.931H35.9587L37.4571 75.9134L42.6418 75.8151C46.0802 75.7417 49.4878 75.6596 52.8881 75.6155C61.4716 75.5025 68.7902 75.5935 77.7553 75.7109C88.4931 75.8503 99.8723 75.9824 110.855 75.8019C116.752 75.705 122.13 75.843 127.542 76.003L128.558 76.0323L129.067 76.047L129.893 76.0631L130.819 76.0778C130.975 76.0778 131.132 76.0778 131.276 76.0778C131.345 76.0756 131.413 76.0668 131.48 76.0514C131.542 76.0433 131.603 76.0296 131.663 76.0103L131.828 75.9575C131.878 75.9403 131.927 75.9202 131.974 75.8973C132.018 75.8767 132.068 75.8562 132.106 75.8357L132.215 75.7711C132.25 75.7491 132.288 75.7271 132.321 75.705C132.353 75.683 132.382 75.661 132.413 75.6361C132.49 75.5707 132.558 75.4957 132.616 75.413C132.75 75.2213 132.836 74.9996 132.865 74.7673C132.874 74.6819 132.874 74.5959 132.865 74.5105C132.865 74.4356 132.842 74.3491 132.831 74.2683C132.821 74.1876 132.783 74.082 132.755 73.988L132.688 73.8296C132.678 73.8016 132.666 73.7746 132.651 73.7488L132.6 73.6637C132.43 73.4116 132.234 73.1792 132.013 72.9711L131.339 72.2681L130.982 71.9086L130.8 71.7149L130.086 70.9532C128.178 68.9178 126.189 66.8441 124.069 64.6972C117.056 57.5885 109.43 50.5414 102.219 43.5326C96.3385 37.8092 90.7722 32.3574 85.0488 26.5342L84.0803 25.5539C83.907 25.3739 83.6974 25.2329 83.4654 25.1401C83.2565 25.0571 83.0326 25.0186 82.8079 25.0271C82.476 25.0337 82.1565 25.155 81.9039 25.3705C81.7337 25.5305 81.6912 25.664 81.7396 25.7095C81.7569 25.7257 81.7776 25.7379 81.8002 25.7452C81.8227 25.7526 81.8466 25.7549 81.8702 25.7521C81.9343 25.7446 81.9973 25.7299 82.058 25.708C82.2531 25.6307 82.4582 25.5813 82.6671 25.5613C82.9854 25.5426 83.2992 25.6431 83.5476 25.843C83.5828 25.8768 83.6136 25.9017 83.6547 25.9428L83.7824 26.072L84.0495 26.342L84.6365 26.929C93.4519 35.8809 101.504 44.7345 110.551 53.5587C114.437 57.3493 117.92 60.9623 121.357 64.5225C123.075 66.3026 124.781 68.0681 126.521 69.8364C127.39 70.7169 128.27 71.6023 129.163 72.4926L129.805 73.1281L130.232 73.5419L130.684 73.9734C130.725 74.0079 130.761 74.0479 130.792 74.0922C130.818 74.1365 130.833 74.1872 130.834 74.239C130.835 74.2907 130.822 74.3416 130.796 74.3864C130.77 74.4312 130.733 74.468 130.687 74.4929C130.633 74.5174 130.573 74.5284 130.513 74.5252H130.331L129.964 74.534L129.22 74.5428H128.159L127.102 74.5296C125.708 74.5046 124.367 74.4562 123.037 74.4019C120.378 74.2933 117.764 74.1583 114.863 74.1319C108.07 74.0717 102.357 74.4166 95.323 74.239C85.8941 74.0013 77.5806 74.5956 68.0755 74.4929C61.9119 74.4268 55.9068 74.2639 49.9662 74.0981L41.0863 73.8589L36.6529 73.7606H36.5061H36.4372C36.421 73.7606 36.421 73.7606 36.421 73.7606H36.4005L36.3638 73.7503C36.3471 73.7455 36.3309 73.7391 36.3154 73.7312C36.3021 73.7312 36.2992 73.6989 36.3154 73.6843C36.3315 73.6696 36.3535 73.6608 36.3682 73.652L36.3975 73.6388L37.0066 73.0342L38.3655 71.6738C39.2714 70.7639 40.1754 69.8472 41.0775 68.9236C42.8835 67.0745 44.6856 65.1912 46.4838 63.2737C51.8564 57.5298 57.951 51.6098 63.3501 45.5768C67.9287 40.4596 72.4487 35.5903 77.4838 30.3718L79.327 28.5917C80.6536 27.2607 81.9744 25.9399 81.7748 25.7433Z" fill="#063844"/>
<path d="M132.352 71.9438L82.7003 112.195L34.0065 74.4503C34.4485 74.0171 35.0387 73.7684 35.6574 73.7547L87.1234 72.3488L130.487 71.1748C130.835 71.1651 131.181 71.2292 131.503 71.3627C131.824 71.4962 132.114 71.6963 132.352 71.9496V71.9438Z" fill="#F7F4F2"/>
<path d="M132.368 71.9615C132.134 71.6679 131.132 72.5602 129.422 73.9455C115.347 85.354 101.514 96.2695 87.0359 107.506C86.1935 108.161 85.3619 108.817 84.5411 109.474L83.3127 110.462L82.8475 110.835L82.6788 110.981L79.459 108.553L75.6567 105.723C73.1311 103.855 70.6216 102.009 68.14 100.147C61.6653 95.2701 56.2604 90.9644 49.6492 85.6842C45.6869 82.5232 41.6013 79.2712 37.4688 76.0324L36.4225 75.212L36.1656 75.008L36.038 74.9082L35.9734 74.8583C35.9913 74.838 36.0115 74.8198 36.0336 74.804C36.1202 74.7354 36.2202 74.6855 36.3271 74.6573C36.4331 74.6313 36.5423 74.62 36.6514 74.6235L38.0338 74.5795C40.6563 74.4973 43.2714 74.4005 45.8616 74.286C56.9869 73.7871 66.1824 74.286 77.5718 73.9514C86.9933 73.6755 96.7699 72.9241 106.25 72.4413C113.987 72.0524 121.335 71.7178 129.047 71.508L130.347 71.4698H130.494C130.539 71.4698 130.583 71.4698 130.627 71.4698C130.714 71.4712 130.8 71.477 130.885 71.4874C131.043 71.5089 131.198 71.5442 131.349 71.5931C131.916 71.7795 132.23 72.0774 132.334 71.9761C132.401 71.913 132.394 71.803 132.296 71.6547C132.143 71.4461 131.941 71.2779 131.709 71.1646C131.338 70.9756 130.926 70.8818 130.51 70.8916L129.026 70.9357C117.167 71.2585 105.869 71.0956 93.9523 71.6694C83.7134 72.1684 74.9978 71.9732 65.2989 72.4956C59.4772 72.8097 55.0747 72.4413 49.5964 72.5397C46.3899 72.5969 43.4402 72.748 40.4625 72.886L38.2202 72.9858L37.0858 73.0298L36.3139 73.0562C36.0293 73.0569 35.7451 73.0746 35.4627 73.1091C35.2165 73.14 34.9738 73.1941 34.7377 73.2705C34.515 73.3439 34.3013 73.4423 34.1008 73.564C33.9036 73.6826 33.7157 73.816 33.5388 73.9632C33.4463 74.0395 33.3524 74.1202 33.2585 74.2068L33.1895 74.2713C33.1792 74.2713 33.1895 74.2816 33.1895 74.2875L33.2027 74.3021L33.2277 74.333L33.3274 74.4562L33.7266 74.9508L33.9262 75.2017L34.026 75.3279L34.0759 75.391L34.1654 75.463L35.6403 76.637L36.9464 77.6936L38.229 78.7106C39.0821 79.3798 39.9318 80.0353 40.7781 80.6771C42.4716 81.9655 44.1534 83.2115 45.8498 84.4545C49.2251 86.9492 52.6312 89.422 56.146 92.2118C60.6219 95.7646 64.9188 99.297 69.1702 102.797L75.5275 108.026L78.7121 110.619L80.3102 111.912L81.1305 112.571C81.6598 112.986 82.1891 113.403 82.7184 113.821L86.4709 110.832C87.46 110.04 88.4471 109.243 89.4323 108.44C91.4056 106.831 93.3775 105.185 95.3479 103.501C100.989 98.6718 107.339 93.7673 113.029 88.6618C117.854 84.3297 122.597 80.228 127.874 75.8607L129.794 74.3931C131.164 73.2793 132.545 72.1801 132.368 71.9615Z" fill="#063844"/>
<path d="M132.021 71.6064L132.353 71.9439L82.6931 112.195L34.0066 74.4504L33.3903 73.8443L87.1236 72.3504L131.651 71.4229L132.021 71.6064Z" fill="#063844"/>
<path d="M35.9246 73.8501C35.6883 74.1348 36.2914 74.5604 37.2248 75.3353C44.9043 81.7072 52.2243 88.0822 59.7439 94.8254C63.3144 98.0305 67.0551 100.657 70.6183 103.46C74.1242 106.224 76.9946 108.724 80.5079 111.791L81.3503 112.525L82.7004 113.68L84.6184 112.094L86.0566 110.909C87.0164 110.115 87.9761 109.313 88.9359 108.503C90.8437 106.888 92.7514 105.232 94.58 103.562C99.1131 99.4261 103.441 96.7068 108.194 92.6095C112.126 89.2195 115.906 85.3408 119.735 81.7762C122.859 78.8749 125.846 76.1395 129.074 73.3761C129.815 72.7407 130.564 72.1214 130.38 71.9086C130.139 71.6268 129.619 72.1493 128.697 72.9359C123.732 77.1917 118.702 80.8708 113.875 85.3379C109.729 89.174 105.804 91.9638 101.909 95.637C99.571 97.8383 97.4152 99.0431 95.0892 100.966C92.3655 103.217 90.333 105.411 87.4375 107.655C86.4939 108.388 85.609 109.132 84.7534 109.89C84.3249 110.268 83.9052 110.648 83.4899 111.03C82.9733 111.499 82.919 111.577 82.6813 111.815L82.3203 111.568L82.222 111.502L82.0473 111.369L81.6907 111.1C81.2152 110.739 80.7383 110.377 80.2613 110.007C79.306 109.266 78.3536 108.497 77.3894 107.659C70.4436 101.649 64.5662 95.4873 57.2844 90.0281C54.0103 87.5715 50.7319 84.5983 47.2494 82.2165C44.2953 80.1898 41.5129 78.1382 38.5646 75.7829L37.5814 74.8818C36.8418 74.2654 36.1051 73.6329 35.9246 73.8501Z" fill="#063844"/>
<path d="M115.573 32.0918H42.0736C41.7484 32.0916 41.4263 32.1555 41.1257 32.2798C40.8252 32.4042 40.5521 32.5865 40.3221 32.8164C40.092 33.0463 39.9095 33.3193 39.785 33.6198C39.6605 33.9202 39.5964 34.2423 39.5964 34.5675V130.448H128.119V44.6406L115.573 32.0918Z" fill="#F7F4F2"/>
<path d="M115.574 32.1021C115.574 31.7308 111.547 31.788 104.919 31.788C91.6354 31.788 78.1929 31.7411 64.6609 31.6706L44.3005 31.5518L43.0252 31.5444H42.3883H42.0669C41.9369 31.5454 41.8071 31.5538 41.6781 31.5694C41.0222 31.6501 40.4107 31.9431 39.9368 32.4035C39.4628 32.864 39.1523 33.4667 39.0527 34.1199C39.0316 34.2496 39.0193 34.3805 39.016 34.5118C39.016 34.5822 39.016 34.6292 39.016 34.6835V34.8434L39.0072 36.1202L38.9896 38.6751C38.9651 42.0808 38.9406 45.4893 38.9162 48.9008C38.8252 62.5488 38.7342 76.207 38.6432 89.8227C38.609 96.631 38.5762 103.424 38.5449 110.202C38.5292 117.344 38.5126 124.465 38.495 131.566L57.7195 131.555C63.7276 131.541 69.7018 131.515 75.6424 131.478L128.781 131.114C128.702 116.976 128.623 102.774 128.541 88.3111C128.514 81.1927 128.488 74.0018 128.461 66.7385C128.448 59.4264 128.435 52.0178 128.422 44.5129L123.315 39.4104C119.537 35.6329 115.792 31.8644 115.593 32.0639C115.332 32.3266 118.22 35.1325 122.905 39.8198L127.844 44.7595C127.844 59.2395 127.833 73.5508 127.827 87.7843C127.803 94.9194 127.779 102.039 127.756 109.143C127.734 112.697 127.713 116.249 127.691 119.8L127.65 125.125L127.626 127.789L127.615 129.121L127.601 129.936H127.182L104.985 129.729L82.9844 129.559L61.224 129.43L40.7051 129.353V125.685C40.6982 124.246 40.6919 122.852 40.686 121.501C40.6669 118.793 40.6405 116.237 40.6082 113.759C40.5466 108.805 40.4688 104.165 40.4219 99.2559C40.2751 84.1287 40.7418 71.8514 40.6992 57.3303C40.6787 50.5327 40.6234 43.7102 40.5334 36.8627L40.5172 35.5801L40.5084 34.9373V34.6174V34.5514V34.5C40.5062 34.4658 40.5062 34.4315 40.5084 34.3973C40.5358 34.1228 40.6337 33.86 40.7926 33.6345C40.9515 33.409 41.166 33.2284 41.4154 33.1103C41.5412 33.0507 41.6745 33.0083 41.8116 32.9841C41.8453 32.9841 41.8791 32.9709 41.9143 32.9665L42.02 32.9591H42.0743H42.155H42.315L43.6005 32.9415L46.1716 32.9048L56.4648 32.7493C70.1949 32.5394 83.9471 32.3266 97.6244 32.2811L104.911 32.3839C110.257 32.3677 115.574 32.3824 115.574 32.1021Z" fill="#063844"/>
<path d="M63.001 65.1404V50.2289H69.3113C71.5615 50.2289 73.3133 50.8702 74.5665 52.1528C75.8198 53.4354 76.4454 55.2654 76.4435 57.6428C76.4527 58.6414 76.3096 59.6355 76.0194 60.5911C75.7481 61.5122 75.2594 62.3546 74.5943 63.0473C73.9292 63.74 73.1073 64.2625 72.1979 64.571C71.1765 64.9506 69.9272 65.1404 68.4499 65.1404H63.001ZM67.3199 61.7313H68.4279C69.2996 61.7313 69.9937 61.5518 70.5103 61.1927C71.0274 60.8318 71.4156 60.315 71.6183 59.7179C71.8512 59.0331 71.9644 58.3132 71.9529 57.59C71.9529 56.416 71.6863 55.4626 71.1531 54.7298C70.6199 53.997 69.757 53.633 68.5644 53.6379H67.3199V61.7313Z" fill="#063844"/>
<path d="M67.3766 61.3527C67.3766 60.9198 67.4191 60.4868 67.3986 60.0539C67.3648 59.3363 67.4279 59.2864 67.4265 58.8799C67.4265 58.67 67.4353 58.1843 67.4397 57.9744C67.4441 57.7646 67.3868 57.3962 67.3912 57.2025V57.1277C67.4162 56.3015 67.5982 55.4488 67.5982 54.6872C67.5982 54.5111 67.5908 54.3379 67.5806 54.1633L67.5732 54.0327V53.9681C67.5746 53.952 67.5746 53.9358 67.5732 53.9197C67.5659 53.9041 67.56 53.8879 67.5556 53.8712C67.5704 53.8636 67.5862 53.8582 67.6026 53.8551C67.9739 53.839 68.4112 53.8169 68.7971 53.814C69.229 53.8098 69.6582 53.8818 70.0651 54.0268C70.4005 54.159 70.6976 54.3729 70.9294 54.649C71.1544 54.928 71.3332 55.2411 71.4592 55.5765C71.7211 56.3124 71.8324 57.0934 71.7865 57.8732C71.7786 58.2657 71.7507 58.6575 71.7028 59.0472C71.6579 59.4382 71.543 59.818 71.3638 60.1684C71.2146 60.4383 71.0183 60.6794 70.7842 60.8801C70.5552 61.0804 70.2962 61.2433 70.0166 61.3629C69.7239 61.4762 69.4206 61.5598 69.1112 61.6124C68.7611 61.67 68.4061 61.6917 68.0516 61.677C67.6657 61.677 67.3281 61.6917 67.3267 61.743C67.3252 61.7944 67.6554 61.8076 68.0516 61.8061C68.5196 61.8254 68.9883 61.7959 69.4502 61.7181C69.6589 61.6795 69.8634 61.6205 70.0607 61.542C70.2898 61.4513 70.5048 61.3282 70.699 61.1766C70.9284 61.0019 71.1311 60.7948 71.3007 60.5617C71.5288 60.2425 71.6991 59.8859 71.8041 59.508C71.9714 58.9824 72.0701 58.4373 72.0976 57.8864C72.1093 57.5078 72.0976 57.2862 72.0859 57.1247C72.0741 56.9633 72.0682 56.862 72.058 56.7182C72.0446 56.3341 71.9795 55.9535 71.8643 55.5868C71.715 55.1543 71.4821 54.7554 71.1789 54.4128C70.8759 54.0875 70.4996 53.8395 70.0812 53.6893C69.6762 53.5435 69.253 53.4546 68.8236 53.4251C68.6313 53.4104 68.4464 53.4031 68.2644 53.3987C68.0825 53.3943 67.8961 53.3914 67.7126 53.3987H67.0596L67.0508 54.0738C67.0508 54.2107 67.0508 54.3472 67.0508 54.4832C67.0508 55.6778 67.2357 57.0836 67.2372 57.2818C67.2372 57.5665 67.2254 57.8512 67.2372 58.13C67.2474 58.3648 67.2372 58.6422 67.2445 58.8784L67.2533 60.1038C67.2533 60.5631 67.2738 60.9242 67.2738 61.3791C67.2738 61.5552 67.2871 61.7548 67.3252 61.7577C67.3634 61.7606 67.3766 61.5933 67.3766 61.3527Z" fill="#063844"/>
<path d="M63.8529 65.1976C64.8274 65.1976 65.8033 65.2402 66.7777 65.2196C67.5863 65.202 68.0177 65.2093 68.3641 65.2196C68.7219 65.2392 69.0805 65.2392 69.4383 65.2196C69.6746 65.2049 70.0693 65.1756 70.4656 65.1213C70.8064 65.0749 71.1445 65.0098 71.4782 64.9261C71.7628 64.8486 72.0413 64.7505 72.3117 64.6326C72.614 64.5035 72.9061 64.3552 73.1027 64.254C73.1585 64.2261 73.2069 64.1982 73.2495 64.1733C73.6698 63.9511 74.0658 63.6855 74.4308 63.3808C74.7947 63.0686 75.1226 62.7167 75.4082 62.3315C75.6905 61.9502 75.9279 61.5375 76.1155 61.1017C76.2928 60.6823 76.428 60.2462 76.5191 59.8001C76.7025 58.811 76.7415 57.8007 76.635 56.8004C76.565 55.8689 76.3537 54.9535 76.0084 54.0855C75.6146 53.1262 74.9852 52.2818 74.1784 51.6304C73.5017 51.0882 72.7248 50.6847 71.892 50.4431C71.0736 50.2083 70.2267 50.0873 69.3752 50.0836C67.5657 50.0689 65.768 50.0645 63.9615 50.063L62.8433 50.0719V50.5121C62.8433 50.6046 62.8433 50.697 62.8433 50.7895C62.8433 50.9729 62.8535 51.1564 62.8594 51.3398C62.8702 51.7057 62.8814 52.0701 62.8932 52.4331C62.9152 53.1669 62.9342 53.9006 62.9313 54.6652C62.9313 55.8642 62.8858 57.725 62.8902 58.921C62.8682 60.5866 62.9342 61.5361 62.9254 63.5173C62.9254 64.3861 62.9416 65.1477 62.9915 65.1492C63.0414 65.1506 63.0561 64.4154 63.0546 63.5173C63.0546 60.9594 63.0722 59.7722 63.0781 57.3772C63.0781 56.2413 63.0854 54.9734 63.0913 52.9218C63.0913 52.4742 63.0986 52.0266 63.1059 51.5805L63.128 50.3756H63.2498H63.4758H63.96C65.6389 50.3756 65.9074 50.3683 66.5399 50.3844C67.5056 50.4108 68.1821 50.4534 69.0274 50.4593C69.9762 50.4339 70.9237 50.5456 71.8406 50.7909C72.6978 51.0262 73.4895 51.455 74.1549 52.0442C74.8115 52.638 75.3149 53.3816 75.6224 54.2117C75.8974 54.968 76.0696 55.7577 76.1346 56.5598C76.2144 57.4403 76.1878 58.3272 76.0554 59.2013C75.9633 59.8582 75.799 60.503 75.5652 61.1238C75.3372 61.7055 75.0231 62.2497 74.6333 62.738C74.3262 63.1231 73.9683 63.4647 73.5694 63.7536C73.3583 63.9081 73.1361 64.047 72.9046 64.1689C72.3387 64.4414 71.7441 64.6496 71.1318 64.7896C70.5871 64.9118 70.0336 64.9908 69.4765 65.0259C69.0186 65.0611 68.5637 65.067 68.1043 65.0655H66.7219L63.8514 65.0861C63.4552 65.0861 63.0062 65.0978 62.9988 65.1374C62.9915 65.1771 63.3129 65.1976 63.8529 65.1976Z" fill="#063844"/>
<path d="M85.7666 65.4515C84.1768 65.4515 82.905 65.2069 81.9511 64.7177C81.0387 64.2699 80.3077 63.5223 79.8804 62.6001C79.4549 61.6804 79.2421 60.5861 79.2421 59.3172V50.2289H83.5507V59.1176C83.5507 60.0304 83.7302 60.729 84.0893 61.2133C84.4483 61.6975 85.0045 61.9421 85.7578 61.947C86.5454 61.947 87.1031 61.7024 87.4308 61.2133C87.7585 60.7241 87.9224 60.0216 87.9224 59.1059V50.2289H92.231V59.3158C92.231 61.2196 91.715 62.717 90.6828 63.8078C89.6507 64.8987 88.0119 65.4466 85.7666 65.4515Z" fill="#063844"/>
<path d="M86.9962 65.4398C87.3471 65.4032 87.6958 65.3488 88.0411 65.2769C88.3879 65.2018 88.7284 65.1003 89.0596 64.9731C89.7309 64.7232 90.3316 64.3143 90.8103 63.7815C91.1224 63.4289 91.3873 63.0372 91.5984 62.6163C91.7344 62.3472 91.8506 62.0686 91.9462 61.7827C91.9887 61.6638 92.0254 61.5508 92.0563 61.4378C92.0871 61.3248 92.1179 61.2148 92.1458 61.0959C92.2095 60.8223 92.255 60.5449 92.2822 60.2653C92.2999 60.0951 92.316 59.8676 92.3263 59.6108C92.3366 59.354 92.3263 59.0722 92.3351 58.7904C92.3351 58.2269 92.3351 57.6634 92.3351 57.3229C92.3351 56.686 92.2837 55.4503 92.2881 54.8281C92.2881 54.7401 92.2881 54.6608 92.2881 54.586C92.2881 53.861 92.3131 53.1317 92.3351 52.4023C92.3478 52.0384 92.36 51.6749 92.3718 51.3119C92.3718 51.1314 92.385 50.9495 92.3923 50.769L92.4026 50.4931L92.4114 50.0323L91.7569 50.0161L91.3034 50.0014L90.4053 49.975C89.8183 49.9603 89.2313 49.9501 88.6663 49.9501H87.6302C87.6302 50.1878 87.6302 50.4256 87.6302 50.6618V51.1021L87.6478 51.9709C87.6581 52.5491 87.6698 53.1258 87.6801 53.7069C87.6962 55.0086 87.7109 56.3265 87.7271 57.6443C87.7271 58.0082 87.7344 58.3781 87.7388 58.7332C87.7519 59.0895 87.7436 59.4463 87.7139 59.8016C87.6851 60.1488 87.604 60.4897 87.4732 60.8127C87.354 61.1305 87.1312 61.3988 86.8407 61.5743C86.5867 61.7125 86.3059 61.7941 86.0174 61.8135C85.7261 61.8414 85.4323 61.8256 85.1457 61.7666C84.866 61.7087 84.6055 61.581 84.3885 61.3953C84.1757 61.1991 84.011 60.9566 83.9071 60.6865C83.7098 60.1326 83.6255 59.5448 83.6591 58.9577C83.6591 58.3541 83.663 57.7519 83.6708 57.1512C83.6782 54.7826 83.684 52.4273 83.6914 50.0631H82.6553C82.0683 50.0631 81.4813 50.0631 80.9119 50.0763L79.0936 50.11C79.1083 50.8585 79.123 51.6054 79.1377 52.3612C79.1494 53.0759 79.1567 53.8009 79.1553 54.5464C79.1553 55.4093 79.1406 56.5084 79.1318 57.6076C79.1318 58.1565 79.123 58.7068 79.1186 59.2219C79.1104 59.7052 79.1389 60.1884 79.2037 60.6674C79.2725 61.2201 79.409 61.7623 79.6102 62.2817C79.7905 62.7578 80.0494 63.2003 80.3762 63.5907C80.7236 63.9992 81.1392 64.3443 81.6046 64.6106C82.1615 64.9283 82.7653 65.1557 83.3935 65.2842C83.932 65.4009 84.4804 65.4663 85.0312 65.4794C85.4715 65.4897 85.7386 65.4677 85.74 65.4442C85.7415 65.4207 85.4744 65.406 85.0503 65.3767C84.5113 65.3403 83.9754 65.2673 83.4463 65.158C82.6499 65.003 81.8979 64.6727 81.245 64.1909C80.7044 63.7825 80.27 63.2499 79.9785 62.6383C79.6973 62.0366 79.5088 61.3959 79.4194 60.7378C79.367 60.3785 79.3356 60.0164 79.3255 59.6533C79.3167 59.2747 79.3255 58.8682 79.3255 58.4382C79.3255 56.8034 79.3328 54.9793 79.3402 52.0281C79.3402 51.7346 79.3402 51.4279 79.3402 51.1285L79.349 50.3419L80.9632 50.3624L82.6905 50.3742H83.4052V52.0178C83.4052 52.4228 83.4052 52.709 83.3949 53.0832C83.3685 54.4715 83.326 55.4445 83.3201 56.6611C83.3201 57.3508 83.3201 58.0479 83.3201 58.7464C83.3201 59.4449 83.3304 60.1993 83.64 60.8861C83.7143 61.0511 83.8063 61.2076 83.9144 61.3527C84.0265 61.5022 84.16 61.6342 84.3107 61.7446C84.6115 61.9575 84.9614 62.0907 85.3277 62.132C85.6795 62.1748 86.0357 62.1639 86.3843 62.0997C86.7519 62.0358 87.0939 61.8689 87.3705 61.6184C87.6268 61.3556 87.8161 61.0349 87.9222 60.6835C88.0282 60.353 88.0947 60.0112 88.1204 59.6651C88.135 59.4948 88.1438 59.3246 88.1453 59.1544V58.6613C88.1453 58.3326 88.1453 58.0038 88.157 57.6781C88.1732 56.504 88.1849 55.3021 88.1835 54.112C88.182 52.9218 88.1937 51.717 88.1996 50.5092L90.1235 50.4901L91.1978 50.4725L91.7202 50.4608H91.955H92.0093C92.0416 51.5834 92.0695 52.6019 92.0929 53.387C92.1164 54.2308 92.1355 54.8237 92.1355 55.0277C92.1355 55.9508 92.1238 56.868 92.1355 57.7705C92.1355 58.1535 92.1355 58.5688 92.1355 58.9841C92.1355 59.3995 92.1355 59.8118 92.0988 60.189C92.0483 60.842 91.9045 61.4845 91.6718 62.0968C91.4358 62.7061 91.0873 63.2657 90.6445 63.7463C90.1732 64.2363 89.6008 64.6179 88.9671 64.8645C88.659 64.9849 88.3427 65.083 88.0206 65.158C87.6787 65.2345 87.3328 65.2918 86.9845 65.3297C86.421 65.3928 85.7767 65.4002 85.7665 65.4412C85.7562 65.4823 86.2229 65.5146 86.9962 65.4398Z" fill="#063844"/>
<path d="M95.5857 65.1404V50.2289H105.858V53.6688H99.8107V56.0843H105.572V59.2116H99.8107V61.7064H105.974V65.1462L95.5857 65.1404Z" fill="#063844"/>
<path d="M96.827 65.1976C98.2461 65.1976 99.6696 65.2402 101.083 65.2196C103.44 65.1859 103.601 65.249 104.951 65.246H106.072C106.072 64.5534 106.08 63.6567 106.083 63.1798C106.083 62.9904 106.083 62.7512 106.072 62.493C106.072 62.2068 106.058 61.8986 106.052 61.6124L105.381 61.6242H104.91H104.665C103.855 61.6168 103.038 61.5948 102.225 61.5684L101.006 61.5273L100.403 61.5053L100.11 61.495H100.076H100.057H100.025V61.4554V61.3908C100.025 61.2837 100.025 61.1781 100.035 61.0739C100.035 60.8625 100.047 60.6542 100.053 60.4458C100.058 60.2374 100.063 60.0319 100.067 59.8279C100.067 59.7267 100.067 59.624 100.067 59.5227V59.4977H100.453C101.896 59.4977 103.312 59.4537 104.743 59.4317L105.76 59.4214C105.763 58.2606 105.751 57.0866 105.741 55.9126H105.663L101.114 55.9596H99.9235C99.9235 55.2405 99.9235 54.5243 99.9308 53.795V53.7862L103.453 53.8096L106.008 53.8199L106.017 50.0543H103.802C101.092 50.0543 98.6658 50.1687 95.945 50.1629H95.5253C95.5253 51.0287 95.5092 52.1 95.5003 53.1639C95.4915 54.2279 95.4827 55.239 95.4842 56.0579C95.4637 58.4852 95.5297 59.8734 95.5209 62.7556C95.5209 64.0221 95.5356 65.133 95.5869 65.1345C95.6383 65.136 95.6515 64.0573 95.65 62.7556C95.6588 59.0296 95.6633 57.2994 95.6721 53.8038C95.6721 52.9145 95.6721 51.9679 95.6823 50.314H98.4926C100.265 50.314 102.028 50.358 103.811 50.358H105.711C105.711 50.7088 105.711 50.9597 105.711 51.1798C105.711 51.4396 105.711 51.6641 105.703 51.9327C105.695 52.2555 105.689 52.5564 105.682 52.8411C105.682 52.9878 105.675 53.1214 105.672 53.2579V53.3591V53.4031V53.4604H105.6H105.512H105.394L104.926 53.4501L103.966 53.4384H101.894H99.5947V53.5851C99.5947 54.4842 99.5991 55.3877 99.6079 56.2956H102.659L104.079 56.303L104.787 56.3103H105.14H105.3H105.339V56.457V56.8474L105.33 57.6281C105.33 58.0684 105.33 58.4984 105.322 58.9328H105.183L101.221 58.9166L99.5522 58.9239C99.5522 59.2248 99.5522 59.5242 99.5522 59.825C99.5522 60.0334 99.5595 60.2432 99.5625 60.4516C99.5625 60.9462 99.5771 61.4363 99.5859 61.9192L100.302 61.9089L100.776 61.8971L101.684 61.8751L103.28 61.8296C104.222 61.8032 104.894 61.7827 105.113 61.7812H105.879C105.879 62.0747 105.879 62.3609 105.879 62.6485C105.879 62.9684 105.879 63.2854 105.879 63.6009C105.879 64.0529 105.879 64.5534 105.879 65.0362H105.032L101.009 65.045L96.8255 65.0655C96.2488 65.0655 95.5943 65.0773 95.584 65.1169C95.5737 65.1565 96.0389 65.1976 96.827 65.1976Z" fill="#063844"/>
<path d="M111.238 76.4652C110.143 76.4652 109.045 76.3816 107.952 76.4212C106.135 76.4887 106.011 76.364 104.969 76.3669C104.44 76.3669 103.208 76.3405 102.679 76.3405C102.182 76.3405 101.212 76.4447 100.725 76.4344H100.535C98.4441 76.3845 96.2868 76.022 94.3614 76.022C93.249 76.022 92.1601 76.1101 91.0522 76.1541C90.0366 76.1923 89.0064 76.2201 87.9704 76.2466C86.8345 76.2759 85.7104 76.3111 84.5745 76.339C83.6148 76.3508 82.6785 76.3478 81.7158 76.339C80.7531 76.3302 79.83 76.3053 78.8908 76.2921C76.8583 76.2642 74.8375 76.2539 72.8079 76.251C70.7182 76.251 68.8456 76.4814 66.75 76.4696C65.4028 76.4696 63.3131 76.3772 61.9732 76.3875C60.1021 76.3449 59.0382 76.4755 56.809 76.4594C55.8316 76.452 54.9761 76.4887 54.9746 76.59C54.9731 76.6912 55.8052 76.7206 56.809 76.7177C59.6824 76.7103 61.0164 76.7514 63.7064 76.7631C64.9831 76.7631 66.4081 76.791 68.7121 76.791C70.0798 76.791 71.4387 76.8805 72.8123 76.8776C74.6996 76.8776 75.0019 76.8644 75.7122 76.8982C76.7981 76.9495 77.5568 77.0346 78.5078 77.0449C79.5849 77.0581 80.6871 77.0611 81.7642 77.0449C83.8187 77.0126 85.8997 76.9921 87.9425 77.0625C88.8655 77.0933 89.7989 77.1198 90.7308 77.1139C91.758 77.1139 92.7618 77.152 93.7861 77.1476C96.8063 77.1359 100.362 76.7793 100.867 76.7763C101.587 76.7763 102.305 76.7998 103.01 76.7763C103.607 76.7573 104.308 76.7763 104.906 76.7602C105.942 76.7499 106.969 76.7455 108.008 76.7455C109.167 76.7455 110.083 76.703 111.236 76.703C111.677 76.703 112.186 76.678 112.193 76.6002C112.206 76.4858 111.845 76.4652 111.238 76.4652Z" fill="#063844"/>
<path d="M103.934 85.1016C103.129 85.1016 102.32 85.0179 101.517 85.0575C100.179 85.125 100.088 85.0003 99.3159 85.0032C98.9255 85.0032 98.0201 84.9768 97.6297 84.9768C97.2643 84.9768 96.554 85.0796 96.1915 85.0708H96.0448C94.5068 85.0209 92.919 84.6584 91.5028 84.6584C90.6839 84.6584 89.8797 84.7464 89.0682 84.7905C88.3198 84.8286 87.5625 84.8565 86.8038 84.8829C85.9688 84.9123 85.1411 84.9475 84.309 84.9754C83.6031 84.9871 82.9149 84.9842 82.2061 84.9754C81.4973 84.9666 80.8178 84.9416 80.1266 84.9284C78.6312 84.9005 77.1446 84.8888 75.6506 84.8873C74.1127 84.8873 72.7332 85.1177 71.1923 85.106C70.2017 85.106 68.6638 85.0135 67.6791 85.0238C66.3011 84.9798 65.5159 85.1118 63.8782 85.0957C63.1591 85.0957 62.5295 85.125 62.5281 85.2263C62.5266 85.3276 63.14 85.3569 63.8782 85.354C65.9929 85.354 66.9747 85.3877 68.9544 85.3995C69.8936 85.3995 70.9428 85.4273 72.6393 85.4273C73.6445 85.4273 74.6454 85.5169 75.6565 85.5139C77.0448 85.5139 77.2708 85.5007 77.7903 85.5345C78.5886 85.5858 79.1477 85.6709 79.8448 85.6812C80.6373 85.6944 81.4488 85.6959 82.2413 85.6812C83.7514 85.6475 85.2849 85.6284 86.7906 85.6988C87.4686 85.7296 88.1569 85.7561 88.8451 85.7502C89.6009 85.7502 90.3405 85.7884 91.0934 85.7839C93.3167 85.7722 95.9362 85.4156 96.3045 85.4127C96.8343 85.4127 97.3626 85.4362 97.8807 85.4127C98.3209 85.3936 98.836 85.4127 99.2763 85.398C100.039 85.3877 100.794 85.3833 101.56 85.3819C102.412 85.3819 103.086 85.3408 103.933 85.3408C104.26 85.3408 104.631 85.3158 104.637 85.238C104.646 85.1162 104.382 85.1016 103.934 85.1016Z" fill="#063844"/>
<path d="M128.119 44.6406H115.569V32.0918L121.844 38.3669L128.119 44.6406Z" fill="#BADFD8"/>
<path d="M127.982 44.4131C127.774 44.2047 127.579 43.9831 127.372 43.7718C127.165 43.5605 126.98 43.3726 126.785 43.176C126.684 43.0762 126.491 42.8428 126.39 42.743C126.289 42.6433 126.127 42.4833 126.036 42.3864C125.86 42.1986 125.873 42.1795 125.697 41.9917L125.173 41.4164C124.99 41.2183 124.796 41.0246 124.607 40.8294L124.076 40.2747C123.885 40.0736 123.7 39.8711 123.501 39.6774C123.263 39.4455 123.021 39.2166 122.778 38.9891C122.561 38.7851 122.359 38.5767 122.159 38.3566C121.838 37.9868 121.528 37.6111 121.22 37.2369C121.02 36.9948 120.813 36.757 120.602 36.5178C120.464 36.3623 120.323 36.2038 120.177 36.0526L120.075 35.9499C119.868 35.7459 119.659 35.5478 119.452 35.3497C119.208 35.1178 118.966 34.8874 118.718 34.6658L117.578 33.6591L117.041 33.1807L116.635 32.7932L115.821 32.014L115.354 31.5737C115.367 31.9651 115.379 32.3564 115.391 32.7477V33.4037C115.391 33.5989 115.398 33.7941 115.406 33.9907C115.423 34.5029 115.426 35.018 115.419 35.5346C115.419 36.0878 115.401 36.6411 115.375 37.1914C115.36 37.4512 115.351 37.7065 115.35 37.9692L115.357 38.7352C115.357 39.0111 115.357 39.2885 115.357 39.5659C115.357 39.8432 115.348 40.1074 115.338 40.3789C115.328 40.5124 115.316 40.643 115.304 40.7766C115.293 40.9101 115.277 41.0613 115.262 41.2036C115.227 41.5822 115.203 41.9653 115.188 42.3527C115.177 42.6697 115.174 42.9911 115.174 43.308C115.174 43.4768 115.174 43.6456 115.186 43.8114L115.196 44.0623V44.1885V44.4116C115.196 44.6053 115.196 44.7946 115.196 44.9986H115.284L115.724 45.0133H116.037H116.22L116.602 44.9972C116.895 44.9883 117.205 44.9825 117.501 44.9649C117.798 44.9473 118.088 44.9208 118.392 44.8988C118.667 44.8798 118.944 44.8665 119.22 44.8519L120.134 44.8064C120.392 44.8064 120.645 44.8064 120.904 44.8064L121.665 44.8299C122.212 44.8431 122.755 44.8489 123.302 44.8489C123.85 44.8489 124.428 44.7888 124.992 44.7932C125.354 44.7932 125.714 44.7932 126.073 44.7829C126.578 44.8049 127.009 44.7022 127.608 44.711C127.871 44.711 128.103 44.6963 128.103 44.645C128.103 44.5936 127.878 44.5804 127.608 44.5818C126.835 44.5818 126.477 44.5554 125.752 44.5496C125.408 44.5496 125.018 44.5804 124.405 44.5804C124.036 44.5804 123.671 44.5349 123.299 44.5364C122.792 44.5364 122.712 44.5437 122.52 44.5261C122.227 44.5011 122.023 44.4586 121.767 44.4527C121.474 44.4454 121.18 44.4439 120.887 44.4527C120.335 44.4703 119.774 44.4806 119.224 44.4454C118.976 44.4292 118.725 44.416 118.476 44.419C118.198 44.419 117.928 44.4013 117.652 44.4013C117.377 44.4013 117.105 44.4013 116.829 44.4234C116.589 44.4454 116.342 44.4307 116.095 44.4512L115.959 44.463L115.858 44.4703H115.847C115.812 44.4617 115.776 44.4553 115.74 44.4512L115.761 44.2487V44.2003V44.1137L115.768 43.9273C115.777 43.6558 115.768 43.3843 115.759 43.1158L115.742 42.3175V42.0034L115.751 41.9476C115.792 41.5578 115.804 41.1653 115.786 40.7736C115.786 40.7454 115.783 40.7172 115.776 40.69C115.776 40.103 115.776 39.5292 115.789 38.9466C115.789 38.6105 115.808 38.2759 115.82 37.9398C115.831 37.6038 115.844 37.2809 115.856 36.9522L115.935 35.8354C115.971 35.3849 115.977 34.9256 115.99 34.4677C115.997 34.2402 115.99 34.0142 115.979 33.7868C115.979 33.6738 115.968 33.5622 115.96 33.4492L115.95 33.2805V33.1968C115.95 33.1777 115.95 33.1865 115.95 33.1792C115.935 33.1425 115.924 33.1047 115.915 33.0662C115.917 33.0389 115.917 33.0114 115.915 32.984C115.924 32.9914 115.931 32.9928 115.938 32.984C115.946 32.9765 115.955 32.9707 115.965 32.9669C115.975 32.9631 115.985 32.9614 115.996 32.962C116.04 32.9672 116.081 32.9856 116.115 33.0148L116.15 33.0442L116.217 33.1088L116.351 33.2394C116.44 33.326 116.53 33.4125 116.625 33.4918C116.798 33.6385 116.985 33.7985 117.148 33.9614L117.412 34.2373C117.498 34.3239 117.592 34.3943 117.682 34.4765L118.066 34.8228C118.301 35.0826 118.537 35.3438 118.781 35.5977C119.025 35.8516 119.242 36.0599 119.48 36.2757L120.02 36.7629L120.397 37.1151C120.507 37.2193 120.614 37.325 120.721 37.4335C120.856 37.57 120.985 37.7124 121.116 37.8518L121.949 38.744C122.221 39.0287 122.51 39.2958 122.798 39.557C123.085 39.8183 123.327 40.0663 123.596 40.3172C123.864 40.5682 124.098 40.7956 124.338 41.0437C124.475 41.1904 124.639 41.3005 124.779 41.4414C124.918 41.5822 125.012 41.6747 125.128 41.7921C125.382 42.0489 125.624 42.316 125.875 42.5772C126.01 42.724 126.141 42.859 126.283 42.9852C126.403 43.0923 126.54 43.1965 126.657 43.3066C126.858 43.5003 127.055 43.694 127.253 43.8936C127.475 44.1137 127.664 44.2737 127.883 44.4923C127.968 44.5774 128.07 44.6655 128.1 44.6391C128.129 44.6127 128.098 44.529 127.982 44.4131Z" fill="#063844"/>
<path d="M133.028 73.9954V136.823L131.295 138.712H35.7257C35.0703 138.712 34.4417 138.451 33.9782 137.988C33.5148 137.524 33.2544 136.896 33.2544 136.24V76.5812C33.2535 76.2497 33.3198 75.9215 33.4492 75.6163C33.5785 75.3111 33.7684 75.0353 34.0072 74.8055L82.7011 112.55L132.353 72.299C132.788 72.7565 133.03 73.3641 133.028 73.9954Z" fill="white"/>
<path d="M133.037 73.9954C132.667 73.9954 132.724 77.896 132.724 84.3165C132.724 92.9543 132.705 101.655 132.667 110.418C132.62 119.111 132.571 127.848 132.52 136.628L131.062 138.194L96.7173 137.947L62.1233 137.72L44.9019 137.643L36.3272 137.617H35.7255H35.6874H35.6125C35.5626 137.617 35.5157 137.601 35.4658 137.596C35.2711 137.559 35.0871 137.479 34.9272 137.361C34.7663 137.246 34.6326 137.096 34.5356 136.923C34.4385 136.75 34.3803 136.558 34.3651 136.361V136.287V136.249V134.308C34.3651 133.595 34.3651 132.884 34.3651 132.172C34.3739 120.795 34.3441 109.517 34.2756 98.3386C34.2267 91.1859 34.1778 84.0714 34.1289 76.995C34.1289 76.7895 34.1289 76.4931 34.1289 76.4549C34.1318 76.4049 34.1417 76.3555 34.1582 76.3082C34.175 76.2603 34.1982 76.2148 34.2272 76.1732C34.2416 76.1522 34.2572 76.1321 34.2741 76.113C34.2741 76.113 34.283 76.0998 34.2874 76.1027L34.302 76.113L34.3329 76.135L34.4547 76.2231L34.5178 76.27L34.7452 76.4432L35.8004 77.2489L40.0166 80.4774L48.4475 86.9184L82.7009 113.133L104.097 95.6457C111.253 89.8109 118.547 83.8806 125.978 77.855C128.507 75.8004 131.029 73.7694 132.506 72.4882L132.176 72.4662C132.473 72.7635 132.693 73.1294 132.817 73.5316C132.908 73.8251 132.936 73.9954 132.991 73.9954C133.047 73.9954 133.138 73.8325 133.121 73.4964C133.078 72.9897 132.868 72.5116 132.523 72.1375L132.385 71.9805L132.205 72.1155C130.831 73.1427 128.574 75.0065 125.614 77.4059C118.34 83.3034 111.118 89.1588 103.948 94.9721L82.6892 112.157L68.9781 101.431C64.3554 97.802 59.7425 94.1665 55.1394 90.5241L38.0956 77.0449L35.9853 75.3793L35.4203 74.939L34.98 74.5897L34.7555 74.4151L34.644 74.327L34.5398 74.2727L34.1201 74.057L33.9087 73.9499L33.8559 73.922L33.831 73.9088C33.8207 73.9 33.8133 73.9088 33.806 73.9161L33.715 74.0071C33.4729 74.2386 33.2505 74.49 33.0502 74.7585C32.7332 75.2125 32.5391 75.7408 32.4867 76.292C32.4691 76.4682 32.472 76.6032 32.4706 76.7074L32.4588 78.0472L32.4309 80.7137C32.4045 84.2788 32.3776 87.8312 32.3502 91.3708C32.2504 105.538 32.1785 119.547 32.1462 133.544C32.1462 134.291 32.1462 135.025 32.1462 135.746V136.151C32.1462 136.196 32.1462 136.233 32.1462 136.305C32.1517 136.563 32.1846 136.819 32.2446 137.069C32.4202 137.806 32.8261 138.467 33.4033 138.957C33.9804 139.447 34.6988 139.741 35.454 139.795L35.636 139.803H35.7255H36.041H36.5415H37.5321C40.1545 139.786 42.6302 139.758 45.0296 139.726C49.8299 139.664 54.3235 139.579 59.0797 139.539C73.7314 139.393 85.6242 139.859 99.689 139.817C104.93 139.801 110.186 139.762 115.456 139.699L131.634 139.485C132.341 138.693 133.05 137.901 133.759 137.109C133.644 129.44 133.528 121.764 133.411 114.082C133.313 106.501 133.244 98.9325 133.203 91.3767L133.304 84.3194C133.304 79.142 133.32 73.9954 133.037 73.9954Z" fill="#063844"/>
</svg>
