<svg width="165" height="164" viewBox="0 0 165 164" fill="none" xmlns="http://www.w3.org/2000/svg">
<path d="M123.725 138.848H101.481V107.226H142.802V119.77C142.802 124.83 140.792 129.683 137.215 133.26C133.637 136.838 128.784 138.848 123.725 138.848Z" fill="#BADFD8"/>
<path d="M125.093 138.908C126.66 138.813 128.21 138.525 129.707 138.051C131.098 137.585 132.431 136.959 133.678 136.186L134.29 135.797C134.412 135.724 134.535 135.639 134.661 135.551L135.046 135.282C135.558 134.915 136.052 134.523 136.334 134.269C136.61 134.043 136.959 133.697 137.316 133.36C137.672 133.022 137.997 132.654 138.224 132.385L138.518 132.045C138.603 131.945 138.664 131.851 138.733 131.769C138.858 131.604 138.952 131.475 139.046 131.343C139.14 131.211 139.224 131.073 139.34 130.903C139.455 130.733 139.607 130.53 139.789 130.243C140.56 129.097 141.21 127.873 141.726 126.591C142.259 125.244 142.626 123.836 142.819 122.4C142.863 122.061 142.914 121.722 142.936 121.382L142.979 120.871C142.995 120.701 142.994 120.529 143.001 120.359C143.033 119.672 143.024 119.003 143.036 118.325C143.049 116.857 143.074 115.406 143.067 113.938C143.051 112.186 143.035 110.432 143.019 108.676C143.019 108.432 143.019 108.189 143.019 107.942C143.019 107.628 143.019 107.317 143.019 107.009H141.192L139.577 106.987C136.993 106.916 134.441 106.825 131.887 106.731C130.236 106.671 128.575 106.627 126.898 106.585C125.799 106.558 124.686 106.535 123.571 106.529H122.806L120.495 106.542C118.495 106.519 116.423 106.689 114.428 106.734L113.648 106.726L112.342 106.699C111.681 106.686 111.037 106.699 110.387 106.709L108.376 106.74C106.787 106.758 105.19 106.771 103.619 106.806C102.864 106.822 102.358 106.842 101.124 106.862C101.124 107.191 101.137 107.517 101.143 107.844L101.162 108.513C101.174 108.943 101.187 109.372 101.199 109.8C101.237 111.247 101.265 112.71 101.291 114.175C101.323 115.789 101.353 117.389 101.385 119.004C101.395 120.368 101.385 121.699 101.376 123.069C101.362 124.409 101.345 125.751 101.329 127.084C101.301 129.974 101.291 132.847 101.288 135.734L101.298 137.291L101.322 139.013L104.39 138.958C105.359 138.942 106.328 138.93 107.296 138.935C109.211 138.935 111.112 139.011 113.02 139.001C115.68 139.045 117.962 138.96 121.128 138.976C122.516 138.976 123.734 138.946 123.735 138.845C123.737 138.744 122.561 138.716 121.128 138.718C117.042 138.718 115.144 138.546 111.319 138.534C109.502 138.534 107.477 138.506 104.2 138.506C103.748 138.506 103.296 138.502 102.845 138.494L102.179 138.481L101.874 138.467L101.882 138.286V138.199V138.069L101.899 137.288C101.907 136.769 101.913 136.248 101.913 135.725C101.913 133.041 101.899 132.611 101.932 131.602C101.984 130.059 102.069 128.979 102.079 127.627C102.092 126.095 102.095 124.528 102.079 122.996C102.045 120.08 102.025 117.117 102.095 114.213C102.128 112.901 102.153 111.571 102.148 110.251C102.148 109.741 102.148 109.238 102.148 108.733L102.158 107.979V107.92H102.167H102.788C104.255 107.92 105.68 107.932 107.141 107.879C108.411 107.832 109.707 107.863 110.972 107.82C111.54 107.802 112.111 107.79 112.685 107.784H112.786C113.734 107.829 114.75 107.845 115.74 107.864L117.707 107.898C119.028 107.913 119.496 107.898 120.711 107.869L123.206 107.822C123.85 107.807 124.488 107.845 125.19 107.822C126.437 107.788 127.664 107.706 128.91 107.675H130.853C131.865 107.675 132.881 107.697 133.885 107.709L140.335 107.792H141.566H142.109H142.225V107.879V107.933V108.168C142.225 108.482 142.229 108.795 142.236 109.107C142.247 109.733 142.257 110.354 142.267 110.973C142.3 112.908 142.297 114.854 142.323 116.797C142.33 117.706 142.337 118.619 142.345 119.536C142.345 119.766 142.345 119.988 142.336 120.212C142.327 120.437 142.336 120.66 142.313 120.883L142.26 121.553C142.244 121.776 142.206 121.994 142.179 122.22C142.032 123.219 141.903 124.235 141.592 125.203C141.34 126.017 141.035 126.813 140.681 127.588C140.305 128.427 139.875 129.24 139.394 130.022C139.278 130.219 139.147 130.405 139.018 130.595C138.889 130.784 138.764 130.976 138.619 131.155C138.474 131.334 138.337 131.519 138.196 131.704L137.737 132.233C137.06 132.966 136.338 133.658 135.577 134.303C134.946 134.846 134.206 135.508 133.493 135.962C132.247 136.721 130.918 137.332 129.531 137.783C129.338 137.853 129.145 137.902 128.958 137.957C128.772 138.013 128.588 138.069 128.406 138.117L127.865 138.248C127.686 138.293 127.508 138.337 127.329 138.37C126.97 138.436 126.613 138.516 126.239 138.559L125.672 138.635L125.085 138.682C124.928 138.693 124.767 138.715 124.611 138.72C124.456 138.726 124.309 138.74 124.18 138.751C123.922 138.776 123.74 138.809 123.74 138.848C123.74 138.888 123.857 138.927 124.092 138.936C124.426 138.949 124.76 138.939 125.093 138.908Z" fill="#063844"/>
<path d="M122.522 139.035C122.37 139.071 122.215 139.089 122.06 139.089H46.2299C43.9185 139.089 41.6297 138.634 39.4943 137.749C37.3589 136.864 35.4186 135.568 33.7843 133.933C32.15 132.299 30.8536 130.359 29.9692 128.223C29.0848 126.088 28.6297 123.799 28.6299 121.487V30.9853C28.6297 30.7289 28.68 30.4751 28.7781 30.2382C28.8761 30.0013 29.0198 29.786 29.2011 29.6047C29.3824 29.4235 29.5976 29.2797 29.8345 29.1817C30.0714 29.0837 30.3253 29.0333 30.5817 29.0335H104.118V119.195C104.118 124.214 106.014 129.047 109.427 132.726C112.84 136.405 117.518 138.658 122.522 139.035Z" fill="#F7F4F2"/>
<path d="M122.525 139.043C122.513 138.998 122.44 138.979 122.312 138.963L122.08 138.933C121.986 138.919 121.87 138.905 121.742 138.894C121.227 138.847 120.467 138.82 119.485 138.804C117.52 138.772 114.67 138.786 111.121 138.786C93.7069 138.786 76.0468 138.716 58.2501 138.616L51.5744 138.578L48.2328 138.558L46.5613 138.547C46.2796 138.547 46.0095 138.538 45.741 138.53L45.336 138.516L44.9324 138.483C41.1381 138.182 37.5561 136.611 34.7655 134.023C31.9748 131.435 30.1388 127.981 29.5542 124.22C29.475 123.689 29.4075 123.156 29.3855 122.619C29.3605 122.352 29.3635 122.083 29.3576 121.816C29.3517 121.549 29.3576 121.272 29.3576 120.99L29.4456 107.569C29.5601 89.6744 29.6628 71.7941 29.7113 54.0606C29.7191 49.6277 29.7274 45.2046 29.7362 40.7912C29.7362 38.586 29.7362 36.3848 29.7362 34.1874C29.7362 33.1063 29.7362 32.0257 29.7362 30.9456C29.7418 30.8269 29.7727 30.7107 29.8269 30.6049C29.881 30.4991 29.9572 30.4062 30.0503 30.3322C30.1431 30.259 30.25 30.2056 30.3643 30.1752C30.3925 30.1664 30.4215 30.1605 30.4509 30.1576C30.4803 30.1514 30.5104 30.149 30.5404 30.1502H30.5624H30.9058C39.6816 30.1414 48.3982 30.1126 57.0556 30.0637L103.39 29.7701C103.442 38.3248 103.495 46.8996 103.548 55.4943C103.593 64.3445 103.638 73.2572 103.683 82.2326C103.712 91.2226 103.743 100.315 103.774 109.509C103.78 111.811 103.785 114.122 103.789 116.441C103.789 117.02 103.789 117.6 103.789 118.182V119.054C103.789 119.348 103.802 119.641 103.808 119.935C103.852 121.119 104 122.298 104.248 123.457C104.755 125.789 105.673 128.012 106.959 130.022C108.255 132.053 109.901 133.837 111.821 135.292C112.95 136.156 114.17 136.894 115.459 137.494C116.579 138.016 117.748 138.428 118.948 138.723C119.794 138.933 120.656 139.071 121.525 139.137C122.155 139.164 122.514 139.137 122.519 139.076C122.526 138.983 122.263 138.891 121.76 138.794C121.509 138.751 121.201 138.675 120.833 138.609C120.649 138.58 120.454 138.528 120.246 138.483C120.037 138.437 119.805 138.396 119.578 138.336C118.431 138.057 117.31 137.682 116.226 137.215C115.55 136.918 114.89 136.586 114.249 136.218C112.618 135.284 111.13 134.119 109.832 132.758C109.109 131.997 108.448 131.18 107.852 130.316C106.064 127.734 104.929 124.756 104.548 121.638C104.476 121.123 104.445 120.611 104.412 120.086L104.393 119.307C104.393 119.047 104.393 118.781 104.393 118.519C104.393 116.413 104.393 114.31 104.393 112.208C104.399 103.807 104.404 95.4422 104.408 87.1136C104.433 70.4455 104.495 53.8801 104.647 37.2956C104.672 34.2901 104.697 31.2934 104.722 28.4318L60.6965 28.103L39.3675 27.9915L34.0581 27.971L31.4048 27.9607H30.5756L30.3203 27.971C30.1493 27.9856 29.9799 28.0151 29.814 28.059C29.1427 28.2307 28.5516 28.6294 28.141 29.1875C27.9363 29.4642 27.7795 29.7732 27.6773 30.1018C27.6553 30.1855 27.6332 30.2676 27.6127 30.3513C27.5922 30.4349 27.5834 30.5215 27.5701 30.6066C27.5589 30.6913 27.552 30.7766 27.5496 30.862V30.9882V31.0704V32.3911V35.04L27.5364 40.3363C27.51 53.5352 27.7272 62.8921 27.8196 73.3996C27.9664 89.5878 27.5012 102.727 27.5437 118.265L27.5525 120.994C27.5525 121.435 27.5672 121.932 27.5819 122.413C27.62 122.895 27.6479 123.378 27.7213 123.856C27.7947 124.334 27.868 124.811 27.962 125.285L28.1293 125.991C28.1821 126.227 28.2599 126.458 28.3244 126.691C28.5969 127.619 28.9444 128.524 29.3635 129.396C31.0463 132.907 33.7902 135.8 37.2074 137.667C38.0567 138.127 38.9397 138.523 39.8489 138.85C40.7586 139.168 41.6906 139.418 42.6372 139.598C43.583 139.771 44.5406 139.872 45.5018 139.899L46.2209 139.909L46.9106 139.9L48.2857 139.881L59.3009 139.727C73.9952 139.516 88.7129 139.305 103.349 139.258L111.145 139.36C114.004 139.36 116.854 139.36 118.991 139.334C120.059 139.318 120.949 139.293 121.571 139.255C121.726 139.246 121.864 139.236 121.986 139.224C122.093 139.217 122.199 139.201 122.303 139.175C122.453 139.133 122.532 139.077 122.525 139.043Z" fill="#063844"/>
<path d="M45.8657 61.9984V47.4215H52.091C53.311 47.4215 54.3382 47.5683 55.1727 47.8618C55.9592 48.1185 56.628 48.6478 57.0585 49.3542C57.486 50.0557 57.6993 51.0199 57.6984 52.2467C57.718 53.1552 57.5381 54.0568 57.1715 54.8883C56.8251 55.6391 56.2442 56.2572 55.5161 56.6493C54.7618 57.069 53.7786 57.2789 52.5664 57.2789H50.0159V62.0013L45.8657 61.9984ZM51.8048 50.6515H50.0159V54.2293H51.5494C52.203 54.2293 52.6765 54.0797 52.97 53.7803C53.2635 53.4809 53.4103 53.0137 53.4103 52.3788C53.4103 51.7253 53.2483 51.2738 52.9245 51.0243C52.6043 50.7767 52.2095 50.6453 51.8048 50.6515Z" fill="#063844"/>
<path d="M60.4209 61.9984V47.4215H66.5948C68.796 47.4215 70.5081 48.0486 71.7311 49.3029C72.954 50.5571 73.566 52.346 73.5669 54.6696C73.5756 55.6457 73.4361 56.6175 73.1531 57.5518C72.8869 58.4526 72.408 59.2762 71.7567 59.953C71.1054 60.6298 70.3008 61.1401 69.4109 61.4407C68.413 61.8115 67.1901 61.9974 65.7421 61.9984H60.4209ZM64.643 58.6657H65.726C66.5781 58.6657 67.2561 58.49 67.76 58.1388C68.266 57.7865 68.646 57.2815 68.8445 56.6977C69.0718 56.0284 69.1825 55.325 69.1717 54.6182C69.1717 53.4657 68.911 52.5339 68.3895 51.8226C67.8681 51.1113 67.0247 50.7552 65.8595 50.7542H64.643V58.6657Z" fill="#063844"/>
<path d="M76.3977 61.9984V47.4215H86.302V50.9069H80.517V53.271H86.0158V56.6038H80.517V62.0013L76.3977 61.9984Z" fill="#063844"/>
<path d="M94.4219 82.5378C94.0359 82.5378 93.6515 82.5202 93.264 82.5158C92.8766 82.5114 92.5303 82.5158 92.1634 82.5158C91.9755 82.5158 91.5764 82.4879 91.3959 82.4879C91.2154 82.4879 90.9116 82.4879 90.7384 82.4879C90.4009 82.4879 90.3965 82.4571 90.059 82.4498C89.7214 82.4424 89.381 82.4248 89.0405 82.4145C88.7 82.4043 88.3288 82.4043 87.9751 82.3999C87.6214 82.3955 87.3044 82.3896 86.9684 82.3822C86.6059 82.3822 86.2449 82.3632 85.8809 82.3676C85.4407 82.3676 85.0107 82.3808 84.5763 82.3911C84.1845 82.4013 83.8044 82.3911 83.4155 82.3822C82.7742 82.347 82.1417 82.3015 81.5077 82.2546C81.0983 82.2252 80.6859 82.2032 80.2691 82.1827C79.9962 82.1695 79.7203 82.1577 79.4444 82.1548H79.2536C78.8735 82.1548 78.4963 82.1636 78.1192 82.1709C77.6789 82.1783 77.2387 82.1871 76.8072 82.2061C76.1424 82.234 75.4865 82.2707 74.8187 82.3001L73.881 82.3368L73.1472 82.3485C72.798 82.3485 72.4516 82.3632 72.1038 82.3749C71.5623 82.3911 71.0267 82.416 70.4896 82.4321C70.2562 82.4321 70.0243 82.4321 69.7895 82.4321C69.5547 82.4321 69.2788 82.4321 69.0235 82.4468C68.3514 82.4625 67.6768 82.4669 66.9998 82.46C66.2748 82.4512 65.5513 82.4424 64.8293 82.4145C64.4889 82.4013 64.1557 82.3911 63.8109 82.3911C63.466 82.3911 63.1417 82.3911 62.8071 82.3911C62.4461 82.3911 62.0821 82.3911 61.7196 82.3911C61.3572 82.3911 61.0108 82.3822 60.6542 82.372L60.1332 82.3382L59.5741 82.2957C59.0781 82.259 58.5762 82.2355 58.0684 82.2223C57.6546 82.2106 57.232 82.2061 56.8181 82.2076C56.3779 82.2076 55.9376 82.2267 55.4973 82.2399C55.3315 82.2399 55.1701 82.2399 55.0043 82.2399L54.6799 82.2267C54.5156 82.2267 54.3556 82.2267 54.1942 82.2267L53.6967 82.2428C53.3019 82.2516 52.9057 82.2575 52.5227 82.2751C52.1397 82.2927 51.7449 82.3191 51.3487 82.3412C50.9891 82.3602 50.6266 82.3734 50.2642 82.3881C49.8635 82.4013 49.4658 82.4204 49.0652 82.4336C48.7277 82.4336 48.3975 82.4336 48.057 82.4336L47.062 82.4101C46.3444 82.3969 45.6327 82.3911 44.9165 82.3911C44.2004 82.3911 43.4416 82.4512 42.7035 82.4468C42.2295 82.4468 41.7584 82.4468 41.2859 82.4571C40.6255 82.4351 40.059 82.5378 39.2754 82.529C38.9305 82.529 38.6282 82.5437 38.6282 82.595C38.6282 82.6464 38.9217 82.6596 39.2754 82.6581C40.2879 82.6581 40.759 82.6845 41.707 82.6904C42.1576 82.6904 42.6609 82.6611 43.4681 82.6611C43.9509 82.6611 44.4293 82.7051 44.915 82.7036C45.5798 82.7036 45.687 82.7036 45.9423 82.7139C46.3253 82.7389 46.5939 82.7814 46.9285 82.7873C47.3086 82.7873 47.6975 82.7961 48.0776 82.7873C48.801 82.7697 49.5348 82.7594 50.2554 82.7873C50.5811 82.8034 50.9099 82.8166 51.2371 82.8137C51.5996 82.8137 51.9533 82.8313 52.3143 82.8313C52.6753 82.8313 53.0319 82.8313 53.3944 82.8093C53.7099 82.7873 54.0313 82.8093 54.3453 82.7814C54.4921 82.7711 54.6271 82.7653 54.7695 82.7623H54.7944C55.0292 82.7843 55.2816 82.7931 55.5282 82.802C55.6896 82.8088 55.8525 82.8147 56.0168 82.8196C56.372 82.8196 56.7257 82.8196 57.0793 82.8093C57.433 82.799 57.7764 82.7975 58.1242 82.7917H58.5366L58.6085 82.8005C59.1181 82.8422 59.6296 82.8544 60.1406 82.8372C60.177 82.8371 60.2134 82.8337 60.2492 82.8269C61.0094 82.8269 61.7695 82.8269 62.5341 82.8401C62.9744 82.8401 63.4146 82.8592 63.8549 82.8709C64.2951 82.8827 64.7193 82.8915 65.1492 82.9061C65.6365 82.9311 66.1251 82.9575 66.6168 82.9869C67.2038 83.0221 67.8099 83.0279 68.4086 83.0412C69.0074 83.0544 69.6002 83.0177 70.1828 82.9913L70.9034 82.9546C71.2116 82.9546 71.533 82.9707 71.8397 82.9458C72.1772 82.9179 72.503 82.8563 72.8435 82.843C73.1839 82.8298 73.4965 82.843 73.8194 82.8196C74.1129 82.8005 74.4372 82.7814 74.7395 82.7814C74.9053 82.7814 75.0726 82.7888 75.2399 82.7902C75.4072 82.7917 75.5525 82.7726 75.711 82.7682C75.937 82.7682 76.163 82.7477 76.3875 82.7418C76.8469 82.7579 77.3062 82.777 77.767 82.7843C78.1911 82.7843 78.624 82.7843 79.0423 82.7697C79.3607 82.7579 79.6762 82.7418 79.9947 82.7315L80.6712 82.7139C80.8693 82.7139 81.066 82.7139 81.2582 82.7139C81.5092 82.7139 81.7616 82.7256 82.0111 82.7315C82.5438 82.7433 83.0765 82.7623 83.6107 82.7726C84.1448 82.7829 84.6379 82.7653 85.1486 82.7477C85.6285 82.7315 86.1113 82.733 86.5927 82.7198C87.0447 82.711 87.4996 82.7036 87.9545 82.7095C88.2113 82.7095 88.4682 82.6772 88.7265 82.6831C88.9407 82.6831 89.1579 82.6831 89.3722 82.6831C89.8476 82.6831 90.3187 82.7036 90.7927 82.7095C91.0481 82.7095 91.3005 82.7212 91.5485 82.7095C91.7598 82.7007 91.9888 82.6787 92.1942 82.6728C92.5582 82.6728 92.928 82.6728 93.2875 82.6728C93.6969 82.6728 94.0213 82.6508 94.4248 82.6508C94.5819 82.6508 94.7594 82.6405 94.7624 82.6024C94.7653 82.5642 94.6362 82.5378 94.4219 82.5378Z" fill="#063844"/>
<path d="M77.8242 92.5405C77.5527 92.5405 77.2827 92.5229 77.0097 92.5185C76.7368 92.5141 76.4946 92.5185 76.2378 92.5185C76.1057 92.5185 75.8298 92.4906 75.6992 92.4906C75.5686 92.4906 75.3588 92.4906 75.2369 92.4906C74.9992 92.4833 74.9963 92.4612 74.76 92.4524C74.5237 92.4436 74.2831 92.4275 74.0439 92.4172C73.8046 92.4069 73.5434 92.4069 73.2954 92.4025C73.0474 92.3981 72.8243 92.3923 72.5881 92.3849C72.3518 92.3776 72.0803 92.3659 71.8235 92.3703C71.5182 92.3703 71.213 92.3835 70.9078 92.3937C70.6333 92.404 70.3648 92.3937 70.0918 92.3849C69.6413 92.3497 69.1966 92.3042 68.752 92.2573C68.4585 92.2279 68.1752 92.2059 67.8832 92.1854C67.691 92.1721 67.4972 92.1604 67.3035 92.1575H67.17C66.9029 92.1575 66.6373 92.1663 66.3731 92.1736C66.0635 92.181 65.7553 92.1898 65.4515 92.2088C64.9834 92.2382 64.5211 92.2734 64.053 92.3027L63.3955 92.3394L62.8804 92.3512C62.6339 92.3512 62.3903 92.3659 62.1467 92.3776C61.7666 92.3937 61.3894 92.4187 61.0093 92.4348C60.845 92.4348 60.6821 92.4348 60.5177 92.4348C60.3534 92.4348 60.1582 92.4348 59.9791 92.4495C59.5086 92.4651 59.035 92.4696 58.5586 92.4627C58.0493 92.4539 57.5401 92.4451 57.0338 92.4172C56.7946 92.404 56.5598 92.3937 56.3177 92.3937C56.0755 92.3937 55.8466 92.3937 55.6118 92.3937C55.377 92.3937 55.1026 92.3937 54.8487 92.3937C54.5948 92.3937 54.3497 92.3849 54.0988 92.3747C53.977 92.3644 53.8566 92.3541 53.7348 92.3409L53.3415 92.2984C52.9923 92.2617 52.6401 92.2382 52.2835 92.225C51.99 92.2132 51.6964 92.2088 51.4029 92.2103C51.1094 92.2118 50.7851 92.2294 50.4784 92.2426C50.3625 92.2426 50.248 92.2426 50.1306 92.2426C50.0543 92.2426 49.9839 92.2323 49.9031 92.2294C49.7897 92.2235 49.6761 92.2235 49.5627 92.2294L49.2119 92.2455C48.936 92.2543 48.6572 92.2602 48.3843 92.2778C48.1113 92.2954 47.8383 92.3218 47.5639 92.3438C47.2895 92.3659 47.0576 92.3761 46.8023 92.3908C46.5205 92.4055 46.2417 92.4231 45.9614 92.4363C45.7236 92.4363 45.4918 92.4363 45.2526 92.4363L44.5526 92.4113C44.0492 92.3981 43.5488 92.3923 43.0454 92.3923C42.5421 92.3923 42.0093 92.4539 41.4913 92.448C41.1582 92.448 40.8265 92.448 40.4949 92.4583C40.0311 92.4363 39.6334 92.539 39.0831 92.5302C38.841 92.5302 38.6282 92.5449 38.6282 92.5962C38.6282 92.6476 38.8336 92.6608 39.0831 92.6594C39.7949 92.6594 40.125 92.6858 40.7913 92.6916C41.1083 92.6916 41.4605 92.6623 42.0314 92.6623C42.3704 92.6623 42.7064 92.7063 43.0469 92.7048C43.2866 92.6955 43.5266 92.6989 43.766 92.7151C44.0345 92.7415 44.2224 92.7826 44.4586 92.7885C44.7257 92.7885 44.9987 92.7973 45.2658 92.7885C45.7752 92.7628 46.2855 92.7628 46.7949 92.7885C47.0239 92.8046 47.2557 92.8178 47.4847 92.8149C47.74 92.8149 47.988 92.8325 48.2419 92.8325C48.495 92.8389 48.7482 92.832 49.0006 92.812C49.2222 92.7885 49.4482 92.8032 49.6683 92.7826C49.7667 92.7723 49.8664 92.7665 49.9618 92.7635H49.9794C50.1453 92.7856 50.3214 92.7944 50.4945 92.8032C50.6075 92.8105 50.722 92.8164 50.8365 92.8208C51.086 92.8281 51.3354 92.8208 51.5834 92.8105C51.8315 92.8002 52.0736 92.7988 52.3172 92.7929H52.6107L52.6606 92.8017C53.0175 92.844 53.3773 92.8563 53.7363 92.8384C53.7621 92.8383 53.7877 92.8349 53.8126 92.8281C54.3483 92.8281 54.8824 92.8281 55.4181 92.8413C55.7277 92.8413 56.0359 92.8604 56.3456 92.8721C56.6552 92.8839 56.9516 92.8927 57.2539 92.9074C57.5959 92.9323 57.9393 92.9587 58.2812 92.9881C58.6965 93.0233 59.1192 93.0292 59.5403 93.0424C59.9615 93.0556 60.3768 93.0189 60.7863 92.9925L61.2911 92.9558C61.5107 92.9661 61.7308 92.9631 61.95 92.947C62.1863 92.9191 62.4152 92.8575 62.6559 92.8442C62.8966 92.831 63.1138 92.8443 63.3412 92.8208C63.5687 92.7973 63.7815 92.7826 63.9869 92.7826C64.1043 92.7826 64.2203 92.7826 64.3377 92.7914C64.4551 92.8002 64.5578 92.7738 64.6693 92.7694C64.8278 92.7694 64.9863 92.7489 65.1448 92.743C65.4677 92.7591 65.7905 92.7782 66.1148 92.7856C66.4083 92.7856 66.7151 92.7855 67.01 92.7709C67.2331 92.7591 67.4503 92.743 67.6777 92.7327L68.1532 92.7151C68.2926 92.7151 68.4306 92.7151 68.5715 92.7151C68.7476 92.7151 68.9251 92.7269 69.0998 92.7327C69.4755 92.7445 69.8497 92.7635 70.2239 92.7738C70.5981 92.7841 70.9474 92.7738 71.3055 92.7489C71.6635 92.7239 71.9805 92.7342 72.3195 92.721C72.6365 92.7122 72.9564 92.7048 73.2749 92.7107C73.4568 92.7107 73.6373 92.6784 73.8179 92.6843C73.9646 92.6843 74.1202 92.6843 74.2728 92.6843C74.6059 92.6843 74.9376 92.7048 75.2707 92.7107C75.4483 92.7107 75.6258 92.7225 75.8005 92.7107C75.9472 92.7019 76.1057 92.6799 76.2539 92.674C76.5108 92.674 76.7646 92.6667 77.0229 92.6667C77.3164 92.6667 77.5366 92.6447 77.8213 92.6447C77.9313 92.6447 78.0561 92.6344 78.059 92.5962C78.0619 92.5581 77.9753 92.5405 77.8242 92.5405Z" fill="#063844"/>
<path d="M83.1083 102.543C82.8001 102.543 82.4934 102.525 82.1852 102.521C81.877 102.517 81.5982 102.521 81.3047 102.521C81.1579 102.521 80.8424 102.493 80.6927 102.493C80.543 102.493 80.3068 102.493 80.1688 102.493C79.9003 102.493 79.8959 102.464 79.6273 102.455C79.3587 102.446 79.0858 102.43 78.8158 102.42C78.5457 102.41 78.2478 102.41 77.9661 102.405C77.6843 102.401 77.4304 102.395 77.1633 102.388C76.8962 102.38 76.5866 102.368 76.296 102.373C75.9497 102.373 75.6034 102.386 75.2556 102.396C74.9444 102.407 74.6407 102.396 74.331 102.388C73.8203 102.352 73.3155 102.307 72.8107 102.26C72.4834 102.231 72.1561 102.209 71.823 102.188C71.6058 102.175 71.3828 102.163 71.1656 102.16H71.0188C70.715 102.16 70.4157 102.169 70.1148 102.176C69.7641 102.176 69.4148 102.192 69.0685 102.211C68.5387 102.241 68.0119 102.276 67.4821 102.305L66.7351 102.342L66.1481 102.354C65.8693 102.354 65.5919 102.368 65.3146 102.38C64.8846 102.396 64.4561 102.421 64.0246 102.437C63.8382 102.437 63.6533 102.437 63.4669 102.437C63.2806 102.437 63.059 102.445 62.8565 102.452C62.3208 102.468 61.7822 102.473 61.2422 102.465C60.664 102.457 60.0872 102.448 59.5105 102.42C59.2405 102.407 58.9734 102.396 58.699 102.396C58.4245 102.396 58.1648 102.396 57.8977 102.396C57.6306 102.396 57.321 102.396 57.0319 102.396C56.7428 102.396 56.4669 102.388 56.1822 102.377C56.0354 102.367 55.9063 102.357 55.7683 102.344L55.3281 102.301C54.9333 102.264 54.5327 102.241 54.1276 102.228C53.7974 102.216 53.4614 102.211 53.1312 102.213C52.7775 102.213 52.4297 102.232 52.0804 102.247C51.9498 102.247 51.8192 102.247 51.6872 102.247L51.4289 102.233C51.2983 102.226 51.1706 102.233 51.0429 102.233L50.6452 102.25C50.3312 102.258 50.0156 102.264 49.7045 102.282C49.3934 102.299 49.0852 102.326 48.7741 102.348C48.488 102.367 48.1988 102.38 47.9097 102.395C47.5898 102.41 47.2743 102.427 46.9544 102.44C46.6844 102.44 46.4217 102.44 46.1517 102.44L45.3563 102.415C44.7854 102.402 44.2175 102.396 43.6466 102.396C43.0757 102.396 42.4726 102.458 41.8856 102.452C41.5069 102.452 41.1313 102.452 40.7556 102.462C40.2287 102.44 39.7782 102.543 39.1516 102.534C38.8771 102.534 38.6365 102.549 38.6365 102.6C38.6365 102.652 38.8698 102.665 39.1516 102.663C39.9602 102.663 40.3344 102.69 41.0916 102.696C41.4497 102.696 41.8503 102.666 42.499 102.666C42.8835 102.666 43.265 102.71 43.651 102.709C44.1822 102.709 44.2674 102.702 44.4669 102.719C44.7722 102.746 44.985 102.787 45.2521 102.793C45.5558 102.793 45.8655 102.801 46.1678 102.793C46.7445 102.775 47.3301 102.766 47.9053 102.793C48.1636 102.809 48.4263 102.822 48.6875 102.819C48.981 102.819 49.2584 102.837 49.5475 102.837C49.8366 102.837 50.1184 102.837 50.4075 102.816C50.6584 102.793 50.9152 102.807 51.1647 102.787C51.2777 102.776 51.3907 102.771 51.5037 102.768H51.5243C51.7106 102.79 51.9117 102.798 52.1113 102.807C52.2389 102.815 52.3695 102.82 52.5002 102.825C52.7819 102.832 53.0652 102.825 53.3469 102.815C53.6287 102.804 53.9031 102.803 54.1805 102.797H54.5092L54.5664 102.806C54.972 102.848 55.3801 102.86 55.7874 102.842C55.8166 102.842 55.8456 102.839 55.874 102.832C56.4801 102.832 57.0862 102.832 57.6952 102.845C58.0459 102.845 58.3952 102.864 58.7459 102.876C59.0967 102.888 59.4357 102.897 59.7732 102.911C60.1645 102.936 60.5534 102.963 60.9399 102.992C61.411 103.027 61.8908 103.033 62.3678 103.046C62.8447 103.06 63.3173 103.023 63.7825 102.997L64.3563 102.96C64.6047 102.97 64.8536 102.967 65.1018 102.951C65.3718 102.925 65.6315 102.862 65.903 102.848C66.1745 102.835 66.424 102.848 66.6808 102.825C66.9376 102.801 67.1739 102.787 67.4146 102.787C67.5467 102.787 67.6802 102.787 67.8137 102.796C67.9473 102.804 68.0618 102.778 68.1894 102.774C68.3699 102.774 68.549 102.753 68.7295 102.747C69.0949 102.763 69.4632 102.782 69.8287 102.79C70.1662 102.79 70.5111 102.79 70.8456 102.775C71.0995 102.763 71.3505 102.747 71.6044 102.737L72.1429 102.719C72.3014 102.719 72.4585 102.719 72.6184 102.719C72.818 102.719 73.0191 102.731 73.2172 102.737C73.6427 102.749 74.0669 102.768 74.4924 102.778C74.918 102.788 75.3143 102.778 75.7193 102.753C76.1243 102.728 76.4868 102.738 76.8713 102.725C77.2308 102.716 77.5933 102.709 77.9558 102.715C78.1613 102.715 78.3652 102.684 78.5707 102.688C78.7424 102.688 78.9141 102.688 79.0872 102.688C79.4644 102.688 79.8416 102.709 80.2187 102.715C80.4212 102.715 80.6237 102.727 80.8219 102.715C80.9892 102.705 81.1667 102.683 81.3355 102.677C81.629 102.677 81.9225 102.669 82.2072 102.669C82.533 102.669 82.7942 102.647 83.1141 102.647C83.2389 102.647 83.3812 102.637 83.3842 102.599C83.3871 102.561 83.28 102.543 83.1083 102.543Z" fill="#063844"/>
<path d="M64.876 112.546C64.6955 112.546 64.5136 112.528 64.3316 112.525C64.1496 112.522 63.9867 112.525 63.8136 112.525C63.7255 112.525 63.5406 112.497 63.4525 112.497C63.3645 112.497 63.2251 112.497 63.1444 112.497C62.9844 112.497 62.9829 112.468 62.8244 112.459C62.666 112.45 62.5045 112.434 62.3446 112.424C62.1846 112.414 62.01 112.414 61.8427 112.409C61.6754 112.405 61.5286 112.399 61.3701 112.392C61.2116 112.384 61.0297 112.373 60.858 112.377C60.654 112.377 60.4485 112.39 60.2445 112.4C60.0626 112.409 59.8802 112.406 59.6986 112.392C59.3978 112.356 59.0984 112.311 58.802 112.264C58.6083 112.235 58.4145 112.213 58.215 112.192C58.0858 112.179 57.9567 112.167 57.8261 112.164H57.7365C57.559 112.164 57.3814 112.173 57.2038 112.18C56.9969 112.18 56.79 112.196 56.586 112.216C56.2734 112.245 55.9638 112.28 55.6497 112.309L55.2095 112.346L54.8646 112.358C54.7002 112.358 54.5373 112.373 54.373 112.384C54.1191 112.4 53.8667 112.425 53.6113 112.442C53.5013 112.442 53.3927 112.442 53.2826 112.442C53.1725 112.442 53.0419 112.442 52.9216 112.456C52.6066 112.472 52.2896 112.476 51.9706 112.469C51.6287 112.461 51.2882 112.452 50.9434 112.424C50.7834 112.411 50.6264 112.4 50.4635 112.4C50.3006 112.4 50.1495 112.4 49.991 112.408C49.8325 112.415 49.6505 112.408 49.4803 112.408C49.31 112.408 49.1471 112.399 48.9784 112.389C48.8962 112.378 48.8155 112.368 48.7348 112.355L48.4706 112.312C48.2373 112.277 48.001 112.252 47.7618 112.239C47.5681 112.227 47.37 112.223 47.1748 112.224C46.9796 112.226 46.7624 112.243 46.5555 112.258C46.4777 112.258 46.4014 112.258 46.3236 112.258L46.1769 112.245C46.1012 112.239 46.0251 112.239 45.9494 112.245L45.7146 112.261C45.5282 112.27 45.3433 112.276 45.1599 112.293C44.9764 112.311 44.793 112.337 44.611 112.359C44.429 112.381 44.2706 112.392 44.1003 112.406C43.9301 112.421 43.7246 112.439 43.5368 112.452C43.3768 112.452 43.2227 112.452 43.0628 112.452C42.9028 112.452 42.7502 112.434 42.5932 112.428C42.2571 112.414 41.9211 112.408 41.585 112.408C41.2489 112.408 40.8908 112.469 40.5445 112.464C40.32 112.464 40.1043 112.464 39.8768 112.474C39.5657 112.452 39.3001 112.555 38.9302 112.546C38.7688 112.546 38.6265 112.56 38.6265 112.612C38.6265 112.663 38.7644 112.676 38.9302 112.675C39.4072 112.675 39.6288 112.701 40.0749 112.707C40.2862 112.707 40.524 112.678 40.9055 112.678C41.133 112.678 41.3575 112.722 41.5865 112.72C41.7464 112.711 41.9069 112.714 42.0663 112.731C42.2195 112.763 42.3743 112.788 42.5301 112.804C42.7091 112.811 42.8925 112.813 43.0716 112.804C43.4137 112.781 43.7571 112.783 44.0989 112.811C44.2522 112.83 44.4066 112.839 44.5611 112.838C44.7314 112.838 44.8972 112.855 45.0674 112.855C45.237 112.862 45.4067 112.855 45.5752 112.835C45.7219 112.811 45.8687 112.826 46.0228 112.805C46.0889 112.795 46.1555 112.789 46.2224 112.786H46.2341C46.3482 112.806 46.4633 112.82 46.579 112.826C46.6538 112.826 46.7257 112.839 46.8079 112.844C46.9752 112.844 47.1425 112.844 47.3083 112.833C47.4742 112.823 47.6371 112.822 47.7999 112.816H47.9937L48.0274 112.825C48.2665 112.864 48.5095 112.874 48.7509 112.852C48.7685 112.852 48.7859 112.849 48.8023 112.842C49.1603 112.842 49.5184 112.842 49.8765 112.855C50.0849 112.855 50.2903 112.874 50.4973 112.886C50.7042 112.898 50.9038 112.907 51.1063 112.921C51.3352 112.946 51.5656 112.973 51.7945 113.002C52.0719 113.037 52.3551 113.043 52.6369 113.056C52.9161 113.06 53.1951 113.043 53.4719 113.007L53.8109 112.97C53.9576 112.98 54.105 112.977 54.2512 112.961C54.4097 112.935 54.5623 112.872 54.7237 112.858C54.8851 112.845 55.0304 112.858 55.1831 112.835C55.3259 112.813 55.47 112.8 55.6145 112.797C55.6938 112.797 55.7715 112.805 55.8508 112.805C55.93 112.805 55.9975 112.788 56.0724 112.783C56.178 112.783 56.2852 112.763 56.3908 112.757C56.6066 112.775 56.8223 112.792 57.0395 112.8C57.2397 112.805 57.44 112.8 57.6397 112.785C57.7864 112.775 57.9332 112.757 58.0873 112.747L58.4057 112.729C58.4982 112.729 58.5906 112.729 58.686 112.729C58.7814 112.729 58.9223 112.741 59.0397 112.747C59.2906 112.759 59.5401 112.778 59.7925 112.788C60.034 112.793 60.2755 112.785 60.516 112.764C60.742 112.748 60.968 112.748 61.1955 112.735C61.423 112.722 61.6211 112.719 61.8353 112.725C61.9557 112.725 62.0775 112.694 62.1978 112.698C62.3181 112.703 62.4018 112.698 62.5031 112.698C62.7261 112.698 62.9433 112.719 63.1708 112.725C63.2891 112.731 63.4076 112.731 63.5259 112.725C63.6257 112.714 63.7299 112.692 63.8297 112.687C64.0014 112.687 64.1716 112.687 64.3448 112.687C64.518 112.687 64.6882 112.665 64.879 112.665C64.9538 112.665 65.0375 112.654 65.0389 112.616C65.0404 112.578 64.9773 112.546 64.876 112.546Z" fill="#063844"/>
<path d="M92.7326 70.0082C93.0115 70.0522 93.2859 70.1123 93.5618 70.1549C93.8377 70.1975 94.1165 70.2547 94.3953 70.3017C94.6742 70.3486 94.9251 70.3721 95.1907 70.4073C95.4564 70.4425 95.7205 70.4748 95.9876 70.4954C96.2547 70.5159 96.8241 70.6348 97.0956 70.6539C97.3671 70.6729 97.8015 70.6994 98.0524 70.7272C98.544 70.7727 98.547 70.8138 99.0386 70.8549C99.5302 70.896 100.029 70.9342 100.527 70.9738C101.024 71.0134 101.569 71.0061 102.087 70.9987H102.82L103.554 70.9899C104.087 70.9899 104.615 70.9723 105.148 70.9312C105.465 70.9063 105.782 70.8667 106.099 70.8329C106.416 70.7991 106.731 70.7537 107.047 70.7082C107.615 70.6319 108.168 70.5614 108.734 70.5159L110.14 70.4176C110.609 70.375 111.069 70.3471 111.545 70.2987C112.168 70.2308 112.787 70.1235 113.397 69.9773C113.81 69.8796 114.216 69.7556 114.613 69.606C114.704 69.5723 114.795 69.5341 114.886 69.4945C115.435 69.2566 115.961 68.9713 116.46 68.6419C117.06 68.2522 117.597 67.7714 118.05 67.2169C118.399 66.783 118.68 66.2986 118.884 65.7802C119.089 65.2647 119.21 64.7197 119.243 64.1659C119.275 63.656 119.235 63.1442 119.123 62.6456C119.045 62.2626 118.932 61.8877 118.784 61.5259C118.57 61.0183 118.284 60.5439 117.936 60.117C117.4 59.4725 116.747 58.9348 116.012 58.5321C115.706 58.3521 115.39 58.1904 115.065 58.0478C114.711 57.8925 114.344 57.7697 113.968 57.6809C113.479 57.556 112.981 57.4653 112.48 57.4094C111.974 57.3469 111.464 57.3307 110.955 57.361C110.396 57.391 109.845 57.5084 109.323 57.7088C108.785 57.919 108.297 58.2383 107.889 58.6466C107.484 59.0392 107.194 59.5357 107.051 60.0818C106.983 60.3585 106.955 60.6439 106.971 60.9286C106.992 61.2096 107.049 61.4867 107.141 61.7533C107.346 62.3083 107.675 62.8099 108.101 63.2208C108.303 63.4208 108.522 63.603 108.755 63.7653C108.993 63.9277 109.244 64.0696 109.506 64.1894C109.75 64.3138 110.002 64.4231 110.259 64.5167C110.534 64.6203 110.816 64.707 111.102 64.7764C111.848 64.9453 112.611 65.0319 113.376 65.0347C113.684 65.0347 113.996 65.0347 114.307 65.0347C114.618 65.0347 114.929 65.0347 115.236 64.9966C115.566 64.9672 115.89 64.929 116.213 64.888L116.696 64.8249C116.857 64.7999 117.016 64.7662 117.176 64.7368C117.419 64.6986 117.658 64.6664 117.909 64.6429L118.389 64.6003C118.51 64.5906 118.629 64.5709 118.746 64.5416L119.095 64.4594L119.816 64.2848C120.385 64.1574 120.947 64.0011 121.5 63.8167C122.055 63.6523 122.582 63.4175 123.115 63.2076C123.361 63.1093 123.612 63.0213 123.857 62.9141L124.591 62.5957L125.398 62.2464L126.188 61.856C126.638 61.6477 127.087 61.4672 127.535 61.25L128.201 60.9476C128.423 60.8435 128.641 60.751 128.86 60.6336C129.325 60.3871 129.788 60.1381 130.248 59.8866C130.696 59.6122 131.141 59.3319 131.585 59.0516C132.485 58.4441 133.293 57.7147 134.133 57.0367L134.542 56.7124C134.676 56.6023 134.801 56.482 134.93 56.366L135.693 55.6631C135.787 55.5899 135.876 55.5115 135.961 55.4283C136.045 55.3446 136.124 55.2595 136.202 55.1729C136.358 55.0012 136.506 54.8237 136.657 54.6432L137.13 54.084C137.288 53.8845 137.46 53.6805 137.653 53.4706C137.995 53.1008 138.262 52.7501 138.185 52.684C138.107 52.618 137.802 52.9159 137.463 53.2974C137.216 53.5689 137.009 53.8111 136.799 54.0136L136.205 54.5757L135.618 55.1245L134.918 55.7247C134.796 55.8319 134.673 55.9449 134.544 56.0681C134.415 56.1914 134.281 56.3235 134.123 56.4541C133.813 56.7212 133.45 57.0308 132.99 57.3962C132.711 57.6061 132.411 57.7851 132.109 57.97L131.669 58.2474L131.45 58.3942L131.227 58.5336C130.419 59.0501 130.294 59.1426 129.972 59.307C129.468 59.5388 129.092 59.6504 128.663 59.8764L128.301 60.0715L127.93 60.252C127.683 60.3753 127.437 60.5001 127.196 60.6292C126.736 60.8782 126.264 61.103 125.781 61.3028C125.541 61.4055 125.301 61.5126 125.056 61.5963C124.811 61.6799 124.56 61.7607 124.312 61.834C123.863 61.9646 123.416 62.1143 122.967 62.2493C122.72 62.3301 122.472 62.3961 122.224 62.4651C121.976 62.534 121.731 62.6118 121.48 62.6617C120.974 62.7894 120.483 62.9083 119.99 63.08C119.55 63.212 119.098 63.2737 118.67 63.4014C118.571 63.4307 118.473 63.4586 118.376 63.4835C118.279 63.5085 118.177 63.5232 118.083 63.5408H118.044C117.704 63.5408 117.344 63.5789 116.994 63.6097L116.647 63.6391L116.295 63.6567C115.787 63.6831 115.284 63.7506 114.781 63.8035L113.285 63.8842C113.087 63.8974 112.892 63.8959 112.698 63.8974L112.597 63.8783C111.901 63.7403 111.166 63.7315 110.513 63.5496C110.465 63.5367 110.416 63.5298 110.366 63.529C110.125 63.4604 109.889 63.3705 109.663 63.2605C109.444 63.1538 109.236 63.0244 109.043 62.8745C108.661 62.5813 108.353 62.2035 108.142 61.7709C107.913 61.3064 107.874 60.7712 108.033 60.2785C108.197 59.794 108.508 59.3722 108.921 59.0707C109.158 58.9023 109.419 58.7707 109.696 58.6803C109.978 58.5878 110.271 58.5297 110.567 58.5072C111.332 58.4482 112.102 58.5031 112.851 58.6701C113.609 58.8116 114.351 59.0299 115.065 59.3216C115.351 59.4487 115.627 59.5958 115.892 59.7619C116.212 60.0011 116.499 60.3005 116.787 60.5588C117.104 60.8523 117.446 61.137 117.667 61.5317C117.866 61.915 118.021 62.3191 118.13 62.7366C118.254 63.1259 118.304 63.5351 118.276 63.9429C118.252 64.1628 118.209 64.3803 118.149 64.593C118.107 64.7991 118.054 65.0029 117.99 65.2035C117.887 65.4909 117.755 65.7672 117.597 66.0282C117.203 66.5212 116.735 66.9504 116.21 67.3006C115.723 67.6373 115.215 67.9417 114.688 68.2119C114.29 68.4223 113.881 68.6114 113.463 68.7784C113.162 68.8899 112.858 68.9946 112.549 69.0924C112.276 69.1746 112.003 69.2392 111.721 69.3052C111.37 69.3815 111.011 69.4285 110.653 69.4798C110.271 69.5356 109.891 69.5914 109.506 69.6266C109.122 69.6618 108.743 69.719 108.359 69.7572C107.625 69.8409 106.891 69.9553 106.158 70.0595C105.814 70.1035 105.469 70.1461 105.121 70.1769C104.774 70.2077 104.427 70.2341 104.081 70.2694C103.735 70.3046 103.429 70.3149 103.101 70.3325C102.772 70.3501 102.443 70.353 102.116 70.3545C101.743 70.3545 101.372 70.4235 100.999 70.4132C100.844 70.4132 100.687 70.4132 100.531 70.4132L100.063 70.4029C99.3761 70.3868 98.6952 70.3134 98.0084 70.2562C97.643 70.2224 97.2746 70.1828 96.9195 70.1754C96.6142 70.1652 96.2884 70.1754 95.9832 70.1608C95.719 70.1432 95.4578 70.1109 95.1951 70.083C94.9325 70.0551 94.6712 70.0287 94.4085 69.9891C94.115 69.948 93.8509 69.9216 93.5882 69.8952C93.3255 69.8687 93.0628 69.8306 92.7723 69.7836C92.5477 69.7469 92.2909 69.7249 92.2718 69.8012C92.2469 69.9025 92.4259 69.9568 92.7326 70.0082Z" fill="#063844"/>
<path d="M95.7524 74.8539C95.6849 74.7453 95.6496 74.6176 95.588 74.5061C95.5264 74.3946 95.4295 74.3256 95.362 74.2243C95.3282 74.173 95.2769 74.035 95.2446 73.9822C95.2033 73.9226 95.166 73.8604 95.1331 73.7958C95.089 73.6916 95.0318 73.7356 94.9863 73.6314C94.9408 73.5272 94.91 73.4143 94.8704 73.3071C94.8242 73.1987 94.7703 73.0937 94.709 72.9931C94.6561 72.8948 94.6106 72.7935 94.5622 72.6922C94.5171 72.5802 94.4626 72.4722 94.3993 72.3694C94.3157 72.252 94.2247 72.1404 94.1307 72.0289C94.0498 71.9284 93.9868 71.8147 93.9444 71.6929C93.893 71.4757 93.8607 71.2526 93.8299 71.0222C93.8084 70.8789 93.7776 70.7373 93.7375 70.5981C93.7147 70.5078 93.6822 70.4202 93.6406 70.3369C93.6303 70.3178 93.6201 70.3002 93.6083 70.2826C93.5731 70.2297 93.5364 70.1784 93.4982 70.1285C93.4552 70.0517 93.389 69.9905 93.3089 69.9538L93.2458 69.9186H93.2092C93.1864 69.9209 93.1634 69.9184 93.1416 69.9113C93.1409 69.9054 93.1409 69.8995 93.1416 69.8937C93.1447 69.8835 93.1497 69.8741 93.1563 69.8658C93.1563 69.8541 93.1402 69.8438 93.1226 69.8306L93.0565 69.7851L92.9831 69.7176C92.9897 69.7036 92.9941 69.6888 92.9964 69.6735C92.9968 69.6185 93.0136 69.5648 93.0448 69.5195C93.0657 69.4904 93.0903 69.4642 93.1182 69.4417L93.1666 69.4021L93.193 69.383L93.2326 69.3595L93.5804 69.1467C93.6824 69.1019 93.7893 69.0694 93.8989 69.0499L94.2261 68.9926C94.4581 68.9434 94.6873 68.8822 94.9129 68.8092C95.1448 68.7343 95.3371 68.5392 95.5719 68.4746C95.7288 68.4552 95.8846 68.4273 96.0385 68.3909C96.2601 68.3631 96.4113 68.2236 96.6622 68.1591C96.7723 68.1297 96.8559 68.0637 96.8251 67.9668C96.7943 67.87 96.6916 67.8744 96.5815 67.914C96.266 68.0255 96.062 67.9037 95.7597 67.9903C95.613 68.0314 95.4515 68.0622 95.1976 68.1473C95.0509 68.1972 94.8674 68.1605 94.7163 68.2134C94.5079 68.2853 94.4771 68.3073 94.389 68.3014C94.2723 68.2731 94.1525 68.2598 94.0324 68.2618C93.9081 68.287 93.7873 68.3274 93.6729 68.3821C93.4609 68.5012 93.2255 68.5728 92.9831 68.592H92.9421C92.9303 68.592 92.8951 68.6008 92.8716 68.6037L92.7161 68.636C92.6123 68.6605 92.51 68.6904 92.4093 68.7255C92.1951 68.8018 91.9397 68.8444 91.7108 68.9192C91.5494 68.9735 91.3806 69.022 91.2456 69.0836C91.291 69.1489 91.34 69.2116 91.3924 69.2715C91.5626 69.4593 91.6286 69.6237 91.7827 69.7924C91.8456 69.8617 91.9049 69.9342 91.9603 70.0096V70.0228C91.9988 70.1639 92.052 70.3007 92.1188 70.4308C92.1393 70.4763 92.1599 70.5232 92.1819 70.5687C92.2039 70.6142 92.201 70.6201 92.2112 70.645C92.2434 70.7232 92.2974 70.7905 92.3668 70.8388C92.3932 70.8608 92.4901 70.965 92.5135 70.9855C92.537 71.0061 92.5473 71.0882 92.5943 71.1323C92.6764 71.2012 92.7982 71.2453 92.8878 71.3113C92.9198 71.3535 92.9492 71.3976 92.9758 71.4434C93.0169 71.5168 93.0448 71.5975 93.0785 71.6723C93.149 71.8367 93.2091 72.0069 93.2855 72.1669C93.367 72.3175 93.4715 72.4547 93.5951 72.5734C93.7052 72.6922 93.7888 72.8287 93.8886 72.9505C93.9866 73.0649 94.0722 73.1894 94.144 73.3218C94.1836 73.3981 94.2907 73.4333 94.3245 73.5096C94.3582 73.586 94.3993 73.6314 94.436 73.6931C94.5152 73.8281 94.6605 73.9117 94.7295 74.0526C94.7597 74.1306 94.8034 74.2026 94.8586 74.2654C94.9115 74.3153 95.0597 74.3197 95.1052 74.3725C95.1786 74.4709 95.2446 74.5692 95.3092 74.666C95.3737 74.7629 95.4721 74.8495 95.5425 74.9595C95.5574 74.9835 95.581 75.0008 95.6084 75.0076C95.6358 75.0145 95.6648 75.0104 95.6893 74.9962C95.8023 74.9566 95.7891 74.9141 95.7524 74.8539Z" fill="#063844"/>
</svg>
