<svg width="164" height="164" viewBox="0 0 164 164" fill="none" xmlns="http://www.w3.org/2000/svg">
<path d="M58.4452 27.2926C58.0424 27.1933 57.6485 27.0608 57.2675 26.8966C56.9039 26.7568 56.5314 26.6714 56.1781 26.4962C55.9271 26.3535 55.6848 26.1962 55.4523 26.0251C55.252 25.9037 55.0615 25.7669 54.8826 25.6158C54.622 25.3685 54.5675 25.4686 54.3202 25.1977C54.0842 24.9241 53.8751 24.6283 53.696 24.3144C53.4999 24.002 53.3286 23.6747 53.1837 23.3354C53.0575 23.0187 52.9772 22.6856 52.9452 22.3461C52.9177 21.9911 52.9295 21.6341 52.9805 21.2817C53.0189 20.8768 53.167 20.4899 53.4089 20.1629C53.5196 20.025 53.6572 19.9112 53.8134 19.8285C53.9696 19.7457 54.1411 19.6957 54.3173 19.6815C54.6084 19.6852 54.8943 19.7595 55.1505 19.8979C55.2594 19.9544 55.3568 20.0308 55.4376 20.1231C55.4524 20.1415 55.4662 20.1606 55.4788 20.1806C55.4788 20.1997 55.4921 20.2159 55.4994 20.2321C55.5068 20.2483 55.4994 20.2586 55.4994 20.2674V20.2748C55.4994 20.2748 55.4906 20.2748 55.4994 20.2748C55.5153 20.2624 55.5326 20.2521 55.5509 20.2439L55.5892 20.2277L55.6025 20.2203C55.6131 20.2149 55.6245 20.2114 55.6363 20.21C55.6481 20.21 55.6363 20.21 55.6363 20.21H55.626H55.6069C55.5951 20.21 55.6216 20.21 55.5745 20.1997C55.5568 20.1997 55.5539 20.1879 55.5318 20.1776C55.5057 20.1656 55.481 20.1508 55.4582 20.1334C55.4449 20.1246 55.4405 20.1173 55.4243 20.1055C55.4081 20.0937 55.3905 20.0804 55.3772 20.0701H55.3684C55.3537 20.0687 55.3389 20.0687 55.3242 20.0701C55.2874 20.0701 55.2403 20.0863 55.177 20.0937C55.0047 20.1152 54.8308 20.1217 54.6573 20.1128C54.6161 20.1128 54.5778 20.1128 54.5381 20.1128C54.4239 20.109 54.3106 20.0907 54.201 20.0584C54.0306 19.9918 53.856 19.9367 53.6783 19.8935C53.4642 19.8316 53.2642 19.7286 53.0895 19.5902C53.0527 19.5431 53.0159 19.4945 52.982 19.443C52.9231 19.3561 52.8731 19.2619 52.8201 19.1692C52.7347 19.0272 52.6361 18.8936 52.5256 18.7702C52.4182 18.6377 52.3181 18.4993 52.2121 18.3639C52.0943 18.1975 51.9912 18.0224 51.8764 17.8531C51.7616 17.6838 51.6615 17.5071 51.5555 17.3348C51.4495 17.1626 51.3317 16.9918 51.2301 16.8137L51.0711 16.5472C51.0211 16.4589 50.974 16.3662 50.9239 16.2734C50.8343 16.1035 50.7547 15.9285 50.6854 15.7493C50.6074 15.5712 50.55 15.3857 50.4867 15.2017C50.4234 15.0176 50.363 14.7909 50.2982 14.5848C50.2335 14.3787 50.1908 14.1667 50.151 13.9533C50.1007 13.5929 50.0894 13.2281 50.1172 12.8653C50.1319 12.6857 50.1451 12.5076 50.1716 12.3295C50.1981 12.1513 50.2173 11.9747 50.2497 11.7995C50.371 11.044 50.5496 10.2989 50.7841 9.57061C51.0225 8.83452 51.1757 8.02041 51.5849 7.32555C51.8411 6.8839 52.2165 6.51291 52.4962 6.09187C52.9688 5.56041 53.2676 5.01276 53.8874 4.42831C54.1612 4.17657 54.3658 3.91747 54.2643 3.80117C54.1627 3.68487 53.8933 3.87478 53.615 4.15154C53.4192 4.3547 53.2352 4.51517 53.0689 4.66828L52.5845 5.0849L52.349 5.28806C52.2724 5.3602 52.2018 5.43528 52.1193 5.51183C51.949 5.68361 51.7938 5.8698 51.6556 6.06831C51.2606 6.60954 50.9157 7.18556 50.6251 7.78928C50.3866 8.28246 50.0656 8.74914 49.889 9.28501L49.7565 9.72666C49.727 9.84738 49.7035 9.9416 49.6829 10.0211C49.6477 10.1546 49.6044 10.2859 49.5533 10.4142C49.384 10.8308 49.2074 11.1238 49.1411 11.5153C49.103 11.739 49.0775 11.9646 49.0646 12.1911C49.0506 12.4181 49.0506 12.6457 49.0646 12.8727C49.1087 13.731 49.2236 14.5834 49.3031 15.4402C49.3312 15.831 49.4063 16.2171 49.5268 16.5899C49.674 16.9977 49.758 17.4173 49.9346 17.8118L50.0642 18.1063C50.1113 18.2044 50.1603 18.3001 50.2114 18.3933C50.2629 18.4876 50.3144 18.5818 50.3719 18.6716C50.4324 18.7619 50.4977 18.8489 50.5676 18.9322C50.628 19.0043 50.6825 19.0794 50.7355 19.1589C50.7885 19.2384 50.8429 19.3061 50.8959 19.3929C50.9489 19.4798 50.999 19.549 51.0549 19.6241C51.1114 19.6989 51.1723 19.7702 51.2375 19.8375C51.3567 19.9583 51.4598 20.0834 51.5731 20.2144L51.5849 20.2453C51.7222 20.5335 51.9018 20.7994 52.1178 21.0344C52.2675 21.2099 52.4342 21.3702 52.6154 21.5129C52.7649 21.6303 52.928 21.7291 53.1013 21.8073C53.2683 21.8797 53.4425 21.9344 53.6209 21.9707L53.802 22.009C53.8859 22.0237 53.9963 22.0429 54.0964 22.0532C54.2549 22.0685 54.4143 22.0724 54.5734 22.0649C54.8104 22.0473 55.0504 22.087 55.3095 22.0105C55.7916 21.8487 56.2152 21.548 56.527 21.1463C56.6382 21.0244 56.7287 20.8852 56.7949 20.7341C56.8318 20.6505 56.8595 20.5631 56.8774 20.4735C56.8981 20.3818 56.907 20.2878 56.9039 20.1938C56.9024 20.1189 56.8965 20.0442 56.8862 19.97C56.87 19.8994 56.8494 19.8228 56.8273 19.7566C56.8046 19.6901 56.7755 19.626 56.7405 19.5652C56.7106 19.5055 56.6751 19.4488 56.6345 19.3959C56.5962 19.3473 56.5579 19.2973 56.5167 19.2487C56.4755 19.2001 56.4357 19.1692 56.3945 19.1294C56.3147 19.0582 56.2296 18.9933 56.1398 18.9351C55.8001 18.7233 55.421 18.5825 55.0254 18.5214C54.628 18.4506 54.2203 18.4641 53.8285 18.5612C53.7284 18.5921 53.6209 18.6259 53.5267 18.6657C53.4371 18.7046 53.3496 18.7484 53.2647 18.7967C53.0921 18.8968 52.9315 19.0163 52.7862 19.153C52.5046 19.4228 52.2838 19.7495 52.1385 20.1114C51.8905 20.7205 51.7999 21.3822 51.8749 22.0355C51.9079 22.3227 51.962 22.6072 52.0369 22.8864C52.1127 23.1612 52.2026 23.432 52.3063 23.6976C52.4241 23.992 52.6655 24.229 52.8186 24.497C52.9529 24.7186 53.1045 24.9293 53.272 25.1271C53.6312 25.5687 54.095 25.8543 54.5145 26.2106C54.7238 26.4035 54.9562 26.5697 55.2065 26.7052C55.4302 26.8127 55.7659 26.795 55.9852 26.8848C56.3592 27.0585 56.736 27.2131 57.1262 27.35C57.534 27.4713 57.9496 27.5647 58.3701 27.6297C58.5424 27.6621 58.747 27.6474 58.7676 27.5326C58.7971 27.3824 58.6646 27.3353 58.4452 27.2926Z" fill="#BADFD8"/>
<path d="M80.3305 33.3285L78.349 35.3012C77.0005 36.5864 75.4312 38.144 74.0797 39.4424C72.6856 40.785 71.2826 42.2395 69.9135 43.6204C67.159 46.394 64.6431 48.8997 61.8651 51.6497C59.966 53.4649 58.0801 55.205 56.1796 57.082C54.1951 59.0414 52.2238 61.0259 50.2482 62.9942L40.7129 72.4573L40.4391 72.7253C39.2172 73.878 38.0174 74.988 36.8043 76.1113C36.0947 76.7635 35.3837 77.4465 34.6741 78.1385L33.1622 79.6357L31.6267 81.1682L31.4235 81.3713L35.2217 82.2164L38.0056 82.8244L39.5646 83.1659L40.5775 83.3838L40.6378 85.0326C40.8808 91.9519 41.1207 98.9005 41.4667 105.756C41.6021 110.467 41.714 115.197 41.7699 119.889C41.7699 121.467 41.7699 123.032 41.7626 124.616C41.7626 126.56 41.7906 128.527 41.8421 130.492C41.8745 131.721 41.9137 132.947 41.9599 134.172L42.1071 138.442H44.9925C45.761 138.442 46.5309 138.449 47.3009 138.459L50.8341 138.593C52.5021 138.648 54.1951 138.665 55.8792 138.677C59.171 138.698 62.4775 138.695 65.7634 138.751C66.3523 138.86 66.9897 138.954 67.8848 139.054C68.8476 139.161 69.884 139.238 70.9764 139.312C72.8092 139.434 74.6848 139.487 76.6428 139.535L83.11 139.683L84.8236 139.74C86.2634 139.787 87.7503 139.848 89.2239 139.856H89.6656C92.2051 139.856 94.9433 139.809 97.393 139.709C98.9697 139.638 100.505 139.531 102.05 139.443L104.349 139.316C105.138 139.269 105.985 139.238 106.679 139.169C108.484 139.192 110.291 139.216 112.097 139.228L114.707 139.238L124.424 139.213C124.424 138.752 124.42 138.292 124.413 137.834C124.413 137.265 124.403 136.7 124.397 136.133C124.391 135.692 124.385 135.25 124.378 134.808C124.364 133.925 124.35 133.042 124.335 132.158C124.301 130.398 124.266 128.639 124.231 126.882V127.084L124.176 124.472C124.207 123.327 124.228 122.181 124.225 121.046V116.942C124.225 115.748 124.137 114.647 124.144 113.469C124.144 112.203 124.203 110.966 124.163 109.703C124.128 108.526 124.054 107.551 124.095 106.342C124.178 103.874 124.288 101.449 124.315 98.9638C124.359 97.4916 124.394 96.0195 124.41 94.5179C124.437 92.2846 124.325 89.9777 124.273 87.7709C124.245 86.7801 124.217 85.7996 124.188 84.8162V83.3249C124.188 83.2498 124.188 83.1777 124.188 83.0997C124.381 83.0526 124.574 83.0099 124.762 82.9687L125.048 82.9054L125.481 82.8067C126.056 82.6757 126.632 82.5432 127.212 82.396C128.35 82.1016 129.513 81.8071 130.671 81.5009L132.903 80.9032C133.682 80.6912 134.439 80.4822 135.159 80.2775L134.153 79.4119C133.53 78.8804 132.936 78.3637 132.353 77.8499L130.914 76.5721C130.021 75.7712 129.132 74.963 128.231 74.1754C127.68 73.694 127.137 73.2347 126.595 72.7709L126.226 72.4191C125.559 71.7816 124.868 71.2016 124.181 70.6186C123.592 70.0459 123.015 69.5336 122.414 68.9786C121.972 68.5473 121.54 68.1292 121.067 67.6875C120.796 67.4328 120.509 67.1752 120.216 66.919L118.198 65.0994C116.796 63.8216 115.415 62.582 114.015 61.3454L112.939 60.359C110.799 58.4069 108.645 56.4612 106.479 54.5219L93.3166 42.7018C91.0951 40.7173 89.0075 38.9934 86.7816 37.0148C85.7835 36.1315 83.5428 34.1573 82.5683 33.2696C81.9455 32.7058 81.5171 32.3613 81.4273 32.4599C81.3375 32.5585 81.6481 32.8809 82.3474 33.5125L84.3113 35.3012C85.6613 36.5849 85.9307 36.8543 87.291 38.1381C88.7013 39.463 90.1234 40.6069 91.5721 41.9113C94.4767 44.5258 97.3386 47.2435 100.221 49.8831C102.126 51.6894 103.956 53.4869 105.923 55.2918C107.984 57.1777 110.055 59.0503 112.119 60.9258L117.809 66.1285C117.975 66.2875 118.148 66.4435 118.327 66.6025L118.441 66.707L118.666 66.9043L118.435 66.7056C119.302 67.452 120.184 68.2337 121.045 68.9492C121.367 69.2156 121.679 69.4556 121.989 69.6853L123.371 70.9145C124.117 71.577 124.821 72.185 125.539 72.8902C127.068 74.3888 128.568 75.8345 130.215 77.2846L133.021 79.7402L132.263 79.9434L130.938 80.3011L125.961 81.3861L124.693 81.6805L122.907 82.0986C122.894 82.7042 122.881 83.3092 122.869 83.9138L122.829 85.2108C122.801 86.0666 122.772 86.92 122.744 87.7709C122.679 89.6214 122.61 91.388 122.575 93.2812C122.542 95.0817 122.575 97.0735 122.656 98.7916C122.689 99.4688 122.729 100.143 122.77 100.813C122.779 101.374 122.788 101.938 122.797 102.503C122.806 103.302 122.775 104.04 122.76 104.829C122.744 105.693 122.791 106.529 122.816 107.389C122.854 108.332 122.837 109.276 122.766 110.217C122.691 111.056 122.619 111.948 122.61 112.852C122.583 114.472 122.623 116.134 122.633 117.768L122.585 120.852C122.544 121.966 122.504 123.06 122.463 124.169C122.395 125.887 122.368 127.679 122.343 129.43C122.314 131.626 122.285 133.82 122.255 136.013C122.248 136.213 122.242 136.413 122.236 136.612V136.65C122.236 136.663 122.236 136.676 122.236 136.675V136.688V136.716L122.226 136.768C122.215 136.824 122.199 136.879 122.18 136.933C122.092 136.915 122.006 136.889 121.922 136.855L120.597 136.79L119.242 136.737C118.333 136.706 117.416 136.682 116.499 136.665C113.719 136.609 110.972 136.593 108.184 136.597C105.131 136.597 101.985 136.632 98.9962 136.722L96.3713 136.809C94.3339 136.738 92.3037 136.662 90.2339 136.61C87.7694 136.548 85.33 136.503 82.8494 136.497C79.9699 136.497 77.0638 136.563 74.2505 136.644C73.22 136.674 72.1997 136.722 71.2208 136.778C70.283 136.833 69.3437 136.89 68.431 136.955C67.979 136.989 67.5477 137.033 67.1399 137.081C65.8385 137.123 64.49 137.145 63.193 137.178L59.9734 137.255C58.3319 137.277 56.6919 137.295 55.0342 137.301C53.0424 137.301 51.0844 137.279 49.1014 137.243C48.0414 137.225 46.978 137.214 45.9112 137.211H44.3124L43.3025 137.224L43.2451 136.02C43.2186 135.418 43.1926 134.817 43.167 134.216C43.2741 133.547 43.3277 132.869 43.3275 132.191C43.3275 129.551 43.3039 126.92 43.2627 124.248C43.2303 122.215 43.2083 120.191 43.1935 118.165C43.1818 116.265 43.1715 114.414 43.1052 112.497C43.0331 110.489 42.9123 108.512 42.8108 106.529L42.774 105.765C42.7651 105.587 42.7563 105.418 42.7489 105.254C42.7048 103.33 42.6532 101.414 42.5944 99.4761C42.506 96.548 42.4471 93.6434 42.3971 90.7226C42.3691 89.4065 42.3411 88.0727 42.3132 86.7477L42.2558 84.7573C42.2253 83.8593 42.1944 82.9652 42.163 82.0751L41.7552 81.9867L40.208 81.657L39.1878 81.4464L37.165 81.0342L36.1551 80.8296L35.5957 80.7265L34.4017 80.5057L34.7565 80.1185L35.3454 79.487L35.6855 79.1292L36.2037 78.5919L38.2838 76.4469L42.4589 72.1776L45.7949 68.8535C47.139 67.5167 48.4448 66.2036 49.7491 64.8609L50.7796 63.8304C52.8407 61.7885 56.1118 58.2553 58.1537 56.1884C62.295 52 65.1834 49.2574 69.3246 45.0573C71.4166 42.9359 73.3672 40.7806 75.4532 38.6548C76.4057 37.6994 80.5632 33.5655 80.5632 33.5655C81.152 32.9766 81.523 32.5615 81.4273 32.4673C81.3316 32.373 80.996 32.6616 80.3305 33.3285Z" fill="#063844"/>
<path d="M59.305 29.9176C58.4865 29.9176 57.6709 29.8808 56.8479 29.8734C56.0706 29.8734 55.3287 29.9146 54.5499 29.9176C54.1539 29.9176 53.2338 29.8911 52.8377 29.8911H51.7483H51.3611C51.1359 29.8911 50.9725 29.8911 50.9298 29.8911C50.9519 30.1296 50.974 30.2856 50.9946 30.4549C51.0049 30.5388 51.0137 30.6272 51.0225 30.7332C51.0314 30.8392 51.0387 30.9334 51.0446 31.0703C51.0755 31.7917 51.0903 32.5101 51.1153 33.2314C51.1403 33.9808 51.1933 34.7404 51.236 35.4897C51.2713 36.2008 51.3067 36.9089 51.342 37.6215C51.3788 38.3914 51.4038 39.1555 51.4613 39.9254C51.5319 40.8455 51.6085 41.7641 51.6924 42.6843C51.766 43.5101 51.8087 44.3169 51.8396 45.1398C51.8587 46.5016 51.8558 47.8486 51.8499 49.1942C51.8499 50.0642 51.8602 50.9402 51.8779 51.825C51.8911 52.4035 51.9058 52.9895 51.9382 53.5754L51.9633 53.9773L52.056 55.1889C52.1017 56.24 52.3416 57.3176 52.4579 58.3599C52.4579 58.4968 52.4712 58.6338 52.4771 58.7707C52.4947 59.1711 52.5109 59.5642 52.5286 59.9587C52.5492 60.421 52.5845 60.8656 52.6199 61.291L52.9702 60.9716L54.332 59.7232L55.308 58.8222C55.6143 58.5376 55.917 58.252 56.2164 57.9654C56.8126 57.3898 57.3941 56.8068 57.983 56.2268C58.5277 55.6924 59.0856 55.1609 59.6436 54.6309L60.2001 54.1054C60.1765 53.4605 60.1544 52.8202 60.1309 52.1739C60.1206 51.4569 60.1235 50.7562 60.1397 50.0363C60.1559 49.3164 60.1706 48.6259 60.1868 47.9237C60.2148 46.403 60.2251 44.891 60.228 43.3732C60.228 41.8098 60.1044 40.2463 60.1147 38.6799C60.122 37.673 60.1927 36.6734 60.1824 35.6708C60.2251 34.2708 60.1397 33.071 60.1574 31.4015C60.1647 30.6654 60.1265 30.0309 60.0249 30.0295C59.9233 30.028 59.8953 30.6507 59.8983 31.4015C59.9056 33.5509 59.7246 34.549 59.7128 36.5615C59.7128 37.5169 59.6863 38.5828 59.6863 40.3067C59.6863 41.3299 59.5965 42.3457 59.598 43.3732C59.598 44.785 59.6127 45.0118 59.5788 45.5417C59.5273 46.3544 59.4419 46.9226 59.4316 47.6322C59.4184 48.439 59.4154 49.2634 59.4316 50.0701C59.4463 50.7253 59.4581 51.3863 59.461 52.0473C59.461 52.377 59.461 52.7068 59.461 53.0366L59.4537 53.5312V53.6534V53.7197V53.7579L59.4287 53.7726L59.4169 53.78L59.4007 53.7933L59.1431 54.0023C58.6057 54.4366 58.0654 54.8856 57.5487 55.3449C56.979 55.8587 56.3886 56.3269 55.8159 56.8348C55.2433 57.3427 54.6691 57.8358 54.1303 58.385C54.0155 58.5013 53.8977 58.6146 53.7785 58.7265L53.7549 58.7471L53.7446 58.7574L53.7372 58.7677L53.7196 58.7869C53.684 58.8239 53.6515 58.8638 53.6224 58.9061C53.6033 58.9061 53.5885 58.8575 53.5782 58.8031V58.7898C53.5871 58.7648 53.5944 58.7398 53.6033 58.7147C53.6121 58.6897 53.6033 58.7147 53.6033 58.6985V58.5513V58.357C53.5959 58.0949 53.59 57.8314 53.5827 57.5709C53.5738 57.2308 53.5635 56.8833 53.5488 56.5403C53.5164 55.8455 53.4884 55.6011 53.4134 54.9651C53.3927 54.759 53.3015 53.8624 53.2809 53.6593C53.2441 53.3222 53.2602 52.985 53.2176 52.617C53.141 51.9648 53.0173 51.3259 52.9349 50.6752C52.9084 50.3366 52.8834 49.998 52.8628 49.655C52.8304 49.1235 52.8142 48.5891 52.7906 48.0606C52.742 46.93 52.7067 45.8008 52.6508 44.6746C52.5992 43.5852 52.4932 42.4943 52.3873 41.4211C52.2886 40.4068 52.2224 39.3851 52.1296 38.3678C52.0472 37.4139 51.9706 36.454 51.9191 35.4883C51.8897 34.9436 51.7837 34.4033 51.7572 33.8586C51.7351 33.4022 51.6968 32.9458 51.6688 32.4895C51.6423 32.0669 51.6011 31.6547 51.5599 31.244C51.5275 30.9496 51.4966 30.6551 51.4642 30.3519C51.5437 30.3519 51.6291 30.3519 51.7145 30.3519L52.3917 30.3636C52.6581 30.3636 52.9246 30.3636 53.1881 30.3533C53.6298 30.3342 54.1597 30.2061 54.6073 30.2061C55.3817 30.1943 56.1501 30.1899 56.9274 30.1899C57.7945 30.1899 58.4791 30.1472 59.3389 30.1472C59.673 30.1472 60.0499 30.1134 60.0558 30.0354C60.0293 29.9294 59.7599 29.9176 59.305 29.9176Z" fill="#063844"/>
<path d="M91.2747 72.8122C91.1127 72.927 90.9361 73.0168 90.7653 73.1199L90.2353 73.3849C89.9113 73.5401 89.5768 73.6724 89.2342 73.7809C89.0517 73.8412 88.6292 73.9767 88.4437 74.0223C88.3568 74.0473 88.2332 74.0915 88.1095 74.1371C87.9858 74.1828 87.8592 74.2181 87.7724 74.2387L87.7061 74.2549C87.5237 74.2965 87.3388 74.3265 87.1526 74.3447C87.0569 74.355 86.9627 74.3639 86.867 74.3712L86.5814 74.3815C86.203 74.3962 85.8306 74.3815 85.489 74.4154C85.2918 74.4316 85.0974 74.461 84.9002 74.4949C84.7029 74.5287 84.513 74.5597 84.3113 74.5891C84.1096 74.6185 83.9491 74.6318 83.7666 74.6524C83.584 74.673 83.4015 74.6892 83.2175 74.701C82.8112 74.7349 82.4093 74.7599 82.0029 74.7805C81.6609 74.7812 81.3192 74.7606 80.9798 74.7187C80.6441 74.6819 80.3114 74.62 79.9802 74.5714C79.2662 74.4448 78.5639 74.2991 77.8691 74.1298C77.5185 74.05 77.1611 74.0042 76.8018 73.9929L76.5309 73.9737C76.4425 73.9634 76.3527 73.9516 76.2629 73.9355C76.0811 73.9095 75.9035 73.86 75.7344 73.7882C75.2825 73.6101 74.6804 73.1537 74.274 72.9314C74.156 72.8393 74.031 72.7567 73.9001 72.6841C73.8397 72.6502 73.7779 72.6208 73.7161 72.5928L73.5365 72.5001C73.4143 72.4368 73.2862 72.3749 73.1508 72.2954C73.008 72.1971 72.8727 72.0883 72.7459 71.9701C72.5118 71.7228 72.2542 71.5579 72.1011 71.6948C71.948 71.8317 72.1291 72.0923 72.4103 72.3425C72.8239 72.687 73.1346 72.9314 73.4408 73.1493C73.5998 73.2553 73.7544 73.3657 73.9281 73.4747C74.1018 73.5836 74.2946 73.6867 74.5169 73.7985L74.8526 73.9575C74.9689 74.015 75.0926 74.0753 75.2309 74.1298L75.6829 74.3123C75.8507 74.3697 76.0347 74.4286 76.2379 74.4934C76.4793 74.5685 76.7149 74.6583 76.9504 74.754C77.1897 74.8463 77.4358 74.9196 77.6865 74.9733L78.3785 75.0838C78.5022 75.0993 78.6243 75.1254 78.7435 75.1618C79.07 75.2868 79.4077 75.38 79.752 75.44C80.1536 75.4798 80.5574 75.4916 80.9606 75.4754C81.7217 75.443 82.4873 75.4032 83.2396 75.39C83.5815 75.3887 83.9229 75.3631 84.2612 75.3134C84.6352 75.2531 85.0047 75.228 85.3742 75.15C85.913 75.0313 86.4433 74.8764 86.9612 74.6863L87.5501 74.4713C87.6973 74.411 87.8136 74.3697 87.8578 74.3565C88.111 74.2902 88.3598 74.2093 88.5938 74.1239C88.7985 74.0532 89.0355 73.9605 89.2387 73.8839L89.7569 73.6646C89.9291 73.588 90.0955 73.5026 90.2662 73.4231C90.437 73.3436 90.6166 73.2332 90.78 73.1405C90.9434 73.0477 91.1024 72.9476 91.2702 72.824L91.5514 72.6208L91.2747 72.8122Z" fill="#063844"/>
<path d="M79.1425 61.8799C76.9343 60.2605 74.6082 60.2605 72.4073 61.8578C71.8965 62.2288 71.3003 62.9944 71.2414 64.5446C71.2059 65.3366 71.3378 66.1272 71.6285 66.8647C71.8061 67.2812 72.0956 67.6405 72.4647 67.9026C74.1519 69.179 75.9405 69.2541 77.6394 68.119C78.2335 67.7363 78.7028 67.1883 78.9894 66.5423C79.3869 65.7017 79.6931 64.3812 79.7034 62.9355C79.7137 61.4898 77.5349 60.9848 77.0535 60.8008" fill="white"/>
<path d="M77.3067 60.9478C77.6165 61.0494 77.9194 61.1708 78.2136 61.3115C78.4922 61.4279 78.7565 61.5761 79.0012 61.7531C79.089 61.8221 79.1703 61.899 79.2441 61.9828C79.3156 62.0665 79.3805 62.1556 79.4384 62.2492C79.5334 62.3996 79.5943 62.5689 79.6166 62.7454C79.6298 62.8793 79.6313 62.9441 79.6386 63.0118C79.6473 63.1039 79.6473 63.1965 79.6386 63.2886C79.6195 63.583 79.5798 63.8613 79.5341 64.1439C79.4885 64.4266 79.437 64.7328 79.3707 65.0272C79.3079 65.3019 79.2292 65.5728 79.1352 65.8384C79.0331 66.1218 78.9127 66.3982 78.7745 66.6658C78.6152 66.9868 78.4121 67.284 78.1709 67.5491C77.9487 67.7811 77.6907 67.9759 77.4068 68.1262C76.9503 68.3751 76.4508 68.5355 75.9347 68.5987C75.6107 68.636 75.2834 68.6336 74.9601 68.5914C74.8541 68.5752 74.7496 68.5619 74.645 68.5354L74.4875 68.5016C74.436 68.4898 74.3845 68.4721 74.3329 68.4589L74.1857 68.4221C74.0385 68.372 73.9001 68.3352 73.7632 68.2748C73.4113 68.1129 73.0094 67.9804 72.6708 67.7522C72.628 67.7224 72.5868 67.6905 72.5472 67.6565C72.4809 67.5991 72.422 67.5417 72.3646 67.4813C72.2807 67.3915 72.1953 67.3076 72.1203 67.2119C72.0412 67.1116 71.9707 67.0047 71.9097 66.8925C71.7673 66.6114 71.6572 66.315 71.5814 66.0092C71.4944 65.6994 71.431 65.3834 71.3915 65.064C71.3588 64.7639 71.352 64.4615 71.3709 64.1601C71.3889 63.8259 71.4457 63.4949 71.5402 63.1738C71.6265 62.9056 71.758 62.6542 71.9289 62.4303C72.096 62.2107 72.3015 62.0232 72.5354 61.8768C73.03 61.5352 73.5669 61.2596 74.1327 61.0568C74.7103 60.8307 75.3262 60.7182 75.9464 60.7255C76.3432 60.7556 76.7353 60.8302 77.1153 60.9478C77.6562 61.1081 78.1735 61.3393 78.6538 61.6354C78.8937 61.7973 79.1131 61.9298 79.144 61.8886C79.1749 61.8473 78.9776 61.6913 78.7229 61.5264C78.3505 61.3026 78.0767 61.1363 77.7955 60.995C77.6527 60.9193 77.5052 60.8529 77.3538 60.7962L77.105 60.7064C77.0167 60.6799 76.921 60.6593 76.8194 60.6343C76.3151 60.5132 75.7942 60.4774 75.2781 60.5283C74.853 60.558 74.4327 60.636 74.0252 60.7609C73.4761 60.9699 73.4025 61.0347 73.1964 61.1142C72.9247 61.2194 72.6631 61.349 72.4147 61.5014C72.344 61.5485 72.2748 61.5897 72.2012 61.6486C72.1271 61.7038 72.0559 61.7628 71.9878 61.8253C71.8538 61.9504 71.7343 62.0901 71.6315 62.2419C71.2443 62.8131 71.0735 63.4785 70.969 64.113C70.9174 64.4044 70.8977 64.7006 70.9101 64.9963C70.9165 65.3188 70.945 65.6405 70.9955 65.9591C71.0471 66.2846 71.1426 66.6016 71.2796 66.9013C71.3993 67.179 71.5601 67.437 71.7566 67.6668C71.8496 67.7653 71.9479 67.8587 72.0511 67.9466L72.0673 67.9642C72.2234 68.1212 72.3923 68.265 72.5722 68.3941C72.6885 68.4809 72.8122 68.5604 72.9358 68.6414C73.0595 68.7224 73.1552 68.7621 73.242 68.8048C73.3289 68.8475 73.4217 68.8755 73.5512 68.9241C73.591 68.9417 73.6984 68.9785 73.8191 69.0109L73.9811 69.0595L74.0915 69.0845C74.1636 69.0993 74.2387 69.1213 74.3035 69.142C74.3779 69.1618 74.4537 69.1761 74.5302 69.1846C74.8104 69.2068 75.0922 69.1994 75.3708 69.1626C75.518 69.1478 75.6652 69.1405 75.8036 69.1169C76.0268 69.0868 76.2476 69.0416 76.4646 68.9815C76.9251 68.848 77.3643 68.6498 77.769 68.3926C78.1687 68.1449 78.5118 67.8159 78.7759 67.4269C79.0213 67.0697 79.2192 66.6823 79.3648 66.2742C79.4938 65.8986 79.6019 65.5163 79.6887 65.1288C79.7402 64.9109 79.7461 64.6872 79.7829 64.4649C79.8138 64.2808 79.8344 64.0939 79.8521 63.9084C79.8704 63.7077 79.8778 63.5062 79.8742 63.3048C79.8742 63.2047 79.8742 63.1046 79.8742 63.0104C79.8743 62.9004 79.8659 62.7907 79.8492 62.6821C79.813 62.4441 79.7161 62.2195 79.568 62.0299C79.4256 61.8845 79.2653 61.7579 79.091 61.653C78.836 61.4644 78.5604 61.3054 78.2695 61.179C77.9692 61.0545 77.662 60.9474 77.3494 60.858C77.2213 60.8168 77.0771 60.7844 77.055 60.8198C77.0329 60.8551 77.133 60.886 77.3067 60.9478Z" fill="#063844"/>
<path d="M92.9088 63.4508C90.9405 60.9937 88.4584 60.5535 86.3311 62.2863C85.7658 62.7456 85.1637 63.52 85.0518 64.8022C84.9635 65.821 85.2329 66.8632 85.6157 67.4904C85.9253 67.9954 86.3947 68.3824 86.9494 68.5901C88.0439 69.0713 89.2621 69.1954 90.4311 68.9449C91.3233 68.7506 92.2684 68.2648 92.8705 66.8309C93.149 66.2147 93.2571 65.5351 93.1835 64.8629C93.11 64.1907 92.8575 63.5505 92.4524 63.0091" fill="white"/>
<path d="M92.5452 63.2549C92.6968 63.5013 92.8189 63.7646 92.9088 64.0396C93.0035 64.2923 93.0735 64.5536 93.1179 64.8198C93.137 65.0205 93.14 65.2223 93.1267 65.4234C93.1216 65.5872 93.1024 65.7502 93.0693 65.9107C93.0457 66.0344 93.0354 66.0933 93.028 66.1521C93.0215 66.2343 93.0031 66.3151 92.9736 66.3921C92.8881 66.6323 92.7822 66.8648 92.6571 67.087C92.5316 67.3188 92.3874 67.5398 92.2257 67.748C92.0707 67.9396 91.8916 68.1103 91.6928 68.2559C91.4776 68.4088 91.2448 68.5354 90.9994 68.6328C90.7019 68.7554 90.3919 68.8453 90.0749 68.9007C89.7909 68.9526 89.5019 68.9708 89.2136 68.9552C88.7446 68.9156 88.2836 68.8095 87.8445 68.6401C87.5631 68.5339 87.2879 68.412 87.0201 68.275C86.853 68.1881 86.6922 68.0898 86.5387 67.9806C86.5063 67.9556 86.4725 67.932 86.4401 67.9055C86.3405 67.83 86.2474 67.7463 86.1618 67.6552C85.9271 67.404 85.7288 67.1211 85.573 66.8146C85.5582 66.7719 85.542 66.7278 85.5303 66.6836C85.5082 66.607 85.492 66.5364 85.4758 66.4569C85.4508 66.3421 85.4169 66.2316 85.3904 66.1183C85.3639 66.0049 85.3389 65.8827 85.3183 65.7635C85.2777 65.4812 85.259 65.1963 85.2623 64.9111C85.2604 64.6266 85.2865 64.3425 85.3404 64.0631C85.3948 63.8023 85.4823 63.5495 85.6009 63.3109C85.7318 63.0436 85.8993 62.7958 86.0985 62.5748C86.1851 62.4834 86.2781 62.3983 86.3768 62.3201L86.6874 62.0978C86.7905 62.0278 86.8977 61.9639 87.0083 61.9064L87.1703 61.8151C87.2262 61.7872 87.2836 61.7636 87.3396 61.7386C87.8208 61.5089 88.3426 61.3764 88.875 61.3485C89.4257 61.305 89.979 61.3854 90.4944 61.584C90.6562 61.6592 90.8139 61.7427 90.967 61.8343L91.1893 61.9815L91.3012 62.0521L91.4087 62.1287C91.5058 62.2067 91.6015 62.2759 91.7031 62.3466L91.9799 62.5748C92.0255 62.6145 92.0756 62.6513 92.1271 62.6925L92.2655 62.8265C92.3686 62.9195 92.4669 63.0178 92.5599 63.1209C92.7263 63.3212 92.8897 63.4816 92.9294 63.4507C92.9692 63.4198 92.8337 63.2387 92.6556 63.0341C92.3906 62.7514 92.2036 62.535 92.0019 62.3377L91.8547 62.1905L91.6869 62.0433C91.5621 61.9326 91.427 61.834 91.2835 61.7489L91.048 61.6017C90.9626 61.556 90.8698 61.5119 90.7697 61.4618L90.6122 61.3853L90.4341 61.319C90.2978 61.2647 90.1575 61.2209 90.0145 61.188C89.9203 61.1659 89.829 61.1409 89.7363 61.1158L89.4521 61.0658C89.2613 61.0316 89.0674 61.0173 88.8736 61.0231C88.7396 61.0305 88.6351 61.0496 88.5482 61.057C88.4785 61.0635 88.4092 61.0738 88.3406 61.0879C88.2479 61.1098 88.154 61.127 88.0595 61.1394C87.9122 61.1556 87.7798 61.1968 87.6531 61.2204C87.5913 61.2351 87.5295 61.2498 87.4676 61.2675C87.4058 61.2851 87.3484 61.3131 87.2866 61.3411C87.1434 61.4003 87.005 61.4707 86.8729 61.5516C86.7383 61.6275 86.6094 61.7131 86.4872 61.8078C86.3723 61.8976 86.2575 61.9844 86.1442 62.0786C86.0304 62.176 85.9218 62.2792 85.8188 62.3878C85.6132 62.6066 85.4279 62.8436 85.2653 63.0959C85.1168 63.3241 85.0009 63.5718 84.9208 63.832C84.8298 64.1137 84.7667 64.4036 84.7323 64.6976C84.6958 64.9911 84.6988 65.2882 84.7412 65.5809C84.7712 65.8355 84.8179 66.0878 84.881 66.3362C84.9149 66.4451 84.9502 66.5541 84.9841 66.663V66.6836C85.0206 66.88 85.0763 67.0723 85.1504 67.2577C85.1992 67.3859 85.2573 67.5104 85.3242 67.6302C85.4249 67.8184 85.5574 67.9877 85.7158 68.1307C85.7467 68.1602 85.8276 68.2382 85.9145 68.3089C85.9826 68.3654 86.0539 68.418 86.128 68.4664C86.2383 68.5494 86.355 68.6238 86.4769 68.6887C86.7069 68.7833 86.9442 68.8591 87.1865 68.9154C87.3042 68.9581 87.425 68.9949 87.5471 69.0347C87.7371 69.0921 87.927 69.1524 88.1198 69.1951C88.5337 69.294 88.9574 69.3458 89.3829 69.3497C89.7936 69.3469 90.2019 69.2869 90.596 69.1716C91.3436 68.9874 92.0084 68.5589 92.4848 67.9541C92.6057 67.7859 92.7144 67.6093 92.8102 67.4256C92.895 67.2775 92.9712 67.1246 93.0384 66.9677C93.1749 66.6247 93.2713 66.2671 93.3254 65.9019C93.3674 65.706 93.3862 65.5059 93.3814 65.3056C93.3565 65.1306 93.3216 64.9571 93.2768 64.786C93.2361 64.5051 93.166 64.2293 93.0678 63.963C92.9616 63.6891 92.8243 63.4283 92.6585 63.1857C92.5908 63.0841 92.4981 62.9826 92.4657 63.0032C92.4333 63.0238 92.4524 63.1209 92.5452 63.2549Z" fill="#063844"/>
<path d="M88.5379 63.2342C88.0492 63.274 87.6399 63.4595 87.3322 64.1426C87.1935 64.4692 87.1639 64.8318 87.2477 65.1766C87.3315 65.5214 87.5243 65.8299 87.7974 66.0564C88.08 66.2698 88.4245 66.3852 88.7786 66.3852C89.1328 66.3852 89.4773 66.2698 89.7599 66.0564C90.0313 65.8286 90.2222 65.5196 90.3044 65.1749C90.3866 64.8303 90.3557 64.4683 90.2162 64.1426C90.0621 63.8233 89.8082 63.563 89.4929 63.4009C89.1776 63.2389 88.818 63.184 88.4687 63.2445" fill="#063844"/>
<path d="M88.5379 63.2945C88.6035 63.2878 88.6696 63.2878 88.7352 63.2945C88.797 63.2945 88.8588 63.2945 88.9207 63.3077C88.9626 63.3208 89.0034 63.3371 89.0429 63.3563C89.0792 63.3613 89.1148 63.3707 89.1489 63.3843C89.2004 63.4078 89.1945 63.427 89.2431 63.4549C89.291 63.4833 89.3363 63.5158 89.3785 63.5521C89.4242 63.5874 89.4727 63.6139 89.5257 63.6463C89.5679 63.6777 89.6069 63.7132 89.642 63.7523C89.6847 63.7906 89.7127 63.8406 89.7569 63.8745C89.801 63.9084 89.8555 63.9643 89.9041 64.0114C89.9462 64.0547 89.9757 64.1087 89.9895 64.1675C90.0005 64.266 89.9935 64.3658 89.9689 64.4619C89.9512 64.5237 89.9424 64.5811 89.9276 64.6386C89.9173 64.6741 89.9105 64.7106 89.907 64.7475V64.7725C89.907 64.8211 89.9144 64.8712 89.907 64.9197C89.8997 64.9683 89.907 65.039 89.907 65.1008C89.9147 65.1991 89.9107 65.2979 89.8952 65.3953C89.8859 65.4421 89.8736 65.4883 89.8584 65.5336C89.8408 65.5646 89.8261 65.5999 89.8054 65.6293C89.7848 65.6588 89.751 65.7191 89.7215 65.7633C89.6797 65.836 89.6304 65.9041 89.5743 65.9665C89.5445 65.9883 89.5136 66.0084 89.4816 66.0268C89.446 66.0475 89.4116 66.0701 89.3785 66.0945C89.2848 66.1531 89.1792 66.1899 89.0694 66.202C88.9519 66.2195 88.8321 66.2125 88.7175 66.1814C88.666 66.165 88.6133 66.1522 88.56 66.1431C88.5099 66.1314 88.4555 66.1314 88.4128 66.1166C88.3574 66.1056 88.3032 66.0893 88.2508 66.0681C88.1979 66.045 88.1483 66.0148 88.1036 65.9782C88.086 65.9562 88.0698 65.9341 88.0536 65.9105L88.0123 65.8281C87.977 65.7574 87.9446 65.6941 87.9093 65.6352C87.874 65.5763 87.846 65.541 87.8165 65.488C87.7871 65.435 87.737 65.3967 87.6958 65.3482C87.6838 65.3276 87.6754 65.3052 87.6708 65.2819C87.67 65.2662 87.67 65.2505 87.6708 65.2348C87.6668 65.2122 87.6571 65.1909 87.6428 65.173L87.609 65.1082C87.5854 65.0567 87.5678 65.0022 87.5427 64.9477C87.5177 64.8933 87.4868 64.8388 87.4632 64.7799C87.4446 64.7249 87.4318 64.6682 87.4249 64.6106C87.416 64.5462 87.4116 64.4813 87.4117 64.4163C87.42 64.3645 87.4374 64.3147 87.4632 64.269C87.4882 64.2234 87.5192 64.1778 87.5516 64.1307C87.6163 64.0305 87.6782 63.9334 87.7473 63.8465C87.8165 63.7597 87.8533 63.6316 87.9535 63.5683C88.0138 63.526 88.0767 63.4877 88.1419 63.4535C88.2435 63.4358 88.3082 63.3062 88.4466 63.3062C88.5055 63.3062 88.557 63.2797 88.5526 63.2282C88.5482 63.1767 88.4937 63.1678 88.429 63.1782C88.2751 63.19 88.1236 63.2227 87.9785 63.2753C87.8825 63.3352 87.7945 63.4069 87.7164 63.4888C87.6378 63.5382 87.5648 63.5959 87.4986 63.661C87.4235 63.7641 87.4205 63.7862 87.3793 63.8171C87.3381 63.848 87.2586 63.8907 87.2233 63.9452C87.1823 64.0092 87.1515 64.0792 87.132 64.1527C87.0967 64.3 87.0716 64.4383 87.023 64.5782C86.9985 64.6411 86.986 64.708 86.9862 64.7755C86.9862 64.8491 86.9715 64.9227 86.9862 64.9963C86.9884 65.0705 87.0081 65.1431 87.0437 65.2083C87.0805 65.2642 87.0834 65.332 87.1232 65.385C87.1415 65.4071 87.1573 65.4313 87.1703 65.4571C87.1685 65.5071 87.176 65.557 87.1923 65.6043C87.1991 65.6373 87.2094 65.6694 87.2233 65.7C87.2536 65.7667 87.2954 65.8275 87.3469 65.8796C87.397 65.9311 87.4426 65.9856 87.4941 66.0268L87.556 66.0842V66.1004C87.5729 66.1533 87.6052 66.1999 87.6487 66.2344C87.6914 66.2683 87.74 66.2948 87.7827 66.3257C87.7866 66.3275 87.7909 66.3285 87.7952 66.3285C87.7995 66.3285 87.8038 66.3275 87.8077 66.3257C87.9424 66.4081 88.0849 66.4772 88.2332 66.5318C88.3186 66.5642 88.4039 66.5966 88.4937 66.6231C88.5835 66.6496 88.6719 66.6643 88.7631 66.6805C88.869 66.7057 88.9761 66.7254 89.0841 66.7394C89.2206 66.7496 89.3578 66.7346 89.4889 66.6952C89.6212 66.6522 89.7402 66.5762 89.8349 66.4744C89.8765 66.4374 89.9149 66.397 89.9497 66.3537C90.0128 66.3183 90.0659 66.2677 90.1043 66.2064C90.1396 66.1343 90.144 66.043 90.1779 65.9782C90.2183 65.9236 90.2519 65.8643 90.278 65.8016C90.2933 65.7398 90.3145 65.6797 90.3413 65.622C90.3575 65.594 90.3766 65.566 90.3914 65.5366C90.4011 65.5055 90.407 65.4734 90.409 65.4409C90.4179 65.3967 90.4208 65.3511 90.4282 65.3069L90.4885 65.1833C90.5047 65.1406 90.5194 65.0964 90.5327 65.0522C90.5511 64.9691 90.5541 64.8833 90.5415 64.799C90.5304 64.7365 90.5162 64.6746 90.4988 64.6135C90.49 64.5694 90.4782 64.5267 90.4664 64.484C90.4547 64.4413 90.4473 64.4104 90.4399 64.3721L90.4179 64.2249C90.401 64.1193 90.3718 64.016 90.331 63.9172C90.2842 63.825 90.2185 63.7438 90.1382 63.6787C90.0698 63.614 89.9975 63.5535 89.9217 63.4976C89.8496 63.449 89.7745 63.4019 89.7068 63.3504C89.6685 63.318 89.6052 63.3268 89.567 63.2989C89.5322 63.2778 89.4957 63.2596 89.458 63.2444C89.3787 63.2012 89.2972 63.1624 89.2136 63.1281C89.1674 63.1068 89.1173 63.0952 89.0664 63.0942C89.0252 63.0942 88.9796 63.1119 88.9398 63.1134C88.8706 63.1134 88.8029 63.1134 88.7337 63.1134C88.6632 63.1226 88.5934 63.1363 88.5247 63.1546C88.4967 63.1546 88.4658 63.1737 88.4731 63.212C88.4805 63.2503 88.5026 63.3033 88.5379 63.2945Z" fill="#063844"/>
<path d="M75.2825 62.7632C74.7922 62.8029 74.3845 62.9899 74.0753 63.6715C73.9373 63.9982 73.908 64.3606 73.9918 64.7053C74.0756 65.0499 74.2679 65.3584 74.5405 65.5853C74.8231 65.7987 75.1676 65.9142 75.5217 65.9142C75.8758 65.9142 76.2203 65.7987 76.5029 65.5853C76.7744 65.3576 76.9655 65.0487 77.0479 64.704C77.1304 64.3594 77.0998 63.9974 76.9608 63.6715C76.8062 63.3523 76.552 63.0921 76.2364 62.9301C75.9209 62.7681 75.5613 62.7131 75.2118 62.7735" fill="#063844"/>
<path d="M75.2825 62.8234C75.3481 62.8175 75.4141 62.8175 75.4798 62.8234C75.5416 62.8234 75.6034 62.8234 75.6653 62.8367C75.7066 62.8501 75.7469 62.8663 75.786 62.8853C75.8223 62.8901 75.858 62.8995 75.892 62.9132C75.9435 62.9368 75.9376 62.9574 75.9862 62.9839C76.0345 63.0124 76.0803 63.0449 76.1231 63.0811C76.1673 63.1164 76.2173 63.1429 76.2615 63.1767C76.3041 63.2076 76.3435 63.2426 76.3793 63.2813C76.4205 63.3195 76.4499 63.3696 76.4926 63.4049C76.5353 63.4403 76.5927 63.4933 76.6398 63.5418C76.6817 63.5845 76.7108 63.6381 76.7238 63.6964C76.736 63.7949 76.7295 63.8948 76.7046 63.9909C76.687 64.0542 76.6781 64.1101 76.6619 64.1675C76.6523 64.2033 76.6455 64.2397 76.6413 64.2765V64.3015C76.6413 64.3515 76.6413 64.4001 76.6413 64.4487C76.6413 64.4973 76.6413 64.5665 76.6413 64.6298C76.6482 64.7281 76.6443 64.8268 76.6295 64.9242C76.6204 64.9708 76.6076 65.0166 76.5913 65.0611C76.5765 65.0945 76.5588 65.1266 76.5383 65.1568C76.5103 65.2024 76.4853 65.2466 76.4558 65.2922C76.4132 65.3639 76.3639 65.4315 76.3086 65.4939C76.2792 65.5175 76.2468 65.5352 76.2159 65.5558C76.18 65.5754 76.1456 65.5975 76.1128 65.622C76.0189 65.6803 75.9134 65.7175 75.8036 65.731C75.6862 65.7478 75.5665 65.7408 75.4518 65.7103C75.4003 65.6936 75.3477 65.6808 75.2943 65.6721C75.2427 65.6588 75.1897 65.6588 75.1397 65.6441C75.0839 65.6347 75.0295 65.6183 74.9777 65.5955C74.9271 65.573 74.88 65.5432 74.8379 65.5072C74.8199 65.4856 74.8032 65.463 74.7878 65.4395L74.7466 65.357C74.7113 65.2864 74.6774 65.2231 74.6421 65.1627C74.6068 65.1023 74.5803 65.0685 74.5493 65.0155C74.5184 64.9625 74.4698 64.9227 74.4301 64.8683C74.4183 64.848 74.4094 64.8262 74.4036 64.8035C74.4036 64.7873 74.4036 64.7711 74.4036 64.7549C74.3988 64.7323 74.3887 64.7111 74.3742 64.6931L74.3403 64.6298C74.3182 64.5768 74.2991 64.5223 74.2755 64.4693C74.252 64.4163 74.2196 64.3604 74.196 64.3015C74.1766 64.2468 74.1638 64.1899 74.1577 64.1322C74.1484 64.0673 74.1435 64.0019 74.143 63.9364C74.152 63.8846 74.17 63.8348 74.196 63.7892C74.221 63.7435 74.252 63.6979 74.2829 63.6508C74.3491 63.5507 74.411 63.452 74.4802 63.3652C74.5493 63.2783 74.5861 63.1502 74.6848 63.0869C74.7481 63.0487 74.807 63.0045 74.8747 62.9721C74.9763 62.9544 75.0396 62.8249 75.1794 62.8249C75.2383 62.8249 75.2884 62.7984 75.2854 62.7469C75.2825 62.6953 75.2265 62.6865 75.1618 62.6968C75.008 62.7094 74.8566 62.7421 74.7113 62.794C74.6148 62.8538 74.5263 62.9255 74.4478 63.0074C74.3691 63.0574 74.2961 63.1156 74.2299 63.1812C74.1548 63.2842 74.1533 63.3048 74.1121 63.3357C74.0709 63.3667 73.9899 63.4093 73.9561 63.4653C73.9148 63.5292 73.884 63.5993 73.8648 63.6729C73.8294 63.8201 73.8029 63.957 73.7558 64.0983C73.7307 64.1611 73.7177 64.228 73.7176 64.2956C73.7176 64.3677 73.7043 64.4428 73.7176 64.5149C73.7204 64.5895 73.7401 64.6625 73.775 64.7284C73.8133 64.7843 73.8162 64.8506 73.8559 64.9036C73.874 64.926 73.8898 64.9502 73.9031 64.9757C73.9024 65.0257 73.9099 65.0754 73.9251 65.1229C73.9323 65.1558 73.9427 65.1878 73.9561 65.2186C73.9871 65.2853 74.0294 65.3461 74.0812 65.3982C74.1312 65.4498 74.1769 65.5042 74.2284 65.5455L74.2917 65.6029V65.6191C74.3092 65.6721 74.3413 65.7191 74.3845 65.7545C74.4286 65.7869 74.4757 65.8149 74.5184 65.8443C74.5222 65.8465 74.5265 65.8477 74.5309 65.8477C74.5353 65.8477 74.5397 65.8465 74.5435 65.8443C74.6786 65.9264 74.821 65.9959 74.9689 66.0519C75.0558 66.0843 75.1412 66.1152 75.231 66.1432C75.3208 66.1711 75.4076 66.1829 75.4989 66.1991C75.605 66.2258 75.7127 66.2454 75.8213 66.258C75.9578 66.2682 76.0951 66.2532 76.2262 66.2138C76.3578 66.1712 76.4763 66.0957 76.5706 65.9945C76.612 65.9568 76.6509 65.9165 76.6869 65.8738C76.7493 65.8375 76.8023 65.7871 76.8415 65.7265C76.8769 65.6529 76.8813 65.5617 76.9151 65.4969C76.9555 65.4428 76.9891 65.3839 77.0152 65.3217C77.0298 65.2599 77.0506 65.1998 77.0771 65.1421C77.0947 65.1126 77.1139 65.0847 77.1286 65.0552C77.1382 65.0246 77.1441 64.993 77.1463 64.961C77.1551 64.9168 77.158 64.8697 77.1654 64.827L77.2258 64.7034C77.2422 64.6605 77.2565 64.6167 77.2685 64.5724C77.2883 64.4889 77.2913 64.4023 77.2773 64.3177C77.2667 64.2552 77.2529 64.1933 77.2361 64.1322C77.2272 64.0895 77.214 64.0453 77.2037 64.0041C77.1934 63.9629 77.1831 63.9305 77.1772 63.8922L77.1551 63.745C77.1377 63.6395 77.1086 63.5363 77.0682 63.4373C77.0222 63.3447 76.9563 63.2633 76.8754 63.1988C76.8064 63.1344 76.7342 63.0734 76.659 63.0163C76.5854 62.9677 76.5118 62.9206 76.444 62.8691C76.4043 62.8367 76.3425 62.847 76.2968 62.8175C76.2615 62.7969 76.2246 62.7792 76.1864 62.7645C76.1074 62.7208 76.0258 62.6819 75.942 62.6482C75.8959 62.6267 75.8457 62.6151 75.7948 62.6144C75.7521 62.6144 75.7079 62.6306 75.6667 62.6335C75.599 62.6335 75.5313 62.6335 75.4621 62.6335C75.3916 62.6422 75.3218 62.6555 75.253 62.6733C75.2236 62.6733 75.1927 62.6924 75.2 62.7307C75.2074 62.769 75.2457 62.8293 75.2825 62.8234Z" fill="#063844"/>
<path d="M113.799 82.8701V132.054L51.5658 131.793V82.8701H113.799Z" fill="#BADFD8"/>
<path d="M113.817 82.8699C113.538 82.8699 113.581 84.1949 113.581 86.3796C113.581 94.0349 113.55 101.605 113.491 109.184C113.455 112.973 113.419 116.769 113.382 120.572C113.36 122.476 113.337 124.384 113.315 126.296C113.303 127.253 113.291 128.211 113.278 129.17C113.27 129.65 113.265 130.13 113.257 130.611V130.972V131.176L113.248 131.49L112.818 131.474L111.85 131.455L109.864 131.416L105.843 131.337C97.2105 131.163 88.9958 131.403 80.8267 131.455C72.7842 131.505 65.9283 131.408 57.5296 131.284L54.5734 131.241L53.0821 131.221L52.4741 131.212L52.1679 131.203V130.885L52.1753 130.243C52.1753 129.727 52.1797 129.209 52.1885 128.688C52.1954 127.649 52.2027 126.607 52.2106 125.563C52.2184 123.475 52.2268 121.381 52.2356 119.278C52.2356 115.08 52.2253 110.875 52.1708 106.732C52.1149 102.497 52.162 98.5471 52.2415 94.6473C52.2871 92.6982 52.3313 90.7608 52.3755 88.8072C52.399 87.8317 52.4216 86.8502 52.4432 85.8629C52.453 85.3722 52.4638 84.876 52.4756 84.3745V84.0006V83.9064V83.871V83.8563L52.4903 83.8092C52.5112 83.8135 52.5318 83.8189 52.5521 83.8254L53.4031 83.8386L55.283 83.8607C56.5481 83.8725 57.8387 83.8774 59.1548 83.8754C68.509 83.8622 78.2254 83.4927 87.6428 83.3278C95.3261 83.1938 102.624 83.0937 110.279 83.0937C112.046 83.0937 113.789 83.1055 113.789 82.8935C113.789 82.6138 112.464 82.658 110.279 82.658C98.5016 82.658 87.3042 82.3032 75.4665 82.496C71.1972 82.5652 67.187 82.549 63.2651 82.5196L57.4191 82.4769L54.4984 82.4666H51.1536C51.1536 82.973 51.1536 83.4809 51.1536 83.9903C51.1536 84.3657 51.1624 84.7411 51.1653 85.1194C51.1781 85.8742 51.1909 86.6353 51.2036 87.4028C51.3199 93.1855 50.9519 97.5416 50.9092 102.978C50.8636 109.343 51.1227 114.695 50.9887 121.285C50.9534 123.1 50.9431 124.871 50.9489 126.616C50.9548 127.489 50.9612 128.356 50.9681 129.215C50.9808 130.258 50.9936 131.295 51.0064 132.328L52.4241 132.317L53.3824 132.306L55.2241 132.278L58.9281 132.226C61.4131 132.197 63.9335 132.185 66.5628 132.226C74.6759 132.331 82.4726 132.578 90.2456 132.771C94.1307 132.868 98.0113 132.952 101.92 132.996C103.875 133.02 105.838 133.032 107.809 133.033L110.779 133.024L114.709 132.997C114.709 132.409 114.697 131.802 114.69 131.196C114.677 130.253 114.662 129.302 114.645 128.341C114.639 127.403 114.63 126.459 114.62 125.509C114.612 123.608 114.603 121.681 114.594 119.757C114.575 115.9 114.538 112.016 114.392 108.228C114.146 101.802 113.996 95.5836 113.951 88.7866L113.999 86.387C114.017 84.6204 114.029 82.8699 113.817 82.8699Z" fill="#063844"/>
<path d="M123.205 81.7999C123.465 81.5364 122.264 80.4249 120.354 78.5287C113.849 72.0733 107.445 65.659 101.057 59.2168L91.4793 49.5181L81.3508 39.2129L79.8256 40.6851L78.7951 41.6655L76.734 43.6412L72.556 47.6352C64.858 54.9872 57.9153 62.3687 50.8371 69.5293C48.7171 71.6743 46.6811 73.7088 44.6613 75.7125L41.6345 78.6936L38.8109 81.451L36.189 80.8724L35.5162 80.7252L35.1246 80.6354L34.3605 80.4588L35.4028 79.4665L37.3652 77.5674C46.2748 68.942 55.7055 59.788 64.5916 50.7341C67.6213 47.6426 70.5465 44.7954 73.4467 42.0292C74.8953 40.6453 76.338 39.2821 77.7852 37.9203L79.9566 35.877C80.3202 35.5369 80.6824 35.1939 81.0475 34.8464L81.1844 34.7184L81.2183 34.686C81.2315 34.6727 81.2183 34.686 81.23 34.6757L81.2433 34.6654L81.2934 34.63L81.3817 34.5682L81.4685 34.6757L81.4877 34.6992L81.4965 34.711L81.5053 34.7198L81.5245 34.7375L81.841 35.0319L83.1144 36.2288L85.7099 38.6476C87.4632 40.2743 89.2725 41.9291 91.1657 43.625C99.7544 51.32 108.991 58.9606 117.771 66.557L125.849 73.5749L129.846 77.0801L133.329 80.1511L130.767 80.5014L127.474 80.9357C125.323 81.2169 123.181 81.4804 123.218 81.7602C123.265 82.1282 124.88 81.8603 127.549 81.5114L130.826 81.0918L134.77 80.5986L130.906 77.0654L127.581 74.0018L120.948 67.8908C116.514 63.8217 112.032 59.7703 107.361 55.7115C102.69 51.6528 98.4883 47.8104 94.328 44.0181C92.2507 42.119 90.1882 40.2346 88.0948 38.3473C87.0466 37.4051 85.9891 36.4609 84.9222 35.5148L81.3346 32.3702C81.1653 32.5425 80.9901 32.7206 80.8164 32.9002L79.7196 34.0073L78.8157 34.9142C78.218 35.503 77.6379 36.0801 77.0491 36.6381C75.8861 37.754 74.751 38.8095 73.6219 39.8503C71.3621 41.9335 69.1229 43.9621 66.7233 46.3014C61.1069 51.7779 56.661 56.667 50.7635 62.2568C47.5247 65.3278 44.5347 68.3472 41.5933 71.3681C40.1211 72.8815 38.6637 74.3905 37.19 75.9083L34.967 78.1931L33.6112 79.571L32.061 81.1315L35.7576 81.8941L37.1841 82.1974L38.7785 82.5419L39.1627 82.6258C39.6809 82.1233 40.1977 81.6223 40.7129 81.1227L42.0717 79.8125L44.7835 77.217L50.1716 72.1071L60.8287 62.0566C64.3619 58.7148 67.8716 55.3641 71.3753 51.9472C73.1262 50.2375 74.8752 48.5097 76.6221 46.7637L79.2426 44.1138L80.5514 42.777L81.2065 42.1057L81.2801 42.0292V42.0203L81.2904 42.0041L81.314 41.9659L81.3434 41.9232L81.4067 41.9614L81.4435 41.9879L81.71 42.2426L82.9319 43.4204L85.3904 45.8171L90.3605 50.7003C93.6949 53.9729 97.0677 57.247 100.457 60.3445C106.31 65.6914 111.891 70.9441 117.887 76.8019L119.948 78.9321C121.485 80.4691 123.004 82.0001 123.205 81.7999Z" fill="#063844"/>
<path d="M87.1202 99.3628C87.1202 99.3628 76.7296 96.3875 73.4732 106.032C71.496 111.885 78.7745 120.502 87.7415 117.038C94.8742 114.285 94.3221 106.25 92.9368 103.856C91.6541 101.66 89.5685 100.049 87.1202 99.3628Z" fill="white"/>
<path d="M87.1173 99.3718C87.2174 99.0141 86.5093 98.8684 85.3668 98.7329C83.9476 98.5569 82.5107 98.5792 81.0976 98.7992C79.6376 99.0202 78.24 99.5442 76.9946 100.338C76.6791 100.54 76.3754 100.76 76.0848 100.997L75.6623 101.371C75.5903 101.432 75.5225 101.497 75.4591 101.567L75.2619 101.77C74.9895 102.032 74.7657 102.335 74.5258 102.624L74.1975 103.085L74.0341 103.317L73.8869 103.559L73.5924 104.045C73.5041 104.211 73.4217 104.379 73.3348 104.547C73.1552 104.879 73.0198 105.23 72.8725 105.577C72.8372 105.665 72.7975 105.746 72.7651 105.841L72.6723 106.135L72.5796 106.429L72.5133 106.724L72.4471 107.018C72.4265 107.117 72.4191 107.216 72.4029 107.313C72.3728 107.508 72.3526 107.704 72.3426 107.902C72.2963 108.692 72.3628 109.485 72.5398 110.257C72.714 111.023 72.9737 111.766 73.3142 112.474C73.6519 113.176 74.0635 113.84 74.542 114.454C75.4895 115.685 76.6738 116.714 78.0251 117.48C78.7002 117.863 79.415 118.172 80.1568 118.401L80.4336 118.489L80.7148 118.559C80.9032 118.603 81.0902 118.654 81.2786 118.691C81.6575 118.763 82.0398 118.815 82.424 118.847C82.8052 118.882 83.1881 118.896 83.5708 118.888C83.7622 118.888 83.9506 118.866 84.1405 118.856C84.3304 118.846 84.5204 118.835 84.7058 118.802C85.8046 118.661 86.879 118.371 87.899 117.939C88.0271 117.893 88.1507 117.834 88.2759 117.775L88.6483 117.602C88.8956 117.481 89.1341 117.341 89.3741 117.21C89.6141 117.079 89.8437 116.916 90.0675 116.768C90.2913 116.621 90.5091 116.449 90.7226 116.264L91.0362 115.996L91.3306 115.701C91.5338 115.516 91.7075 115.299 91.893 115.099C92.2449 114.679 92.5601 114.229 92.8352 113.755L92.9397 113.58L93.0339 113.397C93.0943 113.276 93.159 113.157 93.2179 113.034C93.3269 112.786 93.4432 112.54 93.533 112.284C93.6228 112.028 93.7096 111.775 93.7921 111.517C93.8745 111.26 93.9393 110.999 93.9864 110.736C94.102 110.211 94.1798 109.679 94.219 109.144C94.2595 108.61 94.2639 108.073 94.2323 107.538C94.1831 106.451 93.962 105.38 93.5771 104.362C93.5286 104.233 93.4638 104.106 93.4049 103.978C93.3755 103.913 93.3372 103.852 93.3033 103.788C93.2711 103.725 93.2352 103.664 93.1959 103.606C93.0486 103.381 92.9014 103.145 92.738 102.926C92.4121 102.482 92.0513 102.065 91.6589 101.679L91.3645 101.384C91.2614 101.293 91.154 101.205 91.048 101.115C90.8419 100.929 90.6063 100.77 90.3914 100.601C89.9329 100.278 89.4517 99.9889 88.9516 99.7355C88.5697 99.5365 88.1687 99.3767 87.7547 99.2585C87.4117 99.1731 87.1658 99.1834 87.129 99.3218C87.0908 99.5029 87.2277 99.6162 87.5044 99.7399C87.7812 99.8635 88.1993 100.009 88.6925 100.254C89.8686 100.841 90.9134 101.661 91.7634 102.664C91.8684 102.786 91.9667 102.914 92.0579 103.046C92.1536 103.177 92.261 103.301 92.3435 103.441C92.5232 103.705 92.6865 103.981 92.8322 104.265C93.0873 104.853 93.2625 105.473 93.3534 106.107C93.5488 107.384 93.5073 108.687 93.2312 109.949C92.9706 111.191 92.4377 112.36 91.6707 113.371C90.9363 114.309 90.0091 115.079 88.9516 115.629C88.4327 115.901 87.8908 116.126 87.3322 116.302L86.9097 116.425C86.7709 116.47 86.6298 116.507 86.4872 116.537L86.0617 116.632C85.9911 116.646 85.9219 116.664 85.8512 116.677L85.6363 116.708C84.5195 116.891 83.3802 116.886 82.265 116.695L81.8572 116.609L81.654 116.567L81.4523 116.509L81.0534 116.397L80.6618 116.259C80.3968 116.175 80.1495 116.05 79.8933 115.946C79.7667 115.891 79.646 115.822 79.5223 115.762C79.3987 115.701 79.2735 115.641 79.1572 115.566C78.4241 115.152 77.7238 114.682 77.0623 114.161C76.4604 113.697 75.9188 113.159 75.4503 112.56C75.107 112.102 74.8272 111.6 74.6185 111.067C74.4306 110.572 74.304 110.056 74.2417 109.53L74.2152 109.338L74.2048 109.147C74.2048 109.02 74.1857 108.894 74.1828 108.767C74.1828 108.515 74.1828 108.264 74.2122 108.016C74.2176 107.892 74.2304 107.768 74.2505 107.645C74.2696 107.523 74.2829 107.4 74.3035 107.277C74.3241 107.155 74.3565 107.034 74.38 106.912C74.4036 106.79 74.4463 106.671 74.4743 106.547L74.5184 106.375L74.5847 106.185L74.7127 105.805C74.7893 105.546 74.9027 105.308 74.9969 105.057C75.1959 104.564 75.4281 104.085 75.6917 103.623C76.222 102.685 76.9207 101.853 77.7528 101.168C77.8566 101.078 77.9652 100.994 78.0781 100.916C78.19 100.837 78.2975 100.75 78.4153 100.676C78.6493 100.529 78.8819 100.382 79.1322 100.252C79.3825 100.123 79.6342 100.005 79.8918 99.8871C80.0229 99.8326 80.1554 99.7855 80.2879 99.7399C80.4204 99.6942 80.5543 99.6427 80.6912 99.6015C81.2361 99.4271 81.7952 99.3009 82.3622 99.2246C82.933 99.1432 83.5095 99.1072 84.0861 99.1172C84.4953 99.1599 84.8987 99.2408 85.2991 99.3144C85.7408 99.366 86.1824 99.444 86.5166 99.4808C86.8508 99.5176 87.0775 99.5088 87.1173 99.3718Z" fill="#063844"/>
<path d="M85.439 104.561C85.439 104.561 81.8572 103.53 80.728 106.86C80.0464 108.879 82.555 111.848 85.6451 110.656C88.1036 109.706 87.9137 106.937 87.4367 106.111C86.996 105.356 86.2801 104.8 85.439 104.561Z" fill="#063844"/>
<path d="M85.4361 104.571C85.5362 104.214 85.2638 104.195 84.859 104.147C84.3475 104.086 83.8305 104.086 83.3191 104.147C82.7742 104.21 82.2472 104.38 81.7689 104.648C81.5193 104.789 81.2875 104.96 81.0784 105.156C80.9722 105.254 80.871 105.357 80.7752 105.465C80.6868 105.577 80.5867 105.687 80.5087 105.807L80.3865 105.985L80.2761 106.169C80.1995 106.292 80.1392 106.42 80.0744 106.549C80.0597 106.581 80.0435 106.609 80.0273 106.647L79.9816 106.765C79.9494 106.842 79.9229 106.922 79.9022 107.003C79.8575 107.164 79.8255 107.328 79.8065 107.494C79.7435 108.138 79.8479 108.788 80.1097 109.38C80.2341 109.667 80.389 109.941 80.572 110.195C80.7531 110.45 80.9614 110.684 81.1933 110.893C81.6567 111.32 82.2101 111.638 82.8126 111.823C83.4118 112.007 84.0461 112.046 84.6632 111.937C85.0953 111.859 85.5144 111.721 85.9086 111.527C86.1015 111.432 86.2899 111.314 86.474 111.206C86.5638 111.14 86.6506 111.073 86.7375 111.006C86.8262 110.942 86.9099 110.871 86.9877 110.794C87.1499 110.646 87.2978 110.482 87.4294 110.306C87.497 110.221 87.5594 110.132 87.6164 110.039L87.7739 109.759C87.9612 109.389 88.0894 108.992 88.1537 108.582C88.2156 108.186 88.2255 107.783 88.1832 107.385C88.1446 106.98 88.0454 106.583 87.8887 106.207C87.8442 106.105 87.792 106.007 87.7327 105.913C87.6738 105.83 87.6193 105.746 87.5575 105.667C87.433 105.507 87.2972 105.357 87.1512 105.218C86.8555 104.938 86.5201 104.703 86.156 104.521C85.8615 104.374 85.5112 104.253 85.4434 104.533C85.4052 104.714 85.4317 104.801 85.5141 104.863C85.6384 104.929 85.7662 104.989 85.8969 105.041C86.2805 105.231 86.6216 105.497 86.8994 105.823C86.9671 105.904 87.029 105.991 87.0893 106.076C87.1456 106.16 87.1948 106.249 87.2365 106.341C87.3177 106.528 87.3708 106.727 87.3941 106.93C87.5089 107.763 87.2719 108.67 86.7124 109.204C86.4588 109.456 86.1519 109.648 85.8144 109.765C85.7755 109.783 85.7357 109.798 85.6952 109.811L85.5671 109.843C85.4817 109.864 85.4037 109.89 85.3168 109.907C85.1474 109.941 84.9756 109.962 84.803 109.971C84.4855 109.989 84.1672 109.957 83.8594 109.877C83.5698 109.798 83.2932 109.678 83.0379 109.521C82.8386 109.4 82.6332 109.29 82.4225 109.191C82.2177 109.097 82.0285 108.972 81.8616 108.82C81.7514 108.705 81.6691 108.567 81.6214 108.415C81.5736 108.263 81.5616 108.103 81.5863 107.946C81.6017 107.815 81.6318 107.687 81.6761 107.563C81.7129 107.45 81.7453 107.352 81.7659 107.257V107.22L81.7821 107.165L81.8101 107.052C81.8248 106.974 81.8498 106.905 81.8675 106.828C81.9043 106.681 81.947 106.534 81.9941 106.387C82.0919 106.082 82.2413 105.796 82.4358 105.542C82.659 105.259 82.9434 105.03 83.2675 104.872C83.6146 104.7 83.995 104.607 84.382 104.598C84.5189 104.627 84.6514 104.691 84.7824 104.732C85.0916 104.757 85.361 104.842 85.4361 104.571Z" fill="#063844"/>
<path d="M117.708 98.3279H106.26V103.189H117.708V98.3279Z" fill="white"/>
<path d="M117.708 103.199C117.708 103.014 117.513 103.043 117.194 103.043C114.559 103.043 111.997 102.927 109.332 102.733C108.814 102.699 108.294 102.699 107.776 102.733C107.52 102.747 107.267 102.766 107.014 102.785H106.924H106.884L106.799 102.802L106.604 102.83C106.59 102.749 106.576 102.653 106.568 102.547C106.568 102.522 106.568 102.429 106.557 102.362C106.547 102.294 106.557 102.214 106.557 102.145C106.557 101.998 106.557 101.862 106.557 101.723C106.557 101.443 106.557 101.169 106.557 100.892C106.569 100.34 106.596 99.7808 106.624 99.1654L106.634 98.9682L106.644 98.8754C106.644 98.8195 106.656 98.7635 106.663 98.7076L106.856 98.7252H106.9H106.922H106.956H107.186C107.493 98.7341 107.802 98.74 108.112 98.7429C108.73 98.7429 109.35 98.7429 109.961 98.6987C111.58 98.6016 112.914 98.977 114.572 98.9652C115.087 98.9652 115.611 98.924 116.137 98.8739L116.927 98.79L117.026 98.7782H117.038H117.045H117.06L117.128 98.7562C117.178 98.74 117.236 98.7252 117.303 98.7105C117.325 98.7735 117.343 98.8379 117.357 98.9034L117.369 98.9652C117.371 98.9828 117.371 99.0006 117.369 99.0182V99.0815L117.391 99.3377C117.481 100.464 117.549 101.534 117.549 102.656C117.549 102.914 117.54 103.17 117.681 103.17C117.867 103.17 117.839 102.975 117.839 102.656C117.839 101.92 117.881 101.197 117.921 100.477C117.94 100.118 117.959 99.7587 117.971 99.3966V99.1257V98.8018C117.971 98.5412 117.971 98.2792 117.971 98.0201L117.426 98.0333L117.158 98.0436H117.026H116.929C115.437 98.154 114.171 97.9362 112.76 98.0657C111.912 98.1437 111.274 97.8994 110.476 97.8729C109.544 97.8434 108.76 98.0201 107.794 97.9273C107.531 97.9035 107.267 97.8942 107.003 97.8994L106.454 97.9141L105.877 97.9391C105.893 98.2159 105.908 98.4926 105.923 98.7694L105.935 98.9652L105.946 99.0992C105.946 99.189 105.961 99.2788 105.967 99.3701C105.997 99.7388 106.005 100.109 105.993 100.479C105.974 100.936 105.943 101.385 105.904 101.832L105.842 102.501C105.82 102.875 105.796 103.248 105.774 103.619L106.684 103.673L106.915 103.686L107.05 103.7L107.321 103.725C107.684 103.756 108.044 103.784 108.408 103.801C109.144 103.843 109.882 103.832 110.616 103.767C111.695 103.667 112.861 103.767 113.973 103.57C114.914 103.404 115.866 103.306 116.821 103.276L117.173 103.308C117.451 103.335 117.708 103.346 117.708 103.199Z" fill="#063844"/>
<path d="M117.786 113.774H106.338V118.635H117.786V113.774Z" fill="white"/>
<path d="M117.786 118.648C117.786 118.461 117.591 118.491 117.272 118.491C114.637 118.491 112.075 118.374 109.41 118.18C108.892 118.147 108.372 118.147 107.854 118.18C107.598 118.193 107.345 118.212 107.093 118.233H107.002L106.962 118.24L106.877 118.255C106.818 118.265 106.752 118.276 106.682 118.285C106.668 118.204 106.654 118.106 106.646 118C106.646 117.977 106.646 117.884 106.637 117.815C106.628 117.746 106.637 117.668 106.629 117.6C106.629 117.453 106.629 117.316 106.621 117.178C106.621 116.898 106.621 116.623 106.621 116.347C106.632 115.795 106.659 115.236 106.688 114.62L106.697 114.423L106.707 114.33C106.707 114.274 106.721 114.218 106.727 114.161L106.919 114.179H106.964H106.986H107.02H107.249C107.557 114.188 107.866 114.195 108.175 114.196C108.795 114.196 109.413 114.196 110.024 114.154C111.644 114.055 112.979 114.43 114.635 114.419C115.152 114.419 115.674 114.379 116.2 114.327L116.991 114.245L117.089 114.233H117.114H117.129L117.197 114.211C117.247 114.196 117.306 114.182 117.372 114.167C117.395 114.23 117.413 114.294 117.426 114.36L117.438 114.42C117.442 114.438 117.444 114.455 117.445 114.473V114.538L117.466 114.794C117.556 115.92 117.624 116.989 117.624 118.111C117.624 118.369 117.616 118.626 117.756 118.626C117.943 118.626 117.914 118.432 117.914 118.111C117.914 117.375 117.956 116.653 117.996 115.934C118.015 115.573 118.034 115.214 118.046 114.853V114.582V114.258C118.046 113.998 118.046 113.734 118.046 113.476L117.503 113.488L117.234 113.499H117.101H117.004C115.513 113.609 114.246 113.391 112.835 113.521C111.988 113.599 111.349 113.353 110.553 113.328C109.619 113.297 108.835 113.475 107.869 113.381C107.606 113.357 107.342 113.349 107.078 113.354L106.529 113.368L105.954 113.394C105.968 113.671 105.983 113.948 105.999 114.224L106.011 114.42L106.021 114.554L106.044 114.824C106.072 115.193 106.08 115.563 106.069 115.934C106.051 116.39 106.018 116.84 105.979 117.286L105.917 117.955L105.879 119.099L106.787 119.155L107.018 119.168L107.154 119.18L107.424 119.205C107.787 119.237 108.147 119.264 108.511 119.281C109.247 119.324 109.985 119.313 110.719 119.249C111.798 119.149 112.966 119.249 114.076 119.05C115.017 118.886 115.969 118.788 116.924 118.756L117.276 118.788C117.529 118.781 117.786 118.79 117.786 118.648Z" fill="#063844"/>
<path d="M77.9736 107.076C77.6792 106.908 76.8032 106.739 76.5014 106.571L77.9736 107.076Z" fill="#063844"/>
<path d="M76.553 106.659C76.5765 106.669 76.6001 106.684 76.6236 106.697C76.6472 106.71 76.8548 106.844 76.8695 106.859C76.9387 106.947 77.0034 107.048 77.0844 107.071C77.1654 107.095 77.2949 107.039 77.3936 107.046C77.4751 107.047 77.5566 107.039 77.6364 107.023C77.6518 107.025 77.667 107.028 77.6821 107.031C77.7225 107.04 77.7619 107.053 77.7999 107.07C77.8764 107.103 77.9471 107.118 77.9706 107.07C77.9942 107.021 77.9338 106.975 77.8484 106.943L77.713 106.894C77.6713 106.825 77.6186 106.763 77.557 106.71C77.5157 106.687 77.4716 106.669 77.4289 106.65C77.3832 106.607 77.342 106.554 77.2817 106.541C77.1839 106.524 77.0838 106.527 76.9872 106.55C76.9343 106.535 76.8782 106.535 76.8253 106.55C76.7752 106.555 76.7258 106.566 76.6781 106.582C76.6498 106.576 76.6223 106.566 76.5956 106.554C76.5633 106.54 76.5206 106.531 76.5 106.565C76.4794 106.599 76.5044 106.635 76.553 106.659Z" fill="#063844"/>
<path d="M79.1572 104.034L78.2018 103.033L78.3299 102.981" fill="#063844"/>
<path d="M78.2327 102.958L78.1797 102.975L78.1017 102.996L78.1576 103.076L78.1694 103.092C78.2192 103.171 78.264 103.254 78.3034 103.339C78.302 103.439 78.3275 103.537 78.377 103.623C78.4432 103.691 78.5728 103.698 78.6538 103.751C78.7236 103.793 78.7982 103.825 78.8761 103.848C78.889 103.857 78.9013 103.867 78.9129 103.878C78.9445 103.905 78.974 103.934 79.0012 103.965C79.0571 104.027 79.1204 104.068 79.1572 104.033C79.194 103.997 79.1572 103.937 79.0954 103.875L79.0012 103.775C78.997 103.697 78.9827 103.62 78.9585 103.545C78.9349 103.505 78.907 103.47 78.8805 103.433C78.8728 103.375 78.8511 103.319 78.8172 103.271C78.7417 103.208 78.654 103.162 78.5595 103.134C78.5196 103.093 78.4684 103.065 78.4123 103.052C78.3655 103.032 78.3159 103.018 78.2651 103.012L78.243 102.992L78.2209 103.087L78.2725 103.065C78.3078 103.051 78.3431 103.023 78.3299 102.986C78.3166 102.949 78.2813 102.939 78.2327 102.958Z" fill="#063844"/>
<path d="M82.0442 102.362L81.7056 101.023L81.8425 101.04" fill="#063844"/>
<path d="M81.763 100.973L81.707 100.962L81.629 100.943L81.6408 101.038V101.057C81.6469 101.151 81.6469 101.246 81.6408 101.34C81.5917 101.426 81.5663 101.524 81.5672 101.623C81.5922 101.715 81.7012 101.785 81.7453 101.87C81.7867 101.94 81.8361 102.006 81.8926 102.064C81.9001 102.078 81.9065 102.092 81.9117 102.107C81.9262 102.146 81.938 102.186 81.947 102.226C81.9632 102.309 82 102.373 82.0486 102.362C82.0972 102.35 82.0942 102.276 82.0722 102.194C82.0604 102.145 82.0486 102.101 82.0383 102.061C82.0742 101.992 82.0995 101.917 82.1134 101.841C82.1134 101.793 82.1046 101.749 82.1001 101.704C82.1219 101.649 82.1299 101.59 82.1237 101.531C82.0894 101.44 82.0356 101.356 81.9662 101.287C81.954 101.231 81.9259 101.18 81.8852 101.14C81.8529 101.099 81.8147 101.062 81.7718 101.032L81.7615 101.001L81.6967 101.076H81.7527C81.791 101.076 81.8351 101.076 81.841 101.035C81.8469 100.994 81.8145 100.979 81.763 100.973Z" fill="#063844"/>
<path d="M85.4684 102.394C85.5582 101.899 85.6363 101.444 85.7261 100.951L85.4684 102.394Z" fill="#063844"/>
<path d="M85.6554 101.018C85.6504 101.041 85.644 101.065 85.6363 101.088C85.6021 101.173 85.5623 101.255 85.517 101.334C85.439 101.406 85.3477 101.474 85.3345 101.552C85.3212 101.63 85.3904 101.746 85.3948 101.846C85.4033 101.924 85.4216 102.001 85.4493 102.075C85.4508 102.09 85.4508 102.105 85.4493 102.12C85.4478 102.16 85.4423 102.199 85.4331 102.238C85.4154 102.317 85.4213 102.385 85.4714 102.398C85.5214 102.412 85.5479 102.342 85.5612 102.262C85.5685 102.213 85.5774 102.17 85.5847 102.132C85.6363 102.077 85.7172 102.027 85.7437 101.969C85.7702 101.91 85.7732 101.885 85.7864 101.843C85.8294 101.803 85.8613 101.752 85.8792 101.696C85.8843 101.601 85.8692 101.507 85.835 101.418C85.8448 101.365 85.8392 101.311 85.8188 101.262C85.8066 101.21 85.7867 101.161 85.7599 101.115C85.7613 101.087 85.7647 101.058 85.7702 101.031C85.7702 100.994 85.7702 100.951 85.7334 100.944C85.6966 100.937 85.6642 100.969 85.6554 101.018Z" fill="#063844"/>
<path d="M90.1058 108.63C90.4385 108.712 91.3218 108.649 91.6545 108.732L90.1058 108.63Z" fill="#063844"/>
<path d="M91.5809 108.659C91.5541 108.656 91.5276 108.65 91.5014 108.643C91.4602 108.636 91.2408 108.556 91.2232 108.551C91.1334 108.483 91.045 108.403 90.9611 108.403C90.8772 108.403 90.7668 108.49 90.6667 108.509C90.587 108.529 90.5099 108.557 90.437 108.595C90.4218 108.596 90.4066 108.596 90.3914 108.595C90.3503 108.599 90.3088 108.599 90.2677 108.595C90.1853 108.581 90.1205 108.584 90.1014 108.634C90.0822 108.685 90.1632 108.715 90.2486 108.723L90.3958 108.735C90.4541 108.79 90.5207 108.836 90.5931 108.871C90.6402 108.883 90.6873 108.888 90.7403 108.895C90.7888 108.931 90.8454 108.955 90.9052 108.964C91.0033 108.955 91.0985 108.926 91.1849 108.879C91.2397 108.881 91.2941 108.868 91.3424 108.842C91.3909 108.824 91.4369 108.8 91.4793 108.77C91.5088 108.77 91.5353 108.77 91.5662 108.77C91.5971 108.77 91.6442 108.77 91.656 108.735C91.6678 108.699 91.6368 108.668 91.5809 108.659Z" fill="#063844"/>
<path d="M89.4919 111.41L90.7197 112.046L90.6151 112.137" fill="#063844"/>
<path d="M90.7153 112.125C90.7285 112.113 90.7447 112.103 90.7594 112.091L90.8271 112.047L90.7476 111.991L90.7314 111.979C90.6587 111.919 90.5894 111.856 90.5239 111.788C90.4753 111.691 90.4341 111.582 90.3619 111.545C90.2898 111.508 90.1529 111.536 90.0587 111.513C89.9793 111.496 89.8982 111.489 89.8172 111.492L89.7731 111.477C89.7342 111.463 89.6968 111.445 89.6612 111.424C89.589 111.383 89.514 111.365 89.4919 111.41C89.4698 111.454 89.5243 111.501 89.6023 111.539L89.723 111.602C89.7519 111.675 89.7905 111.743 89.8378 111.806C89.8732 111.837 89.9114 111.86 89.9483 111.887C89.9746 111.939 90.0136 111.985 90.0616 112.019C90.1551 112.056 90.2557 112.072 90.356 112.065C90.4046 112.091 90.4599 112.103 90.515 112.099C90.5674 112.102 90.6198 112.098 90.6711 112.087L90.6991 112.099L90.6873 112L90.6475 112.04C90.6181 112.065 90.5931 112.101 90.6196 112.132C90.6461 112.163 90.6755 112.16 90.7153 112.125Z" fill="#063844"/>
<path d="M77.9353 110.146C77.6218 110.28 76.7385 110.36 76.4249 110.495L77.9353 110.146Z" fill="#063844"/>
<path d="M76.5206 110.52C76.5448 110.514 76.5694 110.509 76.5942 110.506C76.6881 110.501 76.7822 110.505 76.8754 110.517C76.9584 110.573 77.0551 110.605 77.1551 110.61C77.2493 110.592 77.3288 110.488 77.4215 110.448C77.4975 110.413 77.5679 110.367 77.6306 110.311C77.6453 110.305 77.6606 110.299 77.6762 110.295C77.7166 110.28 77.7579 110.268 77.7999 110.258C77.8867 110.239 77.9559 110.191 77.9353 110.145C77.9147 110.099 77.8485 110.111 77.766 110.135C77.7174 110.148 77.6748 110.158 77.6335 110.166C77.5645 110.129 77.4913 110.101 77.4156 110.082C77.37 110.082 77.3244 110.082 77.2773 110.082C77.2233 110.057 77.1644 110.045 77.105 110.046C77.0074 110.076 76.9172 110.127 76.84 110.193C76.785 110.205 76.7341 110.231 76.6928 110.269C76.6484 110.3 76.6092 110.338 76.5765 110.382C76.5485 110.392 76.5206 110.404 76.4897 110.413C76.4587 110.422 76.4116 110.456 76.4264 110.491C76.4411 110.526 76.4735 110.536 76.5206 110.52Z" fill="#063844"/>
<path d="M87.3749 113.019C87.4029 113.36 87.7488 114.177 87.7768 114.52L87.3749 113.019Z" fill="#063844"/>
<path d="M87.8224 114.428C87.8173 114.401 87.8144 114.374 87.8136 114.347C87.8136 114.305 87.8136 114.071 87.8136 114.052C87.8586 113.961 87.878 113.859 87.8696 113.758C87.8386 113.663 87.7223 113.602 87.6752 113.516C87.6338 113.447 87.5844 113.384 87.528 113.326C87.5208 113.313 87.5149 113.298 87.5103 113.284C87.4944 113.245 87.4826 113.205 87.475 113.164C87.4602 113.083 87.4352 113.017 87.3852 113.017C87.3351 113.017 87.3277 113.101 87.3483 113.189L87.3837 113.328C87.3494 113.401 87.3275 113.48 87.3189 113.56C87.3231 113.61 87.33 113.659 87.3395 113.708C87.322 113.765 87.318 113.826 87.3277 113.886C87.3685 113.976 87.4271 114.057 87.5 114.124C87.5153 114.177 87.5448 114.225 87.5854 114.263C87.6179 114.303 87.6555 114.338 87.6973 114.369C87.7069 114.396 87.7143 114.424 87.7194 114.453C87.7194 114.489 87.7415 114.529 87.7812 114.526C87.821 114.523 87.8313 114.484 87.8224 114.428Z" fill="#063844"/>
<path d="M83.9212 113.748L83.6856 115.109L83.5678 115.037" fill="#063844"/>
<path d="M83.6091 115.124C83.625 115.134 83.6402 115.144 83.6547 115.156L83.718 115.206L83.746 115.114V115.096C83.7797 115.008 83.8195 114.922 83.8652 114.84C83.9433 114.763 84.0345 114.693 84.0478 114.612C84.061 114.531 83.9918 114.41 83.9874 114.317C83.9795 114.237 83.9612 114.157 83.933 114.082C83.933 114.067 83.933 114.048 83.933 114.034C83.936 113.993 83.9414 113.952 83.9492 113.911C83.9668 113.83 83.9609 113.755 83.9123 113.746C83.8638 113.737 83.8358 113.805 83.8225 113.893C83.8137 113.942 83.8049 113.986 83.7975 114.027C83.746 114.083 83.6665 114.137 83.64 114.198C83.6227 114.24 83.6079 114.283 83.5958 114.327C83.5533 114.368 83.5214 114.419 83.5031 114.475C83.497 114.575 83.512 114.675 83.5473 114.769C83.5362 114.823 83.5413 114.88 83.562 114.931C83.5752 114.982 83.595 115.032 83.6209 115.078V115.109L83.7107 115.069L83.6606 115.041C83.6282 115.022 83.5855 115.009 83.5634 115.041C83.5414 115.074 83.5634 115.102 83.6091 115.124Z" fill="#063844"/>
<path d="M80.2187 112.718L79.3839 113.821L79.3118 113.703" fill="#063844"/>
<path d="M79.3059 113.799C79.3154 113.815 79.3238 113.832 79.3309 113.849L79.3648 113.923L79.4325 113.853L79.4472 113.84C79.517 113.777 79.5919 113.719 79.671 113.668C79.7755 113.636 79.8889 113.614 79.9375 113.549C79.9861 113.484 79.9817 113.344 80.0214 113.254C80.0505 113.179 80.0707 113.1 80.0818 113.02C80.0818 113.007 80.0965 112.989 80.1038 112.979C80.1246 112.943 80.1482 112.909 80.1745 112.877C80.229 112.813 80.2584 112.742 80.2172 112.713C80.176 112.683 80.123 112.73 80.07 112.799L79.9875 112.907C79.9112 112.923 79.8374 112.95 79.7682 112.986C79.7335 113.016 79.7006 113.048 79.6695 113.082C79.6141 113.099 79.5636 113.13 79.5223 113.17C79.4723 113.255 79.4407 113.348 79.4296 113.446C79.3956 113.488 79.3746 113.539 79.3692 113.593C79.3573 113.644 79.3523 113.697 79.3545 113.749L79.3383 113.775H79.437C79.4266 113.761 79.4149 113.746 79.4046 113.728C79.3943 113.711 79.353 113.665 79.3192 113.686C79.2853 113.706 79.2794 113.758 79.3059 113.799Z" fill="#063844"/>
<path d="M88.2759 103.566L89.0119 102.388L88.2759 103.566Z" fill="#063844"/>
<path d="M88.931 102.417C88.9185 102.437 88.9042 102.455 88.8883 102.472C88.8273 102.534 88.7619 102.592 88.6925 102.644C88.5939 102.678 88.4864 102.704 88.4466 102.768C88.4069 102.831 88.4304 102.962 88.4025 103.047C88.3827 103.12 88.3723 103.196 88.3716 103.271C88.3716 103.283 88.3613 103.299 88.3554 103.311C88.3392 103.346 88.32 103.379 88.298 103.41C88.2538 103.471 88.2347 103.539 88.2773 103.566C88.32 103.592 88.3671 103.545 88.4084 103.477C88.4319 103.439 88.454 103.404 88.4761 103.373C88.5476 103.354 88.6161 103.326 88.6792 103.287C88.7102 103.259 88.7352 103.226 88.7632 103.195C88.8149 103.176 88.861 103.145 88.8971 103.103C88.9359 103.021 88.9555 102.931 88.9545 102.84C88.9833 102.796 88.9973 102.745 88.9943 102.693C89.0015 102.644 89.0015 102.594 88.9943 102.545C89.0061 102.522 89.0178 102.5 89.0326 102.475C89.0473 102.45 89.062 102.406 89.0326 102.384C89.0031 102.361 88.956 102.376 88.931 102.417Z" fill="#063844"/>
<path d="M90.0101 106.054C90.3619 105.907 90.7948 105.759 91.1451 105.623L90.0101 106.054Z" fill="#063844"/>
<path d="M91.0568 105.595C91.0378 105.602 91.0181 105.607 90.998 105.609C90.9215 105.616 90.8447 105.616 90.7683 105.609C90.68 105.574 90.5872 105.527 90.5268 105.55C90.4665 105.574 90.4179 105.687 90.3546 105.734C90.3032 105.777 90.258 105.826 90.2206 105.882C90.2109 105.89 90.1999 105.896 90.1882 105.901C90.1601 105.918 90.1299 105.931 90.0984 105.941C90.0336 105.961 89.9865 105.999 90.0042 106.047C90.0219 106.094 90.0808 106.088 90.1514 106.063C90.1897 106.047 90.2221 106.035 90.2545 106.024C90.3143 106.055 90.3783 106.076 90.4444 106.088C90.4811 106.084 90.5175 106.077 90.5533 106.069C90.5999 106.088 90.6509 106.093 90.7006 106.085C90.7706 106.045 90.8297 105.988 90.8728 105.92C90.9155 105.905 90.9515 105.875 90.9744 105.836C91.0035 105.801 91.0273 105.763 91.0451 105.721C91.0652 105.709 91.0864 105.699 91.1084 105.692C91.1363 105.68 91.1643 105.656 91.1511 105.62C91.1378 105.583 91.0966 105.58 91.0568 105.595Z" fill="#063844"/>
<path d="M62.2287 103.448C62.2287 103.448 58.033 102.247 56.7169 106.141C55.919 108.505 58.8574 111.985 62.479 110.588C65.36 109.476 65.1377 106.23 64.5768 105.265C64.0597 104.377 63.2176 103.726 62.2287 103.448Z" fill="white"/>
<path d="M62.2273 103.453C62.2773 103.274 61.9873 103.22 61.525 103.158C60.9477 103.086 60.3632 103.094 59.7879 103.18C59.1922 103.267 58.6211 103.477 58.1111 103.797C57.8498 103.96 57.6099 104.155 57.3971 104.377C57.2852 104.485 57.1924 104.607 57.0909 104.725C56.9893 104.842 56.9024 104.97 56.8259 105.104L56.7052 105.303L56.5977 105.508C56.5226 105.643 56.4667 105.785 56.4048 105.926C56.2777 106.23 56.2015 106.554 56.1796 106.883C56.144 107.537 56.2779 108.19 56.5682 108.777C56.7055 109.067 56.8733 109.342 57.0688 109.596C57.6542 110.367 58.4635 110.938 59.386 111.232C59.6904 111.329 60.0051 111.39 60.3237 111.414C60.6377 111.44 60.9536 111.432 61.2659 111.391C61.7172 111.329 62.158 111.206 62.5762 111.025C62.9957 110.853 63.3856 110.616 63.7318 110.323C64.4185 109.736 64.8856 108.933 65.0568 108.046C65.1442 107.617 65.1739 107.178 65.1451 106.741C65.1227 106.298 65.0302 105.862 64.8713 105.447C64.8274 105.339 64.7742 105.235 64.7123 105.137C64.6504 105.045 64.5915 104.95 64.5253 104.86C64.3918 104.68 64.2441 104.51 64.0836 104.354C63.7584 104.036 63.386 103.771 62.9795 103.567C62.6409 103.394 62.2655 103.28 62.2317 103.42C62.189 103.601 62.4495 103.626 62.85 103.824C63.3218 104.059 63.741 104.387 64.0822 104.789C64.1661 104.889 64.2426 104.995 64.3177 105.101C64.3895 105.207 64.4544 105.317 64.512 105.431C64.6138 105.666 64.6836 105.914 64.7196 106.167C64.8668 107.189 64.649 108.289 64.0248 109.067C63.4006 109.846 62.5217 110.222 61.6148 110.359C61.1752 110.425 60.7276 110.419 60.2899 110.341C59.862 110.258 59.4507 110.105 59.0724 109.889C58.7842 109.725 58.5064 109.543 58.2406 109.344C57.998 109.166 57.7793 108.958 57.5899 108.724C57.322 108.377 57.1586 107.96 57.1188 107.523C57.0968 107.327 57.0968 107.13 57.1188 106.934C57.1365 106.743 57.172 106.555 57.2248 106.37C57.4545 105.581 57.8137 104.783 58.4806 104.218C58.6475 104.074 58.8285 103.947 59.0209 103.84C59.2178 103.728 59.4254 103.636 59.6407 103.566C60.0798 103.419 60.5408 103.347 61.0039 103.354C61.1688 103.373 61.3307 103.411 61.4926 103.444C61.8504 103.494 62.1904 103.587 62.2273 103.453Z" fill="#063844"/>
<path d="M63.3491 108.851C63.0649 108.218 64.013 114.754 63.7289 117.104C63.5728 118.379 62.0094 118.741 60.7742 118.389C60.0102 118.173 59.4493 117.481 59.1931 116.732C58.9369 115.982 58.9119 115.172 58.8987 114.376L58.7883 108.54C58.7883 108.54 59.1916 106.236 60.8331 106.236C62.5232 106.236 63.2136 106.752 63.3505 108.848" fill="white"/>
<path d="M63.3535 108.852C63.3295 108.846 63.3067 108.836 63.2857 108.823C63.274 108.816 63.2651 108.807 63.2533 108.798C63.2416 108.789 63.2327 108.776 63.218 108.783C63.2033 108.791 63.1812 108.844 63.1709 108.873C63.1617 108.909 63.1558 108.946 63.1532 108.983C63.1483 109.202 63.1586 109.421 63.1842 109.639C63.3005 110.981 63.4079 112.339 63.4506 113.708C63.4727 114.391 63.483 115.077 63.4609 115.757C63.4491 116.095 63.4315 116.434 63.3932 116.762C63.3844 116.843 63.3741 116.924 63.3608 117.004C63.3608 117.023 63.3608 117.045 63.352 117.063L63.3387 117.11L63.3152 117.204C63.296 117.266 63.2651 117.32 63.243 117.378C63.2121 117.429 63.1777 117.478 63.14 117.525C62.9689 117.722 62.7436 117.864 62.4922 117.933C62.2143 118.011 61.925 118.042 61.6369 118.023C61.5634 118.02 61.4902 118.013 61.4176 118.002C61.3448 117.993 61.2726 117.98 61.2011 117.964C61.1296 117.95 61.0588 117.933 60.9892 117.912C60.9256 117.895 60.8632 117.874 60.8022 117.849C60.5651 117.741 60.3552 117.582 60.1883 117.382C60.009 117.169 59.8654 116.927 59.7628 116.668C59.6584 116.392 59.5843 116.105 59.542 115.813C59.4463 115.208 59.4419 114.542 59.3948 113.871C59.3359 112.88 59.277 111.9 59.2181 110.927L59.1298 109.455C59.1151 109.21 59.1018 108.964 59.0871 108.718L59.0783 108.571C59.0836 108.522 59.0919 108.473 59.1033 108.424C59.1254 108.311 59.1548 108.199 59.1872 108.087C59.306 107.642 59.5256 107.231 59.8291 106.886C59.9781 106.723 60.1625 106.597 60.3679 106.518C60.4708 106.478 60.5781 106.452 60.6874 106.438C60.7433 106.438 60.7963 106.428 60.8567 106.426H61.0422C61.2857 106.424 61.5288 106.447 61.7679 106.493C62 106.534 62.2211 106.622 62.4172 106.753C62.7955 107.021 62.9913 107.504 63.0855 108.004C63.1694 108.423 63.1827 108.857 63.327 108.848C63.5051 108.836 63.4742 108.499 63.3711 107.947C63.3134 107.608 63.1952 107.282 63.0222 106.984C62.8352 106.681 62.5568 106.446 62.2272 106.311C61.91 106.192 61.5754 106.124 61.2365 106.111C61.154 106.111 61.0716 106.102 60.9892 106.099C60.9067 106.097 60.8272 106.099 60.7374 106.099C60.5621 106.106 60.3888 106.139 60.2236 106.198C59.8978 106.324 59.6101 106.532 59.3889 106.802C59.1732 107.061 58.9962 107.351 58.8633 107.661C58.7956 107.809 58.7353 107.969 58.6823 108.128C58.6572 108.208 58.6322 108.287 58.6101 108.368L58.5939 108.43L58.5748 108.511C58.5733 108.538 58.5733 108.566 58.5748 108.593V108.655C58.5674 108.976 58.5571 109.296 58.5439 109.616C58.4938 110.863 58.4511 112.085 58.4232 113.297C58.4129 113.905 58.3922 114.492 58.4011 115.117C58.3959 115.775 58.5039 116.429 58.7205 117.051C58.9108 117.556 59.2356 118 59.6598 118.335C59.8548 118.486 60.0704 118.608 60.3002 118.698L60.4739 118.757L60.6535 118.804C60.7654 118.822 60.8758 118.848 60.9892 118.86C61.3225 118.908 61.6597 118.925 61.9961 118.909C62.3277 118.896 62.6556 118.835 62.9692 118.726C63.317 118.609 63.627 118.4 63.8672 118.123C63.8982 118.084 63.9305 118.049 63.96 118.008L64.038 117.881C64.063 117.839 64.0895 117.796 64.1116 117.75L64.1676 117.603C64.1852 117.556 64.2044 117.509 64.2191 117.456L64.25 117.309L64.278 117.161L64.2912 117.038C64.3282 116.449 64.3119 115.857 64.2426 115.271C64.1838 114.698 64.0954 114.132 64.0042 113.566C63.8201 112.437 63.6037 111.318 63.4771 110.195C63.4698 109.995 63.4771 109.793 63.4771 109.593C63.4771 109.393 63.4447 109.151 63.4241 108.997C63.419 108.938 63.4081 108.88 63.3917 108.823C63.3917 108.811 63.3917 108.804 63.3917 108.811C63.3932 108.815 63.3932 108.819 63.3917 108.823C63.3903 108.832 63.3855 108.84 63.3784 108.845C63.3713 108.851 63.3624 108.853 63.3535 108.852Z" fill="#063844"/>
</svg>
