<svg width="165" height="164" viewBox="0 0 165 164" fill="none" xmlns="http://www.w3.org/2000/svg">
<path d="M69.028 37.796C49.8035 37.796 34.2081 53.387 34.2081 72.6159C34.2081 91.8449 49.7976 107.439 69.028 107.439C88.2584 107.439 103.849 91.8478 103.849 72.6159C103.849 53.384 88.2599 37.796 69.028 37.796ZM69.028 77.7493C68.0121 77.7493 67.0191 77.4481 66.1744 76.8837C65.3297 76.3193 64.6714 75.5171 64.2826 74.5786C63.8939 73.64 63.7922 72.6073 63.9904 71.6109C64.1885 70.6146 64.6777 69.6994 65.3961 68.9811C66.1144 68.2627 67.0296 67.7735 68.026 67.5753C69.0223 67.3772 70.055 67.4789 70.9936 67.8676C71.9321 68.2564 72.7343 68.9147 73.2987 69.7594C73.8631 70.6041 74.1643 71.5971 74.1643 72.613C74.1643 73.9752 73.6232 75.2817 72.6599 76.2449C71.6967 77.2082 70.3902 77.7493 69.028 77.7493Z" fill="#BADFD8" stroke="#063844" stroke-width="2" stroke-miterlimit="10"/>
<path d="M69.028 50.6619C64.6855 50.6619 60.4406 51.9496 56.83 54.3622C53.2193 56.7747 50.4052 60.2038 48.7435 64.2158C47.0818 68.2277 46.6471 72.6423 47.4944 76.9013C48.3417 81.1603 50.4329 85.0724 53.5036 88.1429C56.5742 91.2134 60.4865 93.3044 64.7455 94.1514C69.0046 94.9984 73.4192 94.5634 77.431 92.9014C81.4428 91.2394 84.8717 88.425 87.2841 84.8143C89.6964 81.2035 90.9838 76.9585 90.9835 72.616C90.9832 66.7933 88.6698 61.2091 84.5524 57.092C80.435 52.9748 74.8507 50.6619 69.028 50.6619ZM69.028 77.7494C68.0121 77.7494 67.019 77.4481 66.1744 76.8838C65.3297 76.3194 64.6714 75.5172 64.2826 74.5786C63.8939 73.6401 63.7922 72.6074 63.9903 71.611C64.1885 70.6147 64.6777 69.6995 65.396 68.9811C66.1144 68.2628 67.0296 67.7736 68.0259 67.5754C69.0223 67.3772 70.055 67.479 70.9936 67.8677C71.9321 68.2565 72.7343 68.9148 73.2987 69.7595C73.863 70.6041 74.1643 71.5972 74.1643 72.6131C74.1643 73.9753 73.6231 75.2817 72.6599 76.245C71.6966 77.2082 70.3902 77.7494 69.028 77.7494Z" fill="#F7F4F2"/>
<path d="M69.3538 77.8477C69.5402 77.8477 69.7236 77.8227 69.9114 77.8036C70.0983 77.7862 70.2833 77.7534 70.4647 77.7053C70.7999 77.6014 71.1219 77.459 71.4245 77.2812C71.5081 77.246 71.6372 77.1726 71.7693 77.1007L71.9616 76.995C72.0188 76.9598 72.0672 76.9231 72.1083 76.8967L72.3622 76.703C72.4532 76.6282 72.5383 76.5474 72.6043 76.4961C72.6909 76.4331 72.7638 76.3532 72.8186 76.2613C72.8743 76.1713 72.9409 76.0885 73.0167 76.0147C73.1341 75.9003 73.2339 75.7682 73.3454 75.6464C73.3987 75.5847 73.4478 75.5195 73.4922 75.4512L73.6389 75.2487C73.8259 74.9541 73.9771 74.6383 74.0895 74.308C74.2016 73.9973 74.2875 73.6777 74.3463 73.3526C74.381 73.1763 74.404 72.9978 74.4153 72.8185C74.4336 72.6394 74.4336 72.4589 74.4153 72.2799C74.3998 72.0645 74.3679 71.8506 74.3199 71.64C74.2994 71.534 74.2715 71.4295 74.2362 71.3275L74.1408 71.0193C74.0645 70.8432 74.0029 70.6627 73.9325 70.488L73.8165 70.2268C73.7825 70.138 73.7433 70.0513 73.6991 69.9671C73.4488 69.3681 73.1018 68.8143 72.6719 68.3278C72.525 68.169 72.3702 68.0177 72.2081 67.8744L71.9396 67.6763C71.8532 67.6072 71.762 67.5444 71.6666 67.4884C71.5419 67.4136 71.4157 67.3417 71.2865 67.2668C71.1574 67.192 71.0165 67.1479 70.8771 67.0951C70.8148 67.0686 70.7505 67.047 70.6848 67.0305L70.3913 66.9586C70.2925 66.9324 70.192 66.9132 70.0905 66.9014C69.9588 66.8754 69.8254 66.8597 69.6913 66.8544C69.5563 66.8535 69.4214 66.8628 69.2877 66.8823C69.0192 66.9029 68.758 66.9836 68.5056 67.0173C68.4395 67.0173 68.3735 67.0305 68.306 67.0349L67.9772 67.0658C67.8105 67.0918 67.6468 67.1346 67.4886 67.1934L67.3653 67.2331L67.2464 67.283L67.0087 67.3871C66.8218 67.4669 66.64 67.5581 66.4642 67.6601C66.375 67.7085 66.2892 67.7629 66.2074 67.823L65.9638 67.9991C65.8097 68.1282 65.6703 68.2647 65.5235 68.4027C65.3768 68.5406 65.2609 68.6962 65.1435 68.8517L64.9835 69.0689C64.927 69.1389 64.8751 69.2125 64.8279 69.2891L64.6812 69.5165L64.6093 69.6295C64.5873 69.6691 64.5682 69.7088 64.5476 69.7484C64.4539 69.9199 64.3715 70.0973 64.3011 70.2796L64.1969 70.5511C64.1661 70.6436 64.1426 70.7375 64.1162 70.83L64.0384 71.0604L63.9768 71.2937L63.9122 71.527C63.8902 71.6048 63.8799 71.687 63.8623 71.7662C63.8251 71.9228 63.7981 72.0816 63.7816 72.2417L63.7566 72.4824C63.7468 72.5622 63.7429 72.6427 63.7449 72.7231C63.7292 73.4254 63.8675 74.1226 64.1499 74.7659C64.1881 74.8466 64.2292 74.9273 64.2718 75.008C64.3117 75.0887 64.3579 75.1662 64.4097 75.2399L64.5667 75.4615L64.6445 75.5701C64.6739 75.6053 64.7047 75.6376 64.734 75.6713C64.8558 75.8034 64.963 75.9458 65.0965 76.0661C65.23 76.1864 65.3416 76.3214 65.4751 76.4388C65.7888 76.7733 66.1497 77.06 66.5464 77.29C66.6858 77.3693 66.8252 77.4368 66.9647 77.5043C67.1041 77.5718 67.2582 77.6026 67.4049 77.651C67.5517 77.6994 67.7146 77.72 67.8775 77.7596C67.9596 77.7802 68.0448 77.789 68.1328 77.8022L68.4058 77.8462C68.736 77.8873 69.0309 77.8462 69.0295 77.7552C69.028 77.6642 68.758 77.6202 68.4351 77.5894C68.2295 77.567 68.0272 77.5212 67.832 77.4529L67.5825 77.3605C67.5032 77.3252 67.4357 77.2827 67.358 77.2445L67.1393 77.1286L66.9236 76.9921C66.8517 76.9451 66.7768 76.9055 66.6932 76.8454C66.6095 76.7852 66.5347 76.7353 66.4452 76.6795C66.0123 76.3896 65.6271 76.0341 65.3034 75.6258C65.1743 75.4577 65.0654 75.275 64.9791 75.0814C64.8808 74.8935 64.8162 74.694 64.7237 74.5061C64.6606 74.3755 64.6298 74.2654 64.5946 74.1803C64.5648 74.1107 64.5398 74.0391 64.5198 73.9661C64.4945 73.8663 64.4768 73.7647 64.4669 73.6623C64.4582 73.5848 64.4582 73.5065 64.4669 73.4289C64.4669 73.3556 64.4772 73.2822 64.4816 73.2176C64.4816 73.0841 64.5095 72.9549 64.508 72.8155C64.508 72.7363 64.5007 72.657 64.508 72.5763L64.5242 72.3371C64.5297 72.1775 64.5434 72.0183 64.5653 71.8602C64.62 71.2499 64.8498 70.6685 65.2271 70.1857C65.3034 70.0742 65.4076 69.9817 65.4927 69.8775C65.5778 69.7733 65.6776 69.6794 65.7657 69.5767C65.8633 69.4673 65.9726 69.3689 66.0915 69.2832C66.2015 69.1849 66.3307 69.113 66.4481 69.0234C66.6888 68.8473 66.9426 68.7167 67.1907 68.545C67.2999 68.4711 67.4189 68.4128 67.5443 68.3719C67.606 68.3484 67.6647 68.319 67.7278 68.2999C67.7907 68.2812 67.8525 68.2586 67.9127 68.2324C68.0209 68.1809 68.1354 68.1434 68.2531 68.1209H68.2708C68.3729 68.1268 68.4753 68.1268 68.5775 68.1209C68.6802 68.1282 68.7844 68.1326 68.8856 68.1371C69.0192 68.1371 69.1527 68.1635 69.2863 68.1767C69.4198 68.1899 69.5108 68.1928 69.5989 68.206C69.6869 68.2192 69.772 68.2163 69.8924 68.2178C69.9731 68.2178 70.3209 68.2838 70.4001 68.2985C70.5293 68.3322 70.6408 68.4129 70.7831 68.4452C70.9255 68.4775 71.0326 68.5157 71.1632 68.545C71.2925 68.5791 71.4191 68.6227 71.5419 68.6756C71.662 68.7446 71.7763 68.8231 71.8838 68.9104C71.9263 68.9442 71.9704 68.9765 72.01 69.0132L72.1245 69.1291C72.1978 69.2083 72.2712 69.2759 72.3461 69.3624C72.6379 69.709 72.8822 70.093 73.0725 70.5042C73.2607 70.8932 73.4206 71.2954 73.5509 71.7075L73.6155 72.0084C73.6243 72.0583 73.6375 72.1082 73.6434 72.1551L73.6566 72.3019L73.683 72.6101C73.683 72.7143 73.683 72.817 73.683 72.9212V73.0679C73.683 73.1178 73.6727 73.1648 73.6683 73.2147L73.6331 73.5082C73.6199 73.6051 73.5891 73.699 73.567 73.8017C73.5467 73.8977 73.5188 73.9919 73.4834 74.0835C73.4436 74.1886 73.4137 74.2972 73.3939 74.4078C73.3682 74.517 73.3288 74.6226 73.2765 74.7218C73.1958 74.8921 73.093 75.0506 72.9976 75.212C72.7628 75.5481 72.575 75.912 72.2463 76.1806C72.0819 76.3273 71.8838 76.4432 71.7238 76.5959C71.6459 76.6622 71.575 76.7364 71.5125 76.8175C71.4502 76.9021 71.3725 76.9743 71.2836 77.0303C70.9913 77.1915 70.681 77.3176 70.359 77.4059C70.1785 77.4529 70.02 77.5116 69.8542 77.5395C69.6852 77.5834 69.5121 77.6099 69.3376 77.6187C69.1909 77.6261 69.0295 77.6672 69.0265 77.7449C69.0236 77.8521 69.1513 77.8579 69.3538 77.8477Z" fill="#063844"/>
<path d="M70.384 50.8233C71.9325 50.9293 73.4649 51.2039 74.9539 51.6422C76.3522 52.0257 77.7097 52.5447 79.0072 53.1919C79.3462 53.3533 79.8877 53.6703 80.4175 53.9931C80.6772 54.1648 80.9384 54.3365 81.1733 54.4892C81.4081 54.6418 81.6032 54.7988 81.7603 54.9074C82.0538 55.1026 82.4309 55.4093 82.8125 55.7072C83.0033 55.854 83.1808 56.0227 83.3525 56.1695C83.5242 56.3162 83.6827 56.4498 83.8045 56.576C84.0467 56.8122 84.2272 56.9825 84.3783 57.1204C84.5295 57.2584 84.6381 57.3743 84.7555 57.4829C84.8729 57.5915 84.9844 57.7045 85.1297 57.8498C85.275 57.9951 85.432 58.1873 85.6536 58.4456C86.5226 59.4954 87.2897 60.6256 87.9444 61.8209C88.6362 63.0645 89.2105 64.3699 89.66 65.7201C90.077 66.9953 90.3719 68.3073 90.5405 69.6384C90.7155 71.076 90.7587 72.5265 90.6696 73.972C90.569 75.7097 90.2691 77.4302 89.7759 79.0995C89.3282 80.5807 88.7018 82.002 87.9107 83.3318C86.5993 85.5003 84.904 87.4118 82.9079 88.973C81.6345 89.9853 80.253 90.8535 78.7885 91.5617C78.3116 91.8038 77.8126 92.002 77.321 92.2192C76.8162 92.4055 76.3143 92.6081 75.7977 92.768C75.5629 92.8458 75.3296 92.928 75.0904 92.9911C74.7294 93.0909 74.3728 93.2083 74.0073 93.2846C73.6419 93.3609 73.2824 93.4636 72.9155 93.5238C71.9601 93.7014 70.9798 93.8276 69.9937 93.9288C69.4991 93.9611 69.0031 94.0095 68.5071 94.0081C68.2605 94.0081 68.0125 94.0257 67.7733 94.0081L67.0395 93.9743C66.7857 93.9611 66.5347 93.9127 66.2808 93.8804C66.068 93.8466 65.8552 93.8246 65.6469 93.7806L65.0232 93.6544C64.7047 93.6001 64.3965 93.5179 64.0854 93.4519C63.9313 93.4167 63.7758 93.3873 63.6217 93.3477L63.1623 93.2244L62.6869 93.0982L62.2173 92.9515L61.7491 92.8047C61.5921 92.7548 61.4409 92.6902 61.2868 92.6345C59.8299 92.0845 58.4329 91.3873 57.1176 90.5535C55.8069 89.7314 54.5878 88.7716 53.4811 87.6904C52.4479 86.6782 51.5228 85.5612 50.7207 84.3576C49.827 83.0248 49.0829 81.5976 48.5018 80.1018C48.0284 78.8346 47.6885 77.5214 47.4877 76.1835C47.2878 74.8663 47.2058 73.5339 47.2426 72.2022C47.3174 69.3303 47.951 66.5006 49.1079 63.871C49.7011 62.5164 50.4173 61.2191 51.2475 59.9953C52.0786 58.7648 53.0465 57.6325 54.1327 56.62C54.3029 56.4527 54.4863 56.3001 54.6683 56.146C54.8503 55.9919 55.0293 55.8334 55.2172 55.6881C55.5973 55.3946 55.97 55.1011 56.3677 54.8472C57.1483 54.3106 57.9582 53.8177 58.7935 53.3709C59.9303 52.7786 61.1119 52.2767 62.3273 51.8696C63.661 51.4199 65.0383 51.1115 66.4364 50.9495C67.8115 50.791 69.0251 50.769 69.028 50.656C69.031 50.543 67.8349 50.5092 66.4056 50.6883L65.6645 50.7822L64.9733 50.9011C64.5242 50.9671 64.1089 51.0728 63.7068 51.1535C63.5057 51.1916 63.3135 51.2459 63.1198 51.3002L62.5577 51.447C62.1894 51.5482 61.8357 51.6642 61.4806 51.7698C59.9308 52.267 58.4512 52.9609 57.078 53.8346C56.2131 54.3773 55.3873 54.98 54.6067 55.6382C53.5386 56.5312 52.561 57.5271 51.6878 58.6114L51.227 59.1984C51.0802 59.3922 50.9335 59.5947 50.7867 59.7855C50.4844 60.1773 50.2246 60.597 49.9444 61.005L49.554 61.636L49.3632 61.9544L49.1871 62.2832C49.0712 62.5018 48.9523 62.7234 48.8408 62.9436C48.7292 63.1637 48.6339 63.3956 48.5297 63.623C48.1633 64.462 47.8487 65.3226 47.5875 66.2C47.5053 66.4788 47.4408 66.7078 47.3747 66.9264C47.3087 67.1451 47.2617 67.3667 47.1927 67.6117C47.1443 67.8025 47.09 67.9845 47.046 68.165C47.002 68.3455 46.9682 68.5187 46.9301 68.6874C46.8919 68.8562 46.8537 69.0235 46.8171 69.1864L46.7334 69.6707C46.6146 70.3167 46.5371 70.9696 46.5015 71.6254C46.4171 73.2134 46.5155 74.8059 46.795 76.3714C47.3412 79.3407 48.4313 82.1836 50.0104 84.7568C50.7146 85.9226 51.5368 87.0128 52.4641 88.0103C53.4778 89.1112 54.5954 90.1118 55.8012 90.9982C57.0113 91.8854 58.3209 92.6281 59.7034 93.2112C60.9124 93.7354 62.1638 94.1557 63.4441 94.4674L64.3055 94.642C64.4523 94.6758 64.599 94.6993 64.7385 94.7213L65.1787 94.7932L65.2814 94.8167C65.4003 94.8431 65.5206 94.8724 65.6425 94.8945L66.0108 94.9546C66.2588 94.9942 66.5098 95.0353 66.7636 95.0691L67.5297 95.1439C67.6574 95.1557 67.785 95.1703 67.9127 95.1791L68.2957 95.1953C68.962 95.2364 69.6429 95.2305 70.3253 95.2085L71.2058 95.1469C71.4612 95.1292 71.6857 95.0896 71.9088 95.0617C72.1318 95.0339 72.349 95.0045 72.5882 94.9576L73.3924 94.802L73.5994 94.7594L73.8929 94.6846L74.6413 94.4982C75.1593 94.3412 75.6789 94.193 75.8667 94.1211C76.1793 94.0081 76.4948 93.9097 76.8147 93.8041C77.1346 93.6984 77.4531 93.5634 77.7862 93.4211C78.9387 92.8812 80.0424 92.2429 81.0852 91.5133L81.5005 91.2433C81.6385 91.1523 81.7691 91.0525 81.9055 90.9571C82.1741 90.7634 82.4485 90.577 82.7068 90.3701C83.5309 89.7454 84.3124 89.0664 85.0461 88.3376C86.6149 86.7816 87.9438 85.0011 88.9893 83.0545C89.9864 81.1702 90.6864 79.1431 91.0644 77.045C91.1392 76.5548 91.2361 76.0676 91.283 75.5775C91.3109 75.3309 91.3461 75.0844 91.3667 74.8437L91.418 74.0997C91.418 73.9764 91.4386 73.8516 91.4401 73.7284V73.3556L91.4518 72.6101L91.4268 71.8646L91.4136 71.4919L91.3814 71.1206C91.2372 69.2549 90.8717 67.4129 90.2924 65.6335C89.9784 64.618 89.4912 63.6685 89.0392 62.7176L88.7383 62.1305C88.6415 61.931 88.5212 61.7431 88.414 61.5435C88.3069 61.344 88.1954 61.1576 88.0765 60.9712L87.7184 60.4106C87.6509 60.3094 87.5878 60.2052 87.5188 60.1054L87.3075 59.8119C87.1608 59.6167 87.0272 59.4215 86.8819 59.2322L86.4314 58.6789C86.3566 58.588 86.2846 58.494 86.2054 58.4045L85.9677 58.1404C85.8092 57.9657 85.6536 57.7882 85.4922 57.6135L85.0006 57.0867C84.9169 57.0016 84.8362 56.915 84.7496 56.8313L84.4884 56.5863C84.3138 56.4219 84.1421 56.2517 83.963 56.0873C83.2023 55.3897 82.3888 54.7518 81.5299 54.1795C80.7444 53.7157 79.9336 53.2963 79.1011 52.9233C77.7749 52.2552 76.3864 51.7189 74.9554 51.3223C74.5577 51.2004 74.1702 51.1241 73.7975 51.0405C73.4247 50.9568 73.0549 50.9055 72.691 50.8409C71.9572 50.7279 71.2234 50.6531 70.3987 50.6002L70.1566 50.5841H69.9174C69.7603 50.5841 69.6092 50.5841 69.4771 50.5929C69.2159 50.6046 69.0368 50.6281 69.0266 50.6663C69.0163 50.7044 69.144 50.7514 69.3773 50.7734C69.4932 50.7851 69.6371 50.7925 69.8058 50.7998C69.9746 50.8072 70.1698 50.8013 70.384 50.8233Z" fill="#063844"/>
<path d="M115.123 74.4268L108.609 74.1435C108.609 74.1435 109.175 65.9254 107.476 61.9631L112.296 58.2826C112.296 58.2826 109.747 49.7871 104.372 45.2554L99.8225 50.0703C99.8225 50.0703 93.5914 42.1457 91.0438 40.4404L93.5914 35.059C93.5914 35.059 83.1133 30.2441 81.1306 29.6776L79.4371 35.059L69.524 33.9261V27.1285L53.9477 28.5447L56.7801 35.6255C56.7801 35.6255 49.1328 37.3249 44.5996 43.2727L40.3511 38.1746L29.0219 50.0703L34.12 54.602C34.12 54.602 30.1577 65.6466 30.438 69.6118L23.6405 70.1783C23.6405 70.1783 24.4902 84.9063 25.9063 88.0219L31.571 86.0393C31.571 86.0393 34.6865 94.818 37.8021 98.7832L34.4033 102.746C34.4033 102.746 42.9002 110.393 47.1487 111.243L49.1313 105.861C49.1313 105.861 57.91 110.393 63.5747 111.243V117.474C63.5747 117.474 72.3549 118.89 76.6033 117.474L74.904 110.959C74.904 110.959 81.7015 111.243 85.95 107.56L88.7823 112.659L100.677 105.861L97.2793 99.3512C97.2793 99.3512 102.944 94.253 104.927 89.7228L110.308 91.4266C110.308 91.4266 115.406 77.2591 115.123 74.4268ZM69.028 103.174C51.7831 103.174 37.8035 89.193 37.8035 71.9481C37.8035 54.7033 51.7831 40.7237 69.028 40.7237C86.2728 40.7237 100.254 54.7033 100.254 71.9481C100.254 89.193 86.2743 103.174 69.028 103.174Z" fill="#F7F4F2"/>
<path d="M69.0279 103.198C69.0279 103.011 68.7344 102.926 68.2105 102.881C68.0785 102.87 67.9317 102.861 67.7703 102.854C67.6089 102.847 67.4342 102.845 67.2464 102.826L65.9667 102.732C60.1398 102.151 54.6058 99.8953 50.0324 96.2382C45.4589 92.5812 42.0416 87.6787 40.1926 82.1225C38.9685 78.4312 38.4764 74.5365 38.7442 70.6567C38.9746 67.042 39.7596 63.4842 41.0717 60.1082C42.3752 56.8083 44.2495 53.7637 46.6086 51.1137C46.9021 50.7967 47.1956 50.4724 47.4891 50.1701L48.4005 49.2823L49.3411 48.4516C49.4879 48.3049 49.6596 48.1846 49.8225 48.0554L50.3082 47.6709C51.6 46.6698 52.9719 45.7765 54.41 45C55.871 44.2288 57.3925 43.578 58.9593 43.0541L59.5624 42.8589C59.7635 42.7943 59.9645 42.7268 60.1729 42.6755L61.4218 42.3438L62.7073 42.0679C63.1476 41.9813 63.5878 41.9212 64.0281 41.8449C68.4145 41.1909 72.8901 41.4841 77.1536 42.7048C81.4534 43.928 85.4488 46.0392 88.8821 48.9022C89.1081 49.093 89.3385 49.2779 89.5586 49.473L90.1999 50.0703L90.5169 50.3638C90.6225 50.4636 90.7194 50.5707 90.8192 50.6735L91.4135 51.2957C91.6161 51.4982 91.7907 51.7228 91.9785 51.9355L92.5274 52.5798L93.0381 53.249C93.2039 53.4735 93.3829 53.6892 93.5341 53.9196C94.7905 55.7083 95.835 57.6368 96.6467 59.6664C97.4592 61.6926 98.0554 63.799 98.4253 65.9504C98.8049 68.2111 98.9646 70.5033 98.9023 72.7949C98.819 76.823 97.9927 80.8012 96.4647 84.5292C94.9046 88.3214 92.5791 91.7511 89.6334 94.6038C88.4399 95.7394 87.1587 96.7791 85.8017 97.7134L85.294 98.0554C85.1252 98.1698 84.9564 98.2858 84.7803 98.387L83.7325 99.0195L82.6568 99.6065L82.3868 99.7533L82.1109 99.8839L81.5591 100.145C81.3742 100.232 81.1908 100.321 81.0059 100.405L80.4409 100.638C80.0622 100.785 79.6895 100.96 79.3021 101.078C78.9146 101.197 78.5331 101.354 78.1442 101.482L76.9702 101.83C75.3689 102.259 73.7356 102.559 72.0863 102.726C70.5556 102.873 69.028 102.853 69.025 103.143C69.025 103.33 69.3185 103.4 69.8571 103.419C69.9921 103.419 70.1418 103.419 70.3062 103.419C70.4705 103.419 70.6481 103.419 70.8403 103.4L72.1435 103.297C74.7275 103.04 77.2738 102.489 79.7335 101.657C82.1699 100.818 84.4972 99.6904 86.6661 98.299C88.8376 96.8886 90.8244 95.2124 92.5802 93.3094L93.2215 92.5756L93.5414 92.2058C93.6456 92.0796 93.744 91.949 93.8452 91.8213L94.4484 91.0479C94.6435 90.7853 94.827 90.5138 95.0163 90.2452C95.4023 89.7154 95.7354 89.146 96.0861 88.5884C96.1756 88.4416 96.2549 88.3051 96.3341 88.1599L96.5733 87.7196L96.8111 87.2793L96.9299 87.0622L97.0371 86.8376C99.0711 82.7638 100.244 78.6591 100.633 74.5266C100.828 72.4601 100.811 70.3792 100.584 68.316C100.351 66.2133 99.8733 64.1449 99.162 62.1524C98.375 59.924 97.4325 57.7536 96.3415 55.6572C95.2808 53.6072 93.9571 51.7044 92.4041 49.9969C92.1576 49.7357 91.9154 49.473 91.6703 49.2206L90.9087 48.4957C90.781 48.3768 90.6592 48.255 90.5271 48.142L90.1368 47.8177C89.8741 47.5975 89.6173 47.3774 89.3531 47.1617L88.5445 46.5497C88.4095 46.4499 88.2789 46.3443 88.141 46.2489L87.7256 45.9657L86.8965 45.4051L86.0424 44.8826L85.6153 44.6214L85.1751 44.3793L84.2946 43.8921L83.3862 43.4386L82.9283 43.2111C82.7816 43.1348 82.6172 43.0644 82.4602 42.9983L81.5122 42.5713L80.5319 42.1736L80.0314 41.9711L79.5222 41.7862L78.4847 41.4105C76.6398 40.7819 74.7296 40.3649 72.7907 40.1675C70.9129 39.9754 69.0212 39.9607 67.1407 40.1235C65.2643 40.2856 63.4057 40.6116 61.5861 41.0979C59.7086 41.5909 57.8713 42.2262 56.0903 42.9983C54.4029 43.7265 52.7766 44.5888 51.2269 45.5768C49.6991 46.5617 48.2533 47.6684 46.9036 48.886C45.5615 50.0976 44.3207 51.4169 43.1937 52.8307C40.9421 55.673 39.1948 58.8806 38.028 62.3139C37.4553 64.0471 37.0378 65.8279 36.7806 67.6351C36.6339 68.5406 36.5752 69.4578 36.5135 70.375C36.5018 70.8358 36.4915 71.2951 36.4798 71.7574C36.4695 71.9878 36.4798 72.2182 36.4915 72.4486L36.5135 73.1427C36.5976 75.0042 36.8571 76.8537 37.2884 78.6665C37.6918 80.3325 38.2096 81.9688 38.8381 83.5636L39.0817 84.1682C39.1624 84.3707 39.2431 84.5732 39.3385 84.7684C39.5205 85.1646 39.7029 85.5619 39.8859 85.96L40.492 87.1341C40.5903 87.3307 40.7033 87.52 40.8134 87.7093L41.1465 88.2787C42.0477 89.7905 43.0788 91.2209 44.2283 92.5536C45.3699 93.8629 46.6359 95.0582 48.0086 96.1226C50.2804 97.8897 52.7623 99.3684 55.3976 100.525C56.0624 100.794 56.7184 101.087 57.4037 101.318L57.9129 101.503L58.1683 101.595L58.428 101.676L59.4656 101.993C59.6373 102.051 59.8163 102.094 59.9924 102.139L60.5251 102.286L61.0593 102.426C61.2369 102.474 61.4188 102.505 61.6008 102.546L62.6912 102.779L63.8021 102.963C63.9767 102.998 64.1484 103.041 64.3245 103.068L64.8514 103.151C65.2036 103.203 65.5543 103.267 65.9065 103.312C67.4694 103.46 69.0309 103.469 69.0279 103.198Z" fill="#063844"/>
<path d="M115.121 74.4503C115.13 74.2654 114.578 74.1568 113.569 74.0878C113.064 74.0497 112.445 74.0174 111.723 73.9866L109.414 73.8883L109.156 73.878H109.028H108.965H108.933C108.925 73.878 108.905 73.878 108.912 73.8677C108.933 73.5375 108.946 73.2059 108.958 72.8669L108.975 72.2417L108.986 71.6033C108.986 70.7507 108.986 69.8995 108.952 69.0484C108.912 67.3402 108.723 65.6387 108.387 63.9634C108.311 63.5408 108.177 63.1269 108.065 62.7101V62.6911L108.055 62.6617L108.035 62.6045L107.992 62.49L107.908 62.2611L107.866 62.1466L107.845 62.0894C107.837 62.0776 107.856 62.0747 107.86 62.0674L107.885 62.0498L108.079 61.903L109.986 60.4546L112.06 58.877L112.368 58.6392L112.515 58.5204L112.593 58.4602L112.631 58.4308L112.65 58.4162L112.66 58.4088C112.66 58.4088 112.66 58.4015 112.66 58.3971C112.584 58.1496 112.504 57.9025 112.421 57.656C112.38 57.5327 112.339 57.4065 112.295 57.2862L112.186 56.9809C112.116 56.7799 112.04 56.5832 111.963 56.3851C111.36 54.7997 110.652 53.2563 109.843 51.7654C109.038 50.2659 108.101 48.8416 107.043 47.5095C106.771 47.1794 106.51 46.8433 106.209 46.5366L105.769 46.067L105.659 45.9496C105.616 45.902 105.57 45.857 105.522 45.8146L105.229 45.5401L104.631 44.9883L104.485 44.8504L104.41 44.7814L104.372 44.7477C104.36 44.7389 104.347 44.7125 104.335 44.7359L104.056 45.0294L102.991 46.1506L101.255 47.9733L100.448 48.8186C100.249 49.024 100.053 49.2368 99.8606 49.4276C99.3293 48.7364 98.1582 47.2806 97.1765 46.1051C96.1565 44.8856 95.1219 43.6793 94.0286 42.5068C93.7586 42.2133 93.4725 41.9286 93.1936 41.638L92.7534 41.2153C92.6066 41.0686 92.4599 40.9321 92.3058 40.7971L92.115 40.6298C92.071 40.5916 92.0284 40.5476 91.98 40.5124L91.8332 40.4023L91.7628 40.348L91.7276 40.3216L91.71 40.307H91.7011V40.2967L92.0446 39.5967L93.0836 37.4526L93.6354 36.3109L94.0052 35.5419L94.1915 35.1545L94.284 34.9608L94.331 34.8639L94.3544 34.8155C94.3544 34.8081 94.3691 34.7979 94.3544 34.7935L94.331 34.7832L89.4691 32.5276C88.0177 31.8614 86.5634 31.198 85.0944 30.5494C84.3606 30.228 83.6269 29.9052 82.8725 29.5955L82.5233 29.4488C82.3765 29.3915 82.2386 29.3402 82.0962 29.2888C81.8115 29.1875 81.5283 29.0789 81.2377 28.9821L80.7975 28.8353L80.6874 28.7986C80.6874 28.7986 80.6771 28.7986 80.6757 28.7986V28.8119L80.6654 28.8383L80.6478 28.8911L80.5729 29.1039C80.4761 29.3974 80.3734 29.666 80.2794 29.9624C79.9996 30.8233 79.7184 31.6853 79.4356 32.5482L79.0585 33.6943L78.875 34.2299L78.6197 34.1933L78.4949 34.1756L78.2895 34.1478L77.0758 33.9746L74.606 33.6635L72.123 33.348L70.877 33.1895L70.7787 33.1763H70.7273L70.6261 33.1601L70.428 33.1293C70.428 33.0706 70.428 33.0104 70.4353 32.9503V32.8255V32.7639V32.6025L70.4441 31.8173L70.4573 30.2515C70.4573 29.73 70.4607 29.2096 70.4676 28.69C70.4676 27.8223 70.4676 26.9554 70.4676 26.0896L65.4912 26.5416L61.5862 26.9143L52.7032 27.7949L53.889 30.6433L54.6228 32.4146L55.3565 34.183L55.5224 34.5807L55.6031 34.7641L55.6852 34.9505L55.7278 35.0459L55.7484 35.0943C55.7484 35.109 55.7718 35.131 55.7484 35.131C55.6456 35.1589 55.5429 35.1912 55.4372 35.2264L55.0278 35.3731C54.5259 35.5473 54.0314 35.7366 53.5441 35.9411C52.5695 36.3466 51.6198 36.8097 50.7001 37.3279C49.7803 37.8456 48.8946 38.4215 48.0483 39.0522C47.2032 39.6877 46.4065 40.3852 45.665 41.139C45.5183 41.2785 45.3906 41.4325 45.2556 41.5793L45.0986 41.751L44.9973 41.8699C44.8623 42.0269 44.7375 42.1898 44.6157 42.3468C44.6157 42.3468 44.6157 42.3585 44.6069 42.3556L44.5981 42.3439L44.5791 42.3219L44.5409 42.2778L44.4646 42.1898L44.3178 42.0107L43.9876 41.6233L42.9075 40.3407L40.3878 37.3249C35.5112 42.4613 33.0678 45.003 28.1619 50.1056L31.138 52.7824L32.4104 53.93L33.0429 54.5008C33.1515 54.6021 33.263 54.7004 33.3687 54.7943L33.2219 55.195C33.1319 55.4532 33.0414 55.7125 32.9504 55.9727C32.7655 56.5089 32.583 57.047 32.403 57.587C32.0435 58.6774 31.6913 59.7883 31.3552 60.9227C30.9502 62.2948 30.5672 63.6831 30.2458 65.111C30.0858 65.8242 29.9405 66.5462 29.829 67.2888C29.7747 67.6572 29.7248 68.0431 29.6969 68.4144C29.6827 68.5666 29.6778 68.7195 29.6822 68.8723V68.884C29.6822 68.884 29.6749 68.884 29.6705 68.884H29.6456H29.5957H29.4973L29.2992 68.8972L28.517 68.9559L26.6093 69.1027L24.5885 69.2582L23.0417 69.383L22.848 69.3991H22.7996C22.7922 69.3991 22.779 69.3991 22.779 69.3991V69.4226V69.5194L22.801 69.9054L22.8451 70.6817C22.892 71.4272 22.9409 72.1747 22.9918 72.9241C23.0378 73.5669 23.0838 74.2106 23.1298 74.8554C23.2276 76.1429 23.3372 77.4323 23.4585 78.7237C23.5832 80.0166 23.7241 81.3095 23.8987 82.6053C24.0734 83.9012 24.2451 85.2278 24.5386 86.5427L24.5973 86.7907L24.6384 86.9595C24.653 87.0255 24.6707 87.0901 24.6883 87.1547C24.7631 87.4115 24.8453 87.6609 24.9231 87.9148C25.0008 88.1687 25.1065 88.3932 25.2019 88.6354L25.3487 88.9993L25.3677 89.0448L25.3765 89.0683V89.08H25.3883L25.4807 89.0536L25.6642 89.0008L26.3979 88.7909L27.161 88.5253L28.2074 88.154L31.0456 87.1561L31.3009 87.8194C31.4917 88.3086 31.6874 88.7949 31.8879 89.2782C32.2886 90.2453 32.7009 91.2065 33.1353 92.1574C33.5697 93.1084 34.0158 94.052 34.5133 94.9795C35.0108 95.907 35.52 96.8256 36.088 97.712L36.3521 98.1097L36.4842 98.3078L36.5488 98.4061C36.5549 98.416 36.5617 98.4253 36.5693 98.434L36.584 98.4531L36.6999 98.5999L36.7572 98.6762L36.7865 98.7143C36.7953 98.7275 36.8144 98.7407 36.7953 98.7525L36.5532 99.046L35.9926 99.7064L34.8112 101.096L33.9601 102.091L33.5066 102.63L33.3936 102.765L33.3643 102.798L33.351 102.815C33.351 102.815 33.3378 102.826 33.351 102.831L33.4171 102.889L33.6798 103.124C34.0261 103.436 34.3773 103.747 34.7335 104.056L35.4819 104.696C35.9388 105.087 36.3971 105.47 36.857 105.844C37.7776 106.596 38.707 107.33 39.6452 108.045C40.5918 108.751 41.553 109.435 42.5495 110.071C43.0455 110.393 43.5591 110.697 44.0845 110.987L44.4822 111.201L44.8902 111.404C45.0252 111.474 45.169 111.533 45.3084 111.598L45.4141 111.645C45.4508 111.661 45.4786 111.675 45.5344 111.697L45.8734 111.821L46.2124 111.946C46.3254 111.99 46.4384 112.01 46.5514 112.045C46.7789 112.107 47.0049 112.17 47.2382 112.227L47.586 112.315L47.6741 112.337C47.6931 112.349 47.6902 112.321 47.699 112.312L47.7166 112.273L47.7856 112.114L48.0673 111.477L48.8598 109.423L49.4864 107.819L49.5642 107.618L49.5745 107.594V107.583L49.5862 107.559L49.6273 107.47C49.6552 107.412 49.6787 107.354 49.7066 107.308L49.8533 107.396L49.8885 107.417L49.9487 107.45L50.0779 107.521L50.1087 107.539L50.1586 107.563L50.3259 107.647L50.659 107.813L51.3282 108.14C52.2214 108.577 53.1269 108.997 54.0446 109.402C55.9093 110.24 57.8167 110.978 59.7591 111.615L60.5163 111.841C60.7687 111.916 61.0197 111.988 61.2809 112.057L62.0616 112.252L62.2231 112.292H62.2363L62.2641 112.301C62.3126 112.308 62.2832 112.334 62.2847 112.346C62.2847 112.845 62.2803 113.346 62.2715 113.847C62.2715 114.37 62.2681 114.895 62.2612 115.424C62.2612 115.686 62.2612 115.952 62.2612 116.216C62.2612 116.448 62.2612 116.68 62.2612 116.913C62.2612 117.177 62.2612 117.446 62.2612 117.707C62.2612 117.968 62.2686 118.234 62.273 118.497V118.608C62.273 118.608 62.2803 118.608 62.2832 118.608H62.3082L62.3566 118.615L62.5533 118.646L62.9451 118.708C63.4705 118.787 63.9944 118.872 64.53 118.94L64.96 118.994L65.3709 119.042C65.6453 119.076 65.9212 119.103 66.1986 119.132C67.6323 119.279 69.0793 119.376 70.5454 119.398C72.0418 119.437 73.5389 119.353 75.0213 119.145L75.7213 119.01L75.9796 118.96C76.0677 118.944 76.144 118.916 76.2276 118.896L76.7192 118.756L77.7069 118.477L77.9519 118.408L78.0752 118.373C78.106 118.373 78.0914 118.347 78.087 118.326L78.0723 118.265L77.9563 117.77C77.8786 117.44 77.8096 117.114 77.7113 116.775L77.453 115.809L77.1668 114.773C76.9712 114.081 76.7799 113.388 76.593 112.695L76.5211 112.436L76.4859 112.307C76.4839 112.297 76.4809 112.288 76.4771 112.279L76.4536 112.22L76.4272 112.155L76.414 112.12L76.4066 112.101C76.4066 112.101 76.4066 112.088 76.4066 112.089C76.4595 112.089 76.5196 112.073 76.5901 112.061H76.6062H76.6855L76.8763 112.044C77.0039 112.032 77.1316 112.019 77.2578 112.004C77.5132 111.975 77.767 111.943 78.0195 111.906C79.0368 111.759 80.0422 111.539 81.0279 111.247C82.0263 110.955 82.9952 110.569 83.9218 110.096L84.2696 109.912L84.6116 109.715C84.726 109.65 84.8376 109.58 84.9491 109.508L85.1164 109.402C85.1692 109.369 85.2397 109.325 85.2485 109.316L85.3864 109.214L85.4216 109.188L85.4407 109.172L85.4803 109.137C85.5361 109.093 85.5889 109.04 85.6462 108.99C85.6462 108.978 85.6579 108.99 85.6623 108.99L85.6755 109.01L85.7034 109.053L85.7606 109.141L85.881 109.327L86.5883 110.541L87.3221 111.809C87.7036 112.475 88.0847 113.142 88.4653 113.808L90.5932 112.555L91.9932 111.72L94.7888 110.054L97.5771 108.397L98.9698 107.572L100.584 106.623L101.465 106.109L97.8926 99.4628C98.0394 99.3292 98.1744 99.1927 98.3138 99.0504L98.6381 98.7275L98.9698 98.3915C99.41 97.938 99.8415 97.4831 100.263 97.0164C101.106 96.0845 101.915 95.1262 102.672 94.1254C103.44 93.1282 104.127 92.0711 104.727 90.9643L104.818 90.7971L104.888 90.6503L105.035 90.3465L105.107 90.1998V90.191C105.107 90.191 105.107 90.191 105.116 90.191H105.136L105.176 90.2027L105.255 90.2262L105.577 90.3245L107.229 90.8308L109.009 91.3796L110.113 91.7216L110.389 91.8067L110.456 91.8272L110.491 91.8375H110.5C110.5 91.8375 110.5 91.8375 110.5 91.8302V91.8126L110.549 91.6761L110.741 91.1316C110.96 90.4938 111.18 89.8544 111.4 89.2136C111.595 88.6266 111.791 88.0371 111.987 87.4452C112.77 85.0825 113.535 82.6978 114.231 80.2646C114.634 78.8426 115.007 77.4132 115.179 76.3023C115.226 76.0279 115.25 75.7711 115.272 75.5436C115.289 75.3455 115.292 75.1464 115.281 74.9478C115.278 74.8731 115.271 74.7987 115.261 74.7247C115.25 74.6691 115.236 74.6142 115.218 74.5604C115.189 74.4723 115.157 74.4283 115.121 74.4312C115.086 74.4342 115.036 74.4753 115.005 74.5428C114.97 74.6383 114.942 74.7364 114.922 74.8363C114.872 75.0916 114.797 75.4658 114.702 75.9516C114.499 76.926 114.175 78.351 113.674 80.1032C112.982 82.5246 112.207 84.9093 111.397 87.2706C111.191 87.8576 110.987 88.4446 110.783 89.0316C110.595 89.5619 110.406 90.0907 110.217 90.618L110.097 90.9438L110.082 90.9834L110.075 91.004C110.075 91.004 110.061 91.004 110.055 91.004L109.972 90.9761L109.806 90.9218L109.166 90.6928L107.395 90.1205L105.487 89.4998L104.916 89.3163L104.769 89.2694L104.733 89.2576C104.721 89.2576 104.721 89.2752 104.714 89.2826L104.68 89.3501L104.548 89.6172L104.284 90.1528C104.238 90.2423 104.197 90.3333 104.149 90.4199L104.022 90.6415C103.417 91.696 102.73 92.7014 101.968 93.6484C101.209 94.6038 100.401 95.5225 99.5612 96.4103C99.1415 96.8506 98.7115 97.2908 98.2757 97.7193L97.9469 98.0393L97.6006 98.3709C97.2939 98.6644 96.9769 98.9491 96.6584 99.2368C97.7503 101.371 98.8431 103.508 99.9369 105.648L97.4318 107.06L94.4645 108.743L91.4869 110.446L89.0009 111.878L87.843 109.832C87.5965 109.396 87.3519 108.96 87.1093 108.523L86.603 107.627L86.3506 107.186L86.2244 106.965L86.1613 106.853L86.1304 106.797C86.1202 106.777 86.1055 106.786 86.0938 106.777C85.5642 107.238 85.0107 107.67 84.4355 108.073C83.0248 108.969 81.4698 109.614 79.8392 109.98C79.037 110.171 78.224 110.311 77.4046 110.402C77.2006 110.427 76.9981 110.446 76.7941 110.462L76.483 110.485C76.3465 110.496 76.2071 110.504 76.0691 110.509C75.5188 110.534 74.9391 110.522 74.3756 110.509L74.3565 110.531C74.3565 110.531 74.3492 110.538 74.3477 110.544V110.568L74.3741 110.664L74.424 110.858L74.5253 111.245C74.5928 111.504 74.6603 111.761 74.7263 112.019C74.8418 112.462 74.9567 112.902 75.0712 113.34C75.2669 114.111 75.465 114.877 75.6656 115.639C75.7492 115.965 75.8314 116.289 75.915 116.612L76.0104 116.988L76.0339 117.08C76.0339 117.11 76.0647 117.152 76.0163 117.151L75.8299 117.201C75.7037 117.233 75.5804 117.27 75.4557 117.298L75.0536 117.369L74.7762 117.419C74.6823 117.433 74.5869 117.441 74.493 117.452L73.928 117.516C72.4077 117.641 70.8803 117.654 69.3581 117.554C67.8349 117.469 66.313 117.32 64.8088 117.114C64.5784 117.082 64.3495 117.048 64.122 117.011C64.1132 117.011 64.1132 117.011 64.1132 116.998V116.33C64.1132 115.564 64.1157 114.797 64.1206 114.028C64.1206 113.169 64.1206 112.309 64.1206 111.449V110.836C64.1206 110.821 64.1206 110.798 64.1206 110.791L64.0707 110.782L63.9709 110.764L63.1755 110.617L62.7763 110.544L62.5841 110.509L62.4461 110.475L61.8914 110.344C60.3959 109.967 58.9219 109.51 57.4756 108.974C56.0081 108.443 54.5406 107.854 53.0731 107.226C52.4176 106.946 51.7782 106.66 51.155 106.369L50.6678 106.14L50.094 105.863C49.7007 105.669 49.2942 105.463 48.9024 105.264C48.5052 106.32 48.1138 107.355 47.7283 108.369L47.2309 109.664L47.0371 110.155L46.8787 110.55L46.8581 110.598C46.8493 110.61 46.8581 110.642 46.8288 110.628L46.7246 110.598C46.6541 110.578 46.5851 110.562 46.5176 110.535L46.3181 110.465L46.1273 110.386L46.0304 110.344L45.8837 110.277L45.5902 110.143C45.3994 110.044 45.2057 109.953 45.0164 109.85C44.2553 109.431 43.5161 108.974 42.8019 108.479C41.3637 107.492 39.9784 106.407 38.5916 105.264C37.8989 104.69 37.2033 104.103 36.5047 103.503L35.9852 103.035C35.9104 102.969 35.8385 102.9 35.7622 102.832L35.6653 102.743L35.6184 102.699L35.5949 102.677L35.5817 102.665C35.5817 102.665 35.5817 102.658 35.5817 102.653C35.6418 102.587 35.7005 102.52 35.7607 102.452C35.953 102.232 36.1423 102.012 36.3316 101.793C36.5972 101.486 36.8599 101.18 37.1226 100.875L38.0031 99.8473L38.6371 99.1047L38.7941 98.9198L38.8733 98.8273C38.8851 98.82 38.8733 98.8127 38.8733 98.8038L38.8557 98.7789L38.819 98.7305L38.5255 98.3386L37.9532 97.5609L37.9194 97.5139L37.8989 97.4845L37.8593 97.4244L37.78 97.304L37.6215 97.0634C37.5173 96.9034 37.4073 96.7464 37.309 96.585L37.0154 96.0977C36.8173 95.7778 36.6339 95.4447 36.4504 95.1145C36.267 94.7843 36.0865 94.4512 35.9119 94.1151C35.2104 92.7738 34.5676 91.4061 33.9586 90.0207C33.6519 89.3295 33.3599 88.6295 33.0707 87.9266L32.858 87.3983L32.6217 86.7995C32.4074 86.2477 32.2049 85.6871 32.0009 85.1324L26.4243 87.1062C26.3982 87.118 26.3706 87.1259 26.3422 87.1297L26.3084 87.0446C26.2855 86.9889 26.2654 86.9321 26.2482 86.8744C26.2086 86.7599 26.1807 86.641 26.1514 86.5236L26.0839 86.2301L26.0076 85.8706C25.9562 85.6299 25.9151 85.3834 25.8682 85.1368C25.6965 84.1506 25.5614 83.1322 25.4426 82.0932C25.086 78.8646 24.8291 75.6962 24.5885 72.5748C24.5474 72.023 24.5058 71.4737 24.4637 70.9268V70.896C24.4637 70.8872 24.4637 70.8696 24.4725 70.874L24.5312 70.8666L24.6516 70.8549L24.8952 70.8299L25.9078 70.7346L28.2206 70.5144L29.4181 70.3985L30.2986 70.3178L30.7389 70.2767L30.9575 70.2561L31.0661 70.2459H31.1204C31.134 70.2413 31.1468 70.2349 31.1586 70.2268C31.1483 69.9758 31.1322 69.7308 31.1278 69.4769C31.1233 69.223 31.1101 68.9735 31.1278 68.7328L31.1439 68.4276C31.1439 68.3528 31.1571 68.2809 31.163 68.2001C31.1762 68.0534 31.1865 67.8964 31.207 67.7423C31.276 67.1288 31.3743 66.511 31.4917 65.8932C31.7236 64.6561 32.0156 63.4175 32.337 62.1818C32.6584 60.9462 33.012 59.7091 33.3863 58.4719C33.5741 57.8546 33.7698 57.2358 33.9733 56.6155L34.2771 55.688L34.481 55.0849L34.7041 54.448L31.9158 51.9958L29.7145 50.0322L30.4233 49.2985L35.6492 43.9112C36.518 43.0238 37.3838 42.1374 38.2467 41.252L39.5411 39.9313L39.8346 39.6378L40.0048 39.469L40.335 39.1417L40.922 39.8755C41.2713 40.3089 41.62 40.7413 41.9683 41.1728L43.0117 42.4671L43.813 43.4504L44.2254 43.9567L44.4338 44.2106L44.538 44.3382L44.5893 44.4028L44.6157 44.4336C44.6229 44.4409 44.6314 44.4469 44.6407 44.4512C44.9459 44.0814 45.2409 43.7013 45.5608 43.3315L46.0363 42.7724C46.0759 42.7269 46.117 42.6829 46.1654 42.633L46.2462 42.5493L46.3929 42.3923C46.4927 42.2866 46.5969 42.1839 46.7026 42.0841L47.0195 41.7818C47.2382 41.5896 47.451 41.39 47.6785 41.208C48.5761 40.4599 49.5359 39.7897 50.5475 39.2048C51.559 38.6182 52.6109 38.1043 53.6953 37.6669C54.2373 37.4487 54.7847 37.2496 55.3374 37.0696L55.5444 37.0021L55.7689 36.9331C56.0257 36.8553 56.2767 36.7864 56.5393 36.7115C57.0603 36.5765 57.6238 36.4591 58.1668 36.3344L56.3735 31.6985L55.6897 29.9081L55.6471 29.7966V29.7834V29.7731L55.6368 29.7364L55.6163 29.6674L55.5825 29.5441H55.876L55.9978 29.5339L57.9423 29.3871L61.8371 29.0819L65.7348 28.7634L67.6837 28.5991L68.1724 28.558H68.1959H68.2091V28.5726V28.8104C68.2091 29.3754 68.2091 29.9404 68.2091 30.5068C68.2091 32.034 68.2091 33.5652 68.2091 35.1002L74.3286 35.7855L80.3455 36.4327L80.9736 34.4002C81.0812 34.0499 81.1873 33.6977 81.292 33.3436C81.4916 32.6802 81.6897 32.0125 81.8893 31.3448C81.8893 31.3154 81.8981 31.2817 81.9054 31.2435C81.9038 31.2348 81.9038 31.2258 81.9054 31.2171H81.9289L81.9774 31.2274L82.0317 31.2421H82.0493L82.1667 31.2876L82.4029 31.3786C82.7155 31.4989 83.034 31.631 83.3495 31.7572C84.6174 32.2737 85.8927 32.8211 87.165 33.3714C88.4374 33.9218 89.7288 34.4985 91.0158 35.0752L91.9198 35.4817L92.0856 35.5536L92.1077 35.5639H92.1179C92.1179 35.5639 92.1179 35.5639 92.1179 35.5727L92.0989 35.6138L92.0622 35.6975L91.7819 36.2962L90.8705 38.2627L90.3364 39.403L89.9225 40.2835L89.7171 40.7237C89.6774 40.7663 89.7361 40.7839 89.7626 40.8103L89.8579 40.8837L90.0487 41.0304C90.3055 41.2286 90.5506 41.4223 90.8162 41.6174C90.8829 41.6661 90.947 41.718 91.0085 41.773L91.1552 41.9051L91.3431 42.065C91.5911 42.2866 91.8391 42.5273 92.0871 42.7621C92.3351 42.9969 92.5773 43.2493 92.8209 43.4959C93.0645 43.7424 93.3052 43.9992 93.5429 44.2575C94.4997 45.2848 95.436 46.3443 96.3576 47.4127C96.8184 47.9478 97.2763 48.4859 97.7312 49.027L98.0819 49.4423L98.6264 50.1056L99.7564 51.4983C100.193 51.0257 100.627 50.5532 101.06 50.0807L101.627 49.4584L102.003 49.0387L103.494 47.3643L103.829 46.9871L103.996 46.7978L104.033 46.7552L104.049 46.7362L104.081 46.6951L104.359 46.359L104.376 46.3355C104.376 46.3355 104.389 46.3135 104.395 46.3238L104.436 46.3561L104.517 46.4207L104.686 46.5557L104.774 46.6261L104.818 46.6628L104.84 46.6804L104.874 46.7142L105.213 47.0546L105.553 47.3966L105.723 47.5683L105.883 47.7502L106.522 48.484C106.726 48.7349 106.921 48.9961 107.122 49.253C107.323 49.5098 107.509 49.7739 107.696 50.0425C108.079 50.5723 108.419 51.1314 108.77 51.6861L109.263 52.5373C109.429 52.822 109.576 53.117 109.734 53.4061C110.348 54.5773 110.901 55.7799 111.389 57.0088L111.568 57.474L111.634 57.6443L111.695 57.8086C111.734 57.9187 111.778 58.0331 111.811 58.1447L111.538 58.3648L110.05 59.5388L108.449 60.8009L107.547 61.5068L107.307 61.702L107.183 61.7988L107.122 61.8472C107.122 61.8472 107.107 61.8546 107.109 61.8604L107.116 61.8795L107.131 61.9162L107.355 62.5032L107.468 62.7967C107.468 62.8158 107.49 62.8584 107.496 62.8789L107.514 62.9391L107.549 63.0594L107.696 63.5437C107.749 63.7037 107.776 63.8709 107.816 64.0368L107.928 64.5343C107.994 64.8689 108.046 65.2064 108.107 65.5439C108.167 65.8815 108.196 66.2278 108.242 66.5712C108.388 67.9463 108.462 69.3477 108.476 70.7639C108.469 71.3216 108.456 71.8807 108.432 72.4383L108.413 72.8698L108.387 73.3688C108.368 73.7063 108.344 74.0497 108.318 74.396C108.318 74.4122 108.343 74.396 108.356 74.4078H108.406H108.503L108.699 74.4195L109.093 74.443L111.403 74.5413C112.091 74.5677 112.734 74.5883 113.284 74.5971C114.38 74.625 115.115 74.5912 115.121 74.4503Z" fill="#063844"/>
<path d="M121.862 97.4609C118.948 97.4609 116.099 98.325 113.677 99.9438C111.254 101.563 109.366 103.864 108.251 106.556C107.136 109.248 106.844 112.21 107.412 115.068C107.981 117.925 109.384 120.55 111.444 122.611C113.505 124.671 116.13 126.074 118.988 126.643C121.845 127.211 124.808 126.919 127.5 125.804C130.192 124.689 132.492 122.801 134.111 120.378C135.73 117.956 136.594 115.107 136.594 112.193C136.594 108.286 135.042 104.539 132.279 101.776C129.516 99.0131 125.769 97.4609 121.862 97.4609ZM121.862 114.365C121.432 114.365 121.012 114.238 120.655 113.999C120.298 113.761 120.019 113.421 119.855 113.025C119.691 112.628 119.648 112.191 119.731 111.77C119.815 111.348 120.022 110.961 120.326 110.658C120.63 110.354 121.017 110.147 121.438 110.063C121.859 109.979 122.296 110.022 122.693 110.187C123.09 110.351 123.429 110.63 123.668 110.987C123.906 111.344 124.034 111.764 124.034 112.193C124.034 112.769 123.805 113.322 123.397 113.729C122.99 114.137 122.438 114.365 121.862 114.365Z" fill="#BADFD8" stroke="#063844" stroke-miterlimit="10"/>
<path d="M121.862 102.904C120.024 102.904 118.228 103.449 116.701 104.47C115.173 105.49 113.983 106.941 113.279 108.639C112.576 110.336 112.392 112.204 112.751 114.006C113.109 115.808 113.994 117.463 115.293 118.762C116.592 120.061 118.247 120.946 120.049 121.304C121.851 121.663 123.719 121.479 125.417 120.776C127.114 120.073 128.565 118.882 129.586 117.354C130.606 115.827 131.151 114.031 131.151 112.193C131.151 109.73 130.172 107.367 128.43 105.625C126.688 103.883 124.325 102.904 121.862 102.904ZM121.862 114.365C121.432 114.365 121.012 114.238 120.655 113.999C120.298 113.761 120.02 113.422 119.855 113.025C119.691 112.628 119.648 112.191 119.732 111.77C119.815 111.348 120.022 110.961 120.326 110.658C120.63 110.354 121.017 110.147 121.438 110.063C121.859 109.979 122.296 110.023 122.693 110.187C123.09 110.351 123.429 110.63 123.668 110.987C123.906 111.344 124.034 111.764 124.034 112.193C124.034 112.77 123.805 113.322 123.398 113.729C122.99 114.137 122.438 114.365 121.862 114.365Z" fill="#F7F4F2"/>
<path d="M122 114.415C122.159 114.413 122.318 114.393 122.474 114.358C122.616 114.313 122.752 114.252 122.88 114.175C122.915 114.16 122.971 114.129 123.027 114.098C123.078 114.074 123.127 114.046 123.174 114.013L123.282 113.931L123.385 113.843C123.495 113.757 123.458 113.732 123.558 113.636C123.657 113.537 123.748 113.429 123.828 113.313C123.909 113.189 123.975 113.055 124.023 112.914C124.071 112.782 124.108 112.646 124.135 112.508C124.15 112.433 124.161 112.357 124.166 112.28C124.174 112.204 124.174 112.126 124.166 112.05C124.149 111.866 124.109 111.686 124.045 111.513C124.012 111.438 123.985 111.366 123.956 111.287C123.926 111.207 123.894 111.14 123.857 111.064C123.755 110.804 123.611 110.562 123.43 110.349C123.369 110.279 123.303 110.213 123.234 110.151C123.161 110.09 123.085 110.033 123.006 109.981C122.953 109.947 122.899 109.915 122.843 109.882C122.788 109.85 122.726 109.829 122.667 109.806C122.64 109.795 122.612 109.786 122.584 109.78C122.498 109.756 122.412 109.737 122.324 109.724C122.096 109.668 121.854 109.746 121.64 109.787C121.612 109.787 121.584 109.787 121.555 109.787L121.408 109.796C121.336 109.805 121.266 109.824 121.198 109.851C121.128 109.875 121.059 109.903 120.993 109.937C120.835 110.006 120.687 110.096 120.553 110.204C120.488 110.259 120.426 110.32 120.368 110.38C120.309 110.44 120.258 110.507 120.209 110.575C120.117 110.697 120.034 110.827 119.961 110.962C119.922 111.036 119.888 111.112 119.86 111.19C119.829 111.266 119.804 111.345 119.784 111.425L119.751 111.523L119.726 111.623C119.706 111.688 119.689 111.755 119.677 111.822C119.645 111.956 119.627 112.092 119.622 112.229C119.614 112.528 119.672 112.825 119.792 113.099C119.934 113.369 120.128 113.609 120.362 113.805C120.491 113.95 120.641 114.074 120.808 114.173C121.051 114.307 121.321 114.387 121.598 114.408C121.744 114.427 121.865 114.408 121.863 114.36C121.862 114.311 121.749 114.292 121.614 114.28C121.527 114.271 121.442 114.251 121.36 114.22C121.291 114.197 121.224 114.167 121.162 114.129L121.071 114.078L120.981 114.018C120.92 113.981 120.856 113.936 120.783 113.889C120.444 113.679 120.191 113.355 120.071 112.974C120.013 112.866 119.978 112.746 119.967 112.624C119.967 112.477 119.992 112.387 119.995 112.271C119.991 112.205 119.991 112.139 119.995 112.073C119.995 112.007 120.005 111.943 120.01 111.877C120.029 111.624 120.125 111.383 120.284 111.185C120.359 111.1 120.431 111.02 120.51 110.937C120.595 110.851 120.69 110.775 120.793 110.71C120.892 110.638 120.997 110.585 121.097 110.51C121.142 110.478 121.191 110.453 121.244 110.437C121.294 110.414 121.347 110.4 121.391 110.377C121.437 110.353 121.486 110.336 121.537 110.327H121.542C121.584 110.33 121.627 110.33 121.669 110.327L121.796 110.337C121.851 110.341 121.907 110.347 121.961 110.356C122.045 110.367 122.129 110.372 122.214 110.371C122.246 110.371 122.39 110.394 122.424 110.4C122.457 110.406 122.522 110.449 122.582 110.46C122.635 110.475 122.688 110.487 122.742 110.496C122.797 110.508 122.85 110.524 122.902 110.544C122.954 110.572 123.003 110.605 123.049 110.642C123.118 110.699 123.181 110.763 123.238 110.832C123.357 110.977 123.456 111.137 123.532 111.309C123.614 111.476 123.684 111.649 123.743 111.825C123.767 111.907 123.783 111.991 123.79 112.076L123.802 112.204V112.333C123.802 112.414 123.797 112.495 123.784 112.575C123.769 112.655 123.748 112.734 123.721 112.811C123.701 112.903 123.673 112.992 123.639 113.079C123.605 113.149 123.563 113.215 123.523 113.284C123.439 113.433 123.335 113.57 123.213 113.69C123.144 113.755 123.066 113.799 122.995 113.864C122.923 113.928 122.889 114.01 122.817 114.057C122.694 114.126 122.564 114.179 122.428 114.216C122.352 114.235 122.281 114.261 122.217 114.275C122.146 114.294 122.073 114.305 122 114.308C121.938 114.308 121.869 114.332 121.868 114.371C121.866 114.411 121.912 114.42 122 114.415Z" fill="#063844"/>
<path d="M122.436 102.982C123.09 103.027 123.737 103.144 124.365 103.331C124.957 103.493 125.531 103.711 126.081 103.983C126.228 104.05 126.451 104.185 126.675 104.323L126.995 104.533L127.242 104.709C127.365 104.793 127.525 104.922 127.682 105.048C127.839 105.174 127.995 105.314 128.1 105.415C128.306 105.615 128.407 105.709 128.504 105.798C128.64 105.924 128.767 106.059 128.884 106.203C129.251 106.648 129.574 107.128 129.848 107.635C130.139 108.161 130.381 108.713 130.57 109.283C130.748 109.824 130.873 110.38 130.943 110.945C131.015 111.552 131.033 112.164 130.996 112.775C130.954 113.508 130.83 114.233 130.624 114.938C130.436 115.564 130.171 116.164 129.835 116.725C129.275 117.635 128.553 118.436 127.705 119.087C127.166 119.508 126.582 119.87 125.965 120.167C125.764 120.266 125.553 120.352 125.344 120.44C125.136 120.528 124.922 120.603 124.703 120.67C124.605 120.702 124.506 120.738 124.409 120.764C124.107 120.853 123.802 120.931 123.494 120.99C123.093 121.063 122.681 121.119 122.265 121.165C121.851 121.207 121.434 121.217 121.018 121.195C120.911 121.195 120.807 121.169 120.699 121.156C120.519 121.132 120.344 121.094 120.17 121.059C120.036 121.034 119.906 121 119.775 120.972C119.644 120.944 119.514 120.914 119.385 120.878C119.255 120.843 119.117 120.806 118.987 120.762C118.856 120.718 118.723 120.68 118.594 120.629C117.978 120.395 117.388 120.1 116.833 119.748C116.278 119.404 115.761 119.002 115.292 118.548C114.852 118.123 114.459 117.653 114.118 117.145C113.74 116.586 113.424 115.987 113.177 115.359C112.976 114.824 112.833 114.269 112.75 113.704C112.49 111.938 112.731 110.135 113.444 108.5C113.931 107.343 114.65 106.298 115.557 105.43C115.853 105.157 116.17 104.907 116.504 104.683C116.835 104.458 117.178 104.25 117.531 104.061C118.012 103.812 118.511 103.6 119.024 103.427C119.588 103.235 120.171 103.104 120.763 103.036C121.35 102.97 121.856 102.958 121.857 102.904C121.859 102.85 121.353 102.834 120.746 102.904C120.039 102.985 119.34 103.132 118.66 103.344C118.001 103.552 117.372 103.844 116.789 104.213C116.422 104.444 116.071 104.699 115.739 104.978C115.284 105.359 114.869 105.785 114.498 106.249C114.233 106.574 113.986 106.912 113.755 107.263C113.526 107.617 113.325 107.988 113.153 108.374C112.998 108.73 112.864 109.096 112.753 109.468C112.684 109.705 112.638 109.854 112.584 110.067C112.424 110.623 112.322 111.194 112.28 111.771C112.243 112.446 112.285 113.123 112.405 113.789C112.641 115.05 113.104 116.258 113.771 117.353C114.068 117.851 114.417 118.316 114.812 118.74C115.243 119.209 115.717 119.635 116.229 120.013C116.744 120.392 117.302 120.707 117.892 120.952C118.408 121.175 118.941 121.353 119.487 121.484C119.732 121.533 119.976 121.584 120.221 121.621L120.264 121.631C120.465 121.681 120.679 121.708 120.893 121.743C121.107 121.778 121.333 121.793 121.545 121.799C121.828 121.816 122.119 121.815 122.408 121.799C122.697 121.782 122.893 121.766 123.083 121.737C123.272 121.708 123.453 121.675 123.714 121.619C123.799 121.605 124.022 121.543 124.245 121.487C124.468 121.432 124.685 121.357 124.766 121.326C124.898 121.278 125.033 121.236 125.17 121.191C125.306 121.145 125.441 121.09 125.582 121.03C126.071 120.796 126.538 120.52 126.979 120.205C127.096 120.128 127.214 120.058 127.327 119.969C127.44 119.879 127.557 119.807 127.667 119.718C128.018 119.453 128.35 119.165 128.662 118.856C129.332 118.199 129.899 117.447 130.347 116.623C130.772 115.824 131.069 114.963 131.227 114.072C131.38 113.24 131.425 112.392 131.361 111.549C131.297 110.757 131.142 109.975 130.897 109.219C130.748 108.795 130.568 108.382 130.36 107.983C130.277 107.814 130.193 107.646 130.096 107.486C129.999 107.326 129.902 107.163 129.802 107.004C129.703 106.846 129.568 106.668 129.447 106.504C129.327 106.34 129.196 106.188 129.058 106.043C128.794 105.739 128.502 105.465 128.203 105.18C127.882 104.883 127.539 104.612 127.176 104.369C126.84 104.176 126.494 104.002 126.14 103.846C125.576 103.564 124.986 103.337 124.379 103.17C123.745 103.002 123.096 102.903 122.441 102.873C122.173 102.856 121.866 102.873 121.854 102.909C121.843 102.944 122.072 102.963 122.436 102.982Z" fill="#063844"/>
<path d="M141.364 112.96L138.608 112.839C138.608 112.839 138.848 109.364 138.129 107.687L140.166 106.13C140.166 106.13 139.087 102.534 136.81 100.618L134.896 102.655C134.896 102.655 132.255 99.2986 131.182 98.581L132.255 96.3034C132.255 96.3034 127.821 94.2664 126.982 94.0272L126.263 96.3034L122.072 95.8293V92.953L115.481 93.5517L116.68 96.547C116.68 96.547 113.451 97.2661 111.527 99.7755L109.73 97.6183L104.937 102.652L107.094 104.568C107.094 104.568 105.417 109.243 105.535 110.92L102.661 111.159C102.661 111.159 103.019 117.39 103.619 118.708L106.015 117.87C106.015 117.87 107.336 121.584 108.657 123.262L107.219 124.939C107.219 124.939 110.814 128.168 112.612 128.535L113.45 126.257C113.45 126.257 117.164 128.175 119.562 128.535V131.176C119.562 131.176 123.276 131.775 125.074 131.176L124.355 128.42C124.355 128.42 127.23 128.54 129.028 126.982L130.227 129.139L135.259 126.263L133.821 123.507C133.821 123.507 136.217 121.35 137.049 119.433L139.325 120.152C139.325 120.152 141.484 114.157 141.364 112.96ZM121.862 125.123C119.249 125.123 116.696 124.348 114.524 122.897C112.352 121.445 110.659 119.383 109.659 116.969C108.66 114.556 108.398 111.9 108.908 109.338C109.417 106.776 110.675 104.423 112.522 102.576C114.37 100.728 116.723 99.4706 119.285 98.9609C121.847 98.4513 124.503 98.7129 126.916 99.7125C129.329 100.712 131.392 102.405 132.844 104.577C134.295 106.749 135.069 109.303 135.069 111.915C135.069 115.418 133.678 118.777 131.201 121.254C128.724 123.731 125.365 125.123 121.862 125.123Z" fill="#F7F4F2"/>
<path d="M121.862 125.134C121.862 125.04 121.74 124.999 121.517 124.977C121.405 124.964 121.269 124.965 121.11 124.952L120.569 124.912C118.109 124.667 115.774 123.713 113.847 122.166C111.919 120.619 110.482 118.546 109.709 116.198C109.2 114.642 109.001 113 109.122 111.367C109.224 109.847 109.552 108.351 110.095 106.928C110.638 105.535 111.422 104.248 112.411 103.127C112.884 102.595 113.406 102.108 113.969 101.673C114.515 101.251 115.094 100.874 115.701 100.547C116.318 100.223 116.96 99.9505 117.621 99.7312C118.316 99.4983 119.032 99.3298 119.759 99.2279C121.606 98.96 123.489 99.0881 125.283 99.6036C126.186 99.8629 127.06 100.214 127.892 100.653C128.719 101.091 129.5 101.612 130.222 102.207C131.679 103.416 132.8 104.98 133.477 106.747C134.74 110.122 134.712 113.844 133.398 117.199C132.752 118.799 131.782 120.248 130.549 121.455C128.546 123.41 125.94 124.628 123.156 124.912C122.51 124.976 121.865 124.965 121.863 125.109C121.863 125.203 121.988 125.238 122.217 125.256C122.355 125.263 122.494 125.263 122.632 125.256L123.185 125.212C124.281 125.103 125.36 124.872 126.404 124.522C127.438 124.169 128.426 123.694 129.348 123.107C130.271 122.511 131.117 121.8 131.863 120.993C132.614 120.168 133.249 119.244 133.75 118.247C134.572 116.613 135.089 114.842 135.275 113.023C135.459 111.248 135.245 109.454 134.648 107.772C134.31 106.828 133.912 105.906 133.458 105.011C133.017 104.13 132.46 103.312 131.8 102.58C131.399 102.143 130.965 101.738 130.5 101.37C130.268 101.199 130.046 101.018 129.807 100.864L129.453 100.626L129.089 100.406L128.907 100.296L128.721 100.193L128.345 99.9881L127.959 99.7973C127.83 99.7312 127.7 99.6667 127.566 99.6094L127.162 99.4289L126.747 99.2587L126.536 99.1721L126.32 99.0943L125.88 98.9314C124.33 98.4114 122.687 98.2269 121.06 98.3899C119.443 98.5541 117.861 98.971 116.373 99.6256C115.656 99.9328 114.965 100.296 114.305 100.713C113.655 101.129 113.038 101.596 112.462 102.11C111.309 103.131 110.339 104.341 109.595 105.689C108.05 108.451 107.603 111.692 108.341 114.769C108.517 115.478 108.74 116.174 109.008 116.853C109.08 117.023 109.143 117.198 109.222 117.365L109.455 117.871L109.715 118.369C109.8 118.535 109.901 118.693 109.994 118.856C110.38 119.499 110.822 120.106 111.315 120.671C111.801 121.227 112.342 121.734 112.929 122.183C114.894 123.686 117.206 124.669 119.652 125.043C119.798 125.078 119.945 125.102 120.092 125.125C120.239 125.149 120.385 125.175 120.532 125.196C121.201 125.265 121.863 125.271 121.862 125.134Z" fill="#063844"/>
<path d="M141.364 112.971C141.364 112.879 141.135 112.825 140.708 112.795C140.493 112.778 140.232 112.764 139.927 112.75L138.972 112.71C138.9 112.71 138.829 112.705 138.759 112.695C138.768 112.556 138.773 112.415 138.779 112.276V112.029V111.759C138.779 111.398 138.779 111.037 138.766 110.676C138.749 109.952 138.669 109.232 138.527 108.522C138.508 108.432 138.49 108.343 138.464 108.255L138.395 108.01L138.326 107.816L138.307 107.767L138.298 107.743C138.298 107.743 138.311 107.732 138.317 107.726L138.399 107.663L139.193 107.06L140.085 106.384C140.169 106.315 140.266 106.252 140.338 106.18C140.306 106.074 140.273 105.97 140.238 105.866L140.185 105.709L140.132 105.562C140.103 105.477 140.071 105.393 140.038 105.309C139.787 104.638 139.491 103.985 139.152 103.353C138.811 102.719 138.414 102.116 137.965 101.553C137.85 101.406 137.739 101.269 137.613 101.14L137.419 100.933C137.341 100.85 137.259 100.772 137.174 100.697L136.923 100.464L136.86 100.406L136.828 100.377L136.811 100.362C136.811 100.362 136.801 100.349 136.797 100.362L136.679 100.484L136.205 100.966L135.472 101.736L135.156 102.066C135.072 102.153 134.989 102.244 134.907 102.322L134.613 101.955L134.195 101.435C133.901 101.078 133.608 100.724 133.314 100.373C133.013 100.022 132.707 99.6756 132.388 99.3351C132.227 99.1664 132.065 98.9991 131.892 98.8347C131.851 98.7936 131.809 98.7525 131.762 98.7129L131.674 98.6336C131.622 98.5852 131.564 98.5471 131.511 98.5045C131.534 98.4432 131.562 98.3834 131.593 98.3255L131.703 98.1009L131.996 97.5051L132.311 96.8579L132.517 96.4294L132.62 96.2152L132.647 96.1609C132.638 96.1491 132.613 96.1433 132.598 96.1345L132.491 96.0846L129.849 94.8621L128.631 94.3133L128.015 94.0447L127.661 93.898C127.503 93.8334 127.346 93.7776 127.187 93.7219C127.108 93.6925 127.029 93.6646 126.948 93.6382L126.826 93.5971L126.766 93.5766C126.754 93.5854 126.75 93.6133 126.743 93.6294L126.577 94.1019L126.313 94.9076L126.103 95.5445L126.034 95.747L125.988 95.8762L125.773 95.8454L125.266 95.7793L124.222 95.6458L123.172 95.5093L122.688 95.4462L122.519 95.4198V95.3435V95.2378V94.9267V94.2634C122.519 93.647 122.522 93.0331 122.528 92.4216L120.368 92.6227L118.717 92.7826L114.869 93.1701C115.041 93.5854 115.211 93.9992 115.38 94.4145L115.713 95.2099L116.025 95.9569L116.108 96.1433L116.143 96.2225L116.16 96.2636L116.169 96.2841C116.169 96.2841 116.178 96.2988 116.169 96.2988C116.084 96.3233 115.996 96.3526 115.905 96.3869L115.758 96.4382L115.6 96.4984C115.496 96.538 115.39 96.5791 115.287 96.6246C114.46 96.9693 113.677 97.4128 112.955 97.9454C112.598 98.2173 112.26 98.515 111.946 98.8362L111.783 99.0079C111.758 99.0357 111.724 99.071 111.699 99.1047C111.643 99.1737 111.588 99.2515 111.532 99.3116L111.143 98.8567L109.746 97.1911C107.603 99.4481 106.664 100.42 104.504 102.666L105.797 103.832L106.335 104.317L106.578 104.539L106.714 104.665C106.671 104.783 106.641 104.863 106.548 105.132C106.47 105.359 106.393 105.587 106.315 105.817C106.162 106.278 106.015 106.749 105.875 107.229C105.681 107.885 105.497 108.55 105.351 109.238C105.275 109.587 105.217 109.941 105.179 110.296L105.167 110.422V110.556C105.167 110.556 105.15 110.556 105.142 110.556H105.088H104.981L102.807 110.72L102.386 110.755H102.281C102.266 110.755 102.24 110.755 102.234 110.766V110.818L102.245 111.028L102.294 111.853L102.364 112.904C102.468 114.305 102.589 115.711 102.805 117.126C102.835 117.305 102.86 117.481 102.896 117.66L102.95 117.929L102.978 118.062C102.991 118.121 103.016 118.197 103.035 118.263L103.157 118.677C103.199 118.815 103.252 118.947 103.303 119.082L103.34 119.183L103.349 119.208C103.349 119.217 103.349 119.229 103.365 119.222L103.415 119.207L103.616 119.147C103.751 119.104 103.883 119.069 104.024 119.016L105.754 118.429L105.839 118.649L106.087 119.267C106.256 119.676 106.432 120.084 106.617 120.487C106.981 121.301 107.401 122.088 107.875 122.843L107.989 123.015L108.038 123.088L108.06 123.118C108.094 123.158 108.124 123.201 108.149 123.247L107.84 123.615L107.333 124.211L106.943 124.669L106.751 124.896L106.702 124.954C106.702 124.962 106.682 124.973 106.683 124.982L106.711 125.006L106.823 125.106L107.263 125.5L107.625 125.811L108.212 126.296C108.604 126.616 108.998 126.927 109.395 127.228C109.799 127.522 110.201 127.815 110.628 128.091C110.732 128.16 110.839 128.228 110.949 128.291C111.059 128.354 111.166 128.423 111.279 128.483L111.624 128.662L111.667 128.684L111.729 128.709L111.859 128.759L112.122 128.859C112.307 128.928 112.497 128.988 112.688 129.038L112.835 129.08L112.872 129.091C112.881 129.091 112.882 129.072 112.888 129.061L112.917 128.994L113.035 128.722C113.115 128.543 113.181 128.341 113.261 128.148L113.407 127.787L113.67 127.123C113.695 127.07 113.719 127.018 113.741 126.976L113.858 127.049C113.842 127.049 113.977 127.111 114.063 127.155L114.347 127.302C114.725 127.487 115.108 127.667 115.497 127.84C116.287 128.198 117.095 128.514 117.919 128.787C118.134 128.85 118.346 128.92 118.567 128.976L118.9 129.06L118.915 129.067C118.924 129.067 118.915 129.082 118.915 129.086C118.915 129.041 118.915 129.215 118.915 129.311V129.642C118.915 129.862 118.915 130.083 118.915 130.309C118.915 130.436 118.915 130.564 118.915 130.692C118.915 130.915 118.915 131.142 118.915 131.364V131.697V131.738C118.915 131.75 118.94 131.745 118.95 131.75L119.034 131.763L119.194 131.783C119.414 131.817 119.634 131.854 119.85 131.88L120.133 131.918L120.308 131.939L120.66 131.977C121.269 132.039 121.884 132.08 122.509 132.087C123.15 132.103 123.791 132.063 124.426 131.97C124.698 131.905 124.966 131.852 125.241 131.779L125.657 131.66L125.761 131.631L125.812 131.616C125.812 131.603 125.812 131.582 125.804 131.566L125.757 131.358C125.724 131.211 125.696 131.082 125.66 130.941L125.545 130.514L125.399 129.998C125.316 129.704 125.234 129.411 125.153 129.117L125.139 129.064V129.052L125.128 129.027C125.119 129.01 125.112 128.991 125.108 128.972L125.162 128.963C125.23 128.946 125.299 128.938 125.369 128.936C125.695 128.898 126.019 128.844 126.339 128.772C126.987 128.636 127.614 128.415 128.203 128.115C128.35 128.03 128.496 127.959 128.643 127.861L128.696 127.826L128.711 127.815L128.739 127.793C128.757 127.78 128.774 127.766 128.79 127.751L128.841 127.702L128.856 127.691L128.874 127.717L128.95 127.83L128.969 127.859L129.02 127.947L129.138 128.147L129.374 128.548L129.668 129.064L130.04 129.714L135.254 126.605L135.626 126.387L134.101 123.565L134.309 123.375L134.562 123.118C134.748 122.926 134.932 122.732 135.109 122.531C135.466 122.136 135.808 121.728 136.128 121.304L136.364 120.983L136.588 120.651C136.662 120.539 136.735 120.425 136.801 120.312C136.838 120.256 136.869 120.196 136.902 120.137L136.992 119.973C137.039 119.892 137.074 119.803 137.115 119.718L137.146 119.653C137.164 119.653 137.19 119.663 137.211 119.668L137.347 119.709L138.025 119.916L138.803 120.153L139.27 120.3L139.385 120.337L139.415 120.346C139.424 120.346 139.435 120.354 139.435 120.346L139.456 120.287L139.537 120.057L139.83 119.223L140.081 118.475C140.411 117.474 140.734 116.465 141.029 115.435C141.194 114.885 141.328 114.325 141.428 113.759C141.462 113.569 141.475 113.376 141.466 113.183C141.458 113.036 141.418 112.958 141.386 112.964C141.353 112.97 141.312 113.029 141.286 113.133C141.259 113.237 141.227 113.397 141.186 113.601C141.098 114.012 140.963 114.615 140.746 115.362C140.452 116.389 140.124 117.394 139.782 118.392C139.696 118.642 139.609 118.891 139.52 119.139L139.289 119.786L139.239 119.924V119.941C139.239 119.941 139.239 119.954 139.228 119.941L139.193 119.929L139.123 119.907L138.842 119.814L138.116 119.577L137.272 119.31C136.87 119.025 136.832 119.553 136.644 119.809C136.389 120.251 136.099 120.673 135.777 121.071C135.457 121.474 135.115 121.86 134.76 122.236C134.583 122.422 134.401 122.606 134.215 122.788C134.058 122.934 133.775 123.207 133.509 123.446C133.968 124.348 134.428 125.249 134.887 126.151L133.86 126.728L132.603 127.441L131.343 128.162L130.331 128.749C130.121 128.382 129.913 128.015 129.703 127.644C129.533 127.35 129.364 127.046 129.194 126.747L129.127 126.63L129.11 126.6C129.11 126.6 129.094 126.612 129.085 126.616L129.031 126.657L128.813 126.825L128.598 126.991C128.523 127.045 128.451 127.102 128.373 127.149L128.245 127.233C128.21 127.258 128.173 127.281 128.134 127.302L127.904 127.428C127.749 127.513 127.587 127.575 127.427 127.649C127.102 127.779 126.769 127.885 126.429 127.966C126.09 128.048 125.747 128.108 125.401 128.146C125.316 128.157 125.23 128.163 125.145 128.172C125.059 128.181 124.913 128.187 124.798 128.191C124.562 128.201 124.317 128.191 124.079 128.191C124.079 128.191 124.066 128.201 124.066 128.213L124.076 128.254L124.098 128.335L124.141 128.499L124.226 128.826C124.279 129.027 124.33 129.229 124.383 129.428C124.467 129.755 124.551 130.08 124.634 130.403C124.666 130.529 124.698 130.653 124.729 130.78L124.77 130.938L124.779 130.978V130.997C124.779 130.997 124.779 130.997 124.779 131.006H124.769L124.69 131.028L124.53 131.069L124.362 131.098L124.279 131.113L124.164 131.126L123.927 131.152C123.285 131.205 122.64 131.21 121.997 131.167C121.675 131.148 121.354 131.125 121.033 131.092C120.873 131.078 120.713 131.06 120.553 131.041L120.312 131.012L120.112 130.987L119.819 130.941C119.809 130.852 119.819 130.747 119.819 130.648C119.819 130.336 119.819 130.023 119.819 129.71C119.819 129.336 119.819 128.961 119.819 128.586V128.305H119.797H119.754L119.414 128.242C119.302 128.22 119.184 128.203 119.076 128.176L118.843 128.122C117.569 127.781 116.324 127.342 115.117 126.81C114.84 126.693 114.57 126.574 114.307 126.451L114.085 126.346L113.827 126.222L113.324 125.96C113.151 126.418 112.98 126.866 112.815 127.308L112.602 127.853L112.465 128.191C112.458 128.201 112.458 128.226 112.445 128.225L112.401 128.21L112.313 128.182L112.227 128.154L112.15 128.115L111.972 128.035L111.731 127.906C111.411 127.727 111.101 127.531 110.801 127.319C110.196 126.901 109.614 126.439 109.03 125.954C108.736 125.709 108.443 125.461 108.149 125.205L108.039 125.108L107.966 125.042L107.884 124.965C107.86 124.94 107.822 124.915 107.812 124.891L107.888 124.805L108.422 124.188L108.823 123.718L109.091 123.404L109.157 123.326L109.191 123.287C109.191 123.273 109.174 123.259 109.166 123.245L109.046 123.08L108.804 122.749L108.744 122.666L108.698 122.595L108.634 122.497C108.544 122.366 108.462 122.231 108.38 122.093C108.215 121.822 108.061 121.542 107.913 121.26C107.619 120.695 107.344 120.117 107.085 119.533C106.955 119.239 106.831 118.946 106.708 118.652L106.617 118.429L106.498 118.125C106.409 117.893 106.322 117.654 106.236 117.421L103.888 118.256C103.876 118.26 103.864 118.264 103.852 118.266L103.839 118.229L103.814 118.158C103.797 118.11 103.783 118.061 103.773 118.011L103.754 117.936L103.726 117.789C103.707 117.688 103.687 117.585 103.667 117.482C103.597 117.065 103.538 116.636 103.491 116.195C103.356 114.948 103.255 113.721 103.16 112.512L103.098 111.711L103.082 111.521C103.082 111.511 103.082 111.511 103.095 111.511H103.117H103.164L103.258 111.501L104.919 111.338L105.568 111.276L105.737 111.26H105.822H105.864H105.885V110.898V110.554L105.902 110.29C105.913 110.143 105.938 110.005 105.954 109.863C106.037 109.289 106.164 108.711 106.305 108.134C106.445 107.558 106.598 106.981 106.777 106.404C106.862 106.111 106.952 105.826 107.043 105.537C107.09 105.39 107.137 105.243 107.189 105.097L107.389 104.51L106.193 103.456L105.288 102.65L105.581 102.357L107.782 100.095C108.149 99.7196 108.516 99.3454 108.883 98.9726L109.432 98.4135L109.725 98.12L109.904 98.3504L110.023 98.4972L110.201 98.7173C110.463 99.046 110.726 99.3738 110.99 99.7005L111.269 100.044L111.416 100.217L111.486 100.304L111.522 100.348L111.539 100.368C111.546 100.363 111.552 100.357 111.557 100.349L112.132 99.6873C112.178 99.6284 112.227 99.5721 112.279 99.5186L112.387 99.41L112.577 99.2236L112.982 98.8758C113.539 98.4316 114.146 98.0539 114.791 97.7502C115.111 97.5932 115.444 97.4567 115.777 97.3393L116.028 97.2527L116.156 97.2131C116.215 97.194 116.303 97.1647 116.379 97.1441C116.539 97.1001 116.702 97.059 116.866 97.0179L117.371 96.902L116.592 94.8474L116.329 94.1518L116.301 94.0403H116.42L117.186 93.9845L118.833 93.8583L120.484 93.7277L121.31 93.6617L121.411 93.6529C121.411 93.6529 121.411 93.6617 121.411 93.6631C121.411 93.898 121.411 94.1342 121.411 94.3705C121.411 95.0475 121.411 95.7255 121.411 96.4045L124.091 96.698L126.716 97.0032C126.856 96.5444 126.997 96.0826 127.139 95.6179L127.271 95.1776L127.337 94.9546L127.355 94.8988V94.8856V94.8753C127.355 94.8592 127.355 94.8401 127.362 94.8196L127.413 94.8284C127.368 94.8078 127.619 94.9047 127.766 94.9648L128.263 95.1674C128.928 95.4447 129.597 95.7353 130.269 96.0317L131.277 96.4808L131.424 96.5498L131.467 96.5674C131.482 96.5728 131.496 96.5796 131.509 96.5879L131.489 96.6305C131.159 97.3398 130.827 98.0496 130.494 98.7598L131.001 99.1414C131.044 99.1719 131.085 99.2047 131.123 99.2397L131.222 99.3234C131.261 99.3571 131.301 99.3938 131.34 99.432C131.5 99.5787 131.657 99.7358 131.815 99.8928C132.127 100.216 132.434 100.549 132.738 100.886C133.041 101.224 133.339 101.569 133.636 101.914L134.111 102.474C134.358 102.776 134.606 103.077 134.845 103.38L135.397 102.776L135.85 102.276L136.478 101.563L136.625 101.403C136.632 101.395 136.639 101.387 136.646 101.378L136.659 101.36L136.687 101.327L136.804 101.18C136.804 101.18 136.813 101.164 136.819 101.165L136.836 101.178L136.87 101.205L136.942 101.261C136.966 101.281 136.992 101.299 137.015 101.321L137.056 101.357L137.125 101.426C137.322 101.611 137.498 101.82 137.679 102.025C137.859 102.231 138.024 102.451 138.178 102.68C138.497 103.131 138.786 103.603 139.042 104.093C139.304 104.586 139.539 105.093 139.748 105.612L139.87 105.929C139.887 105.974 139.906 106.023 139.92 106.075L139.805 106.169L139.195 106.657L138.518 107.192L138.125 107.502L138.021 107.584L137.968 107.625L137.941 107.646C137.93 107.646 137.941 107.665 137.941 107.675L138.037 107.926C138.068 108.01 138.101 108.093 138.123 108.178L138.184 108.381C138.223 108.517 138.25 108.66 138.283 108.799C138.317 108.939 138.333 109.082 138.358 109.226C138.383 109.37 138.396 109.52 138.417 109.666C138.48 110.255 138.514 110.846 138.518 111.438C138.518 111.674 138.508 111.909 138.498 112.145L138.477 112.557L138.446 112.998C138.545 113.014 138.665 113.014 138.773 113.023L139.773 113.065C140.066 113.077 140.336 113.084 140.568 113.087C141.05 113.061 141.361 113.042 141.364 112.971Z" fill="#063844"/>
</svg>
