<svg width="165" height="164" viewBox="0 0 165 164" fill="none" xmlns="http://www.w3.org/2000/svg">
<path d="M88.9805 62.8407C88.1997 60.9476 84.8582 59.7223 86.8085 53.7626C89.4251 44.0154 103.483 40.7017 108.474 46.5718C114.768 53.9798 109.81 92.0195 109.81 92.0195C117.223 95.4447 125.815 94.7168 132.98 90.684C134.317 80.7695 133.652 62.8921 133.537 57.7118C133.426 52.6987 132.868 38.6633 125.906 31.5899C119.754 25.3397 109.664 21.6562 100.398 21.4522C92.1885 21.279 75.1667 27.5292 69.1674 47.2747C67.6515 52.2643 66.4848 57.4006 66.341 62.6177C66.1972 67.8347 67.1173 75.03 69.9878 79.3826C69.9878 79.3826 79.0659 90.9555 80.6801 90.5153C82.2944 90.075 83.4684 86.9932 79.5061 83.4712C75.5438 79.9491 84.3489 65.2739 84.3489 65.2739L88.9805 62.8407Z" fill="#BADFD8"/>
<path d="M88.9584 62.8496C88.9819 62.8377 89.0013 62.819 89.0141 62.796C89.0269 62.773 89.0326 62.7467 89.0303 62.7205C89.0342 62.6248 89.0182 62.5293 88.9833 62.4402C88.855 62.1151 88.6768 61.8121 88.455 61.542C88.1894 61.1869 87.8416 60.7877 87.5011 60.2946C87.1097 59.7459 86.8245 59.1287 86.6603 58.4749C86.4857 57.7172 86.4494 56.9342 86.5531 56.1636C86.6553 55.3796 86.8338 54.6074 87.0858 53.8581L87.2634 53.2887L87.3529 53.004C87.3837 52.9101 87.4248 52.8205 87.46 52.7281L87.6802 52.1792C87.7594 52.0002 87.8519 51.8256 87.937 51.648L88.0676 51.3838C88.1116 51.2958 88.1659 51.2136 88.2144 51.127L88.5079 50.6193C88.615 50.4534 88.7309 50.2935 88.841 50.132L89.0098 49.8884C89.067 49.8092 89.1316 49.7343 89.1917 49.6566L89.5615 49.1958L89.9592 48.7555L90.1603 48.5383L90.3731 48.3329L90.8001 47.9264L91.2521 47.5448C91.3284 47.4817 91.3989 47.4171 91.4796 47.3555L91.7173 47.1794C91.8758 47.0635 92.0314 46.9431 92.1928 46.8287L92.6874 46.5043C92.8488 46.3928 93.0205 46.2959 93.1922 46.1976C93.3639 46.0993 93.5312 45.9966 93.7058 45.9041C94.0595 45.7295 94.4044 45.5387 94.7698 45.389C95.4889 45.0678 96.2311 44.801 96.9901 44.5907L97.561 44.4439C97.7518 44.394 97.9455 44.3618 98.1377 44.3207C98.5222 44.2311 98.9126 44.1901 99.3 44.1269C100.079 44.0359 100.864 44.005 101.648 44.0345C102.426 44.0697 103.198 44.1788 103.955 44.3603C104.703 44.5479 105.426 44.8243 106.108 45.1836C106.779 45.5442 107.387 46.0111 107.908 46.566C108.041 46.6992 108.164 46.8409 108.278 46.9901C108.334 47.0649 108.393 47.1368 108.446 47.2131L108.592 47.4494C108.699 47.6035 108.782 47.7796 108.876 47.9425C108.97 48.1054 109.043 48.2888 109.127 48.4605C109.437 49.1757 109.689 49.9148 109.881 50.6706C110.08 51.4308 110.239 52.2042 110.372 52.9834C110.893 56.1107 111.045 59.3099 111.087 62.5077C111.13 65.7054 111.02 68.9193 110.842 72.1346C110.664 75.3499 110.402 78.5712 110.088 81.7997C109.931 83.414 109.758 85.0282 109.568 86.6425L109.275 89.0698L108.905 91.8904C108.873 92.1266 108.84 92.3629 108.808 92.5963L110.515 93.33C110.876 93.5002 111.249 93.6235 111.63 93.7585C112.373 94.052 113.143 94.2384 113.905 94.4541C115.437 94.8172 116.999 95.0411 118.572 95.1233C120.126 95.184 121.683 95.1104 123.225 94.9032C124.747 94.6821 126.249 94.3386 127.716 93.8759C129.162 93.4004 130.571 92.8187 131.932 92.1355L133.04 91.5338L133.423 91.3269L133.614 91.2226L133.662 91.1962L133.686 91.1845H133.697V91.1698L133.709 91.0612L133.8 90.1969L133.917 89.0493C133.957 88.6794 133.973 88.3155 134.002 87.9427C134.218 84.993 134.296 82.0639 134.34 79.1376C134.384 76.2114 134.374 73.4275 134.349 70.6744C134.324 67.9213 134.278 65.2123 134.224 62.49C134.198 61.1311 134.17 59.7649 134.142 58.3913C134.121 57.0191 134.093 55.6147 134.017 54.2C133.879 51.2591 133.541 48.331 133.006 45.436C132.828 44.532 132.639 43.6265 132.406 42.7255C132.352 42.4995 132.291 42.2749 132.228 42.0504L132.042 41.3753C131.904 40.9351 131.776 40.4787 131.622 40.034C131.036 38.2232 130.269 36.476 129.333 34.8185C128.85 33.9782 128.311 33.1717 127.719 32.4044C127.114 31.6389 126.449 30.9225 125.732 30.2618C124.327 28.9362 122.8 27.7466 121.17 26.7089C119.537 25.6858 117.83 24.7852 116.064 24.0146L114.73 23.4628C114.28 23.2911 113.827 23.1326 113.376 22.9668C112.926 22.8009 112.465 22.6615 112.007 22.5162L111.32 22.3064C111.093 22.2315 110.858 22.1802 110.626 22.1156C108.781 21.6046 106.902 21.2269 105.003 20.9856C104.058 20.8477 103.105 20.7845 102.157 20.7097L100.731 20.6598C100.612 20.6598 100.495 20.6495 100.373 20.6495H100.007C99.7637 20.6495 99.5201 20.6495 99.2736 20.673C98.2541 20.7286 97.2393 20.8511 96.2358 21.0399L95.8645 21.1059L95.4977 21.1822L94.7639 21.3407C94.2826 21.464 93.7997 21.5697 93.3301 21.712C91.4683 22.2363 89.6523 22.9117 87.9003 23.7313C84.473 25.323 81.3064 27.4243 78.5082 29.9639C77.1062 31.2354 75.8063 32.6152 74.6207 34.0906C73.4184 35.5962 72.3332 37.1916 71.3745 38.8629L71.015 39.5013C70.8961 39.7156 70.7714 39.9269 70.6657 40.1485C70.4456 40.5868 70.2245 41.0271 70.0024 41.4693C69.5974 42.3718 69.1791 43.2787 68.8284 44.2238L68.5554 44.9297C68.4659 45.166 68.3911 45.4081 68.3089 45.6488C68.1504 46.1286 67.9787 46.6173 67.8305 47.1001C67.537 48.0643 67.2537 49.0475 66.9867 50.0499C66.5464 51.7082 66.1634 53.3958 65.8625 55.1099C65.5537 56.8349 65.3396 58.5755 65.2212 60.324C65.1046 62.088 65.1046 63.8577 65.2212 65.6217C65.3349 67.3877 65.5618 69.1445 65.9007 70.8813C66.2319 72.6312 66.7121 74.3496 67.3359 76.0177C67.6587 76.8593 68.0361 77.679 68.4659 78.4714C68.5789 78.668 68.6758 78.872 68.8005 79.0584L69.1689 79.6366L69.2643 79.7833C69.3047 79.8485 69.3504 79.9103 69.4007 79.9682L69.6077 80.2177L70.0244 80.7152C71.1339 82.0389 72.259 83.344 73.3997 84.6305C74.5429 85.9146 75.7008 87.1826 76.9218 88.4006C77.4193 88.8966 77.9256 89.3839 78.4656 89.8491C78.7371 90.0809 79.0145 90.3084 79.3212 90.5227L79.4386 90.6019L79.5707 90.687C79.6753 90.7516 79.781 90.8103 79.8876 90.8631C80.0962 90.9762 80.3273 91.0413 80.5642 91.0539C80.6227 91.0542 80.6811 91.0493 80.7388 91.0392L80.909 90.9922C81.0215 90.9566 81.1305 90.911 81.2348 90.8558C81.4479 90.7457 81.6429 90.6037 81.813 90.4346C82.1096 90.1361 82.3366 89.7758 82.4778 89.3794C82.7276 88.6333 82.745 87.8288 82.5277 87.0725C82.3277 86.3653 82.007 85.6981 81.5797 85.1002C81.1682 84.5233 80.6997 83.9894 80.1811 83.5064L79.7864 83.163L79.6396 83.0163L79.4929 82.8548C79.3156 82.621 79.1787 82.3591 79.0878 82.08C78.9058 81.4769 78.8303 80.8467 78.8648 80.2177C78.8931 79.563 78.9746 78.9118 79.1084 78.2703C79.2361 77.6217 79.4019 76.9774 79.5971 76.3376C79.992 75.0544 80.4559 73.7934 80.9868 72.5602C81.5137 71.3172 82.0933 70.0918 82.7082 68.8767C83.0164 68.2711 83.3344 67.6675 83.6621 67.0658C83.8265 66.7664 83.9928 66.4675 84.1611 66.1691L84.4135 65.7289C84.4883 65.6203 84.525 65.4691 84.6674 65.4354L86.2816 64.5886C86.807 64.3098 87.2942 64.0471 87.7066 63.8123C88.5328 63.3441 89.0611 62.9905 88.9951 62.8672C88.9085 62.7028 88.4492 62.8555 87.6611 63.2326C87.2678 63.4219 86.7923 63.6729 86.2405 63.9561L84.3225 64.9658L84.2154 65.023C84.1816 65.0435 84.1376 65.0538 84.1244 65.0964L84.0011 65.3048L83.7839 65.679L83.3906 66.3731C83.1314 66.8368 82.877 67.303 82.6275 67.7717C82.1305 68.7079 81.6536 69.652 81.1967 70.604C80.2675 72.5007 79.4778 74.4625 78.834 76.4741C78.5109 77.4895 78.2815 78.5324 78.1486 79.5896C78.0819 80.1319 78.0682 80.6794 78.1075 81.2244C78.1299 81.5046 78.173 81.7827 78.2367 82.0565C78.3066 82.3392 78.4049 82.614 78.5302 82.8769C78.666 83.1457 78.8367 83.3954 79.0379 83.6194L79.1994 83.7809L79.3461 83.9144C79.4356 84.001 79.531 84.0846 79.6176 84.1741C79.9718 84.5216 80.2986 84.896 80.595 85.2939C81.182 86.079 81.6223 86.9756 81.6883 87.8811C81.7312 88.3151 81.6614 88.7528 81.4858 89.152C81.4024 89.3367 81.2883 89.5059 81.1482 89.6524C81.0378 89.7665 80.9049 89.8564 80.7579 89.9166C80.6847 89.9544 80.6019 89.9693 80.5201 89.9591C80.4429 89.9434 80.3686 89.9157 80.3 89.8769C80.2303 89.8396 80.1627 89.7985 80.0975 89.7537C80.0021 89.6891 79.9067 89.6187 79.804 89.5438C79.4125 89.2321 79.0373 88.9005 78.6799 88.5503C77.9461 87.8415 77.2446 87.0828 76.5505 86.3197C75.8564 85.5566 75.1754 84.7685 74.496 83.9716C73.1458 82.3867 71.8138 80.7724 70.4999 79.1288L70.4529 79.0701C70.4386 79.0508 70.4253 79.0308 70.4133 79.0099L70.315 78.85L70.1154 78.5257C70.0508 78.4171 69.9789 78.3129 69.9202 78.1999L69.7412 77.8609C69.4902 77.4206 69.2892 76.9407 69.072 76.4741C68.6739 75.5116 68.3309 74.5273 68.0447 73.5258C67.568 71.811 67.2279 70.0612 67.0278 68.2926C66.8241 66.5747 66.7363 64.845 66.7651 63.1152C66.8194 59.7018 67.3521 56.3852 68.099 53.1537C68.4777 51.5394 68.9165 49.9398 69.3905 48.3505C69.5152 47.9542 69.6253 47.5521 69.7603 47.1632L70.1492 45.9892C70.271 45.5945 70.4324 45.2144 70.5748 44.827L70.7949 44.2487L70.9049 43.9552L71.0253 43.6705C71.1896 43.2905 71.3525 42.9089 71.5154 42.5288C71.5947 42.3366 71.6857 42.1502 71.7752 41.9624L72.0452 41.4003L72.3152 40.8382C72.4047 40.6489 72.5089 40.4684 72.6087 40.2835C72.8068 39.9166 72.9991 39.5497 73.1957 39.177C74.0333 37.7029 74.9605 36.2816 75.9723 34.9212C77.1456 33.356 78.4725 31.9121 79.9331 30.6111C81.282 29.4071 82.7335 28.3234 84.2711 27.3723C85.7762 26.4408 87.35 25.6255 88.9789 24.9332C90.6702 24.2135 92.4113 23.6171 94.1886 23.1487C95.2465 22.8758 96.3184 22.6603 97.3996 22.503C98.4381 22.3486 99.4873 22.2785 100.537 22.2932C104.768 22.3661 108.961 23.109 112.96 24.4944C115.079 25.231 117.119 26.1784 119.048 27.3224L120.04 27.9343C120.208 28.0312 120.365 28.1427 120.525 28.2513L121 28.5771C121.646 28.9939 122.234 29.4752 122.843 29.9243C123.137 30.1591 123.42 30.41 123.708 30.6492L124.138 31.0117C124.285 31.135 124.409 31.2671 124.546 31.3947L125.354 32.1608L125.727 32.5585C125.852 32.6905 125.978 32.8226 126.091 32.965C127.037 34.0756 127.86 35.2844 128.548 36.5707C129.237 37.8675 129.829 39.2134 130.319 40.5976C130.818 41.9946 131.237 43.4189 131.574 44.8636C131.916 46.3165 132.196 47.7943 132.413 49.297C132.63 50.7998 132.792 52.325 132.899 53.8728C133.009 55.4239 133.046 56.9912 133.074 58.6011C133.167 63.4439 133.206 68.1958 133.122 72.8992C133.038 77.6026 132.853 82.2561 132.41 86.8406C132.349 87.412 132.286 87.9824 132.224 88.5518C132.19 88.835 132.148 89.1168 132.109 89.4L132.052 89.8241V89.8725V89.8857V89.9107L132.03 89.9591L132.02 90.0061C132.02 90.0061 132.02 90.0222 132.02 90.0266L131.996 90.0369L131.905 90.0751C131.919 90.0648 131.738 90.1572 131.625 90.213L131.245 90.3994C130.994 90.5212 130.734 90.6254 130.48 90.7384C130.227 90.8514 129.971 90.9673 129.713 91.0686C127.65 91.8933 125.491 92.4572 123.288 92.7474L122.877 92.8032C122.741 92.8208 122.601 92.8267 122.465 92.8399L121.639 92.9059C121.364 92.9353 121.087 92.9264 120.811 92.9367L119.983 92.9558L119.157 92.925C118.883 92.9118 118.605 92.9162 118.332 92.881L117.509 92.8032C117.373 92.787 117.235 92.7812 117.098 92.7591L116.69 92.6946L115.874 92.5684C115.603 92.5214 115.336 92.4524 115.066 92.3967L114.662 92.3086C114.527 92.2793 114.392 92.2528 114.26 92.2118L113.465 91.9843L113.067 91.8728C112.936 91.8302 112.807 91.7818 112.676 91.7363L111.896 91.4604L111.701 91.3929L111.51 91.3122L111.32 91.23L111.241 91.1962H111.252L111.328 90.552C111.388 90.0031 111.449 89.4548 111.51 88.9069C111.627 87.8082 111.735 86.7061 111.834 85.6006C112.03 83.3876 112.19 81.1584 112.315 78.9131C112.462 76.2466 112.593 73.5243 112.678 70.7654C112.763 68.0065 112.795 65.2123 112.722 62.4005C112.685 60.9946 112.619 59.5844 112.509 58.1741C112.399 56.7638 112.252 55.3535 112.023 53.9461C111.915 53.2432 111.777 52.5417 111.624 51.8417C111.472 51.1417 111.279 50.4461 111.056 49.7564C110.83 49.0556 110.55 48.3732 110.22 47.715C110.135 47.5477 110.05 47.3819 109.948 47.219C109.847 47.0561 109.756 46.8932 109.64 46.7347L109.474 46.497C109.419 46.4177 109.351 46.3429 109.289 46.2666L109.102 46.0391L108.899 45.8366C108.004 44.9305 106.918 44.2356 105.72 43.8026C104.571 43.389 103.365 43.1549 102.144 43.1085C99.7548 43.0265 97.3766 43.4704 95.1777 44.4087C92.955 45.3217 90.9682 46.7266 89.3664 48.5178C88.5594 49.4329 87.8851 50.457 87.3632 51.5599C87.3001 51.6994 87.2267 51.8344 87.1695 51.9782L87.0037 52.4082C86.9494 52.5549 86.8877 52.7017 86.8393 52.8484L86.7072 53.2887C86.6192 53.5822 86.5311 53.8757 86.4416 54.1692C86.3521 54.4627 86.2802 54.7679 86.2171 55.0747C85.9441 56.2135 85.8282 57.4315 86.0967 58.6246C86.2536 59.2592 86.516 59.863 86.873 60.4106C87.1826 60.8699 87.526 61.3055 87.9003 61.7137C88.2158 62.0659 88.4624 62.3536 88.6341 62.559C88.8058 62.7645 88.885 62.8775 88.9584 62.8496Z" fill="#063844"/>
<path d="M32.3927 83.7823C33.3951 83.4492 52.8881 81.11 52.8881 81.11C52.8881 81.11 48.6147 121.63 62.9098 121.879C82.0698 122.214 73.1018 96.538 73.1018 96.538C73.1018 96.538 67.421 85.9557 69.3141 79.3827C69.3141 79.3827 77.1683 91.1346 81.6237 90.2424C86.0791 89.3501 76.276 80.8855 76.276 80.8855C76.276 80.8855 79.2536 74.5751 78.7268 64.1762C78.2865 55.3711 82.5145 60.9477 82.7375 68.7432C82.7375 68.7432 81.9583 60.167 84.5191 60.7232C85.3116 60.8949 86.4019 67.4151 86.5252 67.6293C86.9655 68.391 86.1906 64.0647 86.6367 62.8393C87.077 61.5024 88.838 60.3445 89.9783 66.5155C91.0716 70.5086 90.8133 80.4951 90.8133 80.4951C90.8133 80.4951 89.4925 67.1406 93.041 70.0243C97.219 73.4216 90.0898 87.9031 93.2083 105.503C96.3268 123.103 88.524 144.282 65.0319 144.379C54.3116 144.423 41.079 139.666 36.4035 128.116C29.3227 110.625 32.3927 83.7823 32.3927 83.7823Z" fill="white"/>
<path d="M32.3854 83.7604C32.4162 83.8484 32.5791 83.8792 32.8536 83.8719C33.128 83.8646 33.5624 83.8279 34.1083 83.7677C35.1957 83.6386 36.7718 83.4126 38.7369 83.1572C41.1221 82.849 43.5004 82.5506 45.872 82.262L49.416 81.8306L51.1697 81.6207L51.8859 81.5356L52.2249 81.496L52.3936 81.4754L52.4787 81.4652H52.5213H52.5418H52.5521C52.5521 81.4652 52.5521 81.4725 52.5521 81.4754C52.4391 82.5614 52.2982 84.4105 52.2043 85.9939C52.1065 87.6258 52.037 89.2572 51.9959 90.8881C51.9123 94.1504 51.9358 97.4127 52.1207 100.671C52.2175 102.3 52.3481 103.927 52.5462 105.549C52.7444 107.17 52.9865 108.789 53.3402 110.391C53.4209 110.792 53.5221 111.191 53.6146 111.59C53.7071 111.99 53.8156 112.387 53.9345 112.782C54.1576 113.575 54.4188 114.36 54.7167 115.13C55.0119 115.909 55.36 116.666 55.7586 117.397C56.1587 118.141 56.6295 118.844 57.1645 119.497C57.7109 120.166 58.3539 120.75 59.0723 121.229C59.8047 121.713 60.6201 122.057 61.4776 122.245C61.6918 122.289 61.9105 122.318 62.1262 122.355C62.342 122.391 62.5665 122.388 62.7793 122.406C62.8893 122.416 62.9935 122.416 63.0977 122.416H63.4103C63.6187 122.416 63.8286 122.416 64.0384 122.408L64.6665 122.383L65.2946 122.328C65.5045 122.315 65.7128 122.28 65.9227 122.252L66.2368 122.209C66.341 122.193 66.4451 122.17 66.5493 122.152C68.2548 121.872 69.8722 121.2 71.2748 120.19C72.6865 119.163 73.7695 117.713 74.4813 116.146C75.1712 114.578 75.6085 112.911 75.7771 111.206C75.9514 109.527 75.9725 107.836 75.8402 106.153C75.7141 104.478 75.4867 102.812 75.1593 101.164C74.9979 100.34 74.8144 99.5201 74.609 98.7041C74.5062 98.2962 74.3976 97.8887 74.2832 97.4817L74.1056 96.8727L74.0132 96.5674L73.9647 96.4207L73.8913 96.2035L73.7343 95.8924L73.6081 95.6355L73.3601 95.1146C73.1972 94.7638 73.0373 94.4072 72.8802 94.0477C72.5676 93.3286 72.2712 92.5948 71.9924 91.8552C71.1954 89.7921 70.5897 87.6601 70.1829 85.4862C70.1374 85.2191 70.0993 84.952 70.0582 84.6849C70.0171 84.4178 69.9892 84.1522 69.9687 83.8866C69.9481 83.6209 69.9188 83.3553 69.9129 83.0912L69.9041 82.8989V82.7815C69.9042 82.623 69.9145 82.4647 69.9349 82.3075C69.9496 82.2283 69.9569 82.1475 69.9775 82.0683L70.0054 81.9494C70.0259 81.9744 70.0494 82.0096 70.0714 82.0404C70.1697 82.1784 70.2739 82.3163 70.3825 82.4572L71.0165 83.2599C71.7928 84.23 72.597 85.1765 73.4423 86.0878C74.2881 87.0098 75.1904 87.8783 76.144 88.6883C76.6306 89.1007 77.1412 89.4839 77.6732 89.8359C78.2251 90.2063 78.8155 90.5158 79.4342 90.759C79.7666 90.8855 80.1107 90.9789 80.4614 91.0378C80.84 91.1018 81.2262 91.1063 81.6061 91.051C81.7049 91.0362 81.8029 91.0161 81.8996 90.9908L82.0464 90.9512L82.2166 90.8925C82.4399 90.8144 82.6494 90.7015 82.8374 90.5579C83.0237 90.4177 83.18 90.2415 83.2972 90.0399C83.4144 89.8383 83.4901 89.6152 83.5198 89.3839C83.5489 89.151 83.5434 88.9152 83.5036 88.6839C83.5036 88.6237 83.4831 88.5724 83.4713 88.5151C83.4596 88.4579 83.4464 88.4007 83.4332 88.3596C83.4068 88.27 83.3804 88.1776 83.3481 88.0939C83.2289 87.7705 83.0816 87.4582 82.9078 87.1606C82.5858 86.6107 82.2227 86.0858 81.8218 85.5904C81.0507 84.637 80.2245 83.7295 79.3476 82.8725C78.9161 82.4459 78.4759 82.0277 78.0268 81.6178L77.7128 81.3008L77.3899 81.0073C77.2784 80.9046 77.1493 80.8048 77.0436 80.7006C77.092 80.5876 77.136 80.4702 77.1801 80.3513L77.2784 80.0827C77.3209 79.9668 77.3606 79.8494 77.3987 79.732C77.5587 79.2653 77.701 78.7957 77.839 78.3232C78.1842 77.1022 78.4649 75.8638 78.6799 74.6133L78.7635 74.1525L78.8325 73.6902C78.8765 73.382 78.9215 73.0748 78.9675 72.7686L79.0732 71.8485C79.1069 71.5418 79.148 71.2365 79.1671 70.9298C79.1862 70.6231 79.2155 70.3193 79.239 70.0141C79.2493 69.8673 79.264 69.7103 79.2728 69.5577L79.2918 69.1013C79.3153 68.4937 79.3549 67.8876 79.3476 67.2816C79.3403 66.6755 79.3667 66.0738 79.3373 65.4721C79.3275 65.1717 79.3182 64.8714 79.3094 64.571L79.2948 64.1205L79.2772 63.6803C79.2684 63.3867 79.261 63.1006 79.2654 62.8144C79.2654 62.6677 79.2654 62.5209 79.2742 62.3844C79.283 62.248 79.2874 62.0762 79.2948 62.0058C79.3054 61.8336 79.3254 61.6621 79.3549 61.4922C79.3831 61.3247 79.4324 61.1615 79.5017 61.0064C79.5367 60.9286 79.5865 60.8583 79.6484 60.7995C79.6795 60.7707 79.7165 60.749 79.7567 60.7358C79.797 60.7226 79.8397 60.7183 79.8818 60.7232C80.047 60.7681 80.1913 60.8693 80.2897 61.0094C80.3962 61.1417 80.4901 61.2837 80.57 61.4335C80.6111 61.5069 80.6493 61.5802 80.686 61.658L80.7388 61.7725L80.8166 61.95C81.2522 63.0147 81.5739 64.1225 81.7763 65.2549C81.9901 66.4125 82.1099 67.5854 82.1344 68.7623L83.3569 68.6889C83.2438 67.2523 83.235 65.8094 83.3305 64.3715C83.3583 64.0104 83.3965 63.6524 83.4523 63.3016C83.4669 63.215 83.4801 63.1241 83.4963 63.0404L83.5256 62.8937C83.5462 62.7958 83.5711 62.7034 83.6005 62.6163C83.6516 62.433 83.7389 62.2619 83.8573 62.1129C83.919 62.041 83.9992 61.9872 84.0892 61.9574C84.1809 61.9287 84.2797 61.9318 84.3695 61.9662C84.4364 62.0258 84.487 62.1016 84.5162 62.1863C84.5533 62.2687 84.5861 62.353 84.6145 62.4387C84.6718 62.609 84.7202 62.7821 84.7613 62.9538L84.8846 63.4454L85.0122 63.9796C85.0944 64.3392 85.1722 64.7002 85.25 65.0671C85.3776 65.6746 85.4965 66.2851 85.6183 66.9044L85.7122 67.3725L85.7651 67.6191C85.7753 67.6631 85.7856 67.7042 85.8018 67.7658L85.8194 67.8231L85.8326 67.8627L85.8517 67.9111C85.8605 67.9302 85.8693 67.9478 85.8795 67.9669L85.8957 67.9977L85.9045 68.0109L85.9221 68.0403C85.9309 68.0549 85.95 68.0843 85.9691 68.1092L86.0028 68.1533C86.0204 68.1738 86.0395 68.1929 86.0586 68.2134L86.0923 68.2457C86.1129 68.264 86.1345 68.2811 86.1569 68.2971C86.218 68.3425 86.2859 68.3782 86.358 68.4027C86.4136 68.4219 86.4712 68.4347 86.5297 68.4409C86.5663 68.4441 86.6031 68.4441 86.6397 68.4409C86.6828 68.4394 86.7255 68.4335 86.7674 68.4233C86.8093 68.4142 86.8505 68.4019 86.8907 68.3866L86.9464 68.3616L86.986 68.3396C87.0391 68.3099 87.0883 68.274 87.1328 68.2325C87.1544 68.2124 87.1745 68.1909 87.193 68.1679C87.2047 68.1559 87.215 68.1426 87.2238 68.1283C87.2408 68.1058 87.2565 68.0822 87.2707 68.0579C87.284 68.0344 87.2986 68.005 87.3089 67.9845L87.325 67.9449C87.3353 67.9185 87.3441 67.8891 87.3515 67.8642L87.3647 67.8143C87.3735 67.7776 87.3764 67.7556 87.3808 67.7321C87.3852 67.7086 87.3808 67.6866 87.3896 67.6704V67.6176C87.3984 67.4914 87.3984 67.4004 87.3896 67.3094C87.3896 67.1304 87.3779 66.966 87.3691 66.8031C87.3309 66.156 87.281 65.5323 87.2561 64.9115C87.2443 64.6019 87.237 64.2951 87.2443 63.9972L87.2517 63.7771V63.6729V63.6201C87.2581 63.552 87.2689 63.4843 87.284 63.4176C87.3252 63.2361 87.4292 63.075 87.5775 62.9626C87.6144 62.9358 87.657 62.9176 87.702 62.9095C87.7469 62.9013 87.7932 62.9035 87.8372 62.9157C87.9244 62.9424 88.0023 62.9933 88.0617 63.0624C88.121 63.1315 88.1727 63.2068 88.2158 63.287C88.2364 63.328 88.2584 63.3662 88.276 63.4073L88.3054 63.4689L88.3538 63.5878C88.5067 63.9667 88.637 64.3543 88.7441 64.7486C88.8527 65.1536 88.9511 65.5675 89.0376 65.9872C89.0817 66.1956 89.1198 66.4142 89.1609 66.6285L89.3077 67.2948C89.4804 68.1403 89.6063 68.9947 89.6848 69.8541C89.8477 71.5917 89.9196 73.3615 89.9548 75.1372C89.9901 76.9129 89.9827 78.7003 89.9416 80.4731L91.6909 80.41C91.5911 79.3035 91.5251 78.1662 91.4884 77.045C91.4517 75.9238 91.4502 74.7967 91.5134 73.6946C91.5456 73.1458 91.5955 72.5999 91.6792 72.0803C91.7217 71.8206 91.7716 71.5652 91.8347 71.329C91.8509 71.2688 91.8656 71.2101 91.8846 71.1543L91.9111 71.0692L91.9257 71.0252C91.9423 70.978 91.9619 70.9319 91.9844 70.8873C92.0229 70.7988 92.0901 70.7259 92.1752 70.6803C92.2201 70.6639 92.2683 70.658 92.3158 70.6631C92.3634 70.6682 92.4092 70.6841 92.4496 70.7097C92.492 70.7325 92.5323 70.759 92.57 70.7889C92.6156 70.8251 92.6579 70.8654 92.6962 70.9093L92.7373 70.9533L92.7828 71.012C92.8159 71.0504 92.8463 71.0911 92.8737 71.1338C92.9002 71.1778 92.931 71.2174 92.9574 71.2644L93.0352 71.4038C93.134 71.6089 93.2155 71.822 93.2788 72.0407C93.3432 72.282 93.3922 72.527 93.4255 72.7745C93.4972 73.2977 93.5305 73.8255 93.5253 74.3535C93.5082 75.4612 93.4342 76.5672 93.3037 77.6672C93.0557 79.9008 92.7167 82.1505 92.4511 84.4031C92.1459 86.8979 91.892 89.3663 91.7496 91.7994C91.6008 94.2013 91.5748 96.6093 91.6718 99.0138C91.7217 100.202 91.8078 101.384 91.9301 102.559C91.9918 103.146 92.0607 103.733 92.1415 104.32C92.1811 104.614 92.2222 104.907 92.2677 105.201L92.3352 105.641L92.3953 106.062C92.7329 108.291 92.8875 110.544 92.8576 112.798C92.8292 115.051 92.6107 117.297 92.2046 119.514C91.7952 121.743 91.1751 123.928 90.3525 126.04C89.5156 128.198 88.4322 130.253 87.124 132.164C85.7651 134.124 84.1396 135.884 82.2944 137.395C79.1788 139.936 75.397 141.688 71.3393 142.532C69.2951 142.947 67.2185 143.183 65.1332 143.236C64.0854 143.261 63.0346 143.236 61.9839 143.174C60.9331 143.113 59.8853 142.994 58.8404 142.844C54.6683 142.226 50.5622 140.936 46.9051 138.844C45.9948 138.318 45.1131 137.743 44.2635 137.124C43.4258 136.496 42.6256 135.819 41.8671 135.097C41.118 134.37 40.4179 133.594 39.7715 132.774C39.6071 132.572 39.4618 132.356 39.3048 132.147L39.0744 131.832C38.9995 131.726 38.9276 131.615 38.8587 131.508L38.4316 130.853L38.0501 130.169C37.9972 130.078 37.9429 129.987 37.8916 129.895L37.7448 129.612L37.4513 129.048C37.2649 128.668 37.1006 128.278 36.9245 127.893C36.6148 127.096 36.2802 126.31 36.0131 125.5L35.8018 124.895L35.6962 124.594L35.6008 124.289C35.4731 123.882 35.3469 123.474 35.2207 123.069C35.0945 122.664 34.9917 122.249 34.8758 121.841C34.7599 121.433 34.6469 121.022 34.5515 120.608C34.4561 120.195 34.3504 119.784 34.2506 119.371C34.1509 118.959 34.0716 118.542 33.9821 118.127L33.8485 117.506L33.7311 116.881L33.4963 115.632L33.2909 114.379L33.1896 113.752L33.1001 113.124L32.924 111.866L32.7773 110.606C32.723 110.186 32.6789 109.766 32.6378 109.344L32.5131 108.08C32.4441 107.236 32.3663 106.392 32.315 105.546C32.1946 103.855 32.1227 102.157 32.0787 100.453C31.9887 97.0478 32.0317 93.6138 32.2079 90.1514C32.2871 88.5577 32.4001 86.9713 32.4676 85.7826C32.5028 85.1868 32.5234 84.6908 32.5204 84.3415C32.5217 84.2055 32.5129 84.0697 32.494 83.935C32.4886 83.8969 32.4777 83.8599 32.4617 83.8249C32.4577 83.8134 32.4506 83.8033 32.4412 83.7956C32.4383 83.7915 32.4342 83.7884 32.4294 83.7868H32.403H32.3869C32.3749 83.7912 32.3636 83.7971 32.3531 83.8044C32.3266 83.8257 32.3047 83.8522 32.2886 83.8822C32.2357 83.9824 32.1958 84.0889 32.1697 84.1991C32.0738 84.6115 32.0052 85.0296 31.9642 85.4509C31.8366 86.5443 31.7324 88.1394 31.6326 90.1235C31.3562 95.4217 31.3601 100.731 31.6443 106.029C31.9496 111.284 32.5659 116.511 33.8089 121.63C34.1244 122.908 34.4708 124.18 34.8802 125.437C35.0857 126.063 35.2852 126.694 35.5259 127.311L35.8737 128.241C35.9985 128.551 36.1349 128.857 36.2656 129.167C37.3688 131.629 38.9024 133.874 40.7943 135.797C42.6994 137.717 44.8813 139.341 47.2676 140.615C49.6644 141.892 52.2064 142.876 54.8385 143.544C55.97 143.838 57.1058 144.076 58.2373 144.263C59.3688 144.451 60.4973 144.598 61.6229 144.686C62.7485 144.774 63.8667 144.824 64.9806 144.821C66.0915 144.78 67.1965 144.778 68.2913 144.652C70.4656 144.473 72.6145 144.063 74.7014 143.427C76.7631 142.797 78.7421 141.923 80.5965 140.823C82.4397 139.722 84.1351 138.391 85.6418 136.861C87.148 135.331 88.4663 133.626 89.5689 131.784C91.7775 128.088 93.1673 123.9 93.8042 119.524C94.1693 117.035 94.3352 114.521 94.3002 112.006C94.2933 111.706 94.2855 111.408 94.2767 111.112C94.2679 110.819 94.2767 110.525 94.2459 110.232L94.193 109.351C94.1754 109.058 94.1622 108.764 94.1285 108.47L94.0448 107.605C94.0184 107.311 93.992 107.028 93.9494 106.743L93.835 105.888C93.7968 105.594 93.7587 105.317 93.719 105.042C93.0807 100.609 93.0528 96.1976 93.3947 91.3298C93.5972 88.477 93.9245 85.7444 94.2752 83.0501C94.4499 81.7029 94.6318 80.3645 94.7918 79.0203C94.9518 77.676 95.0853 76.3244 95.1308 74.9376C95.1542 74.2287 95.1267 73.5191 95.0486 72.8141C95.0071 72.4446 94.9384 72.0787 94.8432 71.7193C94.7437 71.3386 94.6014 70.9703 94.4191 70.6216C94.3222 70.4384 94.2108 70.2632 94.0859 70.0977C93.9488 69.916 93.7934 69.7488 93.6222 69.5988C93.2584 69.244 92.7942 69.0098 92.2926 68.9281C92.0463 68.9001 91.797 68.9386 91.5706 69.0396C91.3445 69.1408 91.144 69.2912 90.9836 69.4799C90.8188 69.6763 90.6829 69.8952 90.58 70.13L90.5022 70.3091L90.4362 70.4852L90.4068 70.5703L90.3863 70.6407L90.3423 70.7875C90.1546 71.5086 90.0333 72.2455 89.9798 72.9887C89.9182 73.7152 89.8903 74.4401 89.88 75.1709C89.8624 76.6385 89.9108 78.106 89.9989 79.619C90.018 79.936 90.0385 80.2486 90.0649 80.5685L91.5618 80.5142C91.6249 78.6504 91.6322 76.8263 91.597 75.011C91.5618 73.1957 91.4693 71.3994 91.2786 69.6046C91.2375 69.157 91.167 68.7065 91.1083 68.2589C91.0775 68.0344 91.0291 67.8069 90.9909 67.5824C90.9528 67.3579 90.9131 67.1319 90.853 66.9029L90.7693 66.5625L90.7282 66.3908L90.7209 66.3629L90.7048 66.2807C90.6578 66.062 90.6182 65.8404 90.5668 65.6233C90.47 65.183 90.354 64.7427 90.2278 64.3025C90.096 63.8529 89.9367 63.4118 89.7509 62.9817C89.7142 62.8878 89.6217 62.7102 89.5498 62.5679L89.4926 62.4563L89.428 62.3507L89.2989 62.1394C89.1258 61.8789 88.9151 61.6455 88.6737 61.4467C88.444 61.2635 88.1702 61.1441 87.8798 61.1003C87.7332 61.0795 87.5841 61.0849 87.4395 61.1165C87.295 61.1463 87.1562 61.1994 87.0286 61.2735C86.7717 61.4229 86.5512 61.6274 86.3829 61.8723C86.2024 62.1269 86.065 62.4095 85.9764 62.7088C85.9253 62.8863 85.8899 63.068 85.8707 63.2517C85.8605 63.3442 85.8517 63.4366 85.8458 63.5306V63.6524V63.7536C85.8458 64.0237 85.8458 64.2863 85.8546 64.5446C85.8751 65.0627 85.9177 65.5719 85.9603 66.0694L86.0248 66.8119L86.0512 67.173C86.0586 67.2889 86.0644 67.4092 86.063 67.4958V67.5398L86.1628 67.553L86.3389 67.5868C86.3888 67.5956 86.4475 67.6161 86.4856 67.6235C86.5238 67.6308 86.5634 67.6558 86.5825 67.6631C86.6016 67.6704 86.6192 67.6881 86.6221 67.6983C86.6199 67.6922 86.6199 67.6854 86.6221 67.6792C86.6276 67.6673 86.6345 67.6559 86.6426 67.6455C86.6546 67.6344 86.6659 67.6227 86.6764 67.6103C86.7065 67.58 86.7389 67.552 86.7733 67.5266C86.8156 67.4919 86.8602 67.46 86.9068 67.4312C86.9274 67.421 86.9596 67.3946 86.9875 67.3784L87.0565 67.3344L86.5693 67.6132C86.5885 67.601 86.6086 67.5902 86.6294 67.5809C86.6503 67.5706 86.6719 67.5618 86.694 67.5545C86.72 67.5474 86.7455 67.5386 86.7703 67.5281C86.8393 67.5017 86.9083 67.4767 86.9772 67.4547L87.0829 67.4224H87.0946V67.4136L87.0858 67.3799L87.0653 67.2992L87.0242 67.1245L86.8628 66.3908C86.6485 65.4105 86.4299 64.4213 86.1745 63.4322C86.1109 63.1857 86.0444 62.9382 85.9749 62.6897C85.8825 62.3551 85.7768 62.0102 85.6623 61.6874C85.5584 61.3821 85.4211 61.0893 85.2529 60.8142C85.1778 60.6971 85.0929 60.5867 84.999 60.484C84.9075 60.3822 84.7968 60.2994 84.6732 60.2404C84.4589 60.1822 84.2335 60.1782 84.0173 60.2286C83.8053 60.2793 83.6085 60.3799 83.4435 60.5221C83.1068 60.822 82.8513 61.2022 82.7009 61.6272C82.6118 61.8587 82.5387 62.096 82.4822 62.3375C82.4514 62.4593 82.4265 62.584 82.4015 62.7088L82.3707 62.8878L82.3472 63.0345C82.2885 63.419 82.2504 63.8035 82.2225 64.1865C82.1667 64.9541 82.1564 65.7186 82.1682 66.4862C82.1799 67.2537 82.2166 68.0168 82.2797 68.799L83.2204 68.7432C83.1898 67.7053 83.0918 66.6705 82.9269 65.6453C82.7371 64.407 82.426 63.1905 81.9979 62.0131C81.9422 61.8664 81.8835 61.7196 81.8233 61.5729L81.7264 61.3498L81.5914 61.049C81.4156 60.6796 81.2011 60.3298 80.9516 60.0056C80.8374 59.8576 80.7096 59.7205 80.57 59.5961C80.4411 59.4774 80.297 59.3762 80.1415 59.2953C79.9866 59.2101 79.8135 59.1633 79.6367 59.1588C79.4545 59.1584 79.277 59.2165 79.1304 59.3246C78.8556 59.5425 78.6456 59.8312 78.5229 60.1597C78.3771 60.5329 78.2785 60.9228 78.2293 61.3205L78.1912 61.636L78.1648 61.9471C78.153 62.0616 78.153 62.1203 78.1472 62.2039L78.1354 62.4373C78.1222 62.7498 78.1208 63.058 78.1208 63.3677C78.134 63.9694 78.1457 64.5725 78.1589 65.1727L78.175 66.0606L78.1574 66.9411C78.1136 69.2858 77.8815 71.6233 77.4633 73.9309C77.2417 75.0741 76.9849 76.207 76.6664 77.3165L76.417 78.1441C76.3245 78.4156 76.2394 78.6901 76.1425 78.9586C76.0457 79.2272 75.9503 79.4957 75.849 79.7599C75.7639 79.9888 75.6656 80.2075 75.5658 80.432C75.466 80.6565 75.3647 80.8723 75.262 81.1027C75.623 81.4343 76.0061 81.7631 76.3671 82.105L76.7031 82.4234L77.0245 82.7346C77.4511 83.1533 77.8698 83.5769 78.2807 84.0054C79.0958 84.848 79.8589 85.7395 80.5656 86.6749C80.8983 87.115 81.1956 87.5806 81.455 88.0675C81.5661 88.2779 81.6565 88.4986 81.725 88.7264C81.7367 88.7749 81.7543 88.8306 81.7543 88.8453C81.7559 88.8658 81.7559 88.8864 81.7543 88.907C81.7561 88.942 81.7526 88.9771 81.7441 89.0111C81.7343 89.0436 81.7175 89.0736 81.695 89.0989C81.6724 89.1243 81.6446 89.1444 81.6135 89.1579C81.5827 89.1728 81.5501 89.1837 81.5166 89.1902C81.4784 89.1902 81.4462 89.2049 81.4051 89.2107C81.364 89.2166 81.3214 89.2239 81.2759 89.2254C80.8422 89.2295 80.4133 89.1336 80.0227 88.9451C79.5428 88.7261 79.0861 88.4596 78.6593 88.1497C78.2038 87.8209 77.7663 87.4677 77.3488 87.0916C76.4887 86.3125 75.6753 85.4834 74.9127 84.6086C74.1364 83.7281 73.3909 82.8123 72.6704 81.8731L71.9689 80.9442C71.6196 80.476 71.2733 79.9991 70.9255 79.506C70.5777 79.0129 70.2299 78.4787 69.8718 77.949L68.7932 76.3274L68.6846 76.7104L68.6376 76.8733L68.5789 77.1051L68.3441 78.0297L68.1255 78.8941L67.9171 79.7628C67.8965 79.8367 67.8804 79.9116 67.8686 79.9874L67.832 80.2339L67.76 80.727L67.7248 80.975L67.7072 81.0983C67.7072 81.1394 67.7072 81.1878 67.6984 81.2318L67.6749 81.7748C67.6603 82.1373 67.6324 82.4983 67.6485 82.8725L67.6632 83.2643C67.6632 83.3671 67.6632 83.4713 67.6779 83.5725C67.7952 85.1761 68.0655 86.7648 68.485 88.317C68.8904 89.8449 69.3863 91.3474 69.9701 92.8164C70.2578 93.5502 70.565 94.2766 70.8917 94.9957C71.0551 95.3557 71.2224 95.7138 71.3936 96.0699L71.6592 96.6056L71.7957 96.8727L71.8882 97.0517L71.9073 97.1089L71.9601 97.2674L72.0628 97.5888L72.2609 98.2419C72.3901 98.6821 72.5133 99.1224 72.6293 99.5626C72.8621 100.452 73.07 101.349 73.253 102.253C73.6235 104.057 73.8619 105.886 73.9662 107.725C74.062 109.324 73.9769 110.929 73.7123 112.509C73.4364 114.072 72.911 115.581 72.0643 116.856C71.214 118.138 70.0142 119.15 68.6068 119.772C67.1877 120.412 65.572 120.707 63.9254 120.77C63.72 120.784 63.5116 120.777 63.3046 120.782H62.9921C62.8864 120.782 62.8028 120.771 62.7074 120.767L62.4285 120.752C62.3346 120.752 62.2451 120.727 62.1526 120.716L61.8797 120.676C61.7887 120.661 61.7006 120.632 61.6111 120.611C60.8931 120.435 60.2165 120.119 59.6197 119.682C58.3943 118.802 57.4448 117.447 56.7023 115.981C55.9597 114.515 55.4064 112.899 54.95 111.276C54.4936 109.653 54.1546 107.974 53.8714 106.301C53.5221 104.247 53.2844 102.167 53.1127 100.087C52.941 98.0056 52.8486 95.9217 52.8045 93.8276C52.7605 91.7334 52.7766 89.6334 52.8397 87.5172C52.8711 86.4586 52.9156 85.3981 52.9733 84.3356C53.0026 83.8029 53.0349 83.2731 53.0716 82.736C53.1186 82.0683 53.1743 81.4035 53.236 80.7461C53.236 80.7329 53.2125 80.7461 53.1993 80.7461H53.1509L53.0569 80.7593L52.8691 80.7827L52.4934 80.8326L51.7596 80.928L50.4359 81.1203L47.9822 81.4475L42.9927 82.1021L38.6591 82.5878C37.0727 82.7918 35.4922 83.0016 34.3123 83.2012C34.0188 83.2526 33.7473 83.3025 33.5081 83.348C33.2689 83.3935 33.0678 83.4507 32.8917 83.4947C32.7553 83.5294 32.6229 83.5786 32.497 83.6415C32.4133 83.687 32.3737 83.7266 32.3854 83.7604Z" fill="#063844"/>
<path d="M82.2812 63.7403C82.2986 63.9232 82.3035 64.107 82.2959 64.2906C82.2863 64.4739 82.3026 64.6577 82.3443 64.8365C82.5087 65.4235 82.3223 65.4896 82.3561 65.8344C82.3737 66.0105 82.3678 66.4214 82.3781 66.6005C82.3884 66.7795 82.5645 67.0774 82.563 67.2418V67.3063C82.5249 67.6744 82.4314 68.0346 82.2856 68.3747C82.146 68.6967 82.0654 69.0412 82.0479 69.3917C82.0596 69.7615 82.2064 70.1255 82.2798 70.4865C82.3443 70.824 82.3928 71.1659 82.4383 71.5137C82.4911 71.8924 82.5395 72.2666 82.585 72.6467C82.6041 72.9651 82.5982 73.2845 82.5674 73.602L82.4838 74.5427C82.4192 75.2192 82.3869 75.8913 82.337 76.5649C82.3344 76.9068 82.3698 77.2479 82.4427 77.5819C82.519 77.9187 82.5438 78.265 82.516 78.6092C82.4867 78.8323 82.4221 79.114 82.3605 79.3943C82.2988 79.6746 82.2225 79.9505 82.202 80.1721C82.167 80.3103 82.1439 80.4512 82.133 80.5933C82.1242 80.7254 82.1125 80.8486 82.1081 80.9792C82.1037 81.1099 82.0963 81.2434 82.0817 81.3902C82.0817 81.4635 82.0655 81.5369 82.0523 81.6206C82.0391 81.7042 82.0127 81.782 81.9863 81.87C81.8924 82.1782 81.8733 82.4659 82.0171 82.5128C82.1609 82.5598 82.2754 82.2986 82.3619 81.9654C82.428 81.7292 82.4647 81.5252 82.5087 81.3315C82.5527 81.1377 82.5923 80.9704 82.6334 80.8002C82.7053 80.4598 82.7699 80.1237 82.8462 79.6746C82.8756 79.4604 82.9079 79.2344 82.946 78.9643C82.9651 78.8293 82.9842 78.684 83.0062 78.5241C83.0282 78.3641 83.0385 78.188 83.0546 77.9943C83.078 77.7632 83.1183 77.5342 83.1749 77.309C83.2274 77.0826 83.2617 76.8525 83.2777 76.6207C83.3055 75.9823 83.2967 75.887 83.354 75.6433C83.442 75.2794 83.577 75.0255 83.6064 74.7041C83.637 74.3375 83.6419 73.9693 83.6211 73.602C83.6034 73.2542 83.5829 72.9049 83.58 72.5557C83.578 72.2068 83.5996 71.8582 83.6445 71.5123C83.6924 71.2001 83.7125 70.8843 83.7047 70.5686C83.69 70.2223 83.7399 69.8804 83.7238 69.534C83.6739 68.5068 83.0678 67.3328 83.0502 67.1713C83.0567 66.9302 83.041 66.689 83.0032 66.4508C82.9592 66.2527 82.9636 66.0105 82.9284 65.8153C82.8888 65.469 82.8477 65.1256 82.8066 64.7778C82.7684 64.3874 82.6599 64.0881 82.6158 63.7036C82.5968 63.5568 82.5381 63.391 82.4221 63.4101C82.268 63.4145 82.2534 63.5436 82.2812 63.7403Z" fill="#063844"/>
<path d="M86.4387 63.7153C86.4637 64.0426 86.3639 64.3816 86.4475 64.7044C86.5943 65.2415 86.405 65.2914 86.4328 65.604C86.4475 65.7625 86.4328 66.1353 86.4416 66.2937C86.4505 66.4522 86.6266 66.7208 86.6222 66.869V66.9263C86.5899 67.5588 86.085 68.2368 86.1173 68.8106C86.1349 69.1422 86.2817 69.4607 86.3624 69.7879C86.4358 70.0902 86.4871 70.3955 86.54 70.7022C86.5972 71.0397 86.6618 71.3758 86.7102 71.7133C86.7354 71.9983 86.7379 72.2849 86.7175 72.5704C86.697 72.8521 86.675 73.1339 86.6544 73.4156C86.6368 73.7194 86.6163 74.0203 86.6045 74.3226L86.5693 75.228C86.5532 75.8473 86.8628 76.4226 86.8041 77.0492C86.7806 77.2488 86.7234 77.5012 86.6691 77.7522C86.6113 77.982 86.5653 78.2147 86.5312 78.4493C86.5002 78.5728 86.4816 78.6992 86.4754 78.8264C86.4637 78.9438 86.4607 79.0553 86.4593 79.1727C86.4578 79.2901 86.4593 79.409 86.4461 79.5411C86.4461 79.6071 86.4358 79.6761 86.4226 79.748C86.4094 79.8199 86.3888 79.8948 86.3653 79.9725C86.2846 80.2484 86.2758 80.5097 86.4211 80.5596C86.5664 80.6095 86.6706 80.3688 86.7425 80.0694C86.766 79.9623 86.7953 79.8625 86.8144 79.7686C86.8335 79.6746 86.8511 79.5851 86.8687 79.5C86.9039 79.3298 86.9391 79.1742 86.9758 79.0216C87.0419 78.7149 87.0947 78.414 87.1593 78.0075C87.1842 77.8153 87.2106 77.6128 87.2414 77.3706L87.2899 76.9729C87.3031 76.8262 87.3134 76.6721 87.3236 76.4974C87.3413 76.2891 87.3756 76.0825 87.4264 75.8796C87.471 75.6758 87.4989 75.4687 87.51 75.2603C87.5232 74.6865 87.51 74.5955 87.5584 74.3798C87.6377 74.0511 87.7683 73.8207 87.7874 73.5316C87.8062 73.202 87.8023 72.8715 87.7756 72.5425C87.6949 71.9214 87.6861 71.293 87.7492 70.6699C87.7924 70.3904 87.8071 70.1071 87.7932 69.8246C87.7698 69.515 87.8197 69.2068 87.7932 68.8971C87.7272 67.9843 87.124 66.9468 87.1079 66.7971C87.1159 66.5815 87.1016 66.3656 87.0653 66.1529C87.0257 65.9753 87.0331 65.764 87.0037 65.5849C86.9656 65.2753 86.9347 64.9671 86.9113 64.656C86.8834 64.3082 86.7997 64.0382 86.7733 63.6933C86.763 63.5598 86.7161 63.4115 86.5987 63.4174C86.446 63.4218 86.424 63.5333 86.4387 63.7153Z" fill="#063844"/>
<path d="M94.1036 90.6929C94.1036 90.6929 90.0943 85.9028 85.9721 86.3475C81.8498 86.7922 90.1648 95.4917 92.3015 94.5965C94.4382 93.7013 94.6613 92.9177 94.1036 90.6929Z" fill="#BADFD8"/>
<path d="M94.0859 90.7045C94.3691 90.4653 94.215 90.3714 94.0301 90.1733C93.2685 89.3559 92.4892 88.581 91.6483 87.8355C90.781 87.0412 89.8188 86.3571 88.7837 85.7986C88.2487 85.5369 87.6532 85.4234 87.0594 85.4699C86.9119 85.4769 86.7649 85.4921 86.6191 85.5154C86.4724 85.5389 86.3374 85.5579 86.1686 85.5961C85.8237 85.6588 85.4893 85.7694 85.1751 85.9248C85.0988 85.9674 85.0284 86.0129 84.9579 86.0598C84.8905 86.1089 84.8267 86.1629 84.7671 86.2213C84.6486 86.3327 84.5494 86.4632 84.4736 86.6072C84.3283 86.8934 84.2601 87.2126 84.2755 87.5332C84.2861 87.8487 84.3353 88.1617 84.4223 88.4651C84.4979 88.7335 84.5896 88.9971 84.6967 89.2546C84.957 89.8786 85.2899 90.4697 85.6887 91.0156C86.0788 91.5598 86.5459 92.0443 87.0755 92.4538C87.6405 92.8823 88.0177 93.4077 88.433 93.9477C88.8483 94.4878 89.2959 95.0396 90.0473 95.4241C90.3876 95.5964 90.7532 95.7133 91.1303 95.7704C91.2389 95.788 91.3372 95.7953 91.4766 95.8056C91.6131 95.8145 91.7501 95.8115 91.8861 95.7968C92.1532 95.7736 92.4125 95.6951 92.6477 95.5664C92.7042 95.5361 92.7591 95.5028 92.8121 95.4666C92.859 95.4358 92.8811 95.4153 92.9177 95.3888C92.9823 95.3375 93.0454 95.2905 93.1115 95.2421C93.2421 95.1291 93.3683 95.0322 93.4974 94.9104L93.6867 94.7358L93.8731 94.5465L93.9656 94.4526L94.0551 94.3484C94.1138 94.2765 94.1739 94.2163 94.2282 94.137C94.4146 93.8957 94.5572 93.6235 94.6494 93.3328C94.7219 93.0603 94.7507 92.7779 94.7345 92.4964C94.6902 92.0066 94.6062 91.5212 94.4836 91.045C94.4337 90.8307 94.3985 90.615 94.1255 90.684C93.766 90.7735 93.8584 90.9144 93.9186 91.1683C93.992 91.4995 94.0192 91.8392 93.9993 92.1779C93.9886 92.4639 93.8987 92.7413 93.7396 92.9792C93.5765 93.1853 93.3777 93.3602 93.1525 93.4957C92.9119 93.6601 92.6272 93.823 92.3425 94.0226L92.1796 94.1312C92.138 94.1599 92.0919 94.1812 92.0431 94.1943C91.9466 94.217 91.8461 94.217 91.7496 94.1943C91.5125 94.1334 91.287 94.0343 91.0819 93.9008C90.6416 93.6352 90.2248 93.3138 89.6951 93.0775C89.4069 92.9324 89.1758 92.6947 89.0391 92.4024C88.9089 92.1176 88.7469 91.8483 88.5563 91.5997C88.3075 91.3462 88.0352 91.1167 87.7433 90.9144C87.4453 90.7049 87.2005 90.4284 87.0286 90.1072C86.8011 89.6332 86.4533 89.3074 86.1158 88.9611C85.944 88.7923 85.7869 88.6092 85.6462 88.4137C85.5785 88.3164 85.5196 88.2133 85.4701 88.1055C85.4495 88.0527 85.4261 87.994 85.4114 87.9441C85.3976 87.8987 85.3883 87.852 85.3835 87.8047C85.3611 87.6532 85.3889 87.4986 85.4627 87.3645C85.4998 87.3073 85.5501 87.2598 85.6094 87.2261C85.6686 87.1924 85.7351 87.1734 85.8032 87.1707C85.9224 87.1622 86.0414 87.1893 86.1451 87.2485L86.3726 87.3204C86.4592 87.3483 86.5663 87.3791 86.6573 87.4055C87.4263 87.6521 88.0969 87.9926 88.9804 88.1643C89.3869 88.2686 89.7747 88.436 90.1295 88.6603C90.5121 88.8944 90.9235 89.0779 91.3534 89.2062C92.1319 89.4029 92.8527 89.7816 93.4563 90.3112C93.5062 90.3963 93.5591 90.4785 93.6031 90.5651C93.7513 90.7207 93.8746 90.885 94.0859 90.7045Z" fill="#063844"/>
<path d="M68.353 50.7997C68.2635 51.1592 68.5614 51.171 69.0295 51.284C70.9579 51.7433 72.8656 52.1645 74.7925 52.5592C76.7193 52.954 78.6668 53.318 80.6714 53.6408C81.6043 53.7762 82.5494 53.8067 83.489 53.7318L84.1802 53.6746L84.5236 53.6437L84.6102 53.6364C84.6348 53.6351 84.6594 53.6322 84.6836 53.6276L84.7834 53.61C84.9184 53.5865 85.0622 53.563 85.2134 53.5425L85.6375 53.4852C85.7329 53.4735 85.8297 53.4632 85.931 53.4544L86.0777 53.4427C86.0983 53.4427 86.132 53.4354 86.1423 53.4427L86.1144 53.4941C86.0278 53.6584 85.9398 53.836 85.8591 54.0165C85.818 54.1075 85.7784 54.1985 85.7402 54.288L85.6844 54.423L85.5978 54.6607C85.4804 55.0056 85.3748 55.3593 85.2867 55.7291C85.2412 55.914 85.2031 56.1018 85.1664 56.2955L85.1547 56.3674V56.4041V56.4232L85.14 56.4907L85.1121 56.6184C85.093 56.7152 85.0783 56.8062 85.0666 56.8928C85.0666 56.9104 85.049 56.9031 85.0343 56.9016H84.9888H84.9008L84.7335 56.8855L84.5779 56.8708H84.5398H84.4708H84.2815L82.7626 56.8312C81.7456 56.815 80.7286 56.7989 79.7204 56.8312C78.5185 56.8679 77.434 56.6433 76.3583 56.3807C75.2826 56.118 74.2158 55.7936 73.0124 55.6278C72.0159 55.4811 70.9828 55.437 69.9409 55.3813C69.6811 55.3666 69.4184 55.3593 69.1587 55.3417L68.7668 55.3182L68.5717 55.305H68.4748H68.4323C68.3008 55.3207 68.1684 55.328 68.036 55.327H67.7983H67.6721C67.6515 55.327 67.6266 55.327 67.6104 55.327V55.2844C67.6369 55.098 67.6794 54.8735 67.7396 54.6182L67.7631 54.5213C67.7631 54.5081 67.7733 54.4846 67.7807 54.4582L67.8027 54.3834L67.8922 54.0899C67.9538 53.8917 68.0155 53.6951 68.0756 53.5029C68.3251 52.7192 68.5951 51.9429 68.9033 51.1548L68.9694 50.989L69.0648 50.7469L68.8358 50.628C68.5541 50.4813 68.3002 50.3741 68.1886 50.584C68.0419 50.8672 68.2312 50.9699 68.5629 51.1402L68.4293 50.7762C68.4088 50.8276 68.3868 50.8848 68.3647 50.9435C68.1285 51.5437 67.8658 52.1278 67.5958 52.7045C67.4593 52.9907 67.3228 53.2783 67.1863 53.563L66.9809 53.9915L66.9295 54.0987L66.8723 54.2219L66.7373 54.5154C66.5568 54.9146 66.3733 55.3284 66.1913 55.7511L66.0563 56.0695L66.0226 56.1503C66.0079 56.1679 66.0329 56.1649 66.0431 56.1693L66.0827 56.1796L66.2427 56.2222L66.8943 56.3865L67.5605 56.545L67.8966 56.6199L68.193 56.6463C68.513 56.702 68.8344 56.7563 69.1616 56.793C70.2173 56.9235 71.2656 57.1086 72.3021 57.3477C72.804 57.4534 73.3059 57.5444 73.8137 57.6178C74.3318 57.6918 74.8547 57.7271 75.378 57.7234C76.6621 57.7132 77.5793 58.2752 78.7841 58.4044C80.1959 58.5511 81.3919 58.2429 82.8507 58.4264C83.3514 58.485 83.8566 58.4948 84.3593 58.4557L84.8333 58.4205L85.3865 58.3706L85.9163 58.3148L86.1731 58.2869L86.2993 58.2723C86.3404 58.2723 86.3874 58.2723 86.405 58.2415C86.3771 57.8907 86.3522 57.5473 86.336 57.2142C86.336 57.0513 86.3199 56.8884 86.3243 56.7343V56.5157C86.3243 56.4628 86.3243 56.4115 86.3243 56.3586C86.343 55.9308 86.4225 55.5078 86.5605 55.1025C86.7199 54.6526 86.9193 54.2179 87.1564 53.8037C87.4499 53.3003 87.805 52.7471 88.1675 52.2012L88.1352 52.166L88.1176 52.1498C88.1176 52.1498 88.1088 52.1351 88.0912 52.1366L87.9121 52.1234L87.5643 52.097L86.8027 52.0427L86.405 52.0133L86.0352 51.981L85.2677 51.915L84.8685 51.8827L84.6704 51.8681L84.5427 51.849L84.032 51.7741L83.0135 51.6274C81.6492 51.4253 80.2703 51.3379 78.8913 51.3662C77.2858 51.4205 75.607 51.014 73.9281 51.127C72.5005 51.2282 71.0659 51.1503 69.6576 50.8951L69.1616 50.7117C68.7889 50.6295 68.4205 50.5267 68.353 50.7997Z" fill="#063844"/>
<path d="M75.5556 104.898C80.6171 105.286 91.9919 104.725 92.6449 103.724C92.9546 104.059 93.025 104.564 93.0852 105.033L93.5005 108.57C87.7464 109.898 81.8088 110.241 75.9401 109.584C75.3383 107.966 75.0853 106.239 75.1975 104.517" fill="#063844"/>
<path d="M75.557 104.875C75.5277 105.243 75.8036 105.208 76.2482 105.233C78.0782 105.327 79.8759 105.38 81.6781 105.452C83.4802 105.524 85.3043 105.599 87.1754 105.644C88.0481 105.653 88.9186 105.555 89.767 105.351C90.1897 105.255 90.6079 105.145 91.0262 105.025C91.2316 104.965 91.4517 104.897 91.6469 104.832L91.961 104.686L92.0402 104.648C92.1134 104.614 92.1811 104.569 92.2413 104.516C92.2486 104.516 92.253 104.501 92.2603 104.494C92.2677 104.486 92.2603 104.483 92.2692 104.483L92.2794 104.492C92.2924 104.504 92.3046 104.517 92.3161 104.53C92.3392 104.557 92.3599 104.585 92.3777 104.615C92.4603 104.774 92.5079 104.948 92.5172 105.126C92.5377 105.368 92.5568 105.609 92.5759 105.86C92.5993 106.169 92.6184 106.482 92.636 106.802C92.6536 107.122 92.6786 107.536 92.6639 107.613L92.6507 107.933V107.97H92.6052L92.5142 107.977L92.3455 107.992L92.1884 108.005H92.1503C92.1281 108.006 92.106 108.008 92.0842 108.013L91.8935 108.042L91.126 108.164C90.0987 108.322 89.0714 108.495 88.0706 108.711C86.9875 108.937 85.9691 108.9 84.955 108.799C83.941 108.698 82.9298 108.561 81.816 108.57C81.3552 108.583 80.8885 108.6 80.4189 108.647C79.9493 108.694 79.4738 108.74 78.9969 108.793L78.2807 108.87C78.0415 108.893 77.8023 108.912 77.5617 108.931L77.2021 108.959H77.1126C77.0929 108.96 77.0733 108.963 77.0539 108.966L76.9453 108.983C76.7985 109.002 76.6356 109.016 76.4654 109.027H76.414H76.3876C76.3774 109.027 76.3671 109.027 76.3671 109.027L76.326 108.964C76.2996 108.921 76.2717 108.876 76.2453 108.827C76.2189 108.779 76.191 108.732 76.1631 108.672L76.122 108.583L76.1015 108.539C76.1015 108.523 76.0853 108.498 76.0765 108.478C75.9415 108.136 75.8273 107.786 75.7346 107.43C75.5462 106.711 75.4519 105.972 75.4543 105.229C75.4543 104.881 75.4954 104.539 75.2136 104.518C74.8467 104.494 74.8805 104.772 74.8761 105.224C74.8687 106.445 74.9142 107.635 75.1696 108.843C75.2562 109.213 75.375 109.612 75.5027 110.01L75.5277 110.085C75.5494 110.092 75.5721 110.097 75.5952 110.098L75.7419 110.118L76.0266 110.158L76.6063 110.231C77.0466 110.286 77.277 110.296 77.5895 110.311C77.8907 110.326 78.1924 110.326 78.4935 110.311C79.4763 110.29 80.4595 110.321 81.4388 110.406C82.3839 110.452 83.3231 110.487 84.3005 110.305C84.8358 110.222 85.3811 110.227 85.9148 110.32C86.4314 110.38 86.9421 110.479 87.5041 110.437C88.8161 110.353 89.8521 109.859 91.2096 109.793C91.4339 109.782 91.6574 109.758 91.8788 109.721C91.9874 109.702 92.096 109.681 92.2031 109.659L92.5568 109.578C92.8855 109.496 93.2054 109.408 93.5092 109.32L93.9568 109.187L94.1711 109.119L94.2254 109.103C94.2386 109.103 94.2254 109.087 94.2254 109.078V109.047L94.2004 108.921C94.0815 108.334 93.9627 107.738 93.8423 107.136C93.749 106.707 93.6877 106.272 93.6589 105.833C93.6486 105.669 93.6413 105.505 93.6339 105.34V105.194L93.6237 105.022C93.6237 104.906 93.6105 104.79 93.6002 104.674C93.5766 104.225 93.4501 103.787 93.2304 103.394C93.1541 103.364 93.0836 103.334 93.0044 103.309L92.8943 103.271C92.8855 103.271 92.8723 103.262 92.8694 103.271H92.8576C92.8488 103.276 92.8394 103.281 92.8297 103.284C92.7042 103.319 92.5753 103.339 92.4453 103.346C92.3601 103.355 92.2647 103.361 92.1679 103.368L92.0211 103.375C92.0094 103.375 91.9962 103.375 91.983 103.361L91.9434 103.336L91.8641 103.284L91.7834 103.231C91.7542 103.234 91.7253 103.239 91.6968 103.246L91.5193 103.281C91.4606 103.292 91.4004 103.3 91.3417 103.308H91.28H91.2287C90.9587 103.321 90.6798 103.327 90.401 103.33H88.706C87.5484 103.321 86.3925 103.419 85.2529 103.623C83.7854 103.906 82.1932 103.77 80.6801 104.175C79.4042 104.524 78.0889 104.708 76.7662 104.722L76.2864 104.634C75.9268 104.634 75.579 104.593 75.557 104.875Z" fill="#063844"/>
<path d="M92.4894 88.7395C90.8751 87.4584 89.8391 86.685 89.0921 85.5785C88.8191 85.1705 88.5403 84.7523 88.4273 84.2738C88.3143 83.7954 88.3994 83.2466 88.7648 82.9135C89.2917 82.4438 90.1091 82.6346 90.7724 82.8709C92.4564 83.4733 94.0916 84.2044 95.6636 85.0575C96.5778 85.5535 97.5713 86.2447 97.6623 87.2837C97.7474 88.2567 96.9682 89.1108 96.1009 89.5511C94.4676 90.3802 93.3875 89.4249 91.9919 88.2391" fill="#BADFD8"/>
<path d="M92.4746 88.7587C92.705 88.4652 92.5479 88.4182 92.3498 88.2612C91.5397 87.614 90.7473 86.9404 90.1485 86.1656C90.0009 85.9742 89.867 85.7727 89.7479 85.5624C89.6877 85.4597 89.6364 85.3526 89.5835 85.2469C89.5307 85.1412 89.4735 85.0165 89.425 84.9064C89.3346 84.71 89.2714 84.5021 89.2372 84.2886C89.2305 84.2439 89.2266 84.1988 89.2255 84.1536C89.2229 84.1171 89.2259 84.0805 89.2343 84.045C89.2469 83.9963 89.2677 83.9501 89.2959 83.9085C89.352 83.8272 89.4011 83.7413 89.4427 83.6517C89.4991 83.5448 89.5894 83.4596 89.6995 83.4095C89.7338 83.3916 89.7703 83.3783 89.8081 83.3699C89.8689 83.3618 89.9301 83.3569 89.9915 83.3553C90.1278 83.3536 90.264 83.3654 90.398 83.3905C90.5044 83.4098 90.6098 83.4348 90.7135 83.4653C90.8207 83.4961 90.9249 83.5284 91.0276 83.5636C91.2313 83.6337 91.4312 83.7145 91.6263 83.8058C92.0317 83.9974 92.4265 84.2105 92.8092 84.4442C93.3037 84.7377 93.8041 85.0488 94.3163 85.3379C94.5716 85.4836 94.8314 85.6216 95.0956 85.7517C95.3626 85.8809 95.6033 85.988 95.8484 86.0951C96.0851 86.1942 96.2887 86.3586 96.4354 86.5691C96.5514 86.7306 96.6094 86.9267 96.5998 87.1253C96.5841 87.2567 96.5259 87.3794 96.4339 87.4746C96.3514 87.5561 96.2803 87.6484 96.2226 87.749C95.9937 88.1584 95.4346 89.1578 94.6304 89.2312C94.2512 89.2496 93.8743 89.1643 93.54 88.9847C93.1595 88.794 92.8041 88.5569 92.4819 88.2788C92.3351 88.1496 92.1884 88.0058 92.002 88.2201C91.7613 88.5033 91.9154 88.5591 92.1106 88.722C92.3718 88.9436 92.6184 89.1828 92.8767 89.422C93.1403 89.6775 93.4311 89.9034 93.744 90.0956C94.0996 90.3083 94.5038 90.4265 94.918 90.439C95.3362 90.4449 95.7471 90.3291 96.1008 90.1058C96.3943 89.9268 96.6526 89.7478 96.905 89.5658C97.1615 89.3848 97.3985 89.1778 97.6123 88.948C97.84 88.7053 98.0109 88.4151 98.1128 88.0983C98.2222 87.7561 98.216 87.3874 98.0952 87.049C98.0189 86.8479 97.9602 86.6674 97.9015 86.4884C97.8736 86.3989 97.8472 86.3094 97.8178 86.2228C97.7885 86.1362 97.7606 86.0467 97.7298 85.9586C97.6214 85.6019 97.4263 85.2777 97.1618 85.015C96.8554 84.7636 96.503 84.5742 96.1243 84.4574C95.7715 84.3503 95.4413 84.1797 95.1499 83.954C94.7375 83.6106 94.2517 83.4771 93.7616 83.367C93.2714 83.2569 92.7739 83.1792 92.3102 82.9355C92.0343 82.7888 91.7687 82.6332 91.506 82.4689C91.2433 82.3045 90.9997 82.1328 90.6842 81.9596C90.5224 81.8687 90.3541 81.7898 90.1808 81.7234C90.1368 81.7058 90.0869 81.6896 90.0341 81.6735C89.9757 81.6552 89.9165 81.64 89.8565 81.628C89.7283 81.5991 89.5984 81.5785 89.4676 81.5663C88.9239 81.5148 88.38 81.6624 87.937 81.9817C87.6807 82.1808 87.4697 82.4322 87.3179 82.7191C87.1661 83.006 87.077 83.3219 87.0565 83.6458C87.045 83.8131 87.0489 83.9811 87.0682 84.1477C87.0769 84.2315 87.0901 84.3148 87.1078 84.3972C87.1284 84.4852 87.1489 84.563 87.1695 84.6247C87.2496 84.8698 87.3663 85.1013 87.5158 85.3115C87.689 85.5521 87.8504 85.7635 87.9957 85.9586L88.2114 86.2521C88.2892 86.3563 88.3684 86.4605 88.455 86.5589C88.7721 86.9634 89.1873 87.2801 89.6613 87.479C90.4655 87.7725 91.1479 88.0572 91.8098 88.4945L91.9873 88.7176C92.1502 88.8408 92.2999 88.9788 92.4746 88.7587Z" fill="#063844"/>
<path d="M94.3267 81.11C93.543 80.6096 91.9405 79.9506 91.0482 79.6894C90.8193 79.6234 89.2329 80.8341 89.927 81.6104C91.2684 83.1132 93.0969 83.7721 95.0384 84.3048C97.6125 84.952 97.79 82.7081 97.6125 82.2796C96.8567 80.4423 96.4546 78.6636 94.9401 77.3781" fill="#BADFD8"/>
<path d="M94.3149 81.129C94.5159 80.8194 94.3663 80.79 94.1681 80.6888C93.7176 80.4393 93.2715 80.2147 92.8239 79.9858L92.1518 79.6439L91.8201 79.4678C91.6734 79.4017 91.5164 79.321 91.3579 79.2623C91.2381 79.2163 91.1149 79.1795 90.9895 79.1523C90.8609 79.1495 90.7331 79.173 90.6138 79.2212C90.3591 79.3192 90.1187 79.451 89.8992 79.6131C89.8434 79.6542 89.7803 79.7026 89.7333 79.7407C89.6864 79.7789 89.6379 79.8171 89.5866 79.8552C89.4896 79.9404 89.3974 80.0311 89.3107 80.1267C89.0852 80.3708 88.9278 80.6699 88.8543 80.994C88.8033 81.2416 88.821 81.4984 88.9057 81.7366C88.9481 81.8567 89.0053 81.971 89.0759 82.077C89.1111 82.1255 89.1463 82.1695 89.1845 82.215L89.2124 82.2487L89.2285 82.2649L89.2593 82.2957C89.3444 82.3779 89.4325 82.4557 89.5235 82.5305C89.6145 82.6054 89.7142 82.6655 89.817 82.7301C90.2085 82.954 90.6127 83.1549 91.0277 83.3318C91.7996 83.6855 92.3939 84.0553 93.1629 84.4618C93.627 84.7077 94.1093 84.9177 94.6055 85.0899L94.7962 85.1515C94.8623 85.172 94.943 85.1911 95.0208 85.2087C95.0986 85.2263 95.1749 85.2396 95.2526 85.2513C95.3307 85.2654 95.4096 85.2742 95.4889 85.2777C95.8289 85.3071 96.1713 85.2677 96.4956 85.1618C96.8351 85.0562 97.1611 84.9114 97.4671 84.7303C97.7771 84.5435 98.0534 84.3059 98.2845 84.0274C98.5148 83.7502 98.6937 83.4341 98.8128 83.094C98.844 83.0057 98.8694 82.9155 98.8891 82.824C98.9119 82.7122 98.9267 82.5989 98.9332 82.485C98.9489 82.245 98.9175 82.0042 98.8407 81.7762L98.7791 81.6045C98.7659 81.5663 98.7512 81.5297 98.735 81.4915C98.4005 80.702 97.6271 79.9198 97.0034 79.1435C96.7466 78.825 96.4868 78.5242 96.2212 78.238C95.9556 77.9518 95.6812 77.6803 95.3994 77.4044C95.2659 77.2826 95.1411 77.1491 94.9591 77.3648C94.7199 77.6481 94.8461 77.6847 94.9958 77.8212C95.3906 78.2013 95.6107 78.7017 95.7942 79.1992C95.9776 79.6967 96.1346 80.2015 96.4604 80.6814C96.6312 80.9463 96.7604 81.2359 96.8434 81.5399C96.886 81.6867 96.9241 81.8334 96.9652 81.9802C96.9843 82.055 97.0048 82.1269 97.0269 82.2018L97.0606 82.3104L97.0768 82.3647L97.0856 82.3955C97.1101 82.4831 97.1244 82.5732 97.1281 82.664C97.1369 82.7814 97.1472 82.8988 97.156 83.0207C97.1611 83.1219 97.1302 83.2218 97.0687 83.3024C97.0071 83.383 96.919 83.4392 96.8199 83.4609C96.6336 83.5181 96.4663 83.4609 96.3503 83.4932C96.2727 83.5108 96.1973 83.5374 96.1258 83.5724C96.0335 83.6115 95.9383 83.6434 95.8411 83.6678C95.7868 83.682 95.7313 83.6908 95.6753 83.6943C95.5538 83.7062 95.4311 83.6916 95.3157 83.6517L95.2277 83.615C95.1954 83.5989 95.1602 83.5783 95.1264 83.5578C94.761 83.3347 94.3575 83.3068 93.9524 83.2833C93.5474 83.2599 93.1336 83.2364 92.7784 83.0221C92.1092 82.62 91.6338 81.9949 91.2889 81.4078C91.1964 81.2611 91.1187 81.1143 91.0335 80.9793C90.9944 80.9069 90.9533 80.838 90.9103 80.7724L90.8941 80.7475L90.5155 81.0865C90.4994 81.1011 90.4656 81.1217 90.4553 81.1305L90.4113 81.1569L90.3908 81.1657C90.4356 81.1594 90.481 81.1594 90.5258 81.1657C90.6776 81.1852 90.8258 81.2262 90.966 81.2875L91.0365 81.3169H91.0482C91.0482 81.3169 91.0482 81.3169 91.0482 81.3066C91.0458 81.293 91.0458 81.2791 91.0482 81.2655C91.0545 81.2162 91.0633 81.1672 91.0746 81.1187L91.0893 81.0688C91.0893 81.0542 91.1069 81.0322 91.1055 81.0248C91.1041 81.0126 91.1041 81.0003 91.1055 80.9881C91.1087 80.9654 91.1173 80.9438 91.1304 80.925C91.1433 80.906 91.1591 80.8891 91.1774 80.8751C91.1964 80.8619 91.217 80.8663 91.2405 80.8561L91.2874 80.8384L91.3168 80.8252C91.3236 80.8241 91.3305 80.8241 91.3373 80.8252H91.3887C91.5301 80.8346 91.6722 80.8302 91.8128 80.812C92.4607 80.716 93.1223 80.7868 93.7352 81.0175C93.791 81.0747 93.8512 81.1246 93.904 81.1819C94.0361 81.2684 94.1681 81.3668 94.3149 81.129Z" fill="#063844"/>
<path d="M69.0734 95.797C68.8996 95.6868 68.7316 95.5678 68.5701 95.4404C68.259 95.2002 67.9679 94.9352 67.6998 94.6479C67.534 94.4645 67.3696 94.2898 67.2493 94.1475C67.129 94.0051 67.0482 93.8965 67.0277 93.8686C66.8384 93.5605 66.6931 93.2244 66.5302 92.9236C66.451 92.7768 66.3834 92.6168 66.2969 92.476C66.2103 92.3351 66.1222 92.203 66.0356 92.0724C65.9284 91.9216 65.8102 91.7788 65.682 91.6453C65.5616 91.4986 65.4369 91.3665 65.3063 91.23C65.1751 91.0943 65.0512 90.9518 64.935 90.803C64.8129 90.6584 64.7025 90.5043 64.6048 90.3422C64.4742 90.1059 64.2907 89.8462 64.1367 89.5717C64.053 89.4353 63.9708 89.2988 63.8901 89.1682C63.8094 89.0376 63.7434 88.904 63.6759 88.7837C63.6084 88.6633 63.5731 88.5386 63.5408 88.43C63.4968 88.2833 63.4528 88.1365 63.4073 87.9751L63.3398 87.7271L63.2899 87.457C63.2591 87.2897 63.2268 87.1283 63.1916 86.9801C63.1564 86.8319 63.1373 86.6954 63.1065 86.5809C63.0448 86.352 62.9729 86.2082 62.8981 86.214C62.8232 86.2199 62.7939 86.3725 62.7953 86.6132C62.7953 86.7335 62.8041 86.8759 62.8203 87.0329C62.8364 87.1899 62.8746 87.3587 62.9098 87.5363C62.9318 87.639 62.9494 87.7403 62.9729 87.8298L63.0463 88.113C63.0962 88.2965 63.1343 88.474 63.1857 88.6399C63.2121 88.9114 63.2107 89.2034 63.24 89.491C63.2654 89.776 63.3215 90.0575 63.4073 90.3304C63.4748 90.5124 63.5467 90.6929 63.6216 90.8734C63.6964 91.0539 63.7874 91.2256 63.8696 91.4032L63.9767 91.7422C64.0178 91.8537 64.0603 91.9638 64.1058 92.0739C64.1897 92.2957 64.3001 92.5066 64.4346 92.702C64.5505 92.8634 64.6752 93.0234 64.8059 93.1804C64.9365 93.3374 65.0891 93.4739 65.2358 93.6206C65.3812 93.7632 65.5346 93.8975 65.6952 94.0227C65.8551 94.1475 66.0019 94.2781 66.1648 94.3852C66.3291 94.5452 66.4935 94.6978 66.6652 94.8401C66.8469 94.9741 67.0371 95.0962 67.2346 95.2056C67.396 95.2995 67.5751 95.3861 67.7468 95.477C67.9133 95.5715 68.0914 95.644 68.2766 95.6928C68.4776 95.816 68.6743 95.9525 68.8929 96.0846C69.1688 96.246 69.5005 96.3972 69.5606 96.2959C69.6472 96.1653 69.4447 96.0112 69.0734 95.797Z" fill="#063844"/>
<path d="M67.9802 98.4106C67.8261 98.3505 67.6867 98.2742 67.54 98.1993C67.2611 98.0528 66.9924 97.8875 66.7358 97.7048C66.5729 97.5903 66.4158 97.4802 66.2955 97.3907L66.068 97.2146C65.6674 96.7743 65.3343 96.2856 64.916 95.9995C64.4229 95.6663 63.7978 95.5137 63.29 95.1733C63.1124 95.0485 62.8894 94.9208 62.6736 94.7844C62.565 94.7183 62.4535 94.6523 62.3464 94.5906L62.0294 94.4072C61.956 94.3441 61.865 94.2722 61.8019 94.2076C61.6074 94.0252 61.4237 93.8317 61.2516 93.6279C61.1636 93.5238 61.0755 93.4254 60.9904 93.3344C60.9176 93.2532 60.8402 93.1763 60.7585 93.104C60.6118 92.9793 60.4973 92.9191 60.4386 92.9573C60.3799 92.9954 60.4151 93.1246 60.5134 93.2904C60.5705 93.3857 60.6327 93.4778 60.6998 93.5663C60.7776 93.6632 60.8671 93.7674 60.9625 93.873C61.0579 93.9787 61.1797 94.1152 61.2839 94.2238C61.3881 94.3324 61.482 94.4395 61.5774 94.5378C61.6845 94.7301 61.7785 94.9443 61.8885 95.1498C61.9916 95.3526 62.1187 95.5423 62.2671 95.7148C62.4755 95.9393 62.6986 96.155 62.9275 96.3532C63.0405 96.4999 63.1535 96.654 63.2783 96.7934C63.3961 96.9378 63.5328 97.0656 63.6848 97.1735C64.1925 97.536 64.8309 97.7693 65.415 97.9586C65.5698 98.0451 65.729 98.1235 65.8919 98.1934C66.0583 98.2564 66.2296 98.3055 66.4041 98.3402C66.6976 98.396 67.0058 98.5031 67.311 98.4957C67.4857 98.5618 67.6603 98.6337 67.8481 98.71C68.0844 98.8025 68.3632 98.8729 68.4087 98.7643C68.4704 98.6366 68.2943 98.5354 67.9802 98.4106Z" fill="#063844"/>
<path d="M100.038 69.2848C100.053 69.0749 100.049 68.865 100.06 68.6537C100.069 68.4835 100.084 67.9508 100.075 67.4357C100.06 67.1803 100.054 66.9264 100.038 66.7298C100.022 66.5331 100.002 66.3937 99.9972 66.357C100.014 65.9719 100.006 65.5861 99.9722 65.2021C99.9526 65.0153 99.9207 64.83 99.8768 64.6474C99.8403 64.4693 99.7847 64.2956 99.711 64.1293C99.6251 63.9398 99.527 63.756 99.4175 63.579C99.2986 63.4073 99.168 63.243 99.0389 63.0801C98.9097 62.9172 98.7689 62.7646 98.6324 62.6119C98.4959 62.4593 98.3712 62.2979 98.2332 62.1467C98.0279 61.8997 97.8032 61.6695 97.5611 61.4585C97.4364 61.3469 97.3087 61.2383 97.1869 61.1356C97.0651 61.0329 96.9301 60.9507 96.8142 60.8685C96.7217 60.7863 96.6131 60.6851 96.5207 60.6044C96.4018 60.506 96.277 60.4033 96.1494 60.2903L95.9513 60.1171L95.7297 59.9425C95.5932 59.8339 95.4582 59.7312 95.332 59.649C95.214 59.5743 95.092 59.5062 94.9666 59.445C94.7479 59.3394 94.5953 59.2983 94.5557 59.3643C94.516 59.4303 94.6114 59.5492 94.7875 59.7004C94.8756 59.7767 94.9856 59.8589 95.1074 59.9484C95.2292 60.0379 95.3525 60.1494 95.4905 60.2536C95.5697 60.3167 95.6504 60.374 95.7238 60.4356L95.9322 60.6234C96.0657 60.7467 96.1993 60.8582 96.3167 60.9771C96.4487 61.209 96.5779 61.4482 96.6923 61.6918C96.7978 61.9314 96.9188 62.1637 97.0548 62.3874C97.1458 62.5342 97.2397 62.6809 97.3336 62.8277C97.4276 62.9744 97.5097 63.1314 97.5963 63.2826L97.7035 63.5761C97.7328 63.6774 97.7622 63.7786 97.793 63.8784C97.857 64.0745 97.9315 64.267 98.016 64.4551C98.0894 64.6122 98.1628 64.7677 98.2596 64.9218C98.3565 65.0759 98.4181 65.2403 98.5062 65.3973C98.5942 65.5543 98.675 65.7172 98.7557 65.8772L98.8789 66.1178C98.9215 66.1971 98.9596 66.2763 98.9934 66.357C99.0404 66.5596 99.0932 66.7547 99.1563 66.9441C99.2066 67.144 99.2708 67.3401 99.3485 67.5311C99.4121 67.6993 99.465 67.8713 99.507 68.0462C99.5555 68.2223 99.6186 68.3984 99.6802 68.5642C99.6802 68.7887 99.7066 69.0191 99.6919 69.2657C99.6714 69.5724 99.6919 69.9231 99.802 69.9422C99.9546 69.973 100.002 69.7191 100.038 69.2848Z" fill="#063844"/>
<path d="M103.732 70.4043C103.78 70.2194 103.811 70.0301 103.86 69.8423C103.895 69.6955 104.006 69.2171 104.078 68.7534C104.109 68.5215 104.146 68.294 104.163 68.115L104.19 67.7716C104.273 67.4267 104.333 67.0767 104.37 66.7238C104.382 66.5518 104.382 66.3792 104.37 66.2072C104.367 66.0402 104.344 65.8742 104.301 65.7127C104.25 65.528 104.187 65.347 104.111 65.1711C104.027 64.998 103.929 64.8321 103.833 64.6678C103.738 64.5034 103.629 64.3449 103.524 64.1879C103.418 64.0309 103.328 63.8694 103.23 63.7139C103.077 63.4628 102.904 63.2247 102.712 63.0021C102.611 62.8862 102.51 62.7732 102.411 62.6646C102.313 62.556 102.201 62.465 102.106 62.3711C102.011 62.2772 101.948 62.1803 101.881 62.0967C101.786 61.9925 101.689 61.8824 101.588 61.765L101.432 61.5816L101.256 61.3967C101.148 61.2807 101.039 61.1707 100.936 61.0738C100.838 60.9926 100.736 60.9167 100.63 60.8463C100.443 60.726 100.308 60.6761 100.26 60.7348C100.211 60.7935 100.28 60.9168 100.418 61.0768C100.487 61.1575 100.574 61.2455 100.672 61.3409C100.771 61.4363 100.866 61.5522 100.976 61.6638C101.039 61.7298 101.105 61.7914 101.162 61.856L101.324 62.0512C101.428 62.1803 101.534 62.2963 101.617 62.4195C101.701 62.6499 101.777 62.8847 101.84 63.121C101.895 63.3521 101.967 63.5788 102.056 63.799C102.113 63.9458 102.175 64.0925 102.24 64.2393C102.304 64.386 102.351 64.5328 102.405 64.6795L102.454 64.9613C102.463 65.0581 102.471 65.1521 102.483 65.246C102.508 65.43 102.544 65.6124 102.592 65.7919C102.633 65.9387 102.684 66.0854 102.739 66.2322C102.793 66.3789 102.835 66.5374 102.885 66.69C102.935 66.8426 102.992 66.9967 103.044 67.1508C103.095 67.3049 103.155 67.459 103.191 67.6131C103.202 67.7995 103.218 67.98 103.248 68.162C103.262 68.3479 103.292 68.5324 103.336 68.7137C103.369 68.8735 103.393 69.0352 103.405 69.198C103.422 69.3639 103.455 69.5297 103.487 69.6896C103.456 69.8907 103.439 70.0991 103.384 70.3163C103.315 70.5848 103.271 70.9033 103.384 70.9414C103.546 71.006 103.634 70.7873 103.732 70.4043Z" fill="#063844"/>
</svg>
