<svg width="164" height="164" viewBox="0 0 164 164" fill="none" xmlns="http://www.w3.org/2000/svg">
<path d="M59.7153 24.3101L62.722 29.8131L68.2208 32.8235L62.722 35.8324L59.7153 41.3355L56.7072 35.8324L51.2084 32.8235L56.7072 29.8131L59.7153 24.3101Z" fill="#FFD58E"/>
<path d="M59.7256 24.3042C59.5634 24.3934 59.7256 24.6421 59.9683 25.0736C60.4097 25.881 60.8438 26.6875 61.2706 27.493L61.9079 28.7028L62.5657 29.9695L63.9659 30.7843L65.3107 31.5786L66.6525 32.3861L66.9785 32.5835L67.1056 32.6728C67.186 32.7298 67.2518 32.7796 67.3073 32.8191L67.1787 32.8702C67.0925 32.9039 67.0238 32.9331 66.9624 32.9639L66.939 32.9756L66.8951 32.9975L66.7373 33.0838L66.423 33.2564C66.0079 33.489 65.603 33.7304 65.2025 33.9732C64.4015 34.4574 63.6195 34.9533 62.8258 35.4199L62.4984 35.6101L62.1666 36.2405L61.8743 36.7803C61.6813 37.1357 61.4869 37.4839 61.2896 37.835C60.892 38.5342 60.4784 39.2392 60.0253 40.0101L59.9843 40.0803L59.9595 40.1213L59.92 40.1827L59.8455 40.3012C59.7987 40.3714 59.7534 40.4475 59.7066 40.5162C59.6628 40.4256 59.6204 40.3334 59.578 40.2427L59.5181 40.1184L59.483 40.0467L59.4011 39.8902C59.1819 39.4699 58.9592 39.0505 58.7331 38.6322C58.2815 37.794 57.8152 36.9631 57.3329 36.1571C57.2232 35.9728 57.1531 35.8558 56.9806 35.5457L56.5304 35.2999L56.1942 35.1069C55.9677 34.9752 55.7455 34.8421 55.5248 34.709C55.0863 34.4413 54.6595 34.1677 54.2297 33.8913C53.8 33.6148 53.3703 33.3383 52.9244 33.0619L52.5868 32.8542C52.5663 32.8425 52.5766 32.8542 52.5736 32.8454V32.8366C52.573 32.8342 52.573 32.8317 52.5736 32.8293C52.5746 32.8263 52.5767 32.8238 52.5793 32.8222C52.582 32.8206 52.5852 32.82 52.5883 32.8205C52.5883 32.8205 52.5795 32.8205 52.5795 32.8103C52.5795 32.8 52.5795 32.8103 52.5795 32.8103L52.6175 32.7869L52.6993 32.7386L53.0209 32.544C53.4521 32.2822 53.8804 32.0116 54.3072 31.738C54.734 31.4645 55.1593 31.1866 55.5862 30.913L56.2234 30.502L56.5421 30.3001L56.7043 30.1977L56.944 30.0515C56.9864 29.9666 57.0274 29.8818 57.0698 29.7984L57.1516 29.6272C57.9044 28.065 58.6352 26.589 59.4625 25.075C59.6525 24.7269 59.8484 24.3846 59.7256 24.3173C59.5634 24.2281 59.445 24.5046 59.2096 24.9361C58.7638 25.7523 58.3005 26.5451 57.8357 27.3219C57.6047 27.712 57.3733 28.102 57.1414 28.4921C56.928 28.8622 56.7131 29.2308 56.4982 29.6024C56.431 29.636 56.2176 29.7487 56.0597 29.8394L55.5438 30.1334C55.2003 30.3279 54.8568 30.5269 54.5206 30.736C53.9286 31.0973 53.3513 31.4177 52.7812 31.7205L50.6735 32.8308L51.4189 33.2476L52.1761 33.6631C52.5429 33.8591 52.9171 34.0507 53.3059 34.2336C54.4855 34.7924 55.231 35.4769 56.2921 36.0869L56.4047 36.1527L56.583 36.4716C56.6649 36.6106 56.7453 36.7481 56.8242 36.8856L57.3109 37.6931C57.6538 38.2506 57.968 38.8252 58.2523 39.4148C58.34 39.6035 58.432 39.7863 58.5256 39.9662C58.5724 40.0555 58.6191 40.1447 58.6718 40.2325L58.8252 40.5119C59.1336 41.0677 59.4406 41.5972 59.7285 42.0829L60.3132 40.9288L60.5778 40.3963L60.759 40.0218C61.0031 39.523 61.2604 39.0198 61.5542 38.5137C61.8027 38.0851 62.0541 37.6653 62.3084 37.2498L62.6899 36.6325L62.8814 36.3268L62.9735 36.1805L63.0202 36.1191L63.1021 36.0884L63.2804 36.005L63.6385 35.8397L64.3504 35.5091L65.7653 34.8421C66.2345 34.6168 66.7022 34.3886 67.1685 34.1502L67.5412 33.9571L68.2326 33.587L69.6182 32.8308C69.1315 32.566 68.6389 32.3027 68.1493 32.0452L67.4491 31.681L67.0705 31.4996C66.3996 31.1822 65.7243 30.8194 65.0403 30.4566C64.6997 30.2753 64.3547 30.0939 64.0083 29.9183L63.488 29.6609C63.3574 29.5905 63.2215 29.5303 63.0816 29.481L63.0509 29.4488L63.0436 29.4415C63.0436 29.4415 63.0436 29.4415 63.0305 29.4239L62.991 29.3654L62.8331 29.1357C61.9956 27.9421 61.2355 26.7602 60.4711 25.432L60.2211 24.9346C60.0311 24.5865 59.8484 24.2369 59.7256 24.3042Z" fill="#063844"/>
<path d="M121.62 111.732L123.232 114.683L126.181 116.295L123.232 117.908L121.62 120.858L120.008 117.908L117.06 116.295L120.008 114.683L121.62 111.732Z" fill="#FFD58E"/>
<path d="M121.63 111.726C121.468 111.815 121.57 111.941 121.698 112.174C121.934 112.607 122.165 113.04 122.389 113.474L122.721 114.128L123.076 114.838L123.308 114.984L123.487 115.094L123.842 115.313L124.551 115.761L124.906 115.987L124.95 116.017L124.973 116.033L125.013 116.063L125.083 116.12C125.15 116.171 125.211 116.228 125.266 116.292L125.181 116.318C125.098 116.341 125.02 116.375 124.947 116.42C124.907 116.444 124.924 116.442 124.78 116.529C124.674 116.594 124.567 116.663 124.462 116.733L123.839 117.153L123.529 117.361L123.374 117.462L123.295 117.512L123.202 117.57L123.007 117.686L122.816 118.062L122.67 118.354C122.567 118.544 122.462 118.73 122.352 118.917C122.243 119.105 122.132 119.289 122.015 119.481L121.926 119.627C121.902 119.663 121.891 119.678 121.873 119.704L121.779 119.835L121.622 120.042C121.578 119.941 121.535 119.839 121.492 119.735L121.435 119.609V119.595L121.421 119.567L121.376 119.482L121.287 119.314C121.046 118.863 120.791 118.42 120.518 117.997L120.476 117.93L120.423 117.842L120.299 117.627L120.006 117.471L119.824 117.364C119.704 117.292 119.586 117.218 119.471 117.14C119.241 116.994 119.02 116.826 118.798 116.663L118.463 116.42L118.421 116.39L118.402 116.375V116.359C118.4 116.351 118.4 116.342 118.402 116.334C118.405 116.324 118.411 116.316 118.419 116.31C118.428 116.304 118.438 116.301 118.448 116.302C118.476 116.281 118.197 116.369 118.849 115.933L119.51 115.446L119.84 115.205L120.005 115.086L120.253 114.924L120.376 114.655C120.745 113.796 121.107 112.99 121.546 112.18C121.648 111.993 121.756 111.811 121.633 111.741C121.471 111.652 121.42 111.807 121.293 112.033C121.054 112.472 120.794 112.886 120.533 113.299L120.141 113.918L119.802 114.47L119.721 114.511L119.596 114.577L119.321 114.732C119.138 114.838 118.957 114.949 118.777 115.069C118.622 115.173 118.469 115.268 118.314 115.361L118.083 115.49L117.791 115.636L116.516 116.292C116.77 116.438 117.038 116.592 117.318 116.741C117.465 116.814 117.601 116.887 117.744 116.959L117.957 117.063L118.01 117.086L118.049 117.103L118.128 117.137C118.423 117.265 118.697 117.437 118.941 117.646L119.298 117.939C119.357 117.987 119.42 118.034 119.485 118.085L119.584 118.152L119.635 118.184L119.654 118.199L119.695 118.225L119.719 118.268L119.765 118.345C119.809 118.42 119.854 118.492 119.901 118.563C119.993 118.71 120.085 118.847 120.177 118.988C120.374 119.279 120.543 119.589 120.682 119.912C120.693 119.94 120.701 119.959 120.717 119.993L120.772 120.111L120.891 120.345C120.971 120.5 121.053 120.652 121.136 120.799C121.302 121.091 121.467 121.362 121.62 121.603C122.05 120.699 122.417 119.848 122.694 119.4C122.832 119.173 122.975 118.952 123.121 118.736L123.341 118.413L123.452 118.255L123.512 118.193L123.558 118.183H123.58C123.591 118.182 123.601 118.179 123.611 118.174L123.808 118.095L124.201 117.939C124.463 117.835 124.723 117.73 124.982 117.62L125.366 117.453L125.415 117.431L125.505 117.386L125.689 117.294L126.061 117.105C126.559 116.85 127.071 116.578 127.557 116.308C127.033 116.024 126.479 115.742 125.95 115.487L125.144 115.094L124.593 114.813C124.409 114.718 124.223 114.623 124.035 114.533C123.941 114.489 123.846 114.446 123.751 114.405L123.678 114.374L123.643 114.359H123.631H123.579L123.538 114.333L123.525 114.324C123.517 114.317 123.51 114.308 123.504 114.299L123.455 114.241C122.94 113.641 122.476 113 122.067 112.323L121.958 112.052C121.848 111.848 121.758 111.659 121.63 111.726Z" fill="#063844"/>
<path d="M70.979 116.687L90.9528 143.27C93.8633 141.08 95.9789 137.997 96.9773 134.493C97.9758 130.988 97.8025 127.253 96.4838 123.856L88.563 103.456L70.979 116.687Z" fill="#BADFD8"/>
<path d="M70.9878 116.681C70.6954 116.903 71.3927 117.738 72.4699 119.168C77.7612 126.209 82.9735 133.621 88.2239 140.991L89.2076 142.372L89.4546 142.717L89.8098 143.206C89.9559 143.407 90.1021 143.622 90.2614 143.817L90.7219 144.402L90.7803 144.477L90.7935 144.494C90.7935 144.505 90.8052 144.494 90.811 144.494L90.8476 144.466L90.9937 144.355L91.2934 144.134C91.4936 143.988 91.6953 143.842 91.8956 143.684C91.9965 143.605 92.0958 143.538 92.1967 143.447L92.489 143.206C92.6045 143.113 92.7171 143.015 92.8281 142.913L93.1614 142.62C93.271 142.52 93.3763 142.414 93.483 142.31C93.7008 142.107 93.9039 141.888 94.1086 141.671C95.7344 139.912 96.9786 137.835 97.7628 135.571C98.5455 133.318 98.8522 130.927 98.6632 128.55C98.5689 127.375 98.3528 126.212 98.0186 125.082C97.944 124.798 97.8388 124.524 97.7496 124.245C97.6604 123.965 97.5435 123.695 97.4397 123.429L96.8141 121.91L92.9246 112.585L90.9908 107.939C90.6692 107.159 90.3467 106.382 90.0232 105.607L89.5043 104.348L88.8027 102.616L86.4172 104.471L84.5741 105.906L80.838 108.805C78.3225 110.749 75.7514 112.712 73.0999 114.707C71.9466 115.576 70.789 116.428 70.9571 116.652C71.1793 116.944 72.0153 116.246 73.4419 115.168L81.1289 109.383L84.9482 106.539L86.8587 105.132L87.7488 104.483L88.3963 104.02C88.6887 104.847 88.9849 105.673 89.285 106.498C89.6339 107.474 89.9784 108.449 90.3184 109.424C91.6603 113.284 92.9875 117.06 94.3249 120.784L95.332 123.563L95.5819 124.254C95.6536 124.475 95.7281 124.692 95.8012 124.912C95.9357 125.351 96.057 125.8 96.1549 126.249C96.5471 128.042 96.6317 129.889 96.4049 131.711C96.3117 132.434 96.1815 133.153 96.0146 133.863C95.8687 134.501 95.6876 135.13 95.4723 135.748C95.2745 136.335 95.0412 136.909 94.7736 137.467C94.6465 137.746 94.4959 138.013 94.3527 138.288C94.2094 138.563 94.0443 138.826 93.8659 139.086C93.3526 139.869 92.7476 140.587 92.0637 141.225C91.9029 141.383 91.7275 141.525 91.5609 141.671C91.4805 141.744 91.3869 141.817 91.3065 141.879L91.2437 141.915C91.2053 141.937 91.1652 141.956 91.1238 141.971H91.1107V141.961L91.0931 141.924L91.0639 141.857L91.0405 141.797L91.0317 141.771C91.0317 141.771 91.0317 141.771 91.023 141.756L90.9762 141.684L90.5903 141.115L89.8098 139.974C89.2807 139.211 88.7296 138.444 88.1318 137.666C83.6517 131.834 78.5563 126.307 74.0398 120.447C73.6641 119.909 73.3089 119.35 72.9377 118.811C72.0607 117.671 71.2114 116.513 70.9878 116.681Z" fill="#063844"/>
<path d="M50.9877 96.9901L24.1177 77.4209C26.26 74.4742 29.306 72.3089 32.7918 71.255C36.2776 70.201 40.0121 70.3162 43.4264 71.5829L63.9323 79.1894L50.9877 96.9901Z" fill="#BADFD8"/>
<path d="M50.9818 96.999C51.1996 96.7064 50.2846 96.1052 48.8361 95.0505C41.7221 89.8693 34.5672 84.3107 27.3918 78.8019L26.0471 77.7692L25.7094 77.5117L25.5516 77.3903L25.5194 77.361L25.4054 77.2513C25.3879 77.244 25.4054 77.2323 25.4171 77.2221L25.4463 77.1913C25.4649 77.1709 25.4839 77.1519 25.5034 77.1343L25.5297 77.1094L25.5399 77.0992L25.5545 77.0831C25.6407 76.9807 25.7314 76.8827 25.8235 76.7905L26.0968 76.498C26.1903 76.4029 26.2868 76.3107 26.3891 76.2171C26.5748 76.027 26.7765 75.8529 26.9738 75.6744C28.5632 74.2761 30.4123 73.2049 32.4156 72.5221C35.3852 71.513 38.5828 71.3835 41.6242 72.1491C41.8756 72.2047 42.1197 72.2866 42.3696 72.3539C42.6196 72.4212 42.8564 72.5104 43.1005 72.5923L44.6528 73.1321L63.0933 79.4499L62.7585 79.9502L62.6694 80.0818L62.5115 80.3071L62.1783 80.784L60.8364 82.7017C59.9351 83.9821 59.0269 85.2713 58.1119 86.5693C56.275 89.1643 54.3841 91.8012 52.4391 94.48C51.5884 95.6503 50.7319 96.8015 50.9584 96.9668C51.2508 97.1847 51.8501 96.2705 52.9054 94.8209C54.8065 92.2035 56.6921 89.609 58.5621 87.0374L61.3904 83.2005L64.5082 79.0169L62.6197 78.2855L61.1785 77.7106C60.2177 77.3206 59.2593 76.9305 58.3034 76.5404C54.5278 74.984 50.8254 73.4686 47.1522 72.0058L44.4043 70.9116L43.7041 70.6366C43.4586 70.5488 43.2174 70.4523 42.9733 70.3704C42.4793 70.2065 41.9808 70.0588 41.4736 69.9388C39.4443 69.452 37.344 69.3346 35.2732 69.5922C33.7105 69.7929 32.1896 70.2402 30.7668 70.9174C30.1375 71.2125 29.5277 71.5476 28.9412 71.9209C28.6489 72.0979 28.3726 72.2983 28.0876 72.4885C27.8026 72.6786 27.5307 72.8893 27.2603 73.1102C26.4501 73.7459 25.6789 74.4297 24.9508 75.1581C24.7711 75.3307 24.6073 75.515 24.4349 75.6905C24.3472 75.7798 24.2712 75.8675 24.1849 75.9655C24.0504 76.1221 23.9072 76.2815 23.783 76.4395C23.5257 76.7569 23.2816 77.0831 23.0243 77.4093L22.9293 77.5322L22.8811 77.5951L22.9366 77.6419L23.1647 77.8291L23.6251 78.2094L24.5533 78.9306L25.0882 79.3621L26.1699 80.2252C26.9007 80.8 27.6491 81.372 28.4486 81.941C34.4415 86.205 40.9255 89.9981 46.9593 94.2782C47.4753 94.6834 47.9737 95.1149 48.4911 95.5201C49.6649 96.367 50.8167 97.2257 50.9818 96.999Z" fill="#063844"/>
<path d="M72.885 116.428C72.8642 116.482 72.8324 116.532 72.7914 116.574C71.7449 117.637 65.8572 113.537 59.6436 107.414C53.4564 101.319 49.2774 95.5156 50.2758 94.4186L67.7881 71.5142C82.8796 51.7842 104.047 37.581 128.016 31.1018C132.073 30.0061 135.807 33.685 134.775 37.7618C128.676 61.8455 114.818 83.247 95.3436 98.6563L72.885 116.428Z" fill="white"/>
<path d="M129.924 53.7422C128.706 49.6862 126.487 46.0024 123.472 43.0309C120.457 40.0593 116.742 37.8956 112.671 36.7395C117.781 34.5075 123.048 32.6568 128.431 31.2025C129.36 30.9513 130.338 30.9479 131.269 31.1926C132.2 31.4373 133.05 31.9216 133.736 32.5973C134.421 33.2729 134.918 34.1165 135.177 35.044C135.436 35.9715 135.448 36.9507 135.211 37.8841C133.841 43.2931 132.074 48.5936 129.924 53.7422Z" fill="#BADFD8"/>
<path d="M118.678 71.8939C118.678 71.5212 118.515 71.5799 118.238 71.5564C117.674 71.5049 117.124 71.3559 116.612 71.1162C116.112 70.8808 115.655 70.5634 115.259 70.1769C114.877 69.7902 114.559 69.3442 114.318 68.8562C114.084 68.3688 113.922 67.8496 113.839 67.3153C113.746 66.8245 113.621 66.3406 113.463 65.8668C113.302 65.3831 113.198 64.8822 113.154 64.3744C113.101 63.3662 113.377 62.5062 113.849 61.5758C114.141 61.0114 114.469 60.4659 114.83 59.9424C115.186 59.4127 115.563 58.899 115.912 58.3722C116.302 57.8057 116.875 57.4917 117.455 57.2715C118.034 57.0514 118.628 56.9267 119.207 56.6845C119.687 56.4864 120.154 56.2179 120.673 55.9992C121.194 55.7574 121.756 55.616 122.329 55.5824C122.797 55.5654 123.264 55.6244 123.713 55.7571C124.17 55.8926 124.597 56.1126 124.973 56.4057C125.147 56.5422 125.299 56.6992 125.491 56.4967C125.741 56.2267 125.568 56.1386 125.329 55.9508C125.011 55.6947 124.679 55.4561 124.335 55.2361C123.99 55.0096 123.623 54.8183 123.24 54.6652C122.46 54.3323 121.595 54.2513 120.767 54.4334C120.061 54.6153 119.415 54.7151 118.782 54.8927C118.148 55.0703 117.54 55.3329 117.04 55.7967C116.758 56.0445 116.428 56.2326 116.072 56.3499C115.713 56.4666 115.378 56.6437 115.079 56.8738C114.761 57.1717 114.493 57.5185 114.284 57.9011C114.073 58.2854 113.821 58.646 113.534 58.9768C113.094 59.4464 112.9 60.0246 112.765 60.6043C112.63 61.184 112.558 61.7695 112.359 62.3565C111.989 63.4439 111.593 64.549 111.479 65.7538C111.418 66.3627 111.454 66.9776 111.586 67.575C111.725 68.1969 112.002 68.7797 112.396 69.2803C112.749 69.7581 113.128 70.2166 113.531 70.6539C113.943 71.1009 114.468 71.4275 115.051 71.599C115.173 71.6357 115.299 71.6577 115.419 71.687C115.54 71.7164 115.66 71.7413 115.777 71.7648C116.016 71.8103 116.249 71.8499 116.48 71.8837C116.943 71.9526 117.396 71.9996 117.864 72.0304C117.969 72.0686 118.078 72.0994 118.186 72.1332C118.43 72.1552 118.675 72.1742 118.678 71.8939Z" fill="#063844"/>
<path d="M123.215 43.0233C123.215 43.0233 127.941 46.1403 130.217 53.3151L123.215 43.0233Z" fill="#F7F4F2"/>
<path d="M130.339 53.1433C130.292 53.0083 130.296 52.8498 130.258 52.7148C130.199 52.5911 130.134 52.4706 130.063 52.3538C130.036 52.2892 130.023 52.1219 130 52.0603C129.976 51.9987 129.932 51.893 129.918 51.8284C129.893 51.7022 129.796 51.7492 129.771 51.623C129.746 51.4968 129.742 51.3618 129.724 51.2311C129.697 51.0996 129.658 50.9705 129.61 50.8452L129.5 50.4798C129.469 50.3456 129.424 50.2152 129.365 50.0909C129.279 49.9491 129.186 49.8124 129.085 49.6814C128.999 49.5615 128.939 49.4258 128.906 49.2823C128.887 49.0098 128.882 48.7364 128.891 48.4634C128.891 48.2886 128.871 48.1144 128.833 47.9439C128.815 47.8346 128.782 47.7284 128.734 47.6284C128.723 47.6065 128.711 47.5855 128.698 47.5653C128.657 47.5036 128.61 47.4449 128.564 47.3862C128.495 47.2013 128.171 47.1764 128.004 47.0619C127.991 47.0398 127.981 47.0167 127.972 46.9929C127.957 46.9533 127.947 46.9093 127.934 46.8682C127.907 46.8102 127.866 46.7598 127.815 46.7214C127.768 46.6774 127.717 46.6349 127.668 46.5923C127.564 46.4777 127.448 46.3753 127.321 46.2871C127.187 46.2019 127.036 46.1315 126.895 46.0552C126.755 45.9789 126.652 45.9011 126.532 45.8233C126.411 45.7455 126.265 45.6546 126.137 45.568C126.046 45.4811 125.967 45.3824 125.901 45.2745C125.834 45.1673 125.771 45.0558 125.702 44.9516C125.552 44.7268 125.38 44.5178 125.189 44.3279C124.998 44.1239 124.661 44.0784 124.474 43.8759C124.35 43.7497 124.285 43.556 124.141 43.4503C123.995 43.2405 123.746 43.2038 123.524 43.0101C123.426 42.925 123.295 42.9015 123.213 43.0292C123.131 43.1568 123.188 43.2493 123.294 43.3227C123.595 43.5384 123.558 43.8554 123.803 44.0887C123.919 44.2017 124.034 44.3426 124.243 44.5451C124.369 44.664 124.401 44.8768 124.523 44.9986C124.694 45.1644 124.732 45.1806 124.759 45.2789C124.8 45.4256 124.769 45.5885 124.837 45.6868C124.91 45.8 125.003 45.8993 125.111 45.9804C125.331 46.1254 125.498 46.3366 125.59 46.5835C125.621 46.6992 125.674 46.8078 125.746 46.9034C125.831 46.9988 125.859 47.1353 125.936 47.2366C126.002 47.3505 126.099 47.4429 126.216 47.5022C126.335 47.5535 126.363 47.6724 126.479 47.7282C126.527 47.7514 126.571 47.7821 126.609 47.8192V47.8324C126.608 47.928 126.625 48.023 126.658 48.1127C126.672 48.1707 126.691 48.2276 126.714 48.2829C126.745 48.3698 126.809 48.4409 126.892 48.481C126.925 48.5016 127.039 48.6072 127.067 48.6278C127.095 48.6483 127.095 48.7437 127.152 48.7745C127.253 48.842 127.415 48.8699 127.523 48.9345C127.561 48.9794 127.593 49.0287 127.618 49.0812C127.652 49.1665 127.68 49.2537 127.703 49.3424C127.762 49.5288 127.805 49.7225 127.871 49.903C127.947 50.0722 128.054 50.2262 128.184 50.358C128.302 50.4915 128.375 50.6515 128.485 50.788C128.588 50.916 128.668 51.0616 128.72 51.2179C128.745 51.3075 128.877 51.3515 128.9 51.4425C128.924 51.5168 128.954 51.5893 128.988 51.6597C129.05 51.8182 129.221 51.9253 129.268 52.0911C129.283 52.182 129.316 52.2692 129.363 52.3479C129.415 52.4096 129.617 52.4316 129.657 52.4947C129.716 52.6148 129.768 52.7383 129.812 52.8645C129.862 53.0113 129.959 53.0978 130.01 53.2387C130.029 53.293 130.098 53.34 130.209 53.3048C130.363 53.271 130.363 53.2196 130.339 53.1433Z" fill="#063844"/>
<path d="M55.5768 92.8105C56.5607 93.7806 60.6799 104.727 75.6328 112.571L55.5768 92.8105Z" fill="#F7F4F2"/>
<path d="M55.5768 92.8032C55.5238 92.8532 55.4844 92.9158 55.4624 92.9852C55.4479 93.0405 55.4531 93.0991 55.477 93.151C55.5254 93.2714 55.6428 93.4328 55.7703 93.6559C56.0885 94.1988 56.3877 94.7727 56.6912 95.3465L57.6151 97.0796C58.2456 98.2375 58.9114 99.3968 59.6416 100.519C61.0992 102.763 62.8443 104.853 64.9104 106.428C66.4339 107.567 68.0201 108.62 69.6616 109.581C71.2937 110.551 72.9742 111.473 74.7471 112.439C75.1166 112.64 75.4803 112.852 75.6064 112.603C75.7794 112.274 75.4774 112.176 75.0198 111.929C73.9308 111.342 72.8789 110.72 71.8641 110.061C70.8556 109.394 69.9081 108.64 69.0325 107.806C68.6029 107.405 68.2011 106.982 67.7905 106.583L67.1922 105.968L66.8989 105.666L66.6056 105.358C65.8196 104.549 65.0732 103.732 64.318 102.928C64.0303 102.623 63.7178 102.343 63.3839 102.09L62.9323 101.749C62.7856 101.633 62.639 101.517 62.4997 101.391C61.6198 100.609 61.3837 99.5861 60.6843 98.7335C60.0302 97.9293 59.2604 97.1911 58.511 96.4133C57.7454 95.6514 57.0604 94.8124 56.4669 93.9097C56.3921 93.7322 56.3481 93.5399 56.2689 93.3624C56.1773 93.1856 56.064 93.0209 55.9316 92.8722C55.9039 92.8438 55.8735 92.8183 55.8407 92.7959C55.8103 92.7755 55.7766 92.7606 55.741 92.7519C55.7116 92.7444 55.6806 92.7452 55.6516 92.7543C55.6226 92.7634 55.5967 92.7803 55.5768 92.8032Z" fill="#063844"/>
<path d="M35.8243 131.86L48.3914 129.016C53.9638 127.751 55.4302 120.745 51.031 116.404C46.6244 112.061 39.6473 113.642 38.4712 119.248" fill="#FFD58E"/>
<path d="M38.631 118.836C38.7683 118.355 38.9582 117.892 39.197 117.453C39.2469 117.346 39.3143 117.251 39.3701 117.148C39.4249 117.047 39.4851 116.949 39.5504 116.854C39.6135 116.758 39.678 116.662 39.7425 116.561C39.8071 116.46 39.8892 116.379 39.9625 116.285C40.0358 116.191 40.1825 116.052 40.3203 115.906C40.4581 115.761 40.6136 115.639 40.7089 115.56L41.0432 115.296C41.1708 115.206 41.3013 115.121 41.3952 115.06C41.7735 114.845 41.731 114.82 42.1284 114.637C42.5295 114.459 42.9476 114.323 43.3763 114.229C43.4877 114.201 43.5992 114.176 43.7121 114.159C43.825 114.141 43.9365 114.116 44.0494 114.098C44.2767 114.072 44.504 114.038 44.7313 114.032C44.9585 114.026 45.1712 114.032 45.3779 114.032C45.4865 114.032 45.5935 114.047 45.7005 114.054C45.8076 114.062 45.9146 114.069 46.0217 114.088C46.4827 114.151 46.9381 114.249 47.384 114.382C47.9211 114.536 48.4417 114.743 48.9384 114.999C49.3816 115.228 49.7981 115.504 50.1804 115.824C50.7966 116.357 51.3351 116.974 51.7803 117.657C51.8521 117.766 51.9269 117.874 51.987 117.987C52.0471 118.1 52.1205 118.212 52.1821 118.326C52.3008 118.558 52.4225 118.789 52.5223 119.031C52.5956 119.185 52.6528 119.348 52.7144 119.509C52.776 119.671 52.8258 119.835 52.8815 119.998C52.9065 120.073 52.9329 120.145 52.9519 120.224L53.0487 120.569C53.078 120.685 53.1 120.802 53.1279 120.918C53.2349 121.524 53.3625 122.162 53.3478 122.791C53.3449 122.872 53.3375 122.952 53.3259 123.033C53.3039 123.169 53.2907 123.304 53.2628 123.436C53.2203 123.637 53.1968 123.838 53.1484 124.035C53.1 124.232 53.0458 124.44 52.9886 124.643C52.8317 125.113 52.6278 125.566 52.38 125.996C52.1378 126.426 51.8449 126.826 51.5075 127.187C51.35 127.356 51.1836 127.515 51.0089 127.666C50.8278 127.81 50.6394 127.945 50.4444 128.071C50.0164 128.358 49.5544 128.591 49.0689 128.765C48.6544 128.902 48.2311 129.011 47.8019 129.091L46.5291 129.353C45.6155 129.547 44.7078 129.747 43.7972 129.952C42.8601 130.163 41.9363 130.436 40.9963 130.643C40.3922 130.777 39.7851 130.878 39.1853 131.019C38.3421 131.188 37.6309 131.393 36.6323 131.606C36.1924 131.701 35.8126 131.807 35.8228 131.857C35.8331 131.907 36.21 131.835 36.6602 131.732C37.9477 131.439 38.5665 131.389 39.7733 131.122L42.0213 130.626C42.6343 130.488 43.2531 130.394 43.869 130.253C44.7151 130.059 44.85 130.022 45.1726 129.968C45.6639 129.883 46.0144 129.846 46.4411 129.755C46.9265 129.653 47.4206 129.543 47.9075 129.424C48.1392 129.365 48.3621 129.318 48.6011 129.251L48.9574 129.152C49.0762 129.116 49.1921 129.073 49.3079 129.033L49.4839 128.973L49.654 128.901C49.7684 128.853 49.8827 128.807 49.9956 128.755C50.2156 128.643 50.4356 128.542 50.6511 128.414C51.0429 128.195 51.4064 127.928 51.7333 127.62C52.096 127.285 52.4219 126.913 52.7056 126.509C52.9888 126.104 53.2171 125.664 53.3845 125.199C53.4182 125.096 53.4549 124.993 53.4916 124.892C53.5282 124.791 53.5546 124.685 53.5883 124.581C53.65 124.375 53.6989 124.166 53.735 123.954C53.7628 123.765 53.7907 123.574 53.8156 123.383L53.823 123.35C53.8494 123.193 53.8816 123.03 53.8963 122.864C53.9109 122.698 53.9285 122.528 53.93 122.362C53.9383 122.14 53.9349 121.918 53.9197 121.697C53.9124 121.587 53.908 121.493 53.8992 121.404C53.8904 121.314 53.8758 121.247 53.864 121.175C53.8523 121.103 53.8391 121.028 53.8259 120.953C53.8127 120.878 53.7878 120.792 53.7628 120.692C53.7408 120.56 53.5781 120.008 53.5341 119.886C53.4534 119.685 53.4153 119.471 53.3112 119.258L53.1777 118.976C53.1308 118.884 53.0751 118.796 53.0311 118.705C52.9871 118.614 52.9299 118.526 52.8742 118.438L52.7056 118.178C52.6029 117.989 52.4768 117.816 52.361 117.632C52.1758 117.352 51.9761 117.082 51.7627 116.824C51.307 116.275 50.7905 115.779 50.2229 115.347C49.6723 114.929 49.0669 114.587 48.4237 114.333C47.8247 114.089 47.1999 113.913 46.5613 113.809C45.9595 113.716 45.3498 113.684 44.7415 113.712C44.6565 113.712 44.5699 113.724 44.4834 113.733C44.3969 113.742 44.3133 113.759 44.2283 113.773L43.9731 113.817L43.7209 113.868L43.5083 113.906L43.2971 113.96C43.1578 113.997 43.0185 114.032 42.8821 114.081C42.2897 114.282 41.7261 114.559 41.206 114.907C41.0594 115.002 40.9127 115.089 40.7881 115.2C40.6527 115.299 40.5247 115.407 40.4054 115.525C40.2979 115.628 40.1998 115.74 40.1121 115.861C40.0212 115.986 39.9229 116.1 39.8408 116.213C39.5325 116.584 39.2646 116.986 39.0416 117.414L38.873 117.761C38.8275 117.877 38.785 117.99 38.741 118.102C38.697 118.213 38.6618 118.329 38.6266 118.447C38.5914 118.564 38.546 118.683 38.5166 118.814C38.4668 119.015 38.4272 119.245 38.4638 119.254C38.5005 119.263 38.5665 119.104 38.631 118.836Z" fill="#063844"/>
<path d="M44.4145 119.961C44.5349 119.485 44.7785 119.05 45.1209 118.699C45.4632 118.347 45.8921 118.093 46.3642 117.961C46.8364 117.828 47.335 117.823 47.8098 117.945C48.2846 118.068 48.7188 118.313 49.0685 118.657C49.4181 119.001 49.6709 119.431 49.8013 119.904C49.9316 120.377 49.935 120.876 49.8109 121.351C49.6869 121.826 49.4399 122.259 49.0949 122.608C48.7499 122.956 48.319 123.208 47.8459 123.336L43.2032 124.62L44.4145 119.961Z" fill="#BADFD8"/>
<path d="M44.3059 120.15C44.2458 120.384 44.1666 120.611 44.1035 120.845C44.0405 121.078 44.0097 121.285 43.9569 121.505C43.929 121.618 43.8469 121.876 43.8176 121.989C43.7883 122.102 43.7443 122.283 43.7135 122.387C43.6519 122.588 43.69 122.585 43.6284 122.788C43.5668 122.99 43.4979 123.191 43.4349 123.394C43.3718 123.596 43.3146 123.816 43.2516 124.039L43.0404 124.795L43.0932 124.782L43.5331 124.673C43.6798 124.638 43.8528 124.593 43.9422 124.565C44.2033 124.488 44.4613 124.406 44.7209 124.324C44.9526 124.251 45.1828 124.192 45.4204 124.141C45.8148 124.067 46.2078 124.007 46.6008 123.947C46.856 123.907 47.1082 123.86 47.3648 123.81C47.532 123.777 47.7006 123.743 47.8678 123.699C47.9074 123.689 47.9426 123.68 47.9866 123.665C48.1138 123.627 48.2383 123.581 48.3591 123.526C48.6861 123.403 48.9456 123.132 49.1788 122.886C49.2128 122.858 49.2451 122.828 49.2756 122.796C49.3298 122.745 49.387 122.697 49.4354 122.641C49.5088 122.558 49.5741 122.469 49.6304 122.374C49.6876 122.275 49.7404 122.176 49.7873 122.08C49.9043 121.841 49.9862 121.587 50.0308 121.325C50.0666 121.068 50.0696 120.808 50.0395 120.551C50.0172 120.316 49.968 120.085 49.8929 119.861C49.8061 119.619 49.6862 119.39 49.5366 119.18L49.4471 119.048L49.3489 118.922C49.2873 118.836 49.2125 118.761 49.1421 118.679C49.0717 118.596 48.9955 118.532 48.9178 118.454C48.84 118.376 48.7579 118.307 48.6685 118.256C48.2897 117.987 47.8453 117.827 47.3824 117.791C46.9091 117.773 46.4382 117.867 46.0084 118.067C45.7242 118.168 45.4593 118.316 45.2253 118.507C45.0635 118.634 44.9238 118.786 44.8118 118.959C44.7502 119.043 44.7033 119.138 44.6461 119.233C44.5889 119.329 44.5405 119.436 44.4995 119.553C44.459 119.64 44.4309 119.733 44.4159 119.828C44.4042 119.902 44.4071 119.952 44.4306 119.96C44.454 119.967 44.4848 119.926 44.5141 119.86C44.5435 119.794 44.5757 119.7 44.6183 119.602C44.7113 119.368 44.851 119.155 45.0288 118.976C45.1985 118.815 45.3815 118.667 45.5758 118.536C45.6971 118.454 45.8251 118.381 45.9585 118.321C46.1391 118.236 46.3277 118.169 46.5216 118.122C46.7992 118.074 47.0825 118.067 47.3619 118.103C47.4391 118.108 47.516 118.118 47.5921 118.131C47.6416 118.138 47.6906 118.149 47.7388 118.162C47.8054 118.176 47.87 118.199 47.9309 118.23C48.0953 118.314 48.2523 118.412 48.4001 118.523C48.5787 118.642 48.746 118.777 48.9002 118.927C49.0496 119.066 49.1803 119.224 49.2888 119.398C49.3919 119.572 49.4658 119.762 49.5072 119.96C49.5388 120.137 49.5593 120.316 49.5688 120.495C49.5751 120.692 49.5574 120.89 49.516 121.082C49.4752 121.276 49.4238 121.467 49.3621 121.655C49.3011 121.82 49.2225 121.979 49.1274 122.127C49.0884 122.196 49.0443 122.263 48.9955 122.325L48.9852 122.334C48.8782 122.415 48.7755 122.507 48.6626 122.582L48.5526 122.654L48.4353 122.72C48.2784 122.805 48.2271 122.84 48.079 122.918C47.974 122.969 47.8663 123.014 47.7564 123.053C47.661 123.087 47.5613 123.094 47.4631 123.132C47.2827 123.2 47.1097 123.29 46.9293 123.36C46.834 123.389 46.7387 123.417 46.636 123.444C46.4894 123.483 46.331 123.516 46.18 123.552L45.2063 123.778C44.8954 123.855 44.5889 123.956 44.2883 124.057C44.1417 124.104 43.995 124.148 43.8587 124.192L43.7501 124.224H43.7325H43.7252H43.7076L43.6343 124.252L43.5316 124.289C43.5441 124.221 43.5602 124.154 43.58 124.088V124.078V124.051L43.5918 123.991L43.6123 123.872C43.6236 123.793 43.6392 123.714 43.6592 123.636C43.6974 123.507 43.7281 123.375 43.7619 123.245C43.8381 122.952 43.8704 122.679 43.951 122.393C43.9936 122.246 44.042 122.091 44.0698 121.936C44.0933 121.807 44.0698 121.643 44.1006 121.514C44.1519 121.292 44.2077 121.074 44.2648 120.851C44.3279 120.604 44.3587 120.41 44.4218 120.158C44.4467 120.064 44.4584 119.952 44.4218 119.941C44.3851 119.929 44.3396 120.021 44.3059 120.15Z" fill="#063844"/>
<path d="M119.365 73.3762C117.622 73.0908 116.01 72.2703 114.752 71.0281C111.286 67.6117 111.362 61.906 114.927 58.2827C118.491 54.6594 124.19 54.495 127.657 57.9099C127.756 58.0083 127.852 58.108 127.95 58.2034C125.482 63.4741 122.612 68.5467 119.365 73.3762Z" fill="#F7F4F2"/>
<path d="M68.6498 120.3C68.6271 120.354 68.5948 120.404 68.5545 120.447C67.5045 121.514 61.9102 117.707 56.0578 111.935C50.2332 106.197 46.3502 100.681 47.3561 99.5817L50.6467 95.345C50.3534 96.9416 54.3127 102.313 60.0083 107.925C65.5806 113.42 70.9066 117.255 72.6193 117.111L68.6498 120.3Z" fill="white"/>
<path d="M68.6586 120.306C68.6503 120.298 68.6406 120.292 68.63 120.289C68.6195 120.285 68.6082 120.283 68.597 120.284C68.577 120.283 68.5569 120.283 68.5368 120.284C68.4994 120.284 68.4621 120.288 68.4254 120.296C68.3358 120.313 68.2452 120.323 68.1541 120.327C67.8975 120.341 67.3945 120.237 66.8124 119.976C65.7668 119.505 64.7755 118.843 63.818 118.15C62.8604 117.458 61.9322 116.697 61.0318 115.911C59.2209 114.321 57.4959 112.636 55.8642 110.863C54.2218 109.098 52.6731 107.248 51.2245 105.321C50.5128 104.378 49.8506 103.398 49.2404 102.386C48.9526 101.908 48.6978 101.411 48.4779 100.898C48.3871 100.686 48.3179 100.465 48.2711 100.239C48.2711 100.216 48.2711 100.197 48.2623 100.178C48.2535 100.158 48.2623 100.164 48.2623 100.161C48.2617 100.157 48.2617 100.154 48.2623 100.15C48.2661 100.144 48.2711 100.139 48.277 100.135L48.3591 100.032L48.5277 99.8224L48.8635 99.4026L49.5337 98.5618L50.1965 97.7238V97.7106L50.2302 97.7722L50.2977 97.894C50.3417 97.9762 50.3857 98.0584 50.4326 98.1362C50.6159 98.4546 50.8095 98.7569 51.0074 99.0534C51.4019 99.6404 51.8184 100.207 52.248 100.75C53.5984 102.428 55.0386 104.032 56.5622 105.555C58.0638 107.07 59.6108 108.523 61.2136 109.935C62.8164 111.347 64.472 112.723 66.2199 114.021C67.0998 114.671 67.9913 115.306 68.9342 115.899C69.4064 116.193 69.8889 116.486 70.4007 116.741C70.6939 116.888 70.823 116.947 71.0136 117.035C71.1991 117.113 71.3909 117.175 71.587 117.22C71.6865 117.243 71.7884 117.254 71.8905 117.254H71.958L71.9008 117.302L71.7835 117.397L71.3025 117.789L70.0942 118.752C69.2481 119.434 68.3931 120.106 68.6175 120.277C68.9108 120.501 69.4885 119.971 70.5136 119.15L72.0122 117.948L72.8569 117.271L73.071 117.108L73.1766 117.023C73.1766 117.023 73.1986 117.007 73.1986 117.004H73.1824L73.1502 116.997C73.1311 116.997 73.1047 116.997 73.09 116.979L73.046 116.941C73.0094 116.925 73.0109 116.868 72.9947 116.827C72.6912 116.797 72.3788 116.756 72.1149 116.712C71.9682 116.692 71.8597 116.665 71.7409 116.639L71.565 116.601C71.5107 116.584 71.4682 116.562 71.4183 116.543C71.3245 116.504 71.2262 116.468 71.1353 116.424L70.8787 116.3C70.7394 116.228 70.6001 116.153 70.4622 116.078C69.9094 115.768 69.3742 115.428 68.8492 115.07C67.7992 114.352 66.7962 113.573 65.8181 112.762C63.8754 111.134 62.0409 109.382 60.3264 107.515C58.665 105.703 57.0916 103.87 55.6339 101.999C54.9007 101.064 54.2071 100.117 53.556 99.159C53.2334 98.6792 52.924 98.1963 52.6395 97.7106C52.4968 97.4689 52.3624 97.2244 52.2363 96.9768L52.1454 96.7949L52.1234 96.7508L52.1116 96.7274L52.097 96.698L52.0852 96.6731L51.9987 96.472C51.9415 96.337 51.877 96.2108 51.8257 96.067L51.6952 95.6032C51.1585 95.3391 50.8681 95.1909 50.7464 95.1219L50.7039 95.0969H50.6951L50.6643 95.0837L50.371 94.9561L49.7771 94.689L48.8313 95.8791L48.343 96.5058L48.0497 96.8814C47.8635 97.1295 47.686 97.3701 47.5159 97.6064C47.3458 97.8427 47.183 98.0731 47.0261 98.3005C46.947 98.4135 46.8707 98.5265 46.793 98.6381C46.7549 98.6938 46.7182 98.7496 46.6801 98.8039L46.6522 98.8465L46.6009 98.914C46.5672 98.9668 46.5232 99.0182 46.4953 99.0681C46.2777 99.43 46.1937 99.8568 46.2577 100.274L46.2797 100.421L46.3047 100.544C46.3237 100.619 46.3428 100.691 46.3633 100.762C46.4059 100.908 46.4542 101.029 46.51 101.152C46.7042 101.61 46.9347 102.052 47.1992 102.473C47.6186 103.161 48.0262 103.783 48.4222 104.389C48.8181 104.995 49.2023 105.579 49.5953 106.15C50.3765 107.329 51.2467 108.447 52.1982 109.493C54.0913 111.517 56.219 113.332 58.4289 115.03C59.5346 115.879 60.6613 116.696 61.809 117.483C62.9557 118.266 64.1127 119.029 65.3152 119.718C65.7232 120.003 66.1477 120.263 66.5865 120.498C67.091 120.717 67.635 120.915 68.1248 120.859C68.2412 120.847 68.3542 120.813 68.4577 120.758C68.5433 120.713 68.6164 120.646 68.6703 120.566C68.748 120.432 68.7231 120.327 68.6586 120.306Z" fill="#063844"/>
<path d="M73.1296 116.815C73.0417 116.778 72.9405 116.907 72.6897 116.907C72.439 116.907 71.9932 116.793 71.4462 116.54C70.3449 116.036 68.8067 115.061 67.0147 113.689C65.3386 112.402 63.73 111.011 62.1682 109.562C60.6065 108.114 59.0888 106.602 57.6326 105.036C56.1765 103.471 54.7717 101.846 53.4725 100.139C52.8208 99.2918 52.2148 98.4101 51.657 97.4978C51.3837 97.0527 51.1431 96.5882 50.937 96.1081C50.8403 95.885 50.767 95.6523 50.7185 95.414C50.7005 95.3271 50.6946 95.2382 50.7009 95.1498C50.7064 95.0635 50.7393 94.9812 50.7948 94.915L58.6679 84.7994L66.6261 74.606L68.6278 72.0627L70.6631 69.568L71.172 68.9443C71.3406 68.7359 71.5093 68.5275 71.6911 68.3294L72.7586 67.1245L73.8262 65.9197C74.184 65.5191 74.5286 65.1096 74.9084 64.7295L77.1329 62.4079L77.6902 61.8283C77.8808 61.6389 78.0773 61.4555 78.2767 61.2691L79.4381 60.1567L80.598 59.0444C80.7945 58.8609 80.9808 58.6687 81.1846 58.4926L81.7873 57.9613L84.1937 55.832L84.487 55.5663L84.7978 55.3125L85.4211 54.8062L86.6646 53.7921L87.9081 52.7795C88.3275 52.4478 88.7601 52.1353 89.1868 51.8124L91.7471 49.8958L94.3867 48.0776L95.0451 47.6241C95.2636 47.4774 95.485 47.3189 95.7094 47.1838L97.0584 46.3298L98.4075 45.4757C98.8577 45.1939 99.3006 44.8975 99.7654 44.6406L102.524 43.044L103.213 42.6448C103.445 42.5171 103.681 42.3968 103.915 42.2721L105.322 41.531L106.726 40.7899C106.961 40.6681 107.191 40.5374 107.43 40.4244L108.146 40.0825L111.007 38.7089C111.478 38.4712 111.969 38.2775 112.453 38.0661L113.905 37.441L115.355 36.8158C115.594 36.7072 115.84 36.6148 116.088 36.5223L116.821 36.2405L119.754 35.1076C120.742 34.7569 121.738 34.4296 122.726 34.0892L124.21 33.5829C124.71 33.4288 125.212 33.2894 125.712 33.1338L128.709 32.2415C129.191 32.1091 129.691 32.0551 130.19 32.0816C130.685 32.1148 131.17 32.2293 131.628 32.4206C132.551 32.8157 133.319 33.5035 133.814 34.3783C134.232 35.1112 134.43 35.9496 134.383 36.7923C134.352 37.2408 134.268 37.6841 134.134 38.1131C134.005 38.6023 133.875 39.0939 133.744 39.588C133.613 40.082 133.483 40.5712 133.353 41.0555L133.16 41.7892C133.126 41.911 133.097 42.0343 133.06 42.1561L132.947 42.5201L132.05 45.4243L131.83 46.1625L131.718 46.5249L131.591 46.883L131.083 48.3138L130.575 49.7491L130.321 50.4652L130.195 50.8218C130.152 50.9407 130.101 51.0566 130.048 51.1755L128.919 53.9888L128.638 54.6932C128.544 54.9265 128.453 55.1628 128.344 55.3917L127.722 56.7741L127.102 58.1565L126.8 58.8477C126.695 59.0781 126.598 59.3115 126.48 59.536L125.127 62.248C124.898 62.6985 124.687 63.1564 124.442 63.601L123.709 64.9218C123.219 65.8023 122.738 66.6975 122.243 67.578L120.666 70.1784C120.401 70.6099 120.146 71.0487 119.873 71.4757L119.031 72.7451C118.468 73.5904 117.912 74.4416 117.34 75.284L115.547 77.7582C115.254 78.1706 114.96 78.5873 114.645 78.9953L113.696 80.1987C113.06 81 112.432 81.813 111.79 82.6054C111.123 83.3881 110.455 84.1674 109.784 84.9432C109.447 85.3321 109.118 85.7283 108.772 86.1099L107.718 87.2413C107.011 87.9927 106.314 88.7573 105.596 89.5028L103.382 91.6894L102.826 92.2368C102.64 92.4187 102.459 92.6066 102.263 92.7783L101.104 93.829L99.9429 94.8827L99.3563 95.4096C99.1627 95.5857 98.9692 95.7632 98.7697 95.9276C95.5818 98.6366 92.2149 101.268 88.8554 103.952L78.6243 112.076C75.7472 114.355 72.873 116.614 73.0988 116.781C73.3921 117.003 75.5081 115.264 79.0642 112.453L91.7589 102.41L94.9131 99.9148L95.7006 99.2926C95.9616 99.0842 96.2197 98.867 96.4792 98.6542L98.0336 97.3731C98.5498 96.9431 99.0748 96.5263 99.5821 96.0876L101.081 94.7477L102.578 93.4093C102.703 93.2963 102.829 93.1877 102.95 93.0718L103.311 92.7225L104.033 92.0255L105.473 90.6284L106.193 89.9313C106.427 89.695 106.655 89.4499 106.886 89.2078L108.269 87.7579L108.96 87.0344C109.187 86.7908 109.426 86.556 109.642 86.3006L112.281 83.2966C112.507 83.0501 112.712 82.7874 112.924 82.5291L113.554 81.7543L114.815 80.2031C118.127 76.0212 121.164 71.6285 123.907 67.0526C127.618 60.8162 130.73 54.2416 133.201 47.4172L133.32 47.1031L133.427 46.7847L133.639 46.1463L134.062 44.8725C134.204 44.4469 134.346 44.0223 134.486 43.5987L134.697 42.9618L134.802 42.6448L134.895 42.322C135.141 41.4639 135.385 40.6069 135.628 39.7509L135.996 38.4653L136.087 38.1454C136.118 38.0324 136.146 37.8988 136.173 37.777C136.201 37.6552 136.219 37.5261 136.241 37.3999C136.263 37.2737 136.276 37.146 136.286 37.0169C136.381 35.9832 136.219 34.9421 135.814 33.9864C135.41 33.0338 134.787 32.1905 133.994 31.5254C133.2 30.8557 132.257 30.3871 131.243 30.1591C130.226 29.9377 129.171 29.9604 128.164 30.2252C122.453 31.7303 116.871 33.6863 111.469 36.0747C110.48 36.4783 109.562 36.9464 108.668 37.3764L107.348 38.0206L106.703 38.3362C106.49 38.4404 106.278 38.5431 106.074 38.659L103.673 39.9798L102.518 40.6196L102.233 40.7766L101.955 40.9469L101.405 41.2829L99.2434 42.6037C98.8885 42.8238 98.5307 43.044 98.1817 43.2597L97.1552 43.9524C95.7856 44.8784 94.3955 45.7648 93.0376 46.7803L91.4656 47.9073L90.6884 48.4591C90.4347 48.647 90.1883 48.8407 89.939 49.03C88.9463 49.7902 87.9682 50.5283 87.0062 51.2548C85.1322 52.7839 83.2654 54.2191 81.5233 55.7821C80.6435 56.551 79.7417 57.2995 78.9029 58.1169C78.0641 58.9343 77.1916 59.7238 76.3381 60.5471C75.5111 61.3983 74.6801 62.2617 73.8452 63.1373C73.6355 63.3574 73.4244 63.5775 73.2147 63.7991C73.005 64.0207 72.81 64.2599 72.6061 64.4918L71.3846 65.9036L70.6587 66.7489L70.2951 67.1715C70.1734 67.3182 70.0546 67.4533 69.9417 67.6015L68.5632 69.3625L67.1892 71.1235L65.8695 72.9007C64.1098 75.2742 62.3501 77.6565 60.5904 80.0475L50.0323 94.4894C49.8649 94.7503 49.7992 95.0637 49.8475 95.3699C49.8554 95.4439 49.8672 95.5173 49.8827 95.5901C49.8959 95.6546 49.912 95.7148 49.9282 95.7764C49.9604 95.8968 50 96.0112 50.0411 96.1228C50.2085 96.5497 50.41 96.9625 50.6438 97.3569C51.0941 98.1187 51.5881 98.8537 52.1234 99.5582C53.1748 100.961 54.3098 102.285 55.48 103.573C57.8227 106.135 60.299 108.571 62.8985 110.871C64.1259 111.998 65.3679 113.118 66.6804 114.156C68.1468 115.275 69.663 116.323 70.9447 116.898C71.584 117.182 72.1721 117.358 72.6369 117.292C72.7316 117.283 72.8234 117.255 72.9063 117.208C72.9892 117.162 73.0613 117.098 73.1179 117.022C73.1736 116.897 73.1619 116.815 73.1296 116.815Z" fill="#063844"/>
<path d="M50.8608 103.881C50.896 103.846 50.9605 103.839 50.9825 103.789C51.0177 103.705 51.0661 103.745 51.0984 103.708C51.1306 103.672 51.1658 103.66 51.1834 103.642C51.201 103.625 51.1937 103.559 51.2127 103.545H51.2201C51.3051 103.494 51.5045 103.545 51.5676 103.485C51.6028 103.449 51.6072 103.383 51.6277 103.33C51.6469 103.284 51.6695 103.239 51.6952 103.196C51.7216 103.148 51.745 103.098 51.7714 103.049C51.7993 103.015 51.8319 102.984 51.8682 102.958L51.9767 102.881C52.0516 102.823 52.1226 102.761 52.1894 102.694C52.2568 102.625 52.2363 102.483 52.3081 102.417C52.3736 102.377 52.4368 102.333 52.4973 102.286C52.5735 102.241 52.5604 102.159 52.6439 102.091C52.6528 102.086 52.6603 102.078 52.6659 102.07C52.6715 102.061 52.6751 102.051 52.6763 102.041C52.6776 102.03 52.6765 102.02 52.6732 102.01C52.6699 102 52.6644 101.991 52.6571 101.984C52.6205 101.949 52.5838 101.966 52.5516 102C52.4606 102.098 52.4049 102.128 52.3111 102.213C52.2671 102.253 52.2128 102.292 52.138 102.368C52.094 102.414 52.0178 102.427 51.9738 102.473C51.9298 102.518 51.9078 102.55 51.8726 102.562C51.8374 102.574 51.7641 102.575 51.726 102.602C51.6861 102.633 51.6506 102.67 51.6204 102.71C51.5711 102.794 51.4995 102.863 51.4136 102.909C51.3729 102.926 51.3361 102.952 51.3051 102.983C51.2743 103.019 51.2259 103.036 51.1937 103.071C51.0998 103.176 51.1116 103.419 51.0954 103.437C51.0679 103.455 51.0444 103.479 51.0265 103.507C51.0133 103.534 50.9854 103.551 50.9693 103.575C50.9395 103.613 50.9077 103.649 50.874 103.683C50.8373 103.722 50.8227 103.767 50.7845 103.805C50.7796 103.809 50.7757 103.814 50.7729 103.82C50.7702 103.826 50.7688 103.833 50.7688 103.839C50.7688 103.845 50.7702 103.852 50.7729 103.858C50.7757 103.863 50.7796 103.869 50.7845 103.873C50.8212 103.901 50.8403 103.901 50.8608 103.881Z" fill="#063844"/>
<path d="M53.1381 106.916C53.1733 106.88 53.2393 106.874 53.2599 106.822C53.2965 106.739 53.3449 106.78 53.3772 106.743C53.4094 106.706 53.4432 106.695 53.4608 106.677C53.4784 106.659 53.471 106.592 53.4901 106.579H53.4974C53.5839 106.526 53.7819 106.579 53.845 106.519C53.8816 106.482 53.886 106.414 53.9065 106.363C53.9259 106.317 53.9479 106.273 53.9725 106.229C53.9989 106.181 54.0239 106.131 54.0503 106.083C54.0772 106.047 54.1093 106.016 54.1456 105.99C54.1822 105.965 54.2189 105.94 54.2541 105.914C54.3293 105.857 54.4003 105.795 54.4667 105.728C54.5356 105.659 54.5136 105.515 54.5855 105.45C54.6324 105.408 54.7321 105.37 54.7703 105.321C54.8465 105.274 54.8348 105.193 54.9169 105.126C54.9521 105.095 54.9668 105.054 54.9301 105.019C54.8934 104.984 54.8568 105.001 54.826 105.035C54.7351 105.132 54.6793 105.163 54.5855 105.246C54.5415 105.287 54.4872 105.327 54.4125 105.403C54.367 105.447 54.2922 105.462 54.2482 105.507C54.2042 105.553 54.1822 105.585 54.147 105.597C54.1118 105.609 54.0385 105.61 54.0004 105.637C53.9602 105.668 53.9246 105.704 53.8948 105.745C53.8451 105.829 53.7736 105.897 53.6881 105.943C53.6467 105.96 53.6096 105.985 53.5795 106.018C53.5473 106.053 53.4989 106.071 53.4681 106.106C53.3728 106.21 53.3845 106.453 53.3698 106.472C53.3409 106.489 53.3167 106.513 53.2995 106.542C53.2877 106.568 53.2584 106.586 53.2437 106.61C53.2291 106.633 53.1821 106.683 53.1484 106.718C53.1147 106.753 53.0956 106.8 53.059 106.839C53.054 106.843 53.0501 106.848 53.0473 106.854C53.0446 106.859 53.0432 106.866 53.0432 106.872C53.0432 106.879 53.0446 106.885 53.0473 106.891C53.0501 106.897 53.054 106.902 53.059 106.906C53.1 106.941 53.1191 106.937 53.1381 106.916Z" fill="#063844"/>
<path d="M55.6794 109.683C55.7146 109.647 55.7806 109.64 55.8011 109.59C55.8378 109.507 55.8862 109.546 55.9184 109.511C55.9507 109.476 55.9844 109.461 56.002 109.443C56.0196 109.426 56.0123 109.36 56.0314 109.347C56.1179 109.295 56.3158 109.347 56.3789 109.288C56.4156 109.251 56.42 109.184 56.4405 109.132C56.4601 109.086 56.4821 109.041 56.5065 108.997C56.5329 108.95 56.5578 108.9 56.5842 108.851C56.6107 108.815 56.6429 108.784 56.6795 108.758C56.7162 108.732 56.7528 108.708 56.788 108.682C56.8633 108.624 56.9343 108.562 57.0007 108.494C57.0696 108.426 57.0476 108.283 57.1194 108.218C57.1832 108.178 57.2449 108.135 57.3042 108.089C57.3805 108.042 57.3687 107.96 57.4509 107.892C57.486 107.863 57.5007 107.822 57.4641 107.787C57.4274 107.751 57.3907 107.768 57.3599 107.801C57.2829 107.876 57.2022 107.947 57.118 108.014C57.0755 108.054 57.0212 108.093 56.9464 108.17C56.9009 108.215 56.8262 108.228 56.7822 108.275C56.7382 108.322 56.7162 108.352 56.681 108.363C56.6458 108.375 56.5725 108.377 56.5343 108.404C56.4934 108.435 56.4578 108.471 56.4288 108.513C56.3786 108.596 56.3073 108.665 56.222 108.711C56.1811 108.728 56.1441 108.753 56.1135 108.785C56.0812 108.821 56.0328 108.839 56.002 108.874C55.9067 108.978 55.9184 109.22 55.9038 109.238C55.8755 109.256 55.8514 109.28 55.8334 109.308C55.8217 109.335 55.7923 109.352 55.7777 109.376C55.763 109.399 55.7161 109.449 55.6823 109.485C55.6486 109.52 55.6296 109.568 55.5929 109.606C55.588 109.61 55.584 109.616 55.5813 109.621C55.5786 109.627 55.5771 109.634 55.5771 109.64C55.5771 109.647 55.5786 109.653 55.5813 109.659C55.584 109.665 55.588 109.67 55.5929 109.674C55.6413 109.708 55.6604 109.703 55.6794 109.683Z" fill="#063844"/>
<path d="M142.47 108.123C142.838 108.406 143.094 108.811 143.191 109.265C143.289 109.719 143.222 110.193 143.003 110.602C142.784 111.012 142.427 111.33 141.995 111.501C141.563 111.671 141.085 111.683 140.645 111.533C140.206 111.384 139.834 111.083 139.595 110.684C139.357 110.286 139.267 109.816 139.343 109.357C139.418 108.899 139.654 108.483 140.008 108.182C140.362 107.881 140.811 107.716 141.275 107.716" fill="white"/>
<path d="M141.206 107.654C141.127 107.65 141.049 107.65 140.97 107.654C140.933 107.654 140.895 107.654 140.859 107.669L140.749 107.697C140.695 107.7 140.642 107.707 140.589 107.716C140.555 107.729 140.495 107.753 140.46 107.763C140.394 107.785 140.383 107.763 140.313 107.789C140.243 107.816 140.175 107.841 140.106 107.867C140.038 107.902 139.972 107.943 139.911 107.99L139.735 108.124C139.674 108.174 139.616 108.23 139.564 108.29C139.507 108.368 139.458 108.452 139.417 108.539C139.379 108.615 139.337 108.688 139.29 108.758C139.194 108.872 139.107 108.994 139.028 109.12C138.976 109.207 138.934 109.299 138.904 109.395C138.883 109.458 138.869 109.524 138.863 109.59V109.636C138.866 109.727 138.875 109.817 138.889 109.907C138.907 110.011 138.936 110.112 138.976 110.209C139.041 110.353 139.12 110.489 139.213 110.616C139.257 110.673 139.294 110.733 139.342 110.786L139.438 110.92C139.488 110.981 139.543 111.038 139.602 111.091C139.649 111.131 139.696 111.168 139.748 111.203L139.895 111.3C139.933 111.334 139.976 111.358 140.015 111.389C140.06 111.423 140.109 111.45 140.162 111.469C140.228 111.499 140.29 111.533 140.356 111.56C140.422 111.586 140.483 111.621 140.551 111.648L140.656 111.693L140.765 111.73C140.837 111.759 140.911 111.78 140.986 111.805C141.056 111.83 141.129 111.844 141.203 111.847C141.276 111.851 141.348 111.848 141.42 111.838C141.499 111.838 141.576 111.815 141.653 111.806C141.731 111.797 141.8 111.783 141.884 111.774C141.923 111.776 141.963 111.776 142.002 111.774C142.046 111.774 142.09 111.774 142.136 111.774C142.254 111.764 142.37 111.734 142.477 111.684C142.567 111.646 142.65 111.597 142.727 111.537C142.805 111.47 142.875 111.393 142.934 111.309C142.958 111.279 142.985 111.252 143.014 111.228L143.074 111.181C143.101 111.153 143.122 111.121 143.139 111.087L143.195 110.986C143.239 110.906 143.276 110.823 143.305 110.736C143.327 110.649 143.343 110.559 143.35 110.469C143.362 110.388 143.373 110.309 143.378 110.228C143.384 110.142 143.384 110.055 143.378 109.969C143.387 109.897 143.378 109.822 143.398 109.756C143.41 109.686 143.417 109.614 143.42 109.543C143.423 109.388 143.402 109.233 143.359 109.084C143.295 108.938 143.217 108.8 143.126 108.67C143.078 108.582 143.021 108.5 142.954 108.425C142.885 108.299 142.73 108.278 142.62 108.171C142.568 108.123 142.508 108.099 142.473 108.139C142.438 108.178 142.473 108.225 142.529 108.268C142.64 108.373 142.735 108.496 142.809 108.63C142.882 108.714 142.945 108.806 142.998 108.903C143.022 108.991 143.041 109.081 143.052 109.172C143.078 109.23 143.09 109.294 143.086 109.358C143.066 109.419 143.049 109.482 143.036 109.545C143.036 109.612 143.036 109.681 143.036 109.749C143.045 109.813 143.045 109.878 143.036 109.942C143.029 110.007 143.009 110.07 142.976 110.127C142.947 110.177 142.921 110.229 142.9 110.283C142.877 110.341 142.847 110.396 142.812 110.447C142.78 110.501 142.755 110.56 142.739 110.62C142.739 110.682 142.681 110.716 142.667 110.767C142.66 110.792 142.649 110.816 142.634 110.837C142.593 110.854 142.554 110.877 142.519 110.905C142.495 110.921 142.467 110.934 142.445 110.95C142.42 110.968 142.397 110.989 142.376 111.012C142.353 111.032 142.33 111.053 142.309 111.075C142.264 111.118 142.215 111.157 142.162 111.191C142.143 111.206 142.123 111.22 142.102 111.232H142.087C142.041 111.225 141.993 111.232 141.951 111.253C141.91 111.269 141.87 111.288 141.829 111.303C141.823 111.306 141.818 111.312 141.815 111.319C141.753 111.339 141.689 111.356 141.625 111.369C141.56 111.378 141.495 111.383 141.429 111.385C141.353 111.384 141.278 111.375 141.205 111.358C141.168 111.35 141.133 111.345 141.098 111.336L140.995 111.3C140.957 111.283 140.921 111.262 140.886 111.238C140.852 111.216 140.818 111.192 140.787 111.166C140.75 111.136 140.711 111.109 140.671 111.085C140.633 111.058 140.593 111.034 140.555 111.009C140.52 110.98 140.479 110.958 140.435 110.948L140.303 110.898C140.265 110.884 140.231 110.865 140.193 110.849C140.155 110.833 140.133 110.769 140.081 110.749C140.017 110.738 139.955 110.715 139.898 110.683C139.851 110.648 139.834 110.594 139.785 110.556C139.74 110.524 139.703 110.481 139.678 110.431C139.667 110.404 139.657 110.376 139.649 110.347C139.64 110.321 139.615 110.302 139.6 110.277C139.576 110.243 139.556 110.207 139.539 110.168V110.044C139.541 110.002 139.541 109.96 139.539 109.919C139.535 109.843 139.525 109.768 139.508 109.694C139.498 109.637 139.486 109.58 139.477 109.521C139.468 109.462 139.477 109.439 139.477 109.396C139.478 109.36 139.483 109.323 139.492 109.288C139.507 109.244 139.527 109.201 139.543 109.159C139.586 109.071 139.635 108.986 139.69 108.905C139.734 108.824 139.773 108.74 139.807 108.654C139.85 108.576 139.899 108.502 139.954 108.432C140.002 108.363 140.062 108.303 140.13 108.253C140.169 108.228 140.187 108.171 140.228 108.145L140.331 108.081C140.41 108.041 140.492 108.009 140.577 107.983C140.623 107.974 140.668 107.959 140.709 107.936C140.741 107.909 140.776 107.886 140.813 107.867L140.911 107.835L141.014 107.817C141.084 107.798 141.155 107.785 141.227 107.776C141.256 107.776 141.291 107.763 141.291 107.725C141.291 107.687 141.25 107.651 141.206 107.654Z" fill="#063844"/>
<path d="M33.6848 56.7784C34.0527 57.0616 34.3082 57.4663 34.4057 57.9205C34.5033 58.3746 34.4366 58.8486 34.2175 59.2581C33.9983 59.6676 33.6411 59.9859 33.2093 60.1564C32.7776 60.3268 32.2994 60.3383 31.8599 60.1889C31.4205 60.0394 31.0483 59.7386 30.8098 59.3402C30.5712 58.9417 30.4818 58.4715 30.5574 58.0132C30.633 57.5549 30.8688 57.1383 31.2226 56.8378C31.5765 56.5372 32.0255 56.3721 32.4896 56.3719" fill="white"/>
<path d="M32.4222 56.3103C32.343 56.3059 32.2637 56.3059 32.1846 56.3103L32.0732 56.325L31.9676 56.3529C31.9144 56.356 31.8615 56.3629 31.8092 56.3734C31.774 56.3866 31.7154 56.4101 31.6802 56.4189C31.6127 56.4424 31.6024 56.4189 31.5335 56.4468C31.4646 56.4747 31.3957 56.4967 31.3268 56.5231C31.2582 56.5583 31.1929 56.5995 31.1317 56.6464L30.9572 56.7799C30.8951 56.8304 30.8377 56.8864 30.7857 56.9472C30.7284 57.0246 30.6792 57.1077 30.639 57.1952C30.6002 57.2702 30.5576 57.3432 30.5114 57.4139C30.4152 57.5281 30.3275 57.6493 30.249 57.7764C30.1973 57.8627 30.156 57.9548 30.1258 58.0508C30.1037 58.1139 30.0894 58.1794 30.0833 58.246V58.2915C30.0856 58.3824 30.0939 58.4731 30.1082 58.563C30.1263 58.667 30.1553 58.7688 30.1947 58.8667C30.2596 59.0096 30.3392 59.1454 30.4323 59.2718C30.4762 59.3305 30.5129 59.3906 30.5613 59.4435L30.6566 59.5755C30.7061 59.6353 30.7595 59.6917 30.8165 59.7443L30.9631 59.8544L31.1097 59.9527C31.1479 59.985 31.1919 60.0099 31.23 60.0408C31.2747 60.0747 31.3241 60.1019 31.3766 60.1215C31.4411 60.1508 31.5027 60.1846 31.5687 60.2124C31.6347 60.2403 31.6978 60.2741 31.7638 60.299L31.8693 60.3445L31.9778 60.3827C32.0512 60.4106 32.1245 60.4311 32.1993 60.4561C32.2691 60.4811 32.3422 60.4955 32.4163 60.4986C32.4893 60.5023 32.5624 60.4993 32.6348 60.4898C32.7125 60.4898 32.7888 60.4678 32.8665 60.4575C32.9442 60.4473 33.0131 60.434 33.0967 60.4252C33.1378 60.4252 33.1759 60.4252 33.217 60.4252H33.3489C33.5643 60.404 33.7684 60.3192 33.9355 60.1816C34.0141 60.1152 34.0836 60.0387 34.1423 59.9542C34.1669 59.9246 34.1939 59.8972 34.2229 59.872L34.283 59.825C34.3096 59.798 34.3314 59.7668 34.3476 59.7326L34.4033 59.6298C34.4483 59.5506 34.4851 59.467 34.5133 59.3804C34.5362 59.2933 34.5514 59.2045 34.5587 59.1147C34.5705 59.0326 34.5822 58.9533 34.5866 58.8741C34.5932 58.7871 34.5932 58.6998 34.5866 58.6129C34.5954 58.5409 34.5954 58.4661 34.6071 58.4001C34.6473 58.1765 34.6337 57.9466 34.5675 57.7294C34.5038 57.5836 34.4257 57.4444 34.3344 57.3141C34.2872 57.2263 34.2296 57.1445 34.1628 57.0705C34.0939 56.9443 33.9399 56.9237 33.8285 56.8151C33.7786 56.7667 33.7185 56.7432 33.6818 56.7829C33.6452 56.8225 33.6818 56.8694 33.7375 56.912C33.9054 57.1156 34.062 57.3282 34.2068 57.5489C34.2313 57.637 34.2495 57.7267 34.261 57.8175C34.2875 57.8759 34.2995 57.9398 34.2962 58.0038C34.2747 58.0646 34.2575 58.1269 34.2449 58.1902C34.2449 58.2577 34.2449 58.3252 34.2449 58.3927C34.2537 58.4575 34.2537 58.5231 34.2449 58.5879C34.2383 58.6527 34.2178 58.7152 34.1848 58.7713C34.156 58.8218 34.131 58.8742 34.11 58.9284C34.0851 58.9857 34.0552 59.0407 34.0206 59.0927C33.9888 59.1465 33.9641 59.2043 33.9472 59.2644C33.9472 59.3261 33.8915 59.3598 33.8754 59.4185C33.8692 59.4438 33.8582 59.4677 33.8431 59.489C33.801 59.5063 33.7615 59.5295 33.7258 59.5579C33.7005 59.5717 33.676 59.5869 33.6525 59.6034C33.6275 59.6211 33.6044 59.6413 33.5836 59.6636L33.5161 59.7267C33.4714 59.7704 33.4223 59.8092 33.3695 59.8426C33.3509 59.8581 33.3313 59.8723 33.3108 59.8852H33.2947C33.2482 59.8781 33.2007 59.8853 33.1583 59.9057C33.1172 59.9219 33.0777 59.941 33.0366 59.9556C33.0333 59.9575 33.0305 59.9601 33.0282 59.9631C33.0259 59.9661 33.0243 59.9696 33.0234 59.9732C32.9618 59.9953 32.8958 60.007 32.8328 60.0231C32.7697 60.0393 32.7023 60.0378 32.6363 60.0393C32.5607 60.0381 32.4855 60.0288 32.4119 60.0114C32.3767 60.0041 32.3401 59.9982 32.3049 59.9894C32.2697 59.9806 32.2359 59.9674 32.2022 59.9542C32.1642 59.9366 32.1278 59.9154 32.0937 59.8911C32.0586 59.8703 32.0253 59.8467 31.994 59.8206C31.9578 59.79 31.919 59.7625 31.8781 59.7384C31.84 59.7106 31.8004 59.6871 31.7638 59.6621C31.7276 59.6339 31.6862 59.6129 31.642 59.6005L31.5101 59.5521C31.4719 59.5374 31.4397 59.5183 31.4016 59.5036C31.3634 59.489 31.34 59.4229 31.2901 59.4024C31.2253 59.3914 31.1629 59.3695 31.1053 59.3378C31.0584 59.3026 31.0408 59.2468 30.9939 59.2101C30.9483 59.1778 30.9111 59.135 30.8854 59.0854C30.8736 59.0575 30.8648 59.0296 30.856 59.0017C30.8472 58.9739 30.8223 58.9548 30.8077 58.9298C30.7843 58.8958 30.7637 58.86 30.7461 58.8227L30.7387 58.6965C30.7409 58.655 30.7409 58.6133 30.7387 58.5718C30.7356 58.4961 30.7253 58.4209 30.7079 58.3472C30.6977 58.2915 30.6859 58.2328 30.6771 58.1741C30.6683 58.1154 30.6771 58.0919 30.6771 58.0493C30.6781 58.0126 30.6835 57.9761 30.6933 57.9407C30.7065 57.8967 30.727 57.8541 30.7431 57.8116C30.7867 57.7245 30.8357 57.6402 30.8898 57.5592C30.9342 57.4781 30.9734 57.3943 31.0071 57.3082C31.0487 57.2298 31.0978 57.1556 31.1537 57.0866C31.2018 57.0175 31.2607 56.9565 31.3282 56.9061C31.3678 56.8812 31.3854 56.8239 31.4265 56.799L31.5291 56.7344C31.6083 56.6946 31.6907 56.6617 31.7755 56.6361C31.8216 56.6273 31.8661 56.6115 31.9075 56.5891C31.9397 56.5626 31.9746 56.5395 32.0116 56.5202L32.1098 56.4879L32.2125 56.4703C32.2821 56.4511 32.3532 56.4379 32.4251 56.4306C32.4559 56.4306 32.4896 56.4174 32.4896 56.3778C32.4896 56.3382 32.4647 56.3074 32.4222 56.3103Z" fill="#063844"/>
<path d="M108.193 19.496C108.56 19.7795 108.815 20.1842 108.912 20.638C109.008 21.0919 108.941 21.5654 108.722 21.9742C108.502 22.3831 108.145 22.7007 107.713 22.8705C107.282 23.0403 106.804 23.0512 106.365 22.9014C105.926 22.7516 105.555 22.4507 105.317 22.0523C105.079 21.654 104.99 21.1841 105.066 20.7263C105.142 20.2684 105.378 19.8525 105.731 19.5525C106.085 19.2524 106.534 19.0879 106.998 19.088" fill="white"/>
<path d="M106.929 19.0264C106.85 19.022 106.771 19.022 106.693 19.0264L106.58 19.041L106.471 19.0704C106.418 19.0731 106.364 19.0795 106.312 19.0895C106.269 19.1068 106.226 19.122 106.182 19.135C106.116 19.1585 106.106 19.135 106.036 19.1629C105.965 19.1907 105.899 19.2127 105.829 19.2406C105.76 19.2752 105.695 19.3165 105.634 19.3639L105.46 19.4974C105.397 19.5479 105.34 19.6039 105.288 19.6647C105.232 19.743 105.183 19.826 105.141 19.9128C105.104 19.9884 105.061 20.0614 105.014 20.1314C104.918 20.2465 104.83 20.3681 104.751 20.4954C104.7 20.5812 104.658 20.6728 104.628 20.7683C104.606 20.8314 104.593 20.897 104.587 20.9635V21.009C104.59 21.1005 104.599 21.1916 104.613 21.282C104.63 21.3858 104.659 21.4872 104.7 21.5843C104.765 21.7274 104.844 21.8636 104.936 21.9908C104.981 22.048 105.017 22.1082 105.065 22.161L105.162 22.2945C105.211 22.3538 105.265 22.4097 105.322 22.4618C105.367 22.5 105.416 22.5367 105.468 22.5734L105.615 22.6702C105.653 22.7025 105.696 22.7275 105.735 22.7597C105.78 22.7928 105.83 22.8194 105.882 22.839C105.948 22.8683 106.009 22.9036 106.075 22.93C106.141 22.9564 106.203 22.9916 106.27 23.0166L106.376 23.0621L106.485 23.1002C106.556 23.1281 106.631 23.1501 106.706 23.1736C106.776 23.1992 106.849 23.214 106.923 23.2176C106.996 23.2201 107.068 23.2166 107.14 23.2073C107.219 23.2073 107.295 23.1853 107.373 23.1765C107.451 23.1677 107.52 23.1516 107.603 23.1442H107.722C107.766 23.1442 107.81 23.1442 107.856 23.1442C107.973 23.1335 108.088 23.1033 108.196 23.0547C108.285 23.0169 108.37 22.9675 108.447 22.908C108.525 22.8407 108.594 22.7638 108.653 22.679C108.677 22.6495 108.704 22.622 108.733 22.5969L108.794 22.5499C108.82 22.5225 108.842 22.4914 108.859 22.4574L108.914 22.3547C108.958 22.2749 108.995 22.1914 109.024 22.1052C109.047 22.0182 109.063 21.9293 109.07 21.8396C109.08 21.7589 109.093 21.6797 109.096 21.5989C109.103 21.512 109.103 21.4247 109.096 21.3377C109.096 21.2673 109.096 21.191 109.117 21.1249C109.129 21.0546 109.136 20.9835 109.137 20.9121C109.141 20.7573 109.12 20.6029 109.077 20.4543C109.012 20.309 108.934 20.17 108.844 20.039C108.796 19.9517 108.738 19.87 108.672 19.7954C108.604 19.6691 108.448 19.6486 108.338 19.54C108.287 19.4916 108.227 19.4681 108.191 19.5092C108.156 19.5503 108.191 19.5943 108.247 19.6369C108.358 19.7432 108.452 19.866 108.526 20.0008C108.599 20.0843 108.663 20.1759 108.716 20.2738C108.741 20.3619 108.759 20.4516 108.771 20.5423C108.797 20.6008 108.808 20.6648 108.804 20.7287C108.783 20.7896 108.767 20.8519 108.755 20.9151C108.755 20.9826 108.755 21.0501 108.755 21.1176C108.763 21.1824 108.763 21.248 108.755 21.3128C108.748 21.3782 108.727 21.4414 108.693 21.4977C108.664 21.5476 108.639 21.5996 108.618 21.6532C108.595 21.711 108.565 21.7661 108.53 21.8176C108.498 21.8715 108.473 21.9298 108.457 21.9908C108.457 22.0509 108.4 22.0862 108.385 22.1375C108.378 22.1626 108.367 22.1864 108.353 22.208C108.311 22.2253 108.272 22.2486 108.237 22.2769C108.212 22.2931 108.186 22.3048 108.162 22.3224C108.137 22.3405 108.114 22.3606 108.093 22.3826L108.027 22.4472C107.982 22.4899 107.933 22.5287 107.881 22.5631C107.86 22.5763 107.842 22.5925 107.82 22.6042H107.806C107.759 22.5973 107.712 22.605 107.669 22.6262C107.628 22.6423 107.589 22.6614 107.548 22.6761C107.548 22.6761 107.536 22.6761 107.533 22.6922C107.471 22.7125 107.408 22.7291 107.344 22.7421C107.278 22.7421 107.213 22.7583 107.147 22.7583C107.072 22.7579 106.996 22.7485 106.923 22.7304C106.886 22.7231 106.851 22.7172 106.816 22.7084C106.781 22.6984 106.747 22.6867 106.713 22.6732C106.676 22.6525 106.64 22.6279 106.608 22.5998C106.572 22.5794 106.539 22.5558 106.508 22.5293C106.471 22.4987 106.432 22.4712 106.391 22.4472C106.354 22.4208 106.314 22.3973 106.276 22.3709C106.241 22.3423 106.2 22.3214 106.156 22.3092L106.023 22.2608C105.986 22.2476 105.952 22.227 105.914 22.2124C105.876 22.1977 105.854 22.1316 105.803 22.1111C105.738 22.1007 105.675 22.0789 105.618 22.0465C105.572 22.0113 105.553 21.9555 105.506 21.9189C105.461 21.8872 105.424 21.8442 105.399 21.7941C105.388 21.7662 105.379 21.7384 105.37 21.7105C105.361 21.6826 105.336 21.665 105.322 21.6386C105.298 21.6046 105.277 21.5687 105.259 21.5314V21.4052C105.261 21.3642 105.261 21.323 105.259 21.282C105.255 21.2059 105.245 21.1303 105.228 21.056C105.218 21.0002 105.206 20.943 105.197 20.8843C105.188 20.8256 105.197 20.8006 105.197 20.7595C105.198 20.7224 105.202 20.6854 105.212 20.6495C105.225 20.6054 105.245 20.5629 105.263 20.5203C105.306 20.4329 105.355 20.3486 105.41 20.2679C105.454 20.1867 105.493 20.1029 105.527 20.017C105.569 19.9387 105.618 19.8645 105.674 19.7954C105.723 19.7269 105.781 19.666 105.848 19.6149C105.889 19.5899 105.907 19.5327 105.948 19.5077L106.051 19.4432C106.129 19.4029 106.212 19.3705 106.297 19.3463C106.343 19.337 106.387 19.3207 106.427 19.2979C106.46 19.2717 106.496 19.2486 106.533 19.2289L106.631 19.1981L106.732 19.1805C106.803 19.1617 106.874 19.148 106.946 19.1394C106.976 19.1394 107.01 19.1262 107.011 19.0865C107.012 19.0469 106.973 19.0249 106.929 19.0264Z" fill="#063844"/>
<path d="M39.7206 80.3263C39.5886 80.1957 39.5314 80.294 39.4009 80.4231C38.3332 81.4823 37.1988 82.472 36.0047 83.3861C35.4284 83.8263 35.0706 84.4486 34.6263 84.9739C34.1954 85.4636 33.7224 85.9144 33.2127 86.3211C32.5352 86.8644 31.9094 87.4691 31.343 88.1276C30.7565 88.8511 29.9529 89.127 29.2901 89.8065C28.7431 90.3671 28.3398 91.117 27.8588 91.7524C27.4831 92.2648 27.072 92.7503 26.6285 93.2053C26.5244 93.3094 26.4144 93.4078 26.5142 93.5076C26.6461 93.6382 26.7033 93.5384 26.8324 93.4092C27.5304 92.7122 28.3604 92.2132 28.9718 91.4207C29.4968 90.7413 30.1611 90.3817 30.6406 89.7184C30.9339 89.3207 31.3592 89.2356 31.6994 88.9318C32.0982 88.5752 32.2859 88.1364 32.7464 87.8077C33.3535 87.3675 33.6057 86.6968 34.1688 86.2052C35.2158 85.2909 36.4681 84.7377 37.2805 83.6091C37.6471 83.1014 38.1853 82.6963 38.4976 82.1108C38.7563 81.6206 39.0724 81.163 39.4391 80.7475C39.4948 80.7093 39.549 80.6682 39.6048 80.6286C39.7103 80.5244 39.8188 80.4202 39.7206 80.3263Z" fill="#063844"/>
<path d="M35.3404 102.3C35.3594 102.279 35.3917 102.273 35.4152 102.255C35.436 102.239 35.4551 102.221 35.4723 102.201C35.4811 102.191 35.5207 102.192 35.531 102.182C35.5413 102.17 35.5531 102.159 35.5662 102.15C35.5897 102.14 35.6043 102.15 35.6278 102.142C35.6513 102.135 35.6791 102.126 35.704 102.116C35.728 102.105 35.7499 102.09 35.7686 102.072C35.7888 102.058 35.8099 102.044 35.8316 102.032C35.857 102.023 35.8799 102.008 35.8991 101.988C35.9178 101.962 35.934 101.934 35.9475 101.905C35.9544 101.892 35.9638 101.881 35.9751 101.872C35.9864 101.863 35.9995 101.856 36.0135 101.852C36.0754 101.847 36.1377 101.847 36.1997 101.852C36.2381 101.851 36.2763 101.847 36.3141 101.84C36.3359 101.836 36.3567 101.828 36.3757 101.817L36.3859 101.808C36.4027 101.786 36.4179 101.763 36.4314 101.739C36.4505 101.711 36.4648 101.679 36.4739 101.646C36.4871 101.592 36.4944 101.533 36.5091 101.479C36.5091 101.454 36.5223 101.429 36.5296 101.406L36.559 101.36C36.573 101.338 36.5848 101.313 36.5941 101.288C36.6103 101.249 36.6191 101.205 36.6352 101.165C36.6452 101.152 36.6559 101.139 36.6675 101.127C36.6805 101.112 36.6904 101.095 36.6968 101.077C36.7185 101.033 36.7507 100.994 36.7906 100.966C36.8345 100.931 36.8841 100.904 36.9373 100.886C36.9628 100.88 36.9864 100.868 37.0062 100.851C37.0223 100.835 37.0355 100.814 37.0517 100.795C37.0676 100.775 37.0847 100.755 37.103 100.737C37.1238 100.72 37.1471 100.707 37.1719 100.697C37.1885 100.695 37.2052 100.695 37.2218 100.697H37.2804C37.3193 100.696 37.3576 100.687 37.3933 100.672C37.4213 100.659 37.4466 100.641 37.4681 100.619C37.4881 100.592 37.5025 100.561 37.5106 100.528C37.5177 100.518 37.528 100.51 37.54 100.506L37.5649 100.499C37.5781 100.499 37.581 100.481 37.5854 100.47C37.5912 100.458 37.5961 100.446 37.6001 100.434C37.6164 100.408 37.6288 100.38 37.6368 100.351C37.6441 100.318 37.6456 100.28 37.65 100.245C37.6547 100.215 37.662 100.186 37.672 100.157C37.6822 100.126 37.6896 100.094 37.7013 100.063C37.7146 100.043 37.7327 100.026 37.7541 100.015L37.8215 99.9808C37.8668 99.9549 37.9082 99.9228 37.9447 99.8854C37.9828 99.8487 37.977 99.7666 38.018 99.7387C38.0426 99.7144 38.0643 99.6873 38.0825 99.658C38.1324 99.6404 38.0825 99.5391 38.1339 99.5112C38.1544 99.4965 38.1559 99.4672 38.1207 99.432C38.0855 99.3967 38.0605 99.4011 38.043 99.4202C37.9946 99.4731 37.9491 99.476 37.8963 99.52C37.8714 99.542 37.8699 99.5905 37.8274 99.6315C37.7849 99.6726 37.7482 99.6492 37.7233 99.6741C37.6983 99.6991 37.6896 99.7181 37.6646 99.7196C37.6397 99.7211 37.584 99.7049 37.562 99.7196C37.5375 99.7337 37.5177 99.7546 37.5048 99.7798C37.4951 99.8053 37.4794 99.8282 37.459 99.8463C37.4385 99.8645 37.414 99.8774 37.3875 99.884C37.3619 99.8864 37.338 99.8978 37.32 99.9162C37.3039 99.9368 37.2716 99.9397 37.2526 99.9588C37.2335 99.9779 37.213 99.9911 37.213 100.028C37.213 100.064 37.1866 100.066 37.1851 100.097C37.1843 100.109 37.1813 100.121 37.1763 100.132C37.1539 100.129 37.1312 100.132 37.1103 100.141C37.0976 100.143 37.0853 100.147 37.0737 100.153C37.0519 100.168 37.0354 100.189 37.0267 100.214C37.0144 100.237 37.0007 100.259 36.9857 100.28C36.9803 100.289 36.9744 100.297 36.9681 100.305H36.9593C36.8918 100.288 36.883 100.333 36.8552 100.358C36.8552 100.358 36.8552 100.358 36.8552 100.37C36.8173 100.41 36.775 100.446 36.7291 100.477C36.701 100.495 36.671 100.51 36.6396 100.522C36.6103 100.538 36.5799 100.552 36.5487 100.563C36.5062 100.563 36.4636 100.577 36.4182 100.581C36.3715 100.588 36.3273 100.606 36.2891 100.634C36.2495 100.654 36.2451 100.712 36.2334 100.76C36.2334 100.779 36.2246 100.8 36.2217 100.822C36.2187 100.844 36.1792 100.842 36.1821 100.876C36.185 100.91 36.21 100.973 36.2026 100.999C36.1953 101.026 36.1718 101.035 36.1704 101.065C36.1725 101.091 36.1652 101.117 36.1498 101.139C36.141 101.148 36.1278 101.15 36.119 101.159C36.1102 101.168 36.119 101.187 36.1102 101.197C36.1014 101.208 36.1014 101.236 36.0941 101.252C36.0595 101.261 36.026 101.274 35.9944 101.291C35.9681 101.309 35.9489 101.336 35.9401 101.366C35.9313 101.391 35.9269 101.418 35.9181 101.442L35.8961 101.489C35.8889 101.502 35.8795 101.513 35.8683 101.522C35.8528 101.533 35.8361 101.541 35.8184 101.548C35.7818 101.567 35.7422 101.58 35.7084 101.601C35.677 101.624 35.6552 101.658 35.6469 101.696C35.6337 101.732 35.6087 101.755 35.5926 101.789C35.5794 101.819 35.5587 101.846 35.5325 101.867C35.5163 101.877 35.5325 101.915 35.5119 101.924C35.4993 101.934 35.4879 101.945 35.4782 101.958C35.4489 101.977 35.4186 101.995 35.3873 102.01C35.3726 102.021 35.3536 102.028 35.3477 102.049C35.35 102.068 35.35 102.088 35.3477 102.107C35.3336 102.13 35.3168 102.15 35.2978 102.169C35.2773 102.191 35.2759 102.222 35.2553 102.242C35.2348 102.263 35.2451 102.266 35.2729 102.294C35.3008 102.322 35.3242 102.31 35.3404 102.3Z" fill="#063844"/>
<path d="M39.81 97.8206C39.8701 97.7605 39.9434 97.7135 40.0065 97.6563C40.0695 97.599 40.1238 97.5447 40.1795 97.486C40.2074 97.4567 40.2895 97.4156 40.3188 97.3862C40.3517 97.3506 40.3864 97.3168 40.4229 97.285C40.4816 97.238 40.4977 97.2527 40.5564 97.2072C40.615 97.1617 40.6796 97.1177 40.7397 97.0722C40.8014 97.0239 40.8601 96.972 40.9156 96.9166C40.9714 96.8667 41.0271 96.8198 41.0843 96.7699C41.1486 96.7214 41.2093 96.6685 41.2661 96.6114C41.3306 96.541 41.3908 96.4646 41.4524 96.3913C41.5064 96.325 41.569 96.2663 41.6386 96.2166C41.7632 96.1418 41.8952 96.0699 42.0257 96.0097C42.1108 95.9671 42.1914 95.9173 42.2706 95.863C42.3222 95.83 42.3712 95.7932 42.4172 95.7529L42.4466 95.725C42.5052 95.6634 42.558 95.5988 42.6123 95.5357C42.6764 95.463 42.7361 95.3865 42.7912 95.3068C42.8748 95.182 42.9525 95.0544 43.0361 94.9296C43.0742 94.8709 43.1153 94.8137 43.1563 94.7579C43.1974 94.7021 43.2267 94.6757 43.2619 94.6346C43.2971 94.5935 43.3601 94.5158 43.4085 94.4541C43.4819 94.3573 43.5478 94.256 43.6212 94.1606C43.6549 94.1225 43.6901 94.0843 43.7267 94.0476C43.766 94.0073 43.8023 93.9641 43.8353 93.9185C43.9282 93.802 44.0307 93.6935 44.1417 93.5942C44.2581 93.484 44.3816 93.3816 44.5113 93.2875C44.5739 93.2435 44.6327 93.1944 44.6872 93.1407C44.74 93.0879 44.7884 93.0321 44.8339 92.9793C44.8793 92.9265 44.9409 92.8604 44.9996 92.8061C45.0582 92.7518 45.1169 92.7019 45.1785 92.6594C45.2137 92.6388 45.2474 92.6197 45.2841 92.6021C45.3207 92.5845 45.3633 92.564 45.4014 92.5449C45.5021 92.4926 45.5978 92.4312 45.6873 92.3615C45.7602 92.3049 45.8288 92.2431 45.8926 92.1765C45.9588 92.1048 46.0196 92.0283 46.0745 91.9476C46.0989 91.9205 46.1259 91.896 46.1551 91.8742L46.2138 91.8332C46.2418 91.8102 46.2661 91.783 46.2856 91.7524C46.3091 91.7245 46.3311 91.6937 46.3531 91.6644C46.4088 91.5969 46.4645 91.5308 46.5144 91.4575C46.5642 91.3841 46.6038 91.3107 46.6493 91.2285C46.6948 91.1464 46.7387 91.0935 46.7857 91.0275C46.8326 90.9614 46.8869 90.8807 46.9396 90.8074C46.9881 90.7534 47.0416 90.7043 47.0995 90.6606C47.1567 90.6136 47.2153 90.5682 47.271 90.5139C47.3928 90.4126 47.5071 90.3055 47.6201 90.1939C47.733 90.0824 47.8063 89.921 47.9251 89.8094C48.0013 89.7375 48.0717 89.6627 48.1392 89.5805C48.2565 89.4925 48.2726 89.3325 48.4016 89.2151C48.4574 89.1652 48.4911 89.105 48.4559 89.0683C48.4207 89.0317 48.3635 89.0683 48.3093 89.1241C48.1538 89.2855 48.06 89.3369 47.9075 89.4807C47.8356 89.5497 47.7799 89.6509 47.6538 89.7742C47.579 89.8505 47.4719 89.8931 47.3972 89.9694C47.296 90.0751 47.2828 90.0956 47.2315 90.1162C47.1596 90.1425 47.0908 90.1764 47.0262 90.2174C46.9608 90.2716 46.9009 90.332 46.8473 90.3979C46.751 90.5272 46.634 90.6398 46.5012 90.731C46.439 90.7686 46.3818 90.814 46.3311 90.8661C46.2754 90.9248 46.2064 90.9658 46.1507 91.0216C46.0898 91.074 46.0378 91.136 45.9967 91.205C45.9645 91.2711 45.9029 91.3107 45.8692 91.3738C45.8541 91.4019 45.8365 91.4284 45.8164 91.4531C45.7642 91.4753 45.7149 91.5039 45.6697 91.5382C45.6392 91.558 45.6098 91.5796 45.5817 91.6027C45.5229 91.6545 45.4693 91.712 45.4219 91.7744C45.3735 91.8346 45.3222 91.8918 45.2753 91.9506L45.2151 92.0195H45.1976C45.0773 92.0533 45.0128 92.1545 44.9336 92.2323C44.9302 92.2355 44.9275 92.2394 44.9257 92.2437C44.924 92.248 44.9231 92.2526 44.9233 92.2573C44.806 92.3776 44.6843 92.4921 44.5582 92.6036C44.4849 92.6696 44.4116 92.7283 44.3309 92.7885C44.2503 92.8487 44.1843 92.9088 44.1036 92.9646C44.023 93.0204 43.9159 93.0805 43.8191 93.1363C43.7067 93.2077 43.6003 93.2882 43.5009 93.377C43.4056 93.4685 43.3245 93.5739 43.2604 93.6896C43.2311 93.7351 43.2018 93.7805 43.1739 93.826C43.1188 93.8659 43.0716 93.9157 43.0346 93.9728C43.0121 94.0514 42.9841 94.1284 42.951 94.2032C42.9027 94.2571 42.8572 94.3134 42.8146 94.372C42.7842 94.4339 42.7452 94.4912 42.6988 94.5422C42.6724 94.5671 42.6401 94.5877 42.6152 94.6141C42.593 94.6416 42.5734 94.6711 42.5566 94.7021C42.5258 94.7418 42.5008 94.7873 42.47 94.8269C42.3865 94.8871 42.3014 94.9458 42.2252 95.0118C42.1539 95.0739 42.0904 95.1443 42.036 95.2216C41.9949 95.2789 41.9568 95.339 41.9143 95.3963L41.8219 95.5152C41.794 95.5489 41.7632 95.5797 41.7324 95.6105C41.7016 95.6414 41.6459 95.681 41.6034 95.7162C41.511 95.7896 41.4142 95.863 41.3233 95.9363C41.2395 96.0128 41.1652 96.099 41.1019 96.1931C41.0374 96.2797 40.9552 96.3546 40.8966 96.4382C40.834 96.5168 40.7653 96.5904 40.6913 96.6584C40.6488 96.6965 40.6341 96.7611 40.5901 96.7978C40.5461 96.8344 40.5227 96.8653 40.4889 96.8976C40.4141 96.9709 40.3276 97.0311 40.2484 97.1015C40.2044 97.1354 40.1649 97.1748 40.1311 97.2189C40.1047 97.2586 40.0857 97.3085 40.0563 97.3452C40.0035 97.4068 39.9493 97.464 39.8921 97.5213C39.8349 97.5785 39.7924 97.6504 39.7293 97.7135C39.7044 97.7384 39.6839 97.7737 39.7117 97.8015C39.7396 97.8294 39.7763 97.8544 39.81 97.8206Z" fill="#063844"/>
<path d="M23.3598 105.213C23.5065 105.066 23.6707 104.928 23.8232 104.772C23.9757 104.617 24.0857 104.479 24.2265 104.332C24.2968 104.259 24.4757 104.1 24.5476 104.028C24.6195 103.956 24.7324 103.839 24.8028 103.776C24.9391 103.651 24.9069 103.629 25.0418 103.509C25.1767 103.388 25.3219 103.264 25.4612 103.14C25.6005 103.017 25.7427 102.873 25.882 102.738C26.0213 102.603 26.1489 102.487 26.2838 102.363C26.4187 102.238 26.5771 102.095 26.7149 101.953C26.8792 101.781 27.0405 101.607 27.2018 101.431C27.3452 101.276 27.4964 101.129 27.6549 100.99C27.9277 100.767 28.2048 100.55 28.482 100.345C28.6609 100.207 28.8354 100.063 29.0113 99.9162C29.1257 99.8208 29.2401 99.721 29.3501 99.6227L29.4234 99.5493C29.4967 99.476 29.57 99.4026 29.6404 99.3234C29.8399 99.1414 29.9792 98.8831 30.1537 98.6747L30.2314 98.6028L30.3648 98.4869C30.4296 98.4269 30.4908 98.3632 30.5481 98.2961C30.6097 98.2286 30.6698 98.1596 30.73 98.0921C30.8766 97.9336 31.0233 97.7766 31.1626 97.6137C31.3019 97.4508 31.4324 97.282 31.5673 97.1162C31.7022 96.9504 31.8224 96.8139 31.953 96.6642C32.0835 96.5145 32.2374 96.3325 32.3826 96.1682C32.5087 96.0332 32.6378 95.907 32.7741 95.7808C32.9105 95.6545 33.044 95.5357 33.1759 95.4124C33.4692 95.1453 33.742 94.8738 34.0191 94.5979C34.2963 94.322 34.5441 93.9845 34.8344 93.7042C35.0192 93.5222 35.226 93.3652 35.4049 93.1788C35.6747 92.9396 35.8639 92.6902 36.1733 92.3937C36.3082 92.2631 36.4123 92.1325 36.3756 92.1002C36.339 92.0679 36.2173 92.1677 36.0824 92.3057C35.6938 92.699 35.4489 92.8178 35.0779 93.1862C34.9034 93.3579 34.701 93.5443 34.3872 93.8583C34.201 94.0447 33.9839 94.1988 33.8006 94.3866C33.676 94.5251 33.5417 94.6546 33.3988 94.774C33.2331 94.9046 33.1056 94.978 32.9662 95.1028C32.8269 95.2275 32.6642 95.3963 32.5263 95.543C32.2623 95.84 31.9792 96.1195 31.6787 96.3795C31.5401 96.4928 31.4074 96.6133 31.2813 96.7405C31.1435 96.8873 30.9881 97.0047 30.8531 97.1455C30.7099 97.2804 30.5757 97.4245 30.4514 97.577C30.3458 97.7149 30.2109 97.8279 30.1053 97.9644C30.0569 98.0261 30.007 98.0848 29.9586 98.142L29.9469 98.1493C29.8389 98.229 29.7352 98.3142 29.636 98.4047C29.5686 98.4619 29.5011 98.5206 29.4351 98.5808C29.3339 98.6698 29.2411 98.7681 29.158 98.8743C29.1243 98.9154 28.9703 99.0885 28.9351 99.1296C28.8794 99.1957 28.8046 99.2441 28.7445 99.3175C28.6359 99.4496 28.548 99.5948 28.4424 99.7284C28.3823 99.7915 28.3207 99.8546 28.2576 99.9162C28.1594 100.012 28.0552 100.103 27.9555 100.195C27.74 100.392 27.5156 100.584 27.3074 100.782C27.0991 100.98 26.9158 101.186 26.7311 101.394C26.5463 101.602 26.3703 101.777 26.1929 101.972C26.0155 102.167 25.8556 102.335 25.6753 102.506C25.5741 102.603 25.4993 102.727 25.3967 102.823C25.294 102.92 25.2295 102.989 25.1459 103.073C24.9611 103.255 24.816 103.456 24.6283 103.635C24.5285 103.73 24.4244 103.823 24.335 103.928C24.2455 104.034 24.2089 104.156 24.1311 104.241C23.9933 104.388 23.8555 104.535 23.7147 104.67C23.5739 104.805 23.4463 104.963 23.2894 105.124C23.2293 105.185 23.1721 105.271 23.1985 105.295C23.2249 105.318 23.2777 105.295 23.3598 105.213Z" fill="#063844"/>
<path d="M79.1332 119.769C79.0012 119.638 78.9601 119.72 78.859 119.822C78.0194 120.653 77.1136 121.414 76.1505 122.098C75.6842 122.434 75.432 122.945 75.0932 123.364C74.7612 123.754 74.3869 124.106 73.9773 124.414C73.4343 124.823 72.942 125.296 72.5109 125.822C72.071 126.409 71.3788 126.556 70.8626 127.096C70.4345 127.536 70.1558 128.162 69.7966 128.677C69.5183 129.091 69.2037 129.48 68.8566 129.839C68.7745 129.921 68.688 129.996 68.7877 130.096C68.9182 130.228 68.9593 130.146 69.0604 130.044C69.6074 129.497 70.2937 129.143 70.7527 128.502C71.1471 127.952 71.7014 127.704 72.0578 127.165C72.2704 126.841 72.6443 126.811 72.9171 126.578C73.2338 126.304 73.357 125.934 73.728 125.698C74.2222 125.372 74.3747 124.799 74.8234 124.422C75.6593 123.719 76.7151 123.361 77.3163 122.444C77.5876 122.032 78.0246 121.728 78.2401 121.241C78.4133 120.837 78.6467 120.461 78.9323 120.127C78.9777 120.098 79.0203 120.067 79.0672 120.037C79.1449 119.943 79.2314 119.869 79.1332 119.769Z" fill="#063844"/>
<path d="M74.8102 141.679C74.9011 141.59 75.0052 141.512 75.1035 141.422C75.2017 141.333 75.2795 141.253 75.3645 141.165C75.407 141.121 75.52 141.049 75.5639 141.005C75.6079 140.961 75.6769 140.89 75.7209 140.851C75.8059 140.778 75.822 140.793 75.9071 140.719C75.9921 140.646 76.0845 140.573 76.171 140.505C76.2576 140.438 76.3455 140.345 76.4321 140.264C76.5186 140.184 76.5963 140.118 76.6799 140.04C76.7635 139.962 76.8647 139.884 76.9468 139.796C77.0289 139.708 77.1418 139.581 77.2401 139.472C77.3249 139.375 77.4181 139.285 77.5187 139.205C77.6946 139.08 77.875 138.963 78.0568 138.847C78.1742 138.772 78.2871 138.691 78.3985 138.608C78.4718 138.552 78.5452 138.495 78.6126 138.433L78.6566 138.389C78.7446 138.298 78.8282 138.204 78.9118 138.11C78.9953 138.016 79.1068 137.891 79.1948 137.777C79.3312 137.599 79.4602 137.419 79.5966 137.243C79.6611 137.159 79.7241 137.078 79.7901 136.996L79.9544 136.816C80.0336 136.731 80.101 136.641 80.1817 136.552C80.2975 136.405 80.406 136.268 80.5219 136.13C80.5732 136.073 80.6275 136.017 80.6832 135.963C80.7389 135.909 80.7976 135.837 80.8518 135.772C80.9985 135.602 81.1542 135.44 81.3181 135.287C81.4941 135.122 81.6701 134.959 81.8607 134.808C81.9498 134.739 82.0349 134.665 82.1159 134.587C82.195 134.507 82.2698 134.425 82.3475 134.344C82.4253 134.264 82.5118 134.17 82.5998 134.086C82.6878 134.002 82.7728 133.926 82.8637 133.848C82.9107 133.815 82.959 133.782 83.0104 133.75C83.0617 133.718 83.1189 133.684 83.1717 133.649C83.3138 133.557 83.4495 133.456 83.5779 133.346C83.6834 133.258 83.7846 133.162 83.8829 133.063C83.9811 132.965 84.075 132.843 84.1674 132.73C84.2045 132.689 84.2447 132.652 84.2876 132.617L84.3727 132.55C84.413 132.514 84.4498 132.475 84.4826 132.432L84.5882 132.305C84.6747 132.205 84.7627 132.108 84.8434 132.011C84.924 131.914 84.99 131.797 85.0707 131.69C85.1513 131.582 85.2173 131.497 85.2921 131.396C85.3669 131.295 85.4563 131.186 85.5414 131.082C85.6163 130.999 85.6961 130.921 85.7804 130.847C85.864 130.775 85.949 130.701 86.0312 130.63C86.2101 130.472 86.3802 130.307 86.5503 130.14C86.7204 129.973 86.8523 129.75 87.0298 129.581C87.1442 129.471 87.2483 129.353 87.3553 129.239C87.5269 129.099 87.587 128.894 87.7777 128.715C87.8612 128.637 87.9243 128.554 87.8832 128.517C87.8422 128.48 87.7689 128.54 87.6853 128.624C87.4506 128.865 87.3187 128.954 87.0987 129.173C86.9917 129.277 86.8963 129.418 86.7057 129.613C86.5913 129.726 86.4476 129.807 86.3347 129.921C86.2618 130.008 86.1791 130.087 86.0884 130.155C85.983 130.206 85.8815 130.265 85.7848 130.331C85.6895 130.415 85.5993 130.505 85.515 130.601C85.3618 130.788 85.1882 130.958 84.9973 131.107C84.9091 131.171 84.8262 131.242 84.7495 131.32C84.6659 131.406 84.5692 131.477 84.4841 131.56C84.3949 131.641 84.3148 131.731 84.2451 131.829C84.1864 131.92 84.0984 131.985 84.0427 132.074C84.016 132.114 83.9866 132.151 83.9547 132.187C83.8843 132.231 83.8172 132.28 83.7538 132.334C83.7113 132.368 83.6688 132.401 83.6277 132.437C83.5414 132.517 83.4601 132.603 83.3843 132.693C83.3095 132.781 83.2303 132.867 83.1526 132.952C83.1218 132.987 83.0895 133.019 83.0588 133.053L83.0368 133.063C82.8895 133.151 82.7589 133.264 82.6511 133.398C82.6415 133.407 82.6349 133.419 82.632 133.432C82.4546 133.612 82.2728 133.787 82.0865 133.958C81.9795 134.058 81.8666 134.152 81.7551 134.252C81.6437 134.352 81.5381 134.44 81.4252 134.531C81.3123 134.622 81.1598 134.724 81.0248 134.824C80.8646 134.943 80.7113 135.071 80.5659 135.207C80.4236 135.344 80.2959 135.496 80.1846 135.659L80.038 135.853C79.9574 135.92 79.8855 135.996 79.8239 136.08C79.7755 136.186 79.7211 136.289 79.6611 136.389C79.5936 136.475 79.5144 136.546 79.4485 136.635C79.3928 136.722 79.3295 136.803 79.2593 136.879C79.2197 136.917 79.1757 136.951 79.1361 136.99C79.0965 137.03 79.0745 137.075 79.0393 137.117C79.0041 137.158 78.9484 137.237 78.8927 137.294C78.7724 137.389 78.6522 137.485 78.5378 137.588C78.4318 137.683 78.3338 137.786 78.2445 137.897C78.1771 137.979 78.1155 138.066 78.048 138.148C77.9982 138.204 77.9498 138.261 77.9014 138.32C77.853 138.379 77.812 138.415 77.765 138.467C77.7181 138.518 77.6389 138.577 77.5759 138.631C77.441 138.748 77.3031 138.86 77.1711 138.979C77.0461 139.095 76.9308 139.222 76.8265 139.357C76.7253 139.481 76.611 139.594 76.5068 139.717C76.4088 139.832 76.3045 139.941 76.1945 140.044C76.1314 140.101 76.0963 140.191 76.0332 140.245C75.9701 140.3 75.9306 140.347 75.8866 140.392C75.7736 140.502 75.649 140.6 75.5332 140.708C75.4698 140.76 75.4114 140.819 75.3587 140.882C75.3161 140.938 75.2795 141.005 75.234 141.06C75.1519 141.149 75.0683 141.236 74.9818 141.322C74.8953 141.409 74.8249 141.509 74.7296 141.604C74.6929 141.642 74.6577 141.691 74.6856 141.719C74.7134 141.747 74.7604 141.73 74.8102 141.679Z" fill="#063844"/>
<path d="M62.724 144.705C62.8164 144.613 62.9205 144.533 63.0173 144.442C63.1141 144.351 63.1742 144.257 63.2607 144.168C63.3047 144.122 63.4191 144.028 63.4645 143.984C63.51 143.94 63.5775 143.866 63.6229 143.827C63.7094 143.753 63.6801 143.732 63.7696 143.657C63.859 143.582 63.9485 143.51 64.0379 143.439C64.1274 143.367 64.2168 143.276 64.3033 143.193C64.3898 143.111 64.4705 143.047 64.5556 142.965C64.6406 142.882 64.7432 142.805 64.8283 142.715C64.9134 142.626 65.0263 142.496 65.1216 142.385C65.2082 142.287 65.3029 142.196 65.4046 142.113C65.5835 141.984 65.7683 141.865 65.9516 141.746C66.0718 141.67 66.1847 141.587 66.2991 141.501C66.375 141.446 66.4475 141.386 66.5161 141.322L66.5616 141.278C66.607 141.231 66.651 141.184 66.695 141.132C66.8226 141.022 66.8857 140.838 66.9883 140.703C67.0044 140.688 67.0206 140.674 67.0382 140.661L67.1247 140.592C67.166 140.556 67.2038 140.516 67.2376 140.473C67.2743 140.429 67.3095 140.385 67.3461 140.342C67.4341 140.241 67.5235 140.141 67.6042 140.035C67.6849 139.93 67.7596 139.818 67.8374 139.71C67.9151 139.601 67.984 139.514 68.0647 139.416C68.1453 139.318 68.2318 139.202 68.3183 139.096C68.3947 139.012 68.476 138.932 68.5618 138.857C68.6468 138.784 68.7333 138.71 68.8169 138.635C68.9988 138.474 69.1733 138.307 69.3448 138.136C69.5164 137.966 69.6542 137.74 69.8346 137.567C69.9519 137.455 70.0883 137.367 70.1983 137.25C70.3713 137.103 70.4769 136.942 70.6704 136.76C70.7555 136.681 70.8171 136.595 70.779 136.559C70.7408 136.522 70.6631 136.584 70.5795 136.669C70.339 136.914 70.1631 136.962 69.9328 137.187C69.8229 137.293 69.6938 137.406 69.5003 137.599C69.3844 137.715 69.2378 137.799 69.1234 137.915C69.0486 138.003 68.964 138.083 68.8712 138.153C68.7689 138.207 68.6709 138.269 68.5779 138.337C68.4804 138.423 68.3887 138.514 68.3037 138.612C68.1463 138.802 67.9694 138.975 67.7758 139.128C67.6853 139.194 67.6004 139.266 67.5221 139.346C67.4385 139.434 67.3388 139.506 67.2523 139.592C67.1613 139.674 67.0797 139.765 67.0088 139.865C66.9502 139.956 66.8622 140.024 66.8021 140.113C66.7737 140.153 66.7444 140.191 66.7141 140.228H66.7053C66.6337 140.271 66.5655 140.32 66.5015 140.374C66.4589 140.408 66.4149 140.443 66.3724 140.48C66.3079 140.534 66.2516 140.597 66.2053 140.668C66.1862 140.696 66.0938 140.807 66.0733 140.834C66.0527 140.86 65.9897 140.901 65.9545 140.95C65.8914 141.035 65.8475 141.136 65.7873 141.224C65.7507 141.265 65.714 141.303 65.6744 141.341C65.6128 141.4 65.5454 141.454 65.4823 141.51C65.3459 141.629 65.2052 141.742 65.0703 141.864C64.9428 141.983 64.8251 142.112 64.7183 142.25C64.6157 142.376 64.4998 142.49 64.3928 142.615C64.2924 142.732 64.1862 142.843 64.0746 142.948C64.0115 143.009 63.9734 143.095 63.9089 143.152C63.8443 143.21 63.8062 143.257 63.7534 143.306C63.639 143.419 63.5599 143.554 63.4426 143.665C63.3766 143.719 63.3157 143.779 63.2607 143.845C63.2167 143.901 63.2006 144.004 63.1551 144.059C63.0715 144.15 62.9865 144.238 62.8985 144.326C62.8105 144.414 62.7387 144.516 62.6404 144.62C62.6038 144.657 62.573 144.711 62.5994 144.74C62.6258 144.77 62.6727 144.756 62.724 144.705Z" fill="#063844"/>
<path d="M72.3012 135.119C72.3422 135.079 72.395 135.052 72.4375 135.013C72.4727 134.973 72.5055 134.93 72.5358 134.886C72.5534 134.865 72.6091 134.83 72.6296 134.811C72.6508 134.787 72.6738 134.764 72.6986 134.743C72.7396 134.714 72.7132 134.691 72.7543 134.661C72.7953 134.632 72.8423 134.607 72.8863 134.581C72.9287 134.549 72.9688 134.515 73.0065 134.478C73.0446 134.445 73.0842 134.416 73.1238 134.385C73.1685 134.355 73.2103 134.321 73.2485 134.283C73.291 134.234 73.3291 134.183 73.3672 134.136C73.4017 134.089 73.4451 134.05 73.4948 134.02C73.5872 133.979 73.6854 133.945 73.7881 133.911C73.85 133.89 73.9103 133.864 73.9685 133.834C74.0066 133.816 74.0421 133.793 74.074 133.766C74.0816 133.76 74.0885 133.754 74.0946 133.747C74.1136 133.726 74.1327 133.704 74.1503 133.682C74.2104 133.64 74.2045 133.527 74.2397 133.458L74.2617 133.44L74.3057 133.417C74.3244 133.402 74.3403 133.383 74.3527 133.362C74.3659 133.342 74.3791 133.32 74.3937 133.299C74.4308 133.253 74.4641 133.204 74.4934 133.153C74.5213 133.098 74.5433 133.04 74.5682 132.984C74.5931 132.928 74.621 132.886 74.6489 132.837C74.6767 132.789 74.709 132.73 74.7413 132.679C74.7726 132.64 74.8091 132.605 74.8498 132.576L74.97 132.489C75.0532 132.424 75.1325 132.354 75.2076 132.279C75.2853 132.203 75.319 132.081 75.3997 132.008C75.451 131.961 75.5258 131.937 75.5712 131.885C75.6548 131.83 75.6841 131.738 75.7721 131.665C75.8103 131.632 75.8293 131.587 75.7927 131.552C75.756 131.516 75.7164 131.535 75.6812 131.574C75.5771 131.682 75.4656 131.667 75.3615 131.763C75.3131 131.808 75.253 131.852 75.168 131.937C75.1181 131.987 75.036 132.006 74.9861 132.058C74.9363 132.109 74.9114 132.143 74.8732 132.158C74.8351 132.172 74.7559 132.177 74.7178 132.208C74.672 132.242 74.6315 132.283 74.5975 132.329C74.5388 132.421 74.4588 132.497 74.3644 132.551C74.3193 132.571 74.2785 132.599 74.2441 132.635C74.2089 132.674 74.1576 132.698 74.1195 132.736C74.0767 132.769 74.043 132.812 74.0212 132.862C74.0051 132.912 73.9611 132.935 73.9435 132.982C73.9354 133.003 73.9246 133.022 73.9113 133.04C73.8742 133.05 73.8391 133.065 73.8072 133.087C73.7854 133.099 73.7644 133.112 73.7441 133.126C73.713 133.148 73.6894 133.179 73.6766 133.214C73.6766 133.229 73.6356 133.283 73.6297 133.296C73.6239 133.31 73.5872 133.32 73.5755 133.345C73.5637 133.37 73.552 133.451 73.5344 133.492C73.5183 133.511 73.5036 133.527 73.486 133.544C73.4684 133.562 73.4244 133.588 73.3951 133.61C73.3306 133.657 73.2617 133.699 73.1986 133.748C73.1396 133.798 73.0899 133.859 73.052 133.926C73.0138 133.988 72.9625 134.038 72.9214 134.096C72.8826 134.15 72.8373 134.2 72.7865 134.243C72.7572 134.268 72.7557 134.319 72.7249 134.343C72.6942 134.366 72.681 134.388 72.6575 134.41C72.6062 134.459 72.5886 134.534 72.5343 134.578C72.5031 134.599 72.4762 134.626 72.4551 134.657C72.439 134.685 72.4551 134.754 72.439 134.78C72.4052 134.822 72.3689 134.862 72.3305 134.9C72.288 134.943 72.2689 134.991 72.2264 135.034C72.2213 135.039 72.2172 135.045 72.2144 135.051C72.2116 135.057 72.2102 135.064 72.2102 135.071C72.2102 135.078 72.2116 135.085 72.2144 135.092C72.2172 135.098 72.2213 135.104 72.2264 135.109C72.2616 135.159 72.2792 135.141 72.3012 135.119Z" fill="#063844"/>
</svg>
