<svg width="164" height="164" viewBox="0 0 164 164" fill="none" xmlns="http://www.w3.org/2000/svg">
<path d="M17.8982 30.3931C17.6863 30.6942 17.8456 30.7366 18.0532 30.8828C20.0908 32.3166 21.6021 34.7532 23.8633 35.8435C25.5428 36.6533 27.2252 37.3315 28.833 38.4628C29.0011 38.5812 29.159 38.7098 29.3198 38.4818C29.5317 38.1792 29.3724 38.1368 29.1648 37.9921C28.1709 37.292 27.1711 36.6547 26.3745 35.7237C25.6456 34.8438 24.834 34.0357 23.951 33.3105C23.5798 33.0182 23.1822 33.0007 22.8212 32.8604C22.2657 32.644 22.1459 31.9965 21.6664 31.71C20.7704 31.1766 19.4739 31.1824 18.5618 30.6548C18.499 30.5831 18.4537 30.4837 18.3923 30.4107C18.2169 30.2937 18.059 30.1636 17.8982 30.3931Z" fill="#FFE8C2"/>
<path d="M96.7367 22.3512C96.5248 22.0501 96.4312 22.1846 96.2237 22.3308C94.1846 23.7661 91.3811 24.3639 89.592 26.131C88.2619 27.4377 87.0575 28.7868 85.4496 29.9166C85.283 30.035 85.1076 30.1388 85.2684 30.3683C85.4803 30.6708 85.5739 30.5349 85.7814 30.3887C86.7768 29.6886 87.7138 28.9636 88.851 28.5281C89.9255 28.1401 90.9607 27.6507 91.9424 27.0664C92.3444 26.8165 92.4935 26.4467 92.7463 26.1544C93.1381 25.7042 93.7885 25.8109 94.2183 25.4572C95.0251 24.7922 95.4578 23.5673 96.2646 22.8906C96.3538 22.8555 96.4605 22.8467 96.5569 22.8131C96.7221 22.6845 96.8975 22.5807 96.7367 22.3512Z" fill="#FFE8C2"/>
<path d="M43.1443 13.0714C42.8096 13.2278 42.9148 13.3169 42.9981 13.5099C43.8547 15.3427 43.7421 17.7588 44.9641 19.4075C45.8718 20.6324 46.8467 21.7549 47.522 23.2004C47.5922 23.3466 47.6477 23.5074 47.9006 23.389C48.2353 23.2326 48.1315 23.1434 48.0468 22.9578C47.6287 22.0618 47.1697 21.2141 47.0397 20.2129C46.9354 19.2828 46.7235 18.3681 46.4082 17.4869C46.2708 17.1288 45.9595 16.9739 45.7461 16.7371C45.4172 16.3703 45.6745 15.8295 45.445 15.4392C45.0152 14.7084 43.9701 14.2465 43.5273 13.5142C43.517 13.4353 43.5273 13.3447 43.5273 13.2658C43.4542 13.1094 43.3972 12.953 43.1443 13.0714Z" fill="#FFE8C2"/>
<path d="M70.9863 10.9958C70.6238 10.9271 70.6633 11.0279 70.634 11.177C70.3534 12.6386 68.9516 13.9819 69.0759 15.5166C69.1665 16.6552 69.3682 17.769 69.149 18.9236C69.1256 19.045 69.0876 19.1619 69.3624 19.216C69.7249 19.2847 69.6854 19.1838 69.7146 19.0347C69.852 18.3185 69.9324 17.6126 70.3622 16.9709C70.7725 16.3989 71.0929 15.7675 71.3123 15.0986C71.3927 14.8252 71.2187 14.5884 71.1661 14.3487C71.0915 13.9819 71.6046 13.7919 71.6177 13.4571C71.6572 12.8301 71.0331 12.0657 71.0652 11.4313C71.0989 11.3816 71.1632 11.3378 71.1968 11.2852C71.2231 11.1653 71.2611 11.0484 70.9863 10.9958Z" fill="#FFE8C2"/>
<path d="M142.002 81.6714C142.002 114.543 115.138 141.193 82 141.193C72.4 141.211 62.9355 138.928 54.3994 134.535C45.8633 130.143 38.5043 123.769 32.9389 115.947C32.1281 114.806 31.3569 113.636 30.625 112.439C24.9699 103.174 21.9854 92.5269 22.0012 81.6729C22.0012 48.7994 48.8653 22.151 82.0029 22.151C115.141 22.151 142.002 48.7979 142.002 81.6714Z" fill="#F7F4F2"/>
<mask id="mask0_1535_7026" style="mask-type:alpha" maskUnits="userSpaceOnUse" x="22" y="22" width="121" height="120">
<path d="M142.002 81.6714C142.002 114.543 115.138 141.193 82 141.193C72.4 141.211 62.9355 138.928 54.3994 134.536C45.8633 130.143 38.5043 123.769 32.9389 115.947C32.1281 114.806 31.3569 113.636 30.625 112.439C24.9699 103.174 21.9854 92.5269 22.0012 81.6729C22.0012 48.7994 48.8653 22.151 82.0029 22.151C115.141 22.151 142.002 48.798 142.002 81.6714Z" fill="#F7F4F2"/>
</mask>
<g mask="url(#mask0_1535_7026)">
<path d="M121.261 126.764V143.653L152.024 167.982L179.371 218.047V237.341C179.371 237.341 203.701 267.304 205.912 269.511" fill="white"/>
<path d="M31.2053 191.963C35.8827 187.274 41.4853 182.609 49.4763 177.639C59.8045 171.208 49.7818 144.219 57.1632 117.457C57.6178 115.828 58.6342 114.412 60.0325 113.46L91.2437 92.0681C92.0536 91.5135 92.9681 91.1297 93.9313 90.9403C94.8945 90.7508 95.8862 90.7596 96.8459 90.9662C97.8056 91.1727 98.7131 91.5726 99.5131 92.1416C100.313 92.7105 100.989 93.4364 101.499 94.2751L120.208 125.035C120.896 126.167 121.259 127.466 121.259 128.79V140.159C121.259 141.249 121.506 142.325 121.981 143.306C122.457 144.287 123.148 145.148 124.003 145.824L150.871 167.064C151.633 167.666 152.265 168.415 152.731 169.267L164.408 190.646" fill="white"/>
<path d="M31.1893 191.947C31.4568 192.213 32.4829 191.061 34.348 189.345C36.2686 187.58 38.2584 185.907 40.3174 184.329C42.374 182.75 44.492 181.26 46.6509 179.842L48.2806 178.794L49.1021 178.281C49.3784 178.108 49.6458 177.949 49.9323 177.755C50.4946 177.377 51.009 176.932 51.4642 176.43C51.9095 175.925 52.3014 175.376 52.6335 174.79C52.8045 174.498 52.9478 174.206 53.0939 173.899C53.2401 173.592 53.3629 173.288 53.4754 172.975C53.7081 172.354 53.9034 171.719 54.0601 171.075C54.3694 169.798 54.5896 168.501 54.7193 167.193C54.9941 164.59 55.0453 161.982 55.0526 159.38C55.0599 156.779 55.0058 154.176 54.9722 151.571C54.9006 146.365 54.9006 141.138 55.2718 135.896C55.6212 130.927 56.1488 126.093 57.0858 121.404C57.327 120.235 57.5798 119.066 57.8707 117.918L57.9233 117.702C57.9409 117.627 57.9599 117.57 57.9774 117.505C58.0096 117.375 58.0563 117.25 58.0958 117.123C58.1848 116.873 58.2893 116.629 58.4086 116.392C58.6485 115.912 58.9486 115.465 59.3017 115.061C59.4767 114.856 59.6657 114.664 59.8673 114.485C59.9667 114.393 60.072 114.31 60.1758 114.223C60.2284 114.181 60.2839 114.143 60.3365 114.102C60.3892 114.061 60.4447 114.02 60.5076 113.976L61.9692 112.939L64.8838 110.878C72.5445 105.493 79.1805 101.056 87.3132 95.6227L90.9908 93.1657L91.4527 92.8558L91.6851 92.7009L91.9 92.5752C92.0461 92.4933 92.1821 92.3969 92.3312 92.3252L92.7843 92.1162C93.4015 91.8643 94.0527 91.7052 94.7166 91.6441C95.3828 91.5991 96.052 91.6483 96.7045 91.7903C97.3503 91.9428 97.9703 92.189 98.5447 92.5211L98.9672 92.7886L99.3589 93.0984C99.4903 93.2006 99.6139 93.3125 99.7287 93.4331C99.8521 93.5451 99.9674 93.6658 100.074 93.7942C100.179 93.9228 100.289 94.0485 100.392 94.1786L100.671 94.5951C100.764 94.7223 100.864 94.9021 100.964 95.0599L101.256 95.5467C104.384 100.743 107.563 105.946 110.757 111.017C112.47 113.738 114.059 116.37 115.581 118.963C116.346 120.258 117.096 121.547 117.833 122.828L118.939 124.75L119.216 125.231C119.306 125.39 119.403 125.557 119.473 125.688C119.623 125.97 119.751 126.263 119.855 126.565C120.063 127.166 120.177 127.795 120.194 128.43C120.194 128.509 120.194 128.588 120.194 128.667V128.924L120.178 129.481C120.167 129.853 120.159 130.224 120.148 130.597C120.113 132.086 120.077 133.591 120.04 135.111C120.008 136.635 119.982 138.181 119.964 139.754C119.952 140.196 119.965 140.64 120.004 141.081C120.054 141.551 120.142 142.016 120.267 142.472C120.395 142.933 120.562 143.383 120.765 143.815C120.974 144.252 121.218 144.671 121.496 145.068C121.963 145.728 122.521 146.319 123.154 146.822L124.783 148.088L128.063 150.602C130.263 152.276 132.479 153.945 134.712 155.608C139.168 158.939 143.645 162.254 148.014 165.569L150.659 167.582C151.06 167.901 151.424 168.265 151.742 168.666C151.9 168.867 152.046 169.077 152.181 169.295C152.311 169.505 152.448 169.756 152.583 169.992L155.81 175.692C157.947 179.492 160.062 183.293 162.199 187.202C163.182 189 164.145 190.797 164.392 190.662C164.715 190.485 163.925 189.158 162.706 186.926C159.422 180.913 156.319 174.988 153.184 169.07C152.766 168.275 152.214 167.56 151.551 166.956C151.207 166.646 150.883 166.404 150.557 166.135L149.579 165.345L145.633 162.191C142.99 160.092 140.312 157.998 137.57 155.906C132.859 152.319 128.598 148.883 124.396 145.496C123.403 144.718 122.647 143.679 122.212 142.494C121.997 141.909 121.865 141.295 121.82 140.673C121.803 140.517 121.807 140.362 121.801 140.205C121.796 140.049 121.801 139.871 121.801 139.704C121.801 139.366 121.801 139.028 121.801 138.691C121.801 135.986 121.781 133.254 121.717 130.449C121.709 130.028 121.702 129.614 121.695 129.205C121.7 128.786 121.682 128.368 121.641 127.951C121.551 127.131 121.335 126.33 121 125.576C120.92 125.39 120.831 125.21 120.737 125.034L120.591 124.772L120.445 124.529L119.893 123.562C119.53 122.921 119.172 122.284 118.818 121.651C117.403 119.117 116.041 116.612 114.414 113.894C110.614 107.533 107.082 102.387 103.247 95.7411C102.922 95.1856 102.601 94.6341 102.282 94.0865L102.161 93.8819L102.015 93.6641L101.722 93.2256C101.624 93.0794 101.503 92.9537 101.395 92.8178L101.227 92.619L101.142 92.5196L101.05 92.4275C100.809 92.1783 100.551 91.9463 100.277 91.7333C100.139 91.628 100.008 91.517 99.8646 91.4205L99.4261 91.1457C99.353 91.1004 99.28 91.0536 99.2054 91.0112L98.9745 90.8972L98.5126 90.6736L98.0332 90.4938L97.7934 90.4061C97.7116 90.3783 97.6283 90.3608 97.5464 90.3389C96.2414 89.967 94.8619 89.9423 93.5443 90.2673L93.0591 90.3944L92.5884 90.5684C92.2769 90.6868 91.9737 90.826 91.6807 90.9849C91.5331 91.0603 91.3905 91.1453 91.2539 91.2392L90.8373 91.5067L90.0977 92.0358C86.1512 94.8641 82.2193 97.7128 77.9146 100.601C73.9155 103.283 69.9675 105.872 66.0532 108.418L60.2065 112.218L59.4756 112.692C59.2038 112.872 58.9422 113.067 58.6922 113.276C58.1897 113.699 57.7401 114.181 57.3533 114.712C56.9632 115.245 56.6402 115.825 56.3915 116.438C56.3316 116.584 56.2702 116.746 56.219 116.904L56.143 117.141L56.0801 117.354L55.8346 118.198C54.5703 122.715 53.7248 127.34 53.3088 132.013C52.8703 136.69 52.8104 141.435 52.9872 146.218C53.0676 148.367 53.1495 150.558 53.2313 152.775C53.3132 154.993 53.3848 157.219 53.4199 159.448C53.455 161.677 53.4564 163.907 53.3351 166.099C53.2737 167.196 53.1773 168.28 53.0252 169.346C52.8856 170.396 52.6647 171.434 52.3646 172.45C52.1159 173.287 51.7664 174.09 51.3239 174.841C50.8824 175.576 50.3177 176.229 49.6546 176.772C49.488 176.908 49.3141 177.027 49.1357 177.158L48.5511 177.55C48.1666 177.813 47.7778 178.07 47.3963 178.339L46.246 179.139L45.103 179.953C42.0598 182.145 39.0575 184.484 36.0771 187.097C35.3536 187.689 34.6461 188.299 33.9401 188.913C33.5601 189.258 33.1903 189.613 32.8395 189.936C32.4887 190.259 32.1774 190.588 31.9113 190.865C31.4056 191.441 31.0899 191.848 31.1893 191.947Z" fill="#063844"/>
<path d="M164.408 190.652L152.73 169.273C152.265 168.421 151.633 167.672 150.871 167.07L124.004 145.822C123.149 145.146 122.458 144.285 121.983 143.304C121.508 142.323 121.261 141.247 121.261 140.157V128.788C121.26 127.464 120.897 126.165 120.21 125.034L101.499 94.2751C100.989 93.4365 100.313 92.7107 99.5128 92.1419C98.7127 91.5731 97.8052 91.1733 96.8455 90.9669C95.8859 90.7605 94.8942 90.7519 93.9311 90.9414C92.9679 91.131 92.0535 91.5148 91.2436 92.0695L98.5169 115.007L90.4938 125.155C90.4938 125.155 80.6289 147.996 84.2481 153.218C87.8672 158.441 102.358 196.529 102.358 196.529L94.87 215.476L135.434 253.446C139.321 257.084 149.084 308.621 151.26 313.48L232.282 313.99L206.039 269.41L179.291 237.309V217.936L173.141 206.787L164.491 191.912" fill="#BBE0D9"/>
<path d="M164.387 190.664C164.71 190.487 162.926 187.343 160.077 182.122L155.701 174.105L153.52 170.104L152.975 169.104C152.784 168.759 152.566 168.428 152.324 168.116C152.082 167.803 151.816 167.51 151.528 167.239C151.381 167.105 151.235 166.975 151.08 166.852L150.633 166.497L136.414 155.213L129.326 149.577L125.785 146.761L124.908 146.056L124.469 145.704L124.248 145.528L124.044 145.354C123.898 145.242 123.781 145.113 123.65 144.991C123.52 144.868 123.401 144.735 123.289 144.594C123.058 144.323 122.848 144.032 122.664 143.726C122.478 143.422 122.316 143.103 122.18 142.773C122.046 142.441 121.937 142.099 121.853 141.75C121.771 141.403 121.717 141.05 121.69 140.695C121.67 140.518 121.674 140.34 121.667 140.161V139.597L121.683 135.075L121.701 130.544V129.414V128.848C121.701 128.657 121.701 128.451 121.686 128.253C121.634 127.451 121.458 126.662 121.163 125.915C121.013 125.543 120.836 125.182 120.634 124.836L120.049 123.864L118.88 121.925C118.1 120.633 117.32 119.339 116.541 118.045L111.864 110.278C108.75 105.093 105.632 99.8979 102.509 94.6915L102.216 94.2034L102.07 93.9578C102.021 93.8774 101.958 93.7883 101.902 93.7035C101.785 93.5325 101.674 93.3571 101.55 93.1919L101.151 92.7154C100.593 92.098 99.9447 91.5696 99.2273 91.1485C98.5016 90.7469 97.7204 90.4548 96.9091 90.2818C96.0921 90.1129 95.2539 90.0715 94.4243 90.159C93.5899 90.2456 92.7755 90.4693 92.014 90.8211L91.6354 90.9995C91.5082 91.0696 91.384 91.1456 91.2583 91.2172L90.5084 91.6718L90.4134 91.7288C90.3886 91.7288 90.4134 91.7566 90.4134 91.7727L90.428 91.8253L90.488 92.0328L90.6078 92.4509L90.8709 93.2957C91.3231 94.7573 91.7752 96.2189 92.2274 97.6806C93.9814 103.371 95.7466 109.086 97.523 114.824L97.409 114.963L94.7166 118.314L91.9935 121.735L90.64 123.44L89.9662 124.291L89.7469 124.561L89.6738 124.652C89.6554 124.686 89.6393 124.722 89.6256 124.759L89.5379 124.962L89.3245 125.468C88.7632 126.812 88.2273 128.161 87.7166 129.513C86.6935 132.219 85.739 134.94 84.9044 137.698C84.0698 140.457 83.3404 143.235 82.9004 146.103C82.6899 147.538 82.5452 148.995 82.6402 150.508C82.6655 150.893 82.7144 151.276 82.7864 151.656C82.858 152.056 82.9702 152.447 83.1211 152.825C83.1994 153.026 83.2922 153.222 83.3989 153.41L83.5772 153.692L83.7087 153.898C83.795 154.035 83.8856 154.162 83.9704 154.31L84.2218 154.748C84.8883 155.938 85.4964 157.2 86.0927 158.455C86.6891 159.711 87.2621 160.988 87.8321 162.255C90.0963 167.358 92.2318 172.501 94.3263 177.651C95.6682 180.961 96.9574 184.2 98.2144 187.397C98.84 188.996 99.4602 190.584 100.075 192.162L100.989 194.528L101.442 195.708L101.661 196.281L101.733 196.443L101.765 196.528L101.731 196.612C99.2142 202.944 96.7264 209.201 94.1685 215.638L110.881 231.424L126.015 245.723L133.701 252.97L134.666 253.879L134.787 253.993L134.847 254.05C134.86 254.062 134.872 254.075 134.882 254.089C134.93 254.139 134.974 254.193 135.012 254.25C135.119 254.399 135.217 254.555 135.304 254.716C135.687 255.467 136.018 256.243 136.295 257.039C136.88 258.669 137.396 260.354 137.884 262.047C138.853 265.439 139.723 268.875 140.566 272.319C141.41 275.762 142.22 279.218 143.019 282.67C144.627 289.576 146.16 296.477 147.778 303.302C148.217 305.135 148.648 306.948 149.094 308.743C149.32 309.64 149.55 310.533 149.798 311.423C149.858 311.645 149.923 311.862 149.988 312.091C150.021 312.202 150.053 312.315 150.088 312.426L150.139 312.594L150.165 312.677L150.178 312.72L150.197 312.777L150.36 313.255C150.417 313.415 150.487 313.582 150.55 313.744L150.649 313.99L150.7 314.113L150.725 314.174C150.735 314.192 150.735 314.225 150.763 314.216L151.288 314.235L162.309 314.345C169.35 314.431 176.236 314.55 183.144 314.672C196.959 314.918 210.861 315.185 226.263 315.272L234.595 315.311L231.788 310.57L230.136 307.819L226.835 302.295L220.166 291.207L206.701 268.94L193.786 253.766L179.717 237.148C179.682 230.69 179.649 224.285 179.615 217.854C177.965 214.883 176.309 211.902 174.645 208.912C174.233 208.17 173.822 207.427 173.41 206.683L172.124 204.474L169.541 200.035C167.132 195.89 164.75 191.758 164.507 191.899C164.189 192.084 166.054 195.18 169.038 200.322C169.898 201.804 170.755 203.282 171.611 204.757L172.888 206.967C173.298 207.712 173.707 208.457 174.115 209.201C175.729 212.154 177.336 215.096 178.938 218.027C178.903 224.532 178.868 231.012 178.832 237.466L192.18 253.647C194.399 256.323 196.623 259.005 198.854 261.693L205.564 269.732L208.926 275.396C210.064 277.3 211.206 279.211 212.352 281.131C215.831 286.937 219.151 292.546 222.378 298.039L227.159 306.199L231.413 313.493L222.606 313.402L212.928 313.325C206.456 313.282 199.919 313.262 193.209 313.285C185.332 313.313 178.425 313.186 171.637 313.035L161.438 312.806L156.205 312.707L153.52 312.667L152.169 312.65H151.918H151.868C151.868 312.65 151.855 312.65 151.854 312.65V312.635L151.842 312.606C151.824 312.566 151.811 312.527 151.797 312.486C151.782 312.445 151.761 312.381 151.742 312.321L151.65 312.021C151.573 311.773 151.504 311.517 151.43 311.264C151.289 310.755 151.153 310.245 151.02 309.734C150.756 308.71 150.506 307.687 150.26 306.677C149.769 304.649 149.3 302.643 148.835 300.655C147.91 296.675 147.002 292.771 146.089 288.848C145.175 284.925 144.241 280.98 143.288 276.926C142.335 272.871 141.327 268.709 140.195 264.356C139.825 262.94 139.441 261.535 139.026 260.145C138.611 258.755 138.177 257.377 137.662 256.014C137.404 255.314 137.102 254.631 136.759 253.968C136.716 253.885 136.661 253.797 136.613 253.711C136.564 253.625 136.515 253.541 136.45 253.451L136.262 253.186C136.187 253.096 136.098 253.001 136.013 252.91L135.983 252.876L135.958 252.854L135.91 252.809L135.813 252.718L135.62 252.537L135.234 252.176L132.156 249.308C128.063 245.508 124.014 241.775 119.961 238.054L107.726 226.798L101.516 221.046L98.3708 218.114L95.4284 215.355L96.0994 213.677C97.8241 209.389 99.5358 205.131 101.234 200.902L102.513 197.739L102.882 196.824L102.997 196.532L102.89 196.24L102.693 195.712C102.498 195.182 102.3 194.651 102.098 194.12L99.7111 187.778C98.115 183.565 96.5072 179.375 94.8876 175.208C93.2637 171.046 91.6237 166.905 89.9179 162.795C89.0599 160.74 88.1873 158.692 87.2518 156.656C86.7826 155.633 86.3017 154.627 85.7419 153.608L85.53 153.227L85.2873 152.835L85.166 152.639L85.1353 152.591L85.1192 152.562L85.0842 152.503C85.0353 152.423 84.9918 152.34 84.9541 152.253C84.787 151.848 84.6783 151.422 84.631 150.986C84.5332 149.969 84.5489 148.945 84.6778 147.931C84.7948 146.882 84.9818 145.824 85.2055 144.768C85.6557 142.655 86.2477 140.552 86.9054 138.463C87.5632 136.374 88.2911 134.3 89.0614 132.238C89.8317 130.175 90.6473 128.12 91.5053 126.099L91.5857 125.91L91.6179 125.837L91.7362 125.691L92.2566 125.038L93.2988 123.731C93.9916 122.854 94.6859 121.981 95.3817 121.11L99.9874 115.295L97.9922 109.029C97.3929 107.161 96.7917 105.287 96.1885 103.407L94.3658 97.7376L93.442 94.902L92.9772 93.4813L92.7448 92.771L92.7302 92.7256V92.711L92.717 92.6803L92.7083 92.6599C92.7083 92.6599 92.7083 92.6467 92.7083 92.6438L92.7404 92.6189C92.7508 92.61 92.7621 92.6022 92.774 92.5956L93.0386 92.464C93.5263 92.2627 94.0376 92.1241 94.5602 92.0518C95.6232 91.9044 96.7062 92.0421 97.6984 92.4509C98.1956 92.6571 98.6627 92.9294 99.087 93.2606C99.3016 93.4238 99.5043 93.6021 99.6936 93.7941L99.7667 93.8643L99.8325 93.9417L99.964 94.0879L100.097 94.2428C100.144 94.2916 100.186 94.345 100.223 94.4021L100.454 94.7383L100.512 94.8216C100.531 94.8479 100.552 94.8772 100.574 94.9137L100.699 95.1198L101.205 95.9441C101.543 96.4937 101.881 97.0448 102.218 97.5972L110.392 110.965C113.134 115.448 115.889 119.943 118.65 124.412L119.169 125.25L119.298 125.457L119.363 125.563L119.417 125.655C119.491 125.775 119.564 125.899 119.622 126.024C120.008 126.783 120.237 127.612 120.294 128.461C120.294 128.531 120.303 128.607 120.305 128.673V128.898V129.388L120.327 131.346C120.359 133.953 120.399 136.547 120.446 139.129L120.461 139.949V140.154L120.47 140.381C120.47 140.527 120.484 140.683 120.502 140.834C120.682 142.644 121.476 144.339 122.752 145.637C122.854 145.745 122.962 145.847 123.073 145.946C123.184 146.046 123.297 146.144 123.412 146.239L123.586 146.385L123.747 146.509L124.071 146.756L125.365 147.746L127.951 149.726L138.291 157.683L148.75 165.797L150.066 166.82L150.728 167.337C151.367 167.843 151.911 168.457 152.336 169.153C152.482 169.381 152.609 169.634 152.748 169.884L153.16 170.628L156.483 176.645L159.561 182.414C161.869 186.606 164.146 190.798 164.387 190.664Z" fill="#063844"/>
<path d="M93.806 131.341C93.5136 131.571 93.8571 131.899 94.3395 132.495C98.3108 137.412 101.993 142.338 105.708 147.55C107.474 150.026 109.57 152.043 111.463 154.206C113.327 156.334 114.771 158.267 116.535 160.637L118.074 162.692L118.172 162.823L118.197 162.855L118.213 162.877L118.231 162.903L118.299 163.004L118.432 163.197L118.558 163.378L118.619 163.464L118.635 163.486H118.558C118.39 163.491 118.224 163.518 118.064 163.568L118.007 163.585L117.905 163.625L117.713 163.701L117.528 163.787C117.403 163.844 117.28 163.904 117.162 163.971C117.044 164.039 116.924 164.101 116.81 164.175C115.911 164.739 115.137 165.482 114.537 166.358C113.958 167.195 113.474 168.093 113.093 169.036C112.715 169.952 112.464 170.914 112.344 171.898C112.33 172.022 112.317 172.148 112.309 172.273C112.302 172.399 112.289 172.528 112.29 172.649C112.29 172.896 112.29 173.145 112.29 173.393C112.29 173.641 112.324 173.891 112.34 174.143C112.356 174.394 112.407 174.643 112.444 174.896C112.623 175.93 112.95 176.933 113.414 177.874C113.813 178.674 114.29 179.432 114.838 180.138C115.38 180.839 115.97 181.5 116.604 182.119C117.232 182.731 117.902 183.297 118.571 183.833C119.241 184.37 119.916 184.883 120.582 185.389C122.75 187.036 124.849 188.508 126.732 190.405L127.049 190.725C127.142 190.819 127.239 190.908 127.341 190.992C127.52 191.139 127.673 191.206 127.78 191.111C127.916 190.988 127.894 190.849 127.771 190.672C127.582 190.433 127.375 190.208 127.151 190.002C125.682 188.519 124.193 187.132 122.706 185.763C121.22 184.393 119.73 183.054 118.254 181.647C117.055 180.498 116.064 179.149 115.326 177.661C114.973 176.961 114.673 176.236 114.43 175.49C114.183 174.737 113.983 173.969 113.832 173.19C113.672 172.317 113.754 171.418 114.068 170.588C114.344 169.806 114.744 169.106 115.179 168.359C115.695 167.482 116.232 166.719 116.919 166.079C117.263 165.754 117.651 165.481 118.073 165.266C118.182 165.217 118.288 165.157 118.403 165.12L118.612 165.041C118.71 165.005 118.82 164.986 118.925 164.958L119.246 164.881L119.621 164.841C119.866 164.813 120.147 164.799 120.433 164.784L121.044 164.755L121.347 164.74L121.628 164.73L121.609 164.623L121.597 164.571C121.596 164.56 121.593 164.551 121.588 164.541L121.557 164.502L121.302 164.176L120.778 163.521C120.425 163.083 120.064 162.656 119.71 162.239L119.444 161.929L119.261 161.725L118.915 161.343L118.213 160.591C117.238 159.583 116.317 158.524 115.455 157.417C111.947 152.775 109.348 147.99 105.388 143.792C103.607 141.904 101.996 139.607 100.024 137.778C98.3434 136.224 96.7552 134.572 95.2676 132.833L94.7882 132.131C94.3994 131.652 94.0252 131.164 93.806 131.341Z" fill="#063844"/>
</g>
<path d="M27.0995 105.813C27.6243 105.576 26.6069 103.711 25.4917 100.405C23.2111 93.6307 22.2143 86.4903 22.5522 79.3503C23.0666 68.6771 26.5146 58.3526 32.517 49.512C38.5194 40.6715 46.8436 33.6574 56.5742 29.2413C59.6285 27.8652 62.7783 26.7119 65.9991 25.7904L67.1918 25.4455C67.5909 25.3344 67.9943 25.2511 68.3948 25.1531L69.5963 24.8608L70.197 24.7146L70.8022 24.6006C71.6105 24.4545 72.41 24.2835 73.2198 24.1431L75.6476 23.7924C78.8782 23.3995 82.1337 23.2495 85.3868 23.3436L87.8131 23.4737C88.0163 23.481 88.2166 23.5059 88.4183 23.5263L89.0205 23.5906L90.2278 23.7193C91.0347 23.7865 91.8357 23.94 92.6279 24.0613L93.825 24.263C94.2211 24.339 94.6158 24.4296 95.0104 24.5129L96.1798 24.7629L96.7571 24.8886L97.3243 25.0347L99.5723 25.6457L101.756 26.3619L102.298 26.5402C102.477 26.6045 102.652 26.6761 102.829 26.7434L103.887 27.1526C106.677 28.236 109.371 29.5502 111.942 31.0815L112.426 31.3621L112.669 31.5083L112.904 31.6545L113.849 32.264C114.477 32.6717 115.116 33.0678 115.719 33.521L116.64 34.1845L117.102 34.5163C117.257 34.6259 117.411 34.7385 117.558 34.8598L119.356 36.2922C121.803 38.3383 124.085 40.5748 126.179 42.9806C131.494 49.118 135.496 56.2777 137.941 64.0193L138.063 64.3847L138.166 64.753L138.374 65.4926L138.792 66.9703C138.922 67.4658 139.026 67.9672 139.144 68.4656L139.489 69.9623L139.76 71.4736L139.897 72.2293L139.966 72.6078C139.989 72.7335 140.011 72.8592 140.024 72.9864L140.223 74.5094L140.321 75.2738L140.371 75.6553C140.388 75.781 140.394 75.9096 140.406 76.0368C140.81 80.0946 140.817 84.1822 140.426 88.2414C140.016 92.4201 139.086 96.5313 137.658 100.48C136.292 104.249 134.512 107.854 132.349 111.23C132.214 111.439 132.092 111.655 131.95 111.858L131.526 112.472L130.68 113.7L130.468 114.007C130.396 114.109 130.322 114.206 130.243 114.299L129.79 114.894L128.88 116.085C128.734 116.287 128.566 116.474 128.407 116.67L127.923 117.246C127.6 117.631 127.277 118.016 126.954 118.402L125.931 119.517L125.412 120.076C125.239 120.263 125.074 120.456 124.889 120.631C121.943 123.651 118.719 126.387 115.259 128.8C112.254 130.902 109.076 132.745 105.758 134.308C102.39 135.893 98.8849 137.168 95.2852 138.115C91.6578 139.07 87.948 139.678 84.2057 139.933C80.4678 140.203 76.7123 140.094 72.9961 139.61C60.986 138.082 49.7689 132.788 40.9547 124.488C39.9316 123.532 38.9639 122.517 38.2083 121.786C37.4526 121.055 36.9264 120.586 36.767 120.726C36.3636 121.073 37.7902 122.692 40.3613 125.111C43.7925 128.358 47.5736 131.214 51.6352 133.626C53.6469 134.822 55.7249 135.903 57.859 136.864C59.9936 137.819 62.182 138.649 64.4132 139.349C68.8995 140.761 73.5397 141.627 78.2333 141.928C78.5257 141.952 78.818 141.965 79.1103 141.977L79.9961 142.013C80.5808 142.038 81.1801 142.034 81.7735 142.044C82.3669 142.054 82.9589 142.016 83.5524 142.003L84.444 141.975L84.8898 141.962L85.1134 141.955L85.3356 141.936L87.1189 141.79L88.0119 141.712C88.1581 141.702 88.3043 141.683 88.4577 141.661L88.8962 141.598C90.0817 141.429 91.2744 141.288 92.4525 141.028C96.381 140.275 100.236 139.178 103.972 137.75C107.538 136.387 110.974 134.705 114.237 132.723C117.46 130.766 120.484 128.499 123.268 125.956C126.103 123.362 128.651 120.471 130.868 117.332L131.872 115.907C132.033 115.672 132.203 115.445 132.355 115.21L132.806 114.504C133.109 114.039 133.408 113.58 133.704 113.126C133.85 112.902 133.996 112.668 134.129 112.439L134.54 111.752L135.361 110.403L136.116 109.043C136.364 108.592 136.624 108.147 136.863 107.697C137.101 107.247 137.322 106.785 137.55 106.332L137.893 105.652C138.007 105.424 138.128 105.201 138.226 104.967L138.848 103.577L139.159 102.878L139.315 102.527C139.365 102.41 139.409 102.291 139.461 102.171L140.015 100.73C140.406 99.7693 140.705 98.7666 141.028 97.7493C141.107 97.4935 141.188 97.2377 141.267 96.9805C141.346 96.7232 141.404 96.4572 141.473 96.1941C141.604 95.665 141.736 95.1291 141.869 94.5863C142.035 93.9534 142.141 93.3162 142.256 92.6862C142.372 92.0563 142.489 91.4321 142.587 90.808C142.663 90.1824 142.738 89.5613 142.813 88.9445C142.85 88.6346 142.886 88.3276 142.923 88.0207C142.959 87.7138 142.967 87.4039 142.988 87.0969C143.027 86.485 143.066 85.874 143.104 85.2641L143.13 84.808V84.352C143.13 84.048 143.13 83.744 143.13 83.44C143.13 82.8348 143.134 82.2297 143.142 81.6246L143.063 79.8107C143.038 78.6005 142.898 77.3932 142.793 76.1757L142.752 75.7196L142.731 75.4902L142.701 75.2621C142.658 74.9581 142.617 74.6541 142.575 74.3486C142.492 73.7362 142.41 73.1223 142.326 72.5026C141.888 70.0441 141.432 67.5155 140.718 64.9138C139.814 61.4979 138.558 58.1851 136.969 55.0288C136.563 54.2658 136.159 53.5048 135.756 52.7458L134.43 50.5445C133.502 49.1092 132.552 47.6958 131.507 46.3526C129.428 43.6389 127.137 41.0945 124.655 38.7434C122.095 36.3161 119.355 34.0866 116.458 32.0739C105.453 24.3434 92.3984 20.3561 79.3223 20.5914C76.0467 20.6619 72.7814 20.9844 69.5554 21.5561C66.3152 22.1699 63.1301 23.0449 60.0311 24.1724C56.9023 25.313 53.8837 26.7357 51.0125 28.4228C48.1019 30.1162 45.3487 32.067 42.7862 34.2518C40.4418 36.2778 38.2237 38.4456 36.1444 40.7429L34.6082 42.5334L34.4152 42.757L34.2325 42.9908L33.8671 43.4571L33.1362 44.3911L32.7694 44.8588C32.708 44.9377 32.6466 45.0137 32.5867 45.0941L32.4142 45.3368L31.7257 46.3073L31.0358 47.2807C30.9189 47.44 30.8122 47.6081 30.7055 47.7762L30.3839 48.2805L29.7422 49.2875C29.5317 49.6252 29.3037 49.9555 29.1181 50.3107L27.9385 52.3906C27.2077 53.8084 26.4768 55.2232 25.8732 56.6936C24.615 59.5787 23.6356 62.5775 22.9484 65.649C22.8753 65.9706 22.7905 66.2877 22.7262 66.6108C22.6619 66.9338 22.6063 67.2568 22.5449 67.5798C22.4241 68.2268 22.3023 68.8704 22.1795 69.5106L21.912 71.4502L21.7761 72.4164C21.7425 72.7408 21.7176 73.0653 21.6869 73.3883L21.5101 75.3294C21.4662 75.9769 21.4516 76.6273 21.4194 77.2748C21.3347 78.5713 21.3771 79.8736 21.3741 81.1744C21.4173 83.8014 21.6273 86.423 22.0027 89.0234C22.3812 91.6945 22.9304 94.3387 23.647 96.9396C23.7157 97.2567 23.7932 97.5681 23.8809 97.8808L24.125 98.8207L24.394 99.7532L24.5284 100.221L24.6746 100.684C24.7901 101.022 24.9055 101.358 25.0196 101.688L25.3806 102.652C25.4391 102.807 25.499 102.96 25.556 103.109C25.613 103.258 25.6773 103.401 25.7358 103.548C25.8556 103.828 25.9711 104.091 26.0807 104.334C26.5309 105.294 26.911 105.898 27.0995 105.813Z" fill="#063844"/>
<path d="M69.1972 58.0267C68.9501 57.8147 68.66 57.6587 68.3469 57.5694C68.0338 57.48 67.7051 57.4595 67.3833 57.5092C66.7445 57.632 66.1715 58.1421 66.0678 58.7852C65.9406 59.5307 66.4434 60.2703 67.0909 60.6561C67.7385 61.042 68.5131 61.1531 69.263 61.2569" fill="white"/>
<path d="M69.1373 61.1238C68.978 61.1019 68.8318 60.9966 68.6696 61.0098C68.3977 61.0288 68.4035 60.9016 68.2588 60.8739C68.1843 60.8607 68.0235 60.7876 67.9533 60.7672C67.8832 60.7467 67.7253 60.8022 67.661 60.7672L67.6362 60.7569C67.5037 60.6602 67.4022 60.5272 67.3438 60.374C67.3004 60.2451 67.2345 60.1249 67.1494 60.0188C67.0544 59.9399 66.9038 59.915 66.7869 59.8361C66.6814 59.7633 66.5869 59.6757 66.5063 59.5759C66.4173 59.4652 66.3458 59.3415 66.2943 59.2091C66.2636 59.0947 66.2636 58.9742 66.2943 58.8597C66.3282 58.7514 66.3774 58.6486 66.4405 58.5543C66.569 58.3501 66.7406 58.1764 66.9433 58.0456C67.0483 57.9656 67.1461 57.8766 67.2356 57.7796C67.3342 57.6759 67.4673 57.612 67.6098 57.5998C67.8013 57.5881 68.0732 57.7051 68.2442 57.746C68.3468 57.7902 68.455 57.8202 68.5658 57.8351C68.6929 57.8545 68.8133 57.9047 68.9166 57.9813C69.0262 58.0617 69.1402 58.1099 69.2089 58.0325C69.2776 57.955 69.1928 57.8498 69.0627 57.7664C68.909 57.6685 68.7494 57.5802 68.5848 57.5019C68.4246 57.4232 68.2545 57.3667 68.079 57.3338C67.8133 57.2755 67.538 57.2755 67.2722 57.3338C67.0559 57.3835 66.8088 57.3952 66.61 57.5297C66.5167 57.5909 66.4283 57.6593 66.3455 57.7343C66.3009 57.7753 66.2519 57.8111 66.1993 57.841C66.0381 57.9195 65.897 58.034 65.7871 58.1757C65.6759 58.359 65.6112 58.5668 65.5986 58.7808C65.5964 59.1705 65.6571 59.5579 65.7784 59.9282C65.821 60.0952 65.8971 60.2518 66.002 60.3886C66.1068 60.5417 66.2247 60.6855 66.3543 60.8183C66.5701 60.987 66.8333 61.0841 67.107 61.096C67.3453 61.1121 67.5221 61.0814 67.5601 61.096C67.6578 61.1477 67.7636 61.1823 67.8729 61.1983C67.965 61.2057 68.0644 61.2466 68.1565 61.2553L68.6169 61.3299C68.788 61.3577 68.9283 61.3299 69.0978 61.3591C69.1621 61.3694 69.244 61.3591 69.2513 61.2773C69.2718 61.1633 69.2221 61.137 69.1373 61.1238Z" fill="#063844"/>
<path d="M82.8652 81.0152C82.8652 81.0152 77.286 87.4887 67.3525 87.2139C66.9944 83.4137 65.8908 78.1518 64.8677 74.5533C64.777 74.2347 64.1032 73.4761 63.7305 73.0917" fill="white"/>
<path d="M63.7699 73.3153C63.9161 73.4746 64.036 73.6617 64.1704 73.8327C64.3049 74.0037 64.4248 74.1557 64.5402 74.3165C64.5757 74.3734 64.6032 74.4349 64.6221 74.4992C64.6411 74.565 64.6484 74.6205 64.6586 74.6673C64.6849 74.7623 64.7376 74.9304 64.7551 75.0269C64.7887 75.2169 64.7551 75.23 64.7829 75.4186C64.8107 75.6071 64.834 75.8044 64.8618 76.0032C64.8896 76.202 64.9407 76.3993 64.9831 76.5879C65.0255 76.7764 65.0562 76.9606 65.0884 77.1491C65.1205 77.3377 65.1483 77.5569 65.2024 77.7557C65.2667 77.994 65.3485 78.2293 65.4172 78.4646C65.4817 78.675 65.5238 78.8915 65.543 79.1106C65.5532 79.4804 65.543 79.8502 65.521 80.22C65.5093 80.4583 65.5137 80.6951 65.521 80.9333C65.5232 81.0898 65.5349 81.246 65.5561 81.401C65.5561 81.4361 65.5693 81.4712 65.5766 81.5063C65.6204 81.7153 65.676 81.9214 65.7227 82.1289C65.7827 82.3686 65.8455 82.6098 65.9244 82.8436C66.0458 83.2032 66.1802 83.5569 66.2943 83.9194C66.3498 84.089 66.4024 84.26 66.4492 84.431C66.4784 84.5669 66.5062 84.7014 66.5354 84.8373C66.5749 85.0317 66.6202 85.2217 66.6684 85.422C66.7444 85.7143 66.8292 86.0066 66.8965 86.3136L66.9125 86.4115L66.9301 86.527L66.9608 86.8003C66.9812 87.002 67.0149 87.1935 67.0499 87.3732L67.066 87.4639L67.0733 87.5092V87.5194C67.0733 87.5194 67.0806 87.5194 67.0836 87.5194H67.1084L67.3013 87.5121H67.6785H68.0483H68.2324H68.3786C68.7981 87.5121 69.2161 87.5238 69.6371 87.5399C69.8345 87.5574 70.0331 87.5574 70.2305 87.5399C70.4235 87.5179 70.615 87.4858 70.8079 87.4595C71.0008 87.4332 71.2216 87.382 71.4306 87.3557C71.5329 87.3425 71.6352 87.3308 71.739 87.3206C71.8428 87.3104 71.9436 87.2958 72.0474 87.287C72.1512 87.2782 72.2535 87.287 72.3573 87.287C72.4611 87.287 72.5838 87.3045 72.6964 87.3031C72.9956 87.3079 73.2945 87.2849 73.5895 87.2344C73.8328 87.193 74.073 87.1354 74.3086 87.0619C74.5543 86.9771 74.794 86.876 75.0263 86.7594C75.1163 86.7222 75.2092 86.6924 75.304 86.6702C75.3669 86.6541 75.4297 86.6439 75.4926 86.6307C75.585 86.6062 75.6736 86.5688 75.7557 86.5196L76.0173 86.3837C76.2292 86.2877 76.4347 86.1784 76.6327 86.0563C76.83 85.935 77.0127 85.7903 77.1998 85.6558L77.7245 85.2933C77.9204 85.1647 78.1046 85.0229 78.2946 84.887C78.4598 84.7844 78.63 84.6903 78.8047 84.6049C78.9782 84.5231 79.1507 84.4368 79.3222 84.3462C79.6877 84.1498 80.0411 83.9317 80.3804 83.6929C80.7297 83.4429 80.9987 83.0907 81.3363 82.8305C81.5504 82.6602 81.7553 82.4787 81.9502 82.2868C82.266 82.0631 82.3683 81.6933 82.6942 81.3849C82.8404 81.2476 82.9296 81.0926 82.8521 81.0239C82.7746 80.9552 82.6475 81.0605 82.5101 81.2052C82.1125 81.6159 81.8742 81.7518 81.4635 82.0938C81.2676 82.2531 81.0922 82.487 80.7327 82.7676C80.5163 82.9357 80.2445 83.022 80.0252 83.1842C79.7183 83.3991 79.6759 83.4444 79.5385 83.4926C79.3536 83.5397 79.172 83.5988 78.9947 83.6695C78.8059 83.7714 78.6224 83.8832 78.4452 84.0042C78.2806 84.1243 78.1087 84.2341 77.9306 84.333C77.7526 84.4335 77.5645 84.5149 77.3694 84.5757C77.1936 84.6278 77.0221 84.6933 76.8563 84.7715C76.6751 84.8622 76.4821 84.9177 76.2965 84.9922C76.1073 85.062 75.9272 85.1542 75.7601 85.267C75.6139 85.3737 75.4356 85.4132 75.2865 85.514C75.2211 85.5603 75.1511 85.5995 75.0775 85.631H75.0614C74.9223 85.6383 74.7843 85.6589 74.6492 85.6924C74.5615 85.7099 74.4694 85.726 74.3802 85.7464C74.1891 85.7964 74.0023 85.8619 73.8219 85.9423C73.6392 86.0095 73.4535 86.0695 73.2694 86.1323C73.1963 86.1557 73.1232 86.182 73.0487 86.201L73.0063 86.1937C72.7139 86.1352 72.4347 86.2653 72.157 86.3121C72.1357 86.316 72.1166 86.3274 72.1029 86.3443C71.8939 86.3852 71.6878 86.4305 71.4774 86.4583C71.2669 86.486 71.0564 86.5109 70.8459 86.5343C70.6003 86.5562 70.3548 86.5533 70.1151 86.5591C69.8754 86.565 69.6342 86.5591 69.3945 86.5489C69.1226 86.524 68.8507 86.4758 68.5832 86.4276C68.133 86.3735 68.231 86.3545 68.1827 86.3296C68.1827 86.3296 68.1696 86.3296 68.1608 86.3296C68.1542 86.3359 68.1469 86.3413 68.1389 86.3457C68.1264 86.3518 68.1126 86.3549 68.0987 86.3549C68.0848 86.3549 68.071 86.3518 68.0585 86.3457C68.0585 86.3559 68.0512 86.3326 68.0468 86.315L68.0322 86.2639L68.0029 86.163L67.9416 85.9613C67.9396 85.7796 67.9101 85.5992 67.8539 85.4264C67.7735 85.2407 67.6273 85.0726 67.5732 84.8812C67.5191 84.6897 67.5104 84.5114 67.4431 84.3345C67.3741 84.1706 67.3217 84.0002 67.2867 83.8259C67.2721 83.7309 67.2721 83.6344 67.2575 83.5408C67.2345 83.4525 67.2062 83.3656 67.1727 83.2807C67.1376 83.155 67.0879 83.0337 67.0529 82.908C67.0412 82.6434 67.0324 82.3789 66.9973 82.1172C66.9662 81.8748 66.9118 81.636 66.8351 81.4039C66.7781 81.23 66.7123 81.059 66.6567 80.8851C66.6217 80.7608 66.5837 80.6366 66.5457 80.5138C66.5077 80.391 66.4901 80.2946 66.4697 80.182C66.4433 80.0359 66.4331 79.8897 66.4141 79.7552C66.3746 79.4512 66.3513 79.1457 66.3016 78.8432C66.248 78.554 66.1667 78.2706 66.0589 77.9969C65.9654 77.7367 65.9128 77.4678 65.8148 77.2061C65.7323 76.9601 65.6631 76.7098 65.6073 76.4563C65.578 76.3102 65.4743 76.1874 65.4465 76.0427C65.4246 75.9214 65.3851 75.8044 65.3544 75.6846C65.2886 75.423 65.255 75.1526 65.1936 74.888C65.1775 74.8164 65.1629 74.7418 65.1468 74.6761C65.1303 74.5998 65.1048 74.5257 65.0708 74.4554C64.9949 74.3361 64.9051 74.2262 64.8033 74.128C64.6703 73.9555 64.5359 73.7962 64.3999 73.6339C64.264 73.4717 64.0915 73.3416 63.9336 73.1735C63.8723 73.1077 63.7875 73.0478 63.7305 73.1004C63.6735 73.153 63.6881 73.2276 63.7699 73.3153Z" fill="#063844"/>
<path d="M63.729 73.0814C61.5365 71.1491 57.4628 68.1703 55.7848 65.7308C53.6259 62.5898 53.5733 55.9379 53.0632 54.7438C52.8819 54.3185 52.3718 52.6858 52.8308 52.5075C53.2693 52.3394 54.1068 53.0717 54.1068 53.0717C53.8057 52.2956 53.1538 51.4317 53.4155 51.0137C54.1361 50.4174 55.3273 51.8585 55.3273 51.8585C55.3273 51.8585 54.6871 49.0478 55.8813 50.0914C56.2716 50.4334 57.1003 52.3569 57.1179 52.1801C57.248 51.5428 57.1325 49.1516 57.9057 50.0636C59.2739 54.0554 58.7696 56.6804 60.3701 60.5874C62.0364 64.6522 68.1506 66.0758 69.4997 65.7279C70.2876 65.5248 70.8226 64.7428 70.596 63.9623C70.3694 63.1818 67.088 62.0958 67.7925 58.3993C68.6242 51.4902 70.8986 51.2826 72.4509 50.8485C74.0032 50.4144 75.8405 50.6702 77.2335 51.2958C77.2335 51.2958 80.205 52.7574 80.0516 56.7287C79.8981 60.6999 78.3326 63.2066 77.8517 63.5983C77.8517 63.5983 77.0888 66.1854 79.0518 66.1854C81.0148 66.1854 90.2921 69.04 91.5403 78.8534C92.9932 90.2687 90.6487 90.2716 90.6487 90.2716C90.6487 90.2716 89.9354 90.0933 89.9354 88.6638C89.9354 88.6638 89.0438 91.5184 88.864 90.0918C88.6842 88.6653 88.864 87.7722 88.864 87.7722C88.864 87.7722 89.0438 91.1617 88.1507 90.8051C87.2576 90.4485 87.6157 87.5895 87.6157 87.5895C87.6157 87.5895 86.3675 89.1973 86.1877 88.1245C86.0079 87.0516 87.262 85.2845 87.262 85.2845C87.0837 84.3929 85.6542 76.7208 82.4385 76.7208C81.3685 76.7208 82.4385 81.002 82.4385 81.002" fill="white"/>
<path d="M82.3626 80.0052C82.2537 79.4522 82.1815 78.8926 82.1462 78.3301C82.1375 78.184 82.1345 78.051 82.1331 77.9121V77.706C82.1331 77.6403 82.1331 77.5891 82.1462 77.5292C82.1566 77.4137 82.1806 77.2999 82.2179 77.1901C82.2323 77.1342 82.2587 77.082 82.2953 77.0374C82.3319 76.9927 82.3778 76.9565 82.4298 76.9314C82.6461 76.9031 82.866 76.9308 83.0686 77.0118L83.2323 77.0746L83.3989 77.1638C83.4267 77.1784 83.4544 77.1915 83.4808 77.2076L83.5597 77.2632L83.7161 77.3713C84.1168 77.7046 84.4621 78.0992 84.7393 78.5406C84.9386 78.8518 85.1131 79.1783 85.2611 79.517C85.435 79.8999 85.587 80.2931 85.6864 80.5401C85.9248 81.1339 86.1317 81.7399 86.3062 82.3555C86.4392 82.8305 86.4845 83.0761 86.5342 83.3216C86.5839 83.5672 86.6292 83.8127 86.7301 84.2951C86.7666 84.4704 86.8002 84.6473 86.8338 84.8227L86.8733 85.0507C86.8733 85.1063 86.8952 85.1633 86.8967 85.2159L86.809 85.3401L86.7622 85.4074L86.695 85.5111C86.6058 85.6573 86.521 85.7932 86.4377 85.9379C86.2697 86.232 86.1232 86.5378 85.9992 86.8529C85.9005 87.1065 85.8299 87.3702 85.7887 87.6393C85.7688 87.789 85.7659 87.9405 85.78 88.0909C85.78 88.1304 85.78 88.1684 85.7902 88.2093L85.8165 88.335C85.8446 88.4398 85.8911 88.5388 85.9539 88.6273C85.9967 88.6888 86.0496 88.7427 86.1103 88.7866C86.1455 88.8098 86.1821 88.8308 86.2199 88.8495C86.2589 88.8655 86.2989 88.8787 86.3398 88.889C86.4089 88.9039 86.4799 88.9079 86.5503 88.9006H86.5941H86.6058H86.6307C86.693 88.8781 86.7513 88.8455 86.8031 88.8042C86.9067 88.7245 87.0017 88.6344 87.0867 88.5352L87.1656 88.4431C87.1817 88.4168 87.1656 88.4519 87.1656 88.4651V88.5162L87.1554 88.6185L87.1393 88.8217C87.1306 88.9562 87.1247 89.0907 87.1262 89.2207V89.3216C87.1262 89.3611 87.1262 89.3859 87.1262 89.4678C87.1349 89.5993 87.1496 89.7338 87.1686 89.8682C87.1788 89.9369 87.189 90.0042 87.2036 90.0743C87.2183 90.1445 87.2475 90.2512 87.2709 90.3389C87.3217 90.5124 87.397 90.6778 87.4945 90.83C87.5726 90.9487 87.6717 91.0523 87.7869 91.1355C87.8997 91.2208 88.0326 91.2757 88.1727 91.2948C88.2951 91.3076 88.4183 91.2815 88.525 91.2202C88.6205 91.1659 88.7072 91.0974 88.7823 91.0171C88.8282 90.9707 88.8716 90.9219 88.9123 90.8709C88.9367 90.8371 88.9592 90.802 88.9796 90.7657C89.0046 90.729 89.0276 90.691 89.0483 90.6517L89.1111 90.5055C89.1357 90.4529 89.1553 90.3981 89.1696 90.3418C89.1959 90.2132 89.2383 90.0933 89.2529 89.9574C89.2915 89.6953 89.3159 89.4314 89.326 89.1667C89.3348 88.9153 89.3362 88.6872 89.326 88.4651C89.1635 88.3735 89.0371 88.2291 88.9679 88.0558C88.9361 87.981 88.9088 87.9044 88.886 87.8263L88.8685 87.7679V87.7533C88.8685 87.7533 88.8685 87.7401 88.8685 87.7533V87.7825C88.8655 87.8204 88.8655 87.8586 88.8685 87.8965C88.8625 87.9861 88.8748 88.076 88.9047 88.1607C88.9346 88.2454 88.9815 88.3231 89.0424 88.3891C89.1007 88.4477 89.1648 88.5001 89.2339 88.5455L89.2909 88.5879C89.2909 88.5879 89.2909 88.6069 89.2909 88.6215V88.753V89.1038V89.2792L89.2821 89.4385L89.2646 89.7542V89.8902C89.2646 89.9399 89.2544 89.9691 89.25 90.01L89.2164 90.2351L89.2003 90.3477V90.4032L89.2193 90.4763L89.2602 90.6224L89.2807 90.6941C89.2807 90.7116 89.2807 90.7131 89.2719 90.7233C89.2559 90.7511 89.2441 90.7812 89.2368 90.8125C89.2342 90.8179 89.2329 90.8239 89.2329 90.83C89.2329 90.8361 89.2342 90.842 89.2368 90.8475C89.2369 90.8528 89.2387 90.8579 89.2418 90.8621C89.245 90.8663 89.2494 90.8694 89.2544 90.8709C89.2544 90.8782 89.2836 90.8709 89.3026 90.8709C89.328 90.8626 89.3521 90.8507 89.3742 90.8358C89.4225 90.8461 89.3655 90.7408 89.3421 90.6721L89.3304 90.6444C89.3304 90.6444 89.3158 90.6195 89.3304 90.6268L89.3815 90.6429L89.4824 90.6721L89.5336 90.6882C89.5396 90.6834 89.5446 90.6775 89.5482 90.6707L89.5759 90.6356C89.5876 90.6195 89.5759 90.6283 89.5847 90.621L89.5935 90.6078C89.6052 90.5903 89.6154 90.5727 89.6256 90.5537C89.6673 90.4729 89.7049 90.3899 89.7382 90.3053C89.7893 90.1796 89.8361 90.0524 89.8844 89.9267L89.9472 89.7411C89.9545 89.7104 89.9472 89.7499 89.9472 89.7615V89.8127C89.9472 89.8463 89.9472 89.8799 89.9472 89.9135C89.9549 90.1085 90.0161 90.2977 90.1241 90.4602C90.1415 90.4835 90.1605 90.5054 90.1811 90.526C90.1928 90.5362 90.2118 90.5508 90.2249 90.564C90.2617 90.5898 90.2997 90.6137 90.3389 90.6356C90.3652 90.6502 90.3901 90.6648 90.4208 90.6795L90.4676 90.6999C90.4915 90.7089 90.5159 90.7168 90.5406 90.7233L90.5933 90.7379H90.6517H90.7351L90.7877 90.7277L90.8768 90.7043C90.927 90.6886 90.9758 90.669 91.023 90.6458L91.0917 90.6122C91.1122 90.6005 91.1282 90.5888 91.1472 90.5757L91.2539 90.4997L91.3066 90.4602L91.349 90.4193L91.4323 90.3345C91.4866 90.282 91.5356 90.2243 91.5784 90.162C91.6638 90.0507 91.7396 89.9324 91.805 89.8083C91.8694 89.6922 91.9275 89.5727 91.9789 89.4502L92.1163 89.0907C92.1612 88.9695 92.1998 88.8461 92.2318 88.7209L92.3312 88.3628L92.4028 88.0076C92.511 87.5296 92.549 87.0605 92.6221 86.5854L92.6791 85.8809C92.6995 85.6456 92.7185 85.4088 92.7229 85.1764L92.7536 84.2468C92.7536 83.937 92.7536 83.6286 92.7536 83.3187C92.7536 83.0088 92.7536 82.696 92.7332 82.3862L92.6849 81.4537C92.6732 81.2505 92.663 81.0459 92.6513 80.8398C92.6396 80.6337 92.6177 80.432 92.5987 80.2273C92.5621 79.8181 92.5227 79.4074 92.4788 78.9981C92.4686 78.9031 92.4598 78.811 92.4467 78.7146L92.4014 78.4222C92.2291 77.2531 91.9206 76.1082 91.482 75.0108C91.3504 74.6922 91.2233 74.3721 91.0654 74.0666C90.9894 73.9116 90.9192 73.7553 90.8359 73.6047L90.5845 73.156C90.5421 73.0814 90.5012 73.0098 90.4573 72.9338L90.3185 72.7175L90.0393 72.2878L89.7397 71.8741L89.5935 71.6695L89.4327 71.4722C88.1353 69.8789 86.5402 68.5534 84.7363 67.5696C83.9016 67.1053 83.0299 66.7108 82.1302 66.3901C81.4238 66.1222 80.6956 65.9158 79.9537 65.7733C79.6717 65.72 79.3857 65.6901 79.0987 65.6841H78.9408L78.8063 65.6695C78.7295 65.6561 78.6547 65.6325 78.5841 65.5994C78.4514 65.5334 78.3474 65.4211 78.2918 65.2837C78.2176 65.0975 78.178 64.8994 78.1749 64.699C78.169 64.5365 78.1753 64.3738 78.1939 64.2123C78.2026 64.1304 78.2143 64.0471 78.2275 63.9653C78.2363 63.9127 78.2436 63.8703 78.2553 63.8191C78.2663 63.8036 78.2791 63.7894 78.2933 63.7767C78.2933 63.7767 78.3064 63.7621 78.3123 63.7533L78.3459 63.727L78.4307 63.6218L78.5037 63.518C78.6031 63.3792 78.6835 63.2388 78.7668 63.1C78.8502 62.9611 78.9247 62.8179 78.9919 62.6746C79.0592 62.5314 79.1381 62.3823 79.1937 62.2362C79.4407 61.6607 79.6459 61.0682 79.8076 60.4632C80.0014 59.7853 80.1479 59.0947 80.2461 58.3965C80.2782 58.2065 80.2943 58.015 80.3133 57.822C80.3323 57.6291 80.3528 57.4391 80.3586 57.2476C80.3645 57.0562 80.3805 56.8661 80.3791 56.6703L80.3615 56.0856C80.3055 55.0421 80.0003 54.0272 79.4714 53.1258C79.199 52.6796 78.8719 52.2691 78.4979 51.9039L78.3517 51.7665L78.2056 51.6394C78.1091 51.5517 78.0024 51.4727 77.8986 51.3923C77.7948 51.312 77.6852 51.2389 77.5712 51.1687C77.5142 51.1322 77.4586 51.1 77.3914 51.0635C77.3242 51.0269 77.2628 51.005 77.1999 50.9772C76.1763 50.5396 75.0741 50.3158 73.9609 50.3195C73.3994 50.3242 72.8407 50.3984 72.2975 50.5402C71.749 50.6519 71.215 50.8254 70.7057 51.0576C70.2137 51.3079 69.778 51.6561 69.4253 52.0808C69.3405 52.1875 69.2484 52.2898 69.1724 52.3994L68.9532 52.7385C68.9181 52.7955 68.8771 52.851 68.8465 52.911L68.7558 53.0878L68.5731 53.4474C68.1346 54.3945 67.9037 55.387 67.7049 56.3707C67.6567 56.6367 67.604 56.9041 67.5587 57.1716C67.5134 57.4391 67.4871 57.7022 67.4506 57.9682L67.395 58.3672C67.376 58.5046 67.3468 58.6332 67.3351 58.7794C67.3019 59.0661 67.2906 59.3549 67.3015 59.6432C67.3249 60.2221 67.4604 60.791 67.7005 61.3183C67.945 61.8367 68.2734 62.3113 68.6725 62.7229C69.0379 63.1263 69.4574 63.4771 69.8112 63.806C69.8884 63.8769 69.9607 63.9531 70.0275 64.034C70.0588 64.0734 70.0795 64.1202 70.0874 64.1699V64.2152C70.0874 64.2313 70.0874 64.2401 70.0874 64.2649C70.0896 64.2858 70.0896 64.3069 70.0874 64.3278C70.0873 64.3489 70.0848 64.37 70.0801 64.3906C70.0653 64.4755 70.0356 64.5572 69.9924 64.6318C69.8827 64.8247 69.709 64.9731 69.5013 65.0513L69.4238 65.0776L69.3434 65.0966L69.2747 65.1039H69.1797C69.0279 65.1069 68.876 65.0996 68.7251 65.082C68.0388 64.9964 67.3627 64.8432 66.7066 64.6245C65.6036 64.278 64.5528 63.7833 63.583 63.1541C62.5759 62.4832 61.712 61.6676 61.1712 60.662C61.1259 60.5641 61.082 60.4676 61.0367 60.3697C60.9914 60.2717 60.9534 60.1548 60.911 60.0496C60.8292 59.8318 60.7444 59.6111 60.6786 59.3889C60.6333 59.2427 60.5894 59.0966 60.5441 58.9504L60.4301 58.5119C60.3146 58.0632 60.1977 57.6262 60.0954 57.1775C60.0413 56.9465 59.996 56.7112 59.9492 56.4773L59.8162 55.767L59.5239 54.0452C59.4698 53.7529 59.423 53.4605 59.3602 53.1755L59.2696 52.737C59.2199 52.5295 59.1702 52.3219 59.1234 52.1158L59.0474 51.806C59.024 51.7037 58.9845 51.5867 58.9538 51.48L58.7609 50.8296C58.7434 50.7785 58.7302 50.7185 58.7112 50.6747L58.6542 50.5548L58.5387 50.3151L58.4262 50.0769L58.3706 49.9585C58.3516 49.9234 58.3326 49.8693 58.3151 49.8591C58.242 49.7831 58.1689 49.7042 58.0973 49.6238L57.992 49.5039C57.9716 49.4835 57.9614 49.4601 57.9336 49.444C57.9058 49.4279 57.8737 49.4118 57.8415 49.3987C57.7729 49.3686 57.6998 49.3498 57.6252 49.3431C57.5473 49.3392 57.4701 49.3596 57.4045 49.4016C57.3135 49.4674 57.2398 49.5541 57.1896 49.6545C57.0689 49.8842 56.9747 50.1269 56.9089 50.378C56.8559 50.5699 56.8164 50.7652 56.7905 50.9626C56.7584 51.1965 56.7394 51.4713 56.716 51.7534C56.7248 51.7651 56.6707 51.7431 56.8183 51.8308L56.8388 51.8425H56.8476L57.1092 52.1889C57.1104 52.1836 57.113 52.1785 57.1165 52.1743C57.1293 52.1562 57.144 52.1395 57.1604 52.1246C57.1808 52.1042 57.2013 52.0895 57.2305 52.0632C57.2597 52.0369 57.2861 52.0208 57.3211 51.9931C57.3562 51.9653 57.3957 51.9375 57.4337 51.9127C57.4337 51.9127 57.4132 51.8834 57.4015 51.863L57.3241 51.73L57.1633 51.4377L56.8344 50.8355C56.6917 50.5775 56.5356 50.3272 56.3667 50.0856C56.3142 50.0133 56.2571 49.9444 56.1956 49.8796C56.1621 49.8452 56.1259 49.8134 56.0875 49.7845C56.0524 49.7582 56.0217 49.7319 55.9852 49.7071L55.8697 49.6325C55.8229 49.6092 55.7791 49.5843 55.7235 49.5638C55.5813 49.5027 55.4223 49.4923 55.2733 49.5346C55.2265 49.5511 55.1815 49.5721 55.1389 49.5975C55.102 49.6239 55.0673 49.6532 55.0351 49.6852C54.9862 49.7378 54.9462 49.798 54.9167 49.8635C54.8757 49.9541 54.8476 50.0501 54.8334 50.1485C54.8254 50.2365 54.8254 50.325 54.8334 50.4131C54.8489 50.5991 54.8753 50.784 54.9123 50.967C54.9225 51.0094 54.9313 51.0532 54.9401 51.0986L54.962 51.2023V51.2286V51.2418V51.2345L54.9284 51.1965C54.8831 51.1468 54.8363 51.0986 54.7822 51.0503C54.6841 50.9544 54.5785 50.8665 54.4665 50.7872C54.4095 50.7482 54.3499 50.713 54.2882 50.682C54.258 50.6658 54.2267 50.6516 54.1946 50.6396C54.1784 50.6329 54.1618 50.627 54.1449 50.6221L54.1171 50.6133C54.0996 50.6133 54.085 50.6031 54.0674 50.6001C53.9239 50.5648 53.7747 50.5593 53.6289 50.5841C53.4733 50.6122 53.3274 50.6796 53.2051 50.7799L53.1627 50.815L53.1378 50.8559C53.0696 50.9706 53.0324 51.1011 53.0297 51.2345V51.3236L53.0384 51.4026C53.0432 51.4519 53.052 51.5008 53.0647 51.5487C53.1076 51.707 53.1669 51.8603 53.2416 52.0062C53.3045 52.1407 53.3688 52.2708 53.4243 52.4023L53.4638 52.5003L53.4725 52.5251V52.5368C53.4725 52.5368 53.4725 52.5368 53.4638 52.5368L53.4185 52.4988C53.3571 52.4506 53.2957 52.4038 53.2328 52.3614C53.1137 52.2754 52.98 52.2115 52.8382 52.1729C52.8009 52.167 52.7629 52.167 52.7256 52.1729H52.6979H52.6832L52.6292 52.1992C52.5892 52.2173 52.5522 52.2414 52.5195 52.2708C52.4876 52.2961 52.4586 52.3251 52.4333 52.357C52.3598 52.4544 52.3098 52.5675 52.2871 52.6873C52.2558 52.8481 52.2474 53.0124 52.2623 53.1755C52.2855 53.4527 52.3319 53.7275 52.4011 53.997C52.4659 54.2591 52.5445 54.5177 52.6365 54.7716C52.6964 54.9178 52.7139 55.0026 52.7461 55.1005C52.7782 55.1984 52.7958 55.3314 52.8206 55.4454C52.904 55.9278 52.9668 56.432 53.0311 56.9392C53.0954 57.4464 53.1583 57.9624 53.2284 58.4652C53.3752 59.5538 53.5836 60.6332 53.8526 61.6983C54.1159 62.7782 54.4779 63.8316 54.9342 64.8452C55.0161 65.0074 55.0804 65.174 55.1769 65.3304L55.4604 65.7982L55.532 65.9151L55.6124 66.0232L55.7732 66.2396C55.8785 66.3857 55.9969 66.5202 56.1094 66.6576C56.568 67.1948 57.0559 67.7062 57.5711 68.1894C58.9641 69.5808 60.398 70.4783 62.1724 71.9618C62.9544 72.6093 63.6444 73.1662 63.713 73.0917C63.7817 73.0171 63.1459 72.4223 62.3361 71.7631C61.1785 70.8159 60.341 70.1143 59.5443 69.4025C58.7477 68.6907 57.976 67.9877 57.0288 66.9762L56.7131 66.6006C56.5991 66.4749 56.4909 66.339 56.374 66.2045C56.1276 65.9141 55.9038 65.6053 55.7045 65.2807C55.2023 64.4277 54.8229 63.508 54.5776 62.549C54.2063 61.1838 54.0587 59.7792 53.8657 58.3687C53.6026 56.4277 53.5734 56.1134 53.4711 55.368C53.4462 55.2218 53.4287 55.0844 53.4009 54.9456C53.3819 54.8739 53.3629 54.7994 53.3454 54.7322C53.3351 54.6985 53.3264 54.6576 53.3176 54.6299L53.2913 54.5495C53.2252 54.3308 53.1706 54.1088 53.1276 53.8844C53.0849 53.6738 53.0537 53.4611 53.034 53.2471C53.0276 53.1498 53.0276 53.0522 53.034 52.9548C53.0363 52.9169 53.0417 52.8793 53.0501 52.8423C53.0523 52.8323 53.0552 52.8225 53.0589 52.813C53.0589 52.813 53.0589 52.813 53.0443 52.8057C53.0199 52.7938 52.9965 52.7802 52.9741 52.7648C52.9581 52.7545 52.9433 52.7422 52.9303 52.7283C52.9303 52.7283 52.9142 52.7063 52.9186 52.7137L52.9814 52.8744L52.999 52.8891L53.0326 52.9183L53.17 53.0323C53.3199 52.9536 53.4874 52.9144 53.6567 52.9183C53.7581 52.9228 53.8575 52.9477 53.9491 52.9914C54.0131 53.0219 54.0742 53.0581 54.1318 53.0995L54.1727 53.1317C54.1815 53.1434 54.18 53.1317 54.18 53.1185V53.0893V52.9694C54.1698 52.7881 54.1901 52.6063 54.2399 52.4316C54.1581 52.2518 54.0689 52.0676 53.9754 51.8776C53.93 51.7841 53.8847 51.6905 53.8453 51.597L53.7883 51.4508C53.7795 51.4274 53.7722 51.404 53.7649 51.3806L53.7547 51.3383C53.7465 51.3043 53.7421 51.2695 53.7415 51.2345C53.7415 51.2184 53.7415 51.2213 53.7415 51.2126C53.7415 51.2038 53.7488 51.2126 53.7254 51.2023L53.6596 51.3017C53.6923 51.2705 53.7335 51.2497 53.778 51.2418C53.8388 51.2339 53.9006 51.2389 53.9593 51.2564C54.1193 51.3167 54.2676 51.4043 54.3978 51.5151C54.5291 51.6214 54.6706 51.7144 54.8202 51.7928C55.0394 51.9253 55.2499 52.0717 55.4502 52.2313C55.4926 52.2664 55.532 52.2986 55.5686 52.3307L55.6212 52.3804C55.6329 52.395 55.63 52.3804 55.6344 52.3731L55.6446 52.3556C55.6796 52.3036 55.7311 52.2649 55.7908 52.2459C55.7001 51.7914 55.6051 51.3222 55.5525 50.8969C55.5267 50.6957 55.5218 50.4924 55.5379 50.2903V50.2552V50.2391L55.5452 50.2084C55.5452 50.1953 55.5554 50.1719 55.5598 50.1704C55.5642 50.169 55.57 50.1704 55.5598 50.1602C55.5322 50.1458 55.507 50.127 55.4853 50.1046C55.4711 50.0951 55.4591 50.0826 55.4502 50.0681V50.0783C55.4509 50.0856 55.4509 50.093 55.4502 50.1003C55.4502 50.109 55.4502 50.109 55.4502 50.1236C55.4517 50.1392 55.4517 50.1549 55.4502 50.1704C55.4487 50.1853 55.4457 50.2 55.4414 50.2143C55.4402 50.2205 55.4377 50.2265 55.4341 50.2318H55.4443C55.4443 50.2318 55.4707 50.2479 55.4853 50.2537C55.4999 50.2596 55.5218 50.2815 55.5408 50.2932C55.5598 50.3049 55.5817 50.3283 55.6022 50.3444C55.6196 50.3575 55.6357 50.3722 55.6504 50.3882C55.6651 50.4043 55.6753 50.4174 55.6899 50.4364L55.7367 50.5037C55.8752 50.7226 56.0006 50.9496 56.1123 51.1833C56.2088 51.388 56.3082 51.5926 56.4047 51.7972L56.5508 52.1129L56.6356 52.2796C56.6517 52.3088 56.6692 52.3395 56.6912 52.376C56.7073 52.4023 56.7249 52.4277 56.7438 52.452L56.7555 52.4652L56.7759 52.4871L56.8008 52.5119C56.8178 52.5273 56.8359 52.5415 56.8549 52.5543L56.8709 52.5646C56.8849 52.574 56.8995 52.5823 56.9148 52.5894C56.9461 52.6038 56.979 52.6146 57.0127 52.6216H57.0376H57.0507H57.0785C57.1197 52.6245 57.1611 52.6211 57.2013 52.6113C57.2426 52.6023 57.2824 52.5875 57.3197 52.5675L57.3679 52.5368L57.3752 52.528L57.3928 52.5046L57.4015 52.493C57.4468 52.243 57.4468 52.0033 57.4775 51.7475C57.4863 51.6788 57.4965 51.613 57.5112 51.5487C57.5224 51.4861 57.5502 51.4276 57.5915 51.3792C57.6028 51.3675 57.6175 51.3596 57.6335 51.3568C57.6495 51.3539 57.666 51.3561 57.6807 51.3631C57.7119 51.3784 57.7397 51.3998 57.7626 51.426C57.8181 51.4727 57.8181 51.5517 57.8415 51.616C57.919 51.8849 57.9804 52.1378 58.0374 52.376C58.0944 52.6143 58.1572 52.9271 58.2639 53.4956C58.356 54.0087 58.4452 54.5188 58.5489 55.0479C58.7302 55.9599 58.8413 56.9173 59.0942 57.825C59.2082 58.2342 59.3236 58.6435 59.4552 59.0513C59.4552 59.0761 59.4654 59.0995 59.4713 59.1258C59.5063 59.2998 59.5604 59.4708 59.6101 59.6476C59.6598 59.8245 59.7095 60.0013 59.7738 60.1753C59.8381 60.3492 59.8981 60.5261 59.9595 60.7029C59.9916 60.7906 60.034 60.8827 60.0706 60.9719C60.1071 61.061 60.1451 61.1531 60.1919 61.2379C60.415 61.7015 60.6943 62.136 61.0236 62.5314C61.7409 63.369 62.6103 64.0633 63.5859 64.5777C64.5186 65.0888 65.5075 65.49 66.5326 65.7733C66.936 65.8844 67.3439 65.9779 67.759 66.0496L67.9738 66.1022C68.2935 66.1813 68.6199 66.2302 68.9488 66.2483C69.035 66.2483 69.1271 66.2483 69.2148 66.2483C69.3128 66.2439 69.4104 66.2337 69.5071 66.2176C69.7118 66.1816 69.9093 66.1125 70.0918 66.013C70.4782 65.8152 70.7851 65.4911 70.9617 65.0947C71.1383 64.6982 71.1738 64.2532 71.0624 63.8337C71.0006 63.6423 70.8932 63.4688 70.7496 63.328C70.6476 63.2221 70.5398 63.1221 70.4265 63.0284C70.3471 62.963 70.2631 62.9034 70.1751 62.85C69.7534 62.5282 69.3664 62.1632 69.0204 61.7611C68.6973 61.3795 68.4578 60.9344 68.3173 60.4544C68.1825 59.9711 68.1448 59.4659 68.2062 58.968L68.4518 57.3309C68.5088 57.0152 68.5746 56.7068 68.636 56.397C68.6652 56.2406 68.7076 56.09 68.7471 55.938L68.8684 55.4834C68.9069 55.3325 68.9533 55.1837 69.0072 55.0376L69.1534 54.5992C69.2075 54.453 69.2703 54.3171 69.3288 54.1753C69.3835 54.0341 69.447 53.8964 69.5188 53.7631L69.7235 53.3743L69.9588 53.0162C70.1178 52.7907 70.3006 52.5829 70.504 52.3965L70.5756 52.3263L70.656 52.2664L70.8153 52.1465C70.8685 52.1075 70.9247 52.0728 70.9834 52.0428C71.0419 52.0091 71.096 51.9741 71.1559 51.9434C71.4048 51.8235 71.6647 51.728 71.9321 51.6584C72.0095 51.6364 72.0958 51.6174 72.1805 51.597L72.4407 51.537C72.6322 51.4903 72.7754 51.461 72.9333 51.4318C73.2496 51.379 73.57 51.3541 73.8907 51.3573C74.5401 51.363 75.1854 51.4614 75.807 51.6496C75.9955 51.7051 76.1811 51.7694 76.3639 51.8396C76.4559 51.8718 76.5436 51.9127 76.6343 51.9492C76.6796 51.9668 76.722 51.9887 76.7658 52.0091L76.8316 52.0398L76.8652 52.0545H76.8784L76.9003 52.0676L76.9515 52.0998L77.0596 52.1714C77.1327 52.2255 77.2058 52.2766 77.2774 52.3366L77.3856 52.4228L77.4893 52.5163L77.5931 52.6099L77.6925 52.7107C77.9581 52.9739 78.1907 53.2684 78.3854 53.5877L78.4614 53.7046C78.4847 53.7456 78.5037 53.788 78.5257 53.8289L78.6543 54.0774C78.6938 54.1621 78.7245 54.2498 78.761 54.3361C78.7988 54.4212 78.8315 54.5086 78.8589 54.5977L78.9379 54.8652C78.951 54.909 78.9671 54.9529 78.9788 54.9982L79.0051 55.137C79.0509 55.3192 79.0841 55.5043 79.1045 55.691C79.1333 55.8793 79.1504 56.0692 79.1557 56.2596L79.1644 56.5519V56.6981V56.8515C79.1545 57.6712 79.0762 58.4887 78.9306 59.2954C78.8069 59.9515 78.6339 60.5975 78.4131 61.2276C78.2674 61.5804 78.1025 61.9249 77.9191 62.2595C77.827 62.4218 77.732 62.5811 77.6355 62.7287C77.5887 62.7989 77.539 62.8749 77.4893 62.9319L77.4572 62.9728L77.4265 63.0123L77.3812 63.0649L77.2043 63.2666C77.1809 63.3558 77.1561 63.442 77.1385 63.5282C77.1283 63.5721 77.1195 63.6159 77.1108 63.6583C77.102 63.7007 77.0962 63.7475 77.0918 63.7709C77.0497 64.0582 77.037 64.3491 77.0538 64.6391C77.0692 64.9528 77.1343 65.2622 77.2467 65.5555C77.3127 65.7192 77.3991 65.8739 77.504 66.0159C77.6177 66.1657 77.7555 66.2956 77.9118 66.4003C78.0648 66.4986 78.2319 66.573 78.4073 66.621C78.5679 66.6623 78.7326 66.6858 78.8984 66.6912H79.0987C79.1483 66.6912 79.1951 66.6912 79.2448 66.6912C79.3515 66.7 79.4568 66.7087 79.5678 66.7263C79.7871 66.757 80.0063 66.8052 80.2344 66.8578C80.6729 66.9645 81.1245 67.1005 81.566 67.2379C82.4079 67.5011 83.2197 67.8523 83.988 68.2858C84.1955 68.4057 84.4016 68.5299 84.6004 68.6644C84.7992 68.7989 84.998 68.9319 85.1953 69.0693C85.5753 69.3324 85.9408 69.5735 86.3018 69.8586C86.8103 70.2663 87.2926 70.7057 87.7459 71.174C88.6142 72.1788 89.337 73.3006 89.8931 74.5065C90.4056 75.6159 90.7934 76.7786 91.0493 77.9735C91.2335 78.8651 91.3504 79.7947 91.4805 80.717C91.558 81.3762 91.6267 82.0325 91.6881 82.6931L91.7407 83.5701C91.7553 83.8624 91.7787 84.1547 91.7758 84.4471C91.7758 84.8139 91.7758 85.1779 91.7758 85.5491C91.7758 85.9204 91.7421 86.2799 91.7158 86.641C91.6645 87.2938 91.556 87.9409 91.3913 88.5747C91.3709 88.6522 91.3563 88.7326 91.3285 88.8071L91.2481 89.0293C91.2245 89.1034 91.1967 89.1761 91.1648 89.247L91.0625 89.4517C91.0312 89.5165 90.993 89.5778 90.9485 89.6344L90.89 89.7221C90.8695 89.7469 90.8461 89.7674 90.8242 89.7908C90.8023 89.8142 90.7818 89.8405 90.7599 89.858C90.738 89.8718 90.717 89.8869 90.697 89.9033C90.6751 89.9238 90.659 89.9194 90.6415 89.9311C90.624 89.9428 90.6283 89.9311 90.6254 89.9311C90.6254 89.9311 90.6254 89.9311 90.6254 89.9457V89.9691V89.9837C90.6327 90.0319 90.6152 89.9209 90.6167 89.9326H90.6473L90.7307 89.9442H90.7438L90.716 90.0305V90.0159L90.7248 89.9896L90.7394 89.9442H90.7321L90.7117 89.9326C90.6867 89.919 90.6656 89.8994 90.6503 89.8756C90.5921 89.7997 90.5516 89.7118 90.5319 89.6183L90.5026 89.4955L90.3755 89.4239C90.3375 89.4005 90.3068 89.3757 90.2717 89.3523C90.0987 89.2263 89.9821 89.0373 89.9472 88.8261C89.9392 88.7886 89.9348 88.7504 89.9341 88.7121V88.6566C89.9341 88.639 89.9341 88.6054 89.9224 88.6376C89.8813 88.709 89.8359 88.7778 89.7864 88.8436C89.6721 89.0028 89.5257 89.1363 89.3567 89.2354C89.268 89.4948 89.1635 89.7486 89.0439 89.9954C89.015 90.0528 88.9828 90.1084 88.9474 90.162C88.9355 90.1829 88.9196 90.2013 88.9007 90.2161C88.8802 90.2336 88.848 90.2497 88.8232 90.2307C88.8018 90.2126 88.7861 90.1888 88.7779 90.162C88.7479 90.0507 88.7298 89.9366 88.7238 89.8215C88.715 89.7045 88.7062 89.5847 88.7033 89.4634C88.6872 89.1176 88.7043 88.771 88.7545 88.4285V88.411V88.4548V88.5162V88.6419V88.8948C88.7545 89.0643 88.7545 89.2368 88.7413 89.4107C88.7361 89.7139 88.6869 90.0148 88.5952 90.3038C88.5498 90.412 88.4812 90.5391 88.3525 90.5581C88.2912 90.5566 88.2311 90.5401 88.1776 90.5101C88.1241 90.48 88.0787 90.4373 88.0456 90.3857C87.9755 90.2838 87.9236 90.1705 87.8921 90.0509C87.8526 89.9071 87.8237 89.7605 87.8058 89.6125C87.7971 89.5335 87.7883 89.4546 87.781 89.3742C87.781 89.3377 87.781 89.2807 87.7722 89.228C87.7635 89.1754 87.7722 89.1257 87.7649 89.0731C87.7649 88.8626 87.7649 88.6507 87.7737 88.4329C87.8 87.9944 87.8439 87.5326 87.8979 87.0838V87.0341L87.8819 87.0444L87.8497 87.0619C87.8287 87.0714 87.8066 87.0783 87.7839 87.0824C87.4505 87.4709 87.0884 87.8339 86.7008 88.1684C86.6552 88.205 86.6063 88.2373 86.5547 88.2648L86.4903 88.297C86.4801 88.297 86.4655 88.3116 86.4626 88.3087C86.4377 88.3087 86.4304 88.3087 86.4012 88.2721C86.372 88.2194 86.3522 88.1621 86.3427 88.1026C86.3346 88.0313 86.3302 87.9595 86.3296 87.8877C86.348 87.5903 86.4121 87.2975 86.5196 87.0195C86.6262 86.7286 86.7537 86.4458 86.9011 86.1732C86.9751 86.0378 87.0526 85.9033 87.1335 85.7698L87.1949 85.6704L87.2709 85.5535C87.322 85.4746 87.3776 85.3957 87.4317 85.3182C87.4097 85.1633 87.3732 84.9937 87.3469 84.8446L87.268 84.4441C87.2139 84.1781 87.1583 83.9121 87.0984 83.6476C86.9785 83.117 86.847 82.5893 86.6921 82.0661C86.4967 81.3435 86.2475 80.6365 85.9466 79.9511C85.6704 79.3667 85.3443 78.8072 84.9717 78.279C84.6688 77.8131 84.2881 77.4027 83.8462 77.0658L83.6722 76.9475C83.6122 76.9097 83.5502 76.8751 83.4866 76.8437C83.356 76.7747 83.2195 76.7175 83.0788 76.6727C83.0042 76.6493 82.9326 76.6405 82.8522 76.623C82.7783 76.6033 82.7022 76.593 82.6257 76.5923L82.3991 76.5835C82.3616 76.5869 82.3245 76.5932 82.288 76.6025C82.2525 76.6155 82.2179 76.6306 82.1842 76.6478C82.0533 76.7501 81.9602 76.8931 81.9197 77.0541C81.8759 77.209 81.8499 77.3684 81.8422 77.5292V77.649C81.84 77.6851 81.84 77.7212 81.8422 77.7572C81.8422 77.8274 81.8422 77.9034 81.8422 77.9662C81.8422 78.1051 81.8583 78.241 81.8714 78.3769C81.927 78.9192 82.0176 79.4527 82.1345 80.0417C82.2208 80.4992 82.3626 81.0079 82.4415 80.9962C82.5511 80.9874 82.4824 80.622 82.3626 80.0052Z" fill="#063844"/>
<path d="M74.8671 59.6154C73.9071 60.0869 72.8261 60.2546 71.7683 60.0963C71.6563 60.0688 71.5379 60.0853 71.4376 60.1424C71.3373 60.1995 71.2627 60.2928 71.229 60.4032C71.1705 60.6108 71.2992 60.906 71.5345 60.9425C72.8226 61.1481 74.1428 60.9489 75.3129 60.3725C75.4132 60.3139 75.4862 60.2179 75.5158 60.1055C75.5454 59.9932 75.5292 59.8737 75.4708 59.7732C75.4101 59.6748 75.3138 59.6035 75.202 59.5741C75.0901 59.5447 74.9713 59.5595 74.87 59.6154H74.8671Z" fill="#063844"/>
<path d="M82.5701 81.0151C82.5701 81.0151 87.3147 99.4448 84.2306 112.225C84.2306 112.225 90.2965 117.578 87.0852 117.756C83.431 117.756 79.2653 114.068 79.1556 114.178C80.3674 112.306 76.8418 95.5583 76.8418 95.5583C76.8418 95.5583 72.812 101.877 71.7405 113.829C71.6017 115.381 66.9243 119.716 64.248 117.933C62.8199 117.04 65.9172 115.974 67.1026 112.759C68.3509 109.369 67.2488 85.2422 67.2488 85.2422C67.2488 85.2422 81.4695 85.4219 82.5701 81.0151Z" fill="#063844" stroke="#063844" stroke-width="2" stroke-miterlimit="10"/>
<path d="M78.2303 58.3847C78.4779 58.1719 78.7687 58.0154 79.0826 57.9258C79.3965 57.8362 79.7261 57.8158 80.0487 57.8658C80.6889 57.9886 81.2604 58.5002 81.3642 59.1418C81.4913 59.8873 80.9885 60.6268 80.341 61.0127C79.6935 61.3986 78.9173 61.5097 78.1689 61.6134" fill="white"/>
<path d="M78.3268 61.707C78.4861 61.6837 78.6601 61.7436 78.8165 61.6763C79.0723 61.5638 79.1088 61.6763 79.2681 61.6427C79.3456 61.6252 79.5356 61.6033 79.6145 61.5799C79.6935 61.5565 79.7987 61.4132 79.8718 61.3957C79.8813 61.3937 79.8906 61.3907 79.8996 61.3869C80.0817 61.3681 80.2651 61.3657 80.4477 61.3796C80.6398 61.3941 80.8311 61.3425 80.99 61.2335C81.1317 61.0881 81.2408 60.9142 81.3101 60.7234C81.3913 60.5613 81.4611 60.3938 81.5191 60.222C81.577 60.0325 81.607 59.8355 81.6083 59.6374C81.6232 59.4746 81.6271 59.311 81.62 59.1477C81.6135 58.9805 81.5809 58.8153 81.5235 58.6581C81.3909 58.3231 81.1575 58.0376 80.8555 57.841C80.7012 57.7491 80.5233 57.7049 80.3439 57.7139C80.1671 57.7139 80.0048 57.7372 79.844 57.7139C79.6379 57.6846 79.293 57.6379 79.0854 57.7139C78.9541 57.7325 78.8303 57.7866 78.7273 57.8703C78.6155 57.9576 78.4989 58.0386 78.378 58.1129C78.2464 58.1918 78.1675 58.3058 78.2318 58.3818C78.2961 58.4578 78.4043 58.4067 78.5241 58.3277C78.659 58.2361 78.8068 58.1651 78.9626 58.1173C79.1108 58.0737 79.2624 58.0429 79.4158 58.0252C79.6367 58.0047 79.8596 58.0215 80.075 58.0749C80.2518 58.1173 80.3673 58.2707 80.5135 58.3599C80.7079 58.4885 80.7327 58.5207 80.7707 58.6025C80.8204 58.7355 80.7927 58.851 80.8277 58.9402C80.8628 59.0293 80.8964 59.1433 80.9271 59.2457C80.962 59.3512 80.9684 59.464 80.9459 59.5728C80.9233 59.6815 80.8725 59.7825 80.7985 59.8654C80.7235 59.939 80.6541 60.0182 80.5909 60.1022C80.5128 60.1873 80.4261 60.2642 80.3322 60.3316C80.2068 60.4736 80.092 60.6245 79.9887 60.7833C79.9177 60.895 79.8338 60.998 79.7388 61.0902C79.6384 61.1101 79.5405 61.1405 79.4465 61.1809C79.3625 61.2149 79.276 61.2423 79.1877 61.2627C79.0439 61.306 78.8974 61.3402 78.7492 61.365C78.5841 61.3928 78.4569 61.4527 78.2903 61.4761C78.2245 61.4849 78.1543 61.5199 78.1646 61.5974C78.1821 61.7056 78.2377 61.7187 78.3268 61.707Z" fill="#063844"/>
<path d="M80.2606 59.4547C80.1292 59.3269 79.968 59.2339 79.7915 59.1844C79.6073 59.1405 79.4133 59.1671 79.2477 59.2589C79.1164 59.3403 79.0046 59.4496 78.9203 59.579C78.8646 59.6606 78.8157 59.7466 78.7741 59.8362C78.7215 59.94 78.6747 60.0452 78.6192 60.1461C78.5614 60.2487 78.5457 60.3698 78.5753 60.4837C78.5983 60.5668 78.6451 60.6413 78.7102 60.6979C78.7752 60.7545 78.8555 60.7907 78.9409 60.8019C79.0264 60.8132 79.1133 60.7989 79.1907 60.7611C79.2682 60.7232 79.3327 60.6633 79.3763 60.589C79.4687 60.386 79.5767 60.1905 79.6994 60.0043L79.6307 60.0935C79.6601 60.0537 79.6945 60.0179 79.733 59.9868L79.6438 60.0555C79.668 60.0366 79.6946 60.0209 79.7228 60.0087L79.619 60.0526C79.6422 60.0435 79.6661 60.0367 79.6906 60.0321L79.5737 60.0482C79.5994 60.0452 79.6254 60.0452 79.6511 60.0482L79.5342 60.0321C79.5666 60.0377 79.5985 60.0466 79.6292 60.0584L79.524 60.0146C79.5762 60.0374 79.6254 60.0669 79.6701 60.1023L79.581 60.0336L79.6394 60.0818C79.7232 60.1616 79.8336 60.2075 79.9493 60.2104C80.0658 60.2094 80.1774 60.1633 80.2606 60.0818C80.3428 59.9996 80.3889 59.8881 80.3889 59.7719C80.3889 59.6557 80.3428 59.5443 80.2606 59.4621V59.4547Z" fill="#063844"/>
<path d="M70.2627 55.7787L70.2773 57.2564C70.2773 57.3727 70.3235 57.4842 70.4057 57.5665C70.488 57.6487 70.5995 57.6949 70.7158 57.6949C70.8321 57.6949 70.9436 57.6487 71.0259 57.5665C71.1081 57.4842 71.1543 57.3727 71.1543 57.2564L71.1397 55.7787C71.1397 55.6624 71.0935 55.5509 71.0113 55.4686C70.929 55.3864 70.8175 55.3402 70.7012 55.3402C70.5849 55.3402 70.4734 55.3864 70.3911 55.4686C70.3089 55.5509 70.2627 55.6624 70.2627 55.7787Z" fill="#063844"/>
<path d="M75.6475 55.8123L75.516 57.2023C75.5161 57.3185 75.5624 57.43 75.6446 57.5121C75.7268 57.5943 75.8383 57.6404 75.9545 57.6404C76.0707 57.6404 76.1821 57.5943 76.2644 57.5121C76.3424 57.4272 76.388 57.3175 76.393 57.2023L76.5245 55.8123C76.5248 55.6962 76.4791 55.5848 76.3974 55.5024C76.314 55.4211 76.2025 55.3751 76.086 55.3738C75.97 55.3748 75.8589 55.4209 75.7762 55.5024C75.6992 55.588 75.6538 55.6973 75.6475 55.8123Z" fill="#063844"/>
<path d="M71.9012 55.3738C71.6484 56.2186 71.3984 57.0839 71.3911 57.974C71.3911 58.3745 71.4335 58.813 71.6601 59.1565C71.7689 59.3339 71.9218 59.48 72.104 59.5807C72.2861 59.6814 72.4912 59.7331 72.6993 59.7309C72.8149 59.7287 72.9251 59.6818 73.0069 59.6C73.0886 59.5183 73.1356 59.408 73.1378 59.2924C73.1378 59.1761 73.0916 59.0646 73.0094 58.9824C72.9271 58.9001 72.8156 58.8539 72.6993 58.8539C72.5298 58.8539 72.407 58.756 72.3368 58.5616C72.2316 58.2693 72.2608 57.9317 72.2842 57.6335C72.3383 56.9436 72.5488 56.2713 72.7461 55.6121C72.9083 55.0698 72.062 54.8389 71.9012 55.3797V55.3738Z" fill="#063844"/>
<path d="M69.339 65.3538C69.1037 65.6388 69.2308 65.6608 69.377 65.7689C69.4676 65.8347 69.5539 65.9063 69.6416 65.9779C69.7293 66.0496 69.8243 66.1109 69.9149 66.1826C70.0918 66.3287 70.2818 66.4632 70.4718 66.6094L70.618 66.7204L70.7641 66.8198L71.0682 67.0259C71.2743 67.1604 71.4906 67.2759 71.7098 67.4001C72.5868 67.8517 73.61 68.0973 74.5221 67.8503C75.1774 67.6635 75.8176 67.427 76.4369 67.1429C77.0493 66.8812 77.6472 66.6123 78.2932 66.3916C78.4292 66.3463 78.5695 66.3156 78.473 66.051C78.3473 65.7046 78.2698 65.7908 78.1076 65.8464C77.3417 66.108 76.5626 66.358 75.7411 66.1826C74.946 66.0086 74.2444 65.8274 73.5808 65.7338C73.4474 65.7171 73.312 65.7421 73.1934 65.8055C73.078 65.8633 72.9583 65.9121 72.8353 65.9516C72.7496 65.9753 72.6582 65.967 72.5781 65.9282C72.5005 65.8842 72.4284 65.8312 72.3632 65.7704C72.2997 65.7088 72.2329 65.6507 72.163 65.5965C72.1028 65.5411 72.0284 65.5036 71.9481 65.4883C71.8694 65.4794 71.79 65.4794 71.7113 65.4883C71.6294 65.4883 71.5491 65.4971 71.4614 65.5102C71.2889 65.5336 71.0989 65.5818 70.9118 65.6008C70.5303 65.6608 70.1239 65.6666 69.8082 65.5088C69.7717 65.4518 69.7556 65.3714 69.7205 65.3158C69.6123 65.2267 69.5173 65.1375 69.339 65.3538Z" fill="#063844"/>
<path d="M67.8217 54.7044C65.4406 53.0484 67.5557 48.8316 68.8288 46.227L69.8797 47.5264C70.0639 46.4652 70.5082 45.1542 71.5826 45.0738C72.2155 45.0255 72.7972 45.4889 73.0881 46.0531C73.379 46.6172 73.4389 47.2691 73.493 47.9006C73.5924 47.1581 74.6258 46.816 75.2543 47.2238C75.8828 47.6316 76.067 48.5174 75.839 49.2336C76.4002 48.7951 76.9718 48.3566 77.6368 48.1081C78.3019 47.8596 79.0853 47.8289 79.6919 48.1973C80.2985 48.5656 80.6347 49.4031 80.3058 50.0316C80.6508 49.447 81.636 49.425 82.0102 49.9907C82.3843 50.5563 81.9736 51.4523 81.3012 51.5415C81.5738 51.7461 81.7727 52.0336 81.8681 52.3609C81.9634 52.6882 81.95 53.0375 81.83 53.3566C81.7099 53.6756 81.4896 53.9471 81.2021 54.1303C80.9147 54.3135 80.5756 54.3985 80.2357 54.3727C80.2357 54.3727 74.2428 54.4267 74.4167 52.6421C74.4167 52.6421 72.6335 54.2499 71.5621 53.177C71.5621 53.1697 69.26 55.7027 67.8217 54.7044Z" fill="#063844"/>
<path d="M68.0469 54.969C68.406 55.1045 68.7987 55.1239 69.1694 55.0245C69.5053 54.9301 69.8251 54.7857 70.1181 54.5962C70.2642 54.5071 70.6004 54.3434 70.7364 54.2352C70.8723 54.1271 71.0842 53.9429 71.2085 53.8464L71.2509 53.8128L71.2801 53.7923L71.3283 53.7602C71.3576 53.7427 71.3809 53.731 71.4029 53.7193C71.4608 53.6921 71.5145 53.6566 71.5622 53.614L71.6002 53.5819C71.6002 53.5819 71.6002 53.5819 71.609 53.5819L71.6192 53.5921L71.6397 53.6126C71.6959 53.6759 71.7603 53.7314 71.8311 53.7777L71.856 53.7923C71.8669 53.8 71.8787 53.8064 71.8911 53.8113L71.9978 53.8537C72.0756 53.8805 72.1552 53.9015 72.236 53.9166C72.6228 53.9713 73.0171 53.9208 73.3776 53.7704C73.5238 53.7149 73.6699 53.6535 73.8015 53.5863L73.8526 53.5599L73.8775 53.5483L73.9257 53.5249L74.0178 53.4781L74.0529 53.4576C74.1011 53.4299 74.1464 53.4036 74.1874 53.3772L74.2181 53.3568L74.2341 53.3466C74.2341 53.3466 74.2458 53.3349 74.2429 53.3466C74.2407 53.3762 74.2407 53.406 74.2429 53.4357C74.2489 53.4829 74.2649 53.5282 74.2897 53.5687L74.3335 53.6213L74.3876 53.6681L74.43 53.7105L74.4592 53.731L74.5162 53.7733C74.5557 53.7997 74.5937 53.8289 74.6332 53.8537C74.7092 53.8976 74.7881 53.9444 74.8656 53.9824C75.016 54.0535 75.1707 54.115 75.3289 54.1665C75.6973 54.2864 76.0452 54.3843 76.3989 54.4866C76.9835 54.6766 77.5551 54.8418 78.1353 54.9865C78.5125 55.0786 78.8925 55.1473 79.2813 55.2028C79.5369 55.2425 79.7946 55.2674 80.0531 55.2774C80.1145 55.2774 80.1715 55.2774 80.2402 55.2774H80.1685C80.7073 55.305 81.2396 55.1505 81.6799 54.8389C81.9302 54.6663 82.1467 54.4494 82.3187 54.1987C82.4923 53.9431 82.6085 53.6528 82.6592 53.348C82.7091 53.0528 82.6992 52.7506 82.63 52.4593C82.598 52.32 82.553 52.1839 82.4955 52.053C82.469 51.9901 82.4393 51.9286 82.4064 51.8688C82.3961 51.8484 82.3976 51.8572 82.3947 51.8513H82.3859L82.3698 51.8367C82.3128 51.7886 82.2516 51.7455 82.1871 51.7081C82.1783 51.7081 82.1871 51.7081 82.1871 51.7081H82.1959C82.2532 51.6743 82.2983 51.6231 82.3245 51.5619C82.3645 51.509 82.4007 51.4534 82.4327 51.3953C82.5155 51.2587 82.5785 51.1111 82.6198 50.9568C82.6423 50.879 82.6575 50.7992 82.6651 50.7185C82.675 50.6337 82.679 50.5482 82.6768 50.4628C82.6695 50.2178 82.5936 49.9799 82.4576 49.776C82.3217 49.5721 82.1312 49.4105 81.9079 49.3095C81.8439 49.2787 81.7774 49.2532 81.7091 49.2335C81.6454 49.2148 81.5804 49.2001 81.5147 49.1897C81.449 49.1794 81.3846 49.1765 81.3203 49.1721H81.1639C80.9707 49.2093 80.7985 49.3178 80.6816 49.4762L80.667 49.4966L80.6524 49.5171V49.5069L80.6699 49.4674C80.6802 49.4401 80.689 49.4123 80.6962 49.3841C80.711 49.3248 80.7183 49.2639 80.7181 49.2028C80.7228 49.122 80.7114 49.041 80.6845 48.9646L80.667 48.9193V48.9076V48.9193L80.648 48.8769C80.623 48.8195 80.5942 48.7638 80.5617 48.7103C80.3864 48.3891 80.1253 48.1229 79.8075 47.9414C79.5009 47.7729 79.1612 47.6732 78.8121 47.6491C78.4487 47.6223 78.0833 47.6579 77.7319 47.7544C77.5591 47.8017 77.3893 47.8593 77.2233 47.9268C77.1414 47.959 77.061 47.9941 76.9806 48.0306L76.9207 48.0584L76.9061 48.0657H76.8885L76.8228 48.0935C76.6745 48.1521 76.5345 48.2297 76.4062 48.3244L76.3126 48.396L76.2659 48.434L76.2425 48.4545C76.2425 48.4545 76.2235 48.472 76.2293 48.4545C76.2494 48.3835 76.2612 48.3104 76.2644 48.2367V48.2177C76.2672 48.1299 76.2599 48.0421 76.2425 47.9561C76.2325 47.9121 76.2203 47.8687 76.2059 47.826C76.2059 47.8011 76.1928 47.788 76.1811 47.7558C76.1636 47.7059 76.1431 47.6571 76.1197 47.6097C76.032 47.4246 75.9173 47.2537 75.7791 47.1025C75.7058 47.0263 75.6266 46.9559 75.5423 46.892C75.4962 46.857 75.4473 46.8257 75.3962 46.7985C75.3504 46.7671 75.3014 46.7406 75.25 46.7195C75.0541 46.6192 74.8407 46.5576 74.6215 46.5383C74.5366 46.5286 74.4511 46.5247 74.3657 46.5266H74.2502H74.2005H74.183L74.1347 46.5193C74.0952 46.5127 74.0547 46.5152 74.0164 46.5266C74.0032 46.5266 73.9973 46.5397 74.0003 46.5471C74.0032 46.5544 74.0003 46.5207 74.0003 46.5032V46.4433C74.0028 46.4043 74.0028 46.3653 74.0003 46.3264C74.0018 46.3093 74.0018 46.2922 74.0003 46.2752V46.2533V46.2416L73.9857 46.1992C73.9443 46.0812 73.8955 45.966 73.8395 45.8542C73.8117 45.7972 73.7796 45.7402 73.7489 45.6832C73.7182 45.6262 73.6787 45.5648 73.6392 45.5108C73.4863 45.2891 73.3005 45.0919 73.0882 44.9261C72.9285 44.7895 72.7557 44.669 72.5722 44.5665C72.4435 44.4948 72.3085 44.4351 72.1688 44.3882C71.9451 44.3218 71.7092 44.3069 71.4789 44.3444C71.2461 44.3772 71.0213 44.452 70.8153 44.5651C70.6958 44.6275 70.5827 44.7014 70.4776 44.7858C70.3804 44.867 70.29 44.956 70.2072 45.0518C70.0573 45.2285 69.9328 45.4253 69.8374 45.6365C69.6795 46.0098 69.5747 46.4034 69.5261 46.8058C69.4939 47.0221 69.4691 47.2355 69.4486 47.4518L70.216 47.253L69.8681 46.873L68.9356 45.8689L68.8435 45.7607L68.7967 45.7066L68.7733 45.6788L68.7616 45.6642C68.7616 45.6642 68.7616 45.6745 68.7543 45.6803L68.6213 45.9536C68.5321 46.132 68.4415 46.3073 68.3465 46.4842L68.0615 47.0148L67.8028 47.5117C67.4991 48.0949 67.2306 48.6957 66.9988 49.311C66.7591 49.9526 66.6773 50.6469 66.5443 51.3222C66.4586 51.7655 66.435 52.2186 66.4741 52.6684C66.478 52.983 66.5582 53.292 66.708 53.5687C66.868 53.868 67.0617 54.148 67.2853 54.4033C67.5002 54.6562 67.7662 54.7848 67.8189 54.7044C67.8715 54.624 67.68 54.4559 67.4783 54.2323C67.2412 53.9674 67.0779 53.6448 67.0047 53.2969C66.9371 52.9603 66.9126 52.6165 66.9316 52.2737C66.9279 51.7533 66.9882 51.2344 67.1114 50.7288C67.221 50.3107 67.4388 49.9307 67.5864 49.5259C67.7925 48.969 67.8247 48.8783 67.9416 48.684C68.1229 48.3916 68.2983 48.2045 68.4328 47.9371L68.6169 47.5687C68.6608 47.4781 68.6988 47.3904 68.7368 47.2896C68.7748 47.1887 68.8128 47.0966 68.8552 46.9972L68.8859 46.9242L68.902 46.8891C68.9093 46.8891 68.9195 46.9066 68.9268 46.9154L69.0306 47.0382C69.1736 47.2118 69.3027 47.3966 69.4165 47.5907C69.4588 47.6652 69.4983 47.7368 69.5392 47.7982L70.0377 48.6006L70.3052 47.5994C70.3461 47.4445 70.3841 47.2896 70.4192 47.1376C70.4947 46.8549 70.6011 46.5814 70.7364 46.322C70.8536 46.0974 70.9947 45.8862 71.1573 45.692C71.2903 45.5327 71.4891 45.5005 71.6806 45.4552C71.7713 45.4383 71.8647 45.4418 71.9539 45.4654L71.9685 45.4757C72.1098 45.569 72.2398 45.6784 72.3559 45.8016C72.4296 45.8894 72.4966 45.9828 72.5561 46.0808C72.622 46.1883 72.6816 46.2996 72.7345 46.414C72.7622 46.474 72.7885 46.5339 72.8149 46.6041C72.8265 46.6274 72.8485 46.7034 72.8645 46.7502C72.8806 46.797 72.8952 46.8671 72.9099 46.9256C72.9519 47.1109 72.9845 47.2983 73.0078 47.4869C73.1581 47.5469 73.2884 47.6482 73.3834 47.7792C73.4065 47.8115 73.4275 47.8452 73.4463 47.8801L73.4726 47.9312C73.4726 47.9181 73.4726 47.8976 73.4726 47.8815C73.4726 47.8654 73.4726 47.8611 73.4726 47.8523C73.4793 47.8287 73.491 47.8069 73.5069 47.7882C73.5228 47.7695 73.5425 47.7545 73.5647 47.7441C73.6522 47.7009 73.7459 47.6713 73.8424 47.6564C73.9991 47.6284 74.1572 47.6084 74.316 47.5965L74.3862 47.5687C74.3994 47.5634 74.4131 47.5595 74.4271 47.557L74.4987 47.5395C74.5375 47.534 74.5765 47.5306 74.6156 47.5293C74.6382 47.5305 74.6604 47.5238 74.6785 47.5103C74.7812 47.5142 74.8815 47.5427 74.9708 47.5936C75.065 47.6517 75.147 47.7276 75.212 47.8172C75.2465 47.8632 75.2768 47.9121 75.3026 47.9634C75.3166 47.9903 75.3288 48.0182 75.3392 48.0467C75.3603 48.0985 75.376 48.1524 75.3859 48.2075C75.3932 48.2791 75.4079 48.3449 75.4093 48.4238L75.3757 48.6956L75.3085 49.026L75.2237 49.4016C75.155 49.6939 75.0775 50.0155 74.9884 50.3488C75.212 50.2494 75.2953 50.2508 75.3202 50.2888L75.9048 49.8737C76.1635 49.691 76.4325 49.4952 76.7058 49.3066C76.8418 49.2116 76.9806 49.1239 77.1209 49.0377L77.3344 48.9193L77.3636 48.9047L77.3855 48.893L77.4147 48.8798L77.4732 48.855C77.7975 48.7239 78.1478 48.6704 78.4964 48.6986C78.6691 48.7134 78.8391 48.7508 79.0021 48.8097C79.0699 48.8349 79.1347 48.8677 79.1951 48.9076L79.2374 48.9354L79.2667 48.9617C79.2871 48.9802 79.3062 49.0002 79.3237 49.0216C79.3665 49.0679 79.4065 49.1167 79.4436 49.1678C79.4633 49.1939 79.4813 49.2212 79.4976 49.2496L79.5108 49.2701V49.2803L79.521 49.3125C79.521 49.3212 79.521 49.3125 79.521 49.3125V49.3198V49.558C79.7607 49.6837 79.9522 49.7846 80.0516 49.8401L80.1261 49.8825L80.1846 49.919C80.2088 49.9336 80.2314 49.9508 80.2519 49.9702C80.2611 49.9771 80.2686 49.9861 80.2738 49.9965C80.2738 50.0038 80.2738 50.017 80.284 50.0067C80.2942 49.9965 80.3425 49.9848 80.4419 50.0067C80.66 50.0863 80.8724 50.1805 81.0777 50.2888L81.1742 50.2801H81.2049C81.2239 50.2801 81.2458 50.2801 81.2633 50.2713C81.316 50.2611 81.3393 50.2406 81.392 50.2333C81.4421 50.2266 81.493 50.2353 81.5381 50.2581C81.5655 50.2755 81.5889 50.2984 81.6068 50.3254C81.6236 50.3541 81.6345 50.3859 81.639 50.4189C81.6411 50.4349 81.6411 50.4511 81.639 50.4671C81.6411 50.4861 81.6411 50.5052 81.639 50.5241C81.6305 50.6108 81.6119 50.6962 81.5834 50.7785C81.5788 50.7991 81.5719 50.8192 81.563 50.8384C81.5545 50.8628 81.5438 50.8863 81.5308 50.9086C81.49 51.0377 81.4346 51.1618 81.3656 51.2783C81.3194 51.3549 81.2552 51.4191 81.1786 51.4654L81.1435 51.483C81.1435 51.4903 81.1537 51.5064 81.1566 51.5166C81.1711 51.5418 81.1833 51.5682 81.1932 51.5955C81.2157 51.6611 81.2323 51.7286 81.2429 51.7972C81.2471 51.8415 81.2544 51.8855 81.2648 51.9288C81.2648 51.9799 81.2765 52.0311 81.2853 52.0749C81.3186 52.1111 81.3498 52.1492 81.3788 52.1889C81.393 52.2062 81.4061 52.2243 81.4183 52.243L81.4373 52.2796C81.519 52.4245 81.5721 52.5838 81.5937 52.7487C81.5814 52.9095 81.5376 53.0662 81.4646 53.2099C81.3916 53.3537 81.2909 53.4816 81.1683 53.5863C80.949 53.7848 80.6787 53.9184 80.3878 53.9721C80.3366 53.9824 80.2869 53.9838 80.2416 53.9897H80.2139C80.0034 54.0101 79.7827 54.0291 79.5649 54.0394L78.9583 54.0496C78.7799 54.0496 78.6045 54.0379 78.4262 54.0218C78.2026 54.0014 77.9877 53.9619 77.7612 53.9254C77.2968 53.8463 76.8368 53.7439 76.3828 53.6184C75.9632 53.5237 75.5517 53.3961 75.1521 53.2369C75.1068 53.2121 75.0556 53.1902 75.0147 53.1624L74.9518 53.1215C74.9314 53.1112 74.9094 53.0805 74.889 53.0995C74.6993 52.997 74.5461 52.8382 74.4505 52.645C74.4386 52.6034 74.4307 52.5609 74.4271 52.5178C74.4271 52.5003 74.4139 52.5178 74.4052 52.5178L74.373 52.5353L74.3058 52.566C74.1762 52.6232 74.0403 52.6644 73.9009 52.6888C73.8322 52.7414 73.762 52.7911 73.6919 52.835L73.5852 52.9022L73.4872 52.9592C73.3772 53.0201 73.2629 53.0729 73.1452 53.1171C72.9464 53.1902 72.7564 53.3144 72.5444 53.3217C72.3728 53.3311 72.201 53.3068 72.0387 53.2501C71.867 53.1559 71.7099 53.0372 71.5724 52.8978L71.5286 52.8832C71.5198 52.8759 71.5125 52.8832 71.5067 52.892L71.4847 52.9139L71.3956 53.0001L71.2275 53.2033L71.0375 53.3787L70.941 53.4635L70.8621 53.5293C70.6896 53.6754 70.5083 53.7997 70.3475 53.9473C70.214 54.0826 70.0714 54.2086 69.9207 54.3244C69.6585 54.5023 69.37 54.6379 69.0657 54.7263C68.912 54.7734 68.7537 54.8038 68.5935 54.8169C68.4355 54.8315 68.2762 54.8105 68.1273 54.7556C68.0059 54.7088 67.8729 54.6416 67.8232 54.7044C67.808 54.7235 67.8009 54.7478 67.8033 54.7721C67.8058 54.7964 67.8176 54.8188 67.8364 54.8345C67.8947 54.8956 67.9669 54.9417 68.0469 54.969Z" fill="#063844"/>
<path d="M96.4778 39.2009C96.4968 56.3648 96.7117 73.7582 96.7307 90.9221L96.4778 39.2009Z" fill="#BBE0D9"/>
<path d="M96.8594 90.6107C96.8594 90.2555 96.8959 89.9003 96.9018 89.5437C96.9076 89.1871 96.9018 88.867 96.9018 88.5293C96.9018 88.3569 96.9559 87.9944 96.9559 87.8234C96.9559 87.6524 96.9559 87.3761 96.9559 87.2168C96.9719 86.9055 97.0158 86.9011 97.0304 86.5912C97.045 86.2814 97.0772 85.9642 97.0991 85.6514C97.121 85.3386 97.1181 84.9951 97.124 84.6692C97.1298 84.3432 97.1415 84.0509 97.1547 83.741C97.1664 83.4063 97.1912 83.0745 97.1824 82.7384C97.1707 82.3379 97.1503 81.9374 97.1283 81.5369C97.1101 81.1803 97.1145 80.823 97.1415 80.467C97.2087 79.8824 97.2964 79.2977 97.3871 78.713C97.4441 78.3345 97.4865 77.9559 97.5245 77.5701C97.5493 77.3186 97.5698 77.0643 97.5756 76.81V76.6346C97.5756 76.2853 97.5522 75.9374 97.5362 75.5895C97.5186 75.1847 97.4996 74.7813 97.4602 74.3808C97.3929 73.7684 97.3271 73.1618 97.2614 72.5494C97.2336 72.257 97.2073 71.9749 97.1824 71.6855C97.1737 71.4604 97.1649 71.2368 97.1547 71.0103C97.143 70.6887 97.121 70.3686 97.0962 70.0485C97.0553 69.5501 97.0143 69.0561 96.9734 68.5576C96.9646 68.3428 96.9603 68.1294 96.9588 67.9131C96.9573 67.6967 96.9427 67.4424 96.9252 67.2071C96.8872 66.5888 96.8769 65.9662 96.8872 65.3435C96.8989 64.6741 96.912 64.0076 96.9632 63.3426C96.988 63.0283 97.0041 62.7199 97.0041 62.4027C97.0041 62.0856 96.991 61.7859 96.9836 61.4775C96.9836 61.1457 96.9646 60.8096 96.9676 60.4763C96.9705 60.143 96.9822 59.823 96.9997 59.4941C97.0187 59.3333 97.0392 59.174 97.0626 59.0147C97.086 58.8554 97.1181 58.6712 97.1459 58.4973C97.2131 58.0398 97.257 57.5779 97.2833 57.1102C97.3037 56.7272 97.3081 56.3399 97.3052 55.9569C97.3052 55.5477 97.2614 55.1472 97.2307 54.7438C97.2307 54.5976 97.2307 54.4427 97.2307 54.2892C97.2394 54.1884 97.2467 54.089 97.2555 53.9969C97.2621 53.8477 97.2577 53.6982 97.2424 53.5496L97.2087 53.0907C97.1897 52.7267 97.1737 52.3599 97.1371 52.0032C97.1006 51.6466 97.0465 51.2885 97.0012 50.9289C96.9617 50.6001 96.9325 50.2654 96.9033 49.9306C96.8711 49.5609 96.8389 49.1998 96.8053 48.8271C96.7936 48.5158 96.7951 48.2118 96.8053 47.899C96.8155 47.5862 96.8346 47.2851 96.8492 46.9811C96.874 46.3204 96.8813 45.6656 96.8813 45.0035C96.8813 44.3414 96.7556 43.6456 96.7644 42.966C96.7644 42.5275 96.7512 42.089 96.7395 41.6593C96.7819 41.0513 96.5773 40.5294 96.5934 39.8059C96.5934 39.4888 96.5627 39.2111 96.4618 39.2111C96.361 39.2111 96.3332 39.4815 96.3361 39.8074C96.3449 40.7414 96.285 41.174 96.2762 42.0481C96.2762 42.4632 96.3376 42.9251 96.3405 43.6763C96.3405 44.1148 96.2543 44.5621 96.2572 45.0079C96.2764 45.3221 96.271 45.6373 96.2411 45.9506C96.1914 46.3029 96.1081 46.5514 96.0949 46.8598C96.0832 47.2106 96.0832 47.5687 96.1022 47.918C96.1502 48.5866 96.1478 49.258 96.0949 49.9263C96.0606 50.2266 96.0445 50.5287 96.0467 50.831C96.0467 51.1643 96.016 51.4917 96.0189 51.8235C96.0074 52.156 96.0231 52.4889 96.0657 52.8188C96.1125 53.1112 96.0847 53.4035 96.1286 53.6958C96.1476 53.8259 96.1592 53.956 96.1666 54.0861V54.1094C96.1278 54.3328 96.1025 54.5583 96.0906 54.7847C96.0774 54.9309 96.0657 55.0843 96.0584 55.2349C96.0452 55.5623 96.0584 55.8897 96.0832 56.2142C96.1081 56.5387 96.1125 56.8573 96.1256 57.1774L96.1388 57.5574L96.1227 57.6232C96.0043 58.0792 96.0584 58.5703 96.0599 59.0351C96.0593 59.0694 96.0663 59.1033 96.0803 59.1345C96.0906 59.8361 96.0803 60.5377 96.0686 61.2407C96.0599 61.6471 96.035 62.0505 96.0145 62.4568C95.9941 62.8631 95.9795 63.2534 95.9517 63.6495C95.9035 64.0997 95.8567 64.5499 95.8055 64.9986C95.7383 65.5438 95.731 66.0977 95.7076 66.6502C95.7056 67.1964 95.7427 67.742 95.8187 68.2829C95.8421 68.5065 95.8669 68.7213 95.8947 68.9464C95.8768 69.234 95.8847 69.5226 95.9181 69.8088C95.9751 70.1201 96.0993 70.4183 96.13 70.734C96.1607 71.0497 96.1403 71.3347 96.1826 71.6329C96.2284 71.9129 96.2553 72.1956 96.263 72.4792C96.263 72.6327 96.2499 72.7861 96.2499 72.9396C96.2499 73.0931 96.285 73.2319 96.2937 73.3781C96.3083 73.5856 96.339 73.7932 96.3522 74.0008C96.3215 74.4246 96.2879 74.847 96.2747 75.2724C96.2654 75.6625 96.2771 76.0528 96.3098 76.4417C96.3376 76.734 96.3639 77.0263 96.3917 77.3186L96.4311 77.9413C96.4384 78.1255 96.4428 78.3052 96.4414 78.4909C96.4414 78.7218 96.4209 78.9542 96.4107 79.1837C96.3873 79.6748 96.3522 80.1659 96.3361 80.6585C96.327 81.1312 96.3451 81.6041 96.3902 82.0748C96.4238 82.5133 96.4238 82.962 96.4516 83.4063C96.4735 83.8214 96.4881 84.2409 96.4779 84.6604C96.4779 84.8972 96.5422 85.134 96.5334 85.3708C96.5334 85.5695 96.5334 85.7683 96.5334 85.9671C96.5334 86.4056 96.4954 86.8441 96.4837 87.2753C96.4699 87.5075 96.4699 87.7403 96.4837 87.9725C96.5028 88.1654 96.5466 88.3715 96.5583 88.5659C96.57 88.9021 96.5758 89.2368 96.5773 89.5744C96.5773 89.95 96.6197 90.2482 96.6211 90.6224C96.6211 90.7686 96.6416 90.9308 96.7191 90.9323C96.836 90.9264 96.8609 90.808 96.8594 90.6107Z" fill="#063844"/>
<path d="M96.6664 48.4018C96.5685 53.633 95.3114 66.7584 96.4778 67.6515C96.4778 67.6515 133.642 68.7886 134.566 67.6515C135.168 66.9104 134.806 45.1424 132.926 44.1193C132.926 44.1193 104.837 44.5402 96.6605 45.1249" fill="white"/>
<path d="M96.6898 48.4018C96.32 48.4018 96.3682 49.0917 96.3156 50.242C96.1694 53.2047 95.9516 56.1426 95.7704 59.0848C95.6798 60.5567 95.595 62.0271 95.5526 63.5106C95.5336 64.2531 95.5248 64.9971 95.5526 65.7542C95.5526 65.9442 95.5701 66.1342 95.5862 66.3272C95.5862 66.4266 95.6008 66.5113 95.614 66.6195C95.6272 66.7277 95.6476 66.8724 95.671 66.9981C95.7091 67.2455 95.7825 67.4862 95.8888 67.7128C95.9434 67.8194 96.0128 67.9178 96.0949 68.0051L96.1607 68.0709C96.1841 68.0841 96.2074 68.0928 96.2323 68.1045L96.3785 68.1776L97.2978 68.2229L97.9761 68.2609L99.2916 68.3384L101.939 68.4948L107.288 68.8222C111.847 69.1043 116.205 68.8222 120.517 68.7389C122.643 68.6994 124.609 68.6994 126.609 68.7096L129.646 68.7184C130.683 68.7184 131.745 68.7111 132.879 68.657C133.026 68.6497 133.188 68.6409 133.344 68.6292L133.581 68.6102H133.642L133.729 68.6L133.904 68.5796C134.137 68.5544 134.367 68.5084 134.591 68.4422C134.807 68.3838 135.002 68.2652 135.154 68.1001C135.382 67.7508 135.446 67.2758 135.49 66.8066L135.515 66.5494L135.535 66.3184L135.567 65.858C135.607 65.2456 135.633 64.6361 135.652 64.0237C135.689 62.8037 135.7 61.5788 135.684 60.3491C135.657 57.8951 135.538 55.4351 135.307 53.0191C135.161 51.5574 135.059 50.1557 134.942 48.7803C134.882 48.089 134.822 47.4049 134.737 46.7136C134.696 46.3687 134.648 46.0208 134.591 45.6685C134.562 45.4931 134.527 45.3134 134.489 45.1336L134.424 44.8588L134.383 44.7053C134.363 44.6337 134.341 44.5592 134.316 44.4948C134.226 44.2191 134.101 43.9559 133.945 43.7114C133.907 43.6513 133.864 43.5946 133.816 43.5419C133.774 43.4873 133.725 43.4382 133.67 43.3957C133.616 43.3519 133.562 43.308 133.505 43.2642C133.477 43.2437 133.449 43.2203 133.42 43.2028L133.324 43.1735L132.933 43.0566L132.479 43.0478H132.249H132.144H132.081L131.827 43.0361C131.15 43.0084 130.468 42.9821 129.781 42.9631C128.396 42.9221 126.976 42.9061 125.482 42.9397C120.54 43.0508 115.415 43.6486 110.446 44.0008C106.391 44.2931 102.542 44.5387 98.4979 44.7404C97.5668 44.7945 96.6401 44.8383 96.6606 45.1175C96.6869 45.4858 97.3797 45.3835 98.5286 45.3163C101.629 45.157 104.668 45.1701 107.702 45.1701C110.736 45.1701 113.781 45.1409 116.903 44.9436C122.268 44.603 126.843 44.9436 131.922 44.6089L132.387 44.5796L132.575 44.5709H132.667H132.691C132.698 44.5744 132.704 44.5788 132.71 44.584L132.748 44.6103C132.833 44.6959 132.899 44.7992 132.941 44.9129C132.965 44.9676 132.985 45.0237 133.002 45.081C133.012 45.1082 133.021 45.136 133.029 45.1643L133.056 45.2651C133.21 45.8959 133.308 46.5391 133.349 47.1872C133.445 48.4807 133.444 49.7655 133.539 51.1847C133.648 52.8466 133.806 54.3769 133.933 55.9277C134.081 57.5417 134.133 59.1631 134.088 60.7832C134.044 61.9686 134.043 63.1218 134.049 64.2444C134.049 64.8056 134.049 65.3625 134.049 65.9179C134.049 66.1752 134.041 66.4324 134.037 66.6897C134.044 66.8325 134.035 66.9757 134.009 67.1165C134.001 67.1545 133.967 67.1705 133.938 67.1866C133.908 67.2019 133.876 67.2146 133.844 67.2246C133.78 67.248 133.713 67.2655 133.644 67.2831L133.537 67.3065C133.516 67.3116 133.495 67.3155 133.474 67.3182L133.379 67.3342C133.251 67.3547 133.121 67.3722 132.99 67.3898C132.466 67.4585 131.928 67.5111 131.383 67.552C130.295 67.6339 129.19 67.6748 128.034 67.666C123.672 67.6251 119.482 67.2831 115.306 67.0098C111.13 66.7364 106.965 66.5084 102.642 66.621C101.681 66.6458 100.701 66.6458 99.7184 66.6356L98.2246 66.6005L97.4732 66.5874H97.3622H97.2935H97.2569C97.2462 66.582 97.2372 66.574 97.2306 66.564C97.2188 66.5451 97.209 66.525 97.2014 66.504L97.1794 66.4339L97.1707 66.3973V66.3856V66.3506L97.1575 66.2658C97.0947 65.8083 97.0567 65.3128 97.0245 64.8173C96.9602 63.8205 96.9164 62.8047 96.8477 61.7991C96.624 58.4183 96.6562 55.1194 96.7775 51.5311L96.9047 50.2654C96.9353 49.3372 96.9719 48.4062 96.6898 48.4018Z" fill="#063844"/>
<path fill-rule="evenodd" clip-rule="evenodd" d="M116.807 49.3665L117.099 64.05L114.03 64.1114L113.967 60.9133C113.648 61.9597 112.976 62.8635 112.067 63.4712C111.114 64.0973 109.999 64.4297 108.86 64.4271C107.153 64.4622 105.775 63.9389 104.723 62.8573C103.672 61.7757 103.128 60.2142 103.093 58.1728L102.922 49.6456L105.961 49.5842L106.125 57.7927C106.151 59.1248 106.509 60.144 107.199 60.8505C107.889 61.5569 108.82 61.898 109.992 61.8736C111.2 61.8502 112.16 61.44 112.873 60.6429C113.587 59.8458 113.928 58.7019 113.897 57.211L113.74 49.4293L116.807 49.3665Z" fill="#063844"/>
<path fill-rule="evenodd" clip-rule="evenodd" d="M116.807 49.3665L117.099 64.05L114.03 64.1114L113.967 60.9133C113.648 61.9597 112.976 62.8635 112.067 63.4712C111.114 64.0973 109.999 64.4297 108.86 64.4271C107.153 64.4622 105.775 63.9389 104.723 62.8573C103.672 61.7757 103.128 60.2142 103.093 58.1728L102.922 49.6456L105.961 49.5842L106.125 57.7927C106.151 59.1248 106.509 60.144 107.199 60.8505C107.889 61.5569 108.82 61.898 109.992 61.8736C111.2 61.8502 112.16 61.44 112.873 60.6429C113.587 59.8458 113.928 58.7019 113.897 57.211L113.74 49.4293L116.807 49.3665Z" stroke="#063844" stroke-width="2" stroke-miterlimit="10"/>
<path fill-rule="evenodd" clip-rule="evenodd" d="M126.04 50.5592C127.103 51.6681 127.656 53.272 127.698 55.3709L127.873 64.1538L124.804 64.2152L124.637 55.7611C124.611 54.4106 124.249 53.3729 123.552 52.6479C122.856 51.9229 121.916 51.5721 120.734 51.5955C119.515 51.6199 118.546 52.0364 117.826 52.8452C117.106 53.654 116.761 54.8233 116.792 56.3531L116.953 64.3701L113.884 64.4315L113.582 49.3548L116.652 49.2934L116.718 52.604C117.047 51.5233 117.729 50.5844 118.656 49.938C119.603 49.2901 120.724 48.9432 121.872 48.9427C123.593 48.9076 124.986 49.4435 126.049 50.5504" fill="#063844"/>
<path d="M126.04 50.5592C127.103 51.6681 127.656 53.272 127.698 55.3709L127.873 64.1538L124.804 64.2152L124.637 55.7611C124.611 54.4106 124.249 53.3729 123.552 52.6479C122.856 51.9229 121.916 51.5721 120.734 51.5955C119.515 51.6199 118.546 52.0364 117.826 52.8452C117.106 53.654 116.761 54.8233 116.792 56.3531L116.953 64.3701L113.884 64.4315L113.582 49.3548L116.652 49.2934L116.718 52.604C117.047 51.5233 117.729 50.5844 118.656 49.938C119.603 49.2901 120.724 48.9432 121.872 48.9427C123.593 48.9076 124.986 49.4435 126.049 50.5504" stroke="#063844" stroke-width="2" stroke-miterlimit="10"/>
</svg>
