<svg width="165" height="164" viewBox="0 0 165 164" fill="none" xmlns="http://www.w3.org/2000/svg">
<path d="M90.0139 40.7468C86.94 37.6435 97.1923 42.0026 97.1923 42.0026C97.1923 42.0026 110.305 44.9013 117.895 58.0139C122.827 66.5422 124.797 95.1421 99.4005 104.942C88.6949 109.073 82.8253 108.421 74.4869 104.873C74.4869 104.873 134.25 85.386 90.0139 40.7468Z" fill="white"/>
<path d="M96.7697 41.6094C96.9699 40.8969 94.5202 40.2977 90.4821 39.8193C85.5209 39.2422 80.4316 39.2525 75.41 40.1137C72.8844 40.5411 70.406 41.2116 68.0094 42.1158C65.5863 43.0327 63.2733 44.2178 61.1137 45.6491C58.9406 47.1008 56.9446 48.8014 55.1661 50.7163C54.2787 51.6789 53.4409 52.6862 52.6561 53.7342L52.0849 54.5351L51.8008 54.9355L51.5299 55.3536L50.9852 56.1692L50.4773 57.0113C49.1404 59.2625 48.0044 61.6271 47.0824 64.0777C46.9676 64.3869 46.8454 64.6813 46.7365 65.0022C46.6275 65.3232 46.5157 65.6456 46.4156 65.9709L46.1388 66.9514L45.9077 67.9451C45.6304 69.2738 45.4611 70.6228 45.4012 71.9789C45.2894 74.6797 45.5565 77.3828 46.1947 80.0096C46.8208 82.6174 47.7461 85.1442 48.9521 87.5397C50.1432 89.926 51.5736 92.1851 53.2214 94.2823C54.0478 95.3246 54.9198 96.3271 55.8375 97.2899C56.7546 98.2527 57.7277 99.1596 58.7317 100.027C62.7595 103.499 67.4482 106.12 72.5157 107.732L73.4638 108.026L74.4192 108.283C74.7372 108.371 75.0596 108.442 75.3805 108.515C75.7015 108.589 76.0209 108.662 76.3448 108.726C77.6359 108.991 78.9388 109.167 80.2431 109.306C82.84 109.546 85.4546 109.517 88.0456 109.22C91.8298 108.783 95.5387 107.843 99.0737 106.423C100.834 105.732 102.543 104.918 104.188 103.987C105.837 103.046 107.407 101.975 108.886 100.785C110.356 99.5959 111.721 98.2812 112.964 96.8556C113.579 96.1387 114.177 95.4085 114.73 94.6474C115.013 94.2705 115.271 93.8759 115.538 93.4888C115.668 93.2915 115.792 93.0913 115.92 92.8999C116.048 92.7085 116.171 92.5024 116.291 92.2992C118.216 89.0703 119.614 85.5547 120.432 81.8851C121.255 78.2269 121.584 74.4746 121.408 70.729C121.325 68.8413 121.111 66.9617 120.766 65.1038C120.429 63.2236 119.914 61.3796 119.229 59.5964C119.05 59.1474 118.86 58.7013 118.64 58.2612C118.534 58.0418 118.419 57.8195 118.302 57.606L118.119 57.2836C118.057 57.1762 117.993 57.079 117.931 56.976C117.434 56.1574 116.906 55.358 116.345 54.5778C115.216 53.0114 113.96 51.5397 112.591 50.1775C109.802 47.4131 106.59 45.1107 103.077 43.3569C102.34 42.9903 101.59 42.6429 100.868 42.3499C100.218 42.0796 99.5534 41.8443 98.8779 41.6448C97.6898 41.2988 96.8433 41.2399 96.78 41.5167C96.7005 41.8803 97.2379 42.1585 98.2522 42.5634C99.2665 42.9682 100.771 43.5085 102.547 44.3948C106.79 46.5065 110.557 49.4621 113.619 53.0806C114.006 53.5222 114.355 53.9948 114.718 54.4541C114.894 54.6882 115.061 54.9282 115.234 55.1652L115.491 55.5214C115.577 55.6407 115.653 55.7658 115.736 55.8865L116.22 56.6226C116.378 56.8685 116.525 57.1217 116.678 57.3705C116.984 57.8571 117.26 58.3626 117.502 58.8839C117.745 59.4036 117.963 59.9394 118.155 60.4841C118.346 61.0288 118.524 61.5824 118.677 62.1433C118.986 63.2652 119.232 64.4035 119.413 65.5528C120.134 70.1561 120.025 74.8512 119.092 79.4163C118.157 83.9417 116.351 88.2817 113.654 91.9548C111.056 95.4816 107.725 98.4041 103.891 100.521C102.945 101.041 101.987 101.533 100.999 101.96L100.631 102.125L100.259 102.272L99.5124 102.576L98.7586 102.858L98.3818 103.005L97.9975 103.133C95.9755 103.834 93.9031 104.381 91.7982 104.769C87.6617 105.538 83.4234 105.588 79.27 104.916C75.1795 104.235 71.238 102.849 67.6207 100.822C64.8758 99.2958 62.2919 97.4971 59.908 95.4526C58.8453 94.5396 57.8324 93.57 56.8739 92.548C55.9112 91.5287 55.0171 90.4468 54.1975 89.3093C52.9635 87.5957 51.9357 85.7427 51.1353 83.7886L50.9881 83.4382L50.8556 83.0834C50.7688 82.8464 50.679 82.6124 50.5965 82.3768C50.4493 81.9013 50.28 81.4317 50.1549 80.9547C49.8853 80.0167 49.669 79.0641 49.5071 78.1016L49.3923 77.3876L49.304 76.6721C49.2701 76.4351 49.251 76.1952 49.2318 75.9567C49.2127 75.7182 49.1847 75.4812 49.1759 75.2427C49.1199 74.2902 49.1126 73.3355 49.1538 72.3822C49.2023 71.4253 49.3006 70.4715 49.4482 69.5247C49.6056 68.5621 49.819 67.6095 50.0872 66.6717L50.2874 66.0048L50.5259 65.304L50.7644 64.6003C50.8453 64.3677 50.9351 64.1381 51.0205 63.9055L51.2781 63.2106C51.3606 62.978 51.4622 62.7542 51.552 62.5246C51.7389 62.0667 51.9185 61.6059 52.1261 61.1599C52.9151 59.3512 53.8342 57.6021 54.8761 55.9263C55.3943 55.0857 55.9626 54.2789 56.5485 53.4825C56.6957 53.2852 56.8518 53.0938 57.0034 52.8936C57.1551 52.6934 57.2979 52.4991 57.4672 52.3136C57.7896 51.9397 58.0987 51.5495 58.4403 51.1918L58.9423 50.6412L59.4664 50.1112C59.8094 49.7505 60.1818 49.4208 60.5425 49.0807C61.2786 48.4167 62.0471 47.7675 62.8553 47.1742C64.4744 45.9671 66.2052 44.9176 68.0241 44.04C68.9413 43.6072 69.8761 43.1994 70.833 42.8416C71.7899 42.4839 72.7615 42.163 73.7508 41.8906C77.7341 40.799 81.8578 40.3068 85.9861 40.4302C87.4494 40.5303 88.9024 40.7541 90.3481 40.972C91.944 41.1575 93.5236 41.4313 94.7087 41.6153C95.8938 41.7993 96.6961 41.8788 96.7697 41.6094Z" fill="#063844"/>
<path d="M74.7843 104.377L75.2363 104.256L75.6779 104.125C75.9518 104.055 76.1844 103.963 76.414 103.881L77.1501 103.617C77.396 103.525 77.6462 103.445 77.8862 103.338L78.6149 103.043L79.376 102.749C79.6292 102.65 79.8751 102.534 80.1268 102.428L80.8718 102.107L81.2442 101.946L81.6079 101.771L83.0697 101.079C83.557 100.829 84.0428 100.567 84.5301 100.306C85.0174 100.046 85.4694 99.7441 85.9346 99.4555C86.0818 99.3554 86.2496 99.2627 86.3998 99.1611L86.8547 98.8475L87.7674 98.2218C88.0265 98.0496 88.2694 97.8553 88.5197 97.6742L89.5061 96.9926C89.5546 96.9558 89.6032 96.9204 89.6533 96.8822L89.8402 96.735L89.9875 96.6216L89.961 96.6437L90.1833 96.4729L90.75 96.0489C90.94 95.9017 91.1299 95.7677 91.3095 95.6146C91.732 95.2701 92.156 94.9256 92.5814 94.5841C92.9774 94.2484 93.4014 93.954 93.796 93.6066C93.9226 93.4932 94.0521 93.3799 94.1787 93.2636L94.5438 92.9029C94.7867 92.66 95.0297 92.4141 95.2696 92.1668C95.5641 91.8724 95.8305 91.5544 96.1029 91.2408L96.3531 90.9464L96.6873 90.5459C96.7977 90.4134 96.9067 90.2795 97.0083 90.1381L97.6163 89.3019C97.7723 89.0841 97.9269 88.8603 98.0756 88.6468L98.4996 87.9682L98.9221 87.2924L99.1341 86.9553L99.3358 86.6123L99.7774 85.8762L100.198 85.1298L100.446 84.7367L100.686 84.3407C100.854 84.0802 101.024 83.8314 101.195 83.5796C101.375 83.3014 101.544 83.0334 101.716 82.7331C101.855 82.502 101.969 82.2561 102.086 82.0118L102.426 81.2757L102.728 80.572C102.828 80.3364 102.931 80.1038 103.022 79.8639L103.147 79.537L103.249 79.3265C103.34 79.1322 103.44 78.9423 103.52 78.7376C103.667 78.4329 103.814 78.1296 103.973 77.8234C104.133 77.5182 104.25 77.1922 104.321 76.8547C104.603 75.5298 105.017 74.4242 105.247 73.0374C105.273 72.8828 105.301 72.7268 105.328 72.5707L105.389 72.0923C105.429 71.7728 105.475 71.4519 105.504 71.1295C105.56 70.4961 105.583 69.8602 105.573 69.2245C105.573 68.986 105.565 68.7504 105.554 68.5149C105.56 67.8351 105.531 67.1555 105.466 66.4789C105.335 65.2761 105.141 64.1101 104.899 62.9118L104.89 62.8588L104.853 62.6203L104.808 62.3833L104.717 61.9107L104.664 61.5751C104.551 60.9706 104.409 60.3721 104.237 59.782C103.89 58.5059 103.452 57.2563 102.926 56.0426C102.779 55.7129 102.62 55.3861 102.458 55.0607C102.259 54.6721 102.039 54.2937 101.824 53.9139C101.609 53.5341 101.366 53.1778 101.124 52.8142L100.584 52.0324L100.009 51.264C99.7877 50.9695 99.5492 50.6648 99.3181 50.363C99.087 50.0612 98.8323 49.7741 98.582 49.5165C98.3862 49.306 98.1698 49.119 97.9666 48.9144L97.6531 48.5964L97.3262 48.2872C96.8846 47.8456 96.4312 47.4187 95.9718 46.9976L95.3476 46.45C95.1401 46.2689 94.9237 46.0966 94.7117 45.917C93.8961 45.234 93.0584 44.5553 92.209 43.9134C91.8144 43.6043 91.4111 43.3128 91.0121 43.0139C90.5307 42.6738 90.0537 42.3338 89.5694 42.0025C89.2867 41.7979 88.9908 41.6168 88.6934 41.4328C88.396 41.2488 88.0839 41.0736 87.7895 40.894L87.3582 40.6437L86.6 40.2227C86.4837 40.1579 86.4248 40.1255 86.3615 40.0946C86.1916 40.0006 86.016 39.917 85.8359 39.8443C85.737 39.7937 85.6235 39.7792 85.515 39.8031C85.3913 39.8591 85.7476 40.1314 86.0362 40.286L86.4425 40.5112C86.653 40.6275 86.8841 40.7512 87.1668 40.8955L88.134 41.4093C88.6581 41.7037 89.1837 42.0231 89.6886 42.3617C89.9713 42.5443 90.2466 42.7386 90.5233 42.9315L90.937 43.2259L91.3477 43.5203C91.5848 43.6882 91.8218 43.8531 92.0515 44.0297C92.3076 44.2255 92.5667 44.4198 92.8096 44.6289C93.0525 44.8379 93.316 45.0485 93.5604 45.2663C93.8048 45.4842 94.0477 45.708 94.2877 45.9259C94.5586 46.1953 94.8309 46.4588 95.0944 46.7312C95.3579 47.0035 95.6171 47.2788 95.8717 47.56C96.1529 47.8809 96.4503 48.1901 96.7256 48.5184L97.1452 49.0057C97.2835 49.1691 97.416 49.3384 97.5515 49.5033C97.6869 49.6681 97.8209 49.8433 97.9416 50.0229C98.1124 50.2717 98.2787 50.5146 98.4569 50.759C98.6453 51.0387 98.8382 51.3258 99.0457 51.6099C99.2533 51.8941 99.4315 52.1914 99.6346 52.4741C100.321 53.5046 100.858 54.6146 101.401 55.7129C101.515 55.9514 101.629 56.1899 101.743 56.4269C101.89 56.7375 102.028 57.0452 102.184 57.3514C102.345 57.6841 102.51 58.0139 102.689 58.3392C102.869 58.6646 103.019 59.0017 103.165 59.3403C103.277 59.595 103.362 59.86 103.459 60.1206L103.607 60.5151C103.654 60.6476 103.693 60.7816 103.736 60.9141C103.816 61.1614 103.898 61.4028 103.98 61.6501L104.197 62.3862C104.231 62.5202 104.27 62.6512 104.301 62.7852C104.332 62.9192 104.362 63.0517 104.393 63.1842C104.438 63.4624 104.499 63.7392 104.54 64.0203C104.54 64.0645 104.54 64.1116 104.55 64.1587C104.549 64.2571 104.555 64.3555 104.566 64.4532C104.588 64.6607 104.621 64.8654 104.637 65.0729L104.69 65.6913C104.736 66.1035 104.747 66.5171 104.78 66.9338C104.789 67.0471 104.799 67.1605 104.805 67.2738L104.815 67.6139C104.796 67.7611 104.775 67.8951 104.755 68.035C104.739 68.2174 104.749 68.4012 104.783 68.5811C104.809 68.7652 104.809 68.952 104.783 69.1361C104.743 69.3658 104.699 69.5852 104.656 69.8074C104.614 70.0297 104.552 70.2491 104.509 70.492C104.509 70.5362 104.494 70.5848 104.487 70.6304C104.379 71.0654 104.307 71.5086 104.272 71.9553C104.272 72.0864 104.272 72.2071 104.272 72.3249C104.272 72.4426 104.263 72.5575 104.257 72.6738C104.246 72.9335 104.217 73.1921 104.172 73.4481C104.086 73.9075 103.91 74.3167 103.802 74.7569C103.742 74.9619 103.7 75.1717 103.676 75.384C103.668 75.4635 103.676 75.5121 103.676 75.5887C103.657 75.8676 103.615 76.1444 103.549 76.416C103.402 76.7782 103.28 77.1521 103.138 77.5172C102.997 77.8823 102.851 78.268 102.697 78.639C102.582 78.8942 102.475 79.1513 102.377 79.4104L102.23 79.7991L102.083 80.1833C101.996 80.4009 101.941 80.63 101.919 80.8635C101.852 81.0593 101.772 81.2492 101.684 81.4435C101.516 81.8174 101.333 82.2017 101.127 82.5697L101.077 82.6433C100.858 82.9569 100.653 83.2955 100.43 83.6311C100.251 83.9079 100.084 84.1906 99.9099 84.4732C99.7583 84.6465 99.62 84.8311 99.4962 85.0253C99.193 85.5008 98.8632 85.9572 98.5496 86.4253L97.5588 87.7989C97.3395 88.0933 97.0951 88.3701 96.8596 88.6527L96.1514 89.4992C95.6818 90.0336 95.199 90.5489 94.7308 91.0862C94.5188 91.3085 94.3068 91.5279 94.1007 91.7619C93.8946 91.996 93.7062 92.2036 93.5118 92.4362C93.3897 92.5834 93.2733 92.7306 93.16 92.8779C93.0769 92.9845 93.0012 93.0966 92.9333 93.2135C92.8258 93.3357 92.7169 93.4549 92.605 93.5757L92.446 93.7405L92.2016 93.9864L91.4699 94.6459L90.9694 95.1067L90.7191 95.3364L90.4586 95.5557L89.456 96.4037L89.2293 96.5877L88.9952 96.7629L88.5256 97.1104L87.8248 97.6271C87.71 97.7154 87.5908 97.7979 87.4686 97.8788L87.1079 98.1217L86.3865 98.609C86.2658 98.69 86.148 98.7739 86.0258 98.8519L85.6534 99.0772C85.1985 99.3539 84.7524 99.6469 84.2931 99.9178L82.9048 100.708C82.419 100.97 81.9244 101.212 81.4327 101.467C81.309 101.528 81.1883 101.593 81.0631 101.653L80.6877 101.824L79.9355 102.169C79.6999 102.273 79.4688 102.39 79.2288 102.484L78.5089 102.778L77.7905 103.065C77.552 103.167 77.3032 103.238 77.0544 103.324L76.2226 103.61C76.0843 103.657 75.9459 103.706 75.806 103.757L75.3835 103.878L75.1406 103.946C75.0125 103.981 74.9477 103.997 74.883 104.018C74.6957 104.067 74.5113 104.127 74.3309 104.197C74.2248 104.231 74.1327 104.298 74.0689 104.389C74.0203 104.508 74.4649 104.459 74.7843 104.377Z" fill="#063844"/>
<path d="M103.911 102.251C103.911 102.278 113.288 123.097 117.975 133.52C93.4956 140.039 77.7566 140.781 54.7422 134.166C54.7422 134.166 66.7728 105.11 66.7271 105.185C66.7271 105.185 84.3888 113.323 103.911 102.251Z" fill="#063844"/>
<path d="M102.659 102.749C102.46 102.852 102.098 103.054 101.864 103.163L101.077 103.55C100.59 103.787 100.166 104.003 99.7274 104.189C99.2887 104.374 98.8618 104.579 98.3657 104.792L96.9612 105.35C96.7286 105.449 96.4901 105.53 96.2516 105.612L95.5332 105.858C95.2844 105.939 95.0386 106.032 94.7868 106.103L94.0316 106.32L93.2764 106.534C93.0232 106.6 92.767 106.658 92.5123 106.719C90.4985 107.212 88.4486 107.543 86.3822 107.71L85.596 107.765C85.3325 107.782 85.0705 107.806 84.807 107.812L84.0164 107.843C83.7529 107.854 83.4879 107.865 83.2244 107.863C82.7003 107.863 82.1777 107.881 81.6536 107.863C81.1295 107.846 80.6068 107.846 80.0842 107.815C78.6742 107.757 77.2682 107.625 75.8723 107.417C75.5779 107.379 75.2835 107.326 74.989 107.277C74.6946 107.229 74.4002 107.18 74.1131 107.121C73.7406 107.04 73.3667 106.964 72.9972 106.871L72.4422 106.738L71.8901 106.585L71.553 106.496L71.1231 106.373L70.7801 106.275L70.8434 106.292C70.6712 106.244 70.5019 106.191 70.3326 106.145C69.4743 105.879 68.6292 105.58 67.8034 105.244L67.4294 105.088L67.291 105.029L67.2557 105.015C67.2439 105.015 67.2307 105 67.2233 105.015L67.1703 105.062L66.9495 105.26C66.9304 105.287 66.9171 105.271 66.9009 105.26L66.8567 105.241L66.7669 105.203C66.7537 105.203 66.7331 105.181 66.7257 105.19L66.7081 105.235C66.7052 105.243 66.7018 105.249 66.6978 105.256C66.6978 105.256 66.686 105.256 66.6786 105.256H66.6359C66.5398 105.255 66.444 105.244 66.3503 105.222C66.2767 105.207 66.2752 105.275 66.2517 105.318L66.1899 105.465L66.0014 105.896L65.8424 106.253L65.523 106.961C65.1152 107.865 64.6603 108.727 64.2539 109.64C63.7225 110.831 63.2013 112.024 62.6861 113.243L61.7689 115.429L61.4892 116.106C60.9857 117.331 60.5058 118.551 60.0303 119.773C59.2942 121.669 58.6023 123.574 57.8735 125.466C57.4805 126.483 57.083 127.505 56.6958 128.522C56.4691 129.07 56.2389 129.615 56.0054 130.158C55.7654 130.698 55.5254 131.221 55.281 131.746L54.8895 132.597L54.6951 133.029C54.6637 133.101 54.6313 133.175 54.598 133.249C54.5464 133.372 54.4934 133.497 54.439 133.622L54.0709 134.505L55.1368 134.8L55.8434 134.988L57.0771 135.307L58.4933 135.677L58.8481 135.77L59.2044 135.852L59.9199 136.013L60.572 136.16L61.0019 136.279L62.187 136.6C62.4962 136.69 62.8024 136.788 63.1145 136.871L64.0537 137.124C64.6817 137.307 65.321 137.447 65.9676 137.545C66.2855 137.595 66.5962 137.647 66.9039 137.701L67.8225 137.838C68.429 137.932 69.0253 138.035 69.6244 138.141C70.8184 138.374 72.0388 138.527 73.3623 138.692C74.54 138.857 75.7855 138.935 77.0133 139.029L77.9334 139.095L78.3912 139.126L78.8476 139.138C79.4541 139.153 80.0548 139.165 80.6407 139.172L81.9936 139.182C83.2921 139.182 84.5891 139.182 85.8816 139.154L89.3192 138.948C89.6062 138.938 89.8918 138.9 90.1774 138.876L91.0387 138.799C91.6148 138.747 92.1943 138.698 92.7773 138.652H92.8804L93.3411 138.623L93.8005 138.579L94.7176 138.49L95.3639 138.442C95.9351 138.398 96.5181 138.346 97.1055 138.295L98.8618 138.065L100.731 137.825C101.045 137.79 101.354 137.737 101.665 137.688L102.595 137.541C103.836 137.336 105.086 137.155 106.321 136.899C106.996 136.769 107.671 136.633 108.348 136.49C108.753 136.403 109.163 136.325 109.564 136.225L110.775 135.93L113.179 135.331C113.768 135.184 114.342 135.017 114.922 134.861L116.662 134.384L117.962 134.04L118.403 133.922L118.627 133.865H118.642V133.851L118.629 133.825L118.605 133.772L118.557 133.666C118.428 133.384 118.3 133.103 118.174 132.822L117.675 131.742C117.524 131.421 117.371 131.106 117.217 130.798C116.97 130.308 116.725 129.83 116.481 129.339C116.236 128.849 115.968 128.309 115.717 127.789L114.178 124.55C113.72 123.589 113.266 122.636 112.806 121.671C111.936 119.819 111.073 117.931 110.23 116.054L109.067 113.421C108.609 112.39 108.157 111.36 107.712 110.319C107.191 109.091 106.63 107.879 106.071 106.638L104.992 104.245C104.886 104.011 104.836 103.893 104.778 103.771C104.631 103.432 104.444 103.035 104.296 102.756C104.21 102.568 104.091 102.397 103.945 102.251C103.773 102.132 104.053 102.929 104.312 103.51C104.402 103.715 104.571 104.099 104.675 104.333C105.058 105.181 105.545 106.211 106.252 107.697C106.748 108.757 107.237 109.836 107.715 110.909C108.247 112.102 108.77 113.294 109.31 114.481L110.006 116.012C110.264 116.58 110.514 117.154 110.763 117.722C111.274 118.887 111.779 120.051 112.278 121.214L113.994 125.295C114.638 126.823 115.304 128.363 115.964 129.899C116.13 130.292 116.291 130.68 116.448 131.076L117.112 132.708C117.143 132.784 117.176 132.855 117.208 132.937L117.229 132.989V133.008L117.242 133.043L117.286 133.173V133.189V133.196H117.277H117.24L117.168 133.208L117.101 133.221H117.067L116.946 133.251C116.283 133.41 115.621 133.575 114.963 133.741C114.374 133.888 113.785 134.036 113.196 134.169L111.43 134.545C110.252 134.789 109.074 135.053 107.897 135.281L106.371 135.59L105.386 135.799L104.896 135.908L104.405 136.004C103.692 136.151 102.988 136.311 102.285 136.479C101.581 136.647 100.882 136.827 100.172 136.942C99.1047 137.129 98.0256 137.316 96.9494 137.494L93.9727 137.928C93.7077 137.962 93.4442 138.002 93.1792 138.032L92.3857 138.11L90.7398 138.231C90.653 138.231 90.5632 138.231 90.4704 138.243C90.3011 138.243 90.1112 138.243 89.9095 138.262C89.5047 138.295 89.0998 138.297 88.6964 138.311L87.4848 138.347L86.2732 138.393C86.0716 138.393 85.8684 138.415 85.6667 138.412H85.0572L83.7323 138.426L82.9137 138.361C82.7379 138.347 82.5614 138.345 82.3852 138.352L82.1188 138.365L81.8494 138.373C81.4888 138.393 81.1271 138.387 80.7673 138.356L78.1027 138.043L77.8289 138.009C76.9625 137.866 76.0885 137.774 75.2113 137.734C74.702 137.725 74.2706 137.694 73.8187 137.67C73.3667 137.647 72.8956 137.607 72.3082 137.536C71.8562 137.48 71.4249 137.41 70.9832 137.338C70.5416 137.265 70.1264 137.158 69.6907 137.081C69.2817 137.004 68.8689 136.949 68.4541 136.917C68.3068 136.905 68.2156 136.917 68.0654 136.906C67.5281 136.876 66.9928 136.817 66.4622 136.727C65.7261 136.554 64.9797 136.387 64.2348 136.222L63.0924 135.973L61.9559 135.687C60.9062 135.415 59.8492 135.185 58.8098 134.951C58.3747 134.843 57.9317 134.768 57.4849 134.729C57.0962 134.639 56.7076 134.549 56.3072 134.449L55.549 134.262L54.9042 134.09C54.9925 133.877 55.0823 133.662 55.1721 133.448L55.2442 133.294C55.5667 132.63 55.8861 131.933 56.2041 131.218C56.4622 130.635 56.7149 130.046 56.9623 129.451C57.1478 129.104 57.3333 128.699 57.5305 128.24C58.3962 126.227 59.2481 124.206 60.0862 122.177C60.6564 120.866 61.2272 119.552 61.7984 118.236C62.349 116.966 62.8966 115.701 63.4354 114.419C63.668 113.867 63.8992 113.31 64.1244 112.754C64.3496 112.197 64.5528 111.673 64.7589 111.134C64.8929 110.783 65.0018 110.438 65.1181 110.104C65.2109 109.832 65.2786 109.587 65.3404 109.357L65.6746 108.474L65.8395 108.061L66.0912 107.438L66.7552 105.773L66.8332 105.578L66.8523 105.528C66.8518 105.524 66.8518 105.521 66.8523 105.517H66.8641L66.8877 105.527L66.9834 105.567C67.1203 105.623 67.2115 105.658 67.453 105.751C67.8681 105.907 68.2862 106.057 68.7087 106.192C69.5233 106.459 70.3438 106.695 71.1702 106.9C71.5368 106.999 71.9063 107.084 72.2758 107.177C72.6453 107.27 73.0119 107.344 73.3903 107.422C74.4988 107.653 75.6177 107.831 76.7409 107.981C77.3033 108.04 77.8657 108.118 78.431 108.156L79.2775 108.225L80.1269 108.27C84.3616 108.462 88.6014 108.025 92.7081 106.974C94.6561 106.47 96.5691 105.84 98.4349 105.087C98.9634 104.869 99.483 104.635 100.007 104.408C100.137 104.351 100.269 104.298 100.397 104.234L100.782 104.047L101.551 103.673L101.993 103.46C102.227 103.351 102.338 103.282 102.455 103.219C102.785 103.042 103.168 102.833 103.434 102.664C103.612 102.57 103.768 102.442 103.895 102.287C103.994 102.111 103.209 102.452 102.659 102.749Z" fill="#063844"/>
<path d="M55.2648 132.906C55.4992 133.493 55.8006 134.05 56.1628 134.567C55.6917 134.437 55.2182 134.304 54.7422 134.166C54.7422 134.166 54.9336 133.707 55.2648 132.906Z" fill="#063844"/>
<path d="M55.1074 132.88C55.1074 132.88 55.0957 132.894 55.0927 132.902C55.0898 132.909 55.0927 132.921 55.0927 132.927C55.0868 132.956 55.0868 132.986 55.0927 133.015C55.0963 133.047 55.0963 133.079 55.0927 133.111C55.0865 133.14 55.0745 133.168 55.0574 133.192C55.027 133.247 54.9848 133.294 54.9337 133.33C54.9075 133.349 54.8842 133.372 54.8645 133.398C54.841 133.429 54.8226 133.463 54.8101 133.5C54.7958 133.55 54.7776 133.599 54.7556 133.647L54.7247 133.707C54.6967 133.732 54.6673 133.759 54.6393 133.787L54.626 133.8L54.6084 133.818L54.5951 133.831L54.5745 133.853L54.4553 133.968L54.2963 134.115C54.2389 134.168 54.1078 134.249 54.0519 134.312C53.9848 134.384 53.926 134.463 53.8767 134.548L53.8576 134.58C53.8576 134.59 53.8384 134.607 53.8576 134.607C53.8763 134.615 53.8955 134.621 53.915 134.627L53.9562 134.639C54.0464 134.656 54.1383 134.663 54.23 134.66C54.3861 134.66 54.573 134.617 54.7041 134.602L54.9057 134.58C54.9288 134.588 54.9507 134.599 54.9705 134.613C54.9854 134.636 54.9977 134.66 55.0073 134.686C55.0166 134.717 55.0351 134.744 55.0603 134.764C55.1062 134.786 55.157 134.795 55.2075 134.791C55.2566 134.794 55.3057 134.794 55.3548 134.791H55.3768L55.3842 134.81C55.3916 134.826 55.4004 134.839 55.4078 134.852C55.418 134.892 55.4259 134.933 55.4313 134.973C55.4313 135.025 55.446 135.042 55.4769 135.013C55.58 134.913 55.6109 135.038 55.6875 135.038C55.7674 135.045 55.8476 135.026 55.9156 134.984C55.9318 134.973 55.948 134.958 55.9657 134.945C55.9992 134.952 56.0338 134.952 56.0673 134.945L57.1861 134.558L56.4898 134.348H56.4751C56.3956 134.327 56.3131 134.309 56.2837 134.252C56.2837 134.233 56.2837 134.212 56.2837 134.191L56.2955 134.164C56.3108 134.123 56.3178 134.08 56.3161 134.037C56.3278 133.952 56.3411 133.865 56.344 133.787C56.3443 133.767 56.3403 133.748 56.3323 133.731C56.3062 133.692 56.2707 133.661 56.2292 133.641C56.1983 133.622 56.16 133.607 56.1306 133.586C56.1011 133.566 56.0879 133.523 56.0216 133.516H55.9333C55.908 133.513 55.8829 133.509 55.8582 133.503C55.8194 133.488 55.7816 133.47 55.7449 133.451C55.711 133.435 55.6742 133.42 55.6433 133.404C55.5925 133.371 55.553 133.324 55.5299 133.268C55.5216 133.242 55.5162 133.215 55.5137 133.187C55.5078 133.154 55.5078 133.12 55.5137 133.087C55.5241 133.042 55.4976 133.014 55.4799 132.981L55.4504 132.915C55.4504 132.915 55.4504 132.903 55.4504 132.902C55.4504 132.9 55.4401 132.881 55.4166 132.883C55.3782 132.886 55.3405 132.895 55.3047 132.909C55.2016 132.945 55.1428 132.995 55.1472 133.012C55.1516 133.03 55.1472 133.031 55.1472 133.037C55.1472 133.043 55.1899 133.084 55.2414 133.114C55.2678 133.136 55.2873 133.166 55.2973 133.199C55.3033 133.236 55.3147 133.272 55.3312 133.305C55.34 133.318 55.3503 133.332 55.3577 133.345C55.365 133.362 55.3695 133.38 55.3709 133.398C55.3754 133.438 55.3754 133.479 55.3709 133.519C55.3606 133.57 55.3415 133.628 55.3297 133.681C55.32 133.738 55.315 133.795 55.315 133.853C55.3119 133.871 55.3064 133.888 55.2988 133.904C55.2864 133.929 55.2756 133.954 55.2664 133.979C55.2493 134.024 55.2493 134.073 55.2664 134.118C55.2959 134.184 55.2414 134.299 55.2664 134.374C55.2686 134.39 55.2726 134.406 55.2782 134.421C55.2879 134.44 55.3027 134.456 55.3209 134.467C55.3606 134.495 55.4931 134.467 55.5461 134.481C55.5837 134.494 55.6206 134.509 55.6565 134.526C55.6952 134.537 55.7346 134.547 55.7743 134.554L55.8258 134.577C55.8312 134.592 55.8381 134.606 55.8465 134.62C55.8454 134.624 55.8454 134.629 55.8465 134.633C55.8403 134.641 55.8362 134.65 55.8347 134.66C55.8405 134.705 55.8612 134.748 55.8936 134.78L56.2778 134.237H56.2675C56.2538 134.236 56.24 134.236 56.2263 134.237V134.169C56.2263 134.113 56.1586 134.262 56.1512 134.212C56.1468 134.147 56.1384 134.083 56.1262 134.019V134.009C56.1173 133.95 56.1041 133.904 56.0673 133.944C56.0305 133.984 55.9804 134.074 55.9466 134.071C55.9127 134.068 55.9142 134 55.8921 133.987C55.87 133.974 55.8685 133.987 55.8479 134.018C55.8273 134.049 55.8303 134.055 55.8229 134.068C55.8031 134.103 55.7783 134.135 55.7493 134.164C55.7361 134.14 55.7192 134.119 55.6992 134.102C55.6816 134.085 55.661 134.078 55.6418 134.062C55.6363 134.056 55.6296 134.052 55.6222 134.05C55.6148 134.047 55.6069 134.046 55.5991 134.047C55.5844 134.047 55.5785 134.06 55.5638 134.074C55.5368 134.111 55.5132 134.15 55.4931 134.191C55.4809 134.203 55.467 134.213 55.4519 134.221C55.4427 134.225 55.4327 134.228 55.4225 134.228C55.4123 134.228 55.4022 134.225 55.393 134.221V134.212C55.3991 134.182 55.4016 134.15 55.4004 134.119C55.4006 134.113 55.3992 134.107 55.3964 134.101C55.3935 134.095 55.3894 134.091 55.3842 134.087C55.4048 134.053 55.4107 134.038 55.4092 134.031C55.4075 134.017 55.4015 134.004 55.392 133.993C55.3825 133.983 55.37 133.975 55.3562 133.972C55.3664 133.948 55.3787 133.925 55.393 133.903C55.4063 133.882 55.4225 133.866 55.4269 133.856C55.4313 133.846 55.4372 133.844 55.4269 133.843C55.4147 133.84 55.4022 133.84 55.3901 133.843L55.3121 133.863L55.2149 133.89H55.184C55.1847 133.887 55.1847 133.884 55.184 133.881C55.1816 133.872 55.1776 133.864 55.1722 133.857C55.1708 133.844 55.1708 133.83 55.1722 133.816C55.1744 133.802 55.1744 133.789 55.1722 133.775C55.1789 133.761 55.1873 133.747 55.1972 133.735C55.223 133.7 55.2461 133.663 55.2664 133.625C55.2736 133.607 55.2795 133.59 55.2841 133.572L55.3062 133.488L55.3503 133.31C55.3595 133.254 55.3718 133.198 55.3871 133.143C55.396 133.112 55.4004 133.079 55.4122 133.049V133.037C55.4122 133.03 55.4122 133.027 55.4122 133.023C55.4152 133.016 55.4158 133.009 55.414 133.002C55.4121 132.995 55.4078 132.988 55.4019 132.984C55.3719 132.96 55.3387 132.941 55.3032 132.927C55.1884 132.869 55.1074 132.864 55.1074 132.88Z" fill="#063844"/>
<path d="M117.976 133.526C99.7657 138.375 86.3924 140.029 71.2644 137.832L71.3984 137.174C72.2375 127.215 73.0762 117.254 73.9143 107.289C80.8571 108.614 92.0397 108.985 103.911 102.253C103.919 102.278 113.288 123.099 117.976 133.526Z" fill="#063844"/>
<path d="M117.651 132.41C117.575 132.236 117.432 131.914 117.343 131.711L117.03 131.032C116.649 130.189 116.35 129.56 115.96 128.724C115.593 127.944 115.223 127.174 114.863 126.387C114.489 125.573 114.127 124.768 113.766 123.944C113.048 122.324 112.335 120.705 111.649 119.085C111.3 118.261 110.938 117.437 110.577 116.611C110.217 115.785 109.859 114.977 109.489 114.161C108.992 113.063 108.496 111.965 108.001 110.868L107.383 109.48L106.633 107.691L106.519 107.416L106.371 107.065L106.252 106.784L106.274 106.837C106.215 106.696 106.156 106.556 106.097 106.417L105.214 104.299L104.708 103.077L104.571 102.746L104.337 102.2L104.123 101.698L104.11 101.667L104.081 101.681L104.022 101.711L103.902 101.77L103.664 101.889L103.196 102.122L103.077 102.181L103.002 102.216L102.854 102.281L102.286 102.534L101.718 102.787L101.434 102.918L101.139 103.039L99.6317 103.691L99.2563 103.857L98.8706 104.005L98.0977 104.299L97.1835 104.671C96.8729 104.786 96.5563 104.885 96.2428 104.995L95.6627 105.196C95.3992 105.284 95.1416 105.384 94.8766 105.465L94.0861 105.702L93.297 105.946C93.1659 105.988 93.0349 106.03 92.9039 106.069L92.5049 106.173L91.2698 106.504L90.9606 106.588C90.8576 106.616 90.753 106.637 90.65 106.66L90.0258 106.808C89.6092 106.897 89.1955 107.003 88.7774 107.081L87.5157 107.298C87.0638 107.382 86.6059 107.429 86.1481 107.483L85.4606 107.564L85.1176 107.604L84.7731 107.629C84.2725 107.651 83.7735 107.675 83.2774 107.685C82.7783 107.673 82.2925 107.654 81.8052 107.633C81.5402 107.626 81.2811 107.597 81.0176 107.58C80.7541 107.564 80.4905 107.544 80.2138 107.53L79.8899 107.514L79.566 107.489L78.9168 107.448L78.269 107.41L77.6227 107.349C76.8057 107.285 75.9945 107.173 75.1819 107.064L74.5695 106.967L73.9482 106.841L73.5066 106.756C73.5066 106.756 73.4963 106.756 73.4933 106.756V106.769V106.796V106.849L73.4815 106.956L73.4594 107.171L73.3711 108.024C73.2931 108.564 73.2121 109.104 73.1238 109.643C73.0243 110.189 72.9677 110.742 72.9545 111.296C72.8956 113.471 72.6233 115.358 72.4554 117.607C72.3082 119.624 72.1419 121.783 72.052 123.766C72.0354 124.148 72.0202 124.53 72.0064 124.911C71.9196 126.006 71.8342 127.101 71.7723 128.195C71.6634 130.147 71.5603 132.064 71.3866 134.044L71.3778 134.131C71.3233 134.652 71.2674 135.17 71.2129 135.689L71.1408 136.233C71.1054 136.528 71.0691 136.822 71.0318 137.117C70.9833 137.327 70.9332 137.538 70.8846 137.751L70.7919 138.149L71.21 138.212L72.5997 138.425C73.1282 138.506 73.6567 138.596 74.1867 138.67L75.7825 138.869C76.8454 139.016 77.9172 139.095 78.9889 139.194C79.5778 139.253 80.1667 139.272 80.7555 139.295L81.8184 139.332L82.3499 139.348H82.8813L84.9983 139.328C85.5121 139.316 86.0288 139.285 86.5382 139.265C87.0476 139.244 87.5687 139.222 88.0766 139.191L89.9183 139.072C90.226 139.05 90.5337 139.033 90.8355 139.003C91.1373 138.972 91.4376 138.935 91.7276 138.897L93.1129 138.701C93.5943 138.643 94.0846 138.553 94.5748 138.486L96.0838 138.274C96.5887 138.205 97.0922 138.113 97.5942 138.032L98.9339 137.81C99.3756 137.738 99.8172 137.644 100.271 137.563C101.987 137.268 103.718 136.918 105.439 136.585L107.846 136.105L110.67 135.516C111.229 135.406 111.783 135.276 112.338 135.138L113.994 134.713L114.788 134.515L116.161 134.159C116.373 134.103 116.479 134.078 116.59 134.047C116.896 133.966 117.255 133.872 117.507 133.784C117.674 133.741 117.829 133.661 117.96 133.55C118.066 133.41 117.345 133.52 116.821 133.654L116.085 133.841C115.703 133.941 115.279 134.056 114.783 134.196L113.046 134.667L111.595 135.038C111.109 135.16 110.619 135.266 110.131 135.377L108.512 135.736C107.972 135.858 107.427 135.96 106.892 136.079L105.495 136.373C104.977 136.488 104.45 136.568 103.932 136.668L102.335 136.944C101.803 137.033 101.269 137.103 100.737 137.181C100.115 137.264 99.4963 137.358 98.8765 137.426L97.0142 137.63C96.3149 137.716 95.6097 137.778 94.9046 137.838C94.1994 137.898 93.4942 137.985 92.7876 138.018C92.4269 138.037 92.0721 138.054 91.7144 138.069C91.2183 138.084 90.731 138.115 90.226 138.119C89.1072 138.135 87.9294 138.202 86.7841 138.21C86.2718 138.222 85.7599 138.229 85.2486 138.23C84.7363 138.222 84.2254 138.2 83.7146 138.184C83.2038 138.168 82.6929 138.155 82.1835 138.125C81.6742 138.096 81.1633 138.063 80.654 138.038L79.9944 138.006L79.6661 137.99L79.3378 137.965C78.7652 137.925 78.2028 137.891 77.6345 137.862L75.7928 137.786C75.1804 137.763 74.5665 137.751 73.957 137.697L71.3336 137.421L71.6752 137.909L71.7002 137.769C71.7326 137.586 71.765 137.402 71.7959 137.224C71.8312 136.535 71.8651 135.859 71.9004 135.163L71.9843 133.803C72.0275 133.337 72.0692 132.869 72.1095 132.4C72.1212 132.326 72.1301 132.253 72.1389 132.172C72.1639 132.024 72.186 131.868 72.2037 131.696C72.3406 130.317 72.4672 128.952 72.5688 127.574C72.5953 127.196 72.6203 126.819 72.6468 126.442C72.6866 126.211 72.7278 125.98 72.7675 125.75C72.8706 125.161 72.7675 124.528 72.8603 123.917C72.9839 123.156 73.1223 122.457 73.2313 121.651C73.2401 121.576 73.2504 121.495 73.2607 121.417C73.3895 120.677 73.4677 119.928 73.4948 119.177C73.5154 118.305 73.4712 117.694 73.5492 116.687C73.6081 115.911 73.7347 115.19 73.8054 114.435C73.8427 114.081 73.8585 113.726 73.8525 113.371C73.8525 113.239 73.829 113.167 73.826 113.039C73.8157 112.583 73.8069 112.165 73.826 111.66C73.9011 111.022 73.9732 110.372 74.0351 109.724C74.0665 109.394 74.0984 109.063 74.1308 108.732L74.1779 108.234L74.1985 108.018L74.2132 107.896L74.2309 107.729V107.709C74.2309 107.709 74.2309 107.691 74.2382 107.695L74.2794 107.704L74.3634 107.719L74.805 107.792C75.2614 107.873 75.7207 107.915 76.1756 107.965C76.5576 108.008 76.9433 108.008 77.3254 107.965L78.3559 108.029C78.6945 108.046 79.039 108.066 79.3864 108.09C79.5587 108.1 79.7324 108.115 79.9076 108.124L80.4302 108.143L80.5774 108.156C80.891 108.188 81.2104 108.216 81.5358 108.243C81.8611 108.269 82.1924 108.266 82.5266 108.275L83.3466 108.287L84.168 108.256C84.55 108.278 84.9329 108.278 85.3148 108.256L86.7193 108.147L87.0697 108.119C87.1874 108.107 87.3037 108.091 87.42 108.077L88.1193 107.988C89.0542 107.887 89.9757 107.694 90.9047 107.53C92.1074 107.298 93.3161 107.043 94.4997 106.706L95.3595 106.473L96.2074 106.198L97.0554 105.92L97.4794 105.773L97.8975 105.609C98.376 105.421 98.8574 105.228 99.3329 105.031L99.6803 104.883L100.017 104.72L100.684 104.386C100.979 104.239 101.239 104.081 101.507 103.932C101.615 103.872 101.715 103.813 101.802 103.754C101.889 103.695 101.98 103.628 102.061 103.567L102.764 103.161L103.097 102.976L103.524 102.744L103.736 102.627C103.752 102.627 103.774 102.599 103.788 102.605L103.813 102.659L103.864 102.766L103.954 102.953L104.122 103.313L105.058 105.36C105.359 106.02 105.661 106.678 105.964 107.333L106.747 109.1L109.087 114.357L111.271 119.172L113.539 124.151C114.249 125.703 114.958 127.255 115.665 128.806L116.868 131.456L117.039 131.836C117.128 132.035 117.171 132.13 117.22 132.239C117.351 132.534 117.504 132.865 117.633 133.099C117.704 133.257 117.809 133.397 117.943 133.507C118.102 133.597 117.872 132.905 117.651 132.41Z" fill="#063844"/>
<path d="M41.9933 57.7915C40.0544 56.5328 34.26 54.9944 32.3211 53.7357L41.9933 57.7915Z" fill="#063844"/>
<path d="M32.3078 53.9124C32.3195 53.9212 32.3401 53.9374 32.3549 53.9462C32.3696 53.9551 32.3961 53.9624 32.4079 53.9698C32.4655 53.9988 32.5256 54.0224 32.5875 54.0404C32.6493 54.0625 32.7141 54.0743 32.7759 54.0964C32.8369 54.121 32.8955 54.151 32.9511 54.1862C33.066 54.2528 33.1753 54.3286 33.2779 54.4129C33.3311 54.4548 33.3866 54.4936 33.4443 54.5292C33.4996 54.5664 33.5589 54.5975 33.6209 54.622C33.7034 54.6573 33.7888 54.6838 33.8697 54.7221L33.9713 54.7706L34.0861 54.8708L34.1038 54.8869L34.1259 54.9061L34.1435 54.9223L34.17 54.9458C34.2157 54.9856 34.2598 55.0297 34.304 55.071C34.3556 55.12 34.4048 55.1716 34.4512 55.2255C34.4969 55.2785 34.5219 55.3845 34.5705 55.4331C34.6309 55.4956 34.7004 55.5487 34.7766 55.5906C34.8199 55.6149 34.8646 55.6365 34.9105 55.6554L34.9547 55.6716C35.0364 55.696 35.1212 55.7084 35.2065 55.7084C35.3419 55.7084 35.4921 55.6731 35.629 55.6701H35.8468C35.8817 55.6844 35.9152 55.7016 35.947 55.7217C35.9777 55.7502 36.0049 55.7823 36.0279 55.8174C36.0525 55.8548 36.0834 55.8877 36.1192 55.9145C36.1769 55.9453 36.2408 55.9629 36.3062 55.9661C36.3665 55.9764 36.4269 55.9881 36.4887 55.9955H36.5314L36.552 56.019C36.5706 56.0401 36.5908 56.0598 36.6124 56.0779C36.6404 56.1254 36.6655 56.1746 36.6875 56.2252C36.714 56.2855 36.736 56.3105 36.7935 56.2914C36.9863 56.2296 37.0776 56.3827 37.2351 56.418C37.3853 56.4629 37.5427 56.4789 37.6988 56.4651C37.7298 56.4651 37.7621 56.4533 37.7945 56.446C37.8724 56.4723 37.9538 56.4867 38.036 56.4887C38.1849 56.475 38.3352 56.4915 38.4776 56.5373L38.5718 56.6094L38.6013 56.6477C38.6513 56.7077 38.7093 56.7607 38.7735 56.8052C38.8987 56.9127 39.0253 57.0187 39.1533 57.1143C39.1879 57.1399 39.2255 57.1612 39.2652 57.1777C39.36 57.2135 39.4589 57.2372 39.5597 57.2483C39.6347 57.2586 39.7142 57.2616 39.7878 57.2748C39.8724 57.3068 39.9625 57.3218 40.0528 57.319C40.0926 57.3116 40.1353 57.294 40.1765 57.2866C40.2162 57.2782 40.2566 57.2733 40.2972 57.2719C40.3755 57.272 40.4537 57.2774 40.5313 57.2881C40.6005 57.2881 40.6785 57.2969 40.7389 57.3043C40.8664 57.3252 40.99 57.3654 41.1054 57.4235C41.1584 57.4515 41.2055 57.4898 41.2527 57.5221C41.3125 57.5596 41.3691 57.6019 41.422 57.6487C41.4843 57.7024 41.5549 57.7456 41.631 57.7768L41.7694 57.8563C41.7826 57.8652 41.7885 57.871 41.7974 57.8725C41.8074 57.8799 41.8189 57.885 41.8312 57.8873C41.8434 57.8895 41.856 57.889 41.868 57.8858C41.9056 57.8697 41.9378 57.8431 41.9608 57.8092C42.03 57.7238 42.0226 57.634 41.9887 57.6119L41.9416 57.5781C41.8676 57.5432 41.7887 57.5199 41.7076 57.5089C41.6374 57.4842 41.5694 57.4536 41.5044 57.4176C41.4351 57.3729 41.3633 57.3322 41.2895 57.2954C41.2571 57.2822 41.2232 57.2704 41.1908 57.2557C41.1563 57.237 41.1229 57.2164 41.0907 57.1938C41.0217 57.1493 40.9558 57.1001 40.8934 57.0466C40.8228 56.9774 40.7551 56.8994 40.6844 56.8317C40.604 56.7576 40.5189 56.6888 40.4297 56.6256C40.4078 56.6051 40.388 56.5824 40.3708 56.5579C40.3443 56.5225 40.3208 56.4872 40.2928 56.4563C40.2329 56.3886 40.1598 56.334 40.0779 56.2958C39.938 56.2355 39.835 56.0809 39.6995 56.0014C39.6719 55.9829 39.6429 55.9667 39.6127 55.9528C39.5731 55.9359 39.5315 55.924 39.489 55.9175C39.3962 55.9042 39.2652 55.9926 39.1681 55.994C39.0945 55.994 39.0208 55.994 38.9502 55.9852C38.8795 55.9764 38.8118 55.997 38.7441 55.997L38.6396 55.9896C38.6086 55.9749 38.5777 55.9602 38.5453 55.9484C38.5426 55.9422 38.5379 55.9371 38.5321 55.9337C38.529 55.9193 38.5206 55.9067 38.5085 55.8983C38.4231 55.8407 38.3278 55.7993 38.2273 55.7761L38.1434 55.7644L38.1169 55.6878C38.0934 55.623 37.9962 55.757 37.9697 55.6981C37.9438 55.6204 37.9113 55.5451 37.8726 55.4729L37.8593 55.4581C37.8284 55.389 37.7901 55.3345 37.7121 55.3595C37.6341 55.3845 37.5649 55.4611 37.4883 55.4434C37.4118 55.4258 37.4044 55.3492 37.3543 55.3242C37.3043 55.2992 37.3043 55.3109 37.266 55.3374C37.2528 55.3463 37.238 55.3698 37.2248 55.3787C37.1868 55.4126 37.1414 55.4373 37.0923 55.4508C37.0556 55.4166 37.0157 55.386 36.9731 55.3595C36.9318 55.333 36.8862 55.3139 36.8435 55.2874C36.7837 55.2505 36.7123 55.2374 36.6433 55.2506C36.592 55.266 36.5481 55.2994 36.5196 55.3448C36.4923 55.3522 36.4641 55.3562 36.4357 55.3566C36.3846 55.3524 36.3347 55.3389 36.2885 55.3168L36.2811 55.305C36.2563 55.2538 36.2218 55.2078 36.1796 55.1696C36.1493 55.1417 36.1145 55.1192 36.0765 55.1034C36.0735 55.0857 36.0669 55.0688 36.057 55.0538C36.0471 55.0389 36.0342 55.0261 36.0191 55.0165C35.9035 54.9427 35.78 54.882 35.651 54.8354C35.5789 54.7751 35.5038 54.7235 35.4288 54.6691C35.3585 54.6144 35.2842 54.5652 35.2065 54.5218C35.174 54.5041 35.1394 54.4907 35.1034 54.4821C35.0668 54.4731 35.029 54.4702 34.9915 54.4733C34.9612 54.4792 34.9323 54.4907 34.9061 54.5071C34.8785 54.5219 34.8536 54.5413 34.8325 54.5645H34.7663H34.7383L34.6986 54.5542C34.6603 54.5441 34.6214 54.5363 34.5823 54.5307C34.5293 54.516 34.4763 54.4998 34.4247 54.4821C34.3732 54.4644 34.3246 54.4512 34.2775 54.4379C34.2304 54.4247 34.1936 54.3982 34.1509 54.3761C34.0272 54.3113 33.9006 54.2524 33.7755 54.1936C33.6504 54.1347 33.54 54.0964 33.4207 54.0463C33.3015 53.9963 33.1763 53.9477 33.0556 53.8991C32.9399 53.8558 32.8264 53.8067 32.7155 53.7519C32.6552 53.7195 32.5919 53.693 32.5315 53.6577L32.5065 53.643C32.4932 53.6341 32.4874 53.6282 32.4785 53.6268C32.4682 53.6193 32.4564 53.6143 32.444 53.612C32.4315 53.6097 32.4186 53.6102 32.4064 53.6135C32.3695 53.6301 32.3379 53.6566 32.3151 53.6901C32.2665 53.8005 32.2739 53.8903 32.3078 53.9124Z" fill="#063844"/>
<path d="M53.7381 41.7464L47.2856 34.9744L48.1527 34.624" fill="#063844"/>
<path d="M48.0159 34.5136C48.0042 34.5136 47.9777 34.5224 47.9629 34.5283C47.9482 34.5342 47.9276 34.5504 47.9158 34.5548C47.8602 34.5819 47.8074 34.6144 47.7583 34.652C47.7053 34.6873 47.6567 34.73 47.6023 34.7595C47.5445 34.7882 47.4845 34.8118 47.4226 34.8301C47.3638 34.8478 47.3049 34.8669 47.246 34.8817L47.1076 34.9155L47.2077 35.0627C47.2475 35.1168 47.2829 35.1739 47.3137 35.2335C47.345 35.2919 47.3805 35.348 47.4197 35.4013C47.4561 35.4543 47.4975 35.5036 47.5434 35.5486C47.6067 35.6089 47.67 35.6678 47.7274 35.7326L47.7981 35.815L47.8599 35.9505L47.8687 35.9711L47.882 35.9976L47.8908 36.0182L47.9055 36.0491C47.9291 36.1036 47.9497 36.1595 47.9718 36.2154C47.9979 36.2804 48.0205 36.3468 48.0395 36.4142C48.0572 36.4804 48.0395 36.585 48.0557 36.6483C48.0818 36.7282 48.12 36.8037 48.169 36.872C48.1985 36.9103 48.2279 36.9486 48.2603 36.9854L48.2912 37.0178C48.3532 37.0729 48.4225 37.119 48.4973 37.1547C48.6136 37.2136 48.7653 37.2416 48.886 37.3019C48.9522 37.3314 49.0141 37.3637 49.0788 37.3947C49.1037 37.4216 49.1254 37.4512 49.1436 37.483C49.1569 37.5218 49.1667 37.5617 49.1731 37.6022C49.1779 37.6458 49.1904 37.6881 49.2099 37.7274C49.248 37.7805 49.2985 37.8234 49.3571 37.8525C49.4057 37.8878 49.4528 37.9261 49.5043 37.9585L49.5382 37.9821L49.547 38.0115C49.5544 38.0395 49.5632 38.0645 49.572 38.0895C49.5758 38.1434 49.5758 38.1976 49.572 38.2515C49.572 38.3162 49.572 38.3472 49.6353 38.3545C49.8326 38.3825 49.8458 38.5592 49.9724 38.6607C50.0854 38.7656 50.2173 38.848 50.3611 38.9036L50.4538 38.9272C50.5108 38.9858 50.5764 39.0354 50.6482 39.0744C50.7852 39.1257 50.9104 39.2044 51.0162 39.3055C51.0353 39.3394 51.0515 39.3747 51.0692 39.4101L51.078 39.4572C51.0967 39.5319 51.1255 39.6037 51.1634 39.6706C51.2282 39.8179 51.293 39.9651 51.3681 40.1123C51.3887 40.1501 51.4139 40.1852 51.4431 40.2168C51.5149 40.2895 51.5955 40.3528 51.6831 40.4053C51.7464 40.4465 51.8156 40.4803 51.8774 40.523C51.9422 40.5863 52.0187 40.6363 52.1027 40.6703C52.1424 40.6791 52.1881 40.6806 52.2278 40.6894C52.2675 40.6972 52.3064 40.7085 52.3441 40.7233C52.4177 40.7542 52.4825 40.7939 52.5517 40.8278C52.6209 40.8616 52.6768 40.8881 52.7357 40.9205C52.8447 40.9874 52.9438 41.0692 53.0301 41.1634C53.0691 41.2102 53.105 41.2593 53.1376 41.3106C53.1814 41.3655 53.2203 41.4242 53.2539 41.4858C53.2952 41.5577 53.3502 41.6208 53.4158 41.6713C53.4158 41.6713 53.485 41.7405 53.5277 41.7862C53.5343 41.7943 53.5417 41.8017 53.5498 41.8082C53.5575 41.8181 53.5673 41.8262 53.5785 41.8318C53.5897 41.8374 53.6021 41.8404 53.6146 41.8406C53.6545 41.8339 53.6918 41.816 53.7221 41.7891C53.8074 41.7214 53.8251 41.6331 53.7986 41.6036C53.7721 41.5742 53.7765 41.5712 53.7648 41.5594C53.7058 41.5083 53.6392 41.4665 53.5675 41.4358C53.5064 41.3952 53.4518 41.3456 53.4055 41.2886C53.3575 41.2254 53.3054 41.1654 53.2495 41.109L53.1729 41.0398C53.1462 41.012 53.1225 40.9814 53.1023 40.9485C53.0559 40.884 53.0146 40.8161 52.9786 40.7453C52.9403 40.657 52.9079 40.5643 52.8711 40.4745C52.8274 40.3771 52.7783 40.2822 52.7239 40.1903C52.713 40.1637 52.7046 40.1361 52.6989 40.1079C52.6927 40.0665 52.6834 40.0256 52.6709 39.9857C52.6462 39.9027 52.6041 39.8259 52.5473 39.7604C52.4501 39.65 52.4236 39.466 52.3397 39.3468C52.3222 39.3196 52.3031 39.2935 52.2823 39.2687C52.2547 39.2376 52.223 39.2103 52.1881 39.1878C52.113 39.1377 51.9584 39.1627 51.8715 39.1245C51.8068 39.0936 51.7449 39.0597 51.6831 39.0258C51.6213 38.992 51.5565 38.9787 51.4961 38.9507C51.4667 38.9331 51.4373 38.9154 51.4063 38.9007C51.3754 38.886 51.3651 38.8477 51.3416 38.8227C51.3431 38.8164 51.3431 38.8098 51.3416 38.8035C51.3463 38.7902 51.3463 38.7756 51.3416 38.7623C51.2891 38.6659 51.2181 38.5808 51.1325 38.512C51.1108 38.4957 51.0882 38.4804 51.0648 38.4664L51.0751 38.3869C51.0839 38.3192 50.9367 38.3972 50.9397 38.3324C50.9521 38.2526 50.9575 38.1718 50.9559 38.091C50.9565 38.0846 50.9565 38.0782 50.9559 38.0719C50.9559 37.9968 50.9559 37.9246 50.8778 37.9246C50.7998 37.9246 50.6968 37.9497 50.6423 37.9026C50.5878 37.8555 50.6099 37.7833 50.5775 37.7392C50.5451 37.695 50.5392 37.7053 50.4951 37.7127C50.4774 37.7127 50.4553 37.7303 50.4391 37.7333C50.3907 37.7445 50.3403 37.7445 50.2919 37.7333C50.2745 37.6872 50.2528 37.6428 50.2271 37.6008C50.2021 37.5595 50.1712 37.5227 50.1462 37.4815C50.109 37.4232 50.052 37.3803 49.9857 37.3608C49.9343 37.3539 49.8822 37.3653 49.8385 37.3932C49.8105 37.3877 49.7833 37.3788 49.7575 37.3667C49.7148 37.3411 49.6773 37.3077 49.6471 37.2681V37.2548C49.6472 37.1985 49.6372 37.1427 49.6177 37.0899C49.6029 37.0524 49.582 37.0175 49.5558 36.9869C49.561 36.97 49.5627 36.9523 49.5606 36.9348C49.5586 36.9173 49.553 36.9005 49.544 36.8853C49.4746 36.7693 49.3916 36.6621 49.2967 36.5658C49.2584 36.4819 49.2143 36.4024 49.1716 36.3229C49.1317 36.2459 49.0859 36.1721 49.0347 36.1021C49.0126 36.0725 48.9869 36.0458 48.9581 36.0226C48.9289 36.0002 48.8967 35.9818 48.8624 35.9681C48.8316 35.9643 48.8005 35.9643 48.7697 35.9681C48.7388 35.9707 48.7085 35.9782 48.6799 35.9902C48.6594 35.984 48.6392 35.9766 48.6195 35.9681L48.596 35.9519L48.5636 35.9254C48.5334 35.9007 48.502 35.8776 48.4694 35.8562L48.3486 35.7488C48.3104 35.7134 48.2706 35.681 48.2294 35.6487L48.1396 35.5427C48.0527 35.4352 47.9644 35.3292 47.8702 35.2276C47.776 35.126 47.6906 35.051 47.5978 34.9656L47.4506 34.8301L47.3741 35.1835L47.5478 35.0981C47.6567 35.0436 47.7642 34.9832 47.8761 34.9332C47.9394 34.9052 47.9997 34.8699 48.0645 34.8434L48.0925 34.8331C48.1029 34.8301 48.1128 34.8256 48.1219 34.8198C48.1339 34.8164 48.145 34.8104 48.1544 34.8023C48.1638 34.7942 48.1713 34.7841 48.1764 34.7727C48.1842 34.7328 48.1806 34.6915 48.1661 34.6535C48.1293 34.5489 48.0527 34.5004 48.0159 34.5136Z" fill="#063844"/>
<path d="M73.2592 30.4474L70.9332 21.3906L71.8606 21.5084" fill="#063844"/>
<path d="M71.7988 21.3464C71.7814 21.3415 71.7637 21.3376 71.7458 21.3347C71.7223 21.3347 71.7046 21.3347 71.6914 21.3347C71.6297 21.3296 71.5676 21.3296 71.5059 21.3347C71.4435 21.3443 71.3806 21.3502 71.3174 21.3523C71.2535 21.3495 71.1899 21.3406 71.1275 21.3258C71.0672 21.3141 71.0068 21.3008 70.9479 21.2846L70.811 21.2463L70.8302 21.4186C70.8378 21.485 70.8402 21.552 70.8375 21.6188C70.8362 21.6848 70.8402 21.7507 70.8493 21.8161C70.8549 21.8805 70.8672 21.9441 70.8861 22.006C70.9111 22.0899 70.9376 22.1709 70.9553 22.2562L70.9774 22.3637L70.9641 22.5109V22.533V22.5625V22.6155C70.9641 22.6743 70.9494 22.7332 70.9406 22.7921C70.9317 22.851 70.92 22.929 70.9023 22.9982C70.8846 23.0674 70.814 23.1454 70.8022 23.2117C70.7856 23.294 70.7822 23.3785 70.7919 23.462C70.7919 23.5091 70.8051 23.5576 70.8154 23.6092L70.8272 23.6519C70.8535 23.7306 70.8912 23.805 70.9391 23.8727C71.0127 23.9816 71.1305 24.0788 71.21 24.1863C71.2541 24.2437 71.2924 24.304 71.3322 24.3615C71.3415 24.397 71.3464 24.4336 71.3469 24.4704C71.34 24.5106 71.3292 24.5501 71.3145 24.5882C71.2961 24.6285 71.2856 24.672 71.2836 24.7162C71.2911 24.7794 71.3122 24.8401 71.3454 24.8944C71.3719 24.9489 71.3955 25.0048 71.4234 25.0578L71.4426 25.0961L71.4352 25.1255C71.4279 25.1535 71.4234 25.18 71.419 25.2065C71.3965 25.2571 71.371 25.3062 71.3425 25.3537C71.3071 25.4082 71.2998 25.4391 71.3425 25.4759C71.5015 25.5966 71.4264 25.7556 71.4897 25.9072C71.5374 26.0539 71.6124 26.1902 71.7105 26.3091L71.7797 26.3754C71.8029 26.4525 71.8371 26.5259 71.8813 26.5933C71.9757 26.7047 72.0459 26.8345 72.0874 26.9746C72.0874 27.0143 72.0874 27.0541 72.0874 27.0923L72.0727 27.1365C72.053 27.2115 72.0431 27.2887 72.0432 27.3662C72.027 27.5281 72.0108 27.69 72.0079 27.849C72.007 27.8916 72.0115 27.9341 72.0211 27.9756C72.0489 28.0742 72.0885 28.1691 72.1389 28.2583C72.1743 28.3245 72.2169 28.3893 72.2508 28.4556C72.2764 28.5425 72.3189 28.6236 72.3759 28.6941C72.4054 28.7206 72.4451 28.7456 72.476 28.7721C72.5066 28.7984 72.5347 28.8275 72.56 28.8589C72.6063 28.921 72.6496 28.9854 72.6895 29.0518C72.7293 29.1092 72.7705 29.1652 72.8058 29.2226C72.8673 29.3343 72.9138 29.4535 72.9442 29.5774C72.9574 29.6333 72.9589 29.6937 72.9677 29.7525C72.9793 29.8216 72.9842 29.8916 72.9825 29.9616C72.9844 30.0447 73.0024 30.1267 73.0355 30.203C73.0355 30.203 73.0605 30.2973 73.0767 30.3576C73.0774 30.3683 73.0799 30.3787 73.084 30.3885C73.0863 30.4009 73.0911 30.4127 73.0982 30.4231C73.1053 30.4335 73.1146 30.4423 73.1253 30.4489C73.1642 30.4606 73.2056 30.4606 73.2445 30.4489C73.352 30.4327 73.4094 30.3635 73.402 30.3252C73.402 30.312 73.402 30.2855 73.3932 30.2708C73.3669 30.1971 73.3291 30.128 73.2813 30.0661C73.2478 30.0018 73.224 29.9328 73.2107 29.8615C73.199 29.7826 73.1828 29.7044 73.1621 29.6274C73.1518 29.595 73.1385 29.5626 73.1297 29.5302C73.1201 29.4931 73.1142 29.4552 73.112 29.4169C73.1046 29.3376 73.1017 29.258 73.1032 29.1784C73.1135 29.0827 73.1312 28.987 73.1429 28.884C73.1527 28.7783 73.1566 28.6721 73.1547 28.566C73.1584 28.537 73.1648 28.5084 73.1739 28.4806C73.1876 28.4415 73.1994 28.4017 73.2092 28.3613C73.2276 28.2765 73.2276 28.1886 73.2092 28.1037C73.1783 27.9565 73.2445 27.7901 73.2298 27.6415C73.2298 27.6091 73.2298 27.5767 73.2195 27.5458C73.2096 27.5053 73.1947 27.4663 73.1753 27.4295C73.1341 27.3485 72.9869 27.2955 72.9309 27.2189C72.875 27.1424 72.8514 27.1012 72.8146 27.0408C72.7778 26.9804 72.7263 26.9378 72.688 26.8848C72.6498 26.8318 72.6542 26.8259 72.635 26.7964C72.6159 26.767 72.6233 26.7302 72.6159 26.6978C72.6163 26.6914 72.6163 26.685 72.6159 26.6787C72.6258 26.6678 72.6311 26.6536 72.6306 26.6389C72.6295 26.5381 72.6101 26.4383 72.5732 26.3445C72.5629 26.3194 72.5497 26.2959 72.5364 26.2709L72.585 26.2061C72.6247 26.1516 72.4598 26.1487 72.4922 26.0942C72.5422 26.0304 72.5865 25.9625 72.6247 25.891C72.6247 25.8837 72.6247 25.8778 72.6247 25.8719C72.6645 25.8086 72.688 25.7468 72.6247 25.7041C72.5614 25.6614 72.4554 25.6378 72.4304 25.5701C72.4054 25.5024 72.4613 25.4494 72.4554 25.3949C72.4554 25.3655 72.4378 25.3478 72.3951 25.3316C72.3789 25.3316 72.3524 25.3316 72.3362 25.3228C72.2875 25.3104 72.2423 25.2872 72.2037 25.2551C72.2117 25.2064 72.2147 25.1571 72.2125 25.1078C72.2125 25.0593 72.2007 25.0122 72.1993 24.9606C72.1967 24.8917 72.1677 24.8263 72.1183 24.7781C72.0768 24.7445 72.0243 24.7277 71.9711 24.731C71.9493 24.713 71.93 24.6922 71.9137 24.6691C71.8882 24.6263 71.8717 24.5787 71.8651 24.5293V24.516C71.8921 24.4671 71.9101 24.4138 71.9181 24.3585C71.9247 24.3185 71.9247 24.2778 71.9181 24.2378C71.9309 24.2257 71.9411 24.2111 71.9479 24.1949C71.9547 24.1786 71.9581 24.1612 71.9578 24.1436C71.9532 24.0088 71.9335 23.875 71.899 23.7446C71.9063 23.6519 71.9063 23.5621 71.9078 23.4708C71.9105 23.3842 71.9066 23.2976 71.896 23.2117C71.891 23.1753 71.8816 23.1398 71.868 23.1057C71.8534 23.0717 71.8341 23.04 71.8106 23.0115C71.7876 22.991 71.7612 22.9745 71.7326 22.9629C71.7044 22.9491 71.674 22.9401 71.6428 22.9364C71.6278 22.9213 71.614 22.9051 71.6016 22.8878L71.5883 22.8628L71.5736 22.8245C71.5589 22.7877 71.5427 22.7524 71.525 22.717C71.5074 22.6817 71.4897 22.6155 71.472 22.5698C71.4544 22.5242 71.4367 22.4712 71.4176 22.4226C71.3984 22.374 71.3984 22.3328 71.3911 22.2872C71.3675 22.1503 71.341 22.0148 71.3086 21.8808C71.2762 21.7469 71.238 21.6379 71.1997 21.5187L71.1364 21.3288L70.8979 21.5997L71.0907 21.61C71.2129 21.61 71.3366 21.61 71.4573 21.6262C71.528 21.6262 71.5972 21.6262 71.6664 21.6409H71.6958C71.706 21.6425 71.7165 21.6425 71.7267 21.6409C71.7392 21.6437 71.7521 21.6436 71.7646 21.6408C71.7771 21.638 71.7888 21.6325 71.7988 21.6247C71.825 21.5943 71.8419 21.557 71.8474 21.5172C71.8798 21.4259 71.8371 21.3464 71.7988 21.3464Z" fill="#063844"/>
<path d="M96.415 30.6625C97.0215 27.3221 97.5456 24.2453 98.1507 20.9049L96.415 30.6625Z" fill="#063844"/>
<path d="M98.0094 21.052C97.977 21.239 97.8622 21.4112 97.8622 21.6041C97.874 21.9265 97.7459 21.9265 97.715 22.1046C97.7017 22.1944 97.6355 22.399 97.6193 22.4903C97.6031 22.5816 97.6782 22.7568 97.6531 22.8392C97.6526 22.85 97.6526 22.8608 97.6531 22.8716C97.5413 23.219 97.1173 23.5238 97.0643 23.8521C97.0535 24.0489 97.0634 24.2462 97.0937 24.4409C97.1011 24.6206 97.0937 24.8016 97.0937 24.9812C97.0937 25.1608 97.0937 25.3787 97.0834 25.5775C97.0651 25.7417 97.0336 25.9041 96.9892 26.0633C96.945 26.2223 96.8979 26.3798 96.8567 26.5373C96.7669 26.8789 96.6948 27.2219 96.6315 27.5678C96.5682 27.9138 96.7389 28.2833 96.6638 28.6381C96.6153 28.8678 96.468 29.2093 96.4371 29.439C96.3385 29.7511 96.4371 29.9557 96.3517 30.3326C96.3149 30.4975 96.3252 30.6506 96.4253 30.6682C96.5255 30.6859 96.5726 30.549 96.6064 30.3738C96.6874 29.8821 96.7684 29.6613 96.8611 29.2049C96.9053 28.9885 96.9701 28.7485 97.0407 28.3555C97.0819 28.1228 97.2115 27.9064 97.2512 27.6724C97.3042 27.35 97.3028 27.2955 97.3587 27.1807C97.4495 27.038 97.5269 26.8872 97.5898 26.7302C97.637 26.5476 97.6694 26.3615 97.687 26.1737C97.7029 25.8157 97.7714 25.4621 97.8902 25.124C97.9533 24.9743 97.9988 24.8177 98.0256 24.6574C98.0506 24.4822 98.1257 24.3188 98.1522 24.1421C98.2317 23.6254 97.9873 22.957 98.005 22.8701C98.0414 22.7515 98.0636 22.6289 98.0712 22.505C98.0712 22.399 98.108 22.2827 98.1139 22.1782C98.1345 22.0001 98.1625 21.8249 98.1919 21.6468C98.2214 21.4686 98.214 21.2861 98.2494 21.0888C98.2626 21.0137 98.2494 20.9225 98.1758 20.9077C98.0595 20.8842 98.0285 20.9431 98.0094 21.052Z" fill="#063844"/>
<path d="M127.768 72.8226C130.011 73.3835 135.991 72.9536 138.235 73.5145L127.768 72.8226Z" fill="#063844"/>
<path d="M138.189 73.3421C138.175 73.3421 138.15 73.3288 138.134 73.3259C138.115 73.3248 138.096 73.3248 138.078 73.3259C138.013 73.317 137.948 73.3141 137.883 73.317C137.818 73.317 137.752 73.3259 137.687 73.3259C137.622 73.3217 137.556 73.3124 137.492 73.2979C137.361 73.2714 137.234 73.235 137.109 73.189C137.045 73.1661 136.981 73.1474 136.915 73.133C136.85 73.1163 136.784 73.1059 136.717 73.1021C136.628 73.1021 136.538 73.1021 136.449 73.0889L136.337 73.0756L136.19 73.0182L136.17 73.0094L136.142 72.9976L136.12 72.9887L136.086 72.9755C136.03 72.9534 135.974 72.9254 135.919 72.9004C135.853 72.8719 135.789 72.8394 135.727 72.8033C135.666 72.7679 135.609 72.6752 135.547 72.6457C135.469 72.6063 135.387 72.5785 135.301 72.5633C135.251 72.5559 135.201 72.5486 135.154 72.5456H135.107C135.022 72.5499 134.937 72.5657 134.856 72.5927C134.727 72.634 134.597 72.7193 134.469 72.7664C134.402 72.7929 134.332 72.8136 134.263 72.8371C134.226 72.8358 134.189 72.8309 134.153 72.8224C134.115 72.8041 134.078 72.7824 134.044 72.7576C134.009 72.7297 133.97 72.7087 133.928 72.6958C133.863 72.6843 133.796 72.6883 133.733 72.7076C133.673 72.7179 133.611 72.7252 133.551 72.7385L133.508 72.7473L133.481 72.7311L133.405 72.6943C133.363 72.6598 133.324 72.6224 133.287 72.5824C133.243 72.5338 133.214 72.5191 133.165 72.5545C133.003 72.6766 132.871 72.5618 132.701 72.5795C132.545 72.5875 132.391 72.6239 132.248 72.687C132.219 72.7017 132.19 72.7179 132.162 72.7355C132.081 72.7368 131.999 72.7497 131.921 72.7738C131.785 72.8355 131.639 72.8685 131.49 72.871C131.451 72.8602 131.413 72.8474 131.376 72.8327L131.337 72.8077C131.269 72.767 131.197 72.7358 131.122 72.7149C130.974 72.6546 130.815 72.5942 130.662 72.5456C130.621 72.5327 130.579 72.5248 130.536 72.5221C130.433 72.5192 130.33 72.5296 130.229 72.553C130.154 72.5662 130.082 72.5913 130.006 72.6016C129.915 72.5989 129.824 72.6139 129.739 72.6457C129.704 72.6663 129.67 72.6958 129.635 72.7164C129.599 72.7375 129.561 72.7557 129.523 72.7709C129.449 72.7958 129.374 72.8159 129.298 72.8312C129.23 72.8489 129.164 72.868 129.096 72.8828C128.968 72.9026 128.838 72.9026 128.71 72.8828C128.652 72.871 128.594 72.8562 128.536 72.8386C128.467 72.8233 128.4 72.8016 128.335 72.7738C128.258 72.7439 128.177 72.726 128.095 72.7208L127.939 72.6899C127.928 72.689 127.918 72.689 127.908 72.6899C127.896 72.6866 127.883 72.6858 127.871 72.6875C127.858 72.6893 127.846 72.6936 127.836 72.7002C127.806 72.728 127.784 72.7638 127.774 72.8033C127.737 72.9078 127.774 72.9887 127.812 72.9991C127.83 73.0055 127.848 73.0109 127.867 73.0152C127.948 73.0242 128.03 73.0212 128.111 73.0064C128.186 73.0061 128.26 73.0125 128.333 73.0256C128.413 73.045 128.494 73.0603 128.575 73.0712H128.681C128.72 73.0773 128.759 73.0856 128.797 73.0962C128.876 73.116 128.954 73.1406 129.03 73.1698C129.119 73.211 129.208 73.2611 129.298 73.3038C129.398 73.3483 129.5 73.3861 129.605 73.4172C129.633 73.4293 129.659 73.4441 129.683 73.4613C129.717 73.4872 129.753 73.5108 129.791 73.532C129.868 73.5754 129.953 73.6015 130.041 73.6085C130.188 73.6218 130.335 73.7337 130.494 73.7631C130.527 73.7631 130.559 73.7778 130.593 73.7808C130.636 73.7835 130.679 73.781 130.721 73.7734C130.814 73.7558 130.908 73.6262 131.001 73.5968C131.07 73.5717 131.139 73.5541 131.208 73.5335C131.278 73.5128 131.335 73.4775 131.4 73.4554C131.434 73.4481 131.468 73.4392 131.5 73.4289L131.603 73.4378L131.621 73.4481C131.629 73.4599 131.641 73.4687 131.655 73.4731C131.754 73.4992 131.857 73.5072 131.959 73.4966C131.987 73.4927 132.015 73.4873 132.043 73.4805L132.093 73.5438C132.136 73.5982 132.184 73.4392 132.229 73.4863C132.279 73.5515 132.334 73.6125 132.394 73.6689L132.411 73.6777C132.463 73.7322 132.517 73.7734 132.576 73.7263C132.635 73.6792 132.687 73.5791 132.762 73.5791C132.837 73.5791 132.871 73.6394 132.926 73.6483C132.957 73.6483 132.978 73.6483 133.004 73.6071C133.015 73.5938 133.021 73.5673 133.03 73.5541C133.055 73.5093 133.09 73.4711 133.133 73.4422C133.18 73.4633 133.229 73.4796 133.28 73.4908C133.328 73.5025 133.377 73.504 133.427 73.5158C133.496 73.5316 133.568 73.5211 133.63 73.4863C133.673 73.4543 133.703 73.4085 133.716 73.3568C133.739 73.3408 133.765 73.328 133.792 73.3185C133.84 73.3061 133.89 73.3026 133.939 73.3082L133.95 73.317C133.99 73.3572 134.037 73.3897 134.089 73.4127C134.128 73.4283 134.168 73.4377 134.209 73.4407C134.217 73.4566 134.229 73.4705 134.243 73.4814C134.257 73.4924 134.274 73.5001 134.291 73.504C134.425 73.5355 134.562 73.5532 134.699 73.557C134.786 73.5894 134.874 73.6144 134.962 73.6409C135.046 73.668 135.131 73.6882 135.217 73.7013C135.254 73.7064 135.292 73.7064 135.329 73.7013C135.367 73.6975 135.403 73.6881 135.438 73.6733C135.464 73.6575 135.488 73.6371 135.507 73.613C135.528 73.5899 135.546 73.5635 135.559 73.5349C135.578 73.5249 135.598 73.516 135.619 73.5084H135.647H135.688C135.728 73.5084 135.766 73.4996 135.806 73.4937C135.846 73.4878 135.915 73.4937 135.969 73.4937C136.024 73.4937 136.075 73.4937 136.128 73.4863L136.276 73.5025C136.413 73.5246 136.552 73.5379 136.691 73.5541C136.829 73.5703 136.944 73.5688 137.072 73.5732C137.2 73.5776 137.334 73.5865 137.465 73.5938C137.588 73.5954 137.71 73.6038 137.832 73.6188C137.901 73.6306 137.97 73.635 138.038 73.6483H138.066C138.082 73.6483 138.089 73.6556 138.097 73.6483C138.109 73.652 138.122 73.653 138.135 73.6513C138.147 73.6495 138.16 73.6449 138.17 73.638C138.2 73.6096 138.221 73.5741 138.232 73.5349C138.265 73.4348 138.229 73.3524 138.189 73.3421Z" fill="#063844"/>
<path d="M123.616 91.6146L131.917 95.9164L131.219 96.5288" fill="#063844"/>
<path d="M131.378 96.5951C131.393 96.5851 131.409 96.5743 131.423 96.5628C131.436 96.5504 131.448 96.5372 131.459 96.523C131.503 96.4784 131.543 96.429 131.576 96.3758C131.615 96.3257 131.647 96.2698 131.69 96.2286C131.735 96.1822 131.784 96.1403 131.837 96.1034C131.885 96.0671 131.934 96.0318 131.984 95.9974L132.103 95.9209L131.963 95.8208C131.908 95.7813 131.856 95.738 131.807 95.6912C131.761 95.6466 131.712 95.6052 131.66 95.5676C131.609 95.5291 131.554 95.4961 131.495 95.4689C131.416 95.4321 131.338 95.3968 131.261 95.3541L131.167 95.2982L131.065 95.1907L131.049 95.1745L131.03 95.1539L131.014 95.1362L130.989 95.1112C130.949 95.0685 130.912 95.0229 130.873 94.9758C130.827 94.9233 130.784 94.8682 130.745 94.8109C130.706 94.7535 130.694 94.646 130.653 94.593C130.602 94.5267 130.542 94.4682 130.474 94.4193C130.432 94.3928 130.393 94.3648 130.35 94.3412L130.31 94.3221C130.234 94.2895 130.154 94.2682 130.072 94.2588C129.941 94.2411 129.791 94.2588 129.657 94.2588C129.586 94.2588 129.509 94.2411 129.445 94.2338C129.413 94.2159 129.383 94.1952 129.355 94.1719C129.329 94.1396 129.307 94.1045 129.289 94.0674C129.27 94.0281 129.244 93.9922 129.213 93.9614C129.161 93.9242 129.101 93.899 129.038 93.8878C128.981 93.8716 128.923 93.851 128.865 93.8363L128.825 93.826L128.807 93.7995C128.791 93.7774 128.775 93.7553 128.757 93.7347C128.736 93.6866 128.718 93.6375 128.703 93.5875C128.686 93.5242 128.667 93.4977 128.61 93.5095C128.414 93.5477 128.343 93.3858 128.19 93.3299C128.051 93.2685 127.901 93.2335 127.749 93.2268H127.653C127.58 93.1925 127.503 93.1687 127.423 93.1562C127.277 93.1524 127.133 93.1188 127.001 93.0575C126.971 93.031 126.943 93.003 126.917 92.9751L126.893 92.9353C126.853 92.8702 126.803 92.8112 126.746 92.7601C126.637 92.6409 126.527 92.5202 126.41 92.4112C126.379 92.3828 126.343 92.3581 126.306 92.3376C126.213 92.2916 126.114 92.2579 126.011 92.2375C125.938 92.2184 125.864 92.2081 125.789 92.1889C125.707 92.1501 125.619 92.1276 125.529 92.1227C125.489 92.1227 125.445 92.1403 125.405 92.1448C125.364 92.1483 125.323 92.1483 125.283 92.1448C125.203 92.1448 125.136 92.1242 125.053 92.1139C124.971 92.1035 124.915 92.0977 124.848 92.0859C124.724 92.0574 124.604 92.0123 124.492 91.9519C124.441 91.9239 124.395 91.8857 124.345 91.8533C124.286 91.8153 124.23 91.7725 124.179 91.7252C124.116 91.6706 124.044 91.6291 123.965 91.603L123.818 91.5309C123.809 91.5248 123.799 91.5198 123.789 91.5162C123.778 91.5093 123.766 91.5048 123.754 91.5031C123.741 91.5013 123.728 91.5022 123.716 91.5058C123.681 91.526 123.652 91.5556 123.632 91.5912C123.574 91.6825 123.587 91.7723 123.621 91.7914L123.666 91.8209C123.739 91.8506 123.816 91.8685 123.895 91.8739C123.965 91.8914 124.032 91.9197 124.093 91.9578C124.16 92.0015 124.228 92.0413 124.299 92.0771L124.395 92.1183C124.429 92.1361 124.461 92.1568 124.491 92.1801C124.555 92.2251 124.616 92.2743 124.673 92.3273C124.738 92.398 124.798 92.4745 124.863 92.5481C124.935 92.6258 125.011 92.6995 125.091 92.769C125.111 92.791 125.128 92.8147 125.143 92.8396C125.164 92.8764 125.184 92.9132 125.208 92.9471C125.259 93.0172 125.324 93.0759 125.399 93.1193C125.527 93.193 125.61 93.3534 125.73 93.4417C125.757 93.4609 125.782 93.4815 125.808 93.4977C125.845 93.518 125.884 93.5334 125.925 93.5433C126.013 93.5669 126.15 93.4933 126.246 93.5021C126.316 93.5021 126.385 93.5213 126.455 93.533C126.524 93.5448 126.59 93.533 126.656 93.5433C126.689 93.5433 126.723 93.5566 126.756 93.561C126.79 93.5654 126.814 93.5978 126.843 93.614C126.845 93.6201 126.849 93.6256 126.854 93.6302C126.855 93.6448 126.862 93.6583 126.873 93.6685C126.948 93.7334 127.035 93.7833 127.129 93.8157C127.155 93.8246 127.182 93.832 127.21 93.8378L127.226 93.9173C127.239 93.9835 127.353 93.8628 127.373 93.9173C127.388 93.9969 127.409 94.0752 127.437 94.1513C127.44 94.1569 127.443 94.1624 127.447 94.1675C127.469 94.2397 127.498 94.3 127.571 94.2824C127.643 94.2647 127.732 94.1999 127.8 94.2279C127.868 94.2559 127.868 94.3295 127.914 94.3619C127.926 94.3713 127.941 94.3764 127.957 94.3764C127.973 94.3764 127.988 94.3713 128 94.3619C128.015 94.3545 128.031 94.3324 128.046 94.325C128.09 94.2956 128.141 94.2769 128.193 94.2706C128.224 94.309 128.258 94.344 128.296 94.3751C128.333 94.406 128.376 94.4296 128.413 94.462C128.467 94.5053 128.535 94.5273 128.604 94.5238C128.656 94.5133 128.703 94.4852 128.736 94.4443C128.764 94.4406 128.793 94.4406 128.82 94.4443C128.87 94.4547 128.917 94.4742 128.959 94.5017V94.5135C128.977 94.5673 129.005 94.6173 129.041 94.6607C129.067 94.6918 129.098 94.7182 129.133 94.7387C129.133 94.7562 129.137 94.7733 129.145 94.789C129.153 94.8047 129.163 94.8187 129.177 94.83C129.28 94.917 129.393 94.992 129.514 95.0538C129.577 95.12 129.645 95.1804 129.713 95.2407C129.774 95.3013 129.841 95.3564 129.913 95.4056C129.943 95.4266 129.975 95.4435 130.01 95.4557C130.045 95.4679 130.082 95.4748 130.119 95.4763C130.15 95.4723 130.179 95.4634 130.207 95.4498C130.236 95.4385 130.263 95.422 130.287 95.4012C130.308 95.399 130.33 95.399 130.351 95.4012H130.378L130.416 95.4174C130.453 95.4307 130.49 95.441 130.528 95.4513L130.675 95.5146C130.722 95.5352 130.771 95.5528 130.823 95.5705L130.942 95.6412C131.058 95.7148 131.176 95.7884 131.298 95.8502C131.42 95.9121 131.526 95.9592 131.641 96.0107L131.825 96.0917L131.782 95.7325L131.646 95.8679C131.56 95.9562 131.478 96.0475 131.388 96.1314C131.338 96.18 131.292 96.2315 131.241 96.2786L131.219 96.2978C131.21 96.304 131.202 96.3114 131.195 96.3198C131.184 96.3269 131.176 96.3362 131.169 96.3472C131.163 96.3582 131.159 96.3705 131.158 96.3832C131.164 96.4232 131.181 96.4609 131.207 96.4921C131.26 96.5981 131.347 96.6202 131.378 96.5951Z" fill="#063844"/>
<path d="M38.3878 76.687C36.1442 77.2479 30.1642 76.8195 27.9207 77.3789L38.3878 76.687Z" fill="#063844"/>
<path d="M28.04 77.5173C28.0582 77.5186 28.0764 77.5186 28.0945 77.5173C28.1115 77.5128 28.1282 77.5074 28.1446 77.5011C28.2028 77.4847 28.2595 77.463 28.3139 77.4363C28.37 77.4064 28.4292 77.3827 28.4905 77.3657C28.5538 77.3507 28.6184 77.3423 28.6834 77.3406C28.8135 77.3272 28.9448 77.3322 29.0735 77.3554C29.1392 77.3668 29.2056 77.3732 29.2722 77.3745C29.3368 77.3811 29.402 77.3811 29.4666 77.3745C29.5533 77.3607 29.6408 77.3529 29.7286 77.3509H29.839L29.9862 77.3907H30.0083H30.0363H30.0584L30.0922 77.3995C30.1482 77.4172 30.2056 77.4363 30.2615 77.4569C30.3175 77.4775 30.394 77.5055 30.4588 77.5364C30.5236 77.5673 30.5854 77.6542 30.6487 77.6837C30.7263 77.7159 30.8081 77.7367 30.8916 77.7455C30.9402 77.7455 30.9903 77.7543 31.0388 77.7455H31.0845C31.1676 77.7369 31.2489 77.7161 31.3259 77.6837C31.4511 77.6365 31.5732 77.5364 31.6984 77.4893C31.7646 77.4614 31.8323 77.4363 31.9001 77.4098C31.9372 77.4094 31.9743 77.4133 32.0105 77.4216C32.049 77.4378 32.086 77.4575 32.1209 77.4805C32.1562 77.5069 32.1961 77.5264 32.2387 77.5379C32.3031 77.5463 32.3686 77.5397 32.43 77.5188C32.4919 77.507 32.5522 77.4967 32.6126 77.482L32.6538 77.4717L32.6818 77.4864C32.7066 77.4992 32.7322 77.5105 32.7583 77.5202C32.8009 77.5539 32.8417 77.5898 32.8805 77.6277C32.9262 77.6748 32.9556 77.6895 33.0027 77.6527C33.1588 77.5247 33.2972 77.6351 33.4665 77.6115C33.6227 77.5982 33.7754 77.5568 33.9169 77.4893C33.9453 77.4735 33.9728 77.4564 33.9994 77.4378C34.0818 77.4332 34.1631 77.4168 34.2408 77.3892C34.3743 77.3221 34.5201 77.2831 34.6692 77.2744H34.6766L34.7929 77.3068L34.8341 77.3303C34.9042 77.367 34.979 77.3937 35.0564 77.4098C35.2154 77.4599 35.3729 77.5144 35.5334 77.5497C35.5765 77.5586 35.6204 77.5626 35.6644 77.5615C35.7704 77.5553 35.8753 77.5361 35.9765 77.504L36.2003 77.4334C36.2938 77.4252 36.3849 77.3987 36.4682 77.3554C36.5021 77.3318 36.533 77.2965 36.5668 77.2714C36.5998 77.2465 36.6347 77.2243 36.6714 77.2052C36.7435 77.1684 36.8186 77.1434 36.8907 77.1095C36.9629 77.0756 37.0188 77.0491 37.0836 77.0226C37.2074 76.9796 37.3359 76.9514 37.4663 76.9387C37.5267 76.9299 37.5871 76.9387 37.6489 76.9387C37.7216 76.9359 37.7945 76.9388 37.8668 76.9476C37.9534 76.9551 38.0405 76.9425 38.1215 76.9108L38.2863 76.8769C38.2973 76.8753 38.3081 76.8728 38.3187 76.8695C38.3316 76.868 38.344 76.8637 38.3551 76.8571C38.3663 76.8506 38.3759 76.8418 38.3835 76.8313C38.3983 76.7938 38.4014 76.7527 38.3923 76.7135C38.3747 76.606 38.307 76.5457 38.2687 76.5515C38.2505 76.5502 38.2323 76.5502 38.2142 76.5515C38.1395 76.574 38.0689 76.6083 38.0052 76.6531C37.9383 76.6836 37.8665 76.7016 37.7932 76.7061C37.7123 76.7078 37.6317 76.7147 37.5517 76.7267L37.4501 76.7488C37.4115 76.7533 37.3725 76.7533 37.3338 76.7488C37.2533 76.7441 37.1732 76.7342 37.0939 76.7194C36.9997 76.6944 36.9069 76.662 36.8142 76.6355C36.7214 76.609 36.6037 76.5869 36.4991 76.5663C36.4716 76.557 36.445 76.5451 36.4196 76.5309C36.3814 76.5103 36.3445 76.4897 36.3077 76.4735C36.2276 76.44 36.1414 76.423 36.0545 76.4235C35.9073 76.4235 35.7513 76.3248 35.6026 76.3086C35.5702 76.3086 35.5378 76.2998 35.5069 76.2983C35.465 76.2996 35.4235 76.306 35.3832 76.3175C35.2934 76.3396 35.208 76.4647 35.1197 76.5103C35.0535 76.5383 34.9857 76.5604 34.9195 76.5839C34.8532 76.6075 34.7973 76.6472 34.734 76.6737C34.7006 76.6828 34.6676 76.6936 34.6354 76.7061C34.601 76.7039 34.5666 76.7039 34.5323 76.7061C34.528 76.7012 34.5224 76.6976 34.5161 76.6958C34.5072 76.6836 34.4941 76.6752 34.4793 76.6723C34.3798 76.65 34.277 76.646 34.176 76.6605L34.0936 76.6796L34.0421 76.6193C33.9964 76.5663 33.9552 76.7267 33.9081 76.6826C33.8565 76.6188 33.7993 76.5597 33.7373 76.5059L33.7197 76.4971C33.6667 76.4441 33.6107 76.4058 33.5548 76.4544C33.4988 76.503 33.4488 76.6016 33.3752 76.6119C33.3016 76.6222 33.2633 76.5545 33.2088 76.5486C33.1779 76.5486 33.1573 76.5486 33.1308 76.5928C33.122 76.606 33.1176 76.6325 33.1072 76.6472C33.083 76.6917 33.0493 76.7304 33.0086 76.7606C32.9611 76.7414 32.9118 76.7271 32.8614 76.7179C32.8113 76.7076 32.7628 76.7076 32.7142 76.6958C32.6447 76.6835 32.5731 76.6966 32.5125 76.7326C32.4705 76.7663 32.4419 76.8138 32.4315 76.8666C32.4078 76.8826 32.3827 76.8964 32.3564 76.9078C32.3085 76.921 32.2588 76.9259 32.2092 76.9225H32.1989C32.156 76.8835 32.1061 76.853 32.0517 76.8327C32.0135 76.8186 31.9732 76.8106 31.9325 76.8092C31.9232 76.7939 31.9108 76.7807 31.8961 76.7706C31.8814 76.7604 31.8647 76.7535 31.8471 76.7503C31.711 76.723 31.5721 76.7116 31.4334 76.7164C31.3436 76.6899 31.2523 76.6693 31.1625 76.6487C31.0765 76.6265 30.9889 76.6112 30.9005 76.6031C30.8628 76.5986 30.8248 76.5986 30.7871 76.6031C30.7493 76.6104 30.7127 76.6228 30.6782 76.6399C30.6546 76.6517 30.634 76.684 30.6119 76.7061C30.5924 76.731 30.577 76.7588 30.5663 76.7886C30.5481 76.8006 30.5289 76.8109 30.5089 76.8195L30.4809 76.8268H30.4382C30.399 76.8331 30.3602 76.8414 30.3219 76.8519L30.157 76.8725C30.104 76.8725 30.051 76.8887 29.998 76.9005H29.8508C29.7036 76.9005 29.5667 76.9005 29.4239 76.9078C29.2811 76.9152 29.1648 76.9402 29.0352 76.9608C28.9057 76.9814 28.7673 77.0079 28.6333 77.0359C28.4994 77.0639 28.3845 77.0889 28.2594 77.1242C28.1887 77.1404 28.1195 77.164 28.0474 77.1787H28.0165C28.0057 77.1777 27.9949 77.1777 27.9841 77.1787C27.9712 77.1803 27.9589 77.1845 27.9477 77.1911C27.9366 77.1977 27.9269 77.2065 27.9193 77.217C27.9045 77.2544 27.9014 77.2955 27.9105 77.3347C27.9326 77.4628 28.0018 77.5232 28.04 77.5173Z" fill="#063844"/>
<path d="M115.396 38.5841L120.423 30.5946L115.396 38.5841Z" fill="#063844"/>
<path d="M120.055 30.9656C119.971 31.0981 119.883 31.2277 119.793 31.3572C119.658 31.5707 118.835 32.6233 118.763 32.7072C118.362 33.1017 117.947 33.4727 117.678 33.9011C117.361 34.4017 117.204 34.9876 116.927 35.5087C116.728 35.8812 116.504 36.392 116.338 36.7836C116.294 36.8631 116.241 36.9618 116.191 37.0354C116.076 37.2341 115.946 37.4476 115.79 37.689C115.506 38.1307 115.296 38.5311 115.381 38.5856C115.466 38.64 115.727 38.2808 116.01 37.8274C116.174 37.5609 116.323 37.3269 116.462 37.1105C116.744 36.816 117.084 36.5407 117.324 36.2183C117.491 35.9931 117.647 35.7605 117.807 35.5308C118.044 35.2916 118.26 35.032 118.452 34.755C118.742 34.2577 118.995 33.7396 119.209 33.2048C119.384 32.9312 119.532 32.6407 119.65 32.3377C119.764 32.0817 119.862 31.8192 119.945 31.5515C120.032 31.4043 120.123 31.2483 120.224 31.0878C120.351 30.8876 120.473 30.6461 120.408 30.602C120.347 30.5401 120.227 30.6918 120.055 30.9656Z" fill="#063844"/>
<path d="M125.919 56.6095C128.292 55.6364 131.219 54.6618 133.592 53.6887L125.919 56.6095Z" fill="#063844"/>
<path d="M133.427 53.6341C133.28 53.693 133.104 53.6753 132.973 53.7695C132.755 53.9271 132.694 53.8166 132.557 53.8741C132.486 53.9035 132.311 53.9418 132.24 53.9683C132.17 53.9948 132.083 54.1405 132.014 54.1567L131.987 54.1641C131.693 54.2244 131.272 53.9918 131.014 54.089C130.869 54.1696 130.736 54.2686 130.616 54.3834C130.493 54.4688 130.365 54.5468 130.235 54.6234L129.81 54.8781C129.686 54.936 129.556 54.9809 129.422 55.012L129.025 55.1077C128.741 55.1828 128.466 55.2741 128.192 55.3727C127.918 55.4714 127.738 55.7894 127.456 55.885C127.273 55.9469 126.961 55.9763 126.786 56.0558C126.519 56.1132 126.424 56.2914 126.122 56.3959C125.988 56.443 125.888 56.5225 125.926 56.6167C125.964 56.7109 126.087 56.6933 126.221 56.6358C126.599 56.4769 126.792 56.4445 127.155 56.3164C127.328 56.256 127.526 56.2045 127.835 56.0867C128.018 56.0175 128.233 56.0337 128.416 55.9631C128.669 55.8659 128.71 55.8394 128.813 55.8365C128.955 55.852 129.098 55.852 129.24 55.8365C129.392 55.7975 129.54 55.7433 129.682 55.6745C129.942 55.5285 130.225 55.4288 130.519 55.3801C130.654 55.3681 130.787 55.3384 130.914 55.2918C131.049 55.2343 131.201 55.2255 131.338 55.1696C131.741 55.0076 132.094 54.4909 132.159 54.4615C132.262 54.4396 132.361 54.403 132.454 54.3525C132.527 54.3039 132.627 54.2819 132.702 54.2406C132.838 54.1759 132.973 54.117 133.112 54.0625C133.25 54.008 133.374 53.9153 133.527 53.849C133.587 53.8255 133.645 53.7754 133.615 53.7018C133.556 53.6017 133.5 53.6017 133.427 53.6341Z" fill="#063844"/>
<path d="M108.993 36.2759L112.897 43.413L120.035 47.3172L112.897 51.2214L108.993 58.3599L105.089 51.2214L97.9505 47.3172L105.089 43.413L108.993 36.2759Z" fill="#BADFD8"/>
<path d="M109.004 36.2699C108.84 36.3583 109.052 36.6851 109.358 37.246C109.932 38.2942 110.497 39.3394 111.054 40.3817C111.617 41.4475 112.179 42.5104 112.74 43.5704L114.546 44.6068L116.3 45.6241L118.057 46.6546L118.499 46.9152L118.72 47.0462L118.774 47.0786L118.796 47.0933L118.839 47.1213C118.95 47.1934 119.044 47.2597 119.122 47.3156L118.964 47.3833L118.817 47.4452L118.752 47.4746L118.738 47.482L118.693 47.5055L118.59 47.56C118.315 47.7062 118.042 47.8534 117.772 48.0016C117.233 48.2961 116.704 48.6097 116.182 48.9188C115.135 49.5386 114.121 50.1657 113.079 50.7634L112.674 50.9946L112.253 51.7895L111.877 52.4888C111.625 52.9496 111.374 53.403 111.118 53.8579C110.607 54.7677 110.075 55.6849 109.498 56.6889C109.428 56.8111 109.351 56.9318 109.288 57.054L109.246 57.1247L109.221 57.1644L109.173 57.2425L108.993 57.5369L108.825 57.1924C108.814 57.16 108.624 56.8008 108.49 56.5461C108.195 56.0058 107.901 55.4611 107.618 54.9179C107.029 53.8329 106.427 52.7538 105.81 51.7027L105.615 51.3656C105.534 51.2183 105.453 51.0711 105.373 50.9357L104.817 50.6324L104.375 50.3807C104.081 50.2114 103.786 50.0421 103.502 49.8713C102.929 49.5298 102.37 49.1838 101.808 48.8408C101.245 48.4978 100.681 48.1415 100.098 47.7897L99.6567 47.5261L99.433 47.3936L99.3756 47.3613L99.3358 47.3377C99.3353 47.3361 99.3352 47.3345 99.3356 47.3328C99.3359 47.3312 99.3365 47.3297 99.3375 47.3284C99.3386 47.3271 99.3399 47.3261 99.3413 47.3254C99.3428 47.3247 99.3445 47.3244 99.3461 47.3244H99.3594L99.3859 47.3097L100.228 46.8166C100.789 46.4824 101.35 46.1394 101.909 45.7934L103.584 44.7511L104.421 44.2329L104.837 43.9753L105.046 43.8487L105.341 43.6764L105.603 43.1538C106.602 41.1384 107.567 39.2349 108.641 37.2651C108.889 36.8132 109.14 36.3686 109.017 36.3008C108.853 36.211 108.693 36.5658 108.387 37.1253C107.808 38.1823 107.209 39.2084 106.62 40.2286L105.729 41.7567L104.892 43.2215L104.278 43.5233L103.608 43.8928C103.162 44.1431 102.716 44.4002 102.27 44.6642C101.501 45.125 100.745 45.5402 100.009 45.9318L97.3999 47.3141L98.373 47.8559L99.2298 48.3255C99.7053 48.5802 100.19 48.8319 100.692 49.0763C102.212 49.8198 103.212 50.6471 104.594 51.4318L104.773 51.5319L105.02 51.9736L105.33 52.5109L105.952 53.565C106.365 54.2672 106.775 54.9841 107.174 55.7983C107.409 56.2811 107.655 56.7449 107.91 57.1954C108.08 57.4967 108.249 57.7965 108.418 58.0948L108.993 59.0944L109.744 57.6223L110.255 56.5918C110.579 55.947 110.917 55.2977 111.294 54.6382C111.614 54.0807 111.936 53.5321 112.259 52.9923L112.744 52.1856L112.989 51.7851L113.109 51.5849C113.134 51.5437 113.139 51.5407 113.149 51.5245L113.179 51.4848L113.23 51.4627L113.255 51.4539L113.311 51.4259L113.541 51.3155L114 51.0932L114.917 50.6516L116.741 49.7683C117.348 49.4738 117.952 49.1691 118.554 48.854L119.004 48.6185L119.625 48.2858L121.423 47.3053L119.527 46.288L119.291 46.1629L119.162 46.0967L118.92 45.9745L118.431 45.733C117.567 45.312 116.691 44.8394 115.805 44.3654C115.363 44.1298 114.922 43.8928 114.47 43.6617L113.797 43.3216L113.458 43.1553L113.295 43.0772L113.239 43.0596L113.202 43.0169L113.109 42.8697L112.911 42.5679C111.865 40.9971 110.906 39.4498 109.921 37.723L109.613 37.0914C109.366 36.6571 109.127 36.2022 109.004 36.2699Z" fill="#063844"/>
<path d="M51.4373 100.318L47.4226 102.515L45.2262 106.529L43.0297 102.515L39.0151 100.318L43.0297 98.1218L45.2262 94.1072L47.4226 98.1218L51.4373 100.318Z" fill="#BADFD8"/>
<path d="M51.4432 100.328C51.3534 100.165 51.1767 100.296 50.8617 100.476C50.2728 100.798 49.6839 101.113 49.0951 101.422L48.2118 101.882L47.2696 102.364L46.9442 102.905L46.6498 103.394C46.454 103.717 46.2553 104.041 46.0609 104.368L45.7665 104.855L45.6193 105.1L45.5442 105.222L45.5059 105.282L45.4853 105.312C45.41 105.419 45.3273 105.522 45.238 105.618C45.2262 105.584 45.213 105.55 45.1997 105.516C45.1747 105.446 45.1541 105.393 45.132 105.344C45.1217 105.321 45.1099 105.299 45.0981 105.276L45.0334 105.162C44.8626 104.867 44.683 104.573 44.5019 104.278C44.1368 103.7 43.7658 103.137 43.414 102.562C43.361 102.472 43.3094 102.384 43.2668 102.301L42.7839 102.051C42.6499 101.98 42.5189 101.911 42.3893 101.84C42.1302 101.693 41.8756 101.558 41.6209 101.412L40.8274 100.951L40.4313 100.714L40.237 100.596L40.1428 100.533L39.8307 100.318L40.2238 100.14L40.2665 100.121L40.29 100.109L40.3474 100.08L40.5786 99.9589L41.0379 99.7146C41.6488 99.3863 42.2539 99.0433 42.8369 98.684C42.9002 98.6472 42.962 98.609 43.0238 98.5707L43.3094 98.4102C43.4787 98.0908 43.5435 97.9789 43.6466 97.8022C43.7496 97.6256 43.8424 97.4754 43.941 97.3179C44.1427 96.9999 44.3503 96.6922 44.5608 96.3845L45.1747 95.4732C45.2144 95.4615 45.2188 95.4938 45.2188 95.4997C45.2177 95.4949 45.2177 95.4899 45.2188 95.485C45.2227 95.4842 45.2267 95.4842 45.2306 95.485H45.2439C45.2439 95.485 45.2439 95.485 45.2439 95.4924L45.263 95.5203C45.4603 95.8324 45.6649 96.1401 45.8725 96.4478L46.5011 97.3664L46.8132 97.8258L46.9604 98.0554L46.9987 98.1128L47.0502 98.1953L47.1577 98.3675L47.3432 98.4573L47.4904 98.5265C48.6431 99.055 49.7281 99.5718 50.8337 100.175C51.0869 100.323 51.3357 100.459 51.4034 100.336C51.4932 100.172 51.2871 100.094 50.9721 99.9207C50.3832 99.5953 49.8061 99.2508 49.2394 98.9034L48.3899 98.3852L47.6052 97.9185L47.5449 97.8037L47.4433 97.6138C47.3741 97.4901 47.3049 97.3635 47.2343 97.2384C47.0929 96.9881 46.9457 96.7398 46.7926 96.4935C46.5217 96.0651 46.2862 95.644 46.0683 95.2274L45.2041 93.5668C44.8155 94.2454 44.3208 95.1376 44.1236 95.6087C43.7378 96.4787 43.174 96.9984 42.7279 97.758L42.6941 97.8155L42.6367 97.8464L42.4894 97.9303L42.195 98.1099L41.6061 98.475C41.2037 98.7329 40.7835 98.9621 40.3489 99.161C40.2105 99.2229 40.0766 99.2876 39.9441 99.3554L39.6761 99.5026L39.3949 99.666C38.9916 99.8912 38.6132 100.116 38.2702 100.326L39.9382 101.135C40.3165 101.313 40.6743 101.493 41.0482 101.714C41.3588 101.898 41.6621 102.086 41.9609 102.278L42.4026 102.572L42.6234 102.719L42.6779 102.756L42.7014 102.775L42.7441 102.812C42.76 102.869 42.7812 102.925 42.8074 102.978L42.9223 103.242C42.9988 103.419 43.0695 103.594 43.1505 103.769C43.2977 104.119 43.4567 104.468 43.6142 104.814L43.8527 105.334L43.9763 105.591L44.0382 105.72L44.0706 105.784L44.1353 105.908C44.4828 106.575 44.8523 107.267 45.2218 107.934C45.606 107.221 45.9917 106.479 46.3392 105.776C46.5615 105.273 46.8235 104.783 47.0856 104.281C47.2166 104.031 47.3476 103.779 47.4727 103.526C47.5361 103.398 47.5964 103.27 47.6553 103.142L47.7422 102.949C47.7463 102.941 47.7493 102.933 47.751 102.924V102.908V102.872C47.7656 102.854 47.7813 102.836 47.7981 102.819L47.963 102.696C48.8117 102.042 49.7007 101.442 50.6247 100.9L50.9868 100.739C51.2548 100.583 51.5109 100.452 51.4432 100.328Z" fill="#063844"/>
<path d="M55.6093 104.828C56.1924 105.276 56.5973 105.918 56.7517 106.637C56.9061 107.357 56.8 108.108 56.4523 108.756C56.1047 109.405 55.538 109.909 54.8533 110.179C54.1686 110.449 53.4104 110.467 52.7137 110.23C52.017 109.993 51.4272 109.516 51.0492 108.884C50.6712 108.253 50.5297 107.508 50.6499 106.782C50.7701 106.056 51.1441 105.396 51.7054 104.92C52.2666 104.444 52.9787 104.183 53.7146 104.183" fill="white"/>
<path d="M53.6073 104.122C53.484 104.119 53.3606 104.124 53.2378 104.136L53.0641 104.159L52.8933 104.203C52.8526 104.213 52.8113 104.219 52.7696 104.221C52.7287 104.227 52.6883 104.236 52.6489 104.249C52.5959 104.27 52.5017 104.305 52.4487 104.321C52.3471 104.361 52.3368 104.342 52.2338 104.383C52.1307 104.424 52.0291 104.473 51.9261 104.518C51.8234 104.576 51.725 104.641 51.6316 104.713C51.5433 104.782 51.4594 104.86 51.3711 104.923C51.2803 105.004 51.1952 105.09 51.1164 105.182C51.0285 105.299 50.9516 105.424 50.8867 105.555C50.8573 105.612 50.8219 105.667 50.791 105.723C50.7601 105.779 50.7292 105.834 50.6953 105.89C50.6317 105.979 50.5727 106.071 50.5187 106.166C50.4596 106.26 50.4065 106.359 50.3597 106.46C50.2969 106.593 50.2476 106.731 50.2125 106.874C50.1865 106.97 50.1702 107.069 50.1639 107.168V107.236C50.1667 107.37 50.1771 107.505 50.1948 107.638C50.2066 107.716 50.2257 107.785 50.2419 107.868C50.2563 107.944 50.278 108.018 50.3067 108.09C50.3887 108.307 50.4928 108.515 50.6173 108.711C50.6791 108.801 50.7277 108.895 50.7969 108.979L50.9353 109.184C51.0087 109.275 51.0868 109.363 51.1694 109.446L51.3725 109.627L51.5889 109.786C51.6449 109.837 51.7111 109.877 51.7715 109.924C51.8378 109.976 51.9099 110.019 51.9864 110.054C52.0851 110.104 52.1793 110.16 52.2809 110.201C52.3824 110.242 52.4796 110.297 52.5827 110.333L52.7475 110.401L52.9168 110.454C52.9728 110.472 53.0287 110.494 53.0861 110.507L53.2599 110.553C53.3686 110.584 53.4809 110.602 53.594 110.606C53.705 110.611 53.8163 110.608 53.9268 110.595C54.0475 110.595 54.1652 110.565 54.2845 110.55C54.4037 110.535 54.5156 110.507 54.6334 110.49C54.6926 110.486 54.7515 110.48 54.8101 110.47L55.0029 110.444C55.0884 110.428 55.1726 110.406 55.2547 110.378C55.2973 110.364 55.3386 110.351 55.3798 110.335L55.499 110.278C55.5645 110.246 55.6284 110.211 55.6904 110.173L55.8685 110.043C55.9304 109.998 55.9867 109.945 56.0364 109.886C56.0879 109.83 56.1409 109.775 56.1836 109.715C56.2207 109.671 56.2605 109.63 56.3028 109.591L56.3882 109.516C56.4261 109.475 56.4588 109.429 56.4854 109.379L56.5767 109.232C56.6457 109.115 56.7053 108.992 56.7548 108.866C56.7981 108.739 56.8316 108.609 56.8549 108.477L56.8932 108.299C56.9035 108.239 56.9108 108.178 56.9197 108.118C56.939 107.987 56.9489 107.854 56.9491 107.722C56.9653 107.613 56.9638 107.505 56.9786 107.395C56.9928 107.286 56.9997 107.176 56.9992 107.067C56.9967 106.829 56.9615 106.594 56.8947 106.366C56.8074 106.139 56.6964 105.922 56.5634 105.718C56.4903 105.582 56.4029 105.454 56.3028 105.337C56.188 105.15 55.9893 105.082 55.8111 104.913C55.7302 104.839 55.6433 104.794 55.6124 104.833C55.5815 104.873 55.6433 104.941 55.7257 105.01C55.9069 105.178 56.0635 105.37 56.1909 105.581C56.3047 105.72 56.4034 105.871 56.4854 106.03C56.5335 106.169 56.5709 106.311 56.5973 106.456C56.6349 106.55 56.6558 106.649 56.6591 106.75C56.6517 106.868 56.6223 106.95 56.6223 107.045C56.6223 107.139 56.6297 107.27 56.6297 107.38C56.6375 107.487 56.6336 107.594 56.6179 107.7C56.6091 107.751 56.6002 107.804 56.5884 107.856C56.5734 107.906 56.5547 107.955 56.5325 108.003C56.5134 108.047 56.4942 108.091 56.478 108.135C56.4571 108.178 56.4389 108.222 56.4236 108.267C56.4076 108.317 56.3874 108.366 56.3632 108.414C56.3354 108.458 56.3098 108.503 56.2866 108.549C56.2367 108.64 56.192 108.734 56.1527 108.83C56.1291 108.923 56.054 108.978 56.0187 109.072C56.0023 109.111 55.981 109.147 55.9554 109.181C55.894 109.218 55.8364 109.262 55.7832 109.31L55.6683 109.394C55.628 109.426 55.5897 109.461 55.5535 109.497C55.5138 109.528 55.4755 109.562 55.4372 109.596C55.3626 109.664 55.2818 109.725 55.1958 109.778C55.1636 109.802 55.1302 109.824 55.0957 109.843H55.0721C54.9974 109.849 54.9244 109.869 54.8572 109.902L54.6525 109.985C54.642 109.988 54.6328 109.995 54.626 110.004C54.522 110.037 54.4164 110.066 54.3095 110.089C54.202 110.101 54.0931 110.12 53.9842 110.123C53.8586 110.126 53.733 110.118 53.6088 110.099C53.5469 110.089 53.4866 110.083 53.4262 110.071L53.251 110.026C53.1852 110.004 53.1211 109.977 53.0596 109.945C52.9976 109.918 52.9375 109.886 52.88 109.851C52.8108 109.805 52.7328 109.773 52.668 109.733L52.4605 109.612C52.3956 109.566 52.3255 109.527 52.2514 109.497L52.038 109.388C51.9776 109.357 51.9246 109.318 51.8672 109.285C51.8092 109.222 51.7467 109.163 51.6802 109.109C51.588 109.068 51.5014 109.016 51.4226 108.954C51.3519 108.889 51.3166 108.807 51.2489 108.732C51.1844 108.669 51.1316 108.595 51.0928 108.514C51.0724 108.47 51.0547 108.425 51.0398 108.378C51.0198 108.336 50.9972 108.295 50.9721 108.256C50.9392 108.198 50.9107 108.137 50.8867 108.074L50.8602 107.872C50.8602 107.804 50.8602 107.737 50.847 107.669L50.8367 107.578L50.8293 107.483C50.8246 107.421 50.8162 107.359 50.8043 107.298C50.7954 107.205 50.7866 107.112 50.7792 107.017C50.7792 106.949 50.7866 106.883 50.7881 106.815C50.7918 106.755 50.8006 106.696 50.8146 106.638C50.8352 106.566 50.8632 106.491 50.8867 106.426C50.9481 106.28 51.0194 106.139 51.1002 106.002C51.1355 105.936 51.1679 105.867 51.2047 105.802C51.2415 105.737 51.268 105.664 51.3063 105.599C51.3446 105.534 51.3814 105.478 51.4226 105.418C51.4638 105.357 51.5124 105.307 51.5551 105.249L51.6184 105.169L51.6905 105.097C51.7372 105.049 51.7863 105.004 51.8377 104.961C51.901 104.919 51.9423 104.844 52.007 104.801C52.0718 104.758 52.1189 104.732 52.1734 104.696C52.2992 104.629 52.4301 104.571 52.565 104.524C52.6377 104.505 52.7087 104.479 52.777 104.448C52.8332 104.412 52.8923 104.382 52.9536 104.356L53.1126 104.309L53.276 104.283C53.3893 104.256 53.5045 104.239 53.6205 104.23C53.6676 104.23 53.7221 104.215 53.7236 104.175C53.7251 104.136 53.675 104.119 53.6073 104.122Z" fill="#063844"/>
<path d="M131.141 81.4847C131.566 81.8128 131.86 82.2813 131.972 82.8065C132.084 83.3318 132.006 83.8797 131.752 84.3527C131.498 84.8258 131.084 85.1932 130.584 85.3895C130.084 85.5858 129.531 85.5983 129.022 85.4247C128.514 85.2512 128.084 84.9029 127.809 84.4418C127.533 83.9807 127.431 83.4369 127.519 82.9071C127.607 82.3773 127.88 81.8961 128.29 81.549C128.7 81.202 129.22 81.0117 129.757 81.0121" fill="white"/>
<path d="M129.677 80.9518C129.587 80.9459 129.496 80.9459 129.405 80.9518L129.277 80.9695L129.15 81.0018C129.089 81.0071 129.028 81.0159 128.968 81.0284C128.93 81.0431 128.86 81.0696 128.821 81.0813C128.744 81.1078 128.734 81.0887 128.656 81.1167C128.578 81.1447 128.501 81.1785 128.422 81.2109C128.343 81.2529 128.269 81.3022 128.199 81.3581L128.001 81.5053C127.93 81.564 127.865 81.6285 127.806 81.6982C127.743 81.7869 127.687 81.8809 127.64 81.9794C127.619 82.0228 127.595 82.0651 127.569 82.106C127.547 82.1472 127.522 82.1884 127.496 82.2296C127.441 82.2929 127.397 82.3621 127.348 82.4313C127.299 82.5006 127.254 82.5729 127.213 82.6477C127.158 82.7466 127.114 82.8513 127.082 82.9598C127.059 83.0315 127.044 83.1056 127.039 83.1807V83.2322C127.041 83.3352 127.05 83.438 127.066 83.5399C127.085 83.6567 127.117 83.7712 127.16 83.8814C127.229 84.045 127.315 84.201 127.416 84.3466C127.465 84.4129 127.506 84.4821 127.563 84.5439L127.671 84.6911C127.727 84.7594 127.788 84.8243 127.852 84.8854L128.008 85.015L128.174 85.1284C128.218 85.1666 128.267 85.1961 128.313 85.2314C128.362 85.2699 128.416 85.3012 128.475 85.3242C128.548 85.3595 128.622 85.3992 128.695 85.4302C128.769 85.4611 128.843 85.5008 128.919 85.5303L129.04 85.5818L129.165 85.623C129.249 85.6554 129.334 85.6775 129.42 85.704C129.5 85.7316 129.584 85.747 129.669 85.7496C129.752 85.7536 129.835 85.7501 129.917 85.7393C130.007 85.7393 130.095 85.7158 130.184 85.704C130.272 85.6922 130.358 85.676 130.447 85.6657C130.491 85.6657 130.536 85.6657 130.581 85.6583L130.729 85.6495C130.795 85.641 130.86 85.6272 130.924 85.6083C130.989 85.5918 131.053 85.5686 131.113 85.5391C131.161 85.5141 131.213 85.4905 131.26 85.4611C131.307 85.4316 131.35 85.3978 131.394 85.3639C131.484 85.2888 131.564 85.2028 131.632 85.1077C131.66 85.075 131.69 85.0441 131.722 85.015L131.79 84.9605C131.819 84.9293 131.844 84.8941 131.864 84.856L131.93 84.7412C131.98 84.6514 132.023 84.5573 132.056 84.46C132.085 84.3638 132.106 84.2653 132.118 84.1656L132.14 84.0301L132.155 83.8932C132.165 83.7954 132.168 83.697 132.165 83.5988C132.176 83.5178 132.174 83.4383 132.189 83.3559C132.201 83.2749 132.208 83.1933 132.21 83.1115C132.211 82.9342 132.187 82.7576 132.137 82.5874C132.066 82.4202 131.979 82.2604 131.877 82.1104C131.822 82.0095 131.757 81.9152 131.681 81.8292C131.6 81.682 131.432 81.654 131.304 81.5348C131.245 81.4788 131.178 81.4494 131.147 81.4906C131.116 81.5318 131.158 81.5819 131.219 81.6378C131.419 81.8693 131.601 82.1153 131.765 82.3739C131.796 82.4757 131.819 82.5795 131.836 82.6846C131.865 82.7533 131.879 82.8277 131.877 82.9024C131.857 82.9736 131.841 83.0459 131.83 83.1188C131.83 83.1983 131.83 83.2778 131.83 83.3573C131.839 83.4331 131.839 83.5098 131.83 83.5855C131.822 83.6618 131.8 83.7359 131.763 83.8034C131.747 83.8328 131.733 83.8638 131.719 83.8947C131.703 83.9242 131.69 83.9552 131.68 83.9874C131.667 84.0226 131.652 84.0566 131.634 84.089C131.612 84.1187 131.594 84.1502 131.578 84.1832C131.541 84.2469 131.511 84.3146 131.488 84.3849C131.476 84.4541 131.42 84.4968 131.398 84.5616C131.389 84.5904 131.376 84.6178 131.359 84.6425C131.311 84.6652 131.266 84.6939 131.226 84.7279C131.2 84.7471 131.169 84.7633 131.142 84.7824C131.114 84.8045 131.086 84.8286 131.061 84.8545C131.033 84.8781 131.007 84.9031 130.98 84.9281C130.928 84.978 130.871 85.0229 130.811 85.0621C130.788 85.0792 130.765 85.0949 130.74 85.1092H130.723C130.668 85.1047 130.614 85.1154 130.565 85.1401L130.418 85.1975C130.414 85.199 130.41 85.2014 130.407 85.2044C130.404 85.2075 130.402 85.2112 130.4 85.2152C130.326 85.2396 130.251 85.2598 130.175 85.2756C130.098 85.2756 130.028 85.2947 129.944 85.2962C129.855 85.2963 129.766 85.2874 129.679 85.2697C129.636 85.2609 129.593 85.2564 129.552 85.2461L129.429 85.2079C129.384 85.1891 129.34 85.1665 129.299 85.1401C129.257 85.1169 129.216 85.0908 129.177 85.0621C129.13 85.0286 129.081 84.9981 129.03 84.9708L128.882 84.8825C128.838 84.8489 128.788 84.8235 128.735 84.8074L128.581 84.7412C128.536 84.7235 128.498 84.6985 128.454 84.6793C128.41 84.6602 128.38 84.5851 128.323 84.5572C128.25 84.539 128.181 84.5092 128.118 84.4688C128.065 84.4247 128.043 84.3614 127.99 84.3216C127.939 84.2824 127.898 84.232 127.87 84.1744C127.855 84.143 127.843 84.1105 127.834 84.0772C127.818 84.0474 127.8 84.0188 127.78 83.9918C127.754 83.9509 127.73 83.9081 127.711 83.8638L127.699 83.7165C127.699 83.668 127.699 83.6194 127.699 83.5693C127.694 83.4808 127.683 83.3927 127.665 83.3058C127.655 83.2396 127.644 83.1718 127.635 83.1026C127.627 83.0335 127.635 83.007 127.635 82.9554C127.637 82.9127 127.643 82.8703 127.653 82.8288C127.669 82.7773 127.691 82.7272 127.711 82.6816C127.758 82.5797 127.812 82.4813 127.874 82.3872C127.926 82.2929 127.971 82.1958 128.021 82.0927C128.045 82.0472 128.072 82.003 128.101 81.9602C128.13 81.9175 128.164 81.8793 128.193 81.8366C128.251 81.7567 128.32 81.6862 128.4 81.6275C128.445 81.5966 128.469 81.5348 128.517 81.5053L128.637 81.4303C128.728 81.3834 128.824 81.344 128.922 81.3125C128.974 81.3005 129.023 81.2817 129.069 81.2565C129.108 81.2277 129.15 81.2025 129.193 81.1815L129.309 81.1461L129.427 81.1255C129.509 81.1047 129.592 81.0905 129.676 81.0828C129.711 81.0828 129.75 81.0681 129.751 81.0284C129.752 80.9886 129.729 80.9489 129.677 80.9518Z" fill="#063844"/>
<path d="M100.137 109.699C103.978 118.927 107.268 125.392 111.109 134.621L111.293 135.266C106.729 136.856 101.681 137.078 96.2487 138.222C95.6878 137.928 92.7935 111.064 92.7891 111.134C92.795 111.14 95.7717 111.002 100.137 109.699Z" fill="#BADFD8"/>
<path d="M100.156 109.694C99.9835 109.765 100.191 110.183 100.487 110.89C101.71 113.799 102.947 116.653 104.182 119.518C105.417 122.383 106.652 125.26 107.863 128.204C108.329 129.346 108.821 130.449 109.319 131.534L110.791 134.732L110.855 134.916L110.888 135.011L110.897 135.036V135.048H110.885L110.839 135.066L110.652 135.138L110.521 135.185L110.336 135.25C109.063 135.659 107.763 135.978 106.446 136.205C105.152 136.439 103.83 136.617 102.37 136.809C100.621 137.039 98.8117 137.274 97.0024 137.616L96.6137 137.689C96.5956 137.691 96.5774 137.691 96.5592 137.689C96.5479 137.674 96.5398 137.656 96.5357 137.638C96.5239 137.601 96.5165 137.563 96.5077 137.526L96.4606 137.293L96.4002 136.962L96.2854 136.294C96.1382 135.396 95.991 134.499 95.8526 133.611C95.2416 129.784 95.2402 126.57 94.7676 122.635C94.3731 119.393 93.7474 116.037 93.2748 112.768C93.2277 112.439 93.1791 112.109 93.1276 111.782C93.1276 111.608 92.9554 111.287 93.2616 111.34L93.6311 111.29C93.796 111.267 93.9609 111.245 94.1243 111.218C94.4511 111.168 94.7779 111.114 95.1018 111.053C96.4002 110.815 97.684 110.519 98.9854 110.17C99.5845 110.012 100.176 109.839 100.137 109.708C100.082 109.525 99.6478 109.692 98.9103 109.889C97.9166 110.155 96.9214 110.367 95.9262 110.534C95.4271 110.615 94.9295 110.69 94.4319 110.747C94.1832 110.777 93.9344 110.803 93.6856 110.825L93.266 110.86C93.241 110.86 93.2351 110.88 93.2233 110.896L93.1909 110.947L93.1276 111.052L93.0952 111.103C93.0931 111.108 93.0906 111.112 93.0879 111.117H93.0761H93.0525H92.9583H92.8641H92.817C92.8037 111.117 92.7758 111.117 92.7861 111.133V111.18C92.7861 111.196 92.7861 111.212 92.7861 111.221C92.7722 111.243 92.7559 111.264 92.7375 111.283C92.7136 111.307 92.6869 111.328 92.658 111.346C92.6378 111.36 92.6154 111.371 92.5917 111.377C92.58 111.377 92.5579 111.377 92.5549 111.393V111.426L92.58 111.686L92.6565 112.481C92.7066 112.985 92.7581 113.488 92.8037 113.995C92.9127 115.005 93.0363 116.022 93.1836 117.051C93.6929 120.584 93.8239 123.62 94.3613 126.96C94.6822 128.965 94.6263 130.512 94.8471 132.407C94.9781 133.517 95.1518 134.533 95.3314 135.558L95.6126 137.12C95.6377 137.253 95.6627 137.387 95.6892 137.524C95.7054 137.608 95.723 137.694 95.7407 137.779C95.7584 137.864 95.7863 137.982 95.8158 138.081C95.8418 138.175 95.8804 138.265 95.9306 138.349C95.952 138.388 95.9788 138.424 96.0101 138.456C96.0263 138.471 96.044 138.487 96.0631 138.502C96.0841 138.505 96.1055 138.505 96.1264 138.502L96.4047 138.515C96.4543 138.516 96.5039 138.51 96.5519 138.497L96.7168 138.469L97.9048 138.266L99.003 138.069L101.16 137.66C102.595 137.386 104.036 137.118 105.584 136.874C106.697 136.698 107.792 136.514 108.878 136.285L109.688 136.107L110.49 135.908C110.558 135.892 110.623 135.871 110.691 135.852L110.789 135.824L110.945 135.778L111.592 135.584L111.756 135.535L111.798 135.522C111.798 135.522 111.812 135.522 111.815 135.522V135.503L111.795 135.422L111.711 135.1L111.54 134.437C111.393 134.028 111.235 133.619 111.082 133.211C110.929 132.803 110.788 132.41 110.629 132.013C110.323 131.217 110.007 130.423 109.681 129.631C109.026 128.048 108.322 126.473 107.536 124.896C106.38 122.58 105.304 120.004 104.041 117.66C102.971 115.673 101.999 113.716 101.035 111.538L100.74 110.75C100.509 110.208 100.278 109.64 100.156 109.694Z" fill="#BADFD8"/>
</svg>
