<svg width="34" height="34" viewBox="0 0 34 34" fill="none" xmlns="http://www.w3.org/2000/svg">
    <circle cx="17" cy="17" r="16.5" fill="#F5F7F8" stroke="#DFDFDF" />
    <mask id="mask0_1266_15402" style="mask-type:alpha" maskUnits="userSpaceOnUse" x="1" y="1" width="32" height="32">
        <circle cx="17" cy="17" r="16" fill="#F5F7F8" />
    </mask>
    <g mask="url(#mask0_1266_15402)">
        <circle cx="17" cy="17" r="16.625" fill="url(#paint0_linear_1266_15402)" />
        <path d="M19.9056 8.27666C20.2649 7.64946 20.0501 6.84838 19.4258 6.48739C18.8015 6.1264 18.0041 6.34221 17.6448 6.96941L17.0181 8.06337L16.3914 6.96941C16.0321 6.34221 15.2347 6.1264 14.6104 6.48739C13.9861 6.84838 13.7713 7.64946 14.1306 8.27666L15.5133 10.6901L11.14 18.3239H7.61674C6.89643 18.3239 6.3125 18.9106 6.3125 19.6342C6.3125 20.3579 6.89643 20.9446 7.61674 20.9446H19.8885C19.9961 20.6605 20.1094 20.1732 19.9889 19.7252C19.8077 19.0519 19.1375 18.3239 18.0144 18.3239H14.1496L19.9056 8.27666Z" fill="white" />
        <path d="M11.8182 22.3935C11.5957 22.1452 11.0971 21.7485 10.66 21.6179C9.99336 21.4188 9.48803 21.5438 9.23307 21.6525L8.26157 23.3483C7.90225 23.9755 8.11706 24.7766 8.74135 25.1376C9.36564 25.4986 10.163 25.2828 10.5223 24.6556L11.8182 22.3935Z" fill="white" />
        <path d="M24.3976 20.9446H26.3833C27.1036 20.9446 27.6875 20.3579 27.6875 19.6342C27.6875 18.9106 27.1036 18.3239 26.3833 18.3239H22.8962L18.9683 11.4675C18.6765 11.7461 18.1171 12.4578 18.0325 13.2647C17.9238 14.302 18.0869 15.1755 18.5759 16.0309C20.2203 18.9066 21.8672 21.7811 23.5139 24.6556C23.8732 25.2828 24.6706 25.4986 25.2949 25.1376C25.9192 24.7766 26.134 23.9755 25.7747 23.3483L24.3976 20.9446Z" fill="white" />
    </g>
    <defs>
        <linearGradient id="paint0_linear_1266_15402" x1="17" y1="0.375" x2="17" y2="33.625" gradientUnits="userSpaceOnUse">
            <stop stop-color="#2AC9FA" />
            <stop offset="1" stop-color="#1F65EB" />
        </linearGradient>
    </defs>
</svg>
    