<svg width="33" height="32" viewBox="0 0 33 32" fill="none" xmlns="http://www.w3.org/2000/svg">
    <mask id="mask0_2454_7575" style="mask-type:alpha" maskUnits="userSpaceOnUse" x="0" y="0" width="33" height="32">
        <circle cx="16.5" cy="16" r="16" fill="#F5F7F8" />
    </mask>
    <g mask="url(#mask0_2454_7575)">
        <circle cx="16.5" cy="16" r="16" fill="#F5F7F8" />
        <path d="M23.1364 11.2129C23.3701 9.68888 23.1364 8.67285 22.3182 7.73497C21.4222 6.67986 19.7859 6.25 17.6822 6.25H11.6436C11.2151 6.25 10.8645 6.56263 10.7865 6.99248L8.25425 23.0145C8.21529 23.3272 8.44904 23.6007 8.76071 23.6007H12.5007L12.228 25.242C12.189 25.5155 12.3838 25.75 12.6955 25.75H15.8511C16.2407 25.75 16.5524 25.4765 16.5913 25.1247L17.2536 20.9825C17.2926 20.6308 17.6432 20.3572 17.9939 20.3572H18.4614C21.5001 20.3572 23.9155 19.1067 24.6168 15.5115C24.8895 14.0266 24.7726 12.737 23.9934 11.8773C23.7597 11.6037 23.487 11.4083 23.1364 11.2129Z" fill="#009CDE" />
        <path d="M23.1364 11.2129C23.3701 9.68888 23.1364 8.67285 22.3182 7.73497C21.4222 6.67986 19.7859 6.25 17.6822 6.25H11.6436C11.2151 6.25 10.8645 6.56263 10.7865 6.99248L8.25425 23.0145C8.21529 23.3272 8.44904 23.6007 8.76071 23.6007H12.5007L13.3968 17.8171C13.4747 17.3873 13.8253 17.0746 14.2538 17.0746H16.0459C19.5522 17.0746 22.2793 15.6678 23.0584 11.5256C23.0974 11.4474 23.0974 11.3302 23.1364 11.2129Z" fill="#012169" />
        <path d="M14.4486 11.252C14.4876 10.9785 14.8382 10.6268 15.1888 10.6268H19.9418C20.4872 10.6268 21.0326 10.6658 21.5001 10.744C21.9286 10.8221 22.7078 11.0175 23.0974 11.252C23.3312 9.72796 23.0974 8.71192 22.2793 7.77405C21.4222 6.67986 19.7859 6.25 17.6822 6.25H11.6436C11.2151 6.25 10.8645 6.56263 10.7865 6.99248L8.25425 23.0145C8.21529 23.3272 8.44904 23.6007 8.76071 23.6007H12.5007L14.4486 11.252Z" fill="#003087" />
    </g>
</svg>
    