<svg xmlns="http://www.w3.org/2000/svg" width="16" height="16" fill="none" viewBox="0 0 16 16"><path fill="#fa566f" d="M13.202 13c-1.4 1.034-3.5 1.667-5.2 1.667-2.434 0-4.6-.967-6.267-2.467-.133-.133 0-.266.133-.2a12.1 12.1 0 0 0 6.1 1.634c1.534 0 3.467-.334 5.034-1 .233-.067.433.2.2.366m.5-.7c-.167-.233-1.167-.1-1.6-.066-.134 0-.167-.1-.034-.2.767-.567 2.067-.4 2.2-.2.134.2-.033 1.5-.766 2.1-.1.1-.234.033-.167-.067.167-.4.533-1.333.367-1.567M12.302 9.934c-.334-.434-.667-.8-.667-1.634V5.534c0-1.167 0-2.2-.833-3-.667-.634-1.767-.867-2.634-.867-1.833 0-3.433.733-3.833 2.8-.033.233.133.333.267.367l1.7.2c.166 0 .266-.167.3-.334.133-.7.7-1.033 1.366-1.033.367 0 1.067.2 1.067 1v1c-1.067 0-2.2 0-3.133.4-1.1.467-1.867 1.433-1.867 2.867 0 1.833 1.133 2.733 2.6 2.733 1.233 0 1.967-.3 2.933-1.267.3.467.434.734 1 1.234.134.066.3.066.4-.034.334-.3.967-.866 1.334-1.166.166-.134.133-.334 0-.5m-3.3-2.567c0 .667-.034 2.3-1.667 2.3-1 0-1-1-1-1 0-1.5 1.4-1.667 2.667-1.667z"/></svg>