<svg width="45" height="54" viewBox="0 0 45 54" fill="none" xmlns="http://www.w3.org/2000/svg"><path d="M38.407 1.164H2.698a1.203 1.203 0 00-1.203 1.203v49.08a1.07 1.07 0 001.07 1.07h40.87a1.07 1.07 0 001.07-1.07V7.261l-6.098-6.097z" fill="#fff"/><path d="M38.407 1.167c0-.18-2.024-.152-5.358-.152-8.182 0-16.485-.035-24.843-.083L5.068.913 3.5.903 2.715.898c-.158 0-.316.025-.468.072a1.451 1.451 0 00-.761.56c-.092.133-.161.28-.207.434-.01.039-.021.077-.029.117l-.019.12a2.46 2.46 0 00-.01.226v.393c-.005.523-.008 1.047-.01 1.574l-.022 3.148-.086 12.61c-.056 8.409-.106 16.81-.13 25.143 0 1.042-.002 2.082-.007 3.121V51.5l.004.072a1.6 1.6 0 001.54 1.48h4.672c4.124-.005 8.22-.019 12.289-.043l17.214-.112 4.286-.028 2.142-.015h.34l.087-.004a1.43 1.43 0 00.804-.324 1.407 1.407 0 00.49-.905c.008-.058.008-.116.01-.174v-.135l-.052-8.6-.085-17.437-.028-8.913-.014-9.16-2.352-2.353c-1.9-1.9-3.784-3.794-3.88-3.697-.127.127 1.324 1.54 3.68 3.896l2.258 2.271c0 7.402-.006 14.716-.009 21.988-.013 7.291-.044 14.546-.113 21.802v.352a.811.811 0 01-.63.765.506.506 0 01-.064.011.344.344 0 01-.067.007h-.159l-.71-.007-2.825-.026-5.613-.048-11.102-.083-10.98-.063-5.462-.02-2.727-.01-1.355-.005a.499.499 0 01-.166-.03.467.467 0 01-.148-.081.583.583 0 01-.117-.124.59.59 0 01-.07-.152.56.56 0 01-.02-.143v-1.956c0-.723-.007-1.426-.01-2.105a671.275 671.275 0 00-.037-3.892c-.03-2.491-.072-4.825-.092-7.293-.07-7.607.156-13.781.135-21.083A996.078 996.078 0 001.934 3.54l-.008-.646-.004-.323v-.283a.81.81 0 01.467-.66.821.821 0 01.206-.058c.036-.008.071-.006.109-.01h.162l.646-.01 5.176-.075c6.905-.102 13.82-.205 20.698-.227l3.664.05c2.686-.002 5.357.005 5.357-.131z" fill="#063844"/><path d="M44.504 7.261h-6.096V1.164l3.048 3.048 3.048 3.049z" fill="#BADFD8"/><path d="M44.438 7.151c-.101-.1-.195-.208-.296-.31l-.285-.29c-.05-.048-.143-.162-.191-.214-.049-.052-.128-.126-.172-.173-.086-.091-.08-.1-.165-.191l-.255-.28c-.088-.097-.183-.19-.274-.285l-.264-.266c-.093-.097-.183-.197-.28-.29a33.17 33.17 0 00-.35-.334 5.59 5.59 0 01-.301-.308c-.156-.18-.306-.362-.456-.544a16.867 16.867 0 00-.3-.35 6.14 6.14 0 00-.207-.225l-.05-.05c-.1-.1-.202-.195-.303-.292a14.068 14.068 0 00-.356-.332l-.554-.49-.258-.233-.197-.187-.396-.379-.226-.214.018.57v.32c0 .094 0 .189.007.284a21.568 21.568 0 01-.016 1.556c-.006.126-.011.25-.011.378v.372c0 .134.003.27 0 .403-.004.134-.005.263-.01.396a17.84 17.84 0 00-.016.192c-.005.065-.014.139-.02.209a8.88 8.88 0 00-.036.558c-.006.153-.008.31-.008.463 0 .083 0 .164.006.246l.005.122v.454h.043l.214.006h.153l.09-.003.185-.008c.142-.004.293-.007.438-.015.144-.009.285-.022.432-.032.133-.01.268-.017.403-.023l.444-.022h.373l.37.011c.266.007.53.01.795.01.266 0 .547-.03.821-.027.176 0 .35 0 .526-.005.245.01.454-.04.746-.035.128 0 .24-.008.24-.032s-.109-.031-.24-.03c-.376 0-.55-.013-.902-.016-.167 0-.357.014-.655.014-.179 0-.357-.021-.536-.02-.247 0-.285 0-.38-.006-.142-.013-.24-.033-.365-.036-.143 0-.285-.004-.428 0a8.475 8.475 0 01-.808-.004 5.17 5.17 0 00-.364-.013c-.134 0-.266-.008-.4-.008-.133 0-.266 0-.4.01-.117.011-.236.004-.353.014l-.067.006-.048.003h-.005a.683.683 0 00-.053-.01l.01-.097v-.066l.004-.091c0-.131 0-.263-.005-.394l-.009-.388v-.153l.005-.026c.02-.19.026-.38.017-.57a.163.163 0 00-.005-.04c0-.286 0-.565.007-.848 0-.164.009-.326.015-.49l.017-.48.039-.541c.017-.22.02-.443.026-.665 0-.11 0-.22-.005-.33l-.009-.165-.005-.082v-.05a.294.294 0 01-.018-.055.242.242 0 000-.04c.005.004.009.005.012 0a.038.038 0 01.028-.011.112.112 0 01.057.026l.018.015.033.031.065.063c.043.043.087.084.132.123.085.071.176.15.254.228l.129.134c.042.042.087.077.13.117l.188.168c.114.126.229.253.347.376.118.124.224.225.34.33l.262.236.184.172c.053.05.105.102.157.154.065.067.128.136.191.203l.405.434c.132.138.273.267.412.395.14.128.258.247.389.37.13.121.243.231.36.356.066.071.143.124.215.193.055.058.113.113.17.17.123.125.241.255.363.382.066.067.129.137.197.198.069.061.125.103.183.156.098.094.193.189.29.286.106.106.198.184.305.291.041.04.09.084.105.071.014-.012 0-.055-.057-.112zM25.093 39.412c-.128 0-.256-.018-.386-.02a6.242 6.242 0 00-.367 0c-.062 0-.194-.028-.256-.028h-.22c-.112-.008-.113-.029-.226-.037-.113-.008-.226-.024-.34-.035-.114-.01-.237-.01-.356-.013a9.295 9.295 0 01-.336-.018c-.112-.007-.241-.018-.363-.014-.143.004-.29.013-.435.023a2.27 2.27 0 01-.387-.009 11.4 11.4 0 01-.636-.123 6.574 6.574 0 00-.414-.072 2.49 2.49 0 00-.275-.027h-.063c-.127 0-.253.01-.379.016a6.279 6.279 0 00-.437.034c-.222.029-.442.063-.664.091l-.312.036c-.082.005-.164.008-.245.011a7.115 7.115 0 00-.349.026c-.18.016-.356.04-.54.056-.077 0-.155.004-.233.004-.079 0-.17.007-.255.015a6.61 6.61 0 01-.675.012 9.517 9.517 0 01-.725-.044 3.17 3.17 0 00-.34-.023c-.11 0-.223.005-.335.007-.112.002-.241.007-.362.004a5.88 5.88 0 01-.356-.018 3.77 3.77 0 01-.174-.033l-.186-.041a4.093 4.093 0 00-.917-.086c-.14 0-.293.019-.44.033-.055.002-.11 0-.164-.004l-.108-.013a.81.81 0 00-.162.005l-.167.015c-.13.008-.263.015-.393.032s-.26.043-.389.063c-.13.021-.24.032-.362.046-.133.014-.266.031-.4.045a2.952 2.952 0 01-.336 0c-.11-.008-.222-.017-.332-.023a13.32 13.32 0 00-.713-.02c-.237 0-.492.06-.738.054-.16 0-.316.005-.474.01-.22-.02-.409.079-.67.072-.115 0-.214.014-.214.063 0 .05.097.063.213.062.338 0 .495.026.812.031.15 0 .318-.029.589-.029.161 0 .32.044.483.042.221 0 .257-.007.34.01.108.031.218.055.33.07.127.008.255.008.383 0 .241-.022.485-.019.726.009.108.017.218.026.328.025.12 0 .238.017.356.017.12.006.241 0 .36-.02.106-.023.214-.008.317-.029a1.14 1.14 0 01.143-.018h.008c.08.02.162.033.244.04.054.006.109.012.163.016.119.005.238.002.356-.01.117-.007.233-.011.35-.016l.137-.006.023.009c.165.059.343.033.511.034a.065.065 0 00.036-.01c.255 0 .508 0 .763.013.147.006.293.019.44.03.147.013.285.02.431.035.163.025.325.05.488.078.198.029.398.046.598.053a3.05 3.05 0 00.591-.049c.08-.01.162-.022.24-.034.105.009.21.006.313-.01.113-.026.221-.086.335-.1.114-.012.218 0 .326-.023.1-.021.203-.034.306-.036.056 0 .112.008.167.008.056 0 .104-.017.158-.02.075-.007.15-.02.225-.027.154.017.307.034.46.041.144.006.287.002.429-.014.106-.01.213-.027.317-.036l.226-.018c.066-.004.132-.005.199-.004.083 0 .167.01.25.017.178.012.357.03.534.04.171.005.343-.003.513-.023.16-.016.321-.015.482-.028a3.74 3.74 0 01.454-.01c.086 0 .172-.03.257-.027h.214c.159 0 .316.02.474.026.084.007.168.007.252 0 .072-.01.143-.03.214-.036.122-.006.243-.008.365-.008.136 0 .244-.02.38-.02.052 0 .111-.01.112-.049.002-.056-.043-.068-.115-.068zm-10.534 1.902c-.093 0-.185-.018-.278-.021-.093-.003-.17.02-.258.02-.045 0-.148-.012-.193-.012h-.157c-.08-.009-.076.026-.157.018-.08-.008-.162-.024-.243-.035-.081-.01-.17-.01-.255-.013a4.956 4.956 0 01-.24-.017 2.46 2.46 0 00-.26-.015 5.782 5.782 0 00-.312.023 1.159 1.159 0 01-.276-.008 6.27 6.27 0 01-.456-.124 3.666 3.666 0 00-.296-.072 1.342 1.342 0 00-.197-.027h-.045c-.046 0-.091.004-.137.007-.118-.012-.242.071-.357.092-.015 0-.03 0-.046-.003-.016-.004-.052-.009-.078-.013a.418.418 0 00-.115.005l-.12.015c-.093.008-.188.015-.28.032-.094.017-.187.043-.28.064-.092.02-.172.032-.26.045-.086.014-.19.032-.284.045-.08.005-.161.004-.241-.004-.08-.007-.159-.016-.238-.022a6.862 6.862 0 00-.513-.02c-.17-.001-.352.06-.528.054-.113-.004-.226-.037-.339-.033-.157-.02-.293.02-.48.013-.082-.004-.154.014-.154.063 0 .05.071.063.154.062.242 0 .356.084.581.09.108 0 .227.013.422.013.115 0 .23.044.345.042.16 0 .185-.007.245.01.076.03.154.055.235.07.091.008.183.008.275 0 .172-.022.347-.019.52.009.076.017.155.026.234.025.086 0 .171.017.257.017a.892.892 0 00.258-.02c.075-.023.152-.009.227-.029a.563.563 0 01.101-.018h.007c.056.02.115.033.175.04.038.006.077.012.116.016.06.007.12.002.178-.015.023-.005.125-.019.148-.022.038-.007.076.011.117 0 .072-.016.147-.056.22-.075h.116c.06 0 .12.01.18.016.127.013.254.032.382.041.123.005.246-.003.367-.023.115-.016.23-.015.345-.028.108-.011.217-.014.325-.01.062 0 .123-.031.184-.027.062.005.104 0 .155 0 .113 0 .22-.037.334-.03.06.007.12.007.18 0 .05-.01.11-.072.16-.072.087-.005.174-.007.261-.008.088 0 .175-.02.272-.02.037 0 .08-.016.08-.054-.002-.052-.033-.057-.083-.057z" fill="#063844"/><path d="M38.367 36.773h-3.555c-.941 0-1.704.763-1.704 1.704v3.894c0 .94.763 1.703 1.704 1.703h3.556c.94 0 1.703-.763 1.703-1.703v-3.894c0-.94-.763-1.704-1.703-1.704z" fill="#BADFD8"/><path d="M34.258 40.257c-.097.095-.03.131.055.213.25.258.484.531.698.819l.33.438.082.11.156.181.339.389c.158-.138.325-.285.499-.444l.063-.06.034-.029.072-.059c.044-.04.089-.08.132-.122a4.32 4.32 0 00.48-.523c.536-.693 1.018-1.387 1.674-2.043.07-.071.142-.133.07-.205-.095-.096-.132-.03-.217.055-.405.406-.784.815-1.26 1.133-.45.293-.877.618-1.277.975a.96.96 0 00-.184.235l-.034.059c-.005.006 0 .007 0 .01v.014a.12.12 0 01-.005.05c-.008.03-.026.044-.039.042a.208.208 0 01-.018-.112.072.072 0 01.011-.03.654.654 0 00-.091-.102c-.368-.326-.917-.485-1.29-.81-.025-.038-.042-.083-.067-.12-.077-.064-.14-.136-.213-.064zM28.028 28c-.149 0-.297-.018-.447-.022a7.923 7.923 0 00-.428 0c-.071 0-.224-.027-.296-.028h-.254c-.13-.008-.132-.03-.262-.038s-.262-.023-.393-.034c-.132-.01-.276-.01-.413-.014-.137-.004-.258-.01-.388-.017-.13-.006-.28-.019-.42-.015-.168.005-.336.014-.504.024-.15.008-.3.005-.448-.009a18.267 18.267 0 01-.737-.124 10.49 10.49 0 00-.478-.072 3.727 3.727 0 00-.318-.026h-.071c-.147 0-.293.01-.438.016-.17.008-.34.015-.507.034-.257.028-.512.063-.769.091-.12.013-.24.025-.361.036l-.285.011a9.478 9.478 0 00-.403.026c-.21.016-.417.04-.626.055-.09 0-.18.005-.27.005-.09 0-.197.006-.296.014-.259.017-.52.02-.784.013-.28-.009-.559-.017-.838-.044a4.228 4.228 0 00-.393-.023c-.134 0-.26.004-.388.006-.13.002-.28.007-.42.005a7.862 7.862 0 01-.412-.018 6.054 6.054 0 01-.2-.033c-.068-.012-.143-.029-.215-.041a5.277 5.277 0 00-.58-.072 6.845 6.845 0 00-.484-.015c-.172 0-.34.02-.509.033a1.74 1.74 0 01-.19-.01c-.041 0-.083-.008-.124-.013a1.175 1.175 0 00-.188.006l-.192.015c-.152.008-.305.015-.456.032-.15.017-.3.043-.45.063a9.987 9.987 0 01-.419.045c-.155.015-.308.032-.463.046-.13.005-.258 0-.389-.004-.131-.005-.257-.017-.385-.023a18.768 18.768 0 00-.828-.02c-.276-.001-.57.06-.855.055-.184-.004-.365.005-.548.01-.254-.021-.473.078-.776.071-.134-.004-.25.014-.25.064 0 .049.113.062.25.061.391 0 .57.026.939.031.174 0 .368-.029.682-.029.186 0 .37.044.558.043.257 0 .298-.007.395.01.126.03.253.054.381.07.148.008.296.008.444 0 .28-.022.561-.02.84.008.126.018.253.026.38.025.142 0 .277.017.416.017.14.006.279-.001.417-.02.122-.022.246-.008.367-.028a1.61 1.61 0 01.164-.019h.01c.094.02.189.033.285.04.062.006.125.012.188.016.137.005.274.002.41-.01.135-.007.27-.011.404-.017l.16-.005.027.008c.191.059.397.034.592.035a.088.088 0 00.041-.01c.295 0 .588 0 .883.013.17.006.34.019.509.03.17.012.334.02.5.035.187.024.376.05.564.078.228.034.46.04.692.053.23.003.458-.013.685-.049.093-.01.186-.022.278-.035.12.01.241.007.361-.01.13-.026.257-.085.389-.099.132-.014.252 0 .376-.023a2.25 2.25 0 01.357-.036c.064 0 .129.007.193.008.064 0 .12-.017.183-.02.087-.007.174-.02.26-.027.178.016.357.034.533.041.165.006.33.001.493-.014.123-.01.244-.027.367-.037l.262-.017c.076 0 .152-.005.23 0 .096 0 .194.01.29.016.206.012.412.03.618.04a4.54 4.54 0 00.594-.024c.185-.015.372-.015.558-.027.174-.01.35-.016.525-.01.1.003.199-.031.298-.026.083.004.167 0 .25 0 .183 0 .366.02.548.025.098.007.195.007.293 0 .08-.01.167-.03.248-.037.143-.005.281-.007.423-.007.158 0 .285-.02.439-.02.06 0 .13-.01.13-.048.001-.051-.047-.06-.13-.06zm-6.392 1.891c-.173 0-.345-.018-.52-.021-.173-.004-.32.02-.485.021-.083 0-.278-.013-.362-.013h-.294c-.152-.008-.143.027-.294.019s-.305-.024-.457-.034c-.153-.011-.319-.01-.478-.015-.159-.004-.3-.01-.45-.016-.163-.007-.325-.02-.488-.016-.195.005-.39.014-.585.024a4.079 4.079 0 01-.52-.008c-.285-.035-.57-.08-.855-.125a12.55 12.55 0 00-.555-.071 4.842 4.842 0 00-.37-.027h-.085c-.086 0-.172 0-.257.007-.222-.012-.452.071-.674.093-.03 0-.058 0-.087-.005-.05 0-.097-.008-.143-.013a1.559 1.559 0 00-.214.006l-.223.015c-.177.008-.357.015-.529.031-.172.017-.348.044-.523.065-.16.018-.323.032-.486.044-.18.015-.357.032-.537.045-.151.006-.3.005-.452 0-.151-.004-.298-.016-.446-.022a25.783 25.783 0 00-.962-.02c-.32-.002-.66.06-.991.055-.214 0-.424-.038-.636-.033-.296-.022-.55.02-.901.012-.154 0-.29.015-.29.063 0 .049.131.064.29.062.454 0 .665.085 1.09.09.202 0 .428.013.791.013.214 0 .428.043.649.043.298 0 .345-.007.458.01a4.3 4.3 0 00.441.07c.17.007.345.008.515 0a6.36 6.36 0 01.976.008c.147.018.294.026.44.025.163 0 .322.017.484.017.161.006.323-.001.483-.02.143-.023.285-.008.428-.028.063-.01.126-.015.19-.019h.012a6.414 6.414 0 00.547.056c.111.007.223.002.333-.015.044-.005.234-.019.278-.023.07-.006.142.012.22 0 .143-.016.275-.055.413-.071.072 0 .143-.004.214 0 .113 0 .226.01.338.016.238.012.477.03.716.04.23.006.46-.002.69-.023.214-.016.432-.015.647-.027.203-.01.407-.017.61-.011.115 0 .23-.03.346-.027.097.005.194 0 .29 0 .214 0 .413-.036.626-.03.113.007.226.007.338 0 .095-.009.206-.07.3-.074.164-.005.326-.008.49-.008.184 0 .328-.02.51-.02.072 0 .15-.017.151-.054-.003-.055-.059-.061-.155-.061z" fill="#063844"/><path d="M38.367 25.352h-3.555c-.941 0-1.704.762-1.704 1.703v3.894c0 .94.763 1.703 1.704 1.703h3.556c.94 0 1.703-.762 1.703-1.703v-3.894c0-.94-.763-1.703-1.703-1.703z" fill="#BADFD8"/><path d="M34.258 28.838c-.097.096-.03.132.055.214.25.257.484.53.698.818l.33.438.082.11.156.182.339.388c.158-.138.325-.285.499-.445l.059-.053.034-.03.071-.06a5.244 5.244 0 00.614-.644c.535-.693 1.016-1.387 1.672-2.043.072-.068.143-.132.072-.205-.097-.096-.133-.03-.218.056-.406.405-.784.814-1.261 1.133-.45.292-.876.618-1.276.974a.97.97 0 00-.184.234l-.035.06c-.004.006 0 .007 0 .009v.015a.119.119 0 01-.004.05c-.008.03-.026.044-.04.041a.207.207 0 01-.018-.111.066.066 0 01.012-.03.622.622 0 00-.092-.102c-.367-.327-.916-.485-1.29-.81-.024-.037-.041-.083-.066-.12-.073-.07-.137-.142-.21-.07zM20.536 16.57c-.097 0-.194-.018-.291-.021a3.563 3.563 0 00-.278 0c-.047 0-.146-.028-.192-.028h-.166c-.085-.008-.087-.03-.171-.038-.085-.008-.171-.023-.257-.035-.086-.011-.18-.01-.268-.013-.088-.004-.17-.01-.254-.016a2.533 2.533 0 00-.274-.016 5.06 5.06 0 00-.328.024 1.33 1.33 0 01-.293-.01 7.162 7.162 0 01-.48-.123 4.304 4.304 0 00-.312-.072 1.475 1.475 0 00-.208-.027h-.048c-.095 0-.19.01-.285.016-.11.006-.22.017-.33.034-.168.028-.334.064-.5.09a4.955 4.955 0 01-.235.036 7.906 7.906 0 01-.185.013 3.618 3.618 0 00-.263.024c-.136.017-.272.04-.408.056-.06.004-.118.004-.177.004a1.59 1.59 0 00-.192.015 5.213 5.213 0 01-1.057-.031 1.92 1.92 0 00-.257-.024c-.084 0-.168.005-.253.008-.085.002-.182.007-.273.004a3.398 3.398 0 01-.269-.019 2.038 2.038 0 01-.13-.032c-.044-.012-.095-.029-.143-.042a2.455 2.455 0 00-1.027-.053.792.792 0 01-.124-.004c-.027 0-.055-.008-.082-.013a.47.47 0 00-.121.006c-.043.004-.085.01-.126.015-.1.008-.199.015-.297.031-.099.017-.196.043-.294.064-.098.022-.182.033-.274.046-.092.012-.2.03-.301.044-.085.007-.17.007-.254 0-.084-.007-.168-.016-.251-.022a6.96 6.96 0 00-.54-.02c-.181-.001-.372.06-.558.054-.12-.004-.238.005-.356.01-.167-.02-.31.079-.507.072-.087-.004-.163.014-.163.063 0 .05.072.064.163.062.255 0 .374.026.613.032.114 0 .24-.03.444-.03.122 0 .243.044.365.043.167 0 .194-.007.257.01.08.03.164.054.249.07.095.008.19.008.285 0 .183-.022.367-.019.55.01.08.017.163.025.247.024.09 0 .18.017.271.017.091.006.183 0 .272-.02.08-.022.16-.008.24-.029a.79.79 0 01.106-.018h.007a1.652 1.652 0 00.307.055c.09.005.179.002.268-.008.087-.009.176-.012.263-.018l.104-.005.018.008c.124.059.26.034.386.035.01 0 .02-.003.027-.01.192 0 .384 0 .576.013.11.005.221.019.332.03.11.012.218.02.326.034.123.025.246.05.368.079.15.028.3.046.452.053.15.002.3-.014.447-.05.06-.01.12-.021.18-.034a.772.772 0 00.237-.01c.085-.026.167-.085.253-.099.086-.014.165 0 .246-.023a.99.99 0 01.232-.037c.042 0 .084.008.125.009.04-.005.08-.012.12-.02.056-.007.113-.022.17-.027.116.016.231.034.347.041.108.006.215.001.321-.014.08-.01.16-.027.24-.037l.17-.017c.057-.007.1-.005.15-.005.064 0 .127.011.19.017.134.012.268.031.403.04.13.005.26-.003.387-.023.122-.016.243-.015.364-.027.114-.012.229-.015.343-.011.065 0 .13-.03.195-.026s.108 0 .163 0c.12 0 .238.019.356.025a.891.891 0 00.19 0c.054-.009.11-.03.163-.036.092-.005.184-.007.276-.008.093 0 .184-.02.286-.02.04 0 .084-.01.085-.048.004-.055-.028-.067-.083-.067zm-2.593 1.9c-.13 0-.26-.019-.393-.021-.131-.003-.242.019-.367.02-.063 0-.21-.012-.274-.012h-.223c-.114-.009-.107.026-.221.019-.115-.008-.23-.025-.346-.035-.114-.011-.241-.01-.361-.014-.12-.003-.227-.01-.34-.016-.114-.007-.246-.02-.37-.016-.147.004-.295.014-.442.024a2.398 2.398 0 01-.393-.009 12.436 12.436 0 01-.647-.124 7.52 7.52 0 00-.42-.071 2.622 2.622 0 00-.28-.027h-.062c-.065 0-.13 0-.195.005-.168-.011-.342.072-.51.094-.022 0-.043 0-.065-.005-.037-.003-.071-.008-.11-.012a.908.908 0 00-.165.005l-.169.015c-.133.008-.267.014-.4.032-.132.017-.263.042-.395.064-.132.021-.244.032-.368.045l-.405.045a2.916 2.916 0 01-.343-.004l-.337-.023c-.243-.013-.484-.02-.727-.02s-.5.06-.75.054c-.16-.003-.32-.037-.48-.032-.225-.021-.416.02-.682.012-.117-.003-.22.015-.22.064 0 .05.1.063.22.062.343-.004.499.083.825.09.152 0 .323.013.598.013.163 0 .326.043.49.042.226 0 .261-.007.346.01.11.03.222.055.335.07.13.008.26.008.389 0 .246-.021.493-.019.739.01.11.017.221.025.333.024.122 0 .242.017.365.017.122.006.245 0 .365-.02.107-.022.214-.008.323-.029.047-.008.094-.014.142-.017h.009c.082.018.164.032.248.039.054.006.11.013.165.015.085.007.17.003.253-.014.033-.005.177-.02.21-.023.054-.007.107.012.166 0 .105-.016.209-.056.313-.075h.164c.084 0 .17.011.254.017.181.013.362.031.543.04.174.006.348-.002.52-.023.163-.016.328-.015.49-.027.154-.012.308-.015.462-.01.087.003.174-.031.262-.027.071.004.146 0 .219 0 .16 0 .313-.037.473-.03.085.007.17.007.256 0 .071-.01.155-.071.227-.071.124-.005.246-.008.37-.008.14 0 .249-.02.386-.02.054 0 .114-.017.115-.054 0-.052-.042-.058-.115-.058z" fill="#063844"/><path d="M38.367 13.93h-3.555c-.941 0-1.704.762-1.704 1.703v3.894c0 .94.763 1.703 1.704 1.703h3.556c.94 0 1.703-.762 1.703-1.703v-3.894c0-.94-.763-1.703-1.703-1.703z" fill="#BADFD8"/><path d="M34.258 17.42c-.097.096-.03.133.055.214.25.258.483.531.698.819l.33.438.082.11.156.182.339.388c.158-.138.325-.285.499-.444l.063-.059.034-.03.072-.059a4.518 4.518 0 00.613-.645c.535-.693 1.017-1.387 1.673-2.043.07-.071.142-.132.07-.205-.095-.096-.132-.029-.217.055-.405.407-.784.816-1.26 1.133-.45.293-.877.618-1.277.975a.974.974 0 00-.184.235l-.034.059c-.005.006 0 .008 0 .009v.015a.12.12 0 01-.005.05c-.008.03-.026.045-.039.042a.206.206 0 01-.018-.112.066.066 0 01.011-.03.655.655 0 00-.091-.102c-.368-.326-.917-.485-1.29-.81-.025-.038-.042-.083-.067-.12-.077-.065-.14-.137-.213-.065z" fill="#063844"/><path d="M2.29 10.993c.173.098.326.235.505.335.18.1.362.124.545.19.046.018.121.051.198.087.066.03.133.057.202.08l.173.04c.057.01.115.025.17.042.177.049.178-.036.353 0 .175.035.352.088.532.122.093.014.187.023.28.026h.286c.09.004.179 0 .269 0 .09 0 .18.005.27 0l.292-.008c.098-.006.195-.02.29-.04a3.11 3.11 0 00.338-.097c.055-.018.112-.036.167-.056l.162-.066a3.31 3.31 0 01.597-.17c.175-.024.357-.038.533-.064.176-.027.36-.05.544-.082a3.67 3.67 0 00.688-.203 2.22 2.22 0 00.428-.214c.03-.02.06-.04.09-.062l.248-.214a.895.895 0 00.27-.342c.06-.138.128-.27.204-.4.025-.023.052-.047.08-.07.049-.039.1-.072.15-.11a.794.794 0 00.17-.21c.051-.078.104-.155.15-.237.06-.092.12-.183.177-.278a2.87 2.87 0 00.15-.292c.08-.204.146-.412.2-.624.029-.095.06-.189.086-.285.026-.096.059-.188.084-.282.028-.104.054-.209.08-.312l.064-.314c.027-.084.05-.169.08-.25.031-.083.066-.164.097-.247l.1-.244c.033-.082.06-.166.088-.25l.043-.135.036-.138c.021-.093.046-.185.063-.278.033-.187.057-.375.071-.565a2.3 2.3 0 00-.05-.587 4.566 4.566 0 01-.09-.58c-.017-.247.02-.513-.058-.756a1.499 1.499 0 00-.163-.485 4.97 4.97 0 01-.236-.499c-.064-.167-.17-.29-.281-.24-.112.05-.082.202-.006.366.089.194.137.404.143.617 0 .195.015.39.046.583.04.275.062.553.063.831 0 .059-.005.117-.015.175a2.929 2.929 0 01-.041.175c-.015.057-.03.114-.04.172a1.107 1.107 0 00-.028.173l-.011.194c-.003.052-.01.09-.015.124a.5.5 0 01-.05.166 1.543 1.543 0 01-.147.22.796.796 0 00-.113.205 2.57 2.57 0 00-.07.257 2.164 2.164 0 00-.059.26c-.06.333-.16.67-.381.937-.049.06-.101.118-.143.18a2.325 2.325 0 00-.127.2c-.04.073-.088.142-.142.206a1.822 1.822 0 00-.153.194c-.043.072-.097.134-.143.204a.948.948 0 00-.108.228.696.696 0 01-.107.195.787.787 0 00-.119.188.726.726 0 01-.1.177h-.014a1.88 1.88 0 00-.309.173c-.065.039-.128.082-.191.124a.739.739 0 00-.237.25 5.7 5.7 0 01-.192.22c-.05.057-.138.062-.19.127a1.88 1.88 0 00-.13.195 1.2 1.2 0 01-.134.197 2.365 2.365 0 01-.196.121c-.11.05-.222.092-.337.129-.12.041-.244.071-.366.108-.12.037-.245.062-.367.091-.23.071-.455.16-.671.267a1.998 1.998 0 01-.326.108l-.334.086c-.21.057-.425.085-.642.085-.122-.007-.244.085-.37.071a1.494 1.494 0 00-.159-.006c-.052 0-.104 0-.155-.004-.226-.014-.448.06-.665 0a1.746 1.746 0 00-.34-.083c-.097-.004-.257.098-.36.071a3.163 3.163 0 01-.5-.207c-.184-.092-.351-.13-.532-.232-.072-.04-.17-.05-.219.031-.07.115-.02.16.076.215z" fill="#F7F4F2"/></svg>