<svg width="24" height="24" viewBox="0 0 24 24" fill="none" xmlns="http://www.w3.org/2000/svg">
<rect x="0.5" y="0.5" width="23" height="23" rx="4.22727" fill="#EAF6F6"/>
<rect x="0.5" y="0.5" width="23" height="23" rx="4.22727" stroke="#C1E5E6"/>
<g clip-path="url(#clip0_261_3755)">
<path d="M11.847 8.9194C11.887 8.83273 11.987 8.7994 12.067 8.8394C12.0937 8.85273 12.1203 8.8794 12.1403 8.91273L12.4737 9.5994C12.6403 9.9394 12.967 10.1794 13.347 10.2327L14.1003 10.3394C14.187 10.3461 14.2537 10.4327 14.2403 10.5261C14.2337 10.5594 14.2137 10.5927 14.187 10.6194L13.6337 11.1527C13.3537 11.4194 13.227 11.8061 13.2937 12.1794L13.4203 12.9327C13.4337 13.0194 13.3737 13.1061 13.2803 13.1194C13.2403 13.1194 13.207 13.1194 13.1737 13.0994L12.4937 12.7394C12.1537 12.5594 11.747 12.5594 11.407 12.7394L10.727 13.0927C10.6403 13.1327 10.5403 13.0994 10.5003 13.0194C10.4803 12.9861 10.4737 12.9461 10.4803 12.9127L10.607 12.1527C10.667 11.7727 10.5403 11.3861 10.267 11.1194L9.71365 10.5794C9.64699 10.5127 9.64032 10.4061 9.70699 10.3394C9.72699 10.3127 9.76032 10.2927 9.80032 10.2861L10.5537 10.1727C10.9337 10.1127 11.2603 9.87273 11.427 9.53273L11.7603 8.8394L11.847 8.9194ZM10.947 8.47273L10.607 9.1594C10.5803 9.20606 10.5337 9.2394 10.4803 9.24606L9.72032 9.35273C9.46032 9.38606 9.22699 9.50606 9.04699 9.68606C8.59365 10.1461 8.60032 10.8794 9.06699 11.3327L9.61365 11.8661C9.64699 11.8994 9.66699 11.9594 9.66032 12.0127L9.52699 12.7661C9.48032 13.0127 9.52032 13.2727 9.64032 13.4994C9.93365 14.0661 10.6403 14.2861 11.2137 13.9861L11.887 13.6261C11.9337 13.5994 11.987 13.5994 12.0403 13.6194L12.7137 13.9727C12.9403 14.0861 13.2003 14.1327 13.447 14.0861C14.0803 13.9727 14.507 13.3727 14.3937 12.7327L14.2603 11.9727C14.247 11.9127 14.267 11.8594 14.307 11.8194L14.8537 11.2794C15.0337 11.0994 15.1537 10.8594 15.187 10.6061C15.2737 9.96606 14.8337 9.37273 14.2003 9.2794L13.4403 9.16606C13.3803 9.15273 13.3337 9.1194 13.3137 9.07273L12.9737 8.3794C12.8537 8.14606 12.6737 7.9594 12.4403 7.84606C11.8603 7.5594 11.1603 7.79273 10.8737 8.37273L10.947 8.47273Z" fill="#128081"/>
<path d="M16 5.49966H8C6.61333 5.49966 5.5 6.61299 5.5 7.99966V13.9997C5.5 15.3797 6.61333 16.4997 8 16.4997H9.33333L8.83333 15.9997V17.6263C8.83333 18.1063 9.22 18.493 9.7 18.493C9.89333 18.4863 10.0867 18.4197 10.24 18.2997L12.6333 16.3797L12.32 16.4863H15.982C17.362 16.4863 18.482 15.3663 18.482 13.9863V7.98633C18.482 6.59966 17.362 5.48633 15.982 5.48633L16 5.49966ZM16 6.49966C16.8267 6.49966 17.5 7.16633 17.5 7.99966V13.9997C17.5 14.8263 16.8267 15.4997 16 15.4997H12.338C12.218 15.4997 12.1113 15.533 12.0247 15.6063L9.62467 17.5197C9.64467 17.4997 9.67133 17.4863 9.70467 17.4863C9.77133 17.4797 9.83133 17.5397 9.83133 17.613V15.9797C9.83133 15.6997 9.60467 15.4797 9.33133 15.4797H7.98667C7.15333 15.4797 6.48667 14.8063 6.48667 13.9797V7.97966C6.48667 7.14633 7.15333 6.47966 7.98667 6.47966H15.9867L16 6.49966Z" fill="#128081"/>
</g>
<defs>
<clipPath id="clip0_261_3755">
<rect width="16" height="16" fill="white" transform="translate(4 4)"/>
</clipPath>
</defs>
</svg>
