<svg width="32" height="32" viewBox="0 0 32 32" fill="none" xmlns="http://www.w3.org/2000/svg">
<g id="Logo">
<g id="Vector">
<path d="M15.9999 13.665C16.5466 13.665 16.9999 14.105 16.9999 14.665C16.9999 15.1583 16.6133 15.585 16.1333 15.6517H7.98659C7.42659 15.6517 6.98659 15.1983 6.98659 14.6517C6.98659 14.145 7.35993 13.7183 7.83993 13.6517L7.97326 13.6383H15.9733L15.9999 13.665Z" fill="#00696B"/>
<path d="M11.9999 9.66499C12.5466 9.66499 12.9999 10.105 12.9999 10.665C12.9999 11.1583 12.6133 11.585 12.1333 11.6517H7.98659C7.42659 11.6517 6.98659 11.1983 6.98659 10.6517C6.98659 10.145 7.35993 9.71832 7.83993 9.65166L7.97326 9.63832H11.9733L11.9999 9.66499Z" fill="#00696B"/>
<path d="M9.94659 17.6383L9.70659 17.6517C8.13326 17.8117 6.95993 19.105 6.95993 20.6517V20.8783C7.09326 22.3717 8.26659 23.505 9.71993 23.625H9.98659C10.1066 23.6117 10.2266 23.585 10.3333 23.545L10.3466 23.5317L10.5333 23.4917C11.7599 23.1983 12.7199 22.1583 12.8533 20.865L12.8666 20.625L12.8533 20.3183C12.6799 18.745 11.3999 17.5717 9.85326 17.5717L9.94659 17.6383ZM9.86659 19.6383L9.95993 19.625L9.91993 19.6117C10.4133 19.6117 10.8533 19.9983 10.9066 20.505V20.6383L10.8666 20.825C10.7599 21.185 10.4399 21.4783 10.0399 21.545L9.74659 21.5583L9.70659 21.545C9.25326 21.425 8.95993 21.0783 8.91993 20.665L8.90659 20.5183L8.89326 20.465L8.87993 20.5583C8.87993 20.0383 9.26659 19.5983 9.77326 19.545L9.86659 19.6383Z" fill="#00696B"/>
<path d="M16.6399 21.9717C15.7066 21.9717 14.9466 22.745 14.9866 23.6783L14.9733 27.305L14.9866 27.505C15.1333 28.3717 15.7999 28.945 16.5999 28.9717H19.9733C20.5199 28.9717 20.9733 28.5183 20.9733 27.9717V22.9717L20.9599 22.825C20.8933 22.3317 20.4666 21.9583 19.9599 21.9583L16.8133 21.945L16.7466 21.9183C16.6933 21.905 16.6399 21.905 16.5866 21.905L16.6399 21.9717ZM18.9866 23.985V26.985H16.9599V23.985H18.9866Z" fill="#00696B"/>
<path d="M20.6399 16.305C19.7066 16.305 18.9466 17.0783 18.9866 18.0117L18.9733 27.9717C18.9733 28.5183 19.4133 28.9717 19.9733 28.9717L23.9733 28.9717C24.5199 28.9717 24.9733 28.5183 24.9733 27.9717V17.9717L24.9599 17.7983C24.8666 16.945 24.1333 16.2783 23.2533 16.305L20.8266 16.2917L20.7599 16.265C20.7066 16.2517 20.6533 16.2517 20.5999 16.2517L20.6399 16.305ZM22.9733 18.3183V26.9717H20.9733V18.3183H22.9733Z" fill="#00696B"/>
<path d="M24.6399 19.305C23.7066 19.305 22.9466 20.0783 22.9866 21.0117L22.9733 27.9717C22.9733 28.5183 23.4133 28.9717 23.9733 28.9717H27.3066C28.2133 28.9717 28.9733 28.2117 28.9733 27.305V20.9717L28.9599 20.7983C28.8666 19.945 28.1333 19.2783 27.2533 19.305L24.8266 19.2917L24.7599 19.265C24.7066 19.2517 24.6533 19.2517 24.5999 19.2517L24.6399 19.305ZM26.9733 21.3183V26.9717H24.9733V21.3183H26.9733Z" fill="#00696B"/>
<path d="M17.5333 4.97166H6.63993C5.77326 4.97166 5.06659 5.62499 4.98659 6.47832L4.97326 6.63832V25.305C4.97326 26.1717 5.61326 26.8783 6.54659 26.9717H11.9733C12.4666 26.9717 12.8933 27.345 12.9599 27.825V27.9583C12.9599 28.4517 12.5733 28.8783 12.0933 28.945H11.9466L6.50659 28.9317H6.57326C4.61326 28.905 3.02659 27.3983 2.91993 25.465L2.90659 25.2383V6.57166C2.87993 4.61166 4.41326 2.99832 6.33326 2.87832L6.54659 2.86499H17.6533C18.4266 2.90499 19.1733 3.21166 19.7866 3.73166L19.9866 3.90499L23.7466 7.66499C24.3599 8.27832 24.7333 9.10499 24.7999 9.98499V13.1317C24.7999 13.6783 24.3466 14.1317 23.7999 14.1317C23.2933 14.1317 22.8666 13.745 22.7999 13.265L22.7866 13.1183V10.225C22.7866 9.83832 22.6533 9.47832 22.4266 9.18499L22.2933 9.03832L18.5333 5.27832C18.2399 4.99832 17.8933 4.82499 17.5466 4.78499L17.3599 4.77166L17.5333 4.97166Z" fill="#00696B"/>
</g>
</g>
</svg>
