<svg width="32" height="32" viewBox="0 0 32 32" fill="none" xmlns="http://www.w3.org/2000/svg">
<g id="Logo">
<g id="Union">
<path d="M13.2266 3.54642L6.41326 6.31975C5.01326 6.87975 4.09326 8.23975 4.09326 9.75975V14.6131C4.09326 21.2798 9.07993 27.4531 15.7599 28.9464C15.8933 28.9731 16.0533 28.9731 16.1866 28.9464C22.8533 27.4398 27.8533 21.2798 27.8533 14.5998L27.8399 9.73309C27.8399 8.21309 26.9199 6.85308 25.5199 6.27975L18.7066 3.49308C16.9199 2.75975 14.9333 2.75975 13.1599 3.47975L13.2266 3.54642ZM17.9999 5.38642L24.7999 8.15975C25.4399 8.41308 25.8666 9.05308 25.8666 9.74642V14.5998L25.8533 14.9464C25.6799 20.4264 21.5733 25.4798 16.1066 26.8798L15.9599 26.9064L16.1733 26.9598C10.3999 25.6531 6.05326 20.3064 6.05326 14.5598V9.69308C6.05326 8.98642 6.4666 8.35975 7.11993 8.09308L13.9199 5.30642C15.1999 4.77308 16.6533 4.77308 17.9333 5.29308L17.9999 5.38642Z" fill="#128081"/>
<path d="M12.0001 12.8926C12.4935 12.8926 12.9201 13.2659 12.9868 13.7459V19.9859C12.9868 20.5326 12.5335 20.9859 11.9868 20.9859C11.4801 20.9859 11.0535 20.5992 10.9868 20.1192L10.9735 19.9726V13.8659C10.9735 13.3059 11.4135 12.8659 11.9735 12.8659L12.0001 12.8926Z" fill="#128081"/>
<path d="M16.0001 12.8926C16.4935 12.8926 16.9201 13.2659 16.9868 13.7459V19.9859C16.9868 20.5326 16.5335 20.9859 15.9868 20.9859C15.4801 20.9859 15.0535 20.5992 14.9868 20.1192L14.9735 19.9726V13.8659C14.9735 13.3059 15.4135 12.8659 15.9735 12.8659L16.0001 12.8926Z" fill="#128081"/>
<path d="M20.0001 12.8926C20.4935 12.8926 20.9201 13.2659 20.9868 13.7459V19.9859C20.9868 20.5326 20.5335 20.9859 19.9868 20.9859C19.4801 20.9859 19.0535 20.5992 18.9868 20.1192L18.9735 19.9726V13.8659C18.9735 13.3059 19.4135 12.8659 19.9735 12.8659L20.0001 12.8926Z" fill="#128081"/>
<path d="M21.3335 18.9993C21.8801 18.9993 22.3201 19.4393 22.3201 19.9993C22.3201 20.4927 21.9335 20.9193 21.4535 20.986H10.6401C10.0801 20.986 9.64014 20.5327 9.64014 19.986C9.64014 19.4793 10.0135 19.0527 10.4935 18.986L10.6268 18.9727H21.2935L21.3335 18.9993Z" fill="#128081"/>
<path d="M15.6133 8.39975L10.2799 10.5731C9.89326 10.7198 9.65326 11.0798 9.65326 11.4931V13.8664C9.65326 14.4131 10.0933 14.8664 10.6533 14.8664H21.3199C21.8666 14.8664 22.3066 14.4131 22.3066 13.8664V11.4798C22.3066 11.0664 22.0533 10.7064 21.6799 10.5464L16.3466 8.35975C16.0933 8.25308 15.8266 8.25308 15.5866 8.35975L15.6133 8.39975ZM15.9866 10.3998L20.3199 12.1731V12.8664H11.6533V12.1598L15.9866 10.3864V10.3998Z" fill="#128081"/>
</g>
</g>
</svg>
