<svg width="32" height="32" viewBox="0 0 32 32" fill="none" xmlns="http://www.w3.org/2000/svg">
<g id="Logo">
<g id="Vector">
<path d="M22.6666 8.33323C23.2133 8.33323 23.6666 8.77323 23.6666 9.33323C23.6666 9.82656 23.2799 10.2532 22.7999 10.3199H21.3199C20.7599 10.3199 20.3199 9.86656 20.3199 9.3199C20.3199 8.81323 20.6933 8.38656 21.1733 8.3199L21.3066 8.30656H22.6399L22.6666 8.33323Z" fill="#00696B"/>
<path d="M9.33328 17.6666C9.87995 17.6666 10.3333 18.1066 10.3333 18.6666C10.3333 19.1599 9.94662 19.5866 9.46662 19.6532H7.98662C7.42662 19.6532 6.98662 19.1999 6.98662 18.6532C6.98662 18.1466 7.35995 17.7199 7.83995 17.6532L7.97328 17.6399H9.30662L9.33328 17.6666Z" fill="#00696B"/>
<path d="M23.3333 4.33323C25.6399 4.33323 27.5199 6.13323 27.6533 8.41323V13.3199C27.6533 13.8666 27.1999 14.3199 26.6533 14.3199C26.1466 14.3199 25.7199 13.9332 25.6533 13.4532L25.6399 13.3066V8.6399C25.6399 7.41323 24.6933 6.3999 23.4933 6.30656L23.2933 6.29323H7.29328C6.66662 6.29323 6.07995 6.53323 5.63995 6.97323C5.25328 7.34656 5.01328 7.85323 4.95995 8.38656L4.94662 8.61323V19.2799C4.94662 20.4932 5.87995 21.5066 7.07995 21.5999H13.2666C13.8133 21.5999 14.2666 22.0399 14.2666 22.5999C14.2666 23.0932 13.8799 23.5199 13.3999 23.5866H7.25328C4.93328 23.5866 3.05328 21.7732 2.91995 19.4932L2.90662 19.2399V8.57323C2.90662 7.41323 3.35995 6.3199 4.17328 5.50656C4.90662 4.7599 5.89328 4.30656 6.94662 4.2399L7.22662 4.22656H23.2266L23.3333 4.33323Z" fill="#00696B"/>
<path d="M23.3333 4.33323C25.6399 4.33323 27.5199 6.13323 27.6533 8.41323V13.3199C27.6533 13.8666 27.1999 14.3199 26.6533 14.3199C26.1466 14.3199 25.7199 13.9332 25.6533 13.4532L25.6399 13.3066V8.6399C25.6399 7.41323 24.6933 6.3999 23.4933 6.30656L23.2933 6.29323H7.29328C6.66662 6.29323 6.07995 6.53323 5.63995 6.97323C5.25328 7.34656 5.01328 7.85323 4.95995 8.38656L4.94662 8.61323V19.2799C4.94662 20.4932 5.87995 21.5066 7.07995 21.5999H13.2666C13.8133 21.5999 14.2666 22.0399 14.2666 22.5999C14.2666 23.0932 13.8799 23.5199 13.3999 23.5866H7.25328C4.93328 23.5866 3.05328 21.7732 2.91995 19.4932L2.90662 19.2399V8.57323C2.90662 7.41323 3.35995 6.3199 4.17328 5.50656C4.90662 4.7599 5.89328 4.30656 6.94662 4.2399L7.22662 4.22656H23.2266L23.3333 4.33323Z" fill="#00696B"/>
<path d="M12.2666 10.9332C13.9466 9.2399 16.6933 9.23989 18.3866 10.9199C18.7733 11.3066 18.7733 11.9332 18.3866 12.3332C18.0266 12.6799 17.4666 12.7199 17.0799 12.4266L16.9599 12.3199C16.0399 11.3999 14.5599 11.3999 13.6533 12.3199C12.7866 13.1732 12.7333 14.5332 13.4933 15.4532L13.6399 15.6132C14.0266 15.9999 14.0266 16.6266 13.6399 17.0266C13.2399 17.4132 12.6133 17.4132 12.2133 17.0132C10.5199 15.3199 10.5199 12.5732 12.2133 10.8799L12.2666 10.9332Z" fill="#00696B"/>
<path d="M23.0266 28.9866C20.3066 28.8666 17.8933 27.1866 16.8533 24.6666C15.7599 22.0399 16.3599 19.0399 18.3599 17.0266C20.3599 15.0132 23.3599 14.4132 25.9866 15.5066C28.5999 16.5866 30.3066 19.1332 30.3066 21.9732C30.3066 25.7332 27.3199 28.8132 23.5866 28.9599H23.2933L22.9866 28.9466L23.0266 28.9866ZM25.2399 17.3732C23.3599 16.5866 21.2133 17.0266 19.7866 18.4532C18.3466 19.8799 17.9199 22.0266 18.6933 23.8932C19.4266 25.6666 21.1199 26.8666 23.0266 26.9599H23.2933L23.5466 26.9466C26.0933 26.7999 28.1333 24.7599 28.2666 22.2132V21.9466C28.2666 19.9199 27.0399 18.0932 25.1733 17.3199L25.2399 17.3732Z" fill="#00696B"/>
<path d="M23.3333 14.9999C23.8266 14.9999 24.2533 15.3732 24.3199 15.8532V21.5626L28.2666 25.5092C28.6133 25.8559 28.6533 26.4159 28.3599 26.8026L28.2533 26.9092C27.8933 27.2559 27.3333 27.2959 26.9466 27.0026L26.8266 26.8959L22.5733 22.6426C22.4133 22.4826 22.3199 22.2959 22.2799 22.0826L22.2666 21.9226V15.9199C22.2666 15.3599 22.7066 14.9066 23.2666 14.9066L23.3333 14.9999Z" fill="#00696B"/>
</g>
</g>
</svg>
