<svg preserveAspectRatio="none" width="100%" height="100%" overflow="visible" style="display: block;" viewBox="0 0 24 24" fill="none" xmlns="http://www.w3.org/2000/svg">
<g id="logo/amazon-connection" clip-path="url(#clip0_0_4)">
<path id="Vector" d="M21.0734 20.4363C18.6298 22.2399 14.9644 23.3454 11.9971 23.3454C7.74981 23.3454 3.96799 21.6581 1.0589 19.0399C0.82617 18.8072 1.0589 18.5744 1.29162 18.6908C4.43344 20.4944 7.98253 21.5417 11.9389 21.5417C14.6153 21.5417 17.9898 20.9599 20.7244 19.7963C21.1316 19.6799 21.4807 20.1454 21.0734 20.4363ZM21.9462 19.2144C21.6553 18.8072 19.9098 19.0399 19.1534 19.0981C18.9207 19.0981 18.8625 18.9235 19.0953 18.749C20.4334 17.7599 22.7025 18.0508 22.9353 18.3999C23.168 18.749 22.8771 21.0181 21.5971 22.0654C21.4225 22.2399 21.1898 22.1235 21.3062 21.949C21.5971 21.2508 22.2371 19.6217 21.9462 19.2144Z" fill="var(--fill-0, #FFB300)"/>
<path id="Vector_2" d="M19.5025 15.0837C18.9207 14.3273 18.3388 13.6873 18.3388 12.2328V7.40368C18.3388 5.36732 18.3388 3.56368 16.8843 2.16732C15.7207 1.06187 13.8007 0.654593 12.2879 0.654593C9.08793 0.654593 6.2952 1.93459 5.59702 5.54187C5.53884 5.94914 5.82975 6.12368 6.06247 6.18187L9.02975 6.53096C9.32065 6.53096 9.4952 6.24005 9.55338 5.94914C9.78611 4.72732 10.7752 4.1455 11.9388 4.1455C12.5788 4.1455 13.8007 4.49459 13.8007 5.89096V7.63641C11.9388 7.63641 9.96066 7.63641 8.33156 8.33459C6.41156 9.14914 5.07338 10.8364 5.07338 13.3382C5.07338 16.5382 7.05156 18.1091 9.61156 18.1091C11.7643 18.1091 13.0443 17.5855 14.7316 15.8982C15.2552 16.7128 15.4879 17.1782 16.477 18.051C16.7097 18.1673 17.0007 18.1673 17.1752 17.9928C17.757 17.4691 18.8625 16.48 19.5025 15.9564C19.7934 15.7237 19.7352 15.3746 19.5025 15.0837ZM13.7425 10.6037C13.7425 11.7673 13.6843 14.6182 10.8334 14.6182C9.08793 14.6182 9.08793 12.8728 9.08793 12.8728C9.08793 10.2546 11.5316 9.96368 13.7425 9.96368V10.6037Z" fill="var(--fill-0, #37474F)"/>
</g>
<defs>
<clipPath id="clip0_0_4">
<rect width="24" height="24" fill="white"/>
</clipPath>
</defs>
</svg>
