<svg width="32" height="32" viewBox="0 0 32 32" fill="none" xmlns="http://www.w3.org/2000/svg"><rect x="1" y="1" width="14" height="14" rx="4" fill="#fff"/><rect x="1" y="1" width="14" height="14" rx="4" stroke="#F0F3F4"/><g clip-path="url(#clip0_27336_2485)"><path fill-rule="evenodd" clip-rule="evenodd" d="M3.886 3.886h8.228v8.228H3.886V3.886zm2.009 1.99l.001 4.199h.965v-4.2h-.966zm2.431.067A2.419 2.419 0 017.4 7.786c-.138.106-.281.21-.42.317.481.657.966 1.311 1.445 1.972h1.19c-.442-.606-.888-1.21-1.331-1.816a3.37 3.37 0 00.614-.838 3.38 3.38 0 00.373-1.546c-.314.002-.626 0-.937.002-.013.018-.002.045-.007.066zm1.845 3.137a.526.526 0 10.208 1.034.526.526 0 00-.208-1.034z" fill="#FEB3C7"/><path d="M5.895 5.875h.966v4.2h-.965l-.001-4.2zm2.431.068c.005-.021-.006-.048.007-.066.311-.002.625 0 .937-.002a3.38 3.38 0 01-.373 1.546c-.16.309-.368.592-.614.838.443.606.889 1.21 1.33 1.816H8.425c-.479-.66-.964-1.315-1.445-1.972.139-.108.282-.21.42-.317a2.422 2.422 0 00.927-1.843zm1.845 3.137a.533.533 0 01.574.275.536.536 0 01-.002.487.53.53 0 01-.975-.106.526.526 0 01.403-.656z" fill="#000"/></g><rect x="17" y="1" width="14" height="14" rx="4" fill="#fff"/><rect x="17" y="1" width="14" height="14" rx="4" stroke="#F0F3F4"/><g clip-path="url(#clip1_27336_2485)"><path fill-rule="evenodd" clip-rule="evenodd" d="M27.77 5.734v6.035h-6.033a1.518 1.518 0 01-1.513-1.514V8.568c0-.833.68-1.514 1.513-1.514h1.633v2.4c0 .238.194.433.432.433h.822V6.545a.434.434 0 00-.432-.432h-3.86V4.23h5.925c.832 0 1.513.681 1.513 1.503z" fill="#0ABF53"/></g><rect x="1" y="17" width="14" height="14" rx="4" fill="#fff"/><rect x="1" y="17" width="14" height="14" rx="4" stroke="#F0F3F4"/><g clip-path="url(#clip2_27336_2485)" fill="#F26322"><path d="M7.964 19.543L4.1 21.773v4.455l1.103.638-.008-4.456 2.761-1.594 2.76 1.594v4.454l1.104-.636v-4.459l-3.856-2.226z"/><path d="M8.51 26.864l-.55.32-.554-.317V22.41l-1.102.636.002 4.456 1.653.955 1.655-.955v-4.456L8.51 22.41v4.454z"/></g><rect x="17" y="17" width="14" height="14" rx="4" fill="#fff"/><rect x="17" y="17" width="14" height="14" rx="4" stroke="#F0F3F4"/><path d="M24.869 24.704c.95-.248 1.89-1.066 1.89-2.401 0-1.636-1.09-2.417-2.818-2.417h-.002c-1.525 0-2.406.74-2.611 2.022h-.757l1.512 1.322 1.598-1.322h-.859s.007-.918 1.137-.918c.965 0 1.294.723 1.294 1.324 0 .876-.45 1.539-1.53 1.539h-2.397l-.001 4.261h1.512v-3.207h.005c.332 0 .656.127 1.214.977l1.347 2.23h1.683l-1.39-2.287c-.365-.585-.637-.97-.827-1.123z" fill="#712F80"/><defs><clipPath id="clip0_27336_2485"><path fill="#fff" transform="translate(3.886 3.886)" d="M0 0h8.229v8.229H0z"/></clipPath><clipPath id="clip1_27336_2485"><path fill="#fff" transform="translate(20.224 4.228)" d="M0 0h7.548v7.543H0z"/></clipPath><clipPath id="clip2_27336_2485"><path fill="#fff" transform="translate(3.543 19.543)" d="M0 0h8.914v8.914H0z"/></clipPath></defs></svg>