<svg xmlns="http://www.w3.org/2000/svg" width="88" height="40" fill="none" viewBox="0 0 88 40"><path fill="#fff9fb" d="M56 .25h24A7.75 7.75 0 0 1 87.75 8v24A7.75 7.75 0 0 1 80 39.75H56A7.75 7.75 0 0 1 48.25 32V8A7.75 7.75 0 0 1 56 .25"/><path stroke="#ffccd4" stroke-width=".5" d="M56 .25h24A7.75 7.75 0 0 1 87.75 8v24A7.75 7.75 0 0 1 80 39.75H56A7.75 7.75 0 0 1 48.25 32V8A7.75 7.75 0 0 1 56 .25Z"/><path fill="#fa566f" fill-rule="evenodd" d="M57 13.75A2.75 2.75 0 0 1 59.75 11h16a2.75 2.75 0 0 1 2.75 2.75V16H57zm0 3.75h21.5v8.25a2.75 2.75 0 0 1-2.75 2.75h-16A2.75 2.75 0 0 1 57 25.75zm8.75 5.5a.75.75 0 0 0 0 1.5h1.5a.75.75 0 0 0 0-1.5zm4.5 0a.75.75 0 0 0 0 1.5h3.5a.75.75 0 0 0 0-1.5z" clip-rule="evenodd"/><path fill="#f5f8f9" d="M8 .25h24A7.75 7.75 0 0 1 39.75 8v24A7.75 7.75 0 0 1 32 39.75H8A7.75 7.75 0 0 1 .25 32V8A7.75 7.75 0 0 1 8 .25"/><path stroke="#ffccd4" stroke-width=".5" d="M8 .25h24A7.75 7.75 0 0 1 39.75 8v24A7.75 7.75 0 0 1 32 39.75H8A7.75 7.75 0 0 1 .25 32V8A7.75 7.75 0 0 1 8 .25Z"/><g clip-path="url(#clip0_44_2600)"><path fill="#ffb300" d="M29.074 28.436c-2.444 1.804-6.11 2.91-9.077 2.91-4.247 0-8.029-1.688-10.938-4.306-.232-.233 0-.466.233-.35 3.142 1.804 6.69 2.852 10.647 2.852 2.677 0 6.051-.582 8.786-1.746.407-.116.756.35.349.64m.873-1.222c-.291-.407-2.037-.174-2.793-.116-.233 0-.291-.174-.058-.349 1.338-.99 3.607-.698 3.84-.35.232.35-.058 2.62-1.338 3.666-.175.175-.408.058-.291-.116.29-.698.93-2.327.64-2.735"/><path fill="#37474f" d="M27.502 23.084c-.581-.757-1.163-1.397-1.163-2.851v-4.83c0-2.036 0-3.84-1.455-5.236-1.163-1.105-3.084-1.512-4.596-1.512-3.2 0-5.993 1.28-6.691 4.887-.058.407.233.582.465.64l2.968.349c.29 0 .465-.29.523-.582.233-1.222 1.222-1.803 2.386-1.803.64 0 1.861.349 1.861 1.745v1.745c-1.861 0-3.84 0-5.469.699-1.92.814-3.258 2.501-3.258 5.003 0 3.2 1.978 4.771 4.538 4.771 2.153 0 3.433-.524 5.12-2.21.524.814.757 1.28 1.746 2.152.233.116.523.116.698-.058.582-.524 1.687-1.513 2.327-2.037.291-.232.233-.581 0-.872m-5.76-4.48c0 1.163-.058 4.014-2.909 4.014-1.745 0-1.745-1.745-1.745-1.745 0-2.618 2.443-2.91 4.654-2.91z"/></g><path fill="#ffccd4" d="M48.354 20.354a.5.5 0 0 0 0-.708l-3.182-3.181a.5.5 0 1 0-.707.707L47.293 20l-2.828 2.828a.5.5 0 1 0 .707.707zM40 20v.5h8v-1h-8z"/><defs><clipPath id="clip0_44_2600"><path fill="#fff" d="M8 8h24v24H8z"/></clipPath></defs></svg>