<svg id="Layer_2" data-name="Layer 2" xmlns="http://www.w3.org/2000/svg" xmlns:xlink="http://www.w3.org/1999/xlink" viewBox="0 0 1039.48 1041.3"><defs><style>.cls-1{fill:none;}.cls-2,.cls-5{fill:#063844;}.cls-3{fill:#badfd8;}.cls-4,.cls-8{fill:#f7f4f2;}.cls-5,.cls-8{stroke:#063844;}.cls-5{stroke-miterlimit:10;}.cls-6{fill:#fff;}.cls-7{clip-path:url(#clip-path);}.cls-8{stroke-linecap:round;stroke-linejoin:round;}</style><clipPath id="clip-path" transform="translate(-45 -29.44)"><path class="cls-1" d="M578.89,647,439.7,590.15a4.15,4.15,0,0,1-2.28-5.42h0l34.8-85.2a4.17,4.17,0,0,1,5.32-2.32l139.69,52.37a4.15,4.15,0,0,1,2.43,5.34l0,.12-36.82,90.13"/></clipPath></defs><path class="cls-2" d="M218.38,856.25l34.19-36.16" transform="translate(-45 -29.44)"/><path class="cls-2" d="M218.36,856.22c.92.87,1.15.34,1.77-.32,6.09-6.44,15.33-10.62,20.36-18,3.74-5.47,7-11,11.83-16.07.5-.52,1-1,.34-1.67-.91-.87-1.15-.34-1.77.32-3,3.14-5.73,6.33-9.38,8.69a64.6,64.6,0,0,0-9.68,7.35c-1.23,1.15-1.51,2.53-2.19,3.72-1.06,1.83-3.36,2-4.61,3.5-2.35,2.88-3.07,7.38-5.4,10.31-.28.18-.65.29-.93.48C218.2,855.08,217.66,855.56,218.36,856.22Z" transform="translate(-45 -29.44)"/><path class="cls-2" d="M181.14,754.89l49.42,5.86" transform="translate(-45 -29.44)"/><path class="cls-2" d="M181.14,754.86c-.14,1.25.42,1.12,1.32,1.23,8.8,1,17.67,6,26.58,5.61,6.63-.27,13-.92,20-.1.73.09,1.44.23,1.55-.72.15-1.26-.42-1.13-1.31-1.23-4.3-.51-8.51-.83-12.58-2.35a66.06,66.06,0,0,0-11.7-3.38c-1.66-.29-2.93.3-4.29.46-2.11.25-3.58-1.52-5.56-1.61-3.71-.16-7.76,2-11.49,1.83-.32-.12-.63-.35-.95-.47C182,754.05,181.26,753.91,181.14,754.86Z" transform="translate(-45 -29.44)"/><path class="cls-2" d="M168.48,817.89l70.73-24.15" transform="translate(-45 -29.44)"/><path class="cls-2" d="M168.47,817.85c.41,1.2,1.13.75,2.41.31,12.6-4.3,27.18-5.22,39.25-10.82,9-4.16,17.42-8.53,27.35-11.92,1-.35,2.08-.65,1.77-1.56-.4-1.19-1.12-.74-2.4-.3-6.15,2.1-12.08,4.31-18.41,5.38a146.64,146.64,0,0,0-17.69,3.94c-2.42.73-3.87,2-5.67,3-2.77,1.46-5.66.78-8.42,1.88-5.18,2-9.7,6.32-14.89,8.42-.5.09-1,.07-1.53.15C169.21,816.65,168.16,817,168.47,817.85Z" transform="translate(-45 -29.44)"/><path class="cls-2" d="M851.75,35.5l4.74,15.65" transform="translate(-45 -29.44)"/><path class="cls-2" d="M851.76,35.5c-.4.12-.29.27-.2.55.84,2.79.53,6.11,1.81,8.74a40.13,40.13,0,0,1,2.66,6c.06.23.12.46.42.37s.28-.28.2-.56a16.44,16.44,0,0,1-.95-4.09,22.47,22.47,0,0,0-.52-4,4,4,0,0,0-.71-1.23c-.35-.61,0-1.28-.24-1.89-.44-1.14-1.61-2.08-2.07-3.22v-.34C852.16,35.72,852.06,35.4,851.76,35.5Z" transform="translate(-45 -29.44)"/><path class="cls-2" d="M865.07,29.44l1.85,24.49" transform="translate(-45 -29.44)"/><path class="cls-2" d="M865.08,29.44c-.41,0-.33.3-.29.74.33,4.36-.58,9.08.2,13.38a88.2,88.2,0,0,1,1.54,9.68c0,.36,0,.72.35.69s.33-.29.3-.74a37.89,37.89,0,0,1-.2-6.3,46.22,46.22,0,0,0,.2-6,9.23,9.23,0,0,0-.47-2c-.24-1,.22-1.86.1-2.83-.23-1.82-1.21-3.61-1.46-5.43,0-.17.07-.33.08-.5C865.4,29.77,865.39,29.42,865.08,29.44Z" transform="translate(-45 -29.44)"/><path class="cls-2" d="M1081.81,215.3l-16.34-.82" transform="translate(-45 -29.44)"/><path class="cls-2" d="M1081.8,215.31c0-.42-.16-.36-.45-.37-2.91-.15-5.93-1.57-8.84-1.25a40.87,40.87,0,0,1-6.54.47c-.24,0-.48,0-.49.28s.16.35.46.37a17.23,17.23,0,0,1,4.17.49,21.71,21.71,0,0,0,3.9.85,4.44,4.44,0,0,0,1.4-.25c.68-.13,1.21.42,1.86.4,1.22,0,2.5-.81,3.72-.85.11,0,.22.1.32.13S1081.79,215.62,1081.8,215.31Z" transform="translate(-45 -29.44)"/><path class="cls-2" d="M1084.46,200.91,1060.25,205" transform="translate(-45 -29.44)"/><path class="cls-2" d="M1084.47,200.92c-.07-.41-.33-.3-.77-.23-4.31.74-9.09.27-13.3,1.45a86.44,86.44,0,0,1-9.5,2.43c-.35.06-.71.1-.65.41s.32.3.76.23a38.81,38.81,0,0,1,6.26-.78,51.18,51.18,0,0,0,5.94-.35,10,10,0,0,0,2-.66c1-.33,1.87,0,2.83-.17,1.78-.39,3.47-1.54,5.27-1.95h.5C1084.16,201.27,1084.52,201.23,1084.47,200.92Z" transform="translate(-45 -29.44)"/><rect class="cls-3" x="798.21" y="177.66" width="127.78" height="167.65" rx="3.94" transform="translate(80.2 750.28) rotate(-51.99)"/><path class="cls-2" d="M891,360.72c.29-.32.53-.65.79-1l.76-1,1.53-2,3.06-3.89,6.13-7.8,11.37-14.63,8.53-10.86c1.85-2.37,5.11-6.53,6.93-8.87,3.57-4.53,3.3-4.32,6.87-8.85l10.8-13.69L959,273.84l5.31-6.77.66-.85a5.82,5.82,0,0,0,.64-.92,4.14,4.14,0,0,0,.38-1.07,4.36,4.36,0,0,0,.09-1.14,4.2,4.2,0,0,0-.74-2.14,4.42,4.42,0,0,0-.78-.84c-.29-.24-.57-.45-.85-.67L949.14,248l-17.63-13.71c-5.27-4.09-10.4-8.12-15.61-12.23l-25.53-20.31L873.78,188.6l-11.08-8.74-2.56-2-7.73-6c-3.33-2.63-6.76-5.25-10.19-7.87l-2.58-2-.64-.49a3.32,3.32,0,0,0-.36-.26,3.26,3.26,0,0,0-.4-.24,4.63,4.63,0,0,0-1.78-.52,4.55,4.55,0,0,0-3.4,1.17,4.85,4.85,0,0,0-.61.67L832,163l-1,1.26-2,2.6c-1.15,1.47-2.29,2.91-3.43,4.35-1.74,2.2-3.41,4.36-5.1,6.54s-3.48,4.5-5.23,6.74l-12.36,15.95c-4.08,5.29-8.11,10.53-12.17,15.81l-11.4,14.65-12.53,16.21-5.3,6.79c-.88,1.13-1.77,2.23-2.64,3.4a4,4,0,0,0-.66,2.09,4.16,4.16,0,0,0,.53,2.15,4.38,4.38,0,0,0,.67.87c.27.25.55.47.83.69l1.68,1.32,3.35,2.63,6.69,5.26,28.88,22.63c9.93,7.76,20,15.42,29.89,23.2,6.4,5,12.7,10,19.07,15,8.86,7,16.55,12.88,27.11,21.16,2.32,1.81,4.51,3.51,6.12,4.74.8.62,1.47,1.11,1.94,1.45a3.38,3.38,0,0,0,.75.5,3.59,3.59,0,0,0-.64-.59l-1.86-1.5c-1.57-1.26-3.74-3-6.13-4.83-13.66-10.67-19.87-15.78-32.65-25.78l-23.78-18.62-19.42-15.31c-9-7-10.42-8.12-13.77-10.79-5.12-4.07-8.67-7-13.18-10.51L766.53,267l-3.89-3-1.93-1.5-.48-.38a3.07,3.07,0,0,1-.38-.34,3.3,3.3,0,0,1-.59-3.64,2.86,2.86,0,0,1,.24-.42l.14-.2.18-.23,2.86-3.68,5.74-7.36c3.84-4.91,7.68-9.81,11.51-14.64,3.45-4.36,6.94-8.78,10.38-13.19l11.38-14.5c3.84-4.91,7.57-9.66,11.33-14.57l10-12.85,4.44-5.75.27-.34,3.86-4.84,2-2.49a3.21,3.21,0,0,1,3.85-.94,2.64,2.64,0,0,1,.37.2l.36.25.82.65,3.3,2.6c4.4,3.46,6,4.67,10.06,7.81l8.36,6.48c2.17,1.67,4.28,3.37,6.63,5.19l12.54,9.58,6.5,5.07,10.11,7.95L918,224.84c6.92,5.43,13.9,10.84,20.77,16.16l19.5,15.16,4.58,3.56,1.15.9c.1.07.19.15.26.21l.24.22a3.72,3.72,0,0,1,.4.49,3.48,3.48,0,0,1,.54,2.43,3.39,3.39,0,0,1-.42,1.19,2.46,2.46,0,0,1-.17.27c-.06.09-.12.18-.2.28l-.45.57-1.79,2.3-3.6,4.59-8.08,10.44-6.81,8.71c-5,6.4-9.65,12.49-14.66,18.87l-8,10.18c-2.19,2.85-4.69,6.27-6.9,9.12l-11.51,14.75-6,7.69-2.9,3.74-1.5,1.92-.77,1c-.26.33-.52.69-.8,1a3.88,3.88,0,0,1-1.66,1,3.84,3.84,0,0,1-1.78.12,3.93,3.93,0,0,1-1.25-.42,4.45,4.45,0,0,0-.48-.26,1.06,1.06,0,0,0,.26.27,3.16,3.16,0,0,0,1,.51,3.91,3.91,0,0,0,1.86.12A4,4,0,0,0,891,360.72Z" transform="translate(-45 -29.44)"/><rect class="cls-3" x="803.58" y="135.72" width="154.84" height="203.15" rx="3.94" transform="translate(106.52 755.87) rotate(-51.99)"/><path class="cls-2" d="M916.38,357.17l14.86-18.93,13.81-17.76,10.35-13.2,8.42-10.76c4.33-5.51,4-5.24,8.34-10.75l13.1-16.62c4.52-5.78,9.12-11.64,13.66-17.42l6.44-8.23.81-1a7.12,7.12,0,0,0,.76-1.12,4.2,4.2,0,0,0-1.06-5.06c-.69-.56-1.37-1.08-2.06-1.62l-17.81-14-21.39-16.65c-6.41-5-12.64-9.86-19-14.84l-31-24.62-20.17-16L881,138.06l-3.11-2.42-9.38-7.32c-4-3.18-8.21-6.38-12.37-9.57L853,116.36l-.78-.59a4.48,4.48,0,0,0-.44-.32c-.15-.1-.32-.19-.49-.28a4.54,4.54,0,0,0-4.33.2,5.35,5.35,0,0,0-.88.69c-.13.13-.24.28-.37.42l-.29.38-2.37,3.07-2.48,3.16-4.17,5.28c-2.1,2.67-4.13,5.3-6.19,7.94s-4.23,5.46-6.35,8.18l-15,19.35c-5,6.43-9.86,12.78-14.8,19.18l-13.79,17.82c-5.1,6.57-10.14,13.08-15.23,19.66l-6.44,8.24L757,230.8l-.81,1c-.27.35-.54.67-.8,1a4.08,4.08,0,0,0,.48,5,9,9,0,0,0,1,.85l1,.8,2,1.6,4.06,3.2q4.08,3.19,8.13,6.38c11.72,9.17,23.36,18.3,35.07,27.47,12.06,9.42,24.21,18.74,36.28,28.19l23.17,18.2c10.77,8.48,20.09,15.64,32.92,25.69,2.81,2.21,5.46,4.27,7.42,5.77l2.34,1.77a5.62,5.62,0,0,0,.91.62,5.34,5.34,0,0,0-.79-.71c-.53-.44-1.3-1.06-2.26-1.82-1.91-1.52-4.55-3.59-7.45-5.86-16.58-12.95-24.15-19.12-39.67-31.27l-28.88-22.6-23.6-18.57c-10.89-8.5-12.64-9.86-16.71-13.09-6.23-4.94-10.55-8.44-16-12.74l-9.39-7.35-4.71-3.68-2.35-1.83-1.18-.91-.29-.23-.14-.11-.12-.11a1.45,1.45,0,0,1-.22-.21,1.1,1.1,0,0,1-.2-.23,3.25,3.25,0,0,1-.71-2.18,3.2,3.2,0,0,1,.25-1.14,5.21,5.21,0,0,1,.28-.52l.18-.24.21-.28,3.48-4.47,7-8.94q7-8.94,14-17.77c4.19-5.3,8.42-10.67,12.61-16l13.8-17.6c4.66-6,9.19-11.73,13.77-17.69l12.11-15.6q2.68-3.46,5.39-7l.33-.41,4.68-5.89,2.38-3,.59-.76.15-.19.14-.17a3.7,3.7,0,0,1,.28-.28,3.18,3.18,0,0,1,1.35-.76,3.34,3.34,0,0,1,2,.11,3.49,3.49,0,0,1,.89.53l1,.78,4,3.15c5.35,4.2,7.26,5.68,12.21,9.5l10.16,7.87,8,6.3L902,156.07l7.89,6.16,12.28,9.65,26.12,20.53c8.4,6.59,16.87,13.16,25.21,19.63l23.67,18.42,5.56,4.32,1.39,1.09.7.54c.22.18.48.37.66.53a3.49,3.49,0,0,1,1.16,2.76,3.42,3.42,0,0,1-.42,1.47,13.2,13.2,0,0,1-1,1.36l-2.18,2.79-4.37,5.58-9.82,12.67-8.27,10.58-17.81,22.9c-3.25,4.15-6.5,8.28-9.66,12.36-2.68,3.45-5.73,7.59-8.42,11-4.66,6-9.29,11.9-14,17.91-5.22,6.69-9.33,12-14.51,18.64-.25.32-.5.66-.77,1a4.3,4.3,0,0,1-.94.71,3.93,3.93,0,0,1-2.1.47,4.41,4.41,0,0,1-1.55-.42l-.24-.12-.17-.11c-.1-.06-.15-.09-.17-.08s.08.12.32.31a3.79,3.79,0,0,0,1.29.55,4,4,0,0,0,2.24-.16,4.31,4.31,0,0,0,1.24-.73l.29-.27.26-.3Z" transform="translate(-45 -29.44)"/><rect class="cls-4" x="809.76" y="88.71" width="185.03" height="242.76" rx="3.94" transform="translate(136.13 762.18) rotate(-51.99)"/><path class="cls-2" d="M944.91,353l17.81-22.63c5.62-7.18,10.89-14.08,16.5-21.28l12.41-15.78,10.08-12.88c5.19-6.58,4.77-6.3,10-12.88l15.72-19.86c5.45-6.89,10.94-13.92,16.37-20.84l7.72-9.83,1-1.23.24-.3.25-.33a4.46,4.46,0,0,0-.39-5.68,3,3,0,0,0-.32-.3l-.32-.26-.61-.49-2.46-1.93c-7.09-5.59-14.12-11.15-21.26-16.71L1002,169.93c-7.68-5.94-15.13-11.79-22.69-17.78-12.46-9.93-24.74-19.79-37-29.64q-12-9.51-24.1-19.21c-5.3-4.22-10.67-8.48-16.08-12.72l-3.71-2.91-11.24-8.75c-4.84-3.82-9.84-7.62-14.84-11.4l-3.75-2.84-.94-.7c-.13-.11-.37-.27-.58-.41a7.49,7.49,0,0,0-.69-.36,5.56,5.56,0,0,0-1.49-.39,5.16,5.16,0,0,0-1.52.07,5,5,0,0,0-2.67,1.4,6.41,6.41,0,0,0-.49.55l-.35.47-.7.92-2.81,3.68-3,3.78-5,6.31c-2.52,3.19-5,6.34-7.4,9.51l-7.58,9.81c-6,7.74-12,15.51-17.94,23.2l-17.62,23-16.44,21.37L763.21,190.5l-7.69,9.87-1.93,2.45-1,1.23-.49.62-.24.31-.24.33a4.18,4.18,0,0,0,.15,4.7,5.59,5.59,0,0,0,1.19,1.14l19.44,15.33c14,11,27.93,21.94,42,32.9,14.43,11.28,29,22.35,43.49,33.67,9.29,7.28,18.42,14.62,27.68,21.82,12.87,10.18,24.07,18.7,39.41,30.74,3.37,2.64,6.55,5.1,8.9,6.88a29.83,29.83,0,0,0,4,2.79,25.85,25.85,0,0,0-3.59-3.1c-2.27-1.83-5.43-4.32-8.9-7-19.85-15.49-28.82-23-47.39-37.55l-34.53-27.08c-9.45-7.38-18.71-14.87-28.2-22.28-13-10.18-15.14-11.79-20-15.69-7.42-5.94-12.55-10.19-19.09-15.34-7.43-5.84-15-11.8-22.5-17.58a2.63,2.63,0,0,1-.89-3,.68.68,0,0,1,.11-.25l.14-.25.08-.11.11-.14.25-.34,4.16-5.35,8.34-10.7q8.36-10.71,16.74-21.25c5-6.33,10.12-12.74,15.12-19.16L814.33,128c5.57-7.13,11-14,16.45-21.2,4.74-6.24,9.71-12.49,14.44-18.69q3.19-4.19,6.43-8.37l.4-.48c1.84-2.27,3.73-4.64,5.63-7l2.87-3.61,1.43-1.8.18-.23.09-.11h0a1.6,1.6,0,0,1,.26-.26,2.17,2.17,0,0,1,.6-.4,2.49,2.49,0,0,1,1.84-.12.85.85,0,0,1,.22.09l.21.1a1.37,1.37,0,0,1,.2.13l.23.16,1.18,1L871.78,71c6.39,5,8.68,6.79,14.63,11.34l12.18,9.39c3.15,2.42,6.2,4.91,9.63,7.54,6.1,4.68,12.17,9.19,18.28,13.85l9.45,7.37,14.67,11.57,31.22,24.63c10,7.9,20.2,15.74,30.19,23.46l28.37,22,6.66,5.16,3.33,2.6.42.32.38.3a2.93,2.93,0,0,1,.52.59A3.18,3.18,0,0,1,1052,214a17.4,17.4,0,0,1-1.15,1.56l-2.61,3.34-5.22,6.67c-4,5-7.77,10.16-11.72,15.19l-9.91,12.66c-7.27,9.29-14,18.17-21.26,27.44-3.9,5-7.8,9.9-11.57,14.8-3.19,4.14-6.76,9.16-10,13.3l-16.72,21.45-17.33,22.33-.91,1.17-.45.58-.22.26-.25.24a3.85,3.85,0,0,1-2.29,1,4.36,4.36,0,0,1-1.85-.32c-.43-.19-.67-.36-.71-.32s0,.18.36.41a3.52,3.52,0,0,0,1.59.61,4,4,0,0,0,2.69-.58,2.71,2.71,0,0,0,.35-.24,2.22,2.22,0,0,0,.33-.28,6.39,6.39,0,0,0,.59-.68Z" transform="translate(-45 -29.44)"/><path class="cls-2" d="M891.94,134.81a7,7,0,0,1-2.21-2.7,5.24,5.24,0,0,1-.39-3,6.27,6.27,0,0,1,1.33-2.93,6.73,6.73,0,0,1,2.52-2,5.23,5.23,0,0,1,3-.38,6.79,6.79,0,0,1,3.13,1.46,9.79,9.79,0,0,1,1.65,1.63,10.11,10.11,0,0,1,1,1.59l-2.09,2.29a8.34,8.34,0,0,0-1-1.89,5.69,5.69,0,0,0-1.13-1.22,3.09,3.09,0,0,0-1.41-.65,2.67,2.67,0,0,0-1.53.18,3.64,3.64,0,0,0-1.43,1.18,4.17,4.17,0,0,0-.77,1.53,2.81,2.81,0,0,0,.07,1.6,3.19,3.19,0,0,0,1.11,1.45c.2.16.4.31.59.44l2.26-2.88,2.47,1.93L895.56,137a5.13,5.13,0,0,1-1-.41c-.45-.23-.89-.48-1.31-.75A14.16,14.16,0,0,1,891.94,134.81Z" transform="translate(-45 -29.44)"/><path class="cls-2" d="M898,139.54a2.09,2.09,0,0,1-.89-1.54,2.74,2.74,0,0,1,1.5-2.44,2.29,2.29,0,0,1,1-.2,3.25,3.25,0,0,1,.93.17,5.37,5.37,0,0,1,.78.33l1.93,1c.38-.43.17-1-.62-1.57a5.61,5.61,0,0,0-1.13-.67,6.4,6.4,0,0,0-1.48-.48l1.46-2.08c.4.15.9.36,1.51.65a10.36,10.36,0,0,1,1.84,1.16,4,4,0,0,1,1.5,2.06,2.72,2.72,0,0,1-.69,2.33l-3.35,4.28-2-1.54.54-1-.16-.13a3.09,3.09,0,0,1-1.28.19A2.36,2.36,0,0,1,898,139.54Zm2.48-1a1,1,0,0,0,.59.2,2,2,0,0,0,.73-.13l.73-1a1.21,1.21,0,0,1-.38,0,7.07,7.07,0,0,1-.69-.27,1.34,1.34,0,0,0-.59-.1.76.76,0,0,0-.51.32.59.59,0,0,0-.16.55.85.85,0,0,0,.29.43Z" transform="translate(-45 -29.44)"/><path class="cls-2" d="M905.54,145.45a9.55,9.55,0,0,1-1.32-1.22,7.06,7.06,0,0,1-.78-1.1l1.66-1.84a4.31,4.31,0,0,0,.64,1.22,5.24,5.24,0,0,0,.94,1,1.61,1.61,0,0,0,.58.3.43.43,0,0,0,.46-.2.44.44,0,0,0,0-.53,6.84,6.84,0,0,0-.69-1,3.56,3.56,0,0,1-.81-1.72,2.17,2.17,0,0,1,.53-1.54,2.42,2.42,0,0,1,1.85-1,3.47,3.47,0,0,1,2.27.88A8.41,8.41,0,0,1,912.2,140a8.75,8.75,0,0,1,.81,1.11l-1.69,1.85a3.63,3.63,0,0,0-.39-.82c-.16-.24-.33-.48-.51-.7A4.07,4.07,0,0,0,910,141a1,1,0,0,0-.49-.22.44.44,0,0,0-.39.19.5.5,0,0,0-.1.47,2.57,2.57,0,0,0,.5.84,5.21,5.21,0,0,1,1,1.87,1.83,1.83,0,0,1-.44,1.5,2.45,2.45,0,0,1-1.88,1A4.3,4.3,0,0,1,905.54,145.45Z" transform="translate(-45 -29.44)"/><path class="cls-2" d="M912.14,150.61a3.6,3.6,0,0,1-1.38-1.87,2.54,2.54,0,0,1,.69-2.21l2.06-2.63-.94-.74,1.39-1.77.93.73,1.63-2.09,2.68,1.44L917.26,144l1.72,1.35-1.39,1.78-1.72-1.35-1.43,1.83a1.82,1.82,0,0,0-.46.93.82.82,0,0,0,.38.74,1.58,1.58,0,0,0,.46.25,2.23,2.23,0,0,0,.62.14l-1.36,2a2.91,2.91,0,0,1-.94-.36A6.9,6.9,0,0,1,912.14,150.61Z" transform="translate(-45 -29.44)"/><path class="cls-2" d="M918,155.16a4.83,4.83,0,0,1-1.64-2,3.71,3.71,0,0,1-.17-2.16,5.08,5.08,0,0,1,2.67-3.39,3.65,3.65,0,0,1,2.11-.31,5.63,5.63,0,0,1,3.91,3.06,3.54,3.54,0,0,1,.21,2.13,4.9,4.9,0,0,1-1,2,4.62,4.62,0,0,1-1.76,1.43,3.77,3.77,0,0,1-2.12.31A4.81,4.81,0,0,1,918,155.16Zm1.49-1.93a1.08,1.08,0,0,0,1.13.16,2.56,2.56,0,0,0,1.06-.84,2.13,2.13,0,0,0,.56-1.31A1.21,1.21,0,0,0,921,150a1,1,0,0,0-.37.05,2.38,2.38,0,0,0-1.1.83,2.5,2.5,0,0,0-.53,1.25,1.14,1.14,0,0,0,.42,1.09Z" transform="translate(-45 -29.44)"/><path class="cls-2" d="M922.52,158.42l5-6.42,2.08,1.45-.73,1.15.19.15a4.17,4.17,0,0,1,1.49-.16,2.81,2.81,0,0,1,1.48.63,2.36,2.36,0,0,1,1,1.69,3.14,3.14,0,0,1-.83,2.1l-3.4,4.35-2.39-1.87,2.77-3.54a1.73,1.73,0,0,0,.39-.79.63.63,0,0,0-.31-.6,1,1,0,0,0-.64-.24,2.51,2.51,0,0,0-.72.11l-3,3.86Z" transform="translate(-45 -29.44)"/><path class="cls-2" d="M932.54,166.26l7.15-9.15L946,162l-1.65,2.11-3.7-2.9-1.16,1.49,3.53,2.76-1.5,1.92L938,164.64l-1.2,1.53,3.78,3-1.65,2.12Z" transform="translate(-45 -29.44)"/><path class="cls-2" d="M939.67,171.83l1-.47.83-.38.84-.38,1.65-.74.23-1.69c.07-.46.13-.9.19-1.31s.13-.91.21-1.5l2.71,2c-.09.31-.17.61-.24.88l-.25.86-.3,1.09.17.14,1-.56.73-.44.74-.44,2.7,2.11-1,.38-.81.3-.86.32-1.75.66-.2,1.78c-.06.47-.11.93-.16,1.38l-.18,1.64L944,175.24c.08-.28.16-.54.22-.77s.15-.49.22-.77l.35-1.18-.15-.12-1,.6-.7.43-.71.44Z" transform="translate(-45 -29.44)"/><path class="cls-2" d="M945.65,180.58l7-9,2.19,1.54-.63,1,.19.14a2.41,2.41,0,0,1,2.52.39,2.76,2.76,0,0,1,1,1.54,3.34,3.34,0,0,1-.12,1.88,6.33,6.33,0,0,1-1.07,2,6.61,6.61,0,0,1-1.57,1.46,3.66,3.66,0,0,1-1.8.61,2.59,2.59,0,0,1-1.77-.62,2.37,2.37,0,0,1-.77-1,2.92,2.92,0,0,1-.22-1.13l-.12-.1-2.43,3.1Zm6.59-1.87a1,1,0,0,0,1.08.17,2.5,2.5,0,0,0,1-.76,2.25,2.25,0,0,0,.5-1.16,1.06,1.06,0,0,0-.43-1,1.18,1.18,0,0,0-1.1-.22l-1.42,1.82a1.3,1.3,0,0,0,0,.62,1,1,0,0,0,.37.53Z" transform="translate(-45 -29.44)"/><path class="cls-2" d="M955.23,184l5-6.43,2.08,1.45-.76,1.19.19.15a2.74,2.74,0,0,1,1.56-.33,2.45,2.45,0,0,1,1,.45,2.35,2.35,0,0,1,.29.26,1.59,1.59,0,0,1,.27.37l-2,2.15-.47-.39-.44-.35a1.67,1.67,0,0,0-.75-.35,1.24,1.24,0,0,0-.88.19l-2.75,3.51Z" transform="translate(-45 -29.44)"/><path class="cls-2" d="M963.71,190.92a5.65,5.65,0,0,1-1.76-2.09,3.39,3.39,0,0,1-.25-2.13,4.83,4.83,0,0,1,1-2.06,5.35,5.35,0,0,1,1.72-1.49,3.39,3.39,0,0,1,2-.38,4.22,4.22,0,0,1,2.12,1,3.85,3.85,0,0,1,1.59,2.36,3.64,3.64,0,0,1-1,2.8c-.14.18-.27.33-.39.46l-.36.36-3.71-2.9a1.46,1.46,0,0,0-.13,1.19,2.66,2.66,0,0,0,1,1.2,6.31,6.31,0,0,0,1,.6,6,6,0,0,0,1.28.47l-1.47,2a7.08,7.08,0,0,1-1.18-.47A8.76,8.76,0,0,1,963.71,190.92Zm3.62-5.58a1,1,0,0,0-.82-.18,1.74,1.74,0,0,0-1,.58L967.3,187a1.68,1.68,0,0,0,.36-1A.89.89,0,0,0,967.33,185.34Z" transform="translate(-45 -29.44)"/><path class="cls-2" d="M969.35,195.32A9.19,9.19,0,0,1,968,194.1a6.45,6.45,0,0,1-.78-1.1l1.66-1.83a5,5,0,0,0,.64,1.21,5.24,5.24,0,0,0,.94,1,1.46,1.46,0,0,0,.58.3.42.42,0,0,0,.46-.2.44.44,0,0,0,0-.53,7.42,7.42,0,0,0-.69-1,3.56,3.56,0,0,1-.81-1.72,2.17,2.17,0,0,1,.53-1.54,2.49,2.49,0,0,1,1.85-1,3.52,3.52,0,0,1,2.27.88,8.41,8.41,0,0,1,1.33,1.27,8.75,8.75,0,0,1,.81,1.11l-1.68,1.85a4.15,4.15,0,0,0-.4-.82,5,5,0,0,0-.51-.7,4.78,4.78,0,0,0-.45-.45.87.87,0,0,0-.48-.21.42.42,0,0,0-.4.18.5.5,0,0,0-.1.47,2.8,2.8,0,0,0,.5.85,5.13,5.13,0,0,1,1,1.87,1.76,1.76,0,0,1-.44,1.49,2.39,2.39,0,0,1-1.88,1A4.31,4.31,0,0,1,969.35,195.32Z" transform="translate(-45 -29.44)"/><path class="cls-2" d="M975.36,200a9,9,0,0,1-1.32-1.23,5.75,5.75,0,0,1-.78-1.1l1.66-1.83a4.58,4.58,0,0,0,.64,1.22,5.19,5.19,0,0,0,.93,1,1.63,1.63,0,0,0,.58.31.44.44,0,0,0,.47-.2.45.45,0,0,0,0-.54,9.86,9.86,0,0,0-.69-1A3.42,3.42,0,0,1,976,195a2.17,2.17,0,0,1,.54-1.54,2.39,2.39,0,0,1,1.85-1,3.51,3.51,0,0,1,2.27.87A9.39,9.39,0,0,1,982,194.6a8.75,8.75,0,0,1,.81,1.11l-1.69,1.86a4.11,4.11,0,0,0-.39-.82,5.08,5.08,0,0,0-.52-.7,2.68,2.68,0,0,0-.44-.45.91.91,0,0,0-.49-.22.42.42,0,0,0-.4.18.58.58,0,0,0-.09.48,2.57,2.57,0,0,0,.5.84,5.13,5.13,0,0,1,1,1.87,1.76,1.76,0,0,1-.43,1.49,2.39,2.39,0,0,1-1.88,1A4.19,4.19,0,0,1,975.36,200Z" transform="translate(-45 -29.44)"/><path class="cls-2" d="M857.26,172.25l3.06-3.92a28.66,28.66,0,0,1-2.83-3.1,18,18,0,0,1-1.87-2.86l4.41-4.73a19.25,19.25,0,0,0,2.31,3.91,15.68,15.68,0,0,0,2.81,3,4.27,4.27,0,0,0,2.3,1,2.2,2.2,0,0,0,1.94-3.31,24.41,24.41,0,0,0-2.06-3.25,17.7,17.7,0,0,1-2.23-3.8,6.73,6.73,0,0,1-.51-3.57,7.88,7.88,0,0,1,1.72-3.67,8.34,8.34,0,0,1,5-3.24,8.84,8.84,0,0,1,6.33,1.5l2.6-3.32,4.25,3.32-2.69,3.43a26.47,26.47,0,0,1,2.23,2.61,19,19,0,0,1,1.57,2.4l-4.44,4.83a16.4,16.4,0,0,0-2-3.65,13.45,13.45,0,0,0-2.42-2.58,4.32,4.32,0,0,0-2.15-1,2.07,2.07,0,0,0-2.2,1.93,2,2,0,0,0,.12.84,13.9,13.9,0,0,0,1.7,2.88,22.82,22.82,0,0,1,2.75,4.67,6.58,6.58,0,0,1,.5,3.66,7.88,7.88,0,0,1-1.67,3.42,8.29,8.29,0,0,1-4.82,3.23,9.14,9.14,0,0,1-6.26-1.34l-3.15,4Z" transform="translate(-45 -29.44)"/><path class="cls-2" d="M872.84,177.53l3.12-4,2.63-.08,2.62-.06a47.65,47.65,0,0,0,7.63-.76,7.29,7.29,0,0,0,4.52-2.49c1.27-1.62,1-3.16-.88-4.61a9.64,9.64,0,0,0-3.56-1.68,22.56,22.56,0,0,0-4.25-.69l4-6.08a27.59,27.59,0,0,1,4.4,1.61,22.39,22.39,0,0,1,4.66,2.83q3.75,2.92,4.36,6.24a7.83,7.83,0,0,1-1.83,6.43,11.5,11.5,0,0,1-5.09,3.63,20.9,20.9,0,0,1-8,1.08h-2.08l7.29,5.7-4,5.12Z" transform="translate(-45 -29.44)"/><path class="cls-2" d="M885.9,195.65a15.07,15.07,0,0,0,6.56-5l3.49-4.47,2.73,1.75a3.78,3.78,0,0,1,1.27,2.94,5.43,5.43,0,0,1-1.22,3,8.6,8.6,0,0,1-3,2.49,13.1,13.1,0,0,1-3.66,1.2,16.06,16.06,0,0,1-3.39.21Z" transform="translate(-45 -29.44)"/><path class="cls-2" d="M907.66,205.45a12.77,12.77,0,0,1-3.71-4.29,9.64,9.64,0,0,1-1-4.69,12.82,12.82,0,0,1,1.16-4.83,23.28,23.28,0,0,1,2.89-4.75,21.25,21.25,0,0,1,5.5-5.07,10.49,10.49,0,0,1,6.12-1.63,11.48,11.48,0,0,1,6.47,2.72,11.76,11.76,0,0,1,4.26,5.66,10.54,10.54,0,0,1-.07,6.36,22.52,22.52,0,0,1-9.15,11.65,10.63,10.63,0,0,1-6.12,1.54A11.47,11.47,0,0,1,907.66,205.45Zm3.8-5a3.14,3.14,0,0,0,3.81.14,15.72,15.72,0,0,0,4.21-4,14.47,14.47,0,0,0,2.81-5.13,3.12,3.12,0,0,0-1-3.56,3.17,3.17,0,0,0-3.76-.18,15,15,0,0,0-4.28,4,15.52,15.52,0,0,0-2.82,5.07,3.16,3.16,0,0,0,1,3.66Z" transform="translate(-45 -29.44)"/><path class="cls-2" d="M928.64,221.85a12.87,12.87,0,0,1-3.71-4.29,9.64,9.64,0,0,1-1-4.69,12.82,12.82,0,0,1,1.16-4.83,22.18,22.18,0,0,1,2.89-4.75,21,21,0,0,1,5.5-5.08,10.49,10.49,0,0,1,6.12-1.63,11.56,11.56,0,0,1,6.47,2.73,11.84,11.84,0,0,1,4.26,5.65,10.57,10.57,0,0,1-.07,6.37,20.41,20.41,0,0,1-3.56,6.54,20,20,0,0,1-5.59,5.1,10.56,10.56,0,0,1-6.12,1.55A11.47,11.47,0,0,1,928.64,221.85Zm3.8-5a3.14,3.14,0,0,0,3.81.14,15.72,15.72,0,0,0,4.21-4,14.58,14.58,0,0,0,2.81-5.12,3.13,3.13,0,0,0-1-3.57,3.18,3.18,0,0,0-3.76-.17,14.58,14.58,0,0,0-4.28,4,15.37,15.37,0,0,0-2.82,5.06A3.16,3.16,0,0,0,932.44,216.85Z" transform="translate(-45 -29.44)"/><path class="cls-2" d="M949.61,238.24a12.74,12.74,0,0,1-3.7-4.29,9.64,9.64,0,0,1-1-4.69,13,13,0,0,1,1.16-4.83,23,23,0,0,1,2.89-4.75,21.25,21.25,0,0,1,5.5-5.07,10.49,10.49,0,0,1,6.12-1.63A11.47,11.47,0,0,1,967,215.7a11.7,11.7,0,0,1,4.26,5.66,10.62,10.62,0,0,1-.06,6.36,20.57,20.57,0,0,1-3.56,6.55,20,20,0,0,1-5.59,5.1,10.63,10.63,0,0,1-6.12,1.54A11.38,11.38,0,0,1,949.61,238.24Zm3.81-5a3.11,3.11,0,0,0,3.8.14,15.91,15.91,0,0,0,4.22-4,14.63,14.63,0,0,0,2.81-5.13,3.22,3.22,0,0,0-4.81-3.73,14.8,14.8,0,0,0-4.28,3.95,15.52,15.52,0,0,0-2.82,5.07A3.14,3.14,0,0,0,953.42,233.24Z" transform="translate(-45 -29.44)"/><rect class="cls-2" x="854.37" y="155.16" width="50.58" height="175.89" rx="9.86" transform="translate(101.43 757.05) rotate(-51.99)"/><path class="cls-2" d="M927,312.19l.12.06a1.82,1.82,0,0,0,.31.16l.46.2.27.11.29.1.59.19.56.13.46.1h.29a9.66,9.66,0,0,0,3.75-.14,10.41,10.41,0,0,0,3.46-1.52l.75-.57.69-.64c.21-.23.42-.47.62-.71s.38-.49.58-.73l2.24-2.91c3-3.84,5.72-7.32,8.73-11.14,2.06-2.54,4.12-5,6.18-7.59.54-.68,1.08-1.35,1.61-2.06a8.62,8.62,0,0,0,.75-1.14c.11-.2.24-.39.33-.6l.27-.63c.1-.21.16-.43.24-.64a5,5,0,0,0,.2-.66,10.31,10.31,0,0,0,.24-1.35,9.53,9.53,0,0,0,0-2.72,10.54,10.54,0,0,0-1.51-4.09,9.21,9.21,0,0,0-.64-.9,9.49,9.49,0,0,0-.73-.82,3.59,3.59,0,0,0-.4-.38l-.41-.36c-.28-.25-.55-.44-.83-.67l-6.56-5.17-.38-.3c-1.61-1.33-3.17-2.64-4.74-4-1.83-1.54-3.81-3.09-5.74-4.61L933.6,252l-5.4-4c-6.83-5.26-13.69-10.53-20.54-15.64-4.63-3.6-9.26-7.23-13.82-10.88l-4.55-3.74c-1.87-1.53-3.78-3.06-5.71-4.57-3.92-3.06-7.9-6-11.81-9.12l-3.39-2.8c-1.6-1.31-3.26-2.62-4.91-3.91-3.23-2.52-6.49-5-9.69-7.58-.51-.55-1.07-1.11-1.88-1.88s-1.85-1.69-2.88-2.58c-1.72-1.51-3.53-3-5.43-4.51l-6.27-5-1.65-1.35-.52-.43c-.18-.15-.34-.28-.57-.45l-.65-.48c-.22-.15-.46-.28-.7-.42l-.35-.21-.37-.17-.75-.34a12.46,12.46,0,0,0-1.58-.47l-.64-.13a11.71,11.71,0,0,0-5.69.54,11.18,11.18,0,0,0-4.59,3.13c-.36.44-.74.91-1,1.28l-.82,1.2-1.64,2.38-1.64,2.35c-.56.81-1.17,1.66-1.63,2.4l-4.18,5.29-2,2.57-3.73,4.85-1.86,2.43-.46.6-.24.31-.23.35a11.41,11.41,0,0,0-.86,1.42,10.62,10.62,0,0,0,.52,10.27,7.15,7.15,0,0,0,.49.73l.55.69.62.63c.2.21.44.38.66.57l-.21-.17a15.24,15.24,0,0,0,1.31,1l1.3,1c1.11.9,2.22,1.8,3.33,2.67l4,3.14c1.17.91,2.32,1.68,3.46,2.59s2.41,2,3.68,2.9,2.19,1.56,3.35,2.52c2.36,2,4.66,3.92,7.08,5.85,1.41,1.16,2.83,2.32,4.3,3.49,2.17,1.74,4.51,3.4,6.71,5l3,2.19,1.79,1.4c1.29,1,2.5,2,3.78,3.06,2.6,2.05,5.36,4.19,8,6.1,2.39,1.74,4.73,3.63,7.11,5.43l2.15,1.6.49.4c.89.73,1.79,1.39,2.69,2.06s1.55,1.24,2.35,1.88c.6.49,1.17,1,1.8,1.47l1.12.88,2.67,2.08c1.86,1.46,3.68,2.87,5.53,4.29l1.43,1.12q4.25,3.35,8.54,6.67L910,299.4c2.93,2.27,5.67,4.24,8.61,6.5l5.56,4.27c.82.65,1.38,1,1.47.92s-.32-.48-1.24-1.2l-2.6-2.05-4-3.24c-1.88-1.52-3.73-2.82-5.65-4.31-3.84-3-7.64-6.1-11.46-9.11-2.53-2.07-5-4.13-7.58-6.19l-8.19-6.44-7.54-5.94-.68-.55-.15-.11h0l-.3-.22.31.23c-1.14-.86-2.31-1.75-3.44-2.56-.42-.31-.83-.58-1.23-.85l-1.82-1.4c-1-.76-1.92-1.45-2.87-2.26-2-1.72-4-3.37-6.21-5-1.86-1.42-3.75-2.85-5.6-4.29l-1.84-1.41-4.91-4.11c-2.47-2-5-4.09-7.4-6.13-1.77-1.48-3.46-2.89-5.29-4.37s-3.72-2.91-5.46-4.16L828.41,234l-1.68-1.28c-.79-.6-1.49-1.19-2.26-1.81s-1.68-1.28-2.54-1.92a32.28,32.28,0,0,1-2.74-2.21c-.78-.71-1.6-1.45-2.48-2.15-1.57-1.27-3.23-2.51-4.84-3.75l-3-2.41-3.17-2.65-1.24-1-.64-.52c-.2-.17-.44-.35-.6-.51a8.46,8.46,0,0,1-2.63-8.87l.18-.51c.06-.17.16-.33.23-.49a7.1,7.1,0,0,1,.52-.93,2.61,2.61,0,0,1,.31-.43l.32-.42.82-1c1.43-1.68,2.88-3.44,4.31-5.23,2.16-2.7,4.26-5.39,6.38-8.14,2.32-3,4.68-6.13,6.88-9.14L821,178l.12-.17.1-.13.22-.27.21-.26.24-.25a3.63,3.63,0,0,1,.49-.47,8.27,8.27,0,0,1,6-1.62,8.56,8.56,0,0,1,3.52,1.25l.38.28.19.13.1.07.11.09.9.71,1.82,1.42c2.83,2.2,5.75,4.35,8.57,6.41,1,.77,2.07,1.5,3.08,2.19l2.87,2c.47.31.92.6,1.36.87l4,2.91,3.22,2.38c1.64,1.23,3.27,2.46,4.9,3.72,2,1.51,3.88,3,5.81,4.56,3.23,2.58,6.57,5.11,9.87,7.61a17.59,17.59,0,0,0,1.83,1.73c2.54,2.09,5.1,4.14,7.7,6.21l5.9,4.74c1.84,1.49,3.63,2.94,5.52,4.39s4,3,6,4.46l.76.57.51.38,5.67,4.43c2.88,2.23,5.72,4.48,8.57,6.73,2.65,2.11,5.37,4.25,8.07,6.29l9.17,6.88c3.94,3,7.9,6,11.83,9l4.61,3.62c.46.36.94.72,1.37,1.08.2.19.42.36.62.55l.56.59a9.59,9.59,0,0,1,1.67,2.8c0,.13.11.26.15.4l.11.41.11.42.07.42a9.56,9.56,0,0,1-.91,6.06,10.44,10.44,0,0,1-.92,1.45l-1,1.39c-.67.9-1.31,1.74-1.86,2.46-4.49,5.8-7.63,9.63-12.11,15.44-1.14,1.47-2.23,2.94-3.32,4.41a12,12,0,0,1-1.76,2,9.65,9.65,0,0,1-2.26,1.47,7.68,7.68,0,0,1-.79.32c-.16.07-.35.11-.54.17l-.63.16a9.65,9.65,0,0,1-5.5-.45l-.76-.34-.28-.15-.61-.33c-.17-.11-.32-.21-.45-.28s-.43-.21-.48-.16,0,.17.27.36l.43.34C926.47,311.92,926.7,312,927,312.19Z" transform="translate(-45 -29.44)"/><path class="cls-4" d="M838,219.21l2.5-1.75,2.5-1.73,5.08-3.54c.92-.64,1.75-1.21,2.48-1.73l2.23-1.55,5,3.92-1,2.59-1.06,2.78-2.17,5.8c-.36.93-.72,1.89-1.1,2.87s-.73,1.92-1.07,2.82l-4.06-3.17L848,225l.68-1.5-4.15-3.25-1.32,1-1.28,1Zm14.57-5.2-5.05,3.92,2.7,2.12,2.62-5.82Z" transform="translate(-45 -29.44)"/><path class="cls-2" d="M851.62,230.5l-4.9-3.83,1.34-3-3.53-2.77-2.6,2-4.77-3.69,11.4-7.94,1.71-1.2,2.54-1.76,5.58,4.38-2.19,5.71-3.27,8.67c-.27.69-.52,1.36-.77,2Zm-3.68-4.13,3.22,2.51.07-.18c.24-.65.5-1.32.76-2l5.2-13.69-4.42-3.47-1.93,1.34c-.51.37-1.09.77-1.71,1.2l-10.29,7.16,3.09,2.39,2.61-2,4.76,3.73Zm2.47-5.53-3.7-2.91,5.87-4.56.87.72Zm-2.08-2.91,1.7,1.33,1.83-4.06Z" transform="translate(-45 -29.44)"/><path class="cls-4" d="M849.64,234.36,860,221.07l3.26,2.29-.93,1.41.27.22a3.57,3.57,0,0,1,3.75.58,4.08,4.08,0,0,1,1.54,2.29,5.15,5.15,0,0,1-.18,2.78,10.19,10.19,0,0,1-3.91,5.05,5.3,5.3,0,0,1-2.67.91,3.86,3.86,0,0,1-2.64-.92,3.45,3.45,0,0,1-1.14-1.42,4,4,0,0,1-.31-1.68l-.19-.15-3.6,4.6Zm9.78-2.77a1.53,1.53,0,0,0,1.6.24,3.7,3.7,0,0,0,2.22-2.84,1.59,1.59,0,0,0-.64-1.48,1.81,1.81,0,0,0-1.63-.33l-2.11,2.7a2.09,2.09,0,0,0,0,.93,1.52,1.52,0,0,0,.56.78Z" transform="translate(-45 -29.44)"/><path class="cls-2" d="M853.34,237.72l-4.41-3.26,11-14.07,4,2.84-.68,1a4.11,4.11,0,0,1,3.42.92,4.58,4.58,0,0,1,1.7,2.55,5.72,5.72,0,0,1-.2,3.07,10.74,10.74,0,0,1-4.1,5.29,5.81,5.81,0,0,1-2.92,1,4.31,4.31,0,0,1-3-1,4,4,0,0,1-1.28-1.6,5.09,5.09,0,0,1-.27-.92Zm-3-3.46,2.81,2.08,3.61-4.61.78.61v.25a3.74,3.74,0,0,0,.27,1.48,3.09,3.09,0,0,0,1,1.21,3.36,3.36,0,0,0,2.32.82,4.9,4.9,0,0,0,2.41-.82,9.79,9.79,0,0,0,3.72-4.81,4.65,4.65,0,0,0,.16-2.51,3.6,3.6,0,0,0-1.35-2,3.1,3.1,0,0,0-3.25-.52l-.28.12-.86-.7.92-1.38-2.48-1.74Zm10.07-1.8a2,2,0,0,1-1.31-.48,2,2,0,0,1-.73-1,2.52,2.52,0,0,1,0-1.19l.1-.19,2.2-2.83.16,0a2.32,2.32,0,0,1,2.09.42,2.09,2.09,0,0,1,.82,1.93,4,4,0,0,1-.86,2,4.1,4.1,0,0,1-1.67,1.26A2,2,0,0,1,860.42,232.46Zm-1.09-2.36a1.31,1.31,0,0,0,0,.59.9.9,0,0,0,.36.49l0,0a1,1,0,0,0,1.07.16,3.21,3.21,0,0,0,1.93-2.45,1.11,1.11,0,0,0-.44-1,1.33,1.33,0,0,0-1.06-.28Z" transform="translate(-45 -29.44)"/><path class="cls-4" d="M860.92,243.17l10.38-13.28,3.26,2.28-.94,1.42.28.21a3.57,3.57,0,0,1,3.75.59,4.06,4.06,0,0,1,1.54,2.28,5.06,5.06,0,0,1-.18,2.78,10.19,10.19,0,0,1-3.91,5.05,5.32,5.32,0,0,1-2.67.92,3.93,3.93,0,0,1-2.64-.92,3.46,3.46,0,0,1-1.14-1.43,4.17,4.17,0,0,1-.32-1.67l-.19-.15-3.59,4.59Zm9.78-2.76a1.53,1.53,0,0,0,1.6.24,3.55,3.55,0,0,0,1.47-1.13,3.33,3.33,0,0,0,.74-1.72,1.54,1.54,0,0,0-.64-1.47,1.73,1.73,0,0,0-1.62-.34l-2.11,2.71a2,2,0,0,0,0,.92A1.45,1.45,0,0,0,870.7,240.41Z" transform="translate(-45 -29.44)"/><path class="cls-2" d="M864.64,246.53l-4.43-3.26,11-14.06,4,2.83-.7,1A4.13,4.13,0,0,1,878,234a4.49,4.49,0,0,1,1.69,2.54,5.53,5.53,0,0,1-.19,3.07,10.64,10.64,0,0,1-4.1,5.29,5.85,5.85,0,0,1-2.92,1,4.44,4.44,0,0,1-3-1,3.85,3.85,0,0,1-1.28-1.61,4.39,4.39,0,0,1-.27-.92Zm-3-3.46,2.83,2.08,3.59-4.6.78.61v.25a3.7,3.7,0,0,0,.28,1.47,3.12,3.12,0,0,0,1,1.22,3.38,3.38,0,0,0,2.33.82,4.91,4.91,0,0,0,2.41-.83,9.69,9.69,0,0,0,3.72-4.81,4.65,4.65,0,0,0,.16-2.51,3.61,3.61,0,0,0-1.34-2,3.13,3.13,0,0,0-3.26-.53l-.27.11-.89-.66.93-1.41-2.47-1.73Zm10.07-1.79a2.05,2.05,0,0,1-1.31-.48,1.94,1.94,0,0,1-.73-1,2.48,2.48,0,0,1,0-1.18l.1-.19,2.2-2.83.16-.05a2.24,2.24,0,0,1,2.08.44,2,2,0,0,1,.81,1.92,3.75,3.75,0,0,1-.85,2,3.82,3.82,0,0,1-1.66,1.27A2,2,0,0,1,871.7,241.28Zm-1.09-2.36a1.42,1.42,0,0,0,0,.58,1,1,0,0,0,.37.5l0,0a1,1,0,0,0,1.08.16,3,3,0,0,0,1.27-1,2.81,2.81,0,0,0,.64-1.48,1,1,0,0,0-.43-1,1.25,1.25,0,0,0-1-.3Z" transform="translate(-45 -29.44)"/><path class="cls-4" d="M875.14,248.23l7.44-9.53,3.09,2.15-1.13,1.76.29.22a4,4,0,0,1,2.3-.48,3.73,3.73,0,0,1,1.56.66q.18.15.42.39a2.67,2.67,0,0,1,.4.55l-3,3.19-.7-.58-.65-.52a2.56,2.56,0,0,0-1.12-.52,1.89,1.89,0,0,0-1.31.28l-4.07,5.2Z" transform="translate(-45 -29.44)"/><path class="cls-2" d="M878.75,251.7l-4.31-3.38,8-10.3,3.87,2.69-.83,1.3a4.41,4.41,0,0,1,1.66-.16,4.29,4.29,0,0,1,1.81.76,4.57,4.57,0,0,1,.47.44,2.83,2.83,0,0,1,.49.66l.17.32-3.57,3.79-1.7-1.39a2,2,0,0,0-.9-.42,1.43,1.43,0,0,0-.88.17Zm-2.91-3.55,2.74,2.15,3.88-4.92a2.36,2.36,0,0,1,1.66-.35,3.08,3.08,0,0,1,1.36.62l1,.81,2.41-2.57-.13-.15-.38-.35a3.31,3.31,0,0,0-1.32-.55,3.58,3.58,0,0,0-2,.43l-.28.15-.92-.69L885,241l-2.31-1.61Z" transform="translate(-45 -29.44)"/><path class="cls-4" d="M887.51,258.35a7.19,7.19,0,0,1-2.43-3,5.64,5.64,0,0,1-.25-3.2,7.52,7.52,0,0,1,4-5,5.35,5.35,0,0,1,3.13-.47,8.49,8.49,0,0,1,5.81,4.55,5.43,5.43,0,0,1,.3,3.16,7.32,7.32,0,0,1-1.43,3,7.13,7.13,0,0,1-2.62,2.13,5.47,5.47,0,0,1-3.14.45A7.12,7.12,0,0,1,887.51,258.35Zm2.22-2.87a1.56,1.56,0,0,0,1.68.24,3.9,3.9,0,0,0,1.57-1.24,3.24,3.24,0,0,0,.83-1.95,1.8,1.8,0,0,0-1.8-1.82,1.75,1.75,0,0,0-.55.08,3.55,3.55,0,0,0-1.63,1.23,3.63,3.63,0,0,0-.78,1.86,1.69,1.69,0,0,0,.68,1.6Z" transform="translate(-45 -29.44)"/><path class="cls-2" d="M891.71,260.53a5.67,5.67,0,0,1-.91-.07,7.55,7.55,0,0,1-3.6-1.72,7.73,7.73,0,0,1-2.58-3.19,6.11,6.11,0,0,1-.28-3.51,8,8,0,0,1,4.27-5.34,5.86,5.86,0,0,1,3.42-.51,8.93,8.93,0,0,1,6.19,4.82,5.87,5.87,0,0,1,.34,3.48A8,8,0,0,1,897,257.7a7.64,7.64,0,0,1-2.8,2.27A5.94,5.94,0,0,1,891.71,260.53Zm-.55-13.41a4.89,4.89,0,0,0-2.11.48,7,7,0,0,0-3.73,4.67,5.05,5.05,0,0,0,.23,2.9,6.6,6.6,0,0,0,2.25,2.77l0,0a6.69,6.69,0,0,0,3.13,1.51,4.89,4.89,0,0,0,2.84-.41,7.12,7.12,0,0,0,3.77-4.79,4.83,4.83,0,0,0-.27-2.86,7.93,7.93,0,0,0-5.46-4.25A4,4,0,0,0,891.16,247.12Zm-.4,9.24a2,2,0,0,1-1.34-.49,2.2,2.2,0,0,1-.87-2.06,4.11,4.11,0,0,1,.89-2.1,4,4,0,0,1,1.85-1.39,2,2,0,0,1,.73-.11,2.31,2.31,0,0,1,2.29,2.32,3.74,3.74,0,0,1-1,2.28,4.3,4.3,0,0,1-1.74,1.37A2.09,2.09,0,0,1,890.76,256.36Zm1.24-5.15a1.32,1.32,0,0,0-.39.06,3,3,0,0,0-1.38,1,3.16,3.16,0,0,0-.68,1.62,1.19,1.19,0,0,0,.47,1.14l0,0a1.06,1.06,0,0,0,1.14.17,3.44,3.44,0,0,0,1.38-1.09,2.8,2.8,0,0,0,.73-1.69,1.3,1.3,0,0,0-1.3-1.28Z" transform="translate(-45 -29.44)"/><path class="cls-4" d="M896.39,264.84l.79-2.3.78-2.28.74-2.14c.3-.9.6-1.8.91-2.7l.93-2.68,3.92,2.89-1,2.08-1,2.08-1.28,2.62.28.21,2.24-1.88,1.78-1.49,1.66-1.39,3.78,3-2.39,1.55-2.4,1.55-1.91,1.24-2,1.32-2,1.3Z" transform="translate(-45 -29.44)"/><path class="cls-2" d="M900.19,268.43,895.8,265l2.43-7.06c.3-.9.6-1.8.91-2.7l1.15-3.33,4.8,3.54-2.8,5.8,4.84-4,4.65,3.68ZM897,264.66l3.27,2.55,9.81-6.39-2.91-2.31-5.67,4.75-.93-.7,3.28-6.77-3-2.24-.71,2c-.31.9-.61,1.8-.91,2.7Z" transform="translate(-45 -29.44)"/><path class="cls-4" d="M908.89,275.05a8.23,8.23,0,0,1-2.62-3.09,5.06,5.06,0,0,1-.37-3.16,7.34,7.34,0,0,1,1.48-3.06,7.89,7.89,0,0,1,2.56-2.21,5,5,0,0,1,3-.56,6.4,6.4,0,0,1,3.15,1.43,5.7,5.7,0,0,1,2.35,3.51,5.4,5.4,0,0,1-1.42,4.14q-.32.4-.57.69c-.17.18-.35.36-.54.53l-5.5-4.29a2.13,2.13,0,0,0-.2,1.76,3.88,3.88,0,0,0,1.42,1.78,8.41,8.41,0,0,0,1.47.88,7.55,7.55,0,0,0,1.89.7l-2.19,3a9.27,9.27,0,0,1-1.74-.69A12.53,12.53,0,0,1,908.89,275.05Zm5.36-8.27a1.42,1.42,0,0,0-1.21-.27,2.62,2.62,0,0,0-1.43.86l2.59,1.9a2.44,2.44,0,0,0,.54-1.42A1.27,1.27,0,0,0,914.25,266.78Z" transform="translate(-45 -29.44)"/><path class="cls-2" d="M913,277.68l-.34-.1a10,10,0,0,1-1.83-.73,13.09,13.09,0,0,1-2.24-1.4,8.86,8.86,0,0,1-2.77-3.27,5.65,5.65,0,0,1-.41-3.48,7.89,7.89,0,0,1,1.58-3.28,8.46,8.46,0,0,1,2.71-2.33,5.5,5.5,0,0,1,3.3-.62,6.92,6.92,0,0,1,3.41,1.55,6.08,6.08,0,0,1,2.52,3.79,5.9,5.9,0,0,1-1.54,4.58l-.56.68c-.2.2-.39.39-.59.57l-.31.28-.12-.09Zm-.69-14.25a4.44,4.44,0,0,0-2.13.54,7.35,7.35,0,0,0-2.4,2.07,6.86,6.86,0,0,0-1.39,2.87,4.56,4.56,0,0,0,.33,2.84,7.9,7.9,0,0,0,2.46,2.89l0,0a12.08,12.08,0,0,0,2.08,1.3,9.13,9.13,0,0,0,1.33.56l1.55-2.13a7.36,7.36,0,0,1-1.29-.55,9.35,9.35,0,0,1-1.54-.92,4.29,4.29,0,0,1-1.58-2,2.65,2.65,0,0,1,.23-2.2l.29-.48,5.61,4.37.21-.21.54-.66a5,5,0,0,0,1.31-3.79,5.2,5.2,0,0,0-2.13-3.14,6.12,6.12,0,0,0-2.95-1.35A5.07,5.07,0,0,0,912.31,263.43Zm-1.68,6.36a1.68,1.68,0,0,0,.06.8,3.33,3.33,0,0,0,1.22,1.52,8.38,8.38,0,0,0,1.4.84,7.43,7.43,0,0,0,1.79.66l.61.14Zm3.66.17-3.41-2.51.35-.4a3.14,3.14,0,0,1,1.7-1,1.92,1.92,0,0,1,1.63.37h0a1.77,1.77,0,0,1,.68,1.48,3,3,0,0,1-.65,1.71Zm-1.89-2.63,1.66,1.22a1.82,1.82,0,0,0,.18-.72.8.8,0,0,0-.3-.66.93.93,0,0,0-.79-.17A2,2,0,0,0,912.4,267.33Z" transform="translate(-45 -29.44)"/><circle class="cls-4" cx="913.82" cy="530.58" r="78.2"/><path class="cls-2" d="M1035.2,577.16c-.62-.14-1.06.51-1.48,1.76-.23.62-.4,1.41-.68,2.31s-.58,1.93-.93,3.07a75.13,75.13,0,0,1-64.31,51.18,74,74,0,0,1-28.53-3A93,93,0,0,1,915,621.2a74.76,74.76,0,0,1-19-18.13c-.61-.89-1.24-1.76-1.82-2.65s-1.11-1.8-1.67-2.69-1-1.83-1.51-2.73-.91-1.85-1.37-2.77a72.5,72.5,0,0,1-4.24-11.42,75.28,75.28,0,0,1-2.2-12.1c0-.53-.09-1.05-.13-1.57s-.1-1-.11-1.59c0-1.06-.07-2.13-.1-3.2s0-2.17.05-3.27.13-2.21.2-3.33a77.73,77.73,0,0,1,3-16,79.37,79.37,0,0,1,6.37-15.23,81,81,0,0,1,21.31-25,60,60,0,0,1,14.68-8.53,68.45,68.45,0,0,1,15.64-4.24,78.33,78.33,0,0,1,16.12-.67A93.82,93.82,0,0,1,977,488.66a83.78,83.78,0,0,1,27,12,73.37,73.37,0,0,1,21,21.73,78.79,78.79,0,0,1,5.57,11c.36,1,.78,1.89,1.1,2.85l1,2.89.84,2.92.21.74.17.74.35,1.48a71.91,71.91,0,0,1,1.66,12,75.16,75.16,0,0,1-.44,12.37c-.48,3.81-1.38,7.51-.42,7.73.62.14,1-.52,1.39-1.83a22,22,0,0,0,.52-2.41c.14-1,.3-2,.47-3.25a89.72,89.72,0,0,0,.21-19.52,81.22,81.22,0,0,0-4.31-18.9,77.53,77.53,0,0,0-8.94-17.33,71.54,71.54,0,0,0-13.48-14.48,90.59,90.59,0,0,0-28.28-15.62,75.24,75.24,0,0,0-15.28-3.34,65.89,65.89,0,0,0-16,.16,160.63,160.63,0,0,0-17.54,3.26,63.49,63.49,0,0,0-16.21,6.35c-.79.46-1.57.91-2.33,1.38l-2.21,1.48c-.74.48-1.43,1-2.12,1.53s-1.38,1-2,1.59L907,497.85c-.32.28-.65.55-1,.84l-.92.87-1.83,1.75-1.75,1.83-.87.91-.84,1L898.12,507l-1.61,2-.81,1c-.27.34-.52.69-.78,1l-1.58,2.1-1.52,2.19-.78,1.11-.74,1.15-1.52,2.33a60.72,60.72,0,0,0-6.25,13.33,73.77,73.77,0,0,0-3.13,13.92,82.3,82.3,0,0,0-.54,14.21,104.74,104.74,0,0,0,1.68,14.55,88.64,88.64,0,0,0,3.57,13.41,84.78,84.78,0,0,0,13.18,24,78.55,78.55,0,0,0,9.38,10,79.72,79.72,0,0,0,11,8.25,75.36,75.36,0,0,0,12.46,6.12c2.17.86,4.4,1.54,6.64,2.2l3.41.85c1.14.27,2.3.46,3.45.68a71.94,71.94,0,0,0,14.13,1.06,99.39,99.39,0,0,0,13-1.19c1.08-.2,2.18-.34,3.26-.58l3.25-.7,3.22-.86c1.08-.28,2.13-.66,3.19-1a74.76,74.76,0,0,0,12.26-5.3,65.13,65.13,0,0,0,10.83-7.5,90.4,90.4,0,0,0,14.65-16c1-1.49,2.08-3,3-4.52l.73-1.16c.24-.38.48-.77.69-1.17l1.35-2.39c.46-.79.84-1.63,1.27-2.45l.63-1.24c.21-.41.39-.84.58-1.26l1.16-2.55,1.05-2.63c.18-.4.39-.8.56-1.22l.5-1.24c.34-.82.69-1.65,1-2.48C1035.22,581.18,1036.11,577.36,1035.2,577.16Z" transform="translate(-45 -29.44)"/><circle class="cls-3" cx="913.82" cy="530.58" r="61"/><path class="cls-2" d="M951.75,620.91a59.08,59.08,0,0,0,22-1.34,71.29,71.29,0,0,0,7-2.25c.9-.32,1.67-.67,2.39-1s1.35-.58,2-.85,1.16-.51,1.71-.77l1.64-.83.86-.45.89-.52c.62-.38,1.31-.75,2-1.24l1.28-.86.76-.5.78-.57,1.7-1.25,1.72-1.38a60.12,60.12,0,0,0,5.63-5.31c.57-.62,1.27-1.39,2-2.29.35-.45.72-.91,1.1-1.38l1.06-1.5c.74-1,1.38-2,2-3s1.11-1.85,1.55-2.54c.25-.39.45-.76.64-1.11a66.81,66.81,0,0,0,7.57-19.82,58.15,58.15,0,0,0,1.17-10.44,50.45,50.45,0,0,0-.72-10.12,60.35,60.35,0,0,0-8-21,62.83,62.83,0,0,0-13.57-15.81,61,61,0,0,0-20-11.1,63.67,63.67,0,0,0-19-3.34,64.93,64.93,0,0,0-9.55.54,60.53,60.53,0,0,0-9.33,2,61.82,61.82,0,0,0-32.85,23.74c-.49.73-1,1.45-1.46,2.2l-1.35,2.24c-.41.76-.81,1.53-1.21,2.28s-.74,1.55-1.1,2.32a59.57,59.57,0,0,0-3.36,9.53,65.9,65.9,0,0,0,.89,36.06,64.2,64.2,0,0,0,3.18,7.9c.28.63.62,1.21.92,1.8s.6,1.16.93,1.71c.66,1.08,1.25,2.14,1.9,3.06a54.73,54.73,0,0,0,5.24,6.9l1.34,1.48,1.39,1.39c.91.93,1.91,1.76,2.88,2.65A65.25,65.25,0,0,0,933.69,616a54.62,54.62,0,0,0,8.13,2.9,13.75,13.75,0,0,0,3.65.67,16.59,16.59,0,0,0-3.44-1.16,77.39,77.39,0,0,1-8.07-3A59.84,59.84,0,0,1,923,609a58.48,58.48,0,0,1-8-7.08,62.32,62.32,0,0,1-12.12-18.79,60.68,60.68,0,0,1-4.53-22.21v-2.44c0-.83.07-1.67.11-2.54s.17-1.76.25-2.66.26-1.83.39-2.78a60.12,60.12,0,0,1,10.29-24.9,58.76,58.76,0,0,1,4.74-5.94c1.34-1.51,2.49-2.58,3.43-3.51a52.26,52.26,0,0,1,5.16-4.23,54.3,54.3,0,0,1,8.19-4.91,67.67,67.67,0,0,1,8.17-3.4,61.73,61.73,0,0,1,21-3.37,58.87,58.87,0,0,1,10.08,1A55.94,55.94,0,0,1,980,504a57,57,0,0,1,17.34,10.31,61.18,61.18,0,0,1,6.42,6.46,68.24,68.24,0,0,1,5.45,7.33,60.83,60.83,0,0,1,7.64,18.39,62.44,62.44,0,0,1,0,29.15,61.49,61.49,0,0,1-3.62,10.64,47.78,47.78,0,0,1-2.71,5.28,60.91,60.91,0,0,1-4.1,5.86c-.76.92-1.5,1.84-2.29,2.72s-1.56,1.77-2.4,2.58a60.28,60.28,0,0,1-9.74,8,61.76,61.76,0,0,1-9,4.91c-.8.33-1.58.69-2.38,1l-2.42.88-2.47.77c-.83.25-1.67.45-2.5.67a62.31,62.31,0,0,1-10.61,1.66,56.36,56.36,0,0,1-10.71-.22l-2.3-.39-1.06-.13-1-.17a6.53,6.53,0,0,0-2.11-.2c-.06.12.5.31,1.57.57A42.54,42.54,0,0,0,951.75,620.91Z" transform="translate(-45 -29.44)"/><path class="cls-2" d="M948.63,593.45l2-8.89a51.14,51.14,0,0,1-7.12-2.91,30.36,30.36,0,0,1-5.33-3.27l3.58-11.28a35.4,35.4,0,0,0,6.89,4.67,29.26,29.26,0,0,0,7,2.68,7.86,7.86,0,0,0,4.63-.08,4,4,0,0,0,2.07-5.27,4.09,4.09,0,0,0-1.46-1.73,44.29,44.29,0,0,0-6-3.75,32.82,32.82,0,0,1-6.67-4.53,12.51,12.51,0,0,1-3.63-5.52,14.11,14.11,0,0,1,0-7.41,15.26,15.26,0,0,1,5.67-9.26q4.31-3.23,11.66-2.48l1.69-7.54L973.2,529l-1.74,7.79a56.58,56.58,0,0,1,5.73,2.57,35.72,35.72,0,0,1,4.46,2.73l-3.54,11.48a29.44,29.44,0,0,0-6.22-4.46,24.44,24.44,0,0,0-6-2.37,7.94,7.94,0,0,0-4.35,0,3.79,3.79,0,0,0-1.27,6.22,26,26,0,0,0,5.08,3.43,42.41,42.41,0,0,1,8.22,5.56,12,12,0,0,1,3.69,5.67,14.42,14.42,0,0,1-.08,7,15.1,15.1,0,0,1-5.45,9.12q-4.1,3.13-11.41,2.69l-2,9.14Z" transform="translate(-45 -29.44)"/><path class="cls-2" d="M959.08,596.82l-11.65-2.61,2-9a50.57,50.57,0,0,1-6.4-2.68,31.36,31.36,0,0,1-5.49-3.37l-.56-.42,4.26-13.4,1.15,1a34.13,34.13,0,0,0,6.69,4.54,28.19,28.19,0,0,0,6.78,2.6,6.92,6.92,0,0,0,4.08-.06,3,3,0,0,0,1.46-3.92,3,3,0,0,0-1.09-1.3,44.06,44.06,0,0,0-5.91-3.69,34.12,34.12,0,0,1-6.87-4.67,13.51,13.51,0,0,1-3.92-6,15.22,15.22,0,0,1,0-8,16.17,16.17,0,0,1,6-9.79c2.9-2.17,6.75-3.1,11.49-2.76l1.71-7.66,11.54,2.55-1.77,7.93c1.71.69,3.4,1.46,5,2.3a35.79,35.79,0,0,1,4.58,2.81l.59.42-4.23,13.69-1.16-1.09a28.69,28.69,0,0,0-6-4.31,23.44,23.44,0,0,0-5.77-2.28,7,7,0,0,0-3.83,0,2.8,2.8,0,0,0-1.47,3.61,3,3,0,0,0,.63.94,24.9,24.9,0,0,0,4.83,3.25,43.62,43.62,0,0,1,8.41,5.69,13,13,0,0,1,4,6.14,15.51,15.51,0,0,1-.07,7.54,16,16,0,0,1-5.8,9.65c-2.76,2.11-6.53,3.11-11.23,2.95Zm-9.25-4.13,7.73,1.73,2-9,.85.05c4.6.27,8.22-.56,10.74-2.48a14.16,14.16,0,0,0,5.08-8.51,13.74,13.74,0,0,0,.09-6.59,10.92,10.92,0,0,0-3.37-5.14,41.21,41.21,0,0,0-8-5.43,27.71,27.71,0,0,1-5.27-3.56,4.73,4.73,0,0,1-1.12-1.67,4.79,4.79,0,0,1,2.67-6.24,9.08,9.08,0,0,1,5-.09,25.3,25.3,0,0,1,6.23,2.47,30.11,30.11,0,0,1,5.23,3.55l2.87-9.3a33.14,33.14,0,0,0-3.75-2.24,56.88,56.88,0,0,0-5.63-2.53l-.8-.3,1.71-7.66-7.64-1.69-1.67,7.44-.88-.1c-4.62-.46-8.31.3-11,2.29a14.24,14.24,0,0,0-5.29,8.64,13.4,13.4,0,0,0,0,7,11.42,11.42,0,0,0,3.32,5,31.65,31.65,0,0,0,6.47,4.39,45.38,45.38,0,0,1,6.14,3.84,4.88,4.88,0,0,1,1.77,2.13,5,5,0,0,1-2.58,6.59,9,9,0,0,1-5.3.12,30.16,30.16,0,0,1-7.2-2.76,36.28,36.28,0,0,1-5.92-3.83L939.35,578a29.2,29.2,0,0,0,4.59,2.75,49.91,49.91,0,0,0,7,2.86l.87.28Z" transform="translate(-45 -29.44)"/><path class="cls-2" d="M853.43,1069.26c-24.7.58-49.4.85-74.09,1s-49.39.33-74.09.11l-37-.44-18.52-.23-18.52-.1c-12.35-.1-24.7,0-37,0s-24.69.21-37,.31q-37.05.45-74.09.62c-24.7.11-49.39.24-74.09.2-49.39-.16-98.79-.53-148.18-1.53v-.32c49.39-1,98.79-1.36,148.18-1.52,24.7,0,49.39.09,74.09.2s49.39.31,74.09.62c12.35.1,24.7.3,37,.31s24.7.11,37,0l18.52-.1,18.52-.23,37-.43c24.7-.23,49.39,0,74.09.1s49.39.48,74.09,1Z" transform="translate(-45 -29.44)"/><path class="cls-5" d="M790.17,1069.1,723.33,876.26c-3.7-10.68-14.73-16.3-24.9-12.67L491.49,937.43c-10.5,3.74-16.06,15.9-12.36,27l35,104.69Z" transform="translate(-45 -29.44)"/><rect class="cls-2" x="232.62" y="416.38" width="588.76" height="301.94" rx="51.16" transform="translate(-232.58 836.22) rotate(-69.77)"/><path class="cls-4" d="M536.54,861.58a30.94,30.94,0,0,1-10.77-1.94L340.39,791.31a31.16,31.16,0,0,1-18.46-40L490.18,294.87a31.12,31.12,0,0,1,40-18.47h0l185.38,68.34a31.15,31.15,0,0,1,18.46,40h0L565.78,841.18A31.27,31.27,0,0,1,536.54,861.58Z" transform="translate(-45 -29.44)"/><path class="cls-4" d="M698.43,863.59,673,791s53.53-86,57.91-107S750,586.7,748.72,556.44s7.57-81.35,11.35-87,7.57-17,0-20.81-21.44-1.26-31.53,7.57-34,47.29-35.94,78.82-19.55,71.23-29.6,78.8S603.69,672.46,604.32,745c0,0,3.56,30.27-2.11,42.25l-23.37,60a51.1,51.1,0,0,1-66.14,29.11l-.28-.11L478,862.48l20.51,72.45" transform="translate(-45 -29.44)"/><path class="cls-2" d="M698.29,863.64l-13.14-36.15-13-36.19a.88.88,0,0,1,.07-.74h0Q683.89,771.44,695.1,752c7.46-13,14.9-26,21.74-39.19,3.41-6.63,6.78-13.3,9.62-20.13.72-1.71,1.38-3.43,2-5.16.27-.86.6-1.73.78-2.59l.33-1.29.28-1.37,2.17-11c2.83-14.68,5.56-29.37,8-44.11,1.23-7.37,2.35-14.75,3.43-22.14s2.08-14.79,2.85-22.21,1.4-14.85,1.5-22.26c0-3.68-.13-7.47-.07-11.23s.19-7.51.42-11.25a420.48,420.48,0,0,1,5.42-44.6c.65-3.69,1.35-7.37,2.14-11a97.83,97.83,0,0,1,2.88-10.91,12.24,12.24,0,0,1,1.24-2.64,20.3,20.3,0,0,0,1.37-2.38,28.37,28.37,0,0,0,2-5.11,18.49,18.49,0,0,0,.74-5.38,8.46,8.46,0,0,0-1.6-5,8.79,8.79,0,0,0-4.42-2.79,18.27,18.27,0,0,0-5.39-.84,31.67,31.67,0,0,0-10.83,1.78,37.64,37.64,0,0,0-9.8,5A38.18,38.18,0,0,0,724,462a138.84,138.84,0,0,0-12.28,18.64,183.19,183.19,0,0,0-9.64,20.14A127.83,127.83,0,0,0,695.39,522a85.11,85.11,0,0,0-1.65,11c-.2,1.82-.31,3.72-.46,5.6s-.39,3.75-.63,5.62a179.52,179.52,0,0,1-12.19,43.35,123.53,123.53,0,0,1-10.39,20.12,43.34,43.34,0,0,1-3.5,4.61,20.11,20.11,0,0,1-2.11,2.12c-.84.72-1.46,1.14-2.17,1.78a102.64,102.64,0,0,0-7.86,7.75,191.88,191.88,0,0,0-25.88,36,183.59,183.59,0,0,0-16.82,41.06A167.15,167.15,0,0,0,606,745v-.18c.4,3.6.66,7.15.85,10.74s.26,7.17.23,10.76a95.55,95.55,0,0,1-.67,10.83,36.3,36.3,0,0,1-2.7,10.8v-.1l-16.57,42.34L583,840.73c-1.41,3.53-2.68,7-4.39,10.6l-.61,1.33-.74,1.26-1.47,2.53a21.76,21.76,0,0,1-1.64,2.41l-1.72,2.36c-.61.76-1.28,1.47-1.92,2.2a26.94,26.94,0,0,1-2,2.15l-2.14,2a22.16,22.16,0,0,1-2.22,1.89,53.76,53.76,0,0,1-20.8,10.1,51,51,0,0,1-23.08.11l-2.82-.67c-.94-.25-1.84-.61-2.76-.91l-2.74-1L509.32,876l-10.55-4.26-21.08-8.52,1.13-1,9.95,36.31,9.89,36.33a.15.15,0,0,1-.15.17.14.14,0,0,1-.15-.08l-10.61-36.13-10.56-36.13a.85.85,0,0,1,.56-1.05h0a.83.83,0,0,1,.54,0h0l21.2,8.23L510.1,874l2.65,1,2.64.88c.89.27,1.75.61,2.65.84l2.71.6a49.08,49.08,0,0,0,22-.31,50.81,50.81,0,0,0,19.69-9.76,18.86,18.86,0,0,0,2.08-1.81l2-1.89c.67-.64,1.23-1.37,1.85-2a26.36,26.36,0,0,0,1.81-2.09l1.6-2.25a21,21,0,0,0,1.54-2.3l1.37-2.4.68-1.19.57-1.26c1.55-3.3,2.84-6.92,4.22-10.44L584.25,829l16.46-42.4v-.08h0a33.55,33.55,0,0,0,2.4-9.82,93.65,93.65,0,0,0,.62-10.46c0-3.52,0-7-.24-10.56s-.46-7.06-.85-10.52h0V745a165,165,0,0,1,5.9-44.8,186.86,186.86,0,0,1,17.3-41.7A195.12,195.12,0,0,1,652.33,622a98.66,98.66,0,0,1,8.18-7.92c.69-.61,1.6-1.26,2.18-1.76a17.86,17.86,0,0,0,1.86-1.83,40.57,40.57,0,0,0,3.32-4.29,120.26,120.26,0,0,0,10.36-19.59,176.44,176.44,0,0,0,12.47-42.68c.26-1.84.5-3.68.68-5.52s.29-3.68.51-5.58a89.77,89.77,0,0,1,1.81-11.18,128.21,128.21,0,0,1,7-21.44A183.55,183.55,0,0,1,710.62,480a147.66,147.66,0,0,1,12.5-18.72c.56-.75,1.2-1.45,1.83-2.16s1.26-1.41,1.94-2.07a22.45,22.45,0,0,1,2.11-1.91l1.1-.9,1.15-.83a38.65,38.65,0,0,1,10.1-5.14,32,32,0,0,1,11.19-1.8,19.7,19.7,0,0,1,5.65.92,9.76,9.76,0,0,1,4.89,3.11,9.39,9.39,0,0,1,1.82,5.5,18.58,18.58,0,0,1-.74,5.69,28.14,28.14,0,0,1-2.08,5.31q-.65,1.28-1.41,2.49a10.85,10.85,0,0,0-1.12,2.42,97.53,97.53,0,0,0-2.77,10.79c-.77,3.65-1.45,7.32-2.08,11q-1.86,11-3.09,22.18c-.82,7.42-1.45,14.87-1.81,22.31-.18,3.73-.27,7.46-.27,11.17s.21,7.41.23,11.21c0,7.54-.48,15-1.22,22.5S746.93,598,746,605.39s-2.14,14.82-3.34,22.21c-2.4,14.78-5,29.53-7.89,44.21l-2.23,11-.29,1.38-.36,1.42c-.22,1-.56,1.85-.85,2.77-.63,1.81-1.31,3.58-2.06,5.32-2.93,7-6.35,13.64-9.82,20.29-14,26.49-29.56,52.09-45.42,77.48l.08-.76,12.46,36.39,12.34,36.42a.15.15,0,0,1-.08.19h0a.14.14,0,0,1-.2,0A.21.21,0,0,1,698.29,863.64Z" transform="translate(-45 -29.44)"/><path class="cls-4" d="M396.8,444.53a21.18,21.18,0,0,1,1-19.28h0a21.21,21.21,0,0,1,29-7.79l0,0,18.48,10.66a21.24,21.24,0,0,1,7.77,29h0a21.24,21.24,0,0,1-29,7.77l-16.68-9.63-6.61,20.8c3.61-9.79-3.94-31.55-3.94-31.55" transform="translate(-45 -29.44)"/><path class="cls-2" d="M396.7,444.57a21,21,0,0,1-2.19-9.84A21.66,21.66,0,0,1,414,413.83a21,21,0,0,1,10.28,1.44,17.54,17.54,0,0,1,2.36,1.12c.79.4,1.46.84,2.19,1.27l4.29,2.61,8.58,5.21c1.43.88,2.87,1.72,4.29,2.63a17.87,17.87,0,0,1,2.07,1.5l1,.81.9.9a21.94,21.94,0,0,1-5.46,34.95,22.37,22.37,0,0,1-10.08,2.44,22.06,22.06,0,0,1-10.1-2.5c-5.94-3.25-11.68-6.6-17.49-9.95l1.64-.63L405.06,466l-3.45,10.35-1.7-.58a21.39,21.39,0,0,0,1-7.62,55.34,55.34,0,0,0-.69-7.92,125.32,125.32,0,0,0-3.51-15.67.1.1,0,0,1,.06-.13h0a.11.11,0,0,1,.12.07c1,2.51,1.79,5.07,2.56,7.66s1.4,5.21,1.93,7.86a54.85,54.85,0,0,1,1.08,8.08,22.35,22.35,0,0,1-.88,8.29.9.9,0,0,1-1.71-.55h0L403,465.39,406.28,455a1.11,1.11,0,0,1,1.39-.73h0a1.22,1.22,0,0,1,.24.1l17.33,10.06a20,20,0,0,0,9.16,2.41,21.07,21.07,0,0,0,9.31-2,21.36,21.36,0,0,0,7.47-6,20.55,20.55,0,0,0,3.94-8.85,19.83,19.83,0,0,0-.62-9.73,21.16,21.16,0,0,0-2-4.51,21.6,21.6,0,0,0-3.08-3.85l-.89-.86-1-.76a19.72,19.72,0,0,0-2-1.38c-1.41-.86-2.92-1.62-4.38-2.44l-8.81-4.82-4.4-2.42c-.73-.38-1.47-.85-2.18-1.18a17.44,17.44,0,0,0-2.2-1,20.64,20.64,0,0,0-18.43,1.78,21,21,0,0,0-8.25,25.74.11.11,0,0,1,0,.15.1.1,0,0,1-.15,0l0,0Z" transform="translate(-45 -29.44)"/><path class="cls-4" d="M439.84,367.19a24.22,24.22,0,0,1-4.58-5.74l-21.89-37.91a24.54,24.54,0,0,1,9-33.51h0a24.53,24.53,0,0,1,33.5,9l5.57,9.64" transform="translate(-45 -29.44)"/><path class="cls-2" d="M439.77,367.27a24.3,24.3,0,0,1-5.66-6.7c-1.56-2.46-3.07-4.93-4.58-7.41-3-5-6-10-8.76-15.05l-8.2-15.39a26.83,26.83,0,0,1-2.66-8.37,26.13,26.13,0,0,1,.29-8.82,24.66,24.66,0,0,1,9.39-14.88,26.36,26.36,0,0,1,8.09-4,24.56,24.56,0,0,1,24.94,6.83,30.43,30.43,0,0,1,4.91,7.38c1.33,2.57,2.67,5.16,4,7.75a.11.11,0,0,1,0,.14.11.11,0,0,1-.13,0q-2.42-3.64-4.73-7.33l-1.15-1.84c-.4-.61-.81-1.17-1.21-1.75a19.16,19.16,0,0,0-1.34-1.64,15,15,0,0,0-1.46-1.52,24.27,24.27,0,0,0-30.68-2.37,24.69,24.69,0,0,0-9.44,13.54,23.5,23.5,0,0,0-.7,8.47,22.45,22.45,0,0,0,2.56,8.14c1.37,2.53,3,5,4.51,7.44l4.6,7.39c3,5,5.85,10,8.66,15.11,1.39,2.54,2.78,5.1,4.13,7.67a37.19,37.19,0,0,0,2.13,3.74,27.21,27.21,0,0,0,2.7,3.36.1.1,0,0,1,0,.14h0a.09.09,0,0,1-.13,0S439.77,367.29,439.77,367.27Z" transform="translate(-45 -29.44)"/><rect class="cls-3" x="176.35" y="143.74" width="197.49" height="123.5" rx="4.33" transform="translate(-111.2 138.44) rotate(-30.47)"/><path class="cls-2" d="M387.8,210.89c-.23-.38-3.45,1.59-8.82,4.75-44.17,26-87.29,51-132.21,76.88q-8,4.61-15.75,9.21l-3.89,2.3-1.92,1.14-.49.28-.24.15-.19.1a3.54,3.54,0,0,1-.76.3,3.26,3.26,0,0,1-3-.92c-.09-.1-.17-.22-.27-.32l-.11-.17-.06-.09-.08-.11-.57-.93c-.37-.63-.75-1.27-1.14-1.9l-18.1-30.16c-11.74-19.69-21.55-36.6-33.57-57.31l-2.76-4.67c-.45-.78-.92-1.56-1.36-2.35l-.69-1.17-.16-.29-.12-.24a1.09,1.09,0,0,1-.1-.25,1.06,1.06,0,0,1-.09-.25,3.36,3.36,0,0,1,1.35-3.75l.23-.15.3-.17.59-.34,1.19-.69,2.37-1.38,19.15-11.18c12.82-7.5,25.69-15.08,38.27-22.62,27-16.17,49.88-28.53,77.65-44.91q8.61-5.07,17.32-10.32l4.36-2.63,1.08-.65.55-.33.13-.08h.1l.19-.1a3.3,3.3,0,0,1,.81-.25,3,3,0,0,1,.85,0,2.87,2.87,0,0,1,1.53.72,3,3,0,0,1,.56.68l.67,1.1,2.65,4.36c7.06,11.64,14.16,23.29,21.08,34.79,11.3,18.76,22,36.62,33.06,55.43.31.54.63,1.08.92,1.61.15.27.3.53.46.79l.23.39c.05.12.13.24.18.36a4.09,4.09,0,0,1,.18,2.88,4.56,4.56,0,0,1-1.07,1.84c-.36.37-.61.57-.55.65s.1.06.22,0a1.52,1.52,0,0,0,.5-.23,4,4,0,0,0,1.35-1.59,4.65,4.65,0,0,0,.22-3.32,5.85,5.85,0,0,0-.41-.92l-.52-.92L387.93,202c-17-28.93-32.71-56.75-50.09-85.68l-5.48-9.2L331.7,106a6.38,6.38,0,0,0-.82-1.16,4.88,4.88,0,0,0-5.34-1.25,5.51,5.51,0,0,0-.65.31l-.56.32-1.11.65L305.88,115c-11.42,6.64-22.67,13.2-34.43,20.3-14.11,8.52-25.13,14.3-38.52,22.09C217.29,166.54,204.32,174.65,188,184c-5.45,3.13-10.73,6.22-15.9,9.3l-7.71,4.6L162.57,199l-.48.29-.12.07-.14.09-.28.19a4.72,4.72,0,0,0-.92.92,5.13,5.13,0,0,0-.83,5,4,4,0,0,0,.26.6l.16.29.15.24.57.92,1.16,1.9,2.3,3.83,4.6,7.71c3.1,5.19,6.24,10.47,9.43,16,11.86,20.38,23,40.09,34.26,59.69l4.21,7.36.53.92.26.46.13.23c0,.07.12.19.18.29a5.53,5.53,0,0,0,2.05,1.91,5.8,5.8,0,0,0,5.46.1l.31-.16.23-.13.46-.27.92-.53,1.84-1.06,3.68-2.13,7.36-4.28c9.83-5.73,19.7-11.56,29.68-17.59,18-10.86,37.65-22.17,56-33.53,15.58-9.63,30.74-18.84,47.4-28.73l5.94-3.41C383.67,213.74,388,211.2,387.8,210.89Z" transform="translate(-45 -29.44)"/><rect class="cls-3" x="101.45" y="117.11" width="237.44" height="148.49" rx="4.33" transform="translate(-99.21 62.89) rotate(-21.15)"/><path class="cls-2" d="M353.66,219.32c-.16-.42-4.38,1.29-11.38,4C284.7,245.6,228.6,267,170.19,289.09Q159.79,293,149.66,297l-10,3.9a3.2,3.2,0,0,1-3.54-1.18,3.74,3.74,0,0,1-.27-.42c-.06-.15-.13-.29-.22-.52l-.49-1.24c-.33-.84-.65-1.67-1-2.49-5.25-13.27-10.43-26.35-15.58-39.39C108.44,229.92,100.08,207.91,89.8,181q-2.31-6.06-4.6-12.2a2.12,2.12,0,0,1-.11-.33,1.58,1.58,0,0,1-.09-.31,3.06,3.06,0,0,1,0-.32v-.32a3.37,3.37,0,0,1,1.91-3.09l.32-.13.38-.15.77-.29,1.54-.59L93,162l24.94-9.55c16.7-6.44,33.47-12.93,49.91-19.41,35.3-13.92,64.81-24.35,101-38.38l22.54-8.88,5.69-2.26,2.85-1.13.7-.29.25-.08.25,0a2.91,2.91,0,0,1,1,0,2.85,2.85,0,0,1,1.78,1,3.19,3.19,0,0,1,.3.42l.12.23.12.29.57,1.43c.76,1.9,1.53,3.8,2.28,5.7,6.09,15.23,12.22,30.47,18.19,45.51,9.72,24.53,18.93,47.85,28.41,72.36l1.61,4.14c.12.33.26.67.35.92a3.69,3.69,0,0,1,.2.92,3.89,3.89,0,0,1-.19,1.66,4.38,4.38,0,0,1-1.44,2c-.49.4-.83.56-.79.66s.1.06.25,0l.27-.07.35-.14a4,4,0,0,0,1.76-1.79,4.76,4.76,0,0,0,.44-2.85,1.65,1.65,0,0,0-.14-.56c-.06-.18-.12-.37-.18-.54l-1.84-4.7C340,170.91,326.61,134.83,311.64,97q-2.38-6.09-4.7-12c-.19-.49-.38-1-.57-1.47a6.49,6.49,0,0,0-.74-1.52,4.87,4.87,0,0,0-2.83-2,5.1,5.1,0,0,0-1.74-.11,4.74,4.74,0,0,0-.85.17l-.41.14-.36.14-2.88,1.11L274,90.23c-14.86,5.71-29.51,11.32-44.88,17.44C210.64,115,196.47,119.86,179,126.53c-20.41,7.82-37.41,14.85-58.58,22.79-7.09,2.66-14,5.32-20.72,8q-5.05,2-10.06,3.95l-2.49,1-.63.25-.16.06-.18.08-.37.17a5.76,5.76,0,0,0-1.28,1,5.28,5.28,0,0,0-1.39,4.42,5.58,5.58,0,0,0,.2.78,1.2,1.2,0,0,0,.12.35l.12.32c5.3,13.29,10.61,26.6,16.06,40.89,10.13,26.54,19.65,52.11,29.22,77.59l3.6,9.55.45,1.19.22.59.12.31.06.14.08.2a5.79,5.79,0,0,0,5.37,3.53,5.45,5.45,0,0,0,1.7-.27l.2-.07.18-.06.3-.11.6-.23L161,295.64c12.78-4.9,25.65-9.91,38.71-15.11,23.51-9.36,49.08-19,73.18-28.83,20.44-8.34,40.27-16.28,62-24.78l7.73-2.9C348.17,221.8,353.78,219.65,353.66,219.32Z" transform="translate(-45 -29.44)"/><rect class="cls-6" x="65.13" y="105.84" width="237.44" height="148.49" rx="4.33" transform="translate(-107.14 75.03) rotate(-27.32)"/><path class="cls-2" d="M319.57,193.58c-.21-.4-4.23,1.75-10.89,5.19-54.86,28.34-108.34,55.64-164,83.88q-9.93,5-19.58,10l-9.54,4.95a3.26,3.26,0,0,1-2,.19,3.4,3.4,0,0,1-2-1.37c-.08-.15-.16-.27-.27-.49l-.62-1.18-1.25-2.38-19.7-37.49c-12.81-24.47-23.51-45.44-36.62-71.15q-2.94-5.78-5.94-11.61l-.15-.32a2.83,2.83,0,0,1-.11-.31c0-.1-.06-.2-.08-.3a1.25,1.25,0,0,1,0-.32,3.19,3.19,0,0,1,.08-1.27,3.35,3.35,0,0,1,1.49-2l.28-.17.37-.18.74-.38,1.47-.75,2.95-1.51,23.77-12.18c15.91-8.18,31.89-16.45,47.53-24.66,33.66-17.62,61.83-31.17,96.31-49q10.69-5.53,21.52-11.25l5.43-2.85,2.7-1.44.67-.35.23-.11.25-.08a2.9,2.9,0,0,1,1-.13,2.93,2.93,0,0,1,1.84.79,1.9,1.9,0,0,1,.35.4,1.07,1.07,0,0,1,.15.22l.15.26.73,1.36L259.68,71c7.69,14.48,15.42,29,23,43.25,12.31,23.35,23.92,45.54,36,68.89.69,1.35,1.38,2.69,2,3.94.16.32.34.64.46.92a4,4,0,0,1,.3.92,4.27,4.27,0,0,1,0,1.67,4.5,4.5,0,0,1-1.22,2.2c-.44.44-.76.64-.72.73s.11,0,.26,0,.16,0,.26-.1l.33-.18a4.07,4.07,0,0,0,1.55-2,4.46,4.46,0,0,0,.31-1.84,4.78,4.78,0,0,0-.17-1.06,5.62,5.62,0,0,0-.19-.53,5,5,0,0,0-.25-.52l-2.32-4.48C300.75,147,283.6,112.5,264.66,76.52q-3-5.79-6-11.4L258,63.73a6.41,6.41,0,0,0-.92-1.44,4.86,4.86,0,0,0-4.76-1.57,3.94,3.94,0,0,0-.82.27l-.4.17-.34.19L248,62.75,226.5,73.85C212.33,81.1,198.37,88.26,183.73,96c-17.56,9.29-31.12,15.65-47.74,24.13-19.46,10-35.59,18.79-55.8,29-6.77,3.41-13.32,6.79-19.75,10.12l-9.58,5-2.37,1.26-.6.31-.13.08-.17.1-.34.21a5.22,5.22,0,0,0-2.25,4,5.63,5.63,0,0,0,.17,1.58,6.61,6.61,0,0,0,.28.74l.17.35.15.3c6.68,12.64,13.39,25.31,20.36,38.93,12.88,25.29,25.13,49.69,37.39,74l4.6,9.1.58,1.14.29.57.14.29.08.13.1.2a5.7,5.7,0,0,0,2.42,2.32,5.88,5.88,0,0,0,3.32.6,5.68,5.68,0,0,0,1.66-.45l.19-.09.18-.08.28-.15.57-.29,18.18-9.3c12.18-6.25,24.44-12.61,36.87-19.18,22.36-11.83,46.76-24.17,69.65-36.53,19.43-10.49,38.3-20.51,59-31.29l7.37-3.68C314.38,196.63,319.72,193.89,319.57,193.58Z" transform="translate(-45 -29.44)"/><rect class="cls-3" x="97.19" y="178.88" width="44.22" height="32.51" rx="4.33" transform="translate(-121.25 47.08) rotate(-27.32)"/><path class="cls-2" d="M143.79,200.66a4.6,4.6,0,0,0,1.18-2.24,4.41,4.41,0,0,0-.22-2.54,11.53,11.53,0,0,0-.52-1.06l-.55-1c-.37-.67-.72-1.34-1.09-2L141,188.69c-.34-.67-.92-1.84-1.28-2.51-.64-1.29-.69-1.18-1.33-2.46s-1.28-2.61-1.92-3.91-1.38-2.72-2.06-4.07l-.48-.92-.25-.48a5,5,0,0,0-.29-.5,4.6,4.6,0,0,0-1.67-1.52,5.43,5.43,0,0,0-1.16-.44,5.24,5.24,0,0,0-1.25-.1,4.31,4.31,0,0,0-1.22.23,3.23,3.23,0,0,0-.58.24,5.12,5.12,0,0,0-.52.27l-4.94,2.56c-1.47.79-2.92,1.52-4.4,2.26-2.46,1.18-4.91,2.33-7.37,3.46l-4.78,2.27c-1.06.51-2.12,1-3.17,1.57l-.73.36-2.2,1.13c-.92.47-1.88,1-2.81,1.54l-.7.42-.37.22a3.39,3.39,0,0,0-.39.27,5.24,5.24,0,0,0-1.23,1.34l-.25.4-.21.42a5,5,0,0,0-.4,1.53,4.62,4.62,0,0,0,.37,2.32c.18.4.34.68.52,1l.51.92c.79,1.48,1.58,3,2.38,4.44s1.62,2.9,2.43,4.36,1.49,2.7,2.23,4.06l2.45,4.5,1,1.92a4.56,4.56,0,0,0,1.4,1.68,4.44,4.44,0,0,0,2,.83,4.5,4.5,0,0,0,2.18-.22,10.25,10.25,0,0,0,1.06-.5l1-.51,2-1,4.08-2.09c2.76-1.45,5.52-3,8.34-4.46,1.84-.92,3.68-1.78,5.43-2.72,2.53-1.24,4.6-2.45,7.62-4a9.49,9.49,0,0,0,2.38-1.4,10,10,0,0,0-2.52,1.13c-3.85,2-5.73,2.76-9.35,4.6L124,210.54c-1.84.92-3.68,1.79-5.52,2.76-2.52,1.31-2.92,1.53-3.89,2-1.48.7-2.55,1.13-3.83,1.78a3.59,3.59,0,0,1-2,.4,3.51,3.51,0,0,1-1.89-.69,3.37,3.37,0,0,1-.7-.66,5.68,5.68,0,0,1-.54-.92l-1.08-2.07c-.71-1.38-1.41-2.76-2.08-4.16s-1.22-2.52-1.84-3.76-1.36-2.76-2.07-4.12-1.4-2.76-2.16-4.07c-.34-.58-.65-1.19-1-1.79l-.46-.92c-.07-.13-.13-.25-.19-.39a2.92,2.92,0,0,1-.14-.38,3.32,3.32,0,0,1-.1-1.5v-.1a3.78,3.78,0,0,1,1.43-2.09,1.63,1.63,0,0,1,.35-.23l.19-.1.23-.12.92-.46c1.25-.63,1.69-.87,2.76-1.5l2.33-1.27c.6-.33,1.23-.59,1.84-.92,1.16-.64,2.27-1.33,3.43-2l1.84-.92,2.88-1.44,6.12-3c2-1,3.91-2,5.81-3.07l2.76-1.45a6.18,6.18,0,0,1,1.29-.57,3.72,3.72,0,0,1,1.33-.12,3.77,3.77,0,0,1,2.26,1,4.35,4.35,0,0,1,.76,1l.66,1.29c.5,1,1.07,1.93,1.57,2.9l1.27,2.47c.92,1.84,1.84,3.46,2.76,5.26.49,1,1,1.94,1.48,2.87s1,1.67,1.49,2.46.71,1.38,1.08,2.07l.54,1c.18.35.36.7.5,1a4.76,4.76,0,0,1,.27,1.16,4.27,4.27,0,0,1-.06,1.13,4.1,4.1,0,0,1-1.05,2.07,6.78,6.78,0,0,1-.69.62c-.22.16-.37.29-.35.33S143.13,201.34,143.79,200.66Z" transform="translate(-45 -29.44)"/><polyline class="cls-3" points="60.76 159.52 69.75 176.92 83.22 169.96 78.72 161.26"/><path class="cls-2" d="M123.93,191.43c.4.75.7,1.56,1.14,2.3a19.1,19.1,0,0,1,1,2.09c.19.37.6,1.23.79,1.6s.63.92.8,1.3l.06.13a2.62,2.62,0,0,1,.19.46c-.28.1-.41.11-.79.25l-1,.35a14,14,0,0,0-1.84.76c-.77.39-1.47.92-2.22,1.32L120,203.2l-2.29,1.33c-.65.36-1.29.69-2,1l-.52.25-.29.13-.1-.23,0-.13-.1-.21c-.7-1.42-1.41-2.82-2.14-4.23s-1.66-2.62-2.4-4.07c-.47-.92-1.12-2.43-1.62-3.35-.62-1.32-1.14-2-1.92-3.52-.34-.68-.68-1.26-.8-1.2s.16.64.52,1.33c1,2,1.46,2.94,2.41,4.81.45.92.92,1.84,1.76,3.48.49.92.87,1.93,1.37,2.88.68,1.3.8,1.51,1,2,.33.79.52,1.36.84,2l.3.61.54,1,1-.55.59-.32c1.4-.76,2.83-1.54,4.28-2.19.66-.29,1.31-.6,2-.92s1.42-.68,2.13-1.05,1.47-.83,2.15-1.26l.92-.62.22-.14.31-.2.52-.33-.68-1.11c-.25-.51-.49-1-.77-1.49s-.46-.92-.69-1.3l-1.12-2.2c-.42-.8-.79-1.42-1.2-2.21-.16-.31-.37-.64-.46-.61S123.72,191,123.93,191.43Z" transform="translate(-45 -29.44)"/><line class="cls-1" x1="71.05" y1="159.43" x2="82.63" y2="153.45"/><path class="cls-2" d="M127.37,182.87a3.25,3.25,0,0,0-.69.29c-.34.26-.43.14-.64.25l-.48.21c-.1.06-.24.27-.34.31h0c-.45.16-1.09,0-1.48.19a3.62,3.62,0,0,0-.6.5c-.18.15-.38.28-.57.42l-.63.45a4.56,4.56,0,0,1-.58.3l-.6.24a13,13,0,0,0-1.25.59c-.41.21-.68.67-1.11.87-.27.13-.74.26-1,.4s-.54.41-1,.63c-.21.09-.36.22-.3.33s.24.06.44,0c.57-.31.87-.4,1.42-.68.26-.11.56-.24,1-.48.28-.15.6-.19.92-.33a2.57,2.57,0,0,1,.56-.26,5.13,5.13,0,0,0,.66-.13,5.75,5.75,0,0,0,.65-.34A5,5,0,0,1,123,186a3.32,3.32,0,0,0,.59-.24c.2-.11.43-.16.64-.27a6.07,6.07,0,0,0,1.17-1.15,2.26,2.26,0,0,0,.44-.22c.11-.09.26-.14.37-.22l.62-.35c.24-.11.4-.25.63-.37s.18-.13.13-.21S127.49,182.81,127.37,182.87Z" transform="translate(-45 -29.44)"/><path class="cls-2" d="M254.83,183.44,256.39,203l-4.4,2.28-10-11.14a2,2,0,0,0-1.72-.92,19.62,19.62,0,0,0-4.81.76l-.15-.52,7.1-3.68a2.19,2.19,0,0,1,2.76.64l6.56,8.41-1.32-13.19Zm22.86,1.93c-2.18-4.26-8.2-1.44-9.14-3.37-.29-.57-.06-1.48,1.07-2.25a8.77,8.77,0,0,1,4.48-1.41l-1-3.79a12.7,12.7,0,0,0-4.26,1.3c-4.13,2.12-5.89,5.81-4.3,9,1.18,2.33,3.94,2.54,5.91,2.5s2.84.18,3.2.92c.54,1.08-.49,2.21-1.68,2.86a9.83,9.83,0,0,1-4.81,1.19l1.07,3.92a14.19,14.19,0,0,0,5.08-1.54c4.37-2.26,6.12-5.9,4.41-9.26m13.59-.36,3.85-2-11.72-14.41-3.56,1.84a2.14,2.14,0,0,0-1.16,2.1l1.45,18.15,4.38-2.26-.37-2.86,5.34-2.76Zm-7.6-3.3-.92-7.18,4.39,5.39Zm-22.9-1.35,4.87,17.89-4.16,2.15-4.88-17.88Z" transform="translate(-45 -29.44)"/><path class="cls-2" d="M251.89,205.88l-10.21-11.4a1.58,1.58,0,0,0-1.37-.77,19.19,19.19,0,0,0-4.69.74l-.44.12-.38-1.31,7.43-3.86a2.63,2.63,0,0,1,3.34.78l5.57,7.15L250,185.4l5.28-2.68,1.64,20.58Zm-11.55-13.09a2.48,2.48,0,0,1,2.07,1.13l9.69,10.81,3.81-2-1.49-18.61-3.49,1.78,1.45,14.46-7.54-9.66a1.72,1.72,0,0,0-2.19-.52l-5.7,3a20.85,20.85,0,0,1,3.34-.39Zm20.85,8.31-5.12-18.79,5-2.59,5.12,18.79Zm-4-18.31,4.63,17,3.33-1.72-4.62-17Zm10.71,13.9-1.33-4.87h.6a9.38,9.38,0,0,0,4.59-1.14c.77-.41,1.94-1.35,1.49-2.25-.22-.45-.76-.71-2.77-.66s-5.05-.19-6.34-2.75c-1.72-3.39.13-7.33,4.49-9.58a13.26,13.26,0,0,1,4.42-1.35l.4,0,1.28,4.73-.58,0a8.36,8.36,0,0,0-4.25,1.34c-.88.61-1.09,1.27-.9,1.66s1.4.53,2.6.53c2.16,0,5.1,0,6.54,2.83l-.82.42c-1.18-2.3-3.59-2.31-5.72-2.33-1.57,0-2.92,0-3.43-1-.33-.69-.22-1.85,1.22-2.84a9.31,9.31,0,0,1,4.16-1.45l-.78-2.86a12.19,12.19,0,0,0-3.72,1.2c-3.88,2-5.56,5.43-4.09,8.34,1.06,2.1,3.64,2.29,5.49,2.25s3.11.13,3.62,1.17c.67,1.34-.46,2.71-1.87,3.47a10.26,10.26,0,0,1-4.43,1.24l.81,3a13.43,13.43,0,0,0,4.52-1.44c4.15-2.14,5.8-5.53,4.22-8.64l.82-.42c1.83,3.61,0,7.49-4.61,9.88a14.41,14.41,0,0,1-5.24,1.58Zm11.88-5.23-1.51-18.84a2.61,2.61,0,0,1,1.41-2.55l3.89-2,12.31,15.14-4.68,2.42-1.79-2.19-4.72,2.44.37,2.86Zm3.55-22.24-3.23,1.67a1.67,1.67,0,0,0-.91,1.65l1.4,17.46,3.48-1.79-.38-2.86,6-3.08,1.79,2.19,3-1.55Zm0,13.23L282.1,173l5.76,7.08Zm.12-6.35.63,4.93,2.38-1.23Z" transform="translate(-45 -29.44)"/><line class="cls-1" x1="80.67" y1="226.22" x2="157.41" y2="186.57"/><path class="cls-2" d="M125.65,255.63c.21.4.64.1,1.38-.29,6.21-3.2,12.36-6.06,18.85-8.88a82.83,82.83,0,0,0,8.46-4.77c2.75-1.59,5.13-2.68,8.09-4,3.54-1.64,7.3-3.4,10.74-5.43,3.68-2.18,7.26-3,11.15-5,3.21-1.68,6.29-3.95,9.41-5.86,2.55-1.57,5-3,7.63-4.37.6-.32,1.22-.61,1.06-.92s-.63-.1-1.38.28c-4.06,2.1-8.2,3.58-12.13,6-3.38,2.05-6.61,3.12-9.79,5.11-1.9,1.2-3.68,1.45-5.58,2.36-2.23,1.07-3.88,2.39-6.25,3.38-3.19,1.3-5.52,3.35-8.66,4.82-5.81,2.76-11.63,4.37-17,7.77-2.42,1.53-5.27,2.77-7.66,4.51a60.19,60.19,0,0,1-6.37,4.12l-.87.35C126.1,255,125.49,255.32,125.65,255.63Z" transform="translate(-45 -29.44)"/><path class="cls-2" d="M184.37,115.27l4.54,8.8-1.84.92-1-1.91a3.21,3.21,0,0,1-.38,2.12,3.93,3.93,0,0,1-1.65,1.53,3.66,3.66,0,0,1-3,.27,4.5,4.5,0,0,1-2.38-2.36l-2.64-5.11,1.84-.92,2.53,4.91a2.92,2.92,0,0,0,1.56,1.53,2.37,2.37,0,0,0,2-.22,2.57,2.57,0,0,0,1.37-1.59,3.19,3.19,0,0,0-.38-2.38l-2.41-4.66Z" transform="translate(-45 -29.44)"/><path class="cls-2" d="M182.27,127.66a4,4,0,0,1-1.35-.23,5,5,0,0,1-2.65-2.6l-2.84-5.51,2.66-1.33,2.74,5.32a2.45,2.45,0,0,0,1.32,1.31,1.86,1.86,0,0,0,1.57-.19,2.13,2.13,0,0,0,1.17-1.33,2.73,2.73,0,0,0-.34-2L181.92,116l2.65-1.36,5,9.63-2.67,1.33-.46-.89a3.64,3.64,0,0,1-.31.7,4.38,4.38,0,0,1-1.85,1.72A3.93,3.93,0,0,1,182.27,127.66Zm-5.6-7.93,2.43,4.7a4,4,0,0,0,2.15,2.14,3.14,3.14,0,0,0,2.57-.24,3.53,3.53,0,0,0,1.49-1.37,2.77,2.77,0,0,0,.35-1.29,3,3,0,0,1-1.5,1.57,2.75,2.75,0,0,1-2.33.24A3.33,3.33,0,0,1,180,123.7l-2.31-4.48Zm9,1.51,1.63,3.14,1-.51-4.12-8-1,.52,2.2,4.25A3.19,3.19,0,0,1,185.64,121.24Z" transform="translate(-45 -29.44)"/><path class="cls-2" d="M190.34,113.29a4.42,4.42,0,0,1,2.38,2.35l2.66,5.15-1.85.92L191,116.77a3,3,0,0,0-1.5-1.5,2.33,2.33,0,0,0-2,.22,2.56,2.56,0,0,0-1.38,1.59,3.23,3.23,0,0,0,.39,2.37l2.41,4.68-1.84.92-4.6-8.83,1.84-.92,1,1.93a3.32,3.32,0,0,1,.37-2.14,4,4,0,0,1,1.64-1.53A3.63,3.63,0,0,1,190.34,113.29Z" transform="translate(-45 -29.44)"/><path class="cls-2" d="M186.88,125.66l-5-9.64,2.66-1.33.47.9a3.82,3.82,0,0,1,.31-.72,4.36,4.36,0,0,1,1.84-1.72,4,4,0,0,1,3.35-.3h0a5,5,0,0,1,2.63,2.6L196,121l-2.67,1.33L190.58,117a2.54,2.54,0,0,0-1.28-1.3,1.88,1.88,0,0,0-1.56.19,2.15,2.15,0,0,0-1.18,1.33,2.68,2.68,0,0,0,.35,2l2.64,5.12Zm-3.77-9.24,4.17,8,1-.51-2.09-4.06v.1l-2.1-4Zm5.61-1.74a2.89,2.89,0,0,1,.91.15,3.44,3.44,0,0,1,1.78,1.76l2.33,4.5,1-.51-2.43-4.73a4,4,0,0,0-2.14-2.13,3.18,3.18,0,0,0-2.61.24,3.52,3.52,0,0,0-1.47,1.36,2.83,2.83,0,0,0-.35,1.43,3,3,0,0,1,1.55-1.68A2.68,2.68,0,0,1,188.72,114.68Z" transform="translate(-45 -29.44)"/><path class="cls-2" d="M199.4,108.53a4.47,4.47,0,0,1,2.67,1.74l-1.95,1a2.25,2.25,0,0,0-1.44-.92,2.8,2.8,0,0,0-1.79.31,2.64,2.64,0,0,0-1.38,1.65,4.25,4.25,0,0,0,2.27,4.37,2.57,2.57,0,0,0,2.15-.14,2.83,2.83,0,0,0,1.29-1.27,2.38,2.38,0,0,0,.09-1.72l1.94-1a4.29,4.29,0,0,1-.13,3.19,5,5,0,0,1-2.36,2.38,5.22,5.22,0,0,1-2.53.63,4.26,4.26,0,0,1-2.3-.7,5.59,5.59,0,0,1-1.84-2.14,5.34,5.34,0,0,1-.68-2.68,4.26,4.26,0,0,1,.73-2.35,5.26,5.26,0,0,1,2-1.71A4.88,4.88,0,0,1,199.4,108.53Z" transform="translate(-45 -29.44)"/><path class="cls-2" d="M198.29,119.19h-.07a4.75,4.75,0,0,1-2.55-.78,6.14,6.14,0,0,1-2-2.32,5.73,5.73,0,0,1-.72-2.88,4.73,4.73,0,0,1,.81-2.61,5.79,5.79,0,0,1,2.16-1.86,5.32,5.32,0,0,1,3.55-.67h0a4.85,4.85,0,0,1,2.95,1.92l.31.43L200,111.85l-.23-.32a1.82,1.82,0,0,0-1.15-.74,2.32,2.32,0,0,0-1.48.27,2.11,2.11,0,0,0-1.16,1.36,3.77,3.77,0,0,0,2,3.84,2.09,2.09,0,0,0,1.72-.14,2.33,2.33,0,0,0,1.1-1.07,1.9,1.9,0,0,0,.06-1.37l-.12-.37,2.76-1.43.18.5a4.76,4.76,0,0,1-.15,3.52,5.41,5.41,0,0,1-2.58,2.61A5.58,5.58,0,0,1,198.29,119.19Zm.33-10.26a4.39,4.39,0,0,0-2.26.62,4.77,4.77,0,0,0-1.84,1.57,3.75,3.75,0,0,0-.65,2.1,4.91,4.91,0,0,0,.62,2.45,5.18,5.18,0,0,0,1.7,2,3.85,3.85,0,0,0,2,.62,4.82,4.82,0,0,0,2.31-.57,4.59,4.59,0,0,0,2.17-2.18,3.85,3.85,0,0,0,.25-2.32l-1.11.58a2.79,2.79,0,0,1-.21,1.66,3.23,3.23,0,0,1-1.51,1.5,3,3,0,0,1-2.52.16,4.72,4.72,0,0,1-2.55-4.86,3,3,0,0,1,1.64-2,3.14,3.14,0,0,1,2.05-.35,2.68,2.68,0,0,1,1.49.79l1.11-.56a3.52,3.52,0,0,0-2.73-1.19Z" transform="translate(-45 -29.44)"/><path class="cls-2" d="M207.22,104.08a3.76,3.76,0,0,1,2,.92l-1.06-2,1.84-.92,4.54,8.81-1.84.92-1.05-2a3.5,3.5,0,0,1-.38,2.18,3.89,3.89,0,0,1-1.73,1.65,4.45,4.45,0,0,1-2.34.53,4.27,4.27,0,0,1-2.22-.82,6,6,0,0,1-1.76-2.16,5.72,5.72,0,0,1-.72-2.66,4.12,4.12,0,0,1,.6-2.29,4.43,4.43,0,0,1,1.78-1.6A3.87,3.87,0,0,1,207.22,104.08Zm-2.49,3.57a4,4,0,0,0,2.21,4.27,2.82,2.82,0,0,0,2.34-.23,3.07,3.07,0,0,0,1.2-1.06,3.1,3.1,0,0,0,.43-1.51,3.59,3.59,0,0,0-.44-1.73,3.41,3.41,0,0,0-1.14-1.33,2.85,2.85,0,0,0-1.48-.52,3,3,0,0,0-1.57.35A2.77,2.77,0,0,0,204.73,107.65Z" transform="translate(-45 -29.44)"/><path class="cls-2" d="M207.46,114.56h-.28a4.65,4.65,0,0,1-2.46-.91,6.58,6.58,0,0,1-1.91-2.32,6.41,6.41,0,0,1-.76-2.85,4.58,4.58,0,0,1,.67-2.55,4.81,4.81,0,0,1,2-1.77,4.25,4.25,0,0,1,2.58-.53h0a3.68,3.68,0,0,1,.81.19l-.55-1,2.67-1.33,5,9.62-2.67,1.33-.51-1a4.13,4.13,0,0,1-.32.75,4.27,4.27,0,0,1-1.93,1.85A4.89,4.89,0,0,1,207.46,114.56Zm-.66-10a3.33,3.33,0,0,0-1.68.45,3.84,3.84,0,0,0-1.61,1.45,3.54,3.54,0,0,0-.54,2,5.37,5.37,0,0,0,.66,2.45,5.55,5.55,0,0,0,1.64,2,3.68,3.68,0,0,0,2,.73,3.92,3.92,0,0,0,2.09-.47,3.46,3.46,0,0,0,1.54-1.46,3.05,3.05,0,0,0,.36-1.67,3.21,3.21,0,0,1-.36.83,3.54,3.54,0,0,1-1.39,1.24,3.28,3.28,0,0,1-2.69.24,4.45,4.45,0,0,1-2.51-4.78v0a3.51,3.51,0,0,1,4.56-2.23,3.21,3.21,0,0,0-1.69-.75Zm-1.62,3.23a3.52,3.52,0,0,0,2,3.75,2.35,2.35,0,0,0,1.91-.2,2.41,2.41,0,0,0,1.4-2.19,3.15,3.15,0,0,0-.38-1.5,3.08,3.08,0,0,0-1-1.17,2.36,2.36,0,0,0-1.25-.44,2.42,2.42,0,0,0-1.32.29A2.35,2.35,0,0,0,205.18,107.75Zm5.91-.13,1.82,3.54,1-.51-4.12-8-1,.51,2,3.79.12.23A3.42,3.42,0,0,1,211.09,107.62Z" transform="translate(-45 -29.44)"/><path class="cls-2" d="M218.6,98.16a4.13,4.13,0,0,1,2.22.82,6,6,0,0,1,1.8,2.13,6.28,6.28,0,0,1,.73,2.68,4.19,4.19,0,0,1-.61,2.29,4.43,4.43,0,0,1-1.78,1.6,3.84,3.84,0,0,1-2.35.46,3.74,3.74,0,0,1-2-.92l3.24,6.2-1.85.92-6.7-13,1.84-.92,1,2a3.38,3.38,0,0,1,.37-2.16,4,4,0,0,1,1.73-1.66A4.71,4.71,0,0,1,218.6,98.16Zm-3.25,3.48a2.8,2.8,0,0,0-.44,1.51,3.84,3.84,0,0,0,1.58,3,2.81,2.81,0,0,0,1.48.52,3.18,3.18,0,0,0,3.12-2.13,3.84,3.84,0,0,0-2.16-4.26,3.21,3.21,0,0,0-3.54,1.31Z" transform="translate(-45 -29.44)"/><path class="cls-2" d="M217.81,115l-7.13-13.79,2.67-1.34.51,1a3.9,3.9,0,0,1,.31-.73,4.27,4.27,0,0,1,1.93-1.85,5.11,5.11,0,0,1,2.52-.55h0a4.6,4.6,0,0,1,2.47.91,6.41,6.41,0,0,1,1.93,2.3,6.57,6.57,0,0,1,.78,2.86,4.55,4.55,0,0,1-.68,2.55,4.83,4.83,0,0,1-2,1.78,4.32,4.32,0,0,1-2.6.5,4.24,4.24,0,0,1-.8-.19l2.72,5.22Zm-5.88-13.39,6.28,12.16,1-.51-3.95-7.59a4.32,4.32,0,0,1-.67-1.36L213,101.06ZM217.1,107a3.21,3.21,0,0,0,1.57.67,3.43,3.43,0,0,0,2.06-.41,4,4,0,0,0,1.62-1.44,3.74,3.74,0,0,0,.54-2,5.68,5.68,0,0,0-.68-2.47,5.41,5.41,0,0,0-1.66-2,3.74,3.74,0,0,0-2-.73,4.23,4.23,0,0,0-2.07.45,3.4,3.4,0,0,0-1.53,1.47,3,3,0,0,0-.36,1.56,4.58,4.58,0,0,1,.33-.71l.14-.21h.07a3.63,3.63,0,0,1,3.9-1.29,4.29,4.29,0,0,1,2.48,4.79,3.61,3.61,0,0,1-3.59,2.5A3,3,0,0,1,217.1,107Zm-1.48-4.92a2.43,2.43,0,0,0-.25,1.06,3.39,3.39,0,0,0,1.39,2.67,2.38,2.38,0,0,0,1.24.44,2.71,2.71,0,0,0,2.65-1.83,3.36,3.36,0,0,0-1.91-3.69,2.72,2.72,0,0,0-3,1.14Z" transform="translate(-45 -29.44)"/><path class="cls-2" d="M228.67,93a4.06,4.06,0,0,1,2.22.83,5.84,5.84,0,0,1,1.76,2.15,5.91,5.91,0,0,1,.72,2.69,4.26,4.26,0,0,1-.6,2.28,4.32,4.32,0,0,1-1.79,1.6,3.83,3.83,0,0,1-2.35.46,3.47,3.47,0,0,1-2-.92l3.22,6.23-1.84.92-6.7-13,1.84-.92,1,2a3.37,3.37,0,0,1,.37-2.16,3.78,3.78,0,0,1,1.7-1.72A4.63,4.63,0,0,1,228.67,93Zm-3.29,3.48a3,3,0,0,0-.44,1.51,3.85,3.85,0,0,0,1.59,3.06,2.9,2.9,0,0,0,1.48.52,3,3,0,0,0,1.56-.35,2.92,2.92,0,0,0,1.56-1.79,3.28,3.28,0,0,0-.37-2.52,3.23,3.23,0,0,0-1.84-1.73,2.87,2.87,0,0,0-2.36.23A3,3,0,0,0,225.38,96.44Z" transform="translate(-45 -29.44)"/><path class="cls-2" d="M227.84,109.82,220.71,96l2.67-1.33.51,1a4,4,0,0,1,.31-.74,4.24,4.24,0,0,1,1.89-1.9,5.1,5.1,0,0,1,2.61-.55h0a4.61,4.61,0,0,1,2.47.92,6.36,6.36,0,0,1,1.89,2.32,6.43,6.43,0,0,1,.77,2.87,4.72,4.72,0,0,1-.67,2.54,4.77,4.77,0,0,1-2,1.77,4.25,4.25,0,0,1-2.6.51,3.4,3.4,0,0,1-.78-.18l2.7,5.23ZM222,96.43l6.28,12.16,1-.51-4-7.68a4.29,4.29,0,0,1-.56-1.11L223,95.92Zm5.11,5.37a3,3,0,0,0,1.62.71,3.4,3.4,0,0,0,2.07-.4,3.92,3.92,0,0,0,1.62-1.45,3.75,3.75,0,0,0,.53-2,6.22,6.22,0,0,0-2.3-4.49,3.6,3.6,0,0,0-2-.73,4.14,4.14,0,0,0-2.13.45A3.3,3.3,0,0,0,225,95.38a2.86,2.86,0,0,0-.37,1.56,3.28,3.28,0,0,1,.33-.74h0A3.32,3.32,0,0,1,226.36,95a3.29,3.29,0,0,1,2.71-.26,4.31,4.31,0,0,1,2.5,4.81,3.36,3.36,0,0,1-1.8,2.08A3.32,3.32,0,0,1,228,102,3.13,3.13,0,0,1,227.07,101.8Zm-1.3-5.12A2.61,2.61,0,0,0,225.4,98a3.42,3.42,0,0,0,1.4,2.68,2.46,2.46,0,0,0,1.24.43,2.5,2.5,0,0,0,1.31-.3,2.44,2.44,0,0,0,1.34-1.51,3.4,3.4,0,0,0-1.93-3.69,2.4,2.4,0,0,0-2,.2A2.44,2.44,0,0,0,225.77,96.68Z" transform="translate(-45 -29.44)"/><path class="cls-2" d="M241.94,91.58l-6.77,3.49A3.1,3.1,0,0,0,237,96.69a2.75,2.75,0,0,0,2.08-.24,2.86,2.86,0,0,0,1.3-1.25,2.12,2.12,0,0,0,.13-1.64l2-1a4.11,4.11,0,0,1,.11,2,4.25,4.25,0,0,1-.88,1.84,5.15,5.15,0,0,1-1.79,1.42,5,5,0,0,1-2.53.63,4.21,4.21,0,0,1-2.35-.76,5.49,5.49,0,0,1-1.84-2.13,5.34,5.34,0,0,1-.68-2.68,4.26,4.26,0,0,1,.73-2.35,5.26,5.26,0,0,1,2-1.71,5.1,5.1,0,0,1,2.53-.62,4.08,4.08,0,0,1,2.25.71,4.87,4.87,0,0,1,1.59,1.84A2.63,2.63,0,0,1,241.94,91.58Zm-3.23-1.22a2.36,2.36,0,0,0-1.34-.39,3,3,0,0,0-1.38.36,2.86,2.86,0,0,0-1.41,1.59,3,3,0,0,0,.22,2.34l5-2.58a2.81,2.81,0,0,0-1.06-1.32Z" transform="translate(-45 -29.44)"/><path class="cls-2" d="M237.47,98.93h-.09a4.62,4.62,0,0,1-2.61-.85,6,6,0,0,1-2-2.3,5.74,5.74,0,0,1-.73-2.88,4.73,4.73,0,0,1,.81-2.61A5.7,5.7,0,0,1,235,88.43a5.45,5.45,0,0,1,2.74-.67,4.49,4.49,0,0,1,2.5.79,5.36,5.36,0,0,1,1.74,2,2.77,2.77,0,0,1,.38.91l.08.35-6.66,3.44a2.73,2.73,0,0,0,1.34,1,2.31,2.31,0,0,0,1.72-.21A2.43,2.43,0,0,0,240,95a1.75,1.75,0,0,0,.11-1.29l-.12-.37,2.79-1.44.16.53a4.51,4.51,0,0,1,.12,2.25,4.71,4.71,0,0,1-1,2,5.66,5.66,0,0,1-1.95,1.55A5.52,5.52,0,0,1,237.47,98.93Zm.2-10.25a4.49,4.49,0,0,0-2.21.57,4.71,4.71,0,0,0-1.83,1.56,3.8,3.8,0,0,0-.65,2.1,5,5,0,0,0,.62,2.45,5.23,5.23,0,0,0,1.7,2,3.75,3.75,0,0,0,2.09.68,4.82,4.82,0,0,0,2.31-.57,4.7,4.7,0,0,0,1.65-1.31,3.65,3.65,0,0,0,.82-2.9l-1.12.58a2.61,2.61,0,0,1-.25,1.6,3.33,3.33,0,0,1-1.51,1.46,3.2,3.2,0,0,1-2.41.27,3.62,3.62,0,0,1-2.13-1.87l-.19-.4,0,0-.2-.38a3.46,3.46,0,0,1-.26-2.69,3.39,3.39,0,0,1,1.64-1.87,3.58,3.58,0,0,1,1.57-.4,2.85,2.85,0,0,1,1.5.39h0L239,90a3.21,3.21,0,0,1,1.24,1.53l.14.36,1-.52a2.21,2.21,0,0,0-.18-.34,4.59,4.59,0,0,0-1.46-1.71,3.71,3.71,0,0,0-2-.62Zm-.26,1.75h0a2.68,2.68,0,0,0-1.18.3A2.44,2.44,0,0,0,235,92.07a2.56,2.56,0,0,0,0,1.55l4.16-2.15a2.39,2.39,0,0,0-.61-.66l-.12-.07A2,2,0,0,0,237.41,90.43Z" transform="translate(-45 -29.44)"/><path class="cls-2" d="M246.44,83.83a3.5,3.5,0,0,1,2,.92l-2.61-5.07,1.84-.92,6.11,11.81-1.84.92-1.06-2a3.32,3.32,0,0,1-.38,2.16,3.86,3.86,0,0,1-1.73,1.66,4.48,4.48,0,0,1-2.33.52A4.09,4.09,0,0,1,244.2,93a6.54,6.54,0,0,1-2.49-4.81,4.2,4.2,0,0,1,.62-2.29,4.4,4.4,0,0,1,1.77-1.6A4,4,0,0,1,246.44,83.83Zm-2.51,3.57a4,4,0,0,0,2.21,4.27,2.85,2.85,0,0,0,2.35-.22,2.94,2.94,0,0,0,1.18-1,2.91,2.91,0,0,0,.43-1.52,3.83,3.83,0,0,0-1.57-3.08,2.85,2.85,0,0,0-3.05-.17A2.78,2.78,0,0,0,243.93,87.4Z" transform="translate(-45 -29.44)"/><path class="cls-2" d="M246.63,94.31h-.23a4.65,4.65,0,0,1-2.48-.92,7,7,0,0,1-2.67-5.16,4.64,4.64,0,0,1,.69-2.55,4.87,4.87,0,0,1,2-1.78,4.44,4.44,0,0,1,2.59-.52h0a3.4,3.4,0,0,1,.78.18l-2.09-4.08,2.66-1.33,6.53,12.64-2.66,1.33-.52-1a3.08,3.08,0,0,1-.32.75A4.27,4.27,0,0,1,249,93.73,4.9,4.9,0,0,1,246.63,94.31Zm-.59-10a3.54,3.54,0,0,0-1.71.44,4,4,0,0,0-1.61,1.44,3.66,3.66,0,0,0-.55,2,6.09,6.09,0,0,0,2.31,4.46,3.71,3.71,0,0,0,2,.73,4,4,0,0,0,2.08-.47,3.42,3.42,0,0,0,1.54-1.47,2.83,2.83,0,0,0,.35-1.63,3,3,0,0,1-.37.85,3.4,3.4,0,0,1-1.38,1.2,3.24,3.24,0,0,1-2.69.24,4.45,4.45,0,0,1-2.51-4.78v0a3.21,3.21,0,0,1,1.8-2,3.3,3.3,0,0,1,2.78-.18,3,3,0,0,0-1.68-.76A2.06,2.06,0,0,0,246,84.27Zm-1.66,3.23a3.54,3.54,0,0,0,2,3.75,2.37,2.37,0,0,0,1.92-.2,2.55,2.55,0,0,0,1-.89,2.39,2.39,0,0,0,.35-1.26,3.37,3.37,0,0,0-1.38-2.71,2.42,2.42,0,0,0-2.56-.14A2.33,2.33,0,0,0,244.38,87.5Zm5.94,0,1.79,3.39,1-.51-5.69-11-1,.51L250,86.71A4.63,4.63,0,0,1,250.32,87.49Z" transform="translate(-45 -29.44)"/><path class="cls-2" d="M578.88,647c.2-.49-2.64-1.56-7.26-3.45-38-15.53-74.88-30.94-113.13-47.15q-6.81-2.89-13.52-5.6l-3.34-1.35-.84-.33-.42-.17-.19-.08-.14-.07a2.81,2.81,0,0,1-1.61-3,1.7,1.7,0,0,1,.06-.31l.1-.29.33-.83.65-1.66c3.48-8.83,6.86-17.56,10.32-26.22,6.8-17.08,12.84-31.53,20.25-49.23l1.67-4,.84-2,.42-1c.07-.16.15-.36.2-.46s.06-.13.09-.18l.11-.18a3.1,3.1,0,0,1,2.74-1.4,3.37,3.37,0,0,1,.78.15h.21l.26.1.51.2,2.06.79,16.6,6.32C507.76,509.82,519,514,530,518c23.73,8.6,42.84,16.9,67,25.93q7.51,2.8,15.18,5.55l3.83,1.38.48.17.17.07h.15a2.78,2.78,0,0,1,.51.33,2.49,2.49,0,0,1,.73,1,2.53,2.53,0,0,1,.19,1.22V554a1.34,1.34,0,0,1-.09.31c0,.11,0,.13-.07.21l-.1.23-.18.48L616.36,559c-3.93,10.18-7.83,20.39-11.76,30.41-6.4,16.35-12.53,31.85-19.14,48.05-1.52,3.72-3.06,7.41-2.69,7.56s1.56-2.64,3.45-7.25c10.17-24.9,20.46-48.35,30.36-73.52,1.06-2.71,2.11-5.35,3.16-8l.39-1c.08-.18.14-.36.2-.54s.1-.39.15-.58a4.88,4.88,0,0,0-.17-2.37,4.84,4.84,0,0,0-1.26-2,4.22,4.22,0,0,0-.46-.38l-.24-.17-.25-.15a5.12,5.12,0,0,0-.53-.25l-.26-.1-.24-.09C612,546.91,607,545,602,543.12c-9.89-3.79-19.64-7.51-30-11.2-12.45-4.43-21.53-8.57-33.13-13-13.59-5.19-25.21-9-39.22-14.54-4.7-1.85-9.28-3.58-13.81-5.25l-6.76-2.46-.84-.3-.21-.08-.23-.07a4.64,4.64,0,0,0-.53-.16,5.2,5.2,0,0,0-5.63,2.53c-.1.16-.16.33-.24.49l0,.12v.11l-.08.2-.33.84-.65,1.66-1.3,3.33q-1.31,3.35-2.64,6.72c-1.78,4.51-3.62,9.08-5.58,13.77-7.27,17.45-14.52,34.09-21.65,50.74l-2.66,6.24-.34.78c-.11.27-.21.47-.35.89a5.85,5.85,0,0,0,1.88,6.47,6.65,6.65,0,0,0,1,.66l.27.13.13.06h.1l.39.16,1.57.66,3.13,1.32,6.3,2.63c8.42,3.49,16.93,6.93,25.65,10.32,15.69,6.1,32.42,13.23,48.65,19.27,13.77,5.12,27,10.23,41.44,16l5,2.16C575,645.87,578.73,647.41,578.88,647Z" transform="translate(-45 -29.44)"/><path class="cls-6" d="M528.75,512.82a7,7,0,1,1-3.39-3" transform="translate(-45 -29.44)"/><path class="cls-2" d="M525.17,509.71l-.38-.15-.39-.12-.38-.1h-.39l-.27,0h-2a2.32,2.32,0,0,0-.38.07l-.38.09-.7.22a7.89,7.89,0,0,0-.72.33,6.78,6.78,0,0,0-.78.54l-.34.26-.32.27c-.2.13-.37.29-.56.44a6,6,0,0,0-.51.5,4.6,4.6,0,0,0-.59.73,2.9,2.9,0,0,0-.31.54l-.07.13c-.11.27-.18.55-.27.82a3.3,3.3,0,0,0-.11.49,2.05,2.05,0,0,0-.06.49,7.42,7.42,0,0,0,0,1.49,1.52,1.52,0,0,0,.11.69l.11.53c.07.24.14.49.23.73l.24.54.29.51c.08.15.17.3.26.44s.09.15.14.23l.18.22a6.19,6.19,0,0,0,.47.55l.24.27c.08.09.18.17.26.25l.28.27.31.25a2.34,2.34,0,0,0,.31.24l.32.22a3.14,3.14,0,0,0,.64.37,3.38,3.38,0,0,0,.69.26,5,5,0,0,0,.76.21c.25.07.5.1.76.15l.18,0h.19l.41.08h1.13l.47-.06.45-.11a2.64,2.64,0,0,0,.47-.17l.45-.2L526,523l.23-.09a1.23,1.23,0,0,0,.31-.19l.31-.21.35-.27a3,3,0,0,0,.32-.3,4.44,4.44,0,0,0,.56-.66l.24-.32.21-.33c.08-.13.16-.24.23-.37l.19-.39c.13-.21.22-.43.33-.65s.21-.43.3-.65a6.6,6.6,0,0,0,.36-1.52,7.68,7.68,0,0,0-.1-1.59,4.5,4.5,0,0,0-.08-.51,1.76,1.76,0,0,0-.12-.49,6.37,6.37,0,0,0-.6-1.3c-.11-.22-.24-.4-.3-.36s0,.22.13.44a4.51,4.51,0,0,1,.32.79c.07.24.13.48.2.79a6,6,0,0,1,.19,1.2,5.63,5.63,0,0,1-.09,1,2.62,2.62,0,0,1-.12.68c-.09.25-.19.41-.27.62l-.13.36-.15.36a4,4,0,0,1-.31.66l-.2.31a3.11,3.11,0,0,1-.23.28,2.62,2.62,0,0,0-.22.25l-.23.24a3,3,0,0,1-.25.25l-.27.23c-.17.17-.37.3-.54.47a6.28,6.28,0,0,1-.52.38,1.19,1.19,0,0,1-.23.16h0a1.63,1.63,0,0,0-.47.16l-.31.1-.33.12-.34.1-.34.1-.34.06-.27.05h0a2.17,2.17,0,0,0-.51,0h-.58a6.31,6.31,0,0,1-.76-.1,3.76,3.76,0,0,1-.73-.2,5.63,5.63,0,0,1-.79-.36l-.38-.2-.35-.24a3.65,3.65,0,0,1-.36-.31,3.51,3.51,0,0,1-.33-.34c-.13-.15-.26-.28-.39-.42l-.36-.45a2.94,2.94,0,0,0-.35-.44l-.34-.46c-.09-.12-.16-.26-.25-.39s-.14-.38-.24-.55a3.42,3.42,0,0,1-.33-.59q-.09-.31-.15-.63a2.13,2.13,0,0,1-.12-.61v-.33a1.71,1.71,0,0,0,0-.32v-.46l.1-.45a1.91,1.91,0,0,1,.13-.45l.06-.21.07-.2.12-.41c.07-.2.14-.4.22-.61s.14-.27.2-.41a2.46,2.46,0,0,1,.22-.34c.1-.14.21-.27.32-.4a9.22,9.22,0,0,1,.79-.74l.2-.17.2-.16c.14-.1.26-.23.4-.33l.41-.27.43-.23.21-.11.21-.08a3.29,3.29,0,0,1,.44-.16c.17,0,.33-.13.5-.17l.44-.07a4.79,4.79,0,0,1,1,0h.51a1.69,1.69,0,0,1,.45,0h.37l.37.09a.64.64,0,0,1,.38.08l.37.12c.11,0,.23.06.25,0S525.31,509.76,525.17,509.71Z" transform="translate(-45 -29.44)"/><g class="cls-7"><g id="Shape"><g id="Card_Design" data-name="Card Design"><g id="un_shape" data-name="un shape"><path class="cls-2" d="M599.42,584.38l-28.6,70-18.43-7.53,27.86-68.22q4.51-11,1.26-19.4t-13.16-12.42a21,21,0,0,0-17.73.33c-9.07,4.23-21,34.53-36.11,51.19a32.49,32.49,0,0,1-16.59,9.38,35,35,0,0,1-20.1-2.3q-14.43-5.89-19.36-18.69t2.06-30l28.67-70.18,18.43,7.53-27.94,68.39q-4.51,11-1.26,19.4a20.55,20.55,0,0,0,13.16,12.43c5.3,1.75,10.78,2.81,17.73-.33,10.65-4.82,30.22-44.45,36.11-51.19A31.74,31.74,0,0,1,562,533.44a35,35,0,0,1,20.11,2.3q14.43,5.89,19.37,18.69T599.42,584.38Z" transform="translate(-45 -29.44)"/><path class="cls-2" d="M599.43,584.39c-.49-.2-3.64,7.74-9,20.77q-5,12.18-10,24.45l-9.92,24.13-17.43-7.18q8.19-19.83,16.43-39.8,4.18-10.1,8.37-20.23l2.1-5.06,1-2.54.52-1.3.47-1.32a34,34,0,0,0,1.38-5.45,25,25,0,0,0,.31-5.66,21,21,0,0,0-.35-2.84l-.15-.71c-.06-.23-.1-.46-.17-.69-.14-.46-.26-.93-.42-1.38a20.55,20.55,0,0,0-2.59-5.12,21.3,21.3,0,0,0-3.89-4.21,25.88,25.88,0,0,0-4.75-3.14c-.42-.23-.85-.42-1.27-.63s-.87-.38-1.3-.57l-1.32-.52c-.45-.16-.91-.3-1.36-.45a23.19,23.19,0,0,0-5.66-1,21.46,21.46,0,0,0-2.89.08l-.72.09h-.36l-.36.06-.71.13-.71.16c-.47.1-.93.25-1.39.38l-.68.22c-.23.08-.46.15-.68.24-.45.18-.9.35-1.33.54l-.33.15-.34.15-.35.18-.34.2a13.86,13.86,0,0,0-2.35,1.83,23.09,23.09,0,0,0-2,2.08c-1.23,1.44-2.35,2.94-3.41,4.46-2.11,3-4,6.19-5.94,9.33-3.78,6.29-7.43,12.62-11.39,18.72-2,3-4,6-6.21,8.91-1.1,1.43-2.22,2.83-3.4,4.19-.58.68-1.19,1.35-1.77,2a16,16,0,0,1-1.93,1.74,32.55,32.55,0,0,1-9,5.26c-.41.15-.81.31-1.23.44s-.82.26-1.24.37l-.62.16-.63.14-.63.13-.64.11a32.37,32.37,0,0,1-5.2.42,34.53,34.53,0,0,1-10.28-1.69l-.63-.2-.62-.22-.62-.22-.61-.24-.61-.25-.61-.26c-.4-.18-.81-.34-1.2-.53a41.89,41.89,0,0,1-4.61-2.51,35.23,35.23,0,0,1-4.15-3.13l-.95-.87-.9-.93-.23-.23-.21-.24-.43-.49-.42-.48-.4-.51c-.54-.66-1-1.38-1.51-2.09l-.68-1.09c-.22-.37-.41-.76-.62-1.13a28.5,28.5,0,0,1-3.17-9.75,35.5,35.5,0,0,1-.29-5.15c.05-.87.07-1.73.16-2.59s.21-1.73.32-2.59a52.27,52.27,0,0,1,1.12-5.11c.22-.85.5-1.68.75-2.52.13-.42.29-.83.43-1.24s.29-.83.44-1.24l.48-1.23c.16-.41.31-.82.49-1.24l1-2.49q2-5,4.06-10,8.1-19.92,16.07-39.63c2.21-5.51,4.43-11,6.6-16.4l16,6.45c-8.1,20.08-16.14,40-24.21,60.05-1,2.55-2.05,5.11-3.08,7.66a36.06,36.06,0,0,0-2.23,8.15c0,.36-.1.71-.13,1.06l-.09,1.07v2.14a21.7,21.7,0,0,0,4,12.07,20.78,20.78,0,0,0,6.26,5.84,24.93,24.93,0,0,0,3.86,1.86l1,.36,1,.32,1,.29,1,.28a27.24,27.24,0,0,0,4.21.72,20.69,20.69,0,0,0,4.31-.08,23.23,23.23,0,0,0,4.19-1l1-.36c.34-.12.66-.28,1-.41l.49-.21.51-.25c.33-.18.64-.37.95-.58a16.7,16.7,0,0,0,1.72-1.32c.55-.47,1.06-1,1.56-1.47,1-1,1.93-2.08,2.82-3.16,1.79-2.18,3.45-4.45,5-6.76,3.18-4.62,6.14-9.4,9-14.23s5.72-9.71,8.62-14.57c1.45-2.42,2.91-4.86,4.49-7.18.4-.58.81-1.15,1.24-1.69.21-.26.45-.52.69-.77l.72-.75a29.61,29.61,0,0,1,3.22-2.69,33.08,33.08,0,0,1,7.4-4,26.74,26.74,0,0,1,4-1.22,32.61,32.61,0,0,1,12.7-.11,38.49,38.49,0,0,1,8.2,2.51,40.25,40.25,0,0,1,7.56,4.15l.87.64c.14.11.29.21.43.33l.42.34.83.69.8.73.4.36.38.39.76.77.72.81.36.41.34.42.67.86.62.88.32.45.29.46.57.92a31.53,31.53,0,0,1,1.93,3.91c.29.66.51,1.36.76,2a4.51,4.51,0,0,1,.17.52l.15.53.15.52.08.26.06.27c.16.71.34,1.42.44,2.14.06.36.13.72.18,1.08l.12,1.1.06.52v.52l.06,1v2l0,1a5.49,5.49,0,0,1-.06,1l-.09,1v.49a3.85,3.85,0,0,1-.07.49l-.13,1-.07.48-.08.47-.17.92c0,.3-.1.6-.17.9l-.39,1.71-.41,1.58-.1.38-.11.37-.21.71c-.14.45-.25.9-.39,1.3-.27.81-.48,1.53-.68,2.11-.4,1.16-.59,1.85-.49,1.88s.4-.41.83-1.34c.11-.23.23-.49.35-.79l.38-1c.13-.35.28-.72.42-1.13l.44-1.32a48.06,48.06,0,0,0,1.64-7l.14-1.06.08-.55,0-.55a11.26,11.26,0,0,1,.11-1.14c0-.39,0-.78.06-1.18v-4.4a2.46,2.46,0,0,0-.06-.66,31,31,0,0,0-1.28-6.25,32,32,0,0,0-2.54-5.85,29.89,29.89,0,0,0-3.66-5.2,31.78,31.78,0,0,0-4.64-4.34,35.47,35.47,0,0,0-5.34-3.4c-.46-.26-.94-.49-1.41-.71l-.71-.35-.73-.32c-1-.42-1.94-.82-2.93-1.17a38.89,38.89,0,0,0-6.09-1.66,35,35,0,0,0-6.29-.57,33.91,33.91,0,0,0-6.28.6,30.17,30.17,0,0,0-6,1.92,32.11,32.11,0,0,0-10.3,7.13,13,13,0,0,0-1,1.22c-.32.41-.63.84-.92,1.27-.6.86-1.17,1.73-1.72,2.61-1.11,1.75-2.19,3.53-3.25,5.3l-6.34,10.67c-2.12,3.54-4.26,7.07-6.48,10.54s-4.5,6.9-7,10.18c-1.23,1.64-2.51,3.25-3.87,4.77-.68.76-1.38,1.5-2.12,2.19a19.32,19.32,0,0,1-2.33,1.9c-.21.14-.41.28-.63.4l-.32.18-.32.16-1.39.59-.72.25c-.23.08-.47.18-.71.24-.49.14-1,.29-1.46.39l-.73.17-.74.12-.38.06h-.37l-.75.08a18.78,18.78,0,0,1-3,0,27.25,27.25,0,0,1-5.93-1.2l-.72-.23c-.25-.08-.49-.15-.73-.24l-.71-.26-.35-.13-.35-.15-.69-.3c-.23-.09-.45-.21-.68-.32a6.88,6.88,0,0,1-.66-.35l-.66-.37c-.22-.12-.43-.25-.64-.39l-.62-.41-.61-.45-.3-.22-.29-.24-.57-.48-.55-.51-.27-.25-.26-.27c-.17-.18-.35-.36-.52-.55a20.87,20.87,0,0,1-5-10.71,23.17,23.17,0,0,1,0-6,31,31,0,0,1,1.38-5.86c.16-.48.33-1,.5-1.43l.56-1.41,1.19-2.85,27.58-66.42-20.63-8.54q-9.51,23-18.91,45.78l-9.14,22.18-1.13,2.77c-.2.45-.38.93-.57,1.41s-.37.94-.55,1.42c-.34,1-.7,1.92-1,2.9-.15.49-.32,1-.45,1.47L456.1,564c-.07.24-.13.49-.18.74l-.18.75-.17.75c-.06.25-.1.51-.15.76-.09.51-.19,1-.28,1.52l-.21,1.54a41.61,41.61,0,0,0-.31,6.21,32.32,32.32,0,0,0,3.68,14.08c.38.68.74,1.37,1.16,2l.61,1,.66.93c.21.32.45.61.68.9s.46.59.7.88.5.55.74.83l.37.41.39.39.77.78c.26.26.54.49.8.74.53.5,1.09.94,1.65,1.39a38,38,0,0,0,7.07,4.4,44.63,44.63,0,0,0,7.49,2.86,37,37,0,0,0,7.81,1.32,34.08,34.08,0,0,0,7.88-.45l1-.18,1-.22,1-.27c.32-.08.64-.19,1-.29.64-.2,1.27-.45,1.9-.69s1.24-.52,1.84-.82a36,36,0,0,0,5.31-3.09c.41-.29.82-.59,1.22-.9l.6-.46.58-.49c.19-.15.38-.32.57-.49l.56-.5c.36-.36.73-.69,1.07-1.07.17-.18.35-.36.52-.55l.48-.54,1-1.1c.62-.74,1.23-1.48,1.83-2.23,1.19-1.49,2.32-3,3.41-4.54,4.37-6.1,8.14-12.32,11.85-18.48,1.86-3.08,3.7-6.15,5.59-9.19a105.24,105.24,0,0,1,6-8.87A30.86,30.86,0,0,1,549,550.2a10.82,10.82,0,0,1,1.92-1.44,1.19,1.19,0,0,1,.25-.13l.26-.13.6-.26.6-.25.61-.23c.42-.13.82-.29,1.24-.4l.63-.18.63-.15.26,0,.32-.06.64-.11.65-.08h.65a19.27,19.27,0,0,1,5.25.33,21.74,21.74,0,0,1,3.27.92l.81.3c.26.1.53.23.79.34.54.21,1,.47,1.58.72a26.16,26.16,0,0,1,3,1.72,22.61,22.61,0,0,1,2.66,2.11,18.25,18.25,0,0,1,4,5.38,17.72,17.72,0,0,1,1.2,3.16,21,21,0,0,1,.6,3.33,21.69,21.69,0,0,1,0,3.42,26.41,26.41,0,0,1-.46,3.43,38.61,38.61,0,0,1-2.07,6.74q-2.71,6.78-5.42,13.59-10.9,27.5-21.86,55.07L571.06,655l7.16-17.85,7-17.4,6-14.25c2.14-5.25,4.28-10.48,5.84-14.42S599.61,584.46,599.43,584.39Z" transform="translate(-45 -29.44)"/></g></g></g></g><polygon class="cls-6" points="542.46 604.15 543.75 615.57 551 624.49 539.58 625.79 530.66 633.04 529.37 621.61 522.12 612.69 533.54 611.4 542.46 604.15"/><path class="cls-2" d="M587.48,633.59c-.26,0-.16.57-.06,1.47.19,1.67.37,3.34.54,5l.5,5.07c.61.77,1.21,1.54,1.81,2.32l1.75,2.26,1.75,2.29.44.58.22.29.05.07h0V653c.11.15.2.29.27.4H594l-1.31.15c-.87.1-1.72.22-2.57.35-1.7.25-3.37.52-5,.75l-.66.09-1,.81-.87.72c-.57.47-1.14.92-1.72,1.38-1.16.92-2.34,1.84-3.64,2.84l-.47.36-.09.07h0l-.11.08-.39.28v-.54s-.06-.62-.1-1l-.27-2.6c-.19-1.73-.4-3.47-.64-5.17l-.08-.54c0-.24-.06-.47-.08-.7l-.57-.69-.45-.57c-.3-.38-.59-.75-.87-1.13-.57-.75-1.11-1.5-1.66-2.26s-1.1-1.52-1.68-2.29c-.14-.19-.29-.38-.43-.58L569,643v-.07s0-.06,0-.06h0l1.37-.19,2.74-.44,2.75-.47,1.37-.23.68-.11.34-.06.48-.07.62-.54c2.38-2.1,4.66-4.08,7.12-6.07.56-.46,1.13-.91,1-1.06s-.56.17-1.26.74c-1.32,1.07-2.65,2.1-4,3.11l-2,1.53-1.88,1.46-1,.11-1.07.12-2.17.3c-1.25.19-2.46.33-3.63.45l-4.15.41,1,1.23.87,1.07c.48.59,1,1.18,1.51,1.77,1.59,1.78,2.46,3.4,3.85,5.16l.17.23.09.71.12.87c.08.58.16,1.14.25,1.71.16,1.14.32,2.3.4,3.58,0,.75.13,1.49.21,2.22.07.48.13,1,.19,1.44s.14,1.08.22,1.62L577,662l1.22-1.07c.77-.67,1.56-1.34,2.4-2l2.14-1.64,1.07-.79.53-.4.27-.19.08-.06h1.42l1.43-.09,2.86-.19c1-.06,1.9-.14,2.86-.22l.71-.07,1-.1,2.88-.33-1.94-2.34-.24-.29-.13-.15-.25-.29-.51-.58c-.91-1-1.8-2.1-2.71-3.19-.45-.55-.91-1.09-1.37-1.64l-.7-.8-.35-.4-.17-.19h-.06v-.31l-.1-.51c-.53-2.61-1-5.14-1.33-7.93l-.06-1C587.75,634.29,587.68,633.57,587.48,633.59Z" transform="translate(-45 -29.44)"/><path class="cls-8" d="M370.5,555.43" transform="translate(-45 -29.44)"/><path class="cls-4" d="M424.21,514.54l-29.82-17.22A20.08,20.08,0,0,0,367,504.67l-.52.9a18.84,18.84,0,0,0-2.14,14.62l0,0,0,.16q.21.66.48,1.32c1.93,5.42,8.34,24.43,6.58,33.23l6.49-19.52,25.73,14.85A20.06,20.06,0,0,0,431,542.86l.52-.9A20.06,20.06,0,0,0,424.21,514.54Z" transform="translate(-45 -29.44)"/><path class="cls-2" d="M424.16,514.63c-5.93-3.43-11.92-6.75-18-10l-9-4.91c-1.5-.79-3-1.69-4.49-2.37a23.64,23.64,0,0,0-2.29-.9l-1.19-.31a7,7,0,0,0-1.2-.27,19.84,19.84,0,0,0-17.92,5.85c-.55.61-1.09,1.24-1.58,1.9s-.94,1.35-1.37,2.1a21.32,21.32,0,0,0-2.1,4.52,17.08,17.08,0,0,0-.37,9.86h0a.37.37,0,0,1-.26.46.38.38,0,0,1-.38-.11l0,0,.64-.38c1,2.81,1.92,5.66,2.79,8.5s1.72,5.71,2.45,8.61,1.35,5.82,1.82,8.78A30.17,30.17,0,0,1,372,555l-1.12-.29,3.07-9.82,3.13-9.8a.88.88,0,0,1,1.11-.57l.16.07h0l20.39,11.58,5.08,2.92a19.76,19.76,0,0,0,5.13,2.13,18.93,18.93,0,0,0,10.95-.39,19.45,19.45,0,0,0,9-6.31,8.42,8.42,0,0,0,.83-1.13c.27-.39.55-.75.8-1.18.53-.84.94-1.65,1.39-2.49a19.17,19.17,0,0,0,1.65-11.15,19.16,19.16,0,0,0-4.91-10.31A21.5,21.5,0,0,0,424.16,514.63Zm.1-.18a22.28,22.28,0,0,1,4.63,3.63,21.63,21.63,0,0,1,3.43,4.78,22.16,22.16,0,0,1,2,5.59,22.44,22.44,0,0,1,.31,6,22.7,22.7,0,0,1-1.44,5.84c-.42.91-.85,1.87-1.32,2.71-.22.43-.51.86-.77,1.29a9.07,9.07,0,0,1-.85,1.27,20.45,20.45,0,0,1-9.69,7.21,21.07,21.07,0,0,1-12.13.56,22,22,0,0,1-5.67-2.35L397.67,548l-20.22-11.87,1.29-.49-3.37,9.72-3.42,9.7h0a.59.59,0,0,1-.74.36.58.58,0,0,1-.38-.66,29,29,0,0,0,0-8.72,74.66,74.66,0,0,0-1.63-8.74c-.71-2.88-1.48-5.75-2.37-8.59s-1.85-5.64-2.92-8.42a.37.37,0,0,1,.22-.48.37.37,0,0,1,.41.09h0l0,0-.65.36a18.4,18.4,0,0,1,0-10.4,23,23,0,0,1,2-4.86c.39-.75.89-1.5,1.35-2.25a25.64,25.64,0,0,1,1.62-2.11,20.45,20.45,0,0,1,19.39-6.51,21,21,0,0,1,2.59.69,25.15,25.15,0,0,1,2.45,1.06c1.62.81,3,1.74,4.48,2.62l8.76,5.37C412.46,507.5,418.33,511,424.26,514.45Z" transform="translate(-45 -29.44)"/><path class="cls-4" d="M394.35,596.32l-29.82-17.21a20.06,20.06,0,0,0-27.42,7.34l-.52.9A18.82,18.82,0,0,0,334.45,602l0,0,.06.16q.21.67.48,1.32c1.93,5.42,8.34,24.43,6.58,33.23L348,617.14,373.76,632a20.06,20.06,0,0,0,27.42-7.34l.52-.9A20.09,20.09,0,0,0,394.35,596.32Z" transform="translate(-45 -29.44)"/><path class="cls-2" d="M394.3,596.41c-5.93-3.43-11.92-6.75-17.95-10l-9-4.91c-1.5-.79-3-1.69-4.49-2.37a23.64,23.64,0,0,0-2.29-.9l-1.19-.31a8,8,0,0,0-1.2-.27,19.82,19.82,0,0,0-17.92,5.86,22.41,22.41,0,0,0-1.58,1.9c-.46.69-.94,1.34-1.37,2.1a20.87,20.87,0,0,0-2.1,4.52,17,17,0,0,0-.37,9.85h0a.38.38,0,0,1-.65.35l0,0,.64-.39c1,2.81,1.92,5.66,2.79,8.5s1.72,5.72,2.45,8.61,1.35,5.82,1.82,8.78a30.24,30.24,0,0,1,.27,9.07l-1.12-.3,3.07-9.82,3.13-9.8a.88.88,0,0,1,1.1-.57l.17.07h0L368.87,628l5.08,2.93a20.08,20.08,0,0,0,5.13,2.12,19,19,0,0,0,10.95-.38,19.52,19.52,0,0,0,9-6.31,9.21,9.21,0,0,0,.83-1.14c.26-.39.54-.75.8-1.18.53-.84.94-1.65,1.39-2.49a21.34,21.34,0,0,0,1.66-5.43,21.91,21.91,0,0,0,0-5.72,21.09,21.09,0,0,0-1.66-5.51,20.5,20.5,0,0,0-3.25-4.8A21.76,21.76,0,0,0,394.3,596.41Zm.1-.18a22.28,22.28,0,0,1,4.63,3.63,21.69,21.69,0,0,1,3.43,4.79,22,22,0,0,1,2,5.58,22.87,22.87,0,0,1,.31,6A22.22,22.22,0,0,1,403.3,622c-.41.91-.84,1.87-1.31,2.71-.22.43-.51.86-.77,1.3a9.59,9.59,0,0,1-.85,1.26,20.45,20.45,0,0,1-9.69,7.21,21.07,21.07,0,0,1-12.13.57,21.93,21.93,0,0,1-5.67-2.36l-5.07-2.94-20.22-11.87,1.29-.49-3.37,9.72-3.42,9.71h0a.58.58,0,0,1-.74.36.58.58,0,0,1-.38-.66,29,29,0,0,0,0-8.72,76.22,76.22,0,0,0-1.63-8.73c-.71-2.89-1.48-5.76-2.38-8.59s-1.84-5.65-2.91-8.42a.38.38,0,0,1,.22-.49.37.37,0,0,1,.41.09h0l0,0-.65.36a18.44,18.44,0,0,1,0-10.41,23,23,0,0,1,2-4.85c.39-.75.89-1.51,1.35-2.26a23.18,23.18,0,0,1,1.62-2.11A20.47,20.47,0,0,1,358.48,576a23,23,0,0,1,2.59.69,25.15,25.15,0,0,1,2.45,1.06c1.62.81,3,1.74,4.48,2.63l8.76,5.36C382.6,589.28,388.47,592.82,394.4,596.23Z" transform="translate(-45 -29.44)"/></svg>