<svg width="488" height="96" viewBox="0 0 488 96" fill="none" xmlns="http://www.w3.org/2000/svg">
<mask id="mask0_1334_27077" style="mask-type:alpha" maskUnits="userSpaceOnUse" x="0" y="0" width="488" height="96">
<rect width="488" height="96" rx="12" fill="#063844"/>
</mask>
<g mask="url(#mask0_1334_27077)">
<rect width="488" height="96" rx="12" fill="#CEDDE1"/>
<path d="M488 18.1086V222.12H418.11V22.3593C418.11 4.89309 410.893 -8.62181 396.459 -18.1854C382.026 -27.7489 362.274 -32.5276 337.203 -32.5215C311.369 -32.5215 293.677 -26.3728 280.018 -17.1163C256.163 -0.953875 257.442 70.6897 230.628 117.127C224.159 128.32 208.417 142.183 189.177 150.001C169.431 158.025 146.641 162.039 120.806 162.042C84.341 162.042 55.0929 154.724 33.0616 140.087C11.0304 125.45 0.0098288 104.554 0 77.3994V-84.7031H69.8754V73.1487C69.8754 90.6165 77.0934 104.131 91.5295 113.693C105.967 123.257 125.774 129.103 150.786 128.039C170.347 127.198 189.561 124.806 207.971 112.634C236.197 93.9659 247.188 -2.9788 257.361 -21.6095C263.516 -32.8724 279.572 -46.6659 298.808 -54.4839C318.564 -62.5067 341.359 -66.5204 367.194 -66.525C403.659 -66.525 432.907 -59.2065 454.938 -44.5694C476.97 -29.9324 487.99 -9.03972 488 18.1086Z" fill="#115154" fill-opacity="0.05"/>
</g>
</svg>
